%TF.GenerationSoftware,KiCad,Pcbnew,9.0.3*%
%TF.CreationDate,2025-08-04T00:02:12-07:00*%
%TF.ProjectId,antenna_top_cap_v2b_cygnet_special,616e7465-6e6e-4615-9f74-6f705f636170,rev?*%
%TF.SameCoordinates,Original*%
%TF.FileFunction,Copper,L2,Inr*%
%TF.FilePolarity,Positive*%
%FSLAX46Y46*%
G04 Gerber Fmt 4.6, Leading zero omitted, Abs format (unit mm)*
G04 Created by KiCad (PCBNEW 9.0.3) date 2025-08-04 00:02:12*
%MOMM*%
%LPD*%
G01*
G04 APERTURE LIST*
G04 Aperture macros list*
%AMRoundRect*
0 Rectangle with rounded corners*
0 $1 Rounding radius*
0 $2 $3 $4 $5 $6 $7 $8 $9 X,Y pos of 4 corners*
0 Add a 4 corners polygon primitive as box body*
4,1,4,$2,$3,$4,$5,$6,$7,$8,$9,$2,$3,0*
0 Add four circle primitives for the rounded corners*
1,1,$1+$1,$2,$3*
1,1,$1+$1,$4,$5*
1,1,$1+$1,$6,$7*
1,1,$1+$1,$8,$9*
0 Add four rect primitives between the rounded corners*
20,1,$1+$1,$2,$3,$4,$5,0*
20,1,$1+$1,$4,$5,$6,$7,0*
20,1,$1+$1,$6,$7,$8,$9,0*
20,1,$1+$1,$8,$9,$2,$3,0*%
G04 Aperture macros list end*
%TA.AperFunction,ComponentPad*%
%ADD10O,1.700000X1.700000*%
%TD*%
%TA.AperFunction,ComponentPad*%
%ADD11R,1.700000X1.700000*%
%TD*%
%TA.AperFunction,ComponentPad*%
%ADD12RoundRect,0.250000X-0.350000X-0.575000X0.350000X-0.575000X0.350000X0.575000X-0.350000X0.575000X0*%
%TD*%
%TA.AperFunction,ComponentPad*%
%ADD13O,1.200000X1.650000*%
%TD*%
%TA.AperFunction,ComponentPad*%
%ADD14C,5.400000*%
%TD*%
%TA.AperFunction,ComponentPad*%
%ADD15RoundRect,0.250000X-0.575000X0.350000X-0.575000X-0.350000X0.575000X-0.350000X0.575000X0.350000X0*%
%TD*%
%TA.AperFunction,ComponentPad*%
%ADD16O,1.650000X1.200000*%
%TD*%
%TA.AperFunction,ComponentPad*%
%ADD17RoundRect,0.250000X0.575000X-0.350000X0.575000X0.350000X-0.575000X0.350000X-0.575000X-0.350000X0*%
%TD*%
%TA.AperFunction,ComponentPad*%
%ADD18C,1.700000*%
%TD*%
%TA.AperFunction,ComponentPad*%
%ADD19C,2.050000*%
%TD*%
%TA.AperFunction,ComponentPad*%
%ADD20C,2.250000*%
%TD*%
%TA.AperFunction,HeatsinkPad*%
%ADD21C,0.500000*%
%TD*%
%TA.AperFunction,HeatsinkPad*%
%ADD22O,1.000000X1.600000*%
%TD*%
%TA.AperFunction,HeatsinkPad*%
%ADD23O,1.000000X2.100000*%
%TD*%
%TA.AperFunction,ViaPad*%
%ADD24C,0.800000*%
%TD*%
%TA.AperFunction,ViaPad*%
%ADD25C,0.460000*%
%TD*%
%TA.AperFunction,Conductor*%
%ADD26C,0.152400*%
%TD*%
%TA.AperFunction,Conductor*%
%ADD27C,0.254000*%
%TD*%
%TA.AperFunction,Conductor*%
%ADD28C,0.250000*%
%TD*%
G04 APERTURE END LIST*
D10*
%TO.N,BURN*%
%TO.C,J7*%
X154275800Y-114431900D03*
D11*
X155545800Y-111891900D03*
X158085800Y-111891900D03*
D10*
X159645800Y-114431900D03*
D11*
%TO.N,GND*%
X154275800Y-122811900D03*
X155545800Y-125351900D03*
X158085800Y-125351900D03*
X159645800Y-122811900D03*
%TD*%
%TO.N,~{FC_RESET}*%
%TO.C,J3*%
X134420800Y-67619400D03*
D10*
%TO.N,GND*%
X131880800Y-67619400D03*
%TD*%
D12*
%TO.N,/RBF_High*%
%TO.C,J11*%
X202545800Y-77619400D03*
D13*
%TO.N,/RBF_Low*%
X202545800Y-79619400D03*
%TO.N,/RBF_High*%
X204545800Y-77619400D03*
%TO.N,/RBF_Low*%
X204545800Y-79619400D03*
%TD*%
D14*
%TO.N,unconnected-(TP3-Pad1)*%
%TO.C,TP3*%
X150275800Y-70119400D03*
%TD*%
D15*
%TO.N,Net-(J13-Pin_1)*%
%TO.C,J13*%
X198045800Y-77819400D03*
D16*
%TO.N,GND*%
X196045800Y-77819400D03*
%TO.N,Net-(J13-Pin_1)*%
X198045800Y-79819400D03*
%TO.N,GND*%
X196045800Y-79819400D03*
%TD*%
D17*
%TO.N,GND*%
%TO.C,J1*%
X164745800Y-111119400D03*
D16*
X166745801Y-111119400D03*
%TO.N,WDT_DISABLE*%
X164745800Y-109119399D03*
%TO.N,BURN*%
X166745800Y-109119400D03*
%TO.N,SCL0*%
X164745800Y-107119400D03*
%TO.N,Dir_Chrg_In*%
X166745800Y-107119399D03*
%TO.N,SDA0*%
X164745800Y-105119400D03*
%TO.N,+3V3*%
X166745800Y-105119400D03*
%TO.N,USB_D+*%
X164745800Y-103119400D03*
%TO.N,USB_D-*%
X166745800Y-103119400D03*
%TO.N,FC_USBBOOT*%
X164745800Y-101119400D03*
%TO.N,~{FC_RESET}*%
X166745800Y-101119400D03*
%TD*%
D11*
%TO.N,WDT_DISABLE*%
%TO.C,J10*%
X134285800Y-74919400D03*
D18*
%TO.N,GND*%
X131745800Y-74919400D03*
%TD*%
D14*
%TO.N,unconnected-(TP5-Pad1)*%
%TO.C,TP5*%
X126825800Y-112239400D03*
%TD*%
%TO.N,unconnected-(TP6-Pad1)*%
%TO.C,TP6*%
X165835800Y-73239400D03*
%TD*%
%TO.N,unconnected-(TP1-Pad1)*%
%TO.C,TP1*%
X165835800Y-151189400D03*
%TD*%
%TO.N,unconnected-(TP4-Pad1)*%
%TO.C,TP4*%
X204805800Y-112189400D03*
%TD*%
D19*
%TO.N,Net-(J5-In)*%
%TO.C,J5*%
X165745800Y-118919400D03*
D20*
%TO.N,GND*%
X163205800Y-116379400D03*
X163205800Y-121459400D03*
X168285800Y-116379400D03*
X168285800Y-121459400D03*
%TD*%
D12*
%TO.N,/Payload_D-*%
%TO.C,J9*%
X185895800Y-75069400D03*
D13*
%TO.N,/Payload_VBUS*%
X185895800Y-77069400D03*
%TO.N,/Payload_D+*%
X187895800Y-75069400D03*
%TO.N,GND*%
X187895800Y-77069400D03*
%TD*%
D21*
%TO.N,GND*%
%TO.C,U16*%
X152845800Y-107619400D03*
X152845800Y-106319400D03*
X151745800Y-107619400D03*
X151745800Y-106319400D03*
%TD*%
D11*
%TO.N,FC_USBBOOT*%
%TO.C,J4*%
X134420800Y-71319400D03*
D10*
%TO.N,GND*%
X131880800Y-71319400D03*
%TD*%
D11*
%TO.N,Dir_Chrg_In*%
%TO.C,J2*%
X140170800Y-69519400D03*
D10*
%TO.N,GND*%
X142710800Y-69519400D03*
%TD*%
D22*
%TO.N,GND*%
%TO.C,J12*%
X193245800Y-65619400D03*
D23*
X193245800Y-69799400D03*
D22*
X201885800Y-65619400D03*
D23*
X201885800Y-69799400D03*
%TD*%
D22*
%TO.N,GND*%
%TO.C,J8*%
X182075800Y-65619400D03*
D23*
X182075800Y-69799400D03*
D22*
X190715800Y-65619400D03*
D23*
X190715800Y-69799400D03*
%TD*%
D24*
%TO.N,GND*%
X200745800Y-72119400D03*
X138745800Y-121119400D03*
X193245800Y-71619400D03*
X167245800Y-127119400D03*
X167245800Y-123119400D03*
X191595800Y-72369400D03*
X130347958Y-123222637D03*
X156245800Y-105119400D03*
X167245800Y-126119400D03*
X128845800Y-135719400D03*
X164445800Y-125519400D03*
X167245800Y-124119400D03*
X167395800Y-129169400D03*
X147745800Y-104619400D03*
X164445800Y-123519400D03*
X117945800Y-138629545D03*
X174045800Y-105019400D03*
X164445800Y-124519400D03*
X164545800Y-122519400D03*
X163895800Y-129119400D03*
D25*
X164557800Y-131307400D03*
D24*
X164445800Y-126519400D03*
X167245800Y-125119400D03*
X146045800Y-112219400D03*
X164445800Y-127419400D03*
X140645800Y-122719400D03*
X118145800Y-134819400D03*
X181645800Y-72269400D03*
X164971175Y-128319400D03*
X166545800Y-128419400D03*
X149970800Y-113119400D03*
%TO.N,+3V3*%
X146245800Y-106619400D03*
X140345800Y-124619400D03*
X150245800Y-112119400D03*
%TO.N,2.8V*%
X124045800Y-136819400D03*
X125945800Y-126619400D03*
X118106730Y-136731536D03*
X125745800Y-122619400D03*
X133845800Y-123619400D03*
X129820800Y-126607053D03*
%TO.N,/SCL_3V*%
X122945800Y-138304400D03*
%TO.N,/GPIO*%
X121535800Y-134409400D03*
%TO.N,/XSHUT_2.8V*%
X122625802Y-136719400D03*
%TO.N,/SDA_3V*%
X123845800Y-139119400D03*
%TO.N,SDA0*%
X158145800Y-107119400D03*
X154245800Y-108619400D03*
X132845800Y-126291732D03*
X130545800Y-125867037D03*
%TO.N,SCL0*%
X158758453Y-108132053D03*
X156733147Y-108106747D03*
%TO.N,Net-(J12-CC2)*%
X199245800Y-72119400D03*
%TO.N,Net-(J12-CC1)*%
X196229798Y-69447585D03*
%TO.N,Net-(J8-CC1)*%
X184895800Y-72369400D03*
%TO.N,Net-(J8-CC2)*%
X188145800Y-72269400D03*
D25*
%TO.N,/Payload_D+*%
X187206800Y-69519400D03*
X186145800Y-69519400D03*
D24*
%TO.N,WDT_DISABLE*%
X162645800Y-104119400D03*
%TD*%
D26*
%TO.N,2.8V*%
X125958147Y-126607053D02*
X125945800Y-126619400D01*
D27*
X124045800Y-136819400D02*
X123418800Y-137446400D01*
D26*
X129820800Y-126607053D02*
X125958147Y-126607053D01*
D28*
X133245800Y-124219400D02*
X127345800Y-124219400D01*
X127345800Y-124219400D02*
X125745800Y-122619400D01*
D27*
X123418800Y-137446400D02*
X118821594Y-137446400D01*
D28*
X131145800Y-124219400D02*
X129820800Y-125544400D01*
X129820800Y-125544400D02*
X129820800Y-126607053D01*
D27*
X118821594Y-137446400D02*
X118106730Y-136731536D01*
D28*
X133245800Y-124219400D02*
X131145800Y-124219400D01*
X133845800Y-123619400D02*
X133245800Y-124219400D01*
%TD*%
%TA.AperFunction,Conductor*%
%TO.N,GND*%
G36*
X157619875Y-125158907D02*
G01*
X157585800Y-125286074D01*
X157585800Y-125417726D01*
X157619875Y-125544893D01*
X157655097Y-125605900D01*
X155976503Y-125605900D01*
X156011725Y-125544893D01*
X156045800Y-125417726D01*
X156045800Y-125286074D01*
X156011725Y-125158907D01*
X155976503Y-125097900D01*
X157655097Y-125097900D01*
X157619875Y-125158907D01*
G37*
%TD.AperFunction*%
%TA.AperFunction,Conductor*%
G36*
X196299800Y-79475299D02*
G01*
X196209844Y-79423363D01*
X196101752Y-79394400D01*
X195989848Y-79394400D01*
X195881756Y-79423363D01*
X195791800Y-79475299D01*
X195791800Y-78163500D01*
X195881756Y-78215437D01*
X195989848Y-78244400D01*
X196101752Y-78244400D01*
X196209844Y-78215437D01*
X196299800Y-78163500D01*
X196299800Y-79475299D01*
G37*
%TD.AperFunction*%
%TA.AperFunction,Conductor*%
G36*
X204787821Y-62437702D02*
G01*
X204834314Y-62491358D01*
X204845700Y-62543700D01*
X204845700Y-72757082D01*
X204876223Y-72830773D01*
X204876226Y-72830777D01*
X204932622Y-72887173D01*
X204932626Y-72887176D01*
X205006318Y-72917700D01*
X215219700Y-72917700D01*
X215287821Y-72937702D01*
X215334314Y-72991358D01*
X215345700Y-73043700D01*
X215345700Y-151390700D01*
X215325698Y-151458821D01*
X215272042Y-151505314D01*
X215219700Y-151516700D01*
X205006318Y-151516700D01*
X204932626Y-151547223D01*
X204932622Y-151547226D01*
X204876226Y-151603622D01*
X204876223Y-151603626D01*
X204845700Y-151677317D01*
X204845700Y-161890700D01*
X204825698Y-161958821D01*
X204772042Y-162005314D01*
X204719700Y-162016700D01*
X126372700Y-162016700D01*
X126304579Y-161996698D01*
X126258086Y-161943042D01*
X126246700Y-161890700D01*
X126246700Y-151677317D01*
X126216176Y-151603626D01*
X126216173Y-151603622D01*
X126159777Y-151547226D01*
X126159773Y-151547223D01*
X126086082Y-151516700D01*
X115872700Y-151516700D01*
X115804579Y-151496698D01*
X115758086Y-151443042D01*
X115746700Y-151390700D01*
X115746700Y-151009212D01*
X162627300Y-151009212D01*
X162627300Y-151369587D01*
X162667648Y-151727694D01*
X162674356Y-151757082D01*
X162747838Y-152079026D01*
X162747840Y-152079032D01*
X162747839Y-152079032D01*
X162866854Y-152419157D01*
X162866862Y-152419177D01*
X163023222Y-152743860D01*
X163023223Y-152743863D01*
X163214943Y-153048984D01*
X163214947Y-153048991D01*
X163439639Y-153330745D01*
X163694454Y-153585560D01*
X163976208Y-153810252D01*
X163976215Y-153810256D01*
X164281336Y-154001976D01*
X164281338Y-154001976D01*
X164281342Y-154001979D01*
X164606025Y-154158339D01*
X164606040Y-154158344D01*
X164606042Y-154158345D01*
X164946167Y-154277360D01*
X164946170Y-154277360D01*
X164946174Y-154277362D01*
X165297505Y-154357551D01*
X165297506Y-154357551D01*
X165297509Y-154357552D01*
X165508707Y-154381347D01*
X165655612Y-154397900D01*
X165655614Y-154397900D01*
X166015988Y-154397900D01*
X166106930Y-154387653D01*
X166374091Y-154357552D01*
X166725426Y-154277362D01*
X167065575Y-154158339D01*
X167390258Y-154001979D01*
X167695393Y-153810251D01*
X167977142Y-153585563D01*
X168231963Y-153330742D01*
X168456651Y-153048993D01*
X168648379Y-152743858D01*
X168804739Y-152419175D01*
X168923762Y-152079026D01*
X169003952Y-151727691D01*
X169044300Y-151369586D01*
X169044300Y-151009214D01*
X169003952Y-150651109D01*
X168923762Y-150299774D01*
X168804739Y-149959625D01*
X168648379Y-149634942D01*
X168648376Y-149634938D01*
X168648376Y-149634936D01*
X168456656Y-149329815D01*
X168456652Y-149329808D01*
X168231960Y-149048054D01*
X167977145Y-148793239D01*
X167695391Y-148568547D01*
X167695384Y-148568543D01*
X167390263Y-148376823D01*
X167390260Y-148376822D01*
X167065577Y-148220462D01*
X167065557Y-148220454D01*
X166725432Y-148101439D01*
X166374093Y-148021248D01*
X166374096Y-148021248D01*
X166015988Y-147980900D01*
X166015986Y-147980900D01*
X165655614Y-147980900D01*
X165655612Y-147980900D01*
X165297505Y-148021248D01*
X164946167Y-148101439D01*
X164606042Y-148220454D01*
X164606022Y-148220462D01*
X164281339Y-148376822D01*
X164281336Y-148376823D01*
X163976215Y-148568543D01*
X163976208Y-148568547D01*
X163694454Y-148793239D01*
X163439639Y-149048054D01*
X163214947Y-149329808D01*
X163214943Y-149329815D01*
X163023223Y-149634936D01*
X163023222Y-149634939D01*
X162866862Y-149959622D01*
X162866854Y-149959642D01*
X162747839Y-150299767D01*
X162667648Y-150651105D01*
X162627300Y-151009212D01*
X115746700Y-151009212D01*
X115746700Y-136642054D01*
X117198230Y-136642054D01*
X117198230Y-136642057D01*
X117198230Y-136821015D01*
X117233143Y-136996536D01*
X117301628Y-137161872D01*
X117401052Y-137310671D01*
X117527595Y-137437214D01*
X117676394Y-137536638D01*
X117841730Y-137605123D01*
X118017251Y-137640036D01*
X118064307Y-137640036D01*
X118132428Y-137660038D01*
X118153402Y-137676941D01*
X118416486Y-137940025D01*
X118520572Y-138009573D01*
X118636225Y-138057478D01*
X118759003Y-138081900D01*
X118884185Y-138081900D01*
X121911382Y-138081900D01*
X121979503Y-138101902D01*
X122025996Y-138155558D01*
X122034851Y-138208731D01*
X122037300Y-138208731D01*
X122037300Y-138214921D01*
X122037300Y-138393879D01*
X122072213Y-138569400D01*
X122140698Y-138734736D01*
X122240122Y-138883535D01*
X122366665Y-139010078D01*
X122515464Y-139109502D01*
X122652428Y-139166235D01*
X122680797Y-139177986D01*
X122680798Y-139177986D01*
X122680800Y-139177987D01*
X122856321Y-139212900D01*
X122858895Y-139213412D01*
X122921805Y-139246320D01*
X122956937Y-139308015D01*
X122957893Y-139312409D01*
X122972213Y-139384400D01*
X123040698Y-139549736D01*
X123140122Y-139698535D01*
X123266665Y-139825078D01*
X123415464Y-139924502D01*
X123580800Y-139992987D01*
X123756321Y-140027900D01*
X123756322Y-140027900D01*
X123935278Y-140027900D01*
X123935279Y-140027900D01*
X124110800Y-139992987D01*
X124276136Y-139924502D01*
X124424935Y-139825078D01*
X124551478Y-139698535D01*
X124650902Y-139549736D01*
X124719387Y-139384400D01*
X124754300Y-139208879D01*
X124754300Y-139029921D01*
X124719387Y-138854400D01*
X124650902Y-138689064D01*
X124551478Y-138540265D01*
X124424935Y-138413722D01*
X124276136Y-138314298D01*
X124110800Y-138245813D01*
X124022042Y-138228158D01*
X123932703Y-138210387D01*
X123915119Y-138201188D01*
X123895773Y-138196773D01*
X123884308Y-138185071D01*
X123869794Y-138177479D01*
X123859974Y-138160235D01*
X123846086Y-138146060D01*
X123836306Y-138118671D01*
X123834662Y-138115784D01*
X123833897Y-138112332D01*
X123833815Y-138111939D01*
X123819387Y-138039400D01*
X123818234Y-138036618D01*
X123816419Y-138027840D01*
X123818866Y-137997916D01*
X123818599Y-137967896D01*
X123821762Y-137962509D01*
X123822207Y-137957080D01*
X123834043Y-137941600D01*
X123850712Y-137913221D01*
X123999128Y-137764805D01*
X124061440Y-137730779D01*
X124088223Y-137727900D01*
X124135278Y-137727900D01*
X124135279Y-137727900D01*
X124310800Y-137692987D01*
X124476136Y-137624502D01*
X124624935Y-137525078D01*
X124751478Y-137398535D01*
X124850902Y-137249736D01*
X124919387Y-137084400D01*
X124954300Y-136908879D01*
X124954300Y-136729921D01*
X124919387Y-136554400D01*
X124850902Y-136389064D01*
X124751478Y-136240265D01*
X124624935Y-136113722D01*
X124476136Y-136014298D01*
X124359229Y-135965873D01*
X124310803Y-135945814D01*
X124310801Y-135945813D01*
X124310800Y-135945813D01*
X124222445Y-135928238D01*
X124135281Y-135910900D01*
X124135279Y-135910900D01*
X123956321Y-135910900D01*
X123956318Y-135910900D01*
X123825571Y-135936907D01*
X123780800Y-135945813D01*
X123780799Y-135945813D01*
X123780796Y-135945814D01*
X123649702Y-136000116D01*
X123616860Y-136013720D01*
X123615462Y-136014299D01*
X123466654Y-136113729D01*
X123466092Y-136114191D01*
X123465740Y-136114340D01*
X123461519Y-136117161D01*
X123460983Y-136116359D01*
X123400739Y-136141930D01*
X123330763Y-136129933D01*
X123297085Y-136105870D01*
X123204937Y-136013722D01*
X123056138Y-135914298D01*
X122920101Y-135857949D01*
X122890805Y-135845814D01*
X122890803Y-135845813D01*
X122890802Y-135845813D01*
X122802447Y-135828238D01*
X122715283Y-135810900D01*
X122715281Y-135810900D01*
X122536323Y-135810900D01*
X122536320Y-135810900D01*
X122405573Y-135836907D01*
X122360802Y-135845813D01*
X122360801Y-135845813D01*
X122360798Y-135845814D01*
X122229704Y-135900116D01*
X122203670Y-135910900D01*
X122195464Y-135914299D01*
X122046671Y-136013719D01*
X122046664Y-136013724D01*
X121920126Y-136140262D01*
X121920121Y-136140269D01*
X121820701Y-136289062D01*
X121752216Y-136454396D01*
X121717302Y-136629918D01*
X121717302Y-136684900D01*
X121697300Y-136753021D01*
X121643644Y-136799514D01*
X121591302Y-136810900D01*
X119141230Y-136810900D01*
X119073109Y-136790898D01*
X119026616Y-136737242D01*
X119015230Y-136684900D01*
X119015230Y-136642058D01*
X119015229Y-136642054D01*
X119012815Y-136629918D01*
X118980317Y-136466536D01*
X118911832Y-136301200D01*
X118812408Y-136152401D01*
X118685865Y-136025858D01*
X118537066Y-135926434D01*
X118420159Y-135878009D01*
X118371733Y-135857950D01*
X118371731Y-135857949D01*
X118371730Y-135857949D01*
X118283375Y-135840374D01*
X118196211Y-135823036D01*
X118196209Y-135823036D01*
X118017251Y-135823036D01*
X118017248Y-135823036D01*
X117902742Y-135845813D01*
X117841730Y-135857949D01*
X117841729Y-135857949D01*
X117841726Y-135857950D01*
X117676392Y-135926435D01*
X117527599Y-136025855D01*
X117527592Y-136025860D01*
X117401054Y-136152398D01*
X117401049Y-136152405D01*
X117301629Y-136301198D01*
X117233144Y-136466532D01*
X117198230Y-136642054D01*
X115746700Y-136642054D01*
X115746700Y-134319918D01*
X120627300Y-134319918D01*
X120627300Y-134319921D01*
X120627300Y-134498879D01*
X120662213Y-134674400D01*
X120730698Y-134839736D01*
X120830122Y-134988535D01*
X120956665Y-135115078D01*
X121105464Y-135214502D01*
X121270800Y-135282987D01*
X121446321Y-135317900D01*
X121446322Y-135317900D01*
X121625278Y-135317900D01*
X121625279Y-135317900D01*
X121800800Y-135282987D01*
X121966136Y-135214502D01*
X122114935Y-135115078D01*
X122241478Y-134988535D01*
X122340902Y-134839736D01*
X122409387Y-134674400D01*
X122444300Y-134498879D01*
X122444300Y-134319921D01*
X122409387Y-134144400D01*
X122340902Y-133979064D01*
X122241478Y-133830265D01*
X122114935Y-133703722D01*
X121966136Y-133604298D01*
X121849229Y-133555873D01*
X121800803Y-133535814D01*
X121800801Y-133535813D01*
X121800800Y-133535813D01*
X121712445Y-133518238D01*
X121625281Y-133500900D01*
X121625279Y-133500900D01*
X121446321Y-133500900D01*
X121446318Y-133500900D01*
X121315571Y-133526907D01*
X121270800Y-133535813D01*
X121270799Y-133535813D01*
X121270796Y-133535814D01*
X121105462Y-133604299D01*
X120956669Y-133703719D01*
X120956662Y-133703724D01*
X120830124Y-133830262D01*
X120830119Y-133830269D01*
X120730699Y-133979062D01*
X120662214Y-134144396D01*
X120627300Y-134319918D01*
X115746700Y-134319918D01*
X115746700Y-122529918D01*
X124837300Y-122529918D01*
X124837300Y-122708881D01*
X124844647Y-122745814D01*
X124870885Y-122877726D01*
X124872214Y-122884403D01*
X124892273Y-122932829D01*
X124940698Y-123049736D01*
X125040122Y-123198535D01*
X125166665Y-123325078D01*
X125315464Y-123424502D01*
X125480800Y-123492987D01*
X125656321Y-123527900D01*
X125706206Y-123527900D01*
X125774327Y-123547902D01*
X125795296Y-123564800D01*
X126941967Y-124711472D01*
X127045725Y-124780801D01*
X127127247Y-124814568D01*
X127161015Y-124828555D01*
X127283406Y-124852900D01*
X127283407Y-124852900D01*
X127408194Y-124852900D01*
X129312206Y-124852900D01*
X129380327Y-124872902D01*
X129426820Y-124926558D01*
X129436924Y-124996832D01*
X129407430Y-125061412D01*
X129401301Y-125067995D01*
X129328731Y-125140564D01*
X129328726Y-125140571D01*
X129269117Y-125229783D01*
X129259400Y-125244325D01*
X129211645Y-125359615D01*
X129201828Y-125408968D01*
X129187300Y-125482003D01*
X129187300Y-125896353D01*
X129167298Y-125964474D01*
X129113642Y-126010967D01*
X129061300Y-126022353D01*
X126685756Y-126022353D01*
X126617635Y-126002351D01*
X126596661Y-125985448D01*
X126524937Y-125913724D01*
X126524935Y-125913722D01*
X126376136Y-125814298D01*
X126259229Y-125765873D01*
X126210803Y-125745814D01*
X126210801Y-125745813D01*
X126210800Y-125745813D01*
X126122445Y-125728238D01*
X126035281Y-125710900D01*
X126035279Y-125710900D01*
X125856321Y-125710900D01*
X125856318Y-125710900D01*
X125725571Y-125736907D01*
X125680800Y-125745813D01*
X125680799Y-125745813D01*
X125680796Y-125745814D01*
X125515462Y-125814299D01*
X125366669Y-125913719D01*
X125366662Y-125913724D01*
X125240124Y-126040262D01*
X125240119Y-126040269D01*
X125168240Y-126147845D01*
X125140698Y-126189064D01*
X125126516Y-126223302D01*
X125072214Y-126354396D01*
X125037300Y-126529918D01*
X125037300Y-126708881D01*
X125047333Y-126759319D01*
X125072213Y-126884400D01*
X125140698Y-127049736D01*
X125240122Y-127198535D01*
X125366665Y-127325078D01*
X125515464Y-127424502D01*
X125680800Y-127492987D01*
X125856321Y-127527900D01*
X125856322Y-127527900D01*
X126035278Y-127527900D01*
X126035279Y-127527900D01*
X126210800Y-127492987D01*
X126376136Y-127424502D01*
X126524935Y-127325078D01*
X126621355Y-127228658D01*
X126683667Y-127194632D01*
X126710450Y-127191753D01*
X129068497Y-127191753D01*
X129136618Y-127211755D01*
X129157592Y-127228658D01*
X129241665Y-127312731D01*
X129390464Y-127412155D01*
X129555800Y-127480640D01*
X129731321Y-127515553D01*
X129731322Y-127515553D01*
X129910278Y-127515553D01*
X129910279Y-127515553D01*
X130085800Y-127480640D01*
X130251136Y-127412155D01*
X130399935Y-127312731D01*
X130526478Y-127186188D01*
X130625902Y-127037389D01*
X130694387Y-126872053D01*
X130694388Y-126872047D01*
X130694389Y-126872047D01*
X130700386Y-126841895D01*
X130733292Y-126778985D01*
X130794986Y-126743852D01*
X130799386Y-126742895D01*
X130810794Y-126740626D01*
X130810794Y-126740625D01*
X130810800Y-126740624D01*
X130976136Y-126672139D01*
X131124935Y-126572715D01*
X131251478Y-126446172D01*
X131350902Y-126297373D01*
X131390304Y-126202250D01*
X131937300Y-126202250D01*
X131937300Y-126202253D01*
X131937300Y-126381211D01*
X131966879Y-126529918D01*
X131972214Y-126556735D01*
X131978832Y-126572712D01*
X132040698Y-126722068D01*
X132140122Y-126870867D01*
X132266665Y-126997410D01*
X132415464Y-127096834D01*
X132580800Y-127165319D01*
X132756321Y-127200232D01*
X132759800Y-127200232D01*
X132761554Y-127200747D01*
X132762477Y-127200838D01*
X132762459Y-127201012D01*
X132827921Y-127220234D01*
X132874414Y-127273890D01*
X132885800Y-127326232D01*
X132885800Y-145539400D01*
X197915800Y-145539400D01*
X197915800Y-126869400D01*
X167665800Y-126869400D01*
X167665800Y-137053400D01*
X167645798Y-137121521D01*
X167592142Y-137168014D01*
X167539800Y-137179400D01*
X163541800Y-137179400D01*
X163473679Y-137159398D01*
X163427186Y-137105742D01*
X163415800Y-137053400D01*
X163415800Y-126869400D01*
X159270382Y-126869400D01*
X159202261Y-126849398D01*
X159155768Y-126795742D01*
X159145664Y-126725468D01*
X159175158Y-126660888D01*
X159194873Y-126642532D01*
X159298704Y-126564804D01*
X159386244Y-126447865D01*
X159386244Y-126447864D01*
X159437294Y-126310993D01*
X159443799Y-126250497D01*
X159443800Y-126250485D01*
X159443800Y-125605900D01*
X158516503Y-125605900D01*
X158551725Y-125544893D01*
X158585800Y-125417726D01*
X158585800Y-125286074D01*
X158551725Y-125158907D01*
X158516503Y-125097900D01*
X159443800Y-125097900D01*
X159443800Y-124453314D01*
X159443799Y-124453302D01*
X159437294Y-124392806D01*
X159395741Y-124281396D01*
X159395736Y-124281382D01*
X159392675Y-124273172D01*
X159391572Y-124257734D01*
X159389511Y-124258078D01*
X159389510Y-124258072D01*
X159391572Y-124257728D01*
X159390118Y-124237358D01*
X159387615Y-124202372D01*
X159387619Y-124202363D01*
X159387619Y-124202355D01*
X159391800Y-124194700D01*
X159391800Y-123242602D01*
X159452807Y-123277825D01*
X159579974Y-123311900D01*
X159711626Y-123311900D01*
X159838793Y-123277825D01*
X159899800Y-123242602D01*
X159899800Y-124169900D01*
X160544385Y-124169900D01*
X160544397Y-124169899D01*
X160604893Y-124163394D01*
X160741764Y-124112344D01*
X160741765Y-124112344D01*
X160858704Y-124024804D01*
X160946244Y-123907865D01*
X160946244Y-123907864D01*
X160997294Y-123770993D01*
X161003799Y-123710497D01*
X161003800Y-123710485D01*
X161003800Y-123065900D01*
X160076503Y-123065900D01*
X160111725Y-123004893D01*
X160145800Y-122877726D01*
X160145800Y-122746074D01*
X160111725Y-122618907D01*
X160076503Y-122557900D01*
X161003800Y-122557900D01*
X161003800Y-121913314D01*
X161003799Y-121913302D01*
X160997294Y-121852806D01*
X160946244Y-121715935D01*
X160946244Y-121715934D01*
X160858704Y-121598995D01*
X160741765Y-121511455D01*
X160604893Y-121460405D01*
X160544397Y-121453900D01*
X159899800Y-121453900D01*
X159899800Y-122381197D01*
X159838793Y-122345975D01*
X159711626Y-122311900D01*
X159579974Y-122311900D01*
X159452807Y-122345975D01*
X159391800Y-122381197D01*
X159391800Y-121453900D01*
X158747202Y-121453900D01*
X158686706Y-121460405D01*
X158549835Y-121511455D01*
X158549834Y-121511455D01*
X158432895Y-121598995D01*
X158345355Y-121715934D01*
X158345355Y-121715935D01*
X158294305Y-121852806D01*
X158287800Y-121913302D01*
X158287800Y-122557900D01*
X159215097Y-122557900D01*
X159179875Y-122618907D01*
X159145800Y-122746074D01*
X159145800Y-122877726D01*
X159179875Y-123004893D01*
X159215097Y-123065900D01*
X158287800Y-123065900D01*
X158287800Y-123710497D01*
X158294305Y-123770994D01*
X158335859Y-123882406D01*
X158335861Y-123882410D01*
X158338921Y-123890615D01*
X158343984Y-123961431D01*
X158339800Y-123969093D01*
X158339800Y-124921197D01*
X158278793Y-124885975D01*
X158151626Y-124851900D01*
X158019974Y-124851900D01*
X157892807Y-124885975D01*
X157831800Y-124921197D01*
X157831800Y-123993900D01*
X157187202Y-123993900D01*
X157126706Y-124000405D01*
X156989835Y-124051455D01*
X156989834Y-124051455D01*
X156891309Y-124125211D01*
X156824789Y-124150022D01*
X156755414Y-124134930D01*
X156740291Y-124125211D01*
X156641765Y-124051455D01*
X156504893Y-124000405D01*
X156444397Y-123993900D01*
X155725630Y-123993900D01*
X155657509Y-123973898D01*
X155611016Y-123920242D01*
X155600912Y-123849968D01*
X155607574Y-123823868D01*
X155627294Y-123770994D01*
X155633799Y-123710497D01*
X155633800Y-123710485D01*
X155633800Y-123065900D01*
X154706503Y-123065900D01*
X154741725Y-123004893D01*
X154775800Y-122877726D01*
X154775800Y-122746074D01*
X154741725Y-122618907D01*
X154706503Y-122557900D01*
X155633800Y-122557900D01*
X155633800Y-121913314D01*
X155633799Y-121913302D01*
X155627294Y-121852806D01*
X155576244Y-121715935D01*
X155576244Y-121715934D01*
X155488704Y-121598995D01*
X155371765Y-121511455D01*
X155234893Y-121460405D01*
X155174397Y-121453900D01*
X154529800Y-121453900D01*
X154529800Y-122381197D01*
X154468793Y-122345975D01*
X154341626Y-122311900D01*
X154209974Y-122311900D01*
X154082807Y-122345975D01*
X154021800Y-122381197D01*
X154021800Y-121453900D01*
X153377202Y-121453900D01*
X153316706Y-121460405D01*
X153179835Y-121511455D01*
X153179834Y-121511455D01*
X153062895Y-121598995D01*
X152975355Y-121715934D01*
X152975355Y-121715935D01*
X152924305Y-121852806D01*
X152917800Y-121913302D01*
X152917800Y-122557900D01*
X153845097Y-122557900D01*
X153809875Y-122618907D01*
X153775800Y-122746074D01*
X153775800Y-122877726D01*
X153809875Y-123004893D01*
X153845097Y-123065900D01*
X152917800Y-123065900D01*
X152917800Y-123710497D01*
X152924305Y-123770993D01*
X152975355Y-123907864D01*
X152975355Y-123907865D01*
X153062895Y-124024804D01*
X153179834Y-124112344D01*
X153316706Y-124163394D01*
X153377202Y-124169899D01*
X153377215Y-124169900D01*
X154095970Y-124169900D01*
X154164091Y-124189902D01*
X154210584Y-124243558D01*
X154220688Y-124313832D01*
X154214026Y-124339932D01*
X154194305Y-124392805D01*
X154187800Y-124453302D01*
X154187800Y-125097900D01*
X155115097Y-125097900D01*
X155079875Y-125158907D01*
X155045800Y-125286074D01*
X155045800Y-125417726D01*
X155079875Y-125544893D01*
X155115097Y-125605900D01*
X154187800Y-125605900D01*
X154187800Y-126250497D01*
X154194305Y-126310993D01*
X154245355Y-126447864D01*
X154245355Y-126447865D01*
X154332895Y-126564804D01*
X154436727Y-126642532D01*
X154479274Y-126699368D01*
X154484338Y-126770184D01*
X154450313Y-126832496D01*
X154388001Y-126866521D01*
X154361218Y-126869400D01*
X133778448Y-126869400D01*
X133710327Y-126849398D01*
X133663834Y-126795742D01*
X133653730Y-126725468D01*
X133662039Y-126695181D01*
X133683847Y-126642532D01*
X133719387Y-126556732D01*
X133754300Y-126381211D01*
X133754300Y-126202253D01*
X133719387Y-126026732D01*
X133650902Y-125861396D01*
X133551478Y-125712597D01*
X133424935Y-125586054D01*
X133276136Y-125486630D01*
X133126147Y-125424502D01*
X133110803Y-125418146D01*
X133110801Y-125418145D01*
X133110800Y-125418145D01*
X133022445Y-125400570D01*
X132935281Y-125383232D01*
X132935279Y-125383232D01*
X132756321Y-125383232D01*
X132756318Y-125383232D01*
X132625571Y-125409239D01*
X132580800Y-125418145D01*
X132580799Y-125418145D01*
X132580796Y-125418146D01*
X132449702Y-125472448D01*
X132426628Y-125482006D01*
X132415462Y-125486631D01*
X132266669Y-125586051D01*
X132266662Y-125586056D01*
X132140124Y-125712594D01*
X132140119Y-125712601D01*
X132040699Y-125861394D01*
X131972214Y-126026728D01*
X131937300Y-126202250D01*
X131390304Y-126202250D01*
X131419387Y-126132037D01*
X131454300Y-125956516D01*
X131454300Y-125777558D01*
X131419387Y-125602037D01*
X131350902Y-125436701D01*
X131251478Y-125287902D01*
X131201434Y-125237858D01*
X131197025Y-125229783D01*
X131189661Y-125224271D01*
X131180277Y-125199112D01*
X131167409Y-125175545D01*
X131168065Y-125166369D01*
X131164851Y-125157751D01*
X131170558Y-125131513D01*
X131172475Y-125104729D01*
X131178386Y-125095530D01*
X131179943Y-125088377D01*
X131201431Y-125059672D01*
X131371300Y-124889804D01*
X131433612Y-124855779D01*
X131460395Y-124852900D01*
X133308193Y-124852900D01*
X133308194Y-124852900D01*
X133430585Y-124828555D01*
X133545875Y-124780800D01*
X133649633Y-124711471D01*
X133796299Y-124564805D01*
X133858611Y-124530779D01*
X133866621Y-124529918D01*
X139437300Y-124529918D01*
X139437300Y-124708881D01*
X139437816Y-124711473D01*
X139472213Y-124884400D01*
X139540698Y-125049736D01*
X139640122Y-125198535D01*
X139766665Y-125325078D01*
X139915464Y-125424502D01*
X140080800Y-125492987D01*
X140256321Y-125527900D01*
X140256322Y-125527900D01*
X140435278Y-125527900D01*
X140435279Y-125527900D01*
X140610800Y-125492987D01*
X140776136Y-125424502D01*
X140924935Y-125325078D01*
X141051478Y-125198535D01*
X141150902Y-125049736D01*
X141219387Y-124884400D01*
X141254300Y-124708879D01*
X141254300Y-124529921D01*
X141219387Y-124354400D01*
X141150902Y-124189064D01*
X141051478Y-124040265D01*
X140924935Y-123913722D01*
X140776136Y-123814298D01*
X140659229Y-123765873D01*
X140610803Y-123745814D01*
X140610801Y-123745813D01*
X140610800Y-123745813D01*
X140522445Y-123728238D01*
X140435281Y-123710900D01*
X140435279Y-123710900D01*
X140256321Y-123710900D01*
X140256318Y-123710900D01*
X140125571Y-123736907D01*
X140080800Y-123745813D01*
X140080799Y-123745813D01*
X140080796Y-123745814D01*
X139915462Y-123814299D01*
X139766669Y-123913719D01*
X139766662Y-123913724D01*
X139640124Y-124040262D01*
X139640119Y-124040269D01*
X139553504Y-124169899D01*
X139540698Y-124189064D01*
X139536777Y-124198530D01*
X139472214Y-124354396D01*
X139437300Y-124529918D01*
X133866621Y-124529918D01*
X133885394Y-124527900D01*
X133935278Y-124527900D01*
X133935279Y-124527900D01*
X134110800Y-124492987D01*
X134276136Y-124424502D01*
X134424935Y-124325078D01*
X134551478Y-124198535D01*
X134650902Y-124049736D01*
X134719387Y-123884400D01*
X134754300Y-123708879D01*
X134754300Y-123529921D01*
X134719387Y-123354400D01*
X134650902Y-123189064D01*
X134650901Y-123189062D01*
X134650900Y-123189060D01*
X134650899Y-123189059D01*
X134580509Y-123083712D01*
X134580508Y-123083711D01*
X134557806Y-123049736D01*
X134551478Y-123040265D01*
X134424935Y-122913722D01*
X134276136Y-122814298D01*
X134159229Y-122765873D01*
X134110803Y-122745814D01*
X134110801Y-122745813D01*
X134110800Y-122745813D01*
X134022445Y-122728238D01*
X133935281Y-122710900D01*
X133935279Y-122710900D01*
X133756321Y-122710900D01*
X133756318Y-122710900D01*
X133625571Y-122736907D01*
X133580800Y-122745813D01*
X133580799Y-122745813D01*
X133580796Y-122745814D01*
X133415462Y-122814299D01*
X133266669Y-122913719D01*
X133266662Y-122913724D01*
X133140124Y-123040262D01*
X133140119Y-123040269D01*
X133040699Y-123189062D01*
X132972214Y-123354397D01*
X132946338Y-123484482D01*
X132913430Y-123547391D01*
X132851735Y-123582523D01*
X132822759Y-123585900D01*
X127660395Y-123585900D01*
X127592274Y-123565898D01*
X127571300Y-123548995D01*
X126691205Y-122668900D01*
X126657179Y-122606588D01*
X126654300Y-122579805D01*
X126654300Y-122529922D01*
X126654299Y-122529918D01*
X126619387Y-122354400D01*
X126550902Y-122189064D01*
X126451478Y-122040265D01*
X126324935Y-121913722D01*
X126176136Y-121814298D01*
X126059229Y-121765873D01*
X126010803Y-121745814D01*
X126010801Y-121745813D01*
X126010800Y-121745813D01*
X125922445Y-121728238D01*
X125835281Y-121710900D01*
X125835279Y-121710900D01*
X125656321Y-121710900D01*
X125656318Y-121710900D01*
X125525571Y-121736907D01*
X125480800Y-121745813D01*
X125480799Y-121745813D01*
X125480796Y-121745814D01*
X125315462Y-121814299D01*
X125166669Y-121913719D01*
X125166662Y-121913724D01*
X125040124Y-122040262D01*
X125040119Y-122040269D01*
X124940699Y-122189062D01*
X124872214Y-122354396D01*
X124837300Y-122529918D01*
X115746700Y-122529918D01*
X115746700Y-121330882D01*
X161572800Y-121330882D01*
X161572800Y-121587917D01*
X161613010Y-121841799D01*
X161692437Y-122086250D01*
X161692440Y-122086256D01*
X161809133Y-122315278D01*
X161885542Y-122420445D01*
X161885543Y-122420445D01*
X162450027Y-121855960D01*
X162452540Y-121862026D01*
X162545562Y-122001244D01*
X162663956Y-122119638D01*
X162803174Y-122212660D01*
X162809237Y-122215171D01*
X162244753Y-122779655D01*
X162244753Y-122779656D01*
X162349921Y-122856066D01*
X162578943Y-122972759D01*
X162578949Y-122972762D01*
X162823400Y-123052189D01*
X163077282Y-123092400D01*
X163334318Y-123092400D01*
X163588199Y-123052189D01*
X163832650Y-122972762D01*
X163832656Y-122972759D01*
X164061677Y-122856067D01*
X164166846Y-122779656D01*
X163602362Y-122215171D01*
X163608426Y-122212660D01*
X163747644Y-122119638D01*
X163866038Y-122001244D01*
X163959060Y-121862026D01*
X163961571Y-121855961D01*
X164526056Y-122420446D01*
X164602467Y-122315277D01*
X164719159Y-122086256D01*
X164719162Y-122086250D01*
X164798589Y-121841799D01*
X164838800Y-121587917D01*
X164838800Y-121330882D01*
X166652800Y-121330882D01*
X166652800Y-121587917D01*
X166693010Y-121841799D01*
X166772437Y-122086250D01*
X166772440Y-122086256D01*
X166889133Y-122315278D01*
X166965542Y-122420445D01*
X166965543Y-122420445D01*
X167530027Y-121855960D01*
X167532540Y-121862026D01*
X167625562Y-122001244D01*
X167743956Y-122119638D01*
X167883174Y-122212660D01*
X167889237Y-122215171D01*
X167324753Y-122779655D01*
X167324753Y-122779656D01*
X167429921Y-122856066D01*
X167658943Y-122972759D01*
X167658949Y-122972762D01*
X167903400Y-123052189D01*
X168157282Y-123092400D01*
X168414318Y-123092400D01*
X168668199Y-123052189D01*
X168912650Y-122972762D01*
X168912656Y-122972759D01*
X169141677Y-122856067D01*
X169246846Y-122779656D01*
X168682362Y-122215171D01*
X168688426Y-122212660D01*
X168827644Y-122119638D01*
X168946038Y-122001244D01*
X169039060Y-121862026D01*
X169041571Y-121855961D01*
X169606056Y-122420446D01*
X169682467Y-122315277D01*
X169799159Y-122086256D01*
X169799162Y-122086250D01*
X169878589Y-121841799D01*
X169918800Y-121587917D01*
X169918800Y-121330882D01*
X169878589Y-121077000D01*
X169799162Y-120832549D01*
X169799159Y-120832543D01*
X169682466Y-120603521D01*
X169606056Y-120498353D01*
X169606055Y-120498353D01*
X169041571Y-121062837D01*
X169039060Y-121056774D01*
X168946038Y-120917556D01*
X168827644Y-120799162D01*
X168688426Y-120706140D01*
X168682361Y-120703627D01*
X169246845Y-120139143D01*
X169246845Y-120139142D01*
X169141678Y-120062733D01*
X168912656Y-119946040D01*
X168912650Y-119946037D01*
X168668199Y-119866610D01*
X168414318Y-119826400D01*
X168157282Y-119826400D01*
X167903400Y-119866610D01*
X167658949Y-119946037D01*
X167658943Y-119946040D01*
X167429917Y-120062735D01*
X167324753Y-120139141D01*
X167324753Y-120139143D01*
X167889238Y-120703628D01*
X167883174Y-120706140D01*
X167743956Y-120799162D01*
X167625562Y-120917556D01*
X167532540Y-121056774D01*
X167530028Y-121062838D01*
X166965543Y-120498353D01*
X166965541Y-120498353D01*
X166889135Y-120603517D01*
X166772440Y-120832543D01*
X166772437Y-120832549D01*
X166693010Y-121077000D01*
X166652800Y-121330882D01*
X164838800Y-121330882D01*
X164798589Y-121077000D01*
X164719162Y-120832549D01*
X164719159Y-120832543D01*
X164602466Y-120603521D01*
X164526056Y-120498353D01*
X164526055Y-120498353D01*
X163961571Y-121062837D01*
X163959060Y-121056774D01*
X163866038Y-120917556D01*
X163747644Y-120799162D01*
X163608426Y-120706140D01*
X163602361Y-120703627D01*
X164166845Y-120139143D01*
X164166845Y-120139142D01*
X164061678Y-120062733D01*
X163832656Y-119946040D01*
X163832650Y-119946037D01*
X163588199Y-119866610D01*
X163334318Y-119826400D01*
X163077282Y-119826400D01*
X162823400Y-119866610D01*
X162578949Y-119946037D01*
X162578943Y-119946040D01*
X162349917Y-120062735D01*
X162244753Y-120139141D01*
X162244753Y-120139143D01*
X162809238Y-120703628D01*
X162803174Y-120706140D01*
X162663956Y-120799162D01*
X162545562Y-120917556D01*
X162452540Y-121056774D01*
X162450028Y-121062838D01*
X161885543Y-120498353D01*
X161885541Y-120498353D01*
X161809135Y-120603517D01*
X161692440Y-120832543D01*
X161692437Y-120832549D01*
X161613010Y-121077000D01*
X161572800Y-121330882D01*
X115746700Y-121330882D01*
X115746700Y-118798711D01*
X164212300Y-118798711D01*
X164212300Y-119040089D01*
X164250060Y-119278495D01*
X164250061Y-119278500D01*
X164324648Y-119508055D01*
X164324650Y-119508060D01*
X164324651Y-119508061D01*
X164434235Y-119723132D01*
X164576113Y-119918410D01*
X164746789Y-120089086D01*
X164875069Y-120182287D01*
X164942071Y-120230967D01*
X165157140Y-120340550D01*
X165386705Y-120415140D01*
X165625111Y-120452900D01*
X165625114Y-120452900D01*
X165866486Y-120452900D01*
X165866489Y-120452900D01*
X166104895Y-120415140D01*
X166334460Y-120340550D01*
X166549529Y-120230967D01*
X166744808Y-120089088D01*
X166915488Y-119918408D01*
X167057367Y-119723129D01*
X167166950Y-119508060D01*
X167241540Y-119278495D01*
X167279300Y-119040089D01*
X167279300Y-118798711D01*
X167241540Y-118560305D01*
X167166950Y-118330740D01*
X167057367Y-118115671D01*
X166915488Y-117920392D01*
X166915486Y-117920389D01*
X166744816Y-117749719D01*
X166744807Y-117749711D01*
X166549532Y-117607835D01*
X166549531Y-117607834D01*
X166549529Y-117607833D01*
X166334460Y-117498250D01*
X166334457Y-117498249D01*
X166334455Y-117498248D01*
X166104900Y-117423661D01*
X166104896Y-117423660D01*
X166104895Y-117423660D01*
X165866489Y-117385900D01*
X165625111Y-117385900D01*
X165386705Y-117423660D01*
X165386699Y-117423661D01*
X165157144Y-117498248D01*
X165157138Y-117498251D01*
X164942067Y-117607835D01*
X164746789Y-117749713D01*
X164576113Y-117920389D01*
X164434235Y-118115667D01*
X164324651Y-118330738D01*
X164324648Y-118330744D01*
X164250061Y-118560299D01*
X164250060Y-118560304D01*
X164250060Y-118560305D01*
X164212300Y-118798711D01*
X115746700Y-118798711D01*
X115746700Y-116250882D01*
X161572800Y-116250882D01*
X161572800Y-116507917D01*
X161613010Y-116761799D01*
X161692437Y-117006250D01*
X161692440Y-117006256D01*
X161809133Y-117235278D01*
X161885542Y-117340445D01*
X161885543Y-117340445D01*
X162450027Y-116775960D01*
X162452540Y-116782026D01*
X162545562Y-116921244D01*
X162663956Y-117039638D01*
X162803174Y-117132660D01*
X162809237Y-117135171D01*
X162244753Y-117699655D01*
X162244753Y-117699656D01*
X162349921Y-117776066D01*
X162578943Y-117892759D01*
X162578949Y-117892762D01*
X162823400Y-117972189D01*
X163077282Y-118012400D01*
X163334318Y-118012400D01*
X163588199Y-117972189D01*
X163832650Y-117892762D01*
X163832656Y-117892759D01*
X164061677Y-117776067D01*
X164166846Y-117699656D01*
X163602362Y-117135171D01*
X163608426Y-117132660D01*
X163747644Y-117039638D01*
X163866038Y-116921244D01*
X163959060Y-116782026D01*
X163961571Y-116775961D01*
X164526056Y-117340446D01*
X164602467Y-117235277D01*
X164719159Y-117006256D01*
X164719162Y-117006250D01*
X164798589Y-116761799D01*
X164838800Y-116507917D01*
X164838800Y-116250882D01*
X166652800Y-116250882D01*
X166652800Y-116507917D01*
X166693010Y-116761799D01*
X166772437Y-117006250D01*
X166772440Y-117006256D01*
X166889133Y-117235278D01*
X166965542Y-117340445D01*
X166965543Y-117340445D01*
X167530027Y-116775960D01*
X167532540Y-116782026D01*
X167625562Y-116921244D01*
X167743956Y-117039638D01*
X167883174Y-117132660D01*
X167889237Y-117135171D01*
X167324753Y-117699655D01*
X167324753Y-117699656D01*
X167429921Y-117776066D01*
X167658943Y-117892759D01*
X167658949Y-117892762D01*
X167903400Y-117972189D01*
X168157282Y-118012400D01*
X168414318Y-118012400D01*
X168668199Y-117972189D01*
X168912650Y-117892762D01*
X168912656Y-117892759D01*
X169141677Y-117776067D01*
X169246846Y-117699656D01*
X168682362Y-117135171D01*
X168688426Y-117132660D01*
X168827644Y-117039638D01*
X168946038Y-116921244D01*
X169039060Y-116782026D01*
X169041571Y-116775961D01*
X169606056Y-117340446D01*
X169682467Y-117235277D01*
X169799159Y-117006256D01*
X169799162Y-117006250D01*
X169878589Y-116761799D01*
X169918800Y-116507917D01*
X169918800Y-116250882D01*
X169878589Y-115997000D01*
X169799162Y-115752549D01*
X169799159Y-115752543D01*
X169682466Y-115523521D01*
X169606056Y-115418353D01*
X169606055Y-115418353D01*
X169041571Y-115982837D01*
X169039060Y-115976774D01*
X168946038Y-115837556D01*
X168827644Y-115719162D01*
X168688426Y-115626140D01*
X168682361Y-115623627D01*
X169246845Y-115059143D01*
X169246845Y-115059142D01*
X169141678Y-114982733D01*
X168912656Y-114866040D01*
X168912650Y-114866037D01*
X168668199Y-114786610D01*
X168414318Y-114746400D01*
X168157282Y-114746400D01*
X167903400Y-114786610D01*
X167658949Y-114866037D01*
X167658943Y-114866040D01*
X167429917Y-114982735D01*
X167324753Y-115059141D01*
X167324753Y-115059143D01*
X167889238Y-115623628D01*
X167883174Y-115626140D01*
X167743956Y-115719162D01*
X167625562Y-115837556D01*
X167532540Y-115976774D01*
X167530028Y-115982838D01*
X166965543Y-115418353D01*
X166965541Y-115418353D01*
X166889135Y-115523517D01*
X166772440Y-115752543D01*
X166772437Y-115752549D01*
X166693010Y-115997000D01*
X166652800Y-116250882D01*
X164838800Y-116250882D01*
X164798589Y-115997000D01*
X164719162Y-115752549D01*
X164719159Y-115752543D01*
X164602466Y-115523521D01*
X164526056Y-115418353D01*
X164526055Y-115418353D01*
X163961571Y-115982837D01*
X163959060Y-115976774D01*
X163866038Y-115837556D01*
X163747644Y-115719162D01*
X163608426Y-115626140D01*
X163602361Y-115623627D01*
X164166845Y-115059143D01*
X164166845Y-115059142D01*
X164061678Y-114982733D01*
X163832656Y-114866040D01*
X163832650Y-114866037D01*
X163588199Y-114786610D01*
X163334318Y-114746400D01*
X163077282Y-114746400D01*
X162823400Y-114786610D01*
X162578949Y-114866037D01*
X162578943Y-114866040D01*
X162349917Y-114982735D01*
X162244753Y-115059141D01*
X162244753Y-115059143D01*
X162809238Y-115623628D01*
X162803174Y-115626140D01*
X162663956Y-115719162D01*
X162545562Y-115837556D01*
X162452540Y-115976774D01*
X162450028Y-115982838D01*
X161885543Y-115418353D01*
X161885541Y-115418353D01*
X161809135Y-115523517D01*
X161692440Y-115752543D01*
X161692437Y-115752549D01*
X161613010Y-115997000D01*
X161572800Y-116250882D01*
X115746700Y-116250882D01*
X115746700Y-112059212D01*
X123617300Y-112059212D01*
X123617300Y-112419587D01*
X123657648Y-112777694D01*
X123668464Y-112825080D01*
X123737838Y-113129026D01*
X123737840Y-113129032D01*
X123737839Y-113129032D01*
X123856854Y-113469157D01*
X123856862Y-113469177D01*
X124013222Y-113793860D01*
X124013223Y-113793863D01*
X124204943Y-114098984D01*
X124204947Y-114098991D01*
X124429639Y-114380745D01*
X124684454Y-114635560D01*
X124966208Y-114860252D01*
X124966215Y-114860256D01*
X125271336Y-115051976D01*
X125271338Y-115051976D01*
X125271342Y-115051979D01*
X125596025Y-115208339D01*
X125596040Y-115208344D01*
X125596042Y-115208345D01*
X125936167Y-115327360D01*
X125936170Y-115327360D01*
X125936174Y-115327362D01*
X126287505Y-115407551D01*
X126287506Y-115407551D01*
X126287509Y-115407552D01*
X126498707Y-115431347D01*
X126645612Y-115447900D01*
X126645614Y-115447900D01*
X127005988Y-115447900D01*
X127096930Y-115437653D01*
X127364091Y-115407552D01*
X127715426Y-115327362D01*
X127745314Y-115316904D01*
X127858324Y-115277360D01*
X128055575Y-115208339D01*
X128380258Y-115051979D01*
X128685393Y-114860251D01*
X128967142Y-114635563D01*
X129221963Y-114380742D01*
X129266429Y-114324984D01*
X152917300Y-114324984D01*
X152917300Y-114538816D01*
X152950178Y-114746400D01*
X152950752Y-114750021D01*
X153016826Y-114953378D01*
X153016828Y-114953383D01*
X153113906Y-115143909D01*
X153113908Y-115143912D01*
X153124390Y-115158339D01*
X153239594Y-115316904D01*
X153239596Y-115316906D01*
X153239598Y-115316909D01*
X153390790Y-115468101D01*
X153390793Y-115468103D01*
X153390796Y-115468106D01*
X153563791Y-115593794D01*
X153754317Y-115690872D01*
X153957678Y-115756947D01*
X153957679Y-115756947D01*
X153957684Y-115756949D01*
X154168884Y-115790400D01*
X154168887Y-115790400D01*
X154382713Y-115790400D01*
X154382716Y-115790400D01*
X154593916Y-115756949D01*
X154797283Y-115690872D01*
X154987809Y-115593794D01*
X155160804Y-115468106D01*
X155312006Y-115316904D01*
X155437694Y-115143909D01*
X155534772Y-114953383D01*
X155600849Y-114750016D01*
X155634300Y-114538816D01*
X155634300Y-114324984D01*
X155600849Y-114113784D01*
X155534772Y-113910417D01*
X155437694Y-113719891D01*
X155312006Y-113546896D01*
X155312003Y-113546893D01*
X155312001Y-113546890D01*
X155230606Y-113465495D01*
X155196580Y-113403183D01*
X155201645Y-113332368D01*
X155244192Y-113275532D01*
X155310712Y-113250721D01*
X155319701Y-113250400D01*
X156444432Y-113250400D01*
X156444438Y-113250400D01*
X156444445Y-113250399D01*
X156444449Y-113250399D01*
X156504996Y-113243890D01*
X156504999Y-113243889D01*
X156505001Y-113243889D01*
X156642004Y-113192789D01*
X156740292Y-113119211D01*
X156806811Y-113094401D01*
X156876185Y-113109492D01*
X156891302Y-113119206D01*
X156989596Y-113192789D01*
X157126595Y-113243888D01*
X157126603Y-113243890D01*
X157187150Y-113250399D01*
X157187155Y-113250399D01*
X157187162Y-113250400D01*
X158601899Y-113250400D01*
X158670020Y-113270402D01*
X158716513Y-113324058D01*
X158726617Y-113394332D01*
X158697123Y-113458912D01*
X158690994Y-113465495D01*
X158609598Y-113546890D01*
X158609596Y-113546893D01*
X158483908Y-113719887D01*
X158386829Y-113910415D01*
X158386826Y-113910421D01*
X158320752Y-114113778D01*
X158320751Y-114113783D01*
X158320751Y-114113784D01*
X158287300Y-114324984D01*
X158287300Y-114538816D01*
X158320178Y-114746400D01*
X158320752Y-114750021D01*
X158386826Y-114953378D01*
X158386828Y-114953383D01*
X158483906Y-115143909D01*
X158483908Y-115143912D01*
X158494390Y-115158339D01*
X158609594Y-115316904D01*
X158609596Y-115316906D01*
X158609598Y-115316909D01*
X158760790Y-115468101D01*
X158760793Y-115468103D01*
X158760796Y-115468106D01*
X158933791Y-115593794D01*
X159124317Y-115690872D01*
X159327678Y-115756947D01*
X159327679Y-115756947D01*
X159327684Y-115756949D01*
X159538884Y-115790400D01*
X159538887Y-115790400D01*
X159752713Y-115790400D01*
X159752716Y-115790400D01*
X159963916Y-115756949D01*
X160167283Y-115690872D01*
X160357809Y-115593794D01*
X160530804Y-115468106D01*
X160682006Y-115316904D01*
X160807694Y-115143909D01*
X160904772Y-114953383D01*
X160970849Y-114750016D01*
X161004300Y-114538816D01*
X161004300Y-114324984D01*
X160970849Y-114113784D01*
X160904772Y-113910417D01*
X160807694Y-113719891D01*
X160682006Y-113546896D01*
X160682003Y-113546893D01*
X160682001Y-113546890D01*
X160530809Y-113395698D01*
X160530806Y-113395696D01*
X160530804Y-113395694D01*
X160357809Y-113270006D01*
X160167283Y-113172928D01*
X160167280Y-113172927D01*
X160167278Y-113172926D01*
X159963920Y-113106852D01*
X159963923Y-113106852D01*
X159885310Y-113094401D01*
X159752716Y-113073400D01*
X159538884Y-113073400D01*
X159536350Y-113073400D01*
X159468229Y-113053398D01*
X159421736Y-112999742D01*
X159411632Y-112929468D01*
X159418295Y-112903367D01*
X159437788Y-112851104D01*
X159437790Y-112851096D01*
X159444299Y-112790549D01*
X159444300Y-112790532D01*
X159444300Y-110993267D01*
X159444299Y-110993250D01*
X159437790Y-110932703D01*
X159437788Y-110932695D01*
X159386689Y-110795697D01*
X159386687Y-110795692D01*
X159299061Y-110678638D01*
X159182007Y-110591012D01*
X159182002Y-110591010D01*
X159045004Y-110539911D01*
X159044996Y-110539909D01*
X158984449Y-110533400D01*
X158984438Y-110533400D01*
X157187162Y-110533400D01*
X157187150Y-110533400D01*
X157126603Y-110539909D01*
X157126595Y-110539911D01*
X156989597Y-110591010D01*
X156989592Y-110591012D01*
X156891309Y-110664587D01*
X156824789Y-110689398D01*
X156755415Y-110674307D01*
X156740291Y-110664587D01*
X156642007Y-110591012D01*
X156642002Y-110591010D01*
X156505004Y-110539911D01*
X156504996Y-110539909D01*
X156444449Y-110533400D01*
X156444438Y-110533400D01*
X154647162Y-110533400D01*
X154647150Y-110533400D01*
X154586603Y-110539909D01*
X154586595Y-110539911D01*
X154449597Y-110591010D01*
X154449592Y-110591012D01*
X154332538Y-110678638D01*
X154244912Y-110795692D01*
X154244910Y-110795697D01*
X154193811Y-110932695D01*
X154193809Y-110932703D01*
X154187300Y-110993250D01*
X154187300Y-112790549D01*
X154193809Y-112851096D01*
X154193810Y-112851097D01*
X154193810Y-112851099D01*
X154193811Y-112851101D01*
X154216860Y-112912896D01*
X154221925Y-112983712D01*
X154187900Y-113046024D01*
X154125588Y-113080049D01*
X154118524Y-113081376D01*
X153957684Y-113106851D01*
X153957678Y-113106852D01*
X153754321Y-113172926D01*
X153754315Y-113172929D01*
X153563787Y-113270008D01*
X153390793Y-113395696D01*
X153390790Y-113395698D01*
X153239598Y-113546890D01*
X153239596Y-113546893D01*
X153113908Y-113719887D01*
X153016829Y-113910415D01*
X153016826Y-113910421D01*
X152950752Y-114113778D01*
X152950751Y-114113783D01*
X152950751Y-114113784D01*
X152917300Y-114324984D01*
X129266429Y-114324984D01*
X129446651Y-114098993D01*
X129638379Y-113793858D01*
X129794739Y-113469175D01*
X129913762Y-113129026D01*
X129993952Y-112777691D01*
X130034300Y-112419586D01*
X130034300Y-112059214D01*
X130034300Y-112059211D01*
X130031892Y-112037837D01*
X130031000Y-112029918D01*
X149337300Y-112029918D01*
X149337300Y-112029921D01*
X149337300Y-112208879D01*
X149372213Y-112384400D01*
X149440698Y-112549736D01*
X149540122Y-112698535D01*
X149666665Y-112825078D01*
X149815464Y-112924502D01*
X149980800Y-112992987D01*
X150156321Y-113027900D01*
X150156322Y-113027900D01*
X150335278Y-113027900D01*
X150335279Y-113027900D01*
X150510800Y-112992987D01*
X150676136Y-112924502D01*
X150824935Y-112825078D01*
X150951478Y-112698535D01*
X151050902Y-112549736D01*
X151119387Y-112384400D01*
X151154300Y-112208879D01*
X151154300Y-112029921D01*
X151119387Y-111854400D01*
X151050902Y-111689064D01*
X150951478Y-111540265D01*
X150824935Y-111413722D01*
X150676136Y-111314298D01*
X150559229Y-111265873D01*
X150510803Y-111245814D01*
X150510801Y-111245813D01*
X150510800Y-111245813D01*
X150422445Y-111228238D01*
X150335281Y-111210900D01*
X150335279Y-111210900D01*
X150156321Y-111210900D01*
X150156318Y-111210900D01*
X150025571Y-111236907D01*
X149980800Y-111245813D01*
X149980799Y-111245813D01*
X149980796Y-111245814D01*
X149815462Y-111314299D01*
X149666669Y-111413719D01*
X149666662Y-111413724D01*
X149540124Y-111540262D01*
X149540119Y-111540269D01*
X149466059Y-111651109D01*
X149440698Y-111689064D01*
X149435709Y-111701109D01*
X149372214Y-111854396D01*
X149337300Y-112029918D01*
X130031000Y-112029918D01*
X130004184Y-111791925D01*
X129993952Y-111701109D01*
X129913762Y-111349774D01*
X129901348Y-111314298D01*
X129794745Y-111009642D01*
X129794744Y-111009640D01*
X129794739Y-111009625D01*
X129638379Y-110684942D01*
X129638376Y-110684938D01*
X129638376Y-110684936D01*
X129446656Y-110379815D01*
X129446652Y-110379808D01*
X129221960Y-110098054D01*
X128967145Y-109843239D01*
X128685391Y-109618547D01*
X128685384Y-109618543D01*
X128380263Y-109426823D01*
X128380260Y-109426822D01*
X128375443Y-109424502D01*
X128055575Y-109270461D01*
X128055571Y-109270459D01*
X128055557Y-109270454D01*
X127715432Y-109151439D01*
X127364093Y-109071248D01*
X127364096Y-109071248D01*
X127005988Y-109030900D01*
X127005986Y-109030900D01*
X126645614Y-109030900D01*
X126645612Y-109030900D01*
X126287505Y-109071248D01*
X125936167Y-109151439D01*
X125596042Y-109270454D01*
X125596022Y-109270462D01*
X125271339Y-109426822D01*
X125271336Y-109426823D01*
X124966215Y-109618543D01*
X124966208Y-109618547D01*
X124684454Y-109843239D01*
X124429639Y-110098054D01*
X124204947Y-110379808D01*
X124204943Y-110379815D01*
X124013223Y-110684936D01*
X124013222Y-110684939D01*
X123856862Y-111009622D01*
X123856854Y-111009642D01*
X123737839Y-111349767D01*
X123657648Y-111701105D01*
X123617300Y-112059212D01*
X115746700Y-112059212D01*
X115746700Y-108303100D01*
X151415652Y-108303100D01*
X151524701Y-108348270D01*
X151524700Y-108348270D01*
X151671140Y-108377399D01*
X151671144Y-108377400D01*
X151820456Y-108377400D01*
X151820462Y-108377399D01*
X151966898Y-108348271D01*
X151966901Y-108348270D01*
X152075947Y-108303100D01*
X151745801Y-107972954D01*
X151745800Y-107972954D01*
X151415652Y-108303100D01*
X115746700Y-108303100D01*
X115746700Y-107599612D01*
X115766702Y-107531491D01*
X115820358Y-107484998D01*
X115872798Y-107473612D01*
X144268304Y-107496462D01*
X145237907Y-107497243D01*
X145237908Y-107497242D01*
X145237928Y-107497243D01*
X145251915Y-107497064D01*
X145258760Y-107496883D01*
X145272666Y-107496326D01*
X145416015Y-107467814D01*
X145482968Y-107444195D01*
X145482974Y-107444193D01*
X145612483Y-107376448D01*
X145612664Y-107376272D01*
X145620681Y-107372164D01*
X145655061Y-107365621D01*
X145689383Y-107358794D01*
X145689928Y-107358986D01*
X145690426Y-107358892D01*
X145695791Y-107361054D01*
X145748153Y-107379526D01*
X145815464Y-107424502D01*
X145980800Y-107492987D01*
X146156321Y-107527900D01*
X146156322Y-107527900D01*
X146335278Y-107527900D01*
X146335279Y-107527900D01*
X146510800Y-107492987D01*
X146676136Y-107424502D01*
X146744283Y-107378966D01*
X146812035Y-107357751D01*
X146880502Y-107376533D01*
X146896874Y-107388572D01*
X146906662Y-107397067D01*
X147009638Y-107444195D01*
X147039563Y-107457890D01*
X147071531Y-107467304D01*
X147107656Y-107477944D01*
X147107661Y-107477945D01*
X147107668Y-107477947D01*
X147252321Y-107498864D01*
X150861905Y-107501768D01*
X150930006Y-107521824D01*
X150976456Y-107575517D01*
X150987800Y-107627767D01*
X150987800Y-107694059D01*
X151016931Y-107840508D01*
X151062097Y-107949546D01*
X151062098Y-107949547D01*
X151412137Y-107599509D01*
X151645800Y-107599509D01*
X151645800Y-107639291D01*
X151661024Y-107676045D01*
X151689155Y-107704176D01*
X151725909Y-107719400D01*
X151765691Y-107719400D01*
X151802445Y-107704176D01*
X151830576Y-107676045D01*
X151845800Y-107639291D01*
X151845800Y-107619399D01*
X152099354Y-107619399D01*
X152099354Y-107619401D01*
X152295799Y-107815846D01*
X152295801Y-107815846D01*
X152492246Y-107619401D01*
X152492246Y-107619399D01*
X152295801Y-107422954D01*
X152295799Y-107422954D01*
X152099354Y-107619399D01*
X151845800Y-107619399D01*
X151845800Y-107599509D01*
X151830576Y-107562755D01*
X151802445Y-107534624D01*
X151765691Y-107519400D01*
X151725909Y-107519400D01*
X151689155Y-107534624D01*
X151661024Y-107562755D01*
X151645800Y-107599509D01*
X151412137Y-107599509D01*
X151533532Y-107478114D01*
X151569023Y-107442623D01*
X151569023Y-107442622D01*
X152042245Y-106969400D01*
X151658118Y-106585273D01*
X151624093Y-106522960D01*
X151629157Y-106452145D01*
X151658118Y-106407081D01*
X151675089Y-106390110D01*
X151689155Y-106404176D01*
X151725909Y-106419400D01*
X151765691Y-106419400D01*
X151802445Y-106404176D01*
X151830576Y-106376045D01*
X151845800Y-106339291D01*
X151845800Y-106299509D01*
X151830576Y-106262755D01*
X151802445Y-106234624D01*
X151765691Y-106219400D01*
X151732251Y-106219400D01*
X151733434Y-106202867D01*
X151743604Y-106189280D01*
X151749240Y-106173272D01*
X151764440Y-106161447D01*
X151775981Y-106146031D01*
X151791881Y-106140100D01*
X151805278Y-106129679D01*
X151824458Y-106127949D01*
X151842501Y-106121220D01*
X151859621Y-106124778D01*
X151875988Y-106123303D01*
X151899670Y-106133103D01*
X151909816Y-106135212D01*
X151915841Y-106138358D01*
X151940517Y-106154846D01*
X151948114Y-106159825D01*
X151951897Y-106162257D01*
X151959718Y-106167186D01*
X152027732Y-106196791D01*
X152031680Y-106198853D01*
X152054159Y-106220513D01*
X152078119Y-106240537D01*
X152079493Y-106244925D01*
X152082804Y-106248116D01*
X152090004Y-106278493D01*
X152099334Y-106308290D01*
X152099354Y-106310540D01*
X152099354Y-106319401D01*
X152295799Y-106515846D01*
X152295801Y-106515846D01*
X152492246Y-106319401D01*
X152492246Y-106310234D01*
X152496461Y-106295877D01*
X152495700Y-106280933D01*
X152506262Y-106262497D01*
X152512248Y-106242113D01*
X152524174Y-106231235D01*
X152530995Y-106219331D01*
X152556857Y-106201425D01*
X152560140Y-106198432D01*
X152561980Y-106197475D01*
X152651087Y-106154843D01*
X152675865Y-106138286D01*
X152682004Y-106135096D01*
X152710320Y-106129541D01*
X152737858Y-106120918D01*
X152744705Y-106122796D01*
X152751672Y-106121430D01*
X152778493Y-106132064D01*
X152806325Y-106139699D01*
X152811069Y-106144981D01*
X152817670Y-106147598D01*
X152834484Y-106171045D01*
X152853770Y-106192515D01*
X152854906Y-106199524D01*
X152859043Y-106205294D01*
X152859762Y-106219400D01*
X152825909Y-106219400D01*
X152789155Y-106234624D01*
X152761024Y-106262755D01*
X152745800Y-106299509D01*
X152745800Y-106339291D01*
X152761024Y-106376045D01*
X152789155Y-106404176D01*
X152825909Y-106419400D01*
X152865691Y-106419400D01*
X152902445Y-106404176D01*
X152916510Y-106390111D01*
X152933480Y-106407081D01*
X152967506Y-106469393D01*
X152962441Y-106540208D01*
X152933481Y-106585271D01*
X152549354Y-106969399D01*
X152933481Y-107353526D01*
X152967506Y-107415839D01*
X152962442Y-107486654D01*
X152933482Y-107531717D01*
X152916510Y-107548689D01*
X152902445Y-107534624D01*
X152865691Y-107519400D01*
X152825909Y-107519400D01*
X152789155Y-107534624D01*
X152761024Y-107562755D01*
X152745800Y-107599509D01*
X152745800Y-107639291D01*
X152761024Y-107676045D01*
X152789155Y-107704176D01*
X152825909Y-107719400D01*
X152865691Y-107719400D01*
X152902445Y-107704176D01*
X152916511Y-107690110D01*
X152933481Y-107707080D01*
X152967506Y-107769392D01*
X152962442Y-107840208D01*
X152933481Y-107885271D01*
X152515651Y-108303100D01*
X152515652Y-108303101D01*
X152624692Y-108348268D01*
X152624700Y-108348270D01*
X152771140Y-108377399D01*
X152771144Y-108377400D01*
X152920456Y-108377400D01*
X152920459Y-108377399D01*
X153066901Y-108348270D01*
X153066902Y-108348269D01*
X153183169Y-108300110D01*
X153253759Y-108292521D01*
X153317246Y-108324300D01*
X153353474Y-108385358D01*
X153354967Y-108441100D01*
X153337300Y-108529915D01*
X153337300Y-108708881D01*
X153354638Y-108796045D01*
X153372213Y-108884400D01*
X153440698Y-109049736D01*
X153540122Y-109198535D01*
X153666665Y-109325078D01*
X153815464Y-109424502D01*
X153980800Y-109492987D01*
X154156321Y-109527900D01*
X154156322Y-109527900D01*
X154335278Y-109527900D01*
X154335279Y-109527900D01*
X154510800Y-109492987D01*
X154676136Y-109424502D01*
X154824935Y-109325078D01*
X154951478Y-109198535D01*
X155050902Y-109049736D01*
X155119387Y-108884400D01*
X155154300Y-108708879D01*
X155154300Y-108529921D01*
X155119387Y-108354400D01*
X155050902Y-108189064D01*
X154951478Y-108040265D01*
X154824935Y-107913722D01*
X154734655Y-107853399D01*
X154676135Y-107814297D01*
X154676130Y-107814295D01*
X154514039Y-107747153D01*
X154458758Y-107702605D01*
X154436338Y-107635241D01*
X154453897Y-107566450D01*
X154505859Y-107518072D01*
X154562353Y-107504746D01*
X155810266Y-107505749D01*
X155878368Y-107525806D01*
X155924818Y-107579499D01*
X155934865Y-107649781D01*
X155926571Y-107679967D01*
X155859561Y-107841741D01*
X155824647Y-108017265D01*
X155824647Y-108196228D01*
X155829681Y-108221534D01*
X155856109Y-108354400D01*
X155859561Y-108371750D01*
X155865198Y-108385358D01*
X155928045Y-108537083D01*
X156027469Y-108685882D01*
X156154012Y-108812425D01*
X156302811Y-108911849D01*
X156468147Y-108980334D01*
X156643668Y-109015247D01*
X156643669Y-109015247D01*
X156822625Y-109015247D01*
X156822626Y-109015247D01*
X156998147Y-108980334D01*
X157163483Y-108911849D01*
X157312282Y-108812425D01*
X157438825Y-108685882D01*
X157538249Y-108537083D01*
X157606734Y-108371747D01*
X157619704Y-108306538D01*
X157652611Y-108243630D01*
X157714306Y-108208498D01*
X157785201Y-108212298D01*
X157842787Y-108253824D01*
X157866861Y-108306538D01*
X157879832Y-108371747D01*
X157884867Y-108397056D01*
X157884951Y-108397258D01*
X157953351Y-108562389D01*
X158052775Y-108711188D01*
X158179318Y-108837731D01*
X158328117Y-108937155D01*
X158493453Y-109005640D01*
X158668974Y-109040553D01*
X158668975Y-109040553D01*
X158847931Y-109040553D01*
X158847932Y-109040553D01*
X159023453Y-109005640D01*
X159188789Y-108937155D01*
X159337588Y-108837731D01*
X159464131Y-108711188D01*
X159563555Y-108562389D01*
X159632040Y-108397053D01*
X159666953Y-108221532D01*
X159666953Y-108042574D01*
X159632040Y-107867053D01*
X159563555Y-107701717D01*
X159563554Y-107701715D01*
X159563553Y-107701713D01*
X159560638Y-107696260D01*
X159562625Y-107695197D01*
X159544439Y-107637089D01*
X159563230Y-107568625D01*
X159616054Y-107521188D01*
X159670516Y-107508856D01*
X163260295Y-107511746D01*
X163309523Y-107511786D01*
X163309523Y-107511785D01*
X163309536Y-107511786D01*
X163379183Y-107507097D01*
X163379412Y-107507065D01*
X163379442Y-107507070D01*
X163381315Y-107506880D01*
X163381363Y-107507360D01*
X163449606Y-107517684D01*
X163502919Y-107564569D01*
X163508692Y-107574708D01*
X163572727Y-107700383D01*
X163575483Y-107704176D01*
X163675283Y-107841539D01*
X163675284Y-107841540D01*
X163675285Y-107841541D01*
X163675287Y-107841544D01*
X163798655Y-107964912D01*
X163798658Y-107964914D01*
X163798661Y-107964917D01*
X163870985Y-108017463D01*
X163914339Y-108073685D01*
X163920414Y-108144421D01*
X163887283Y-108207213D01*
X163870986Y-108221335D01*
X163798654Y-108273887D01*
X163675287Y-108397254D01*
X163675285Y-108397257D01*
X163572728Y-108538414D01*
X163493513Y-108693881D01*
X163493510Y-108693887D01*
X163446773Y-108837733D01*
X163439595Y-108859825D01*
X163412300Y-109032158D01*
X163412300Y-109206640D01*
X163439595Y-109378973D01*
X163439596Y-109378976D01*
X163487983Y-109527900D01*
X163493512Y-109544915D01*
X163572726Y-109700380D01*
X163675283Y-109841538D01*
X163675284Y-109841539D01*
X163675285Y-109841540D01*
X163675287Y-109841543D01*
X163774691Y-109940947D01*
X163808717Y-110003259D01*
X163803652Y-110074074D01*
X163761105Y-110130910D01*
X163751744Y-110137282D01*
X163697463Y-110170763D01*
X163697454Y-110170770D01*
X163572170Y-110296054D01*
X163572165Y-110296060D01*
X163479142Y-110446874D01*
X163423406Y-110615078D01*
X163423405Y-110615081D01*
X163412800Y-110718883D01*
X163412800Y-110865400D01*
X164401700Y-110865400D01*
X164349763Y-110955356D01*
X164320800Y-111063448D01*
X164320800Y-111175352D01*
X164349763Y-111283444D01*
X164401700Y-111373400D01*
X163412800Y-111373400D01*
X163412800Y-111519916D01*
X163423405Y-111623718D01*
X163423406Y-111623721D01*
X163479142Y-111791925D01*
X163572165Y-111942739D01*
X163572170Y-111942745D01*
X163697454Y-112068029D01*
X163697460Y-112068034D01*
X163848274Y-112161057D01*
X164016478Y-112216793D01*
X164016481Y-112216794D01*
X164120283Y-112227399D01*
X164120283Y-112227400D01*
X164491800Y-112227400D01*
X164491800Y-111463500D01*
X164581756Y-111515437D01*
X164689848Y-111544400D01*
X164801752Y-111544400D01*
X164909844Y-111515437D01*
X164999800Y-111463500D01*
X164999800Y-112227400D01*
X165371317Y-112227400D01*
X165371316Y-112227399D01*
X165475118Y-112216794D01*
X165475121Y-112216793D01*
X165643325Y-112161057D01*
X165800385Y-112064182D01*
X165801886Y-112066615D01*
X165855560Y-112044949D01*
X165925311Y-112058186D01*
X165935767Y-112064606D01*
X165935859Y-112064458D01*
X165940075Y-112067041D01*
X166095475Y-112146222D01*
X166095481Y-112146225D01*
X166261340Y-112200115D01*
X166261336Y-112200115D01*
X166433603Y-112227400D01*
X166491801Y-112227400D01*
X166491801Y-111463500D01*
X166581757Y-111515437D01*
X166689849Y-111544400D01*
X166801753Y-111544400D01*
X166909845Y-111515437D01*
X166999801Y-111463500D01*
X166999801Y-112227400D01*
X167057999Y-112227400D01*
X167230263Y-112200115D01*
X167396120Y-112146225D01*
X167396126Y-112146222D01*
X167551522Y-112067043D01*
X167631119Y-112009212D01*
X201597300Y-112009212D01*
X201597300Y-112369587D01*
X201637648Y-112727694D01*
X201665816Y-112851104D01*
X201717838Y-113079026D01*
X201717840Y-113079032D01*
X201717839Y-113079032D01*
X201836854Y-113419157D01*
X201836862Y-113419177D01*
X201993222Y-113743860D01*
X201993223Y-113743863D01*
X202184943Y-114048984D01*
X202184947Y-114048991D01*
X202409639Y-114330745D01*
X202664454Y-114585560D01*
X202946208Y-114810252D01*
X202946215Y-114810256D01*
X203251336Y-115001976D01*
X203251338Y-115001976D01*
X203251342Y-115001979D01*
X203576025Y-115158339D01*
X203576040Y-115158344D01*
X203576042Y-115158345D01*
X203916167Y-115277360D01*
X203916170Y-115277360D01*
X203916174Y-115277362D01*
X204267505Y-115357551D01*
X204267506Y-115357551D01*
X204267509Y-115357552D01*
X204478707Y-115381347D01*
X204625612Y-115397900D01*
X204625614Y-115397900D01*
X204985988Y-115397900D01*
X205076930Y-115387653D01*
X205344091Y-115357552D01*
X205695426Y-115277362D01*
X206035575Y-115158339D01*
X206360258Y-115001979D01*
X206665393Y-114810251D01*
X206947142Y-114585563D01*
X207201963Y-114330742D01*
X207426651Y-114048993D01*
X207618379Y-113743858D01*
X207774739Y-113419175D01*
X207893762Y-113079026D01*
X207973952Y-112727691D01*
X208014300Y-112369586D01*
X208014300Y-112009214D01*
X208009265Y-111964530D01*
X207996857Y-111854400D01*
X207973952Y-111651109D01*
X207893762Y-111299774D01*
X207874880Y-111245813D01*
X207774745Y-110959642D01*
X207774744Y-110959640D01*
X207774739Y-110959625D01*
X207618379Y-110634942D01*
X207618376Y-110634938D01*
X207618376Y-110634936D01*
X207426656Y-110329815D01*
X207426652Y-110329808D01*
X207201960Y-110048054D01*
X206947145Y-109793239D01*
X206665391Y-109568547D01*
X206665384Y-109568543D01*
X206360263Y-109376823D01*
X206360260Y-109376822D01*
X206139403Y-109270462D01*
X206035575Y-109220461D01*
X206035571Y-109220459D01*
X206035557Y-109220454D01*
X205695432Y-109101439D01*
X205344093Y-109021248D01*
X205344096Y-109021248D01*
X204985988Y-108980900D01*
X204985986Y-108980900D01*
X204625614Y-108980900D01*
X204625612Y-108980900D01*
X204267505Y-109021248D01*
X203916167Y-109101439D01*
X203576042Y-109220454D01*
X203576022Y-109220462D01*
X203251339Y-109376822D01*
X203251336Y-109376823D01*
X202946215Y-109568543D01*
X202946208Y-109568547D01*
X202664454Y-109793239D01*
X202409639Y-110048054D01*
X202184947Y-110329808D01*
X202184943Y-110329815D01*
X201993223Y-110634936D01*
X201993222Y-110634939D01*
X201836862Y-110959622D01*
X201836854Y-110959642D01*
X201717839Y-111299767D01*
X201637648Y-111651105D01*
X201597300Y-112009212D01*
X167631119Y-112009212D01*
X167692616Y-111964532D01*
X167692619Y-111964530D01*
X167740566Y-111916584D01*
X167815931Y-111841218D01*
X167815933Y-111841215D01*
X167918444Y-111700121D01*
X167997623Y-111544725D01*
X167997626Y-111544719D01*
X168051515Y-111378865D01*
X168052381Y-111373400D01*
X167089901Y-111373400D01*
X167141838Y-111283444D01*
X167170801Y-111175352D01*
X167170801Y-111063448D01*
X167141838Y-110955356D01*
X167089901Y-110865400D01*
X168052381Y-110865400D01*
X168051515Y-110859934D01*
X167997626Y-110694080D01*
X167997623Y-110694074D01*
X167918444Y-110538678D01*
X167815933Y-110397584D01*
X167815931Y-110397581D01*
X167692619Y-110274269D01*
X167692616Y-110274267D01*
X167620188Y-110221645D01*
X167576834Y-110165423D01*
X167570759Y-110094687D01*
X167603890Y-110031895D01*
X167620184Y-110017776D01*
X167692939Y-109964917D01*
X167816317Y-109841539D01*
X167918874Y-109700381D01*
X167998088Y-109544916D01*
X168052005Y-109378974D01*
X168079300Y-109206641D01*
X168079300Y-109032159D01*
X168052005Y-108859826D01*
X167998088Y-108693884D01*
X167918874Y-108538419D01*
X167816317Y-108397261D01*
X167816313Y-108397257D01*
X167816312Y-108397255D01*
X167692941Y-108273884D01*
X167620613Y-108221335D01*
X167577259Y-108165112D01*
X167571184Y-108094376D01*
X167604316Y-108031585D01*
X167620606Y-108017468D01*
X167692939Y-107964916D01*
X167816317Y-107841538D01*
X167918874Y-107700380D01*
X167983538Y-107573468D01*
X168032284Y-107521857D01*
X168101199Y-107504791D01*
X168113827Y-107505971D01*
X168181149Y-107515706D01*
X189419286Y-107532798D01*
X189419286Y-107532797D01*
X189419288Y-107532798D01*
X189442670Y-107530298D01*
X189528648Y-107521107D01*
X189581091Y-107509721D01*
X189685457Y-107475008D01*
X189808412Y-107395990D01*
X189859521Y-107351703D01*
X189861724Y-107349896D01*
X189957780Y-107239039D01*
X189957782Y-107239037D01*
X190018498Y-107106088D01*
X190038500Y-107037967D01*
X190059300Y-106893298D01*
X190059300Y-77565400D01*
X194739220Y-77565400D01*
X195701700Y-77565400D01*
X195649763Y-77655356D01*
X195620800Y-77763448D01*
X195620800Y-77875352D01*
X195649763Y-77983444D01*
X195701700Y-78073400D01*
X194739220Y-78073400D01*
X194740085Y-78078865D01*
X194793974Y-78244719D01*
X194793977Y-78244725D01*
X194873156Y-78400121D01*
X194975667Y-78541215D01*
X194975669Y-78541218D01*
X195098984Y-78664533D01*
X195171837Y-78717464D01*
X195215191Y-78773687D01*
X195221266Y-78844423D01*
X195188134Y-78907215D01*
X195171837Y-78921336D01*
X195098984Y-78974266D01*
X194975669Y-79097581D01*
X194975667Y-79097584D01*
X194873156Y-79238678D01*
X194793977Y-79394074D01*
X194793974Y-79394080D01*
X194740085Y-79559934D01*
X194739220Y-79565400D01*
X195701700Y-79565400D01*
X195649763Y-79655356D01*
X195620800Y-79763448D01*
X195620800Y-79875352D01*
X195649763Y-79983444D01*
X195701700Y-80073400D01*
X194739220Y-80073400D01*
X194740085Y-80078865D01*
X194793974Y-80244719D01*
X194793977Y-80244725D01*
X194873156Y-80400121D01*
X194975667Y-80541215D01*
X194975669Y-80541218D01*
X195098981Y-80664530D01*
X195098984Y-80664532D01*
X195240078Y-80767043D01*
X195395474Y-80846222D01*
X195395480Y-80846225D01*
X195561339Y-80900115D01*
X195561335Y-80900115D01*
X195733602Y-80927400D01*
X195791800Y-80927400D01*
X195791800Y-80163500D01*
X195881756Y-80215437D01*
X195989848Y-80244400D01*
X196101752Y-80244400D01*
X196209844Y-80215437D01*
X196299800Y-80163500D01*
X196299800Y-80927400D01*
X196357998Y-80927400D01*
X196530262Y-80900115D01*
X196696119Y-80846225D01*
X196696125Y-80846222D01*
X196851521Y-80767043D01*
X196971313Y-80680010D01*
X197038181Y-80656151D01*
X197107332Y-80672232D01*
X197119433Y-80680008D01*
X197239819Y-80767474D01*
X197395284Y-80846688D01*
X197561226Y-80900605D01*
X197733559Y-80927900D01*
X197733562Y-80927900D01*
X198358038Y-80927900D01*
X198358041Y-80927900D01*
X198530374Y-80900605D01*
X198696316Y-80846688D01*
X198851781Y-80767474D01*
X198992939Y-80664917D01*
X199116317Y-80541539D01*
X199218874Y-80400381D01*
X199298088Y-80244916D01*
X199352005Y-80078974D01*
X199379300Y-79906641D01*
X199379300Y-79732159D01*
X199352005Y-79559826D01*
X199298088Y-79393884D01*
X199218874Y-79238419D01*
X199116317Y-79097261D01*
X199116314Y-79097258D01*
X199116312Y-79097255D01*
X199017272Y-78998215D01*
X198983246Y-78935903D01*
X198988311Y-78865088D01*
X199030858Y-78808252D01*
X199040198Y-78801894D01*
X199094452Y-78768430D01*
X199219830Y-78643052D01*
X199312915Y-78492138D01*
X199368687Y-78323826D01*
X199379300Y-78219945D01*
X199379299Y-77418856D01*
X199368687Y-77314974D01*
X199312915Y-77146662D01*
X199219830Y-76995748D01*
X199219829Y-76995747D01*
X199219824Y-76995741D01*
X199217929Y-76993846D01*
X201437300Y-76993846D01*
X201437300Y-78244944D01*
X201447912Y-78348825D01*
X201495401Y-78492137D01*
X201503685Y-78517138D01*
X201594599Y-78664533D01*
X201600623Y-78674298D01*
X201598099Y-78675854D01*
X201619622Y-78729194D01*
X201606374Y-78798944D01*
X201600143Y-78809090D01*
X201600314Y-78809195D01*
X201597730Y-78813411D01*
X201518513Y-78968882D01*
X201518510Y-78968888D01*
X201476802Y-79097255D01*
X201464595Y-79134826D01*
X201437300Y-79307159D01*
X201437300Y-79931641D01*
X201464595Y-80103974D01*
X201464596Y-80103977D01*
X201510387Y-80244911D01*
X201518512Y-80269916D01*
X201597726Y-80425381D01*
X201597728Y-80425384D01*
X201623083Y-80460282D01*
X201700283Y-80566539D01*
X201700285Y-80566541D01*
X201700287Y-80566544D01*
X201823655Y-80689912D01*
X201823658Y-80689914D01*
X201823661Y-80689917D01*
X201964819Y-80792474D01*
X202120284Y-80871688D01*
X202286226Y-80925605D01*
X202458559Y-80952900D01*
X202458562Y-80952900D01*
X202633038Y-80952900D01*
X202633041Y-80952900D01*
X202805374Y-80925605D01*
X202971316Y-80871688D01*
X203126781Y-80792474D01*
X203267939Y-80689917D01*
X203391317Y-80566539D01*
X203443864Y-80494213D01*
X203500086Y-80450860D01*
X203570822Y-80444785D01*
X203633614Y-80477916D01*
X203647735Y-80494213D01*
X203700283Y-80566539D01*
X203700285Y-80566541D01*
X203700287Y-80566544D01*
X203823655Y-80689912D01*
X203823658Y-80689914D01*
X203823661Y-80689917D01*
X203964819Y-80792474D01*
X204120284Y-80871688D01*
X204286226Y-80925605D01*
X204458559Y-80952900D01*
X204458562Y-80952900D01*
X204633038Y-80952900D01*
X204633041Y-80952900D01*
X204805374Y-80925605D01*
X204971316Y-80871688D01*
X205126781Y-80792474D01*
X205267939Y-80689917D01*
X205391317Y-80566539D01*
X205493874Y-80425381D01*
X205573088Y-80269916D01*
X205627005Y-80103974D01*
X205654300Y-79931641D01*
X205654300Y-79307159D01*
X205627005Y-79134826D01*
X205573088Y-78968884D01*
X205493874Y-78813419D01*
X205406718Y-78693459D01*
X205382861Y-78626594D01*
X205398941Y-78557442D01*
X205406713Y-78545346D01*
X205493874Y-78425381D01*
X205573088Y-78269916D01*
X205627005Y-78103974D01*
X205654300Y-77931641D01*
X205654300Y-77307159D01*
X205627005Y-77134826D01*
X205573088Y-76968884D01*
X205493874Y-76813419D01*
X205391317Y-76672261D01*
X205391314Y-76672258D01*
X205391312Y-76672255D01*
X205267944Y-76548887D01*
X205267941Y-76548885D01*
X205267939Y-76548883D01*
X205126781Y-76446326D01*
X204971316Y-76367112D01*
X204971313Y-76367111D01*
X204971311Y-76367110D01*
X204805377Y-76313196D01*
X204805374Y-76313195D01*
X204633041Y-76285900D01*
X204458559Y-76285900D01*
X204286226Y-76313195D01*
X204286223Y-76313195D01*
X204286222Y-76313196D01*
X204120288Y-76367110D01*
X204120282Y-76367113D01*
X203964815Y-76446328D01*
X203823660Y-76548883D01*
X203724615Y-76647928D01*
X203662303Y-76681953D01*
X203591487Y-76676887D01*
X203534651Y-76634340D01*
X203528284Y-76624986D01*
X203494830Y-76570748D01*
X203494827Y-76570745D01*
X203494824Y-76570741D01*
X203369458Y-76445375D01*
X203369452Y-76445370D01*
X203369317Y-76445287D01*
X203218538Y-76352285D01*
X203100570Y-76313195D01*
X203050227Y-76296513D01*
X203050220Y-76296512D01*
X202946353Y-76285900D01*
X202145255Y-76285900D01*
X202041374Y-76296512D01*
X201873061Y-76352285D01*
X201722147Y-76445370D01*
X201722141Y-76445375D01*
X201596775Y-76570741D01*
X201596770Y-76570747D01*
X201503685Y-76721662D01*
X201447913Y-76889972D01*
X201447912Y-76889979D01*
X201437300Y-76993846D01*
X199217929Y-76993846D01*
X199094458Y-76870375D01*
X199094452Y-76870370D01*
X199002120Y-76813419D01*
X198943538Y-76777285D01*
X198827046Y-76738684D01*
X198775227Y-76721513D01*
X198775220Y-76721512D01*
X198671353Y-76710900D01*
X197420255Y-76710900D01*
X197316374Y-76721512D01*
X197148061Y-76777285D01*
X197054174Y-76835195D01*
X196997148Y-76870370D01*
X196997147Y-76870370D01*
X196990902Y-76874223D01*
X196989430Y-76871837D01*
X196935522Y-76893551D01*
X196865780Y-76880262D01*
X196855852Y-76874161D01*
X196855742Y-76874342D01*
X196851525Y-76871758D01*
X196696125Y-76792577D01*
X196696119Y-76792574D01*
X196530260Y-76738684D01*
X196530264Y-76738684D01*
X196357998Y-76711400D01*
X196299800Y-76711400D01*
X196299800Y-77475299D01*
X196209844Y-77423363D01*
X196101752Y-77394400D01*
X195989848Y-77394400D01*
X195881756Y-77423363D01*
X195791800Y-77475299D01*
X195791800Y-76711400D01*
X195733602Y-76711400D01*
X195561337Y-76738684D01*
X195395480Y-76792574D01*
X195395474Y-76792577D01*
X195240078Y-76871756D01*
X195098984Y-76974267D01*
X195098981Y-76974269D01*
X194975669Y-77097581D01*
X194975667Y-77097584D01*
X194873156Y-77238678D01*
X194793977Y-77394074D01*
X194793974Y-77394080D01*
X194740085Y-77559934D01*
X194739220Y-77565400D01*
X190059300Y-77565400D01*
X190059300Y-72029918D01*
X198337300Y-72029918D01*
X198337300Y-72208881D01*
X198344068Y-72242904D01*
X198372213Y-72384400D01*
X198440698Y-72549736D01*
X198540122Y-72698535D01*
X198666665Y-72825078D01*
X198815464Y-72924502D01*
X198980800Y-72992987D01*
X199156321Y-73027900D01*
X199156322Y-73027900D01*
X199335278Y-73027900D01*
X199335279Y-73027900D01*
X199510800Y-72992987D01*
X199676136Y-72924502D01*
X199824935Y-72825078D01*
X199951478Y-72698535D01*
X200050902Y-72549736D01*
X200119387Y-72384400D01*
X200154300Y-72208879D01*
X200154300Y-72029921D01*
X200119387Y-71854400D01*
X200050902Y-71689064D01*
X199951478Y-71540265D01*
X199824935Y-71413722D01*
X199676136Y-71314298D01*
X199529537Y-71253574D01*
X199510803Y-71245814D01*
X199510801Y-71245813D01*
X199510800Y-71245813D01*
X199422445Y-71228238D01*
X199335281Y-71210900D01*
X199335279Y-71210900D01*
X199156321Y-71210900D01*
X199156318Y-71210900D01*
X199025571Y-71236907D01*
X198980800Y-71245813D01*
X198980799Y-71245813D01*
X198980796Y-71245814D01*
X198815462Y-71314299D01*
X198666669Y-71413719D01*
X198666662Y-71413724D01*
X198540124Y-71540262D01*
X198540122Y-71540265D01*
X198440698Y-71689064D01*
X198429194Y-71716838D01*
X198372214Y-71854396D01*
X198372213Y-71854399D01*
X198372213Y-71854400D01*
X198364570Y-71892822D01*
X198337300Y-72029918D01*
X190059300Y-72029918D01*
X190059300Y-71357092D01*
X190079302Y-71288971D01*
X190132958Y-71242478D01*
X190203232Y-71232374D01*
X190233518Y-71240683D01*
X190421771Y-71318660D01*
X190421776Y-71318662D01*
X190461799Y-71326623D01*
X190461800Y-71326623D01*
X190461800Y-70509460D01*
X190475740Y-70533605D01*
X190531595Y-70589460D01*
X190600004Y-70628956D01*
X190676304Y-70649400D01*
X190755296Y-70649400D01*
X190831596Y-70628956D01*
X190900005Y-70589460D01*
X190955860Y-70533605D01*
X190969800Y-70509460D01*
X190969800Y-71326623D01*
X191009823Y-71318662D01*
X191009828Y-71318660D01*
X191193266Y-71242677D01*
X191358357Y-71132367D01*
X191358364Y-71132362D01*
X191498762Y-70991964D01*
X191498767Y-70991957D01*
X191609077Y-70826866D01*
X191685060Y-70643428D01*
X191685062Y-70643423D01*
X191723799Y-70448681D01*
X191723800Y-70448677D01*
X191723800Y-70053400D01*
X191015800Y-70053400D01*
X191015800Y-69545400D01*
X191723800Y-69545400D01*
X191723800Y-69150122D01*
X191723799Y-69150118D01*
X192237800Y-69150118D01*
X192237800Y-69545400D01*
X192945800Y-69545400D01*
X192945800Y-70053400D01*
X192237800Y-70053400D01*
X192237800Y-70448681D01*
X192276537Y-70643423D01*
X192276539Y-70643428D01*
X192352522Y-70826866D01*
X192462832Y-70991957D01*
X192462837Y-70991964D01*
X192603235Y-71132362D01*
X192603242Y-71132367D01*
X192768333Y-71242677D01*
X192951771Y-71318660D01*
X192951776Y-71318662D01*
X192991799Y-71326623D01*
X192991800Y-71326623D01*
X192991800Y-70509460D01*
X193005740Y-70533605D01*
X193061595Y-70589460D01*
X193130004Y-70628956D01*
X193206304Y-70649400D01*
X193285296Y-70649400D01*
X193361596Y-70628956D01*
X193430005Y-70589460D01*
X193485860Y-70533605D01*
X193499800Y-70509460D01*
X193499800Y-71326623D01*
X193539823Y-71318662D01*
X193539828Y-71318660D01*
X193723266Y-71242677D01*
X193888357Y-71132367D01*
X193888364Y-71132362D01*
X194028762Y-70991964D01*
X194028767Y-70991957D01*
X194139077Y-70826866D01*
X194215060Y-70643428D01*
X194215062Y-70643423D01*
X194253799Y-70448681D01*
X194253800Y-70448677D01*
X194253800Y-70053400D01*
X193545800Y-70053400D01*
X193545800Y-69545400D01*
X194093254Y-69545400D01*
X194161375Y-69565402D01*
X194202373Y-69608399D01*
X194212084Y-69625220D01*
X194212090Y-69625227D01*
X194319972Y-69733109D01*
X194319977Y-69733113D01*
X194319979Y-69733115D01*
X194452122Y-69809408D01*
X194599507Y-69848900D01*
X194599510Y-69848900D01*
X194752090Y-69848900D01*
X194752093Y-69848900D01*
X194899478Y-69809408D01*
X195031621Y-69733115D01*
X195139080Y-69625655D01*
X195201390Y-69591632D01*
X195272206Y-69596696D01*
X195329042Y-69639243D01*
X195351753Y-69690171D01*
X195356211Y-69712587D01*
X195379481Y-69768764D01*
X195424696Y-69877921D01*
X195524120Y-70026720D01*
X195650663Y-70153263D01*
X195799462Y-70252687D01*
X195964798Y-70321172D01*
X196140319Y-70356085D01*
X196140320Y-70356085D01*
X196319276Y-70356085D01*
X196319277Y-70356085D01*
X196494798Y-70321172D01*
X196660134Y-70252687D01*
X196808933Y-70153263D01*
X196935476Y-70026720D01*
X197034900Y-69877921D01*
X197103385Y-69712585D01*
X197138298Y-69537064D01*
X197138298Y-69358106D01*
X197105478Y-69193107D01*
X199876300Y-69193107D01*
X199876300Y-69345693D01*
X199915792Y-69493077D01*
X199915794Y-69493082D01*
X199992082Y-69625217D01*
X199992090Y-69625227D01*
X200099972Y-69733109D01*
X200099977Y-69733113D01*
X200099979Y-69733115D01*
X200232122Y-69809408D01*
X200379507Y-69848900D01*
X200379510Y-69848900D01*
X200532090Y-69848900D01*
X200532093Y-69848900D01*
X200679478Y-69809408D01*
X200811621Y-69733115D01*
X200919515Y-69625221D01*
X200929227Y-69608398D01*
X200980610Y-69559406D01*
X201038346Y-69545400D01*
X201585800Y-69545400D01*
X201585800Y-70053400D01*
X200877800Y-70053400D01*
X200877800Y-70448681D01*
X200916537Y-70643423D01*
X200916539Y-70643428D01*
X200992522Y-70826866D01*
X201102832Y-70991957D01*
X201102837Y-70991964D01*
X201243235Y-71132362D01*
X201243242Y-71132367D01*
X201408333Y-71242677D01*
X201591771Y-71318660D01*
X201591776Y-71318662D01*
X201631799Y-71326623D01*
X201631800Y-71326623D01*
X201631800Y-70509460D01*
X201645740Y-70533605D01*
X201701595Y-70589460D01*
X201770004Y-70628956D01*
X201846304Y-70649400D01*
X201925296Y-70649400D01*
X202001596Y-70628956D01*
X202070005Y-70589460D01*
X202125860Y-70533605D01*
X202139800Y-70509460D01*
X202139800Y-71326623D01*
X202179823Y-71318662D01*
X202179828Y-71318660D01*
X202363266Y-71242677D01*
X202528357Y-71132367D01*
X202528364Y-71132362D01*
X202668762Y-70991964D01*
X202668767Y-70991957D01*
X202779077Y-70826866D01*
X202855060Y-70643428D01*
X202855062Y-70643423D01*
X202893799Y-70448681D01*
X202893800Y-70448677D01*
X202893800Y-70053400D01*
X202185800Y-70053400D01*
X202185800Y-69545400D01*
X202893800Y-69545400D01*
X202893800Y-69150122D01*
X202893799Y-69150118D01*
X202855062Y-68955376D01*
X202855060Y-68955371D01*
X202779077Y-68771933D01*
X202668767Y-68606842D01*
X202668762Y-68606835D01*
X202528364Y-68466437D01*
X202528357Y-68466432D01*
X202363267Y-68356122D01*
X202179820Y-68280136D01*
X202179815Y-68280135D01*
X202139800Y-68272174D01*
X202139800Y-69089339D01*
X202125860Y-69065195D01*
X202070005Y-69009340D01*
X202001596Y-68969844D01*
X201925296Y-68949400D01*
X201846304Y-68949400D01*
X201770004Y-68969844D01*
X201701595Y-69009340D01*
X201645740Y-69065195D01*
X201631800Y-69089339D01*
X201631800Y-68272175D01*
X201631799Y-68272174D01*
X201591784Y-68280135D01*
X201591779Y-68280136D01*
X201408332Y-68356122D01*
X201243242Y-68466432D01*
X201243235Y-68466437D01*
X201102837Y-68606835D01*
X201102831Y-68606842D01*
X200991039Y-68774151D01*
X200936562Y-68819679D01*
X200866119Y-68828526D01*
X200819572Y-68808429D01*
X200818773Y-68809814D01*
X200679482Y-68729394D01*
X200679480Y-68729393D01*
X200679478Y-68729392D01*
X200532093Y-68689900D01*
X200379507Y-68689900D01*
X200232122Y-68729392D01*
X200232117Y-68729394D01*
X200099982Y-68805682D01*
X200099972Y-68805690D01*
X199992090Y-68913572D01*
X199992082Y-68913582D01*
X199915794Y-69045717D01*
X199915792Y-69045722D01*
X199876300Y-69193107D01*
X197105478Y-69193107D01*
X197103385Y-69182585D01*
X197034900Y-69017249D01*
X196935476Y-68868450D01*
X196808933Y-68741907D01*
X196660134Y-68642483D01*
X196497017Y-68574917D01*
X196494801Y-68573999D01*
X196494799Y-68573998D01*
X196494798Y-68573998D01*
X196406443Y-68556423D01*
X196319279Y-68539085D01*
X196319277Y-68539085D01*
X196140319Y-68539085D01*
X196140316Y-68539085D01*
X196009569Y-68565092D01*
X195964798Y-68573998D01*
X195964797Y-68573998D01*
X195964794Y-68573999D01*
X195799460Y-68642484D01*
X195650667Y-68741904D01*
X195650660Y-68741909D01*
X195524122Y-68868447D01*
X195524117Y-68868454D01*
X195424692Y-69017254D01*
X195423246Y-69019960D01*
X195422116Y-69021109D01*
X195421257Y-69022396D01*
X195421012Y-69022232D01*
X195373490Y-69070604D01*
X195304252Y-69086309D01*
X195237515Y-69062087D01*
X195203010Y-69023555D01*
X195139517Y-68913582D01*
X195139509Y-68913572D01*
X195031627Y-68805690D01*
X195031617Y-68805682D01*
X194899482Y-68729394D01*
X194899480Y-68729393D01*
X194899478Y-68729392D01*
X194752093Y-68689900D01*
X194599507Y-68689900D01*
X194452122Y-68729392D01*
X194452117Y-68729394D01*
X194312827Y-68809814D01*
X194311815Y-68808062D01*
X194255800Y-68829713D01*
X194186252Y-68815443D01*
X194140560Y-68774151D01*
X194028767Y-68606842D01*
X194028762Y-68606835D01*
X193888364Y-68466437D01*
X193888357Y-68466432D01*
X193723267Y-68356122D01*
X193539820Y-68280136D01*
X193539815Y-68280135D01*
X193499800Y-68272174D01*
X193499800Y-69089339D01*
X193485860Y-69065195D01*
X193430005Y-69009340D01*
X193361596Y-68969844D01*
X193285296Y-68949400D01*
X193206304Y-68949400D01*
X193130004Y-68969844D01*
X193061595Y-69009340D01*
X193005740Y-69065195D01*
X192991800Y-69089339D01*
X192991800Y-68272175D01*
X192991799Y-68272174D01*
X192951784Y-68280135D01*
X192951779Y-68280136D01*
X192768332Y-68356122D01*
X192603242Y-68466432D01*
X192603235Y-68466437D01*
X192462837Y-68606835D01*
X192462832Y-68606842D01*
X192352522Y-68771933D01*
X192276539Y-68955371D01*
X192276537Y-68955376D01*
X192237800Y-69150118D01*
X191723799Y-69150118D01*
X191685062Y-68955376D01*
X191685060Y-68955371D01*
X191609077Y-68771933D01*
X191498767Y-68606842D01*
X191498762Y-68606835D01*
X191358364Y-68466437D01*
X191358357Y-68466432D01*
X191193267Y-68356122D01*
X191009820Y-68280136D01*
X191009815Y-68280135D01*
X190969800Y-68272174D01*
X190969800Y-69089339D01*
X190955860Y-69065195D01*
X190900005Y-69009340D01*
X190831596Y-68969844D01*
X190755296Y-68949400D01*
X190676304Y-68949400D01*
X190600004Y-68969844D01*
X190531595Y-69009340D01*
X190475740Y-69065195D01*
X190461800Y-69089339D01*
X190461800Y-68272175D01*
X190461799Y-68272174D01*
X190421784Y-68280135D01*
X190421779Y-68280136D01*
X190233518Y-68358116D01*
X190162928Y-68365705D01*
X190099441Y-68333925D01*
X190063214Y-68272867D01*
X190059300Y-68241707D01*
X190059300Y-66927092D01*
X190079302Y-66858971D01*
X190132958Y-66812478D01*
X190203232Y-66802374D01*
X190233518Y-66810683D01*
X190421771Y-66888660D01*
X190421776Y-66888662D01*
X190461799Y-66896623D01*
X190461800Y-66896623D01*
X190461800Y-66079460D01*
X190475740Y-66103605D01*
X190531595Y-66159460D01*
X190600004Y-66198956D01*
X190676304Y-66219400D01*
X190755296Y-66219400D01*
X190831596Y-66198956D01*
X190900005Y-66159460D01*
X190955860Y-66103605D01*
X190969800Y-66079460D01*
X190969800Y-66896623D01*
X191009823Y-66888662D01*
X191009828Y-66888660D01*
X191193266Y-66812677D01*
X191358357Y-66702367D01*
X191358364Y-66702362D01*
X191498762Y-66561964D01*
X191498767Y-66561957D01*
X191609077Y-66396866D01*
X191685060Y-66213428D01*
X191685062Y-66213423D01*
X191723799Y-66018681D01*
X191723800Y-66018677D01*
X191723800Y-65873400D01*
X191015800Y-65873400D01*
X191015800Y-65365400D01*
X191723800Y-65365400D01*
X191723800Y-65220122D01*
X191723799Y-65220118D01*
X192237800Y-65220118D01*
X192237800Y-65365400D01*
X192945800Y-65365400D01*
X192945800Y-65873400D01*
X192237800Y-65873400D01*
X192237800Y-66018681D01*
X192276537Y-66213423D01*
X192276539Y-66213428D01*
X192352522Y-66396866D01*
X192462832Y-66561957D01*
X192462837Y-66561964D01*
X192603235Y-66702362D01*
X192603242Y-66702367D01*
X192768333Y-66812677D01*
X192951771Y-66888660D01*
X192951776Y-66888662D01*
X192991799Y-66896623D01*
X192991800Y-66896623D01*
X192991800Y-66079460D01*
X193005740Y-66103605D01*
X193061595Y-66159460D01*
X193130004Y-66198956D01*
X193206304Y-66219400D01*
X193285296Y-66219400D01*
X193361596Y-66198956D01*
X193430005Y-66159460D01*
X193485860Y-66103605D01*
X193499800Y-66079460D01*
X193499800Y-66896623D01*
X193539823Y-66888662D01*
X193539828Y-66888660D01*
X193723266Y-66812677D01*
X193888357Y-66702367D01*
X193888364Y-66702362D01*
X194028762Y-66561964D01*
X194028767Y-66561957D01*
X194139077Y-66396866D01*
X194215060Y-66213428D01*
X194215062Y-66213423D01*
X194253799Y-66018681D01*
X194253800Y-66018677D01*
X194253800Y-65873400D01*
X193545800Y-65873400D01*
X193545800Y-65365400D01*
X194253800Y-65365400D01*
X194253800Y-65220122D01*
X194253799Y-65220118D01*
X200877800Y-65220118D01*
X200877800Y-65365400D01*
X201585800Y-65365400D01*
X201585800Y-65873400D01*
X200877800Y-65873400D01*
X200877800Y-66018681D01*
X200916537Y-66213423D01*
X200916539Y-66213428D01*
X200992522Y-66396866D01*
X201102832Y-66561957D01*
X201102837Y-66561964D01*
X201243235Y-66702362D01*
X201243242Y-66702367D01*
X201408333Y-66812677D01*
X201591771Y-66888660D01*
X201591776Y-66888662D01*
X201631799Y-66896623D01*
X201631800Y-66896623D01*
X201631800Y-66079460D01*
X201645740Y-66103605D01*
X201701595Y-66159460D01*
X201770004Y-66198956D01*
X201846304Y-66219400D01*
X201925296Y-66219400D01*
X202001596Y-66198956D01*
X202070005Y-66159460D01*
X202125860Y-66103605D01*
X202139800Y-66079460D01*
X202139800Y-66896623D01*
X202179823Y-66888662D01*
X202179828Y-66888660D01*
X202363266Y-66812677D01*
X202528357Y-66702367D01*
X202528364Y-66702362D01*
X202668762Y-66561964D01*
X202668767Y-66561957D01*
X202779077Y-66396866D01*
X202855060Y-66213428D01*
X202855062Y-66213423D01*
X202893799Y-66018681D01*
X202893800Y-66018677D01*
X202893800Y-65873400D01*
X202185800Y-65873400D01*
X202185800Y-65365400D01*
X202893800Y-65365400D01*
X202893800Y-65220122D01*
X202893799Y-65220118D01*
X202855062Y-65025376D01*
X202855060Y-65025371D01*
X202779077Y-64841933D01*
X202668767Y-64676842D01*
X202668762Y-64676835D01*
X202528364Y-64536437D01*
X202528357Y-64536432D01*
X202363267Y-64426122D01*
X202179820Y-64350136D01*
X202179815Y-64350135D01*
X202139800Y-64342174D01*
X202139800Y-65159339D01*
X202125860Y-65135195D01*
X202070005Y-65079340D01*
X202001596Y-65039844D01*
X201925296Y-65019400D01*
X201846304Y-65019400D01*
X201770004Y-65039844D01*
X201701595Y-65079340D01*
X201645740Y-65135195D01*
X201631800Y-65159339D01*
X201631800Y-64342175D01*
X201631799Y-64342174D01*
X201591784Y-64350135D01*
X201591779Y-64350136D01*
X201408332Y-64426122D01*
X201243242Y-64536432D01*
X201243235Y-64536437D01*
X201102837Y-64676835D01*
X201102832Y-64676842D01*
X200992522Y-64841933D01*
X200916539Y-65025371D01*
X200916537Y-65025376D01*
X200877800Y-65220118D01*
X194253799Y-65220118D01*
X194215062Y-65025376D01*
X194215060Y-65025371D01*
X194139077Y-64841933D01*
X194028767Y-64676842D01*
X194028762Y-64676835D01*
X193888364Y-64536437D01*
X193888357Y-64536432D01*
X193723267Y-64426122D01*
X193539820Y-64350136D01*
X193539815Y-64350135D01*
X193499800Y-64342174D01*
X193499800Y-65159339D01*
X193485860Y-65135195D01*
X193430005Y-65079340D01*
X193361596Y-65039844D01*
X193285296Y-65019400D01*
X193206304Y-65019400D01*
X193130004Y-65039844D01*
X193061595Y-65079340D01*
X193005740Y-65135195D01*
X192991800Y-65159339D01*
X192991800Y-64342175D01*
X192991799Y-64342174D01*
X192951784Y-64350135D01*
X192951779Y-64350136D01*
X192768332Y-64426122D01*
X192603242Y-64536432D01*
X192603235Y-64536437D01*
X192462837Y-64676835D01*
X192462832Y-64676842D01*
X192352522Y-64841933D01*
X192276539Y-65025371D01*
X192276537Y-65025376D01*
X192237800Y-65220118D01*
X191723799Y-65220118D01*
X191685062Y-65025376D01*
X191685060Y-65025371D01*
X191609077Y-64841933D01*
X191498767Y-64676842D01*
X191498762Y-64676835D01*
X191358364Y-64536437D01*
X191358357Y-64536432D01*
X191193267Y-64426122D01*
X191009820Y-64350136D01*
X191009815Y-64350135D01*
X190969800Y-64342174D01*
X190969800Y-65159339D01*
X190955860Y-65135195D01*
X190900005Y-65079340D01*
X190831596Y-65039844D01*
X190755296Y-65019400D01*
X190676304Y-65019400D01*
X190600004Y-65039844D01*
X190531595Y-65079340D01*
X190475740Y-65135195D01*
X190461800Y-65159339D01*
X190461800Y-64342175D01*
X190461799Y-64342174D01*
X190421784Y-64350135D01*
X190421779Y-64350136D01*
X190233518Y-64428116D01*
X190162928Y-64435705D01*
X190099441Y-64403925D01*
X190063214Y-64342867D01*
X190059300Y-64311707D01*
X190059300Y-62543700D01*
X190079302Y-62475579D01*
X190132958Y-62429086D01*
X190185300Y-62417700D01*
X204719700Y-62417700D01*
X204787821Y-62437702D01*
G37*
%TD.AperFunction*%
%TA.AperFunction,Conductor*%
G36*
X166349764Y-110955356D02*
G01*
X166320801Y-111063448D01*
X166320801Y-111175352D01*
X166349764Y-111283444D01*
X166401701Y-111373400D01*
X165089900Y-111373400D01*
X165141837Y-111283444D01*
X165170800Y-111175352D01*
X165170800Y-111063448D01*
X165141837Y-110955356D01*
X165089900Y-110865400D01*
X166401701Y-110865400D01*
X166349764Y-110955356D01*
G37*
%TD.AperFunction*%
%TA.AperFunction,Conductor*%
G36*
X156296877Y-104726821D02*
G01*
X156322859Y-104731989D01*
X156348842Y-104737157D01*
X156372475Y-104744326D01*
X156421435Y-104764606D01*
X156443215Y-104776247D01*
X156455458Y-104784427D01*
X156487286Y-104805693D01*
X156506378Y-104821363D01*
X156543835Y-104858820D01*
X156559507Y-104877915D01*
X156588951Y-104921983D01*
X156600592Y-104943763D01*
X156620869Y-104992715D01*
X156620870Y-104992716D01*
X156628041Y-105016353D01*
X156638379Y-105068321D01*
X156640800Y-105092904D01*
X156640800Y-105145894D01*
X156638379Y-105170477D01*
X156628041Y-105222445D01*
X156620870Y-105246082D01*
X156600592Y-105295035D01*
X156588951Y-105316815D01*
X156559507Y-105360883D01*
X156543835Y-105379978D01*
X156506378Y-105417435D01*
X156487283Y-105433107D01*
X156443215Y-105462551D01*
X156421435Y-105474192D01*
X156372482Y-105494470D01*
X156348846Y-105501640D01*
X156296879Y-105511978D01*
X156272295Y-105514400D01*
X156219311Y-105514400D01*
X156194729Y-105511979D01*
X156169095Y-105506880D01*
X156142748Y-105501639D01*
X156119111Y-105494468D01*
X156070163Y-105474192D01*
X156048383Y-105462551D01*
X156004315Y-105433107D01*
X155985220Y-105417435D01*
X155947763Y-105379978D01*
X155932092Y-105360883D01*
X155902649Y-105316817D01*
X155891007Y-105295038D01*
X155891006Y-105295035D01*
X155870724Y-105246072D01*
X155863556Y-105222439D01*
X155862437Y-105216815D01*
X155853221Y-105170476D01*
X155850800Y-105145897D01*
X155850800Y-105092902D01*
X155853221Y-105068323D01*
X155857682Y-105045894D01*
X155863558Y-105016353D01*
X155870728Y-104992716D01*
X155891008Y-104943755D01*
X155902643Y-104921988D01*
X155932097Y-104877906D01*
X155947763Y-104858820D01*
X155985223Y-104821359D01*
X156004306Y-104805697D01*
X156048384Y-104776245D01*
X156070149Y-104764610D01*
X156119130Y-104744322D01*
X156142737Y-104737161D01*
X156194730Y-104726819D01*
X156219302Y-104724400D01*
X156272297Y-104724400D01*
X156296877Y-104726821D01*
G37*
%TD.AperFunction*%
%TA.AperFunction,Conductor*%
G36*
X174096877Y-104626821D02*
G01*
X174122859Y-104631989D01*
X174148842Y-104637157D01*
X174172475Y-104644326D01*
X174221435Y-104664606D01*
X174243215Y-104676247D01*
X174255458Y-104684427D01*
X174287286Y-104705693D01*
X174306378Y-104721363D01*
X174343835Y-104758820D01*
X174359507Y-104777915D01*
X174388951Y-104821983D01*
X174400592Y-104843763D01*
X174420870Y-104892716D01*
X174428041Y-104916353D01*
X174438379Y-104968321D01*
X174440800Y-104992904D01*
X174440800Y-105045894D01*
X174438379Y-105070477D01*
X174428041Y-105122445D01*
X174420870Y-105146082D01*
X174400592Y-105195035D01*
X174388951Y-105216815D01*
X174359507Y-105260883D01*
X174343836Y-105279977D01*
X174306378Y-105317435D01*
X174287283Y-105333107D01*
X174243215Y-105362551D01*
X174221435Y-105374192D01*
X174172482Y-105394470D01*
X174148846Y-105401640D01*
X174096879Y-105411978D01*
X174072295Y-105414400D01*
X174019311Y-105414400D01*
X173994729Y-105411979D01*
X173969095Y-105406880D01*
X173942748Y-105401639D01*
X173919111Y-105394468D01*
X173870163Y-105374192D01*
X173848383Y-105362551D01*
X173804315Y-105333107D01*
X173785220Y-105317435D01*
X173747762Y-105279977D01*
X173732092Y-105260883D01*
X173702649Y-105216818D01*
X173691006Y-105195036D01*
X173670729Y-105146084D01*
X173663558Y-105122445D01*
X173653221Y-105070474D01*
X173650800Y-105045894D01*
X173650800Y-104992902D01*
X173653221Y-104968322D01*
X173660386Y-104932298D01*
X173663558Y-104916351D01*
X173670724Y-104892724D01*
X173691010Y-104843750D01*
X173702645Y-104821984D01*
X173732097Y-104777906D01*
X173747759Y-104758823D01*
X173785223Y-104721359D01*
X173804306Y-104705697D01*
X173848384Y-104676245D01*
X173870149Y-104664610D01*
X173919130Y-104644322D01*
X173942737Y-104637161D01*
X173994730Y-104626819D01*
X174019302Y-104624400D01*
X174072297Y-104624400D01*
X174096877Y-104626821D01*
G37*
%TD.AperFunction*%
%TA.AperFunction,Conductor*%
G36*
X147796877Y-104226821D02*
G01*
X147822859Y-104231989D01*
X147848842Y-104237157D01*
X147872475Y-104244326D01*
X147921435Y-104264606D01*
X147943215Y-104276247D01*
X147955458Y-104284427D01*
X147987286Y-104305693D01*
X148006378Y-104321363D01*
X148043835Y-104358820D01*
X148059507Y-104377915D01*
X148088951Y-104421983D01*
X148100592Y-104443763D01*
X148120869Y-104492715D01*
X148120870Y-104492716D01*
X148128041Y-104516353D01*
X148138379Y-104568321D01*
X148140800Y-104592904D01*
X148140800Y-104645894D01*
X148138379Y-104670476D01*
X148128042Y-104722442D01*
X148120871Y-104746079D01*
X148100591Y-104795038D01*
X148088948Y-104816821D01*
X148059506Y-104860884D01*
X148043836Y-104879977D01*
X148006378Y-104917435D01*
X147987283Y-104933107D01*
X147943215Y-104962551D01*
X147921435Y-104974192D01*
X147872482Y-104994470D01*
X147848846Y-105001640D01*
X147796879Y-105011978D01*
X147772295Y-105014400D01*
X147719311Y-105014400D01*
X147694729Y-105011979D01*
X147669095Y-105006880D01*
X147642748Y-105001639D01*
X147619111Y-104994468D01*
X147615335Y-104992904D01*
X147608251Y-104989969D01*
X147570163Y-104974192D01*
X147548383Y-104962551D01*
X147504315Y-104933107D01*
X147485220Y-104917435D01*
X147447763Y-104879978D01*
X147432092Y-104860883D01*
X147402649Y-104816817D01*
X147391007Y-104795038D01*
X147383914Y-104777915D01*
X147370724Y-104746072D01*
X147363556Y-104722439D01*
X147363342Y-104721364D01*
X147353221Y-104670476D01*
X147350800Y-104645897D01*
X147350800Y-104592902D01*
X147353221Y-104568323D01*
X147357077Y-104548934D01*
X147363558Y-104516350D01*
X147370728Y-104492716D01*
X147391008Y-104443755D01*
X147402643Y-104421988D01*
X147432097Y-104377906D01*
X147447763Y-104358820D01*
X147485223Y-104321359D01*
X147504306Y-104305697D01*
X147548384Y-104276245D01*
X147570149Y-104264610D01*
X147619130Y-104244322D01*
X147642737Y-104237161D01*
X147694730Y-104226819D01*
X147719302Y-104224400D01*
X147772297Y-104224400D01*
X147796877Y-104226821D01*
G37*
%TD.AperFunction*%
%TA.AperFunction,Conductor*%
G36*
X181729676Y-71829711D02*
G01*
X181738772Y-71828569D01*
X181763025Y-71840172D01*
X181788673Y-71848218D01*
X181798715Y-71857247D01*
X181802817Y-71859210D01*
X181815341Y-71872197D01*
X181832560Y-71892822D01*
X181836193Y-71901181D01*
X181852445Y-71917433D01*
X181853102Y-71918151D01*
X181853634Y-71918621D01*
X181861833Y-71926819D01*
X181861833Y-71926820D01*
X181906377Y-71971364D01*
X181943840Y-72008826D01*
X181959511Y-72027922D01*
X181988950Y-72071982D01*
X182000592Y-72093763D01*
X182020870Y-72142717D01*
X182028041Y-72166353D01*
X182038379Y-72218321D01*
X182040800Y-72242904D01*
X182040800Y-72295897D01*
X182038378Y-72320482D01*
X182036386Y-72330495D01*
X182028040Y-72372447D01*
X182020870Y-72396082D01*
X182000592Y-72445035D01*
X181988951Y-72466815D01*
X181959507Y-72510883D01*
X181943835Y-72529978D01*
X181906378Y-72567435D01*
X181887283Y-72583107D01*
X181843215Y-72612551D01*
X181821435Y-72624192D01*
X181772482Y-72644470D01*
X181748846Y-72651640D01*
X181696879Y-72661978D01*
X181672295Y-72664400D01*
X181619311Y-72664400D01*
X181594729Y-72661979D01*
X181569095Y-72656880D01*
X181542748Y-72651639D01*
X181519111Y-72644468D01*
X181470163Y-72624192D01*
X181448383Y-72612551D01*
X181404315Y-72583107D01*
X181385220Y-72567435D01*
X181347763Y-72529978D01*
X181332093Y-72510886D01*
X181302647Y-72466815D01*
X181291006Y-72445035D01*
X181283668Y-72427320D01*
X181270726Y-72396075D01*
X181263557Y-72372442D01*
X181253221Y-72320476D01*
X181250800Y-72295896D01*
X181250800Y-72242902D01*
X181253221Y-72218322D01*
X181263558Y-72166352D01*
X181270724Y-72142724D01*
X181291010Y-72093750D01*
X181302647Y-72071982D01*
X181332097Y-72027906D01*
X181347759Y-72008823D01*
X181385223Y-71971359D01*
X181404304Y-71955698D01*
X181448389Y-71926242D01*
X181470165Y-71914604D01*
X181502570Y-71901181D01*
X181520580Y-71893721D01*
X181542036Y-71887005D01*
X181544151Y-71886545D01*
X181552902Y-71884476D01*
X181566176Y-71881086D01*
X181570602Y-71879957D01*
X181622775Y-71857247D01*
X181668330Y-71837417D01*
X181695000Y-71834067D01*
X181720931Y-71826968D01*
X181729676Y-71829711D01*
G37*
%TD.AperFunction*%
%TD*%
%TA.AperFunction,Conductor*%
%TO.N,Dir_Chrg_In*%
G36*
X140597395Y-62419907D02*
G01*
X140598454Y-62419906D01*
X140598457Y-62419908D01*
X151844973Y-62417700D01*
X189419800Y-62417700D01*
X189487921Y-62437702D01*
X189534414Y-62491358D01*
X189545800Y-62543700D01*
X189545800Y-68574917D01*
X189525798Y-68643038D01*
X189472142Y-68689531D01*
X189401868Y-68699635D01*
X189387192Y-68696624D01*
X189362098Y-68689900D01*
X189362093Y-68689900D01*
X189209507Y-68689900D01*
X189062122Y-68729392D01*
X189062117Y-68729394D01*
X188929982Y-68805682D01*
X188929972Y-68805690D01*
X188822090Y-68913572D01*
X188822082Y-68913582D01*
X188745794Y-69045717D01*
X188745792Y-69045722D01*
X188706300Y-69193107D01*
X188706300Y-69345693D01*
X188733356Y-69446665D01*
X188745792Y-69493077D01*
X188745794Y-69493082D01*
X188822082Y-69625217D01*
X188822090Y-69625227D01*
X188929972Y-69733109D01*
X188929977Y-69733113D01*
X188929979Y-69733115D01*
X188929980Y-69733116D01*
X188929982Y-69733117D01*
X188999754Y-69773400D01*
X189062122Y-69809408D01*
X189209507Y-69848900D01*
X189209510Y-69848900D01*
X189362090Y-69848900D01*
X189362093Y-69848900D01*
X189387190Y-69842175D01*
X189458165Y-69843865D01*
X189516961Y-69883659D01*
X189544909Y-69948923D01*
X189545800Y-69963882D01*
X189545800Y-106893298D01*
X189525798Y-106961419D01*
X189472142Y-107007912D01*
X189419699Y-107019298D01*
X168181562Y-107002206D01*
X168113457Y-106982149D01*
X168067007Y-106928456D01*
X168057214Y-106895916D01*
X168051515Y-106859937D01*
X167997625Y-106694079D01*
X167997622Y-106694073D01*
X167918443Y-106538677D01*
X167815932Y-106397583D01*
X167815930Y-106397580D01*
X167692615Y-106274265D01*
X167620188Y-106221644D01*
X167576834Y-106165421D01*
X167570759Y-106094685D01*
X167603891Y-106031894D01*
X167620176Y-106017782D01*
X167692939Y-105964917D01*
X167816317Y-105841539D01*
X167918874Y-105700381D01*
X167998088Y-105544916D01*
X168052005Y-105378974D01*
X168079300Y-105206641D01*
X168079300Y-105032159D01*
X168063107Y-104929918D01*
X173137300Y-104929918D01*
X173137300Y-104929921D01*
X173137300Y-105108879D01*
X173157191Y-105208881D01*
X173172214Y-105284403D01*
X173189063Y-105325080D01*
X173240698Y-105449736D01*
X173340122Y-105598535D01*
X173466665Y-105725078D01*
X173615464Y-105824502D01*
X173780800Y-105892987D01*
X173956321Y-105927900D01*
X173956322Y-105927900D01*
X174135278Y-105927900D01*
X174135279Y-105927900D01*
X174310800Y-105892987D01*
X174476136Y-105824502D01*
X174624935Y-105725078D01*
X174751478Y-105598535D01*
X174850902Y-105449736D01*
X174919387Y-105284400D01*
X174954300Y-105108879D01*
X174954300Y-104929921D01*
X174919387Y-104754400D01*
X174850902Y-104589064D01*
X174751478Y-104440265D01*
X174624935Y-104313722D01*
X174476136Y-104214298D01*
X174357396Y-104165114D01*
X174310803Y-104145814D01*
X174310801Y-104145813D01*
X174310800Y-104145813D01*
X174222445Y-104128238D01*
X174135281Y-104110900D01*
X174135279Y-104110900D01*
X173956321Y-104110900D01*
X173956318Y-104110900D01*
X173825571Y-104136907D01*
X173780800Y-104145813D01*
X173780799Y-104145813D01*
X173780796Y-104145814D01*
X173649702Y-104200116D01*
X173623668Y-104210900D01*
X173615462Y-104214299D01*
X173466669Y-104313719D01*
X173466662Y-104313724D01*
X173340124Y-104440262D01*
X173340119Y-104440269D01*
X173240699Y-104589062D01*
X173172214Y-104754396D01*
X173137300Y-104929918D01*
X168063107Y-104929918D01*
X168052005Y-104859826D01*
X167998088Y-104693884D01*
X167918874Y-104538419D01*
X167816317Y-104397261D01*
X167816314Y-104397258D01*
X167816312Y-104397255D01*
X167692944Y-104273887D01*
X167692941Y-104273885D01*
X167692939Y-104273883D01*
X167620613Y-104221335D01*
X167577260Y-104165114D01*
X167571185Y-104094378D01*
X167604316Y-104031586D01*
X167620614Y-104017464D01*
X167692939Y-103964917D01*
X167816317Y-103841539D01*
X167918874Y-103700381D01*
X167998088Y-103544916D01*
X168052005Y-103378974D01*
X168079300Y-103206641D01*
X168079300Y-103032159D01*
X168052005Y-102859826D01*
X167998088Y-102693884D01*
X167918874Y-102538419D01*
X167816317Y-102397261D01*
X167816314Y-102397258D01*
X167816312Y-102397255D01*
X167692944Y-102273887D01*
X167692941Y-102273885D01*
X167692939Y-102273883D01*
X167620613Y-102221335D01*
X167577260Y-102165114D01*
X167571185Y-102094378D01*
X167604316Y-102031586D01*
X167620614Y-102017464D01*
X167692939Y-101964917D01*
X167816317Y-101841539D01*
X167918874Y-101700381D01*
X167998088Y-101544916D01*
X168052005Y-101378974D01*
X168079300Y-101206641D01*
X168079300Y-101032159D01*
X168052005Y-100859826D01*
X167998088Y-100693884D01*
X167918874Y-100538419D01*
X167816317Y-100397261D01*
X167816314Y-100397258D01*
X167816312Y-100397255D01*
X167692944Y-100273887D01*
X167692941Y-100273885D01*
X167692939Y-100273883D01*
X167551781Y-100171326D01*
X167396316Y-100092112D01*
X167396313Y-100092111D01*
X167396311Y-100092110D01*
X167230377Y-100038196D01*
X167230374Y-100038195D01*
X167058041Y-100010900D01*
X166433559Y-100010900D01*
X166261226Y-100038195D01*
X166261223Y-100038195D01*
X166261222Y-100038196D01*
X166095288Y-100092110D01*
X166095282Y-100092113D01*
X165939815Y-100171328D01*
X165819861Y-100258480D01*
X165752993Y-100282339D01*
X165683841Y-100266258D01*
X165671739Y-100258480D01*
X165551784Y-100171328D01*
X165551783Y-100171327D01*
X165551781Y-100171326D01*
X165396316Y-100092112D01*
X165396313Y-100092111D01*
X165396311Y-100092110D01*
X165230377Y-100038196D01*
X165230374Y-100038195D01*
X165058041Y-100010900D01*
X164433559Y-100010900D01*
X164261226Y-100038195D01*
X164261223Y-100038195D01*
X164261222Y-100038196D01*
X164095288Y-100092110D01*
X164095282Y-100092113D01*
X163939815Y-100171328D01*
X163798658Y-100273885D01*
X163798655Y-100273887D01*
X163675287Y-100397255D01*
X163675285Y-100397258D01*
X163572728Y-100538415D01*
X163493513Y-100693882D01*
X163493510Y-100693888D01*
X163439596Y-100859822D01*
X163439595Y-100859826D01*
X163412300Y-101032159D01*
X163412300Y-101206641D01*
X163439595Y-101378974D01*
X163493512Y-101544916D01*
X163572726Y-101700381D01*
X163675283Y-101841539D01*
X163675285Y-101841541D01*
X163675287Y-101841544D01*
X163798654Y-101964911D01*
X163798657Y-101964913D01*
X163798661Y-101964917D01*
X163870986Y-102017464D01*
X163914339Y-102073687D01*
X163920414Y-102144423D01*
X163887282Y-102207215D01*
X163870986Y-102221336D01*
X163798654Y-102273888D01*
X163675287Y-102397255D01*
X163675285Y-102397258D01*
X163572728Y-102538415D01*
X163493513Y-102693882D01*
X163493510Y-102693888D01*
X163439596Y-102859822D01*
X163439595Y-102859826D01*
X163412300Y-103032159D01*
X163412300Y-103206641D01*
X163426137Y-103294001D01*
X163417037Y-103364412D01*
X163371315Y-103418726D01*
X163303487Y-103439699D01*
X163235088Y-103420672D01*
X163230117Y-103417108D01*
X163230082Y-103417161D01*
X163076137Y-103314299D01*
X163076138Y-103314299D01*
X163076136Y-103314298D01*
X162959229Y-103265873D01*
X162910803Y-103245814D01*
X162910801Y-103245813D01*
X162910800Y-103245813D01*
X162822445Y-103228238D01*
X162735281Y-103210900D01*
X162735279Y-103210900D01*
X162556321Y-103210900D01*
X162556318Y-103210900D01*
X162425571Y-103236907D01*
X162380800Y-103245813D01*
X162380799Y-103245813D01*
X162380796Y-103245814D01*
X162215462Y-103314299D01*
X162066669Y-103413719D01*
X162066662Y-103413724D01*
X161940124Y-103540262D01*
X161940119Y-103540269D01*
X161840699Y-103689062D01*
X161772214Y-103854396D01*
X161737300Y-104029918D01*
X161737300Y-104208881D01*
X161772214Y-104384403D01*
X161792273Y-104432829D01*
X161840698Y-104549736D01*
X161940122Y-104698535D01*
X162066665Y-104825078D01*
X162215464Y-104924502D01*
X162380800Y-104992987D01*
X162556321Y-105027900D01*
X162556322Y-105027900D01*
X162735278Y-105027900D01*
X162735279Y-105027900D01*
X162910800Y-104992987D01*
X163076136Y-104924502D01*
X163224935Y-104825078D01*
X163224934Y-104825078D01*
X163230082Y-104821639D01*
X163231392Y-104823600D01*
X163287072Y-104799938D01*
X163357053Y-104811903D01*
X163409456Y-104859803D01*
X163427644Y-104928431D01*
X163426137Y-104944793D01*
X163412300Y-105032159D01*
X163412300Y-105206641D01*
X163439595Y-105378974D01*
X163439596Y-105378977D01*
X163476639Y-105492987D01*
X163493512Y-105544916D01*
X163572726Y-105700381D01*
X163675283Y-105841539D01*
X163675285Y-105841541D01*
X163675287Y-105841544D01*
X163798654Y-105964911D01*
X163798657Y-105964913D01*
X163798661Y-105964917D01*
X163870986Y-106017464D01*
X163914339Y-106073687D01*
X163920414Y-106144423D01*
X163887282Y-106207215D01*
X163870986Y-106221336D01*
X163798654Y-106273888D01*
X163675287Y-106397255D01*
X163675285Y-106397258D01*
X163572728Y-106538415D01*
X163493513Y-106693882D01*
X163493510Y-106693888D01*
X163439596Y-106859821D01*
X163439595Y-106859825D01*
X163434498Y-106892001D01*
X163404084Y-106956153D01*
X163343814Y-106993678D01*
X163309949Y-106998286D01*
X159150646Y-106994939D01*
X159082541Y-106974882D01*
X159036091Y-106921189D01*
X159027168Y-106893520D01*
X159026847Y-106891904D01*
X159019387Y-106854400D01*
X158950902Y-106689064D01*
X158851478Y-106540265D01*
X158724935Y-106413722D01*
X158576136Y-106314298D01*
X158459229Y-106265873D01*
X158410803Y-106245814D01*
X158410801Y-106245813D01*
X158410800Y-106245813D01*
X158322445Y-106228238D01*
X158235281Y-106210900D01*
X158235279Y-106210900D01*
X158056321Y-106210900D01*
X158056318Y-106210900D01*
X157925571Y-106236907D01*
X157880800Y-106245813D01*
X157880799Y-106245813D01*
X157880796Y-106245814D01*
X157715462Y-106314299D01*
X157566669Y-106413719D01*
X157566662Y-106413724D01*
X157440124Y-106540262D01*
X157440119Y-106540269D01*
X157347634Y-106678684D01*
X157340698Y-106689064D01*
X157332488Y-106708884D01*
X157272214Y-106854397D01*
X157264753Y-106891904D01*
X157231844Y-106954813D01*
X157170149Y-106989944D01*
X157141073Y-106993321D01*
X153545301Y-106990428D01*
X153477196Y-106970371D01*
X153430746Y-106916678D01*
X153420699Y-106846396D01*
X153440635Y-106794428D01*
X153517974Y-106678684D01*
X153575151Y-106540646D01*
X153604300Y-106394106D01*
X153604300Y-106244694D01*
X153575151Y-106098154D01*
X153517974Y-105960116D01*
X153434965Y-105835884D01*
X153329316Y-105730235D01*
X153205084Y-105647226D01*
X153087538Y-105598537D01*
X153067049Y-105590050D01*
X153067046Y-105590049D01*
X152920509Y-105560900D01*
X152920506Y-105560900D01*
X152771094Y-105560900D01*
X152771090Y-105560900D01*
X152624553Y-105590049D01*
X152624550Y-105590050D01*
X152486515Y-105647226D01*
X152486511Y-105647228D01*
X152365801Y-105727884D01*
X152298049Y-105749099D01*
X152229582Y-105730316D01*
X152225799Y-105727884D01*
X152105088Y-105647228D01*
X152105084Y-105647226D01*
X151967049Y-105590050D01*
X151967046Y-105590049D01*
X151820509Y-105560900D01*
X151820506Y-105560900D01*
X151671094Y-105560900D01*
X151671090Y-105560900D01*
X151524553Y-105590049D01*
X151524550Y-105590050D01*
X151386515Y-105647226D01*
X151262288Y-105730232D01*
X151262281Y-105730237D01*
X151156637Y-105835881D01*
X151156632Y-105835888D01*
X151073626Y-105960115D01*
X151016450Y-106098150D01*
X151016449Y-106098153D01*
X150987300Y-106244690D01*
X150987300Y-106394109D01*
X151016449Y-106540646D01*
X151016450Y-106540649D01*
X151073626Y-106678684D01*
X151149617Y-106792413D01*
X151170832Y-106860166D01*
X151152049Y-106928633D01*
X151099231Y-106976076D01*
X151044751Y-106988415D01*
X147252734Y-106985364D01*
X147184629Y-106965307D01*
X147138179Y-106911614D01*
X147128132Y-106841332D01*
X147129252Y-106834802D01*
X147154300Y-106708879D01*
X147154300Y-106529921D01*
X147119387Y-106354400D01*
X147050902Y-106189064D01*
X146951478Y-106040265D01*
X146824935Y-105913722D01*
X146676136Y-105814298D01*
X146559229Y-105765873D01*
X146510803Y-105745814D01*
X146510801Y-105745813D01*
X146510800Y-105745813D01*
X146420664Y-105727884D01*
X146335281Y-105710900D01*
X146335279Y-105710900D01*
X146156321Y-105710900D01*
X146156318Y-105710900D01*
X146058709Y-105730316D01*
X145980800Y-105745813D01*
X145980799Y-105745813D01*
X145980796Y-105745814D01*
X145815462Y-105814299D01*
X145666669Y-105913719D01*
X145666662Y-105913724D01*
X145540124Y-106040262D01*
X145540119Y-106040269D01*
X145440699Y-106189062D01*
X145372214Y-106354396D01*
X145337300Y-106529918D01*
X145337300Y-106708884D01*
X145362021Y-106833162D01*
X145355693Y-106903876D01*
X145312139Y-106959943D01*
X145245186Y-106983562D01*
X145238341Y-106983743D01*
X115872599Y-106960112D01*
X115804494Y-106940055D01*
X115758044Y-106886362D01*
X115746700Y-106834112D01*
X115746700Y-104529918D01*
X146837300Y-104529918D01*
X146837300Y-104708881D01*
X146854638Y-104796045D01*
X146872213Y-104884400D01*
X146940698Y-105049736D01*
X147040122Y-105198535D01*
X147166665Y-105325078D01*
X147315464Y-105424502D01*
X147480800Y-105492987D01*
X147656321Y-105527900D01*
X147656322Y-105527900D01*
X147835278Y-105527900D01*
X147835279Y-105527900D01*
X148010800Y-105492987D01*
X148176136Y-105424502D01*
X148324935Y-105325078D01*
X148451478Y-105198535D01*
X148550902Y-105049736D01*
X148550902Y-105049734D01*
X148550905Y-105049731D01*
X148550904Y-105049730D01*
X148558183Y-105032159D01*
X148559111Y-105029918D01*
X155337300Y-105029918D01*
X155337300Y-105208881D01*
X155354638Y-105296045D01*
X155372213Y-105384400D01*
X155440698Y-105549736D01*
X155540122Y-105698535D01*
X155666665Y-105825078D01*
X155815464Y-105924502D01*
X155980800Y-105992987D01*
X156156321Y-106027900D01*
X156156322Y-106027900D01*
X156335278Y-106027900D01*
X156335279Y-106027900D01*
X156510800Y-105992987D01*
X156676136Y-105924502D01*
X156824935Y-105825078D01*
X156951478Y-105698535D01*
X157050902Y-105549736D01*
X157119387Y-105384400D01*
X157154300Y-105208879D01*
X157154300Y-105029921D01*
X157119387Y-104854400D01*
X157050902Y-104689064D01*
X156951478Y-104540265D01*
X156824935Y-104413722D01*
X156676136Y-104314298D01*
X156559229Y-104265873D01*
X156510803Y-104245814D01*
X156510801Y-104245813D01*
X156510800Y-104245813D01*
X156422445Y-104228238D01*
X156335281Y-104210900D01*
X156335279Y-104210900D01*
X156156321Y-104210900D01*
X156156318Y-104210900D01*
X156025571Y-104236907D01*
X155980800Y-104245813D01*
X155980799Y-104245813D01*
X155980796Y-104245814D01*
X155815462Y-104314299D01*
X155666669Y-104413719D01*
X155666662Y-104413724D01*
X155540124Y-104540262D01*
X155540119Y-104540269D01*
X155507516Y-104589064D01*
X155440698Y-104689064D01*
X155426516Y-104723302D01*
X155372214Y-104854396D01*
X155337300Y-105029918D01*
X148559111Y-105029918D01*
X148581645Y-104975517D01*
X148581647Y-104975513D01*
X148619385Y-104884405D01*
X148619385Y-104884404D01*
X148619387Y-104884400D01*
X148654300Y-104708879D01*
X148654300Y-104529921D01*
X148619387Y-104354400D01*
X148550902Y-104189064D01*
X148451478Y-104040265D01*
X148324935Y-103913722D01*
X148176136Y-103814298D01*
X148059229Y-103765873D01*
X148010803Y-103745814D01*
X148010801Y-103745813D01*
X148010800Y-103745813D01*
X147922445Y-103728238D01*
X147835281Y-103710900D01*
X147835279Y-103710900D01*
X147656321Y-103710900D01*
X147656318Y-103710900D01*
X147525571Y-103736907D01*
X147480800Y-103745813D01*
X147480799Y-103745813D01*
X147480796Y-103745814D01*
X147315462Y-103814299D01*
X147166669Y-103913719D01*
X147166662Y-103913724D01*
X147040124Y-104040262D01*
X147040119Y-104040269D01*
X146956701Y-104165114D01*
X146940698Y-104189064D01*
X146931653Y-104210900D01*
X146872214Y-104354396D01*
X146837300Y-104529918D01*
X115746700Y-104529918D01*
X115746700Y-74812484D01*
X130387300Y-74812484D01*
X130387300Y-75026316D01*
X130398810Y-75098984D01*
X130420752Y-75237521D01*
X130467287Y-75380742D01*
X130486828Y-75440883D01*
X130583906Y-75631409D01*
X130709594Y-75804404D01*
X130709596Y-75804406D01*
X130709598Y-75804409D01*
X130860790Y-75955601D01*
X130860793Y-75955603D01*
X130860796Y-75955606D01*
X131033791Y-76081294D01*
X131224317Y-76178372D01*
X131427678Y-76244447D01*
X131427679Y-76244447D01*
X131427684Y-76244449D01*
X131638884Y-76277900D01*
X131638887Y-76277900D01*
X131852713Y-76277900D01*
X131852716Y-76277900D01*
X132063916Y-76244449D01*
X132267283Y-76178372D01*
X132457809Y-76081294D01*
X132630804Y-75955606D01*
X132733782Y-75852627D01*
X132796092Y-75818604D01*
X132866908Y-75823668D01*
X132923744Y-75866215D01*
X132940931Y-75897691D01*
X132984910Y-76015603D01*
X132984912Y-76015607D01*
X133072538Y-76132661D01*
X133189592Y-76220287D01*
X133189594Y-76220288D01*
X133189596Y-76220289D01*
X133248675Y-76242324D01*
X133326595Y-76271388D01*
X133326603Y-76271390D01*
X133387150Y-76277899D01*
X133387155Y-76277899D01*
X133387162Y-76277900D01*
X133387168Y-76277900D01*
X135184432Y-76277900D01*
X135184438Y-76277900D01*
X135184445Y-76277899D01*
X135184449Y-76277899D01*
X135244996Y-76271390D01*
X135244999Y-76271389D01*
X135245001Y-76271389D01*
X135382004Y-76220289D01*
X135397960Y-76208345D01*
X135499061Y-76132661D01*
X135586687Y-76015607D01*
X135586687Y-76015606D01*
X135586689Y-76015604D01*
X135630760Y-75897445D01*
X135637788Y-75878604D01*
X135637790Y-75878596D01*
X135644299Y-75818049D01*
X135644300Y-75818032D01*
X135644300Y-74020767D01*
X135644299Y-74020750D01*
X135637790Y-73960203D01*
X135637788Y-73960195D01*
X135586689Y-73823197D01*
X135586687Y-73823192D01*
X135499061Y-73706138D01*
X135382007Y-73618512D01*
X135382002Y-73618510D01*
X135245004Y-73567411D01*
X135244996Y-73567409D01*
X135184449Y-73560900D01*
X135184438Y-73560900D01*
X133387162Y-73560900D01*
X133387150Y-73560900D01*
X133326603Y-73567409D01*
X133326595Y-73567411D01*
X133189597Y-73618510D01*
X133189592Y-73618512D01*
X133072538Y-73706138D01*
X132984912Y-73823192D01*
X132984910Y-73823197D01*
X132940931Y-73941108D01*
X132898384Y-73997944D01*
X132831864Y-74022754D01*
X132762490Y-74007662D01*
X132733781Y-73986170D01*
X132630809Y-73883198D01*
X132630806Y-73883196D01*
X132630804Y-73883194D01*
X132500581Y-73788582D01*
X132457812Y-73757508D01*
X132457811Y-73757507D01*
X132457809Y-73757506D01*
X132267283Y-73660428D01*
X132267280Y-73660427D01*
X132267278Y-73660426D01*
X132063920Y-73594352D01*
X132063923Y-73594352D01*
X132024601Y-73588124D01*
X131852716Y-73560900D01*
X131638884Y-73560900D01*
X131427684Y-73594351D01*
X131427678Y-73594352D01*
X131224321Y-73660426D01*
X131224315Y-73660429D01*
X131033787Y-73757508D01*
X130860793Y-73883196D01*
X130860790Y-73883198D01*
X130709598Y-74034390D01*
X130709596Y-74034393D01*
X130583908Y-74207387D01*
X130486829Y-74397915D01*
X130486826Y-74397921D01*
X130420752Y-74601278D01*
X130420751Y-74601283D01*
X130420751Y-74601284D01*
X130387300Y-74812484D01*
X115746700Y-74812484D01*
X115746700Y-73043700D01*
X115766702Y-72975579D01*
X115820358Y-72929086D01*
X115872700Y-72917700D01*
X126086082Y-72917700D01*
X126159774Y-72887176D01*
X126216176Y-72830774D01*
X126246700Y-72757082D01*
X126246700Y-71212484D01*
X130522300Y-71212484D01*
X130522300Y-71426316D01*
X130555751Y-71637516D01*
X130555752Y-71637521D01*
X130621236Y-71839062D01*
X130621828Y-71840883D01*
X130718906Y-72031409D01*
X130844594Y-72204404D01*
X130844596Y-72204406D01*
X130844598Y-72204409D01*
X130995790Y-72355601D01*
X130995793Y-72355603D01*
X130995796Y-72355606D01*
X131168791Y-72481294D01*
X131359317Y-72578372D01*
X131562678Y-72644447D01*
X131562679Y-72644447D01*
X131562684Y-72644449D01*
X131773884Y-72677900D01*
X131773887Y-72677900D01*
X131987713Y-72677900D01*
X131987716Y-72677900D01*
X132198916Y-72644449D01*
X132402283Y-72578372D01*
X132592809Y-72481294D01*
X132765804Y-72355606D01*
X132868782Y-72252627D01*
X132931092Y-72218604D01*
X133001908Y-72223668D01*
X133058744Y-72266215D01*
X133075931Y-72297691D01*
X133119910Y-72415603D01*
X133119912Y-72415607D01*
X133207538Y-72532661D01*
X133324592Y-72620287D01*
X133324594Y-72620288D01*
X133324596Y-72620289D01*
X133362429Y-72634400D01*
X133461595Y-72671388D01*
X133461603Y-72671390D01*
X133522150Y-72677899D01*
X133522155Y-72677899D01*
X133522162Y-72677900D01*
X133522168Y-72677900D01*
X135319432Y-72677900D01*
X135319438Y-72677900D01*
X135319445Y-72677899D01*
X135319449Y-72677899D01*
X135379996Y-72671390D01*
X135379999Y-72671389D01*
X135380001Y-72671389D01*
X135517004Y-72620289D01*
X135572999Y-72578372D01*
X135634061Y-72532661D01*
X135721687Y-72415607D01*
X135721687Y-72415606D01*
X135721689Y-72415604D01*
X135772789Y-72278601D01*
X135775582Y-72252629D01*
X135779299Y-72218049D01*
X135779300Y-72218032D01*
X135779300Y-70420767D01*
X135779299Y-70420750D01*
X135772790Y-70360203D01*
X135772788Y-70360195D01*
X135739318Y-70270461D01*
X135721689Y-70223196D01*
X135721688Y-70223194D01*
X135721687Y-70223192D01*
X135634061Y-70106138D01*
X135517007Y-70018512D01*
X135517002Y-70018510D01*
X135380004Y-69967411D01*
X135379996Y-69967409D01*
X135319449Y-69960900D01*
X135319438Y-69960900D01*
X133522162Y-69960900D01*
X133522150Y-69960900D01*
X133461603Y-69967409D01*
X133461595Y-69967411D01*
X133324597Y-70018510D01*
X133324592Y-70018512D01*
X133207538Y-70106138D01*
X133119912Y-70223192D01*
X133119910Y-70223197D01*
X133075931Y-70341108D01*
X133033384Y-70397944D01*
X132966864Y-70422754D01*
X132897490Y-70407662D01*
X132868781Y-70386170D01*
X132765809Y-70283198D01*
X132765806Y-70283196D01*
X132765804Y-70283194D01*
X132592809Y-70157506D01*
X132402283Y-70060428D01*
X132402280Y-70060427D01*
X132402278Y-70060426D01*
X132198920Y-69994352D01*
X132198923Y-69994352D01*
X132141928Y-69985325D01*
X131987716Y-69960900D01*
X131773884Y-69960900D01*
X131562684Y-69994351D01*
X131562678Y-69994352D01*
X131359321Y-70060426D01*
X131359315Y-70060429D01*
X131168787Y-70157508D01*
X130995793Y-70283196D01*
X130995790Y-70283198D01*
X130844598Y-70434390D01*
X130844596Y-70434393D01*
X130718908Y-70607387D01*
X130621829Y-70797915D01*
X130621826Y-70797921D01*
X130555752Y-71001278D01*
X130555751Y-71001283D01*
X130555751Y-71001284D01*
X130522300Y-71212484D01*
X126246700Y-71212484D01*
X126246700Y-67512484D01*
X130522300Y-67512484D01*
X130522300Y-67726316D01*
X130555751Y-67937516D01*
X130555752Y-67937521D01*
X130621826Y-68140878D01*
X130621828Y-68140883D01*
X130692538Y-68279658D01*
X130718908Y-68331412D01*
X130737868Y-68357508D01*
X130844594Y-68504404D01*
X130844596Y-68504406D01*
X130844598Y-68504409D01*
X130995790Y-68655601D01*
X130995793Y-68655603D01*
X130995796Y-68655606D01*
X131168791Y-68781294D01*
X131359317Y-68878372D01*
X131562678Y-68944447D01*
X131562679Y-68944447D01*
X131562684Y-68944449D01*
X131773884Y-68977900D01*
X131773887Y-68977900D01*
X131987713Y-68977900D01*
X131987716Y-68977900D01*
X132198916Y-68944449D01*
X132402283Y-68878372D01*
X132592809Y-68781294D01*
X132765804Y-68655606D01*
X132868782Y-68552627D01*
X132931092Y-68518604D01*
X133001908Y-68523668D01*
X133058744Y-68566215D01*
X133075931Y-68597691D01*
X133119910Y-68715603D01*
X133119912Y-68715607D01*
X133207538Y-68832661D01*
X133324592Y-68920287D01*
X133324594Y-68920288D01*
X133324596Y-68920289D01*
X133374518Y-68938909D01*
X133461595Y-68971388D01*
X133461603Y-68971390D01*
X133522150Y-68977899D01*
X133522155Y-68977899D01*
X133522162Y-68977900D01*
X133522168Y-68977900D01*
X135319432Y-68977900D01*
X135319438Y-68977900D01*
X135319445Y-68977899D01*
X135319449Y-68977899D01*
X135379996Y-68971390D01*
X135379999Y-68971389D01*
X135380001Y-68971389D01*
X135517004Y-68920289D01*
X135525964Y-68913582D01*
X135634061Y-68832661D01*
X135721687Y-68715607D01*
X135721687Y-68715606D01*
X135721689Y-68715604D01*
X135757049Y-68620802D01*
X138812800Y-68620802D01*
X138812800Y-69265400D01*
X139740097Y-69265400D01*
X139704875Y-69326407D01*
X139670800Y-69453574D01*
X139670800Y-69585226D01*
X139704875Y-69712393D01*
X139740097Y-69773400D01*
X138812800Y-69773400D01*
X138812800Y-70417997D01*
X138819305Y-70478493D01*
X138870355Y-70615364D01*
X138870355Y-70615365D01*
X138957895Y-70732304D01*
X139074834Y-70819844D01*
X139211706Y-70870894D01*
X139272202Y-70877399D01*
X139272215Y-70877400D01*
X139916800Y-70877400D01*
X139916800Y-69950102D01*
X139977807Y-69985325D01*
X140104974Y-70019400D01*
X140236626Y-70019400D01*
X140363793Y-69985325D01*
X140424800Y-69950102D01*
X140424800Y-70877400D01*
X141069385Y-70877400D01*
X141069397Y-70877399D01*
X141129893Y-70870894D01*
X141266764Y-70819844D01*
X141266765Y-70819844D01*
X141383704Y-70732304D01*
X141471244Y-70615365D01*
X141515278Y-70497303D01*
X141557824Y-70440467D01*
X141624344Y-70415656D01*
X141693718Y-70430747D01*
X141722429Y-70452240D01*
X141825790Y-70555601D01*
X141825793Y-70555603D01*
X141825796Y-70555606D01*
X141998791Y-70681294D01*
X142189317Y-70778372D01*
X142392678Y-70844447D01*
X142392679Y-70844447D01*
X142392684Y-70844449D01*
X142603884Y-70877900D01*
X142603887Y-70877900D01*
X142817713Y-70877900D01*
X142817716Y-70877900D01*
X143028916Y-70844449D01*
X143232283Y-70778372D01*
X143422809Y-70681294D01*
X143595804Y-70555606D01*
X143747006Y-70404404D01*
X143872694Y-70231409D01*
X143969772Y-70040883D01*
X144002806Y-69939212D01*
X147067300Y-69939212D01*
X147067300Y-70299587D01*
X147107648Y-70657694D01*
X147144658Y-70819844D01*
X147187838Y-71009026D01*
X147187840Y-71009032D01*
X147187839Y-71009032D01*
X147306854Y-71349157D01*
X147306859Y-71349171D01*
X147306861Y-71349175D01*
X147312508Y-71360900D01*
X147463222Y-71673860D01*
X147463223Y-71673863D01*
X147654943Y-71978984D01*
X147654947Y-71978991D01*
X147879639Y-72260745D01*
X148134454Y-72515560D01*
X148416208Y-72740252D01*
X148416215Y-72740256D01*
X148721336Y-72931976D01*
X148721338Y-72931976D01*
X148721342Y-72931979D01*
X149046025Y-73088339D01*
X149046040Y-73088344D01*
X149046042Y-73088345D01*
X149386167Y-73207360D01*
X149386170Y-73207360D01*
X149386174Y-73207362D01*
X149737505Y-73287551D01*
X149737506Y-73287551D01*
X149737509Y-73287552D01*
X149948707Y-73311347D01*
X150095612Y-73327900D01*
X150095614Y-73327900D01*
X150455988Y-73327900D01*
X150546930Y-73317653D01*
X150814091Y-73287552D01*
X151165426Y-73207362D01*
X151505575Y-73088339D01*
X151566057Y-73059212D01*
X162627300Y-73059212D01*
X162627300Y-73419587D01*
X162667648Y-73777694D01*
X162694726Y-73896328D01*
X162747838Y-74129026D01*
X162747840Y-74129032D01*
X162747839Y-74129032D01*
X162866854Y-74469157D01*
X162866862Y-74469177D01*
X163023222Y-74793860D01*
X163023223Y-74793863D01*
X163214943Y-75098984D01*
X163214947Y-75098991D01*
X163439639Y-75380745D01*
X163694454Y-75635560D01*
X163976208Y-75860252D01*
X163976215Y-75860256D01*
X164281336Y-76051976D01*
X164281338Y-76051976D01*
X164281342Y-76051979D01*
X164606025Y-76208339D01*
X164606040Y-76208344D01*
X164606042Y-76208345D01*
X164946167Y-76327360D01*
X164946170Y-76327360D01*
X164946174Y-76327362D01*
X165297505Y-76407551D01*
X165297506Y-76407551D01*
X165297509Y-76407552D01*
X165508707Y-76431347D01*
X165655612Y-76447900D01*
X165655614Y-76447900D01*
X166015988Y-76447900D01*
X166106930Y-76437653D01*
X166374091Y-76407552D01*
X166725426Y-76327362D01*
X167065575Y-76208339D01*
X167390258Y-76051979D01*
X167695393Y-75860251D01*
X167977142Y-75635563D01*
X168231963Y-75380742D01*
X168456651Y-75098993D01*
X168648379Y-74793858D01*
X168804739Y-74469175D01*
X168813602Y-74443846D01*
X184787300Y-74443846D01*
X184787300Y-75694944D01*
X184797912Y-75798825D01*
X184830673Y-75897691D01*
X184853685Y-75967138D01*
X184924097Y-76081294D01*
X184950623Y-76124298D01*
X184948099Y-76125854D01*
X184969622Y-76179194D01*
X184956374Y-76248944D01*
X184950143Y-76259090D01*
X184950314Y-76259195D01*
X184947730Y-76263411D01*
X184868513Y-76418882D01*
X184868510Y-76418888D01*
X184859084Y-76447900D01*
X184814595Y-76584826D01*
X184787300Y-76757159D01*
X184787300Y-77381641D01*
X184814595Y-77553974D01*
X184868512Y-77719916D01*
X184868513Y-77719917D01*
X184947728Y-77875384D01*
X184973083Y-77910282D01*
X185050283Y-78016539D01*
X185050285Y-78016541D01*
X185050287Y-78016544D01*
X185173655Y-78139912D01*
X185173658Y-78139914D01*
X185173661Y-78139917D01*
X185314819Y-78242474D01*
X185470284Y-78321688D01*
X185636226Y-78375605D01*
X185808559Y-78402900D01*
X185808562Y-78402900D01*
X185983038Y-78402900D01*
X185983041Y-78402900D01*
X186155374Y-78375605D01*
X186321316Y-78321688D01*
X186476781Y-78242474D01*
X186617939Y-78139917D01*
X186741317Y-78016539D01*
X186793864Y-77944213D01*
X186850086Y-77900860D01*
X186920822Y-77894785D01*
X186983614Y-77927916D01*
X186997735Y-77944213D01*
X187050283Y-78016539D01*
X187050285Y-78016541D01*
X187050287Y-78016544D01*
X187173655Y-78139912D01*
X187173658Y-78139914D01*
X187173661Y-78139917D01*
X187314819Y-78242474D01*
X187470284Y-78321688D01*
X187636226Y-78375605D01*
X187808559Y-78402900D01*
X187808562Y-78402900D01*
X187983038Y-78402900D01*
X187983041Y-78402900D01*
X188155374Y-78375605D01*
X188321316Y-78321688D01*
X188476781Y-78242474D01*
X188617939Y-78139917D01*
X188741317Y-78016539D01*
X188843874Y-77875381D01*
X188923088Y-77719916D01*
X188977005Y-77553974D01*
X189004300Y-77381641D01*
X189004300Y-76757159D01*
X188977005Y-76584826D01*
X188923088Y-76418884D01*
X188843874Y-76263419D01*
X188756718Y-76143459D01*
X188732861Y-76076594D01*
X188748941Y-76007442D01*
X188756713Y-75995346D01*
X188843874Y-75875381D01*
X188923088Y-75719916D01*
X188977005Y-75553974D01*
X189004300Y-75381641D01*
X189004300Y-74757159D01*
X188977005Y-74584826D01*
X188923088Y-74418884D01*
X188843874Y-74263419D01*
X188741317Y-74122261D01*
X188741314Y-74122258D01*
X188741312Y-74122255D01*
X188617944Y-73998887D01*
X188617941Y-73998885D01*
X188617939Y-73998883D01*
X188476781Y-73896326D01*
X188321316Y-73817112D01*
X188321313Y-73817111D01*
X188321311Y-73817110D01*
X188155377Y-73763196D01*
X188155374Y-73763195D01*
X187983041Y-73735900D01*
X187808559Y-73735900D01*
X187636226Y-73763195D01*
X187636223Y-73763195D01*
X187636222Y-73763196D01*
X187470288Y-73817110D01*
X187470282Y-73817113D01*
X187314815Y-73896328D01*
X187173660Y-73998883D01*
X187074615Y-74097928D01*
X187012303Y-74131953D01*
X186941487Y-74126887D01*
X186884651Y-74084340D01*
X186878284Y-74074986D01*
X186844830Y-74020748D01*
X186844827Y-74020745D01*
X186844824Y-74020741D01*
X186719458Y-73895375D01*
X186719452Y-73895370D01*
X186699712Y-73883194D01*
X186568538Y-73802285D01*
X186450570Y-73763195D01*
X186400227Y-73746513D01*
X186400220Y-73746512D01*
X186296353Y-73735900D01*
X185495255Y-73735900D01*
X185391374Y-73746512D01*
X185223061Y-73802285D01*
X185072147Y-73895370D01*
X185072141Y-73895375D01*
X184946775Y-74020741D01*
X184946770Y-74020747D01*
X184853685Y-74171662D01*
X184797913Y-74339972D01*
X184797912Y-74339979D01*
X184787300Y-74443846D01*
X168813602Y-74443846D01*
X168822337Y-74418884D01*
X168829284Y-74399031D01*
X168829284Y-74399030D01*
X168923760Y-74129032D01*
X168923760Y-74129031D01*
X168923762Y-74129026D01*
X169003952Y-73777691D01*
X169044300Y-73419586D01*
X169044300Y-73059214D01*
X169003952Y-72701109D01*
X168923762Y-72349774D01*
X168905537Y-72297691D01*
X168876724Y-72215346D01*
X168864327Y-72179918D01*
X180737300Y-72179918D01*
X180737300Y-72179921D01*
X180737300Y-72358879D01*
X180772213Y-72534400D01*
X180840698Y-72699736D01*
X180940122Y-72848535D01*
X181066665Y-72975078D01*
X181215464Y-73074502D01*
X181380800Y-73142987D01*
X181556321Y-73177900D01*
X181556322Y-73177900D01*
X181735278Y-73177900D01*
X181735279Y-73177900D01*
X181910800Y-73142987D01*
X182076136Y-73074502D01*
X182224935Y-72975078D01*
X182351478Y-72848535D01*
X182450902Y-72699736D01*
X182519387Y-72534400D01*
X182554300Y-72358879D01*
X182554300Y-72279918D01*
X183987300Y-72279918D01*
X183987300Y-72458881D01*
X184004638Y-72546045D01*
X184019406Y-72620289D01*
X184022214Y-72634403D01*
X184026375Y-72644449D01*
X184090698Y-72799736D01*
X184190122Y-72948535D01*
X184316665Y-73075078D01*
X184465464Y-73174502D01*
X184630800Y-73242987D01*
X184806321Y-73277900D01*
X184806322Y-73277900D01*
X184985278Y-73277900D01*
X184985279Y-73277900D01*
X185160800Y-73242987D01*
X185326136Y-73174502D01*
X185474935Y-73075078D01*
X185601478Y-72948535D01*
X185700902Y-72799736D01*
X185769387Y-72634400D01*
X185804300Y-72458879D01*
X185804300Y-72279921D01*
X185784408Y-72179918D01*
X187237300Y-72179918D01*
X187237300Y-72179921D01*
X187237300Y-72358879D01*
X187272213Y-72534400D01*
X187340698Y-72699736D01*
X187440122Y-72848535D01*
X187566665Y-72975078D01*
X187715464Y-73074502D01*
X187880800Y-73142987D01*
X188056321Y-73177900D01*
X188056322Y-73177900D01*
X188235278Y-73177900D01*
X188235279Y-73177900D01*
X188410800Y-73142987D01*
X188576136Y-73074502D01*
X188724935Y-72975078D01*
X188851478Y-72848535D01*
X188950902Y-72699736D01*
X189019387Y-72534400D01*
X189054300Y-72358879D01*
X189054300Y-72179921D01*
X189019387Y-72004400D01*
X188950902Y-71839064D01*
X188851478Y-71690265D01*
X188724935Y-71563722D01*
X188576136Y-71464298D01*
X188459229Y-71415873D01*
X188410803Y-71395814D01*
X188410801Y-71395813D01*
X188410800Y-71395813D01*
X188318563Y-71377466D01*
X188235281Y-71360900D01*
X188235279Y-71360900D01*
X188056321Y-71360900D01*
X188056318Y-71360900D01*
X187936403Y-71384753D01*
X187880800Y-71395813D01*
X187880799Y-71395813D01*
X187880796Y-71395814D01*
X187749702Y-71450116D01*
X187723668Y-71460900D01*
X187715462Y-71464299D01*
X187566669Y-71563719D01*
X187566662Y-71563724D01*
X187440124Y-71690262D01*
X187440119Y-71690269D01*
X187340699Y-71839062D01*
X187272214Y-72004396D01*
X187237300Y-72179918D01*
X185784408Y-72179918D01*
X185769387Y-72104400D01*
X185700902Y-71939064D01*
X185601478Y-71790265D01*
X185474935Y-71663722D01*
X185326136Y-71564298D01*
X185199736Y-71511941D01*
X185160803Y-71495814D01*
X185160801Y-71495813D01*
X185160800Y-71495813D01*
X185072445Y-71478238D01*
X184985281Y-71460900D01*
X184985279Y-71460900D01*
X184806321Y-71460900D01*
X184806318Y-71460900D01*
X184675571Y-71486907D01*
X184630800Y-71495813D01*
X184630799Y-71495813D01*
X184630796Y-71495814D01*
X184465462Y-71564299D01*
X184316669Y-71663719D01*
X184316662Y-71663724D01*
X184190124Y-71790262D01*
X184190119Y-71790269D01*
X184090699Y-71939062D01*
X184022214Y-72104396D01*
X183987300Y-72279918D01*
X182554300Y-72279918D01*
X182554300Y-72179921D01*
X182519387Y-72004400D01*
X182450902Y-71839064D01*
X182351478Y-71690265D01*
X182224935Y-71563722D01*
X182224931Y-71563719D01*
X182220145Y-71559791D01*
X182221786Y-71557791D01*
X182183509Y-71511941D01*
X182174699Y-71441493D01*
X182205375Y-71377466D01*
X182265797Y-71340187D01*
X182274460Y-71338141D01*
X182369969Y-71319144D01*
X182553504Y-71243121D01*
X182718681Y-71132753D01*
X182859153Y-70992281D01*
X182969521Y-70827104D01*
X183045544Y-70643569D01*
X183084300Y-70448729D01*
X183084300Y-69913433D01*
X183104302Y-69845312D01*
X183157958Y-69798819D01*
X183228232Y-69788715D01*
X183273298Y-69804313D01*
X183282122Y-69809408D01*
X183429507Y-69848900D01*
X183429510Y-69848900D01*
X183582090Y-69848900D01*
X183582093Y-69848900D01*
X183729478Y-69809408D01*
X183861621Y-69733115D01*
X183969515Y-69625221D01*
X184045808Y-69493078D01*
X184058245Y-69446661D01*
X185407300Y-69446661D01*
X185407300Y-69446664D01*
X185407300Y-69592136D01*
X185435680Y-69734812D01*
X185491350Y-69869211D01*
X185538125Y-69939214D01*
X185572169Y-69990165D01*
X185572174Y-69990171D01*
X185675028Y-70093025D01*
X185675034Y-70093030D01*
X185795989Y-70173850D01*
X185930388Y-70229520D01*
X186073064Y-70257900D01*
X186073065Y-70257900D01*
X186218535Y-70257900D01*
X186218536Y-70257900D01*
X186361212Y-70229520D01*
X186495611Y-70173850D01*
X186606301Y-70099888D01*
X186674050Y-70078675D01*
X186742517Y-70097458D01*
X186746242Y-70099851D01*
X186856989Y-70173850D01*
X186991388Y-70229520D01*
X187134064Y-70257900D01*
X187134065Y-70257900D01*
X187279535Y-70257900D01*
X187279536Y-70257900D01*
X187422212Y-70229520D01*
X187556611Y-70173850D01*
X187677566Y-70093030D01*
X187780430Y-69990166D01*
X187861250Y-69869211D01*
X187916920Y-69734812D01*
X187945300Y-69592136D01*
X187945300Y-69446664D01*
X187916920Y-69303988D01*
X187861250Y-69169589D01*
X187780430Y-69048634D01*
X187780425Y-69048628D01*
X187677571Y-68945774D01*
X187677565Y-68945769D01*
X187637430Y-68918951D01*
X187556611Y-68864950D01*
X187422212Y-68809280D01*
X187404124Y-68805682D01*
X187279538Y-68780900D01*
X187279536Y-68780900D01*
X187134064Y-68780900D01*
X187134061Y-68780900D01*
X186991387Y-68809280D01*
X186991382Y-68809282D01*
X186856989Y-68864950D01*
X186746302Y-68938909D01*
X186678549Y-68960124D01*
X186610082Y-68941341D01*
X186606298Y-68938909D01*
X186578428Y-68920287D01*
X186495611Y-68864950D01*
X186361212Y-68809280D01*
X186343124Y-68805682D01*
X186218538Y-68780900D01*
X186218536Y-68780900D01*
X186073064Y-68780900D01*
X186073061Y-68780900D01*
X185930387Y-68809280D01*
X185930382Y-68809282D01*
X185795989Y-68864950D01*
X185675034Y-68945769D01*
X185675028Y-68945774D01*
X185572174Y-69048628D01*
X185572169Y-69048634D01*
X185491350Y-69169589D01*
X185435682Y-69303982D01*
X185435680Y-69303987D01*
X185407300Y-69446661D01*
X184058245Y-69446661D01*
X184085300Y-69345693D01*
X184085300Y-69193107D01*
X184045808Y-69045722D01*
X183993562Y-68955230D01*
X183969517Y-68913582D01*
X183969509Y-68913572D01*
X183861627Y-68805690D01*
X183861617Y-68805682D01*
X183729482Y-68729394D01*
X183729480Y-68729393D01*
X183729478Y-68729392D01*
X183582093Y-68689900D01*
X183429507Y-68689900D01*
X183282122Y-68729392D01*
X183282117Y-68729394D01*
X183142827Y-68809814D01*
X183141744Y-68807939D01*
X183086189Y-68829409D01*
X183016642Y-68815134D01*
X182970957Y-68773846D01*
X182969521Y-68771698D01*
X182969521Y-68771696D01*
X182859153Y-68606519D01*
X182718681Y-68466047D01*
X182553504Y-68355679D01*
X182369969Y-68279656D01*
X182175131Y-68240900D01*
X182175129Y-68240900D01*
X181976471Y-68240900D01*
X181976468Y-68240900D01*
X181781630Y-68279656D01*
X181781625Y-68279658D01*
X181598096Y-68355679D01*
X181432923Y-68466044D01*
X181432916Y-68466049D01*
X181292449Y-68606516D01*
X181292444Y-68606523D01*
X181182079Y-68771696D01*
X181106058Y-68955225D01*
X181106056Y-68955230D01*
X181067300Y-69150068D01*
X181067300Y-70448731D01*
X181088559Y-70555606D01*
X181106056Y-70643569D01*
X181182079Y-70827104D01*
X181292447Y-70992281D01*
X181432919Y-71132753D01*
X181468146Y-71156291D01*
X181471419Y-71158478D01*
X181516947Y-71212955D01*
X181525795Y-71283398D01*
X181495154Y-71347442D01*
X181434752Y-71384753D01*
X181426001Y-71386822D01*
X181380795Y-71395814D01*
X181238288Y-71454843D01*
X181223668Y-71460900D01*
X181215462Y-71464299D01*
X181066669Y-71563719D01*
X181066662Y-71563724D01*
X180940124Y-71690262D01*
X180940119Y-71690269D01*
X180840699Y-71839062D01*
X180772214Y-72004396D01*
X180737300Y-72179918D01*
X168864327Y-72179918D01*
X168804745Y-72009642D01*
X168804744Y-72009640D01*
X168804739Y-72009625D01*
X168648379Y-71684942D01*
X168648376Y-71684938D01*
X168648376Y-71684936D01*
X168456656Y-71379815D01*
X168456652Y-71379808D01*
X168231960Y-71098054D01*
X167977145Y-70843239D01*
X167695391Y-70618547D01*
X167695384Y-70618543D01*
X167390263Y-70426823D01*
X167390260Y-70426822D01*
X167377652Y-70420750D01*
X167065575Y-70270461D01*
X167065571Y-70270459D01*
X167065557Y-70270454D01*
X166725432Y-70151439D01*
X166374093Y-70071248D01*
X166374096Y-70071248D01*
X166015988Y-70030900D01*
X166015986Y-70030900D01*
X165655614Y-70030900D01*
X165655612Y-70030900D01*
X165297505Y-70071248D01*
X164946167Y-70151439D01*
X164606042Y-70270454D01*
X164606022Y-70270462D01*
X164281339Y-70426822D01*
X164281336Y-70426823D01*
X163976215Y-70618543D01*
X163976208Y-70618547D01*
X163694454Y-70843239D01*
X163439639Y-71098054D01*
X163214947Y-71379808D01*
X163214943Y-71379815D01*
X163023223Y-71684936D01*
X163023222Y-71684939D01*
X162866862Y-72009622D01*
X162866854Y-72009642D01*
X162747839Y-72349767D01*
X162667648Y-72701105D01*
X162627300Y-73059212D01*
X151566057Y-73059212D01*
X151830258Y-72931979D01*
X152135393Y-72740251D01*
X152417142Y-72515563D01*
X152671963Y-72260742D01*
X152896651Y-71978993D01*
X153078072Y-71690262D01*
X153088376Y-71673863D01*
X153088376Y-71673862D01*
X153088379Y-71673858D01*
X153244739Y-71349175D01*
X153363762Y-71009026D01*
X153443952Y-70657691D01*
X153484300Y-70299586D01*
X153484300Y-69939214D01*
X153443952Y-69581109D01*
X153363762Y-69229774D01*
X153357680Y-69212393D01*
X153244745Y-68889642D01*
X153244744Y-68889640D01*
X153244739Y-68889625D01*
X153088379Y-68564942D01*
X153088376Y-68564938D01*
X153088376Y-68564936D01*
X152896656Y-68259815D01*
X152896652Y-68259808D01*
X152671960Y-67978054D01*
X152417145Y-67723239D01*
X152135391Y-67498547D01*
X152135384Y-67498543D01*
X151830263Y-67306823D01*
X151830260Y-67306822D01*
X151505577Y-67150462D01*
X151505557Y-67150454D01*
X151165432Y-67031439D01*
X150814093Y-66951248D01*
X150814096Y-66951248D01*
X150455988Y-66910900D01*
X150455986Y-66910900D01*
X150095614Y-66910900D01*
X150095612Y-66910900D01*
X149737505Y-66951248D01*
X149386167Y-67031439D01*
X149046042Y-67150454D01*
X149046022Y-67150462D01*
X148721339Y-67306822D01*
X148721336Y-67306823D01*
X148416215Y-67498543D01*
X148416208Y-67498547D01*
X148134454Y-67723239D01*
X147879639Y-67978054D01*
X147654947Y-68259808D01*
X147654943Y-68259815D01*
X147463223Y-68564936D01*
X147463222Y-68564939D01*
X147306862Y-68889622D01*
X147306854Y-68889642D01*
X147187839Y-69229767D01*
X147107648Y-69581105D01*
X147067300Y-69939212D01*
X144002806Y-69939212D01*
X144035849Y-69837516D01*
X144069300Y-69626316D01*
X144069300Y-69412484D01*
X144035849Y-69201284D01*
X143969772Y-68997917D01*
X143872694Y-68807391D01*
X143747006Y-68634396D01*
X143747003Y-68634393D01*
X143747001Y-68634390D01*
X143595809Y-68483198D01*
X143595806Y-68483196D01*
X143595804Y-68483194D01*
X143422809Y-68357506D01*
X143232283Y-68260428D01*
X143232280Y-68260427D01*
X143232278Y-68260426D01*
X143028920Y-68194352D01*
X143028923Y-68194352D01*
X142989601Y-68188124D01*
X142817716Y-68160900D01*
X142603884Y-68160900D01*
X142392684Y-68194351D01*
X142392678Y-68194352D01*
X142189321Y-68260426D01*
X142189315Y-68260429D01*
X141998787Y-68357508D01*
X141825795Y-68483194D01*
X141722429Y-68586560D01*
X141660117Y-68620585D01*
X141589301Y-68615519D01*
X141532465Y-68572973D01*
X141515278Y-68541496D01*
X141471244Y-68423434D01*
X141383704Y-68306495D01*
X141266765Y-68218955D01*
X141129893Y-68167905D01*
X141069397Y-68161400D01*
X140424800Y-68161400D01*
X140424800Y-69088697D01*
X140363793Y-69053475D01*
X140236626Y-69019400D01*
X140104974Y-69019400D01*
X139977807Y-69053475D01*
X139916800Y-69088697D01*
X139916800Y-68161400D01*
X139272202Y-68161400D01*
X139211706Y-68167905D01*
X139074835Y-68218955D01*
X139074834Y-68218955D01*
X138957895Y-68306495D01*
X138870355Y-68423434D01*
X138870355Y-68423435D01*
X138819305Y-68560306D01*
X138812800Y-68620802D01*
X135757049Y-68620802D01*
X135772789Y-68578601D01*
X135773186Y-68574917D01*
X135779299Y-68518049D01*
X135779300Y-68518032D01*
X135779300Y-66720767D01*
X135779299Y-66720750D01*
X135772790Y-66660203D01*
X135772788Y-66660195D01*
X135721689Y-66523197D01*
X135721687Y-66523192D01*
X135634061Y-66406138D01*
X135517007Y-66318512D01*
X135517002Y-66318510D01*
X135380004Y-66267411D01*
X135379996Y-66267409D01*
X135319449Y-66260900D01*
X135319438Y-66260900D01*
X133522162Y-66260900D01*
X133522150Y-66260900D01*
X133461603Y-66267409D01*
X133461595Y-66267411D01*
X133324597Y-66318510D01*
X133324592Y-66318512D01*
X133207538Y-66406138D01*
X133119912Y-66523192D01*
X133119910Y-66523197D01*
X133075931Y-66641108D01*
X133033384Y-66697944D01*
X132966864Y-66722754D01*
X132897490Y-66707662D01*
X132868781Y-66686170D01*
X132765809Y-66583198D01*
X132765806Y-66583196D01*
X132765804Y-66583194D01*
X132592809Y-66457506D01*
X132402283Y-66360428D01*
X132402280Y-66360427D01*
X132402278Y-66360426D01*
X132198920Y-66294352D01*
X132198923Y-66294352D01*
X132159601Y-66288124D01*
X131987716Y-66260900D01*
X131773884Y-66260900D01*
X131562684Y-66294351D01*
X131562678Y-66294352D01*
X131359321Y-66360426D01*
X131359315Y-66360429D01*
X131168787Y-66457508D01*
X130995793Y-66583196D01*
X130995790Y-66583198D01*
X130844598Y-66734390D01*
X130844596Y-66734393D01*
X130718908Y-66907387D01*
X130621829Y-67097915D01*
X130621826Y-67097921D01*
X130555752Y-67301278D01*
X130555751Y-67301283D01*
X130555751Y-67301284D01*
X130522300Y-67512484D01*
X126246700Y-67512484D01*
X126246700Y-65220068D01*
X181067300Y-65220068D01*
X181067300Y-65220071D01*
X181067300Y-66018729D01*
X181106056Y-66213569D01*
X181182079Y-66397104D01*
X181292447Y-66562281D01*
X181432919Y-66702753D01*
X181598096Y-66813121D01*
X181781631Y-66889144D01*
X181976471Y-66927900D01*
X181976472Y-66927900D01*
X182175128Y-66927900D01*
X182175129Y-66927900D01*
X182369969Y-66889144D01*
X182553504Y-66813121D01*
X182718681Y-66702753D01*
X182859153Y-66562281D01*
X182969521Y-66397104D01*
X183045544Y-66213569D01*
X183084300Y-66018729D01*
X183084300Y-65220071D01*
X183045544Y-65025231D01*
X182969521Y-64841696D01*
X182859153Y-64676519D01*
X182718681Y-64536047D01*
X182553504Y-64425679D01*
X182369969Y-64349656D01*
X182175131Y-64310900D01*
X182175129Y-64310900D01*
X181976471Y-64310900D01*
X181976468Y-64310900D01*
X181781630Y-64349656D01*
X181781625Y-64349658D01*
X181598096Y-64425679D01*
X181432923Y-64536044D01*
X181432916Y-64536049D01*
X181292449Y-64676516D01*
X181292444Y-64676523D01*
X181182079Y-64841696D01*
X181106058Y-65025225D01*
X181106056Y-65025230D01*
X181067300Y-65220068D01*
X126246700Y-65220068D01*
X126246700Y-62543700D01*
X126266702Y-62475579D01*
X126320358Y-62429086D01*
X126372700Y-62417700D01*
X140574949Y-62417700D01*
X140597395Y-62419907D01*
G37*
%TD.AperFunction*%
%TD*%
%TA.AperFunction,Conductor*%
%TO.N,GND*%
G36*
X167665800Y-137055400D02*
G01*
X167646115Y-137122439D01*
X167593311Y-137168194D01*
X167541800Y-137179400D01*
X163539800Y-137179400D01*
X163472761Y-137159715D01*
X163427006Y-137106911D01*
X163415800Y-137055400D01*
X163415800Y-126869400D01*
X167665800Y-126869400D01*
X167665800Y-137055400D01*
G37*
%TD.AperFunction*%
%TD*%
M02*
