%TF.GenerationSoftware,KiCad,Pcbnew,9.0.3*%
%TF.CreationDate,2025-08-04T00:02:12-07:00*%
%TF.ProjectId,antenna_top_cap_v2b_cygnet_special,616e7465-6e6e-4615-9f74-6f705f636170,rev?*%
%TF.SameCoordinates,Original*%
%TF.FileFunction,Copper,L3,Inr*%
%TF.FilePolarity,Positive*%
%FSLAX46Y46*%
G04 Gerber Fmt 4.6, Leading zero omitted, Abs format (unit mm)*
G04 Created by KiCad (PCBNEW 9.0.3) date 2025-08-04 00:02:12*
%MOMM*%
%LPD*%
G01*
G04 APERTURE LIST*
G04 Aperture macros list*
%AMRoundRect*
0 Rectangle with rounded corners*
0 $1 Rounding radius*
0 $2 $3 $4 $5 $6 $7 $8 $9 X,Y pos of 4 corners*
0 Add a 4 corners polygon primitive as box body*
4,1,4,$2,$3,$4,$5,$6,$7,$8,$9,$2,$3,0*
0 Add four circle primitives for the rounded corners*
1,1,$1+$1,$2,$3*
1,1,$1+$1,$4,$5*
1,1,$1+$1,$6,$7*
1,1,$1+$1,$8,$9*
0 Add four rect primitives between the rounded corners*
20,1,$1+$1,$2,$3,$4,$5,0*
20,1,$1+$1,$4,$5,$6,$7,0*
20,1,$1+$1,$6,$7,$8,$9,0*
20,1,$1+$1,$8,$9,$2,$3,0*%
G04 Aperture macros list end*
%TA.AperFunction,ComponentPad*%
%ADD10O,1.700000X1.700000*%
%TD*%
%TA.AperFunction,ComponentPad*%
%ADD11R,1.700000X1.700000*%
%TD*%
%TA.AperFunction,ComponentPad*%
%ADD12RoundRect,0.250000X-0.350000X-0.575000X0.350000X-0.575000X0.350000X0.575000X-0.350000X0.575000X0*%
%TD*%
%TA.AperFunction,ComponentPad*%
%ADD13O,1.200000X1.650000*%
%TD*%
%TA.AperFunction,ComponentPad*%
%ADD14C,5.400000*%
%TD*%
%TA.AperFunction,ComponentPad*%
%ADD15RoundRect,0.250000X-0.575000X0.350000X-0.575000X-0.350000X0.575000X-0.350000X0.575000X0.350000X0*%
%TD*%
%TA.AperFunction,ComponentPad*%
%ADD16O,1.650000X1.200000*%
%TD*%
%TA.AperFunction,ComponentPad*%
%ADD17RoundRect,0.250000X0.575000X-0.350000X0.575000X0.350000X-0.575000X0.350000X-0.575000X-0.350000X0*%
%TD*%
%TA.AperFunction,ComponentPad*%
%ADD18C,1.700000*%
%TD*%
%TA.AperFunction,ComponentPad*%
%ADD19C,2.050000*%
%TD*%
%TA.AperFunction,ComponentPad*%
%ADD20C,2.250000*%
%TD*%
%TA.AperFunction,HeatsinkPad*%
%ADD21C,0.500000*%
%TD*%
%TA.AperFunction,HeatsinkPad*%
%ADD22O,1.000000X1.600000*%
%TD*%
%TA.AperFunction,HeatsinkPad*%
%ADD23O,1.000000X2.100000*%
%TD*%
%TA.AperFunction,ViaPad*%
%ADD24C,0.800000*%
%TD*%
%TA.AperFunction,ViaPad*%
%ADD25C,0.460000*%
%TD*%
G04 APERTURE END LIST*
D10*
%TO.N,BURN*%
%TO.C,J7*%
X154275800Y-114431900D03*
D11*
X155545800Y-111891900D03*
X158085800Y-111891900D03*
D10*
X159645800Y-114431900D03*
D11*
%TO.N,GND*%
X154275800Y-122811900D03*
X155545800Y-125351900D03*
X158085800Y-125351900D03*
X159645800Y-122811900D03*
%TD*%
%TO.N,~{FC_RESET}*%
%TO.C,J3*%
X134420800Y-67619400D03*
D10*
%TO.N,GND*%
X131880800Y-67619400D03*
%TD*%
D12*
%TO.N,/RBF_High*%
%TO.C,J11*%
X202545800Y-77619400D03*
D13*
%TO.N,/RBF_Low*%
X202545800Y-79619400D03*
%TO.N,/RBF_High*%
X204545800Y-77619400D03*
%TO.N,/RBF_Low*%
X204545800Y-79619400D03*
%TD*%
D14*
%TO.N,unconnected-(TP3-Pad1)*%
%TO.C,TP3*%
X150275800Y-70119400D03*
%TD*%
D15*
%TO.N,Net-(J13-Pin_1)*%
%TO.C,J13*%
X198045800Y-77819400D03*
D16*
%TO.N,GND*%
X196045800Y-77819400D03*
%TO.N,Net-(J13-Pin_1)*%
X198045800Y-79819400D03*
%TO.N,GND*%
X196045800Y-79819400D03*
%TD*%
D17*
%TO.N,GND*%
%TO.C,J1*%
X164745800Y-111119400D03*
D16*
X166745801Y-111119400D03*
%TO.N,WDT_DISABLE*%
X164745800Y-109119399D03*
%TO.N,BURN*%
X166745800Y-109119400D03*
%TO.N,SCL0*%
X164745800Y-107119400D03*
%TO.N,Dir_Chrg_In*%
X166745800Y-107119399D03*
%TO.N,SDA0*%
X164745800Y-105119400D03*
%TO.N,+3V3*%
X166745800Y-105119400D03*
%TO.N,USB_D+*%
X164745800Y-103119400D03*
%TO.N,USB_D-*%
X166745800Y-103119400D03*
%TO.N,FC_USBBOOT*%
X164745800Y-101119400D03*
%TO.N,~{FC_RESET}*%
X166745800Y-101119400D03*
%TD*%
D11*
%TO.N,WDT_DISABLE*%
%TO.C,J10*%
X134285800Y-74919400D03*
D18*
%TO.N,GND*%
X131745800Y-74919400D03*
%TD*%
D14*
%TO.N,unconnected-(TP5-Pad1)*%
%TO.C,TP5*%
X126825800Y-112239400D03*
%TD*%
%TO.N,unconnected-(TP6-Pad1)*%
%TO.C,TP6*%
X165835800Y-73239400D03*
%TD*%
%TO.N,unconnected-(TP1-Pad1)*%
%TO.C,TP1*%
X165835800Y-151189400D03*
%TD*%
%TO.N,unconnected-(TP4-Pad1)*%
%TO.C,TP4*%
X204805800Y-112189400D03*
%TD*%
D19*
%TO.N,Net-(J5-In)*%
%TO.C,J5*%
X165745800Y-118919400D03*
D20*
%TO.N,GND*%
X163205800Y-116379400D03*
X163205800Y-121459400D03*
X168285800Y-116379400D03*
X168285800Y-121459400D03*
%TD*%
D12*
%TO.N,/Payload_D-*%
%TO.C,J9*%
X185895800Y-75069400D03*
D13*
%TO.N,/Payload_VBUS*%
X185895800Y-77069400D03*
%TO.N,/Payload_D+*%
X187895800Y-75069400D03*
%TO.N,GND*%
X187895800Y-77069400D03*
%TD*%
D21*
%TO.N,GND*%
%TO.C,U16*%
X152845800Y-107619400D03*
X152845800Y-106319400D03*
X151745800Y-107619400D03*
X151745800Y-106319400D03*
%TD*%
D11*
%TO.N,FC_USBBOOT*%
%TO.C,J4*%
X134420800Y-71319400D03*
D10*
%TO.N,GND*%
X131880800Y-71319400D03*
%TD*%
D11*
%TO.N,Dir_Chrg_In*%
%TO.C,J2*%
X140170800Y-69519400D03*
D10*
%TO.N,GND*%
X142710800Y-69519400D03*
%TD*%
D22*
%TO.N,GND*%
%TO.C,J12*%
X193245800Y-65619400D03*
D23*
X193245800Y-69799400D03*
D22*
X201885800Y-65619400D03*
D23*
X201885800Y-69799400D03*
%TD*%
D22*
%TO.N,GND*%
%TO.C,J8*%
X182075800Y-65619400D03*
D23*
X182075800Y-69799400D03*
D22*
X190715800Y-65619400D03*
D23*
X190715800Y-69799400D03*
%TD*%
D24*
%TO.N,GND*%
X200745800Y-72119400D03*
X138745800Y-121119400D03*
X193245800Y-71619400D03*
X167245800Y-127119400D03*
X167245800Y-123119400D03*
X191595800Y-72369400D03*
X130347958Y-123222637D03*
X156245800Y-105119400D03*
X167245800Y-126119400D03*
X128845800Y-135719400D03*
X164445800Y-125519400D03*
X167245800Y-124119400D03*
X167395800Y-129169400D03*
X147745800Y-104619400D03*
X164445800Y-123519400D03*
X117945800Y-138629545D03*
X174045800Y-105019400D03*
X164445800Y-124519400D03*
X164545800Y-122519400D03*
X163895800Y-129119400D03*
D25*
X164557800Y-131307400D03*
D24*
X164445800Y-126519400D03*
X167245800Y-125119400D03*
X146045800Y-112219400D03*
X164445800Y-127419400D03*
X140645800Y-122719400D03*
X118145800Y-134819400D03*
X181645800Y-72269400D03*
X164971175Y-128319400D03*
X166545800Y-128419400D03*
X149970800Y-113119400D03*
%TO.N,+3V3*%
X146245800Y-106619400D03*
X140345800Y-124619400D03*
X150245800Y-112119400D03*
%TO.N,2.8V*%
X124045800Y-136819400D03*
X125945800Y-126619400D03*
X118106730Y-136731536D03*
X125745800Y-122619400D03*
X133845800Y-123619400D03*
X129820800Y-126607053D03*
%TO.N,/SCL_3V*%
X122945800Y-138304400D03*
%TO.N,/GPIO*%
X121535800Y-134409400D03*
%TO.N,/XSHUT_2.8V*%
X122625802Y-136719400D03*
%TO.N,/SDA_3V*%
X123845800Y-139119400D03*
%TO.N,SDA0*%
X158145800Y-107119400D03*
X154245800Y-108619400D03*
X132845800Y-126291732D03*
X130545800Y-125867037D03*
%TO.N,SCL0*%
X158758453Y-108132053D03*
X156733147Y-108106747D03*
%TO.N,Net-(J12-CC2)*%
X199245800Y-72119400D03*
%TO.N,Net-(J12-CC1)*%
X196229798Y-69447585D03*
%TO.N,Net-(J8-CC1)*%
X184895800Y-72369400D03*
%TO.N,Net-(J8-CC2)*%
X188145800Y-72269400D03*
D25*
%TO.N,/Payload_D+*%
X187206800Y-69519400D03*
X186145800Y-69519400D03*
D24*
%TO.N,WDT_DISABLE*%
X162645800Y-104119400D03*
%TD*%
%TA.AperFunction,Conductor*%
%TO.N,+3V3*%
G36*
X140597395Y-62419907D02*
G01*
X140598454Y-62419906D01*
X140598457Y-62419908D01*
X151844973Y-62417700D01*
X204719700Y-62417700D01*
X204787821Y-62437702D01*
X204834314Y-62491358D01*
X204845700Y-62543700D01*
X204845700Y-72757082D01*
X204876223Y-72830773D01*
X204876226Y-72830777D01*
X204932622Y-72887173D01*
X204932626Y-72887176D01*
X205006318Y-72917700D01*
X215219700Y-72917700D01*
X215287821Y-72937702D01*
X215334314Y-72991358D01*
X215345700Y-73043700D01*
X215345700Y-151390700D01*
X215325698Y-151458821D01*
X215272042Y-151505314D01*
X215219700Y-151516700D01*
X205006318Y-151516700D01*
X204932626Y-151547223D01*
X204932622Y-151547226D01*
X204876226Y-151603622D01*
X204876223Y-151603626D01*
X204845700Y-151677317D01*
X204845700Y-161890700D01*
X204825698Y-161958821D01*
X204772042Y-162005314D01*
X204719700Y-162016700D01*
X126372700Y-162016700D01*
X126304579Y-161996698D01*
X126258086Y-161943042D01*
X126246700Y-161890700D01*
X126246700Y-151677317D01*
X126216176Y-151603626D01*
X126216173Y-151603622D01*
X126159777Y-151547226D01*
X126159773Y-151547223D01*
X126086082Y-151516700D01*
X115872700Y-151516700D01*
X115804579Y-151496698D01*
X115758086Y-151443042D01*
X115746700Y-151390700D01*
X115746700Y-151009212D01*
X162627300Y-151009212D01*
X162627300Y-151369587D01*
X162667648Y-151727694D01*
X162674356Y-151757082D01*
X162747838Y-152079026D01*
X162747840Y-152079032D01*
X162747839Y-152079032D01*
X162866854Y-152419157D01*
X162866862Y-152419177D01*
X163023222Y-152743860D01*
X163023223Y-152743863D01*
X163214943Y-153048984D01*
X163214947Y-153048991D01*
X163439639Y-153330745D01*
X163694454Y-153585560D01*
X163976208Y-153810252D01*
X163976215Y-153810256D01*
X164281336Y-154001976D01*
X164281338Y-154001976D01*
X164281342Y-154001979D01*
X164606025Y-154158339D01*
X164606040Y-154158344D01*
X164606042Y-154158345D01*
X164946167Y-154277360D01*
X164946170Y-154277360D01*
X164946174Y-154277362D01*
X165297505Y-154357551D01*
X165297506Y-154357551D01*
X165297509Y-154357552D01*
X165508707Y-154381347D01*
X165655612Y-154397900D01*
X165655614Y-154397900D01*
X166015988Y-154397900D01*
X166106930Y-154387653D01*
X166374091Y-154357552D01*
X166725426Y-154277362D01*
X167065575Y-154158339D01*
X167390258Y-154001979D01*
X167695393Y-153810251D01*
X167977142Y-153585563D01*
X168231963Y-153330742D01*
X168456651Y-153048993D01*
X168648379Y-152743858D01*
X168804739Y-152419175D01*
X168923762Y-152079026D01*
X169003952Y-151727691D01*
X169044300Y-151369586D01*
X169044300Y-151009214D01*
X169003952Y-150651109D01*
X168923762Y-150299774D01*
X168804739Y-149959625D01*
X168648379Y-149634942D01*
X168648376Y-149634938D01*
X168648376Y-149634936D01*
X168456656Y-149329815D01*
X168456652Y-149329808D01*
X168231960Y-149048054D01*
X167977145Y-148793239D01*
X167695391Y-148568547D01*
X167695384Y-148568543D01*
X167390263Y-148376823D01*
X167390260Y-148376822D01*
X167065577Y-148220462D01*
X167065557Y-148220454D01*
X166725432Y-148101439D01*
X166374093Y-148021248D01*
X166374096Y-148021248D01*
X166015988Y-147980900D01*
X166015986Y-147980900D01*
X165655614Y-147980900D01*
X165655612Y-147980900D01*
X165297505Y-148021248D01*
X164946167Y-148101439D01*
X164606042Y-148220454D01*
X164606022Y-148220462D01*
X164281339Y-148376822D01*
X164281336Y-148376823D01*
X163976215Y-148568543D01*
X163976208Y-148568547D01*
X163694454Y-148793239D01*
X163439639Y-149048054D01*
X163214947Y-149329808D01*
X163214943Y-149329815D01*
X163023223Y-149634936D01*
X163023222Y-149634939D01*
X162866862Y-149959622D01*
X162866854Y-149959642D01*
X162747839Y-150299767D01*
X162667648Y-150651105D01*
X162627300Y-151009212D01*
X115746700Y-151009212D01*
X115746700Y-138540063D01*
X117037300Y-138540063D01*
X117037300Y-138540066D01*
X117037300Y-138719024D01*
X117072213Y-138894545D01*
X117140698Y-139059881D01*
X117240122Y-139208680D01*
X117366665Y-139335223D01*
X117515464Y-139434647D01*
X117680800Y-139503132D01*
X117856321Y-139538045D01*
X117856322Y-139538045D01*
X118035278Y-139538045D01*
X118035279Y-139538045D01*
X118210800Y-139503132D01*
X118376136Y-139434647D01*
X118524935Y-139335223D01*
X118651478Y-139208680D01*
X118750902Y-139059881D01*
X118819387Y-138894545D01*
X118854300Y-138719024D01*
X118854300Y-138540066D01*
X118819387Y-138364545D01*
X118750902Y-138199209D01*
X118651478Y-138050410D01*
X118524935Y-137923867D01*
X118376136Y-137824443D01*
X118376135Y-137824442D01*
X118370989Y-137821004D01*
X118371973Y-137819529D01*
X118327332Y-137775668D01*
X118311630Y-137706430D01*
X118335853Y-137639694D01*
X118389165Y-137597901D01*
X118537066Y-137536638D01*
X118685865Y-137437214D01*
X118812408Y-137310671D01*
X118911832Y-137161872D01*
X118980317Y-136996536D01*
X119015230Y-136821015D01*
X119015230Y-136642057D01*
X119012815Y-136629918D01*
X121717302Y-136629918D01*
X121717302Y-136808881D01*
X121719716Y-136821015D01*
X121752215Y-136984400D01*
X121820700Y-137149736D01*
X121920124Y-137298535D01*
X122046667Y-137425078D01*
X122195466Y-137524502D01*
X122200927Y-137527421D01*
X122200274Y-137528641D01*
X122250073Y-137568766D01*
X122272497Y-137636128D01*
X122254944Y-137704920D01*
X122243980Y-137720564D01*
X122240120Y-137725267D01*
X122140699Y-137874062D01*
X122072214Y-138039396D01*
X122037300Y-138214918D01*
X122037300Y-138214921D01*
X122037300Y-138393879D01*
X122072213Y-138569400D01*
X122140698Y-138734736D01*
X122240122Y-138883535D01*
X122366665Y-139010078D01*
X122515464Y-139109502D01*
X122652428Y-139166235D01*
X122680797Y-139177986D01*
X122680798Y-139177986D01*
X122680800Y-139177987D01*
X122856321Y-139212900D01*
X122858895Y-139213412D01*
X122921805Y-139246320D01*
X122956937Y-139308015D01*
X122957893Y-139312409D01*
X122972213Y-139384400D01*
X123040698Y-139549736D01*
X123140122Y-139698535D01*
X123266665Y-139825078D01*
X123415464Y-139924502D01*
X123580800Y-139992987D01*
X123756321Y-140027900D01*
X123756322Y-140027900D01*
X123935278Y-140027900D01*
X123935279Y-140027900D01*
X124110800Y-139992987D01*
X124276136Y-139924502D01*
X124424935Y-139825078D01*
X124551478Y-139698535D01*
X124650902Y-139549736D01*
X124719387Y-139384400D01*
X124754300Y-139208879D01*
X124754300Y-139029921D01*
X124719387Y-138854400D01*
X124650902Y-138689064D01*
X124551478Y-138540265D01*
X124424935Y-138413722D01*
X124276136Y-138314298D01*
X124110800Y-138245813D01*
X124022042Y-138228158D01*
X123932703Y-138210387D01*
X123869794Y-138177479D01*
X123834662Y-138115784D01*
X123833706Y-138111389D01*
X123819387Y-138039400D01*
X123819385Y-138039397D01*
X123819385Y-138039393D01*
X123756688Y-137888033D01*
X123749098Y-137817444D01*
X123780876Y-137753956D01*
X123841934Y-137717728D01*
X123897676Y-137716235D01*
X123956321Y-137727900D01*
X123956322Y-137727900D01*
X124135278Y-137727900D01*
X124135279Y-137727900D01*
X124310800Y-137692987D01*
X124476136Y-137624502D01*
X124624935Y-137525078D01*
X124751478Y-137398535D01*
X124850902Y-137249736D01*
X124919387Y-137084400D01*
X124954300Y-136908879D01*
X124954300Y-136729921D01*
X124919387Y-136554400D01*
X124850902Y-136389064D01*
X124751478Y-136240265D01*
X124624935Y-136113722D01*
X124476136Y-136014298D01*
X124359229Y-135965873D01*
X124310803Y-135945814D01*
X124310801Y-135945813D01*
X124310800Y-135945813D01*
X124222445Y-135928238D01*
X124135281Y-135910900D01*
X124135279Y-135910900D01*
X123956321Y-135910900D01*
X123956318Y-135910900D01*
X123825571Y-135936907D01*
X123780800Y-135945813D01*
X123780799Y-135945813D01*
X123780796Y-135945814D01*
X123687636Y-135984403D01*
X123616860Y-136013720D01*
X123615462Y-136014299D01*
X123466654Y-136113729D01*
X123466092Y-136114191D01*
X123465740Y-136114340D01*
X123461519Y-136117161D01*
X123460983Y-136116359D01*
X123400739Y-136141930D01*
X123330763Y-136129933D01*
X123297085Y-136105870D01*
X123204937Y-136013722D01*
X123056138Y-135914298D01*
X122920101Y-135857949D01*
X122890805Y-135845814D01*
X122890803Y-135845813D01*
X122890802Y-135845813D01*
X122802447Y-135828238D01*
X122715283Y-135810900D01*
X122715281Y-135810900D01*
X122536323Y-135810900D01*
X122536320Y-135810900D01*
X122431899Y-135831671D01*
X122360802Y-135845813D01*
X122360801Y-135845813D01*
X122360798Y-135845814D01*
X122230064Y-135899967D01*
X122203670Y-135910900D01*
X122195464Y-135914299D01*
X122046671Y-136013719D01*
X122046664Y-136013724D01*
X121920126Y-136140262D01*
X121920121Y-136140269D01*
X121820701Y-136289062D01*
X121752216Y-136454396D01*
X121717302Y-136629918D01*
X119012815Y-136629918D01*
X118980317Y-136466536D01*
X118911832Y-136301200D01*
X118812408Y-136152401D01*
X118685865Y-136025858D01*
X118610460Y-135975474D01*
X118537065Y-135926433D01*
X118473172Y-135899967D01*
X118417892Y-135855418D01*
X118395472Y-135788054D01*
X118413031Y-135719263D01*
X118464994Y-135670886D01*
X118473159Y-135667156D01*
X118563060Y-135629918D01*
X127937300Y-135629918D01*
X127937300Y-135808881D01*
X127972214Y-135984403D01*
X127984597Y-136014298D01*
X128040698Y-136149736D01*
X128140122Y-136298535D01*
X128266665Y-136425078D01*
X128415464Y-136524502D01*
X128580800Y-136592987D01*
X128756321Y-136627900D01*
X128756322Y-136627900D01*
X128935278Y-136627900D01*
X128935279Y-136627900D01*
X129110800Y-136592987D01*
X129276136Y-136524502D01*
X129424935Y-136425078D01*
X129551478Y-136298535D01*
X129650902Y-136149736D01*
X129719387Y-135984400D01*
X129754300Y-135808879D01*
X129754300Y-135629921D01*
X129719387Y-135454400D01*
X129650902Y-135289064D01*
X129551478Y-135140265D01*
X129424935Y-135013722D01*
X129276136Y-134914298D01*
X129159229Y-134865873D01*
X129110803Y-134845814D01*
X129110801Y-134845813D01*
X129110800Y-134845813D01*
X129022445Y-134828238D01*
X128935281Y-134810900D01*
X128935279Y-134810900D01*
X128756321Y-134810900D01*
X128756318Y-134810900D01*
X128625571Y-134836907D01*
X128580800Y-134845813D01*
X128580799Y-134845813D01*
X128580796Y-134845814D01*
X128449702Y-134900116D01*
X128428552Y-134908877D01*
X128415462Y-134914299D01*
X128266669Y-135013719D01*
X128266662Y-135013724D01*
X128140124Y-135140262D01*
X128140119Y-135140269D01*
X128040699Y-135289062D01*
X127972214Y-135454396D01*
X127937300Y-135629918D01*
X118563060Y-135629918D01*
X118576136Y-135624502D01*
X118724935Y-135525078D01*
X118851478Y-135398535D01*
X118950902Y-135249736D01*
X119019387Y-135084400D01*
X119054300Y-134908879D01*
X119054300Y-134729921D01*
X119019387Y-134554400D01*
X118950902Y-134389064D01*
X118904700Y-134319918D01*
X120627300Y-134319918D01*
X120627300Y-134319921D01*
X120627300Y-134498879D01*
X120662213Y-134674400D01*
X120730698Y-134839736D01*
X120830122Y-134988535D01*
X120956665Y-135115078D01*
X121105464Y-135214502D01*
X121270800Y-135282987D01*
X121446321Y-135317900D01*
X121446322Y-135317900D01*
X121625278Y-135317900D01*
X121625279Y-135317900D01*
X121800800Y-135282987D01*
X121966136Y-135214502D01*
X122114935Y-135115078D01*
X122241478Y-134988535D01*
X122340902Y-134839736D01*
X122409387Y-134674400D01*
X122444300Y-134498879D01*
X122444300Y-134319921D01*
X122409387Y-134144400D01*
X122340902Y-133979064D01*
X122241478Y-133830265D01*
X122114935Y-133703722D01*
X121966136Y-133604298D01*
X121849229Y-133555873D01*
X121800803Y-133535814D01*
X121800801Y-133535813D01*
X121800800Y-133535813D01*
X121712445Y-133518238D01*
X121625281Y-133500900D01*
X121625279Y-133500900D01*
X121446321Y-133500900D01*
X121446318Y-133500900D01*
X121315571Y-133526907D01*
X121270800Y-133535813D01*
X121270799Y-133535813D01*
X121270796Y-133535814D01*
X121105462Y-133604299D01*
X120956669Y-133703719D01*
X120956662Y-133703724D01*
X120830124Y-133830262D01*
X120830119Y-133830269D01*
X120730699Y-133979062D01*
X120662214Y-134144396D01*
X120627300Y-134319918D01*
X118904700Y-134319918D01*
X118851478Y-134240265D01*
X118724935Y-134113722D01*
X118576136Y-134014298D01*
X118459229Y-133965873D01*
X118410803Y-133945814D01*
X118410801Y-133945813D01*
X118410800Y-133945813D01*
X118322445Y-133928238D01*
X118235281Y-133910900D01*
X118235279Y-133910900D01*
X118056321Y-133910900D01*
X118056318Y-133910900D01*
X117925571Y-133936907D01*
X117880800Y-133945813D01*
X117880799Y-133945813D01*
X117880796Y-133945814D01*
X117715462Y-134014299D01*
X117566669Y-134113719D01*
X117566662Y-134113724D01*
X117440124Y-134240262D01*
X117440119Y-134240269D01*
X117340699Y-134389062D01*
X117272214Y-134554396D01*
X117237300Y-134729918D01*
X117237300Y-134729921D01*
X117237300Y-134908879D01*
X117272213Y-135084400D01*
X117340698Y-135249736D01*
X117440122Y-135398535D01*
X117566665Y-135525078D01*
X117715463Y-135624501D01*
X117715464Y-135624502D01*
X117715468Y-135624504D01*
X117779356Y-135650968D01*
X117834637Y-135695516D01*
X117857057Y-135762880D01*
X117839498Y-135831671D01*
X117787536Y-135880049D01*
X117779356Y-135883784D01*
X117676399Y-135926431D01*
X117676394Y-135926433D01*
X117527599Y-136025855D01*
X117527592Y-136025860D01*
X117401054Y-136152398D01*
X117401049Y-136152405D01*
X117301629Y-136301198D01*
X117233144Y-136466532D01*
X117198230Y-136642054D01*
X117198230Y-136642057D01*
X117198230Y-136821015D01*
X117233143Y-136996536D01*
X117301628Y-137161872D01*
X117401052Y-137310671D01*
X117527595Y-137437214D01*
X117620511Y-137499298D01*
X117681541Y-137540077D01*
X117680554Y-137541553D01*
X117725190Y-137585400D01*
X117740900Y-137654637D01*
X117716684Y-137721376D01*
X117663365Y-137763178D01*
X117515469Y-137824440D01*
X117515464Y-137824442D01*
X117366669Y-137923864D01*
X117366662Y-137923869D01*
X117240124Y-138050407D01*
X117240119Y-138050414D01*
X117196441Y-138115784D01*
X117140698Y-138199209D01*
X117134191Y-138214918D01*
X117072214Y-138364541D01*
X117037300Y-138540063D01*
X115746700Y-138540063D01*
X115746700Y-126529918D01*
X125037300Y-126529918D01*
X125037300Y-126708881D01*
X125047333Y-126759319D01*
X125072213Y-126884400D01*
X125140698Y-127049736D01*
X125240122Y-127198535D01*
X125366665Y-127325078D01*
X125515464Y-127424502D01*
X125680800Y-127492987D01*
X125856321Y-127527900D01*
X125856322Y-127527900D01*
X126035278Y-127527900D01*
X126035279Y-127527900D01*
X126210800Y-127492987D01*
X126376136Y-127424502D01*
X126524935Y-127325078D01*
X126651478Y-127198535D01*
X126750902Y-127049736D01*
X126819387Y-126884400D01*
X126854300Y-126708879D01*
X126854300Y-126529921D01*
X126854299Y-126529919D01*
X126854299Y-126529914D01*
X126851844Y-126517571D01*
X128912300Y-126517571D01*
X128912300Y-126696534D01*
X128921071Y-126740626D01*
X128946977Y-126870869D01*
X128947214Y-126872056D01*
X128967273Y-126920482D01*
X129015698Y-127037389D01*
X129115122Y-127186188D01*
X129241665Y-127312731D01*
X129390464Y-127412155D01*
X129555800Y-127480640D01*
X129731321Y-127515553D01*
X129731322Y-127515553D01*
X129910278Y-127515553D01*
X129910279Y-127515553D01*
X130085800Y-127480640D01*
X130251136Y-127412155D01*
X130399935Y-127312731D01*
X130526478Y-127186188D01*
X130625902Y-127037389D01*
X130694387Y-126872053D01*
X130694388Y-126872047D01*
X130694389Y-126872047D01*
X130700386Y-126841895D01*
X130733292Y-126778985D01*
X130794986Y-126743852D01*
X130799386Y-126742895D01*
X130810794Y-126740626D01*
X130810794Y-126740625D01*
X130810800Y-126740624D01*
X130976136Y-126672139D01*
X131124935Y-126572715D01*
X131251478Y-126446172D01*
X131350902Y-126297373D01*
X131390304Y-126202250D01*
X131937300Y-126202250D01*
X131937300Y-126202253D01*
X131937300Y-126381211D01*
X131972213Y-126556732D01*
X132040698Y-126722068D01*
X132140122Y-126870867D01*
X132266665Y-126997410D01*
X132415464Y-127096834D01*
X132580800Y-127165319D01*
X132756321Y-127200232D01*
X132759800Y-127200232D01*
X132761554Y-127200747D01*
X132762477Y-127200838D01*
X132762459Y-127201012D01*
X132827921Y-127220234D01*
X132874414Y-127273890D01*
X132885800Y-127326232D01*
X132885800Y-145539400D01*
X197915800Y-145539400D01*
X197915800Y-126869400D01*
X168209790Y-126869400D01*
X168191322Y-126863977D01*
X168172077Y-126863624D01*
X168157962Y-126854182D01*
X168141669Y-126849398D01*
X168129063Y-126834850D01*
X168113066Y-126824149D01*
X168097498Y-126798421D01*
X168095176Y-126795742D01*
X168094234Y-126793628D01*
X168093812Y-126792659D01*
X168050902Y-126689064D01*
X168044841Y-126679994D01*
X168040336Y-126669628D01*
X168037277Y-126645177D01*
X168029912Y-126621662D01*
X168032950Y-126610580D01*
X168031525Y-126599180D01*
X168042170Y-126576959D01*
X168048119Y-126555265D01*
X168047985Y-126555193D01*
X168048302Y-126554599D01*
X168048688Y-126553193D01*
X168050863Y-126549807D01*
X168050900Y-126549739D01*
X168050900Y-126549738D01*
X168050902Y-126549736D01*
X168119387Y-126384400D01*
X168154300Y-126208879D01*
X168154300Y-126029921D01*
X168119387Y-125854400D01*
X168050902Y-125689064D01*
X168050901Y-125689062D01*
X168050900Y-125689060D01*
X168047985Y-125683607D01*
X168049124Y-125682997D01*
X168029912Y-125621662D01*
X168048119Y-125555265D01*
X168047985Y-125555193D01*
X168048302Y-125554599D01*
X168048688Y-125553193D01*
X168050863Y-125549807D01*
X168050900Y-125549739D01*
X168050900Y-125549738D01*
X168050902Y-125549736D01*
X168119387Y-125384400D01*
X168154300Y-125208879D01*
X168154300Y-125029921D01*
X168119387Y-124854400D01*
X168050902Y-124689064D01*
X168050901Y-124689062D01*
X168050900Y-124689060D01*
X168047985Y-124683607D01*
X168049124Y-124682997D01*
X168029912Y-124621662D01*
X168048119Y-124555265D01*
X168047985Y-124555193D01*
X168048302Y-124554599D01*
X168048688Y-124553193D01*
X168050863Y-124549807D01*
X168050900Y-124549739D01*
X168050900Y-124549738D01*
X168050902Y-124549736D01*
X168119387Y-124384400D01*
X168154300Y-124208879D01*
X168154300Y-124029921D01*
X168119387Y-123854400D01*
X168050902Y-123689064D01*
X168050901Y-123689062D01*
X168050900Y-123689060D01*
X168047985Y-123683607D01*
X168049124Y-123682997D01*
X168029912Y-123621662D01*
X168048119Y-123555265D01*
X168047985Y-123555193D01*
X168048302Y-123554599D01*
X168048688Y-123553193D01*
X168050863Y-123549807D01*
X168050900Y-123549739D01*
X168050900Y-123549738D01*
X168050902Y-123549736D01*
X168119387Y-123384400D01*
X168154300Y-123208879D01*
X168154300Y-123208878D01*
X168154301Y-123208873D01*
X168154530Y-123206551D01*
X168154989Y-123205412D01*
X168155508Y-123202807D01*
X168156002Y-123202905D01*
X168181112Y-123140719D01*
X168239066Y-123099708D01*
X168279923Y-123092900D01*
X168414356Y-123092900D01*
X168414359Y-123092900D01*
X168668312Y-123052678D01*
X168912846Y-122973224D01*
X169141941Y-122856494D01*
X169349954Y-122705364D01*
X169531764Y-122523554D01*
X169682894Y-122315541D01*
X169799624Y-122086446D01*
X169879078Y-121841912D01*
X169919300Y-121587959D01*
X169919300Y-121330841D01*
X169879078Y-121076888D01*
X169799624Y-120832354D01*
X169682894Y-120603259D01*
X169531764Y-120395246D01*
X169531761Y-120395243D01*
X169531759Y-120395240D01*
X169349959Y-120213440D01*
X169349956Y-120213438D01*
X169349954Y-120213436D01*
X169141941Y-120062306D01*
X168912846Y-119945576D01*
X168912843Y-119945575D01*
X168912841Y-119945574D01*
X168668317Y-119866123D01*
X168668313Y-119866122D01*
X168668312Y-119866122D01*
X168414359Y-119825900D01*
X168157241Y-119825900D01*
X167903288Y-119866122D01*
X167903282Y-119866123D01*
X167658758Y-119945574D01*
X167658752Y-119945577D01*
X167429655Y-120062308D01*
X167221643Y-120213438D01*
X167221640Y-120213440D01*
X167039840Y-120395240D01*
X167039838Y-120395243D01*
X166888708Y-120603255D01*
X166771977Y-120832352D01*
X166771974Y-120832358D01*
X166692523Y-121076882D01*
X166692522Y-121076887D01*
X166692522Y-121076888D01*
X166652300Y-121330841D01*
X166652300Y-121587959D01*
X166689856Y-121825078D01*
X166692523Y-121841917D01*
X166771974Y-122086441D01*
X166771979Y-122086453D01*
X166818799Y-122178342D01*
X166831903Y-122248118D01*
X166805203Y-122313903D01*
X166776534Y-122340309D01*
X166666669Y-122413718D01*
X166666662Y-122413724D01*
X166540124Y-122540262D01*
X166540119Y-122540269D01*
X166471139Y-122643506D01*
X166440698Y-122689064D01*
X166431653Y-122710900D01*
X166372214Y-122854396D01*
X166372213Y-122854399D01*
X166372213Y-122854400D01*
X166366246Y-122884400D01*
X166337300Y-123029918D01*
X166337300Y-123208881D01*
X166372214Y-123384403D01*
X166389063Y-123425080D01*
X166440698Y-123549736D01*
X166440699Y-123549738D01*
X166440701Y-123549742D01*
X166443616Y-123555196D01*
X166442481Y-123555802D01*
X166461686Y-123617168D01*
X166443471Y-123683526D01*
X166443616Y-123683604D01*
X166443276Y-123684239D01*
X166442894Y-123685632D01*
X166440740Y-123688984D01*
X166440701Y-123689057D01*
X166372214Y-123854396D01*
X166337300Y-124029918D01*
X166337300Y-124208881D01*
X166346612Y-124255696D01*
X166363467Y-124340433D01*
X166372214Y-124384403D01*
X166375652Y-124392703D01*
X166440698Y-124549736D01*
X166440699Y-124549738D01*
X166440701Y-124549742D01*
X166443616Y-124555196D01*
X166442481Y-124555802D01*
X166461686Y-124617168D01*
X166443471Y-124683526D01*
X166443616Y-124683604D01*
X166443276Y-124684239D01*
X166442894Y-124685632D01*
X166440740Y-124688984D01*
X166440701Y-124689057D01*
X166372214Y-124854396D01*
X166337300Y-125029918D01*
X166337300Y-125208881D01*
X166353019Y-125287906D01*
X166372213Y-125384400D01*
X166440698Y-125549736D01*
X166440699Y-125549738D01*
X166440701Y-125549742D01*
X166443616Y-125555196D01*
X166442481Y-125555802D01*
X166461686Y-125617168D01*
X166443471Y-125683526D01*
X166443616Y-125683604D01*
X166443276Y-125684239D01*
X166442894Y-125685632D01*
X166440740Y-125688984D01*
X166440701Y-125689057D01*
X166372214Y-125854396D01*
X166372213Y-125854399D01*
X166372213Y-125854400D01*
X166363307Y-125899171D01*
X166337300Y-126029918D01*
X166337300Y-126208881D01*
X166354638Y-126296045D01*
X166372213Y-126384400D01*
X166440698Y-126549736D01*
X166440699Y-126549738D01*
X166440701Y-126549742D01*
X166443616Y-126555196D01*
X166442481Y-126555802D01*
X166461686Y-126617168D01*
X166451263Y-126669626D01*
X166446753Y-126680001D01*
X166440698Y-126689064D01*
X166397784Y-126792665D01*
X166397367Y-126793626D01*
X166375287Y-126820074D01*
X166353671Y-126846899D01*
X166352595Y-126847257D01*
X166351868Y-126848128D01*
X166318982Y-126858444D01*
X166286307Y-126869320D01*
X166284195Y-126869357D01*
X166284127Y-126869379D01*
X166284057Y-126869360D01*
X166281810Y-126869400D01*
X165456011Y-126869400D01*
X165387890Y-126849398D01*
X165341397Y-126795742D01*
X165331293Y-126725468D01*
X165332432Y-126718819D01*
X165354299Y-126608884D01*
X165354300Y-126608877D01*
X165354300Y-126429922D01*
X165354299Y-126429918D01*
X165319387Y-126254400D01*
X165250902Y-126089064D01*
X165250901Y-126089062D01*
X165250900Y-126089060D01*
X165247985Y-126083607D01*
X165249124Y-126082997D01*
X165229912Y-126021662D01*
X165248119Y-125955265D01*
X165247985Y-125955193D01*
X165248302Y-125954599D01*
X165248688Y-125953193D01*
X165250863Y-125949807D01*
X165250900Y-125949739D01*
X165250900Y-125949738D01*
X165250902Y-125949736D01*
X165319387Y-125784400D01*
X165354300Y-125608879D01*
X165354300Y-125429921D01*
X165319387Y-125254400D01*
X165250902Y-125089064D01*
X165250901Y-125089062D01*
X165250900Y-125089060D01*
X165247985Y-125083607D01*
X165249124Y-125082997D01*
X165229912Y-125021662D01*
X165248119Y-124955265D01*
X165247985Y-124955193D01*
X165248302Y-124954599D01*
X165248688Y-124953193D01*
X165250863Y-124949807D01*
X165250900Y-124949739D01*
X165250900Y-124949738D01*
X165250902Y-124949736D01*
X165319387Y-124784400D01*
X165354300Y-124608879D01*
X165354300Y-124429921D01*
X165319387Y-124254400D01*
X165250902Y-124089064D01*
X165250901Y-124089062D01*
X165250900Y-124089060D01*
X165247985Y-124083607D01*
X165249124Y-124082997D01*
X165229912Y-124021662D01*
X165248119Y-123955265D01*
X165247985Y-123955193D01*
X165248302Y-123954599D01*
X165248688Y-123953193D01*
X165250863Y-123949807D01*
X165250900Y-123949739D01*
X165250900Y-123949738D01*
X165250902Y-123949736D01*
X165319387Y-123784400D01*
X165354300Y-123608879D01*
X165354300Y-123429921D01*
X165319387Y-123254400D01*
X165279317Y-123157663D01*
X165271728Y-123087074D01*
X165290961Y-123039443D01*
X165350902Y-122949736D01*
X165419387Y-122784400D01*
X165454300Y-122608879D01*
X165454300Y-122429921D01*
X165419387Y-122254400D01*
X165350902Y-122089064D01*
X165251478Y-121940265D01*
X165124935Y-121813722D01*
X164976136Y-121714298D01*
X164967933Y-121710900D01*
X164917080Y-121689835D01*
X164861800Y-121645286D01*
X164839380Y-121577922D01*
X164839300Y-121573427D01*
X164839300Y-121330844D01*
X164839300Y-121330841D01*
X164799078Y-121076888D01*
X164719624Y-120832354D01*
X164602894Y-120603259D01*
X164451764Y-120395246D01*
X164451761Y-120395243D01*
X164451759Y-120395240D01*
X164269959Y-120213440D01*
X164269956Y-120213438D01*
X164269954Y-120213436D01*
X164061941Y-120062306D01*
X163832846Y-119945576D01*
X163832843Y-119945575D01*
X163832841Y-119945574D01*
X163588317Y-119866123D01*
X163588313Y-119866122D01*
X163588312Y-119866122D01*
X163334359Y-119825900D01*
X163077241Y-119825900D01*
X162823288Y-119866122D01*
X162823282Y-119866123D01*
X162578758Y-119945574D01*
X162578752Y-119945577D01*
X162349655Y-120062308D01*
X162141643Y-120213438D01*
X162141640Y-120213440D01*
X161959840Y-120395240D01*
X161959838Y-120395243D01*
X161808708Y-120603255D01*
X161691977Y-120832352D01*
X161691974Y-120832358D01*
X161612523Y-121076882D01*
X161612522Y-121076887D01*
X161612522Y-121076888D01*
X161572300Y-121330841D01*
X161572300Y-121587959D01*
X161609856Y-121825078D01*
X161612523Y-121841917D01*
X161676972Y-122040269D01*
X161691976Y-122086446D01*
X161808706Y-122315541D01*
X161959836Y-122523554D01*
X161959838Y-122523556D01*
X161959840Y-122523559D01*
X162141640Y-122705359D01*
X162141643Y-122705361D01*
X162141646Y-122705364D01*
X162349659Y-122856494D01*
X162578754Y-122973224D01*
X162823288Y-123052678D01*
X163077241Y-123092900D01*
X163077244Y-123092900D01*
X163334356Y-123092900D01*
X163334359Y-123092900D01*
X163438287Y-123076439D01*
X163508696Y-123085539D01*
X163563010Y-123131260D01*
X163583983Y-123199089D01*
X163574406Y-123249103D01*
X163572214Y-123254392D01*
X163537300Y-123429918D01*
X163537300Y-123608881D01*
X163541083Y-123627899D01*
X163569568Y-123771104D01*
X163572214Y-123784403D01*
X163588354Y-123823367D01*
X163640698Y-123949736D01*
X163640699Y-123949738D01*
X163640701Y-123949742D01*
X163643616Y-123955196D01*
X163642481Y-123955802D01*
X163661686Y-124017168D01*
X163643471Y-124083526D01*
X163643616Y-124083604D01*
X163643276Y-124084239D01*
X163642894Y-124085632D01*
X163640740Y-124088984D01*
X163640701Y-124089057D01*
X163572214Y-124254396D01*
X163537300Y-124429918D01*
X163537300Y-124608881D01*
X163552043Y-124682997D01*
X163572213Y-124784400D01*
X163640698Y-124949736D01*
X163640699Y-124949738D01*
X163640701Y-124949742D01*
X163643616Y-124955196D01*
X163642481Y-124955802D01*
X163661686Y-125017168D01*
X163643471Y-125083526D01*
X163643616Y-125083604D01*
X163643276Y-125084239D01*
X163642894Y-125085632D01*
X163640740Y-125088984D01*
X163640701Y-125089057D01*
X163572214Y-125254396D01*
X163537300Y-125429918D01*
X163537300Y-125608881D01*
X163541939Y-125632201D01*
X163572213Y-125784400D01*
X163640698Y-125949736D01*
X163640699Y-125949738D01*
X163640701Y-125949742D01*
X163643616Y-125955196D01*
X163642481Y-125955802D01*
X163661686Y-126017168D01*
X163643471Y-126083526D01*
X163643616Y-126083604D01*
X163643276Y-126084239D01*
X163642894Y-126085632D01*
X163640740Y-126088984D01*
X163640701Y-126089057D01*
X163572214Y-126254396D01*
X163537300Y-126429918D01*
X163537300Y-126608884D01*
X163559168Y-126718819D01*
X163552840Y-126789533D01*
X163509286Y-126845600D01*
X163442333Y-126869219D01*
X163435589Y-126869400D01*
X159271216Y-126869400D01*
X159203095Y-126849398D01*
X159156602Y-126795742D01*
X159146498Y-126725468D01*
X159175992Y-126660888D01*
X159195707Y-126642532D01*
X159299061Y-126565161D01*
X159386687Y-126448107D01*
X159386687Y-126448106D01*
X159386689Y-126448104D01*
X159437789Y-126311101D01*
X159444300Y-126250538D01*
X159444300Y-124453262D01*
X159441791Y-124429921D01*
X159437790Y-124392703D01*
X159437788Y-124392695D01*
X159418295Y-124340433D01*
X159413229Y-124269617D01*
X159447254Y-124207305D01*
X159509566Y-124173280D01*
X159536350Y-124170400D01*
X160544432Y-124170400D01*
X160544438Y-124170400D01*
X160544445Y-124170399D01*
X160544449Y-124170399D01*
X160604996Y-124163890D01*
X160604999Y-124163889D01*
X160605001Y-124163889D01*
X160742004Y-124112789D01*
X160778282Y-124085632D01*
X160859061Y-124025161D01*
X160946687Y-123908107D01*
X160946687Y-123908106D01*
X160946689Y-123908104D01*
X160997789Y-123771101D01*
X161004300Y-123710538D01*
X161004300Y-121913262D01*
X161004299Y-121913250D01*
X160997790Y-121852703D01*
X160997788Y-121852695D01*
X160968724Y-121774775D01*
X160946689Y-121715696D01*
X160946688Y-121715694D01*
X160946687Y-121715692D01*
X160859061Y-121598638D01*
X160742007Y-121511012D01*
X160742002Y-121511010D01*
X160605004Y-121459911D01*
X160604996Y-121459909D01*
X160544449Y-121453400D01*
X160544438Y-121453400D01*
X158747162Y-121453400D01*
X158747150Y-121453400D01*
X158686603Y-121459909D01*
X158686595Y-121459911D01*
X158549597Y-121511010D01*
X158549592Y-121511012D01*
X158432538Y-121598638D01*
X158344912Y-121715692D01*
X158344910Y-121715697D01*
X158293811Y-121852695D01*
X158293809Y-121852703D01*
X158287300Y-121913250D01*
X158287300Y-123710549D01*
X158293809Y-123771096D01*
X158293811Y-123771104D01*
X158313305Y-123823367D01*
X158318371Y-123894183D01*
X158284346Y-123956495D01*
X158222034Y-123990520D01*
X158195250Y-123993400D01*
X157187150Y-123993400D01*
X157126603Y-123999909D01*
X157126595Y-123999911D01*
X156989597Y-124051010D01*
X156989592Y-124051012D01*
X156891309Y-124124587D01*
X156824789Y-124149398D01*
X156755415Y-124134307D01*
X156740291Y-124124587D01*
X156642007Y-124051012D01*
X156642002Y-124051010D01*
X156505004Y-123999911D01*
X156504996Y-123999909D01*
X156444449Y-123993400D01*
X156444438Y-123993400D01*
X155726350Y-123993400D01*
X155658229Y-123973398D01*
X155611736Y-123919742D01*
X155601632Y-123849468D01*
X155608295Y-123823367D01*
X155627788Y-123771104D01*
X155627790Y-123771096D01*
X155634299Y-123710549D01*
X155634300Y-123710532D01*
X155634300Y-121913267D01*
X155634299Y-121913250D01*
X155627790Y-121852703D01*
X155627788Y-121852695D01*
X155598724Y-121774775D01*
X155576689Y-121715696D01*
X155576688Y-121715694D01*
X155576687Y-121715692D01*
X155489061Y-121598638D01*
X155372007Y-121511012D01*
X155372002Y-121511010D01*
X155235004Y-121459911D01*
X155234996Y-121459909D01*
X155174449Y-121453400D01*
X155174438Y-121453400D01*
X153377162Y-121453400D01*
X153377150Y-121453400D01*
X153316603Y-121459909D01*
X153316595Y-121459911D01*
X153179597Y-121511010D01*
X153179592Y-121511012D01*
X153062538Y-121598638D01*
X152974912Y-121715692D01*
X152974910Y-121715697D01*
X152923811Y-121852695D01*
X152923809Y-121852703D01*
X152917300Y-121913250D01*
X152917300Y-123710549D01*
X152923809Y-123771096D01*
X152923811Y-123771104D01*
X152974910Y-123908102D01*
X152974912Y-123908107D01*
X153062538Y-124025161D01*
X153179592Y-124112787D01*
X153179594Y-124112788D01*
X153179596Y-124112789D01*
X153237287Y-124134307D01*
X153316595Y-124163888D01*
X153316603Y-124163890D01*
X153377150Y-124170399D01*
X153377155Y-124170399D01*
X153377162Y-124170400D01*
X154095250Y-124170400D01*
X154163371Y-124190402D01*
X154209864Y-124244058D01*
X154219968Y-124314332D01*
X154213305Y-124340433D01*
X154193811Y-124392695D01*
X154193809Y-124392703D01*
X154187300Y-124453250D01*
X154187300Y-126250549D01*
X154193809Y-126311096D01*
X154193811Y-126311104D01*
X154244910Y-126448102D01*
X154244912Y-126448107D01*
X154332538Y-126565161D01*
X154435893Y-126642532D01*
X154478440Y-126699368D01*
X154483504Y-126770184D01*
X154449479Y-126832496D01*
X154387167Y-126866521D01*
X154360384Y-126869400D01*
X133778448Y-126869400D01*
X133710327Y-126849398D01*
X133663834Y-126795742D01*
X133653730Y-126725468D01*
X133662039Y-126695181D01*
X133671584Y-126672137D01*
X133719387Y-126556732D01*
X133754300Y-126381211D01*
X133754300Y-126202253D01*
X133719387Y-126026732D01*
X133650902Y-125861396D01*
X133551478Y-125712597D01*
X133424935Y-125586054D01*
X133276136Y-125486630D01*
X133139230Y-125429921D01*
X133110803Y-125418146D01*
X133110801Y-125418145D01*
X133110800Y-125418145D01*
X133022445Y-125400570D01*
X132935281Y-125383232D01*
X132935279Y-125383232D01*
X132756321Y-125383232D01*
X132756318Y-125383232D01*
X132625571Y-125409239D01*
X132580800Y-125418145D01*
X132580799Y-125418145D01*
X132580796Y-125418146D01*
X132415462Y-125486631D01*
X132266669Y-125586051D01*
X132266662Y-125586056D01*
X132140124Y-125712594D01*
X132140119Y-125712601D01*
X132040699Y-125861394D01*
X131972214Y-126026728D01*
X131972213Y-126026731D01*
X131972213Y-126026732D01*
X131969522Y-126040262D01*
X131937300Y-126202250D01*
X131390304Y-126202250D01*
X131419387Y-126132037D01*
X131454300Y-125956516D01*
X131454300Y-125777558D01*
X131419387Y-125602037D01*
X131350902Y-125436701D01*
X131251478Y-125287902D01*
X131124935Y-125161359D01*
X130976136Y-125061935D01*
X130859229Y-125013510D01*
X130810803Y-124993451D01*
X130810801Y-124993450D01*
X130810800Y-124993450D01*
X130722445Y-124975875D01*
X130635281Y-124958537D01*
X130635279Y-124958537D01*
X130456321Y-124958537D01*
X130456318Y-124958537D01*
X130325571Y-124984544D01*
X130280800Y-124993450D01*
X130280799Y-124993450D01*
X130280796Y-124993451D01*
X130115462Y-125061936D01*
X129966669Y-125161356D01*
X129966662Y-125161361D01*
X129840124Y-125287899D01*
X129840119Y-125287906D01*
X129740699Y-125436699D01*
X129672214Y-125602034D01*
X129672212Y-125602040D01*
X129666212Y-125632201D01*
X129633303Y-125695109D01*
X129571607Y-125730240D01*
X129567220Y-125731194D01*
X129555804Y-125733465D01*
X129555800Y-125733466D01*
X129390463Y-125801951D01*
X129241669Y-125901372D01*
X129241662Y-125901377D01*
X129115124Y-126027915D01*
X129115119Y-126027922D01*
X129034990Y-126147845D01*
X129015698Y-126176717D01*
X129010584Y-126189064D01*
X128947214Y-126342049D01*
X128912300Y-126517571D01*
X126851844Y-126517571D01*
X126838026Y-126448107D01*
X126819387Y-126354400D01*
X126750902Y-126189064D01*
X126651478Y-126040265D01*
X126524935Y-125913722D01*
X126376136Y-125814298D01*
X126259229Y-125765873D01*
X126210803Y-125745814D01*
X126210801Y-125745813D01*
X126210800Y-125745813D01*
X126122445Y-125728238D01*
X126035281Y-125710900D01*
X126035279Y-125710900D01*
X125856321Y-125710900D01*
X125856318Y-125710900D01*
X125759091Y-125730240D01*
X125680800Y-125745813D01*
X125680799Y-125745813D01*
X125680796Y-125745814D01*
X125515462Y-125814299D01*
X125366669Y-125913719D01*
X125366662Y-125913724D01*
X125240124Y-126040262D01*
X125240119Y-126040269D01*
X125168240Y-126147845D01*
X125140698Y-126189064D01*
X125126516Y-126223302D01*
X125072214Y-126354396D01*
X125037300Y-126529918D01*
X115746700Y-126529918D01*
X115746700Y-122529918D01*
X124837300Y-122529918D01*
X124837300Y-122708881D01*
X124853893Y-122792299D01*
X124857191Y-122808881D01*
X124872214Y-122884403D01*
X124892273Y-122932829D01*
X124940698Y-123049736D01*
X125040122Y-123198535D01*
X125166665Y-123325078D01*
X125315464Y-123424502D01*
X125480800Y-123492987D01*
X125656321Y-123527900D01*
X125656322Y-123527900D01*
X125835278Y-123527900D01*
X125835279Y-123527900D01*
X126010800Y-123492987D01*
X126176136Y-123424502D01*
X126324935Y-123325078D01*
X126451478Y-123198535D01*
X126495163Y-123133155D01*
X129439458Y-123133155D01*
X129439458Y-123312118D01*
X129474372Y-123487640D01*
X129491886Y-123529921D01*
X129542856Y-123652973D01*
X129642280Y-123801772D01*
X129768823Y-123928315D01*
X129917622Y-124027739D01*
X130082958Y-124096224D01*
X130258479Y-124131137D01*
X130258480Y-124131137D01*
X130437436Y-124131137D01*
X130437437Y-124131137D01*
X130612958Y-124096224D01*
X130778294Y-124027739D01*
X130927093Y-123928315D01*
X131053636Y-123801772D01*
X131153060Y-123652973D01*
X131204031Y-123529918D01*
X132937300Y-123529918D01*
X132937300Y-123708881D01*
X132972214Y-123884403D01*
X132982033Y-123908107D01*
X133040698Y-124049736D01*
X133140122Y-124198535D01*
X133266665Y-124325078D01*
X133415464Y-124424502D01*
X133580800Y-124492987D01*
X133756321Y-124527900D01*
X133756322Y-124527900D01*
X133935278Y-124527900D01*
X133935279Y-124527900D01*
X134110800Y-124492987D01*
X134276136Y-124424502D01*
X134424935Y-124325078D01*
X134551478Y-124198535D01*
X134650902Y-124049736D01*
X134719387Y-123884400D01*
X134754300Y-123708879D01*
X134754300Y-123529921D01*
X134719387Y-123354400D01*
X134650902Y-123189064D01*
X134551478Y-123040265D01*
X134424935Y-122913722D01*
X134276136Y-122814298D01*
X134159229Y-122765873D01*
X134110803Y-122745814D01*
X134110801Y-122745813D01*
X134110800Y-122745813D01*
X134022445Y-122728238D01*
X133935281Y-122710900D01*
X133935279Y-122710900D01*
X133756321Y-122710900D01*
X133756318Y-122710900D01*
X133625571Y-122736907D01*
X133580800Y-122745813D01*
X133580799Y-122745813D01*
X133580796Y-122745814D01*
X133487636Y-122784403D01*
X133428552Y-122808877D01*
X133415462Y-122814299D01*
X133266669Y-122913719D01*
X133266662Y-122913724D01*
X133140124Y-123040262D01*
X133140119Y-123040269D01*
X133100404Y-123099708D01*
X133040698Y-123189064D01*
X133026516Y-123223302D01*
X132972214Y-123354396D01*
X132937300Y-123529918D01*
X131204031Y-123529918D01*
X131221545Y-123487637D01*
X131256458Y-123312116D01*
X131256458Y-123133158D01*
X131221545Y-122957637D01*
X131153060Y-122792301D01*
X131053636Y-122643502D01*
X131040052Y-122629918D01*
X139737300Y-122629918D01*
X139737300Y-122808881D01*
X139754638Y-122896045D01*
X139769990Y-122973225D01*
X139772214Y-122984403D01*
X139791067Y-123029918D01*
X139840698Y-123149736D01*
X139940122Y-123298535D01*
X140066665Y-123425078D01*
X140215464Y-123524502D01*
X140380800Y-123592987D01*
X140556321Y-123627900D01*
X140556322Y-123627900D01*
X140735278Y-123627900D01*
X140735279Y-123627900D01*
X140910800Y-123592987D01*
X141076136Y-123524502D01*
X141224935Y-123425078D01*
X141351478Y-123298535D01*
X141450902Y-123149736D01*
X141519387Y-122984400D01*
X141554300Y-122808879D01*
X141554300Y-122629921D01*
X141519387Y-122454400D01*
X141450902Y-122289064D01*
X141351478Y-122140265D01*
X141224935Y-122013722D01*
X141076136Y-121914298D01*
X140927434Y-121852703D01*
X140910803Y-121845814D01*
X140910801Y-121845813D01*
X140910800Y-121845813D01*
X140822445Y-121828238D01*
X140735281Y-121810900D01*
X140735279Y-121810900D01*
X140556321Y-121810900D01*
X140556318Y-121810900D01*
X140425571Y-121836907D01*
X140380800Y-121845813D01*
X140380799Y-121845813D01*
X140380796Y-121845814D01*
X140215462Y-121914299D01*
X140066669Y-122013719D01*
X140066662Y-122013724D01*
X139940124Y-122140262D01*
X139940119Y-122140269D01*
X139840699Y-122289062D01*
X139772214Y-122454396D01*
X139737300Y-122629918D01*
X131040052Y-122629918D01*
X130927093Y-122516959D01*
X130778294Y-122417535D01*
X130625874Y-122354400D01*
X130612961Y-122349051D01*
X130612959Y-122349050D01*
X130612958Y-122349050D01*
X130524603Y-122331475D01*
X130437439Y-122314137D01*
X130437437Y-122314137D01*
X130258479Y-122314137D01*
X130258476Y-122314137D01*
X130127729Y-122340144D01*
X130082958Y-122349050D01*
X130082957Y-122349050D01*
X130082954Y-122349051D01*
X129951860Y-122403353D01*
X129926823Y-122413724D01*
X129917620Y-122417536D01*
X129768827Y-122516956D01*
X129768820Y-122516961D01*
X129642282Y-122643499D01*
X129642277Y-122643506D01*
X129573918Y-122745814D01*
X129542856Y-122792301D01*
X129533744Y-122814299D01*
X129474372Y-122957633D01*
X129474371Y-122957636D01*
X129474371Y-122957637D01*
X129469048Y-122984400D01*
X129439458Y-123133155D01*
X126495163Y-123133155D01*
X126550902Y-123049736D01*
X126619387Y-122884400D01*
X126654300Y-122708879D01*
X126654300Y-122529921D01*
X126619387Y-122354400D01*
X126550902Y-122189064D01*
X126451478Y-122040265D01*
X126324935Y-121913722D01*
X126176136Y-121814298D01*
X126059229Y-121765873D01*
X126010803Y-121745814D01*
X126010801Y-121745813D01*
X126010800Y-121745813D01*
X125922445Y-121728238D01*
X125835281Y-121710900D01*
X125835279Y-121710900D01*
X125656321Y-121710900D01*
X125656318Y-121710900D01*
X125525571Y-121736907D01*
X125480800Y-121745813D01*
X125480799Y-121745813D01*
X125480796Y-121745814D01*
X125349702Y-121800116D01*
X125323668Y-121810900D01*
X125315462Y-121814299D01*
X125166669Y-121913719D01*
X125166662Y-121913724D01*
X125040124Y-122040262D01*
X125040119Y-122040269D01*
X124940699Y-122189062D01*
X124872214Y-122354396D01*
X124837300Y-122529918D01*
X115746700Y-122529918D01*
X115746700Y-121029918D01*
X137837300Y-121029918D01*
X137837300Y-121029921D01*
X137837300Y-121208879D01*
X137872213Y-121384400D01*
X137940698Y-121549736D01*
X138040122Y-121698535D01*
X138166665Y-121825078D01*
X138315464Y-121924502D01*
X138480800Y-121992987D01*
X138656321Y-122027900D01*
X138656322Y-122027900D01*
X138835278Y-122027900D01*
X138835279Y-122027900D01*
X139010800Y-121992987D01*
X139176136Y-121924502D01*
X139324935Y-121825078D01*
X139451478Y-121698535D01*
X139550902Y-121549736D01*
X139619387Y-121384400D01*
X139654300Y-121208879D01*
X139654300Y-121029921D01*
X139619387Y-120854400D01*
X139550902Y-120689064D01*
X139451478Y-120540265D01*
X139324935Y-120413722D01*
X139176136Y-120314298D01*
X139059229Y-120265873D01*
X139010803Y-120245814D01*
X139010801Y-120245813D01*
X139010800Y-120245813D01*
X138922445Y-120228238D01*
X138835281Y-120210900D01*
X138835279Y-120210900D01*
X138656321Y-120210900D01*
X138656318Y-120210900D01*
X138525571Y-120236907D01*
X138480800Y-120245813D01*
X138480799Y-120245813D01*
X138480796Y-120245814D01*
X138315462Y-120314299D01*
X138166669Y-120413719D01*
X138166662Y-120413724D01*
X138040124Y-120540262D01*
X138040119Y-120540269D01*
X137940699Y-120689062D01*
X137872214Y-120854396D01*
X137837300Y-121029918D01*
X115746700Y-121029918D01*
X115746700Y-118798711D01*
X164212300Y-118798711D01*
X164212300Y-119040089D01*
X164250060Y-119278495D01*
X164250061Y-119278500D01*
X164324648Y-119508055D01*
X164324650Y-119508060D01*
X164324651Y-119508061D01*
X164434235Y-119723132D01*
X164576113Y-119918410D01*
X164746789Y-120089086D01*
X164746792Y-120089088D01*
X164942071Y-120230967D01*
X165157140Y-120340550D01*
X165386705Y-120415140D01*
X165625111Y-120452900D01*
X165625114Y-120452900D01*
X165866486Y-120452900D01*
X165866489Y-120452900D01*
X166104895Y-120415140D01*
X166334460Y-120340550D01*
X166549529Y-120230967D01*
X166744808Y-120089088D01*
X166915488Y-119918408D01*
X167057367Y-119723129D01*
X167166950Y-119508060D01*
X167241540Y-119278495D01*
X167279300Y-119040089D01*
X167279300Y-118798711D01*
X167241540Y-118560305D01*
X167166950Y-118330740D01*
X167057367Y-118115671D01*
X166915488Y-117920392D01*
X166915486Y-117920389D01*
X166744810Y-117749713D01*
X166549532Y-117607835D01*
X166549531Y-117607834D01*
X166549529Y-117607833D01*
X166334460Y-117498250D01*
X166334457Y-117498249D01*
X166334455Y-117498248D01*
X166104900Y-117423661D01*
X166104896Y-117423660D01*
X166104895Y-117423660D01*
X165866489Y-117385900D01*
X165625111Y-117385900D01*
X165386705Y-117423660D01*
X165386699Y-117423661D01*
X165157144Y-117498248D01*
X165157138Y-117498251D01*
X164942067Y-117607835D01*
X164746789Y-117749713D01*
X164576113Y-117920389D01*
X164434235Y-118115667D01*
X164324651Y-118330738D01*
X164324648Y-118330744D01*
X164250061Y-118560299D01*
X164250060Y-118560304D01*
X164250060Y-118560305D01*
X164212300Y-118798711D01*
X115746700Y-118798711D01*
X115746700Y-116250841D01*
X161572300Y-116250841D01*
X161572300Y-116507959D01*
X161612522Y-116761912D01*
X161612523Y-116761917D01*
X161691974Y-117006441D01*
X161691976Y-117006446D01*
X161808706Y-117235541D01*
X161959836Y-117443554D01*
X161959838Y-117443556D01*
X161959840Y-117443559D01*
X162141640Y-117625359D01*
X162141643Y-117625361D01*
X162141646Y-117625364D01*
X162349659Y-117776494D01*
X162578754Y-117893224D01*
X162823288Y-117972678D01*
X163077241Y-118012900D01*
X163077244Y-118012900D01*
X163334356Y-118012900D01*
X163334359Y-118012900D01*
X163588312Y-117972678D01*
X163832846Y-117893224D01*
X164061941Y-117776494D01*
X164269954Y-117625364D01*
X164451764Y-117443554D01*
X164602894Y-117235541D01*
X164719624Y-117006446D01*
X164799078Y-116761912D01*
X164839300Y-116507959D01*
X164839300Y-116250841D01*
X166652300Y-116250841D01*
X166652300Y-116507959D01*
X166692522Y-116761912D01*
X166692523Y-116761917D01*
X166771974Y-117006441D01*
X166771976Y-117006446D01*
X166888706Y-117235541D01*
X167039836Y-117443554D01*
X167039838Y-117443556D01*
X167039840Y-117443559D01*
X167221640Y-117625359D01*
X167221643Y-117625361D01*
X167221646Y-117625364D01*
X167429659Y-117776494D01*
X167658754Y-117893224D01*
X167903288Y-117972678D01*
X168157241Y-118012900D01*
X168157244Y-118012900D01*
X168414356Y-118012900D01*
X168414359Y-118012900D01*
X168668312Y-117972678D01*
X168912846Y-117893224D01*
X169141941Y-117776494D01*
X169349954Y-117625364D01*
X169531764Y-117443554D01*
X169682894Y-117235541D01*
X169799624Y-117006446D01*
X169879078Y-116761912D01*
X169919300Y-116507959D01*
X169919300Y-116250841D01*
X169879078Y-115996888D01*
X169799624Y-115752354D01*
X169682894Y-115523259D01*
X169531764Y-115315246D01*
X169531761Y-115315243D01*
X169531759Y-115315240D01*
X169349959Y-115133440D01*
X169349956Y-115133438D01*
X169349954Y-115133436D01*
X169169016Y-115001977D01*
X169141944Y-114982308D01*
X169141943Y-114982307D01*
X169141941Y-114982306D01*
X168912846Y-114865576D01*
X168912843Y-114865575D01*
X168912841Y-114865574D01*
X168668317Y-114786123D01*
X168668313Y-114786122D01*
X168668312Y-114786122D01*
X168414359Y-114745900D01*
X168157241Y-114745900D01*
X167903288Y-114786122D01*
X167903282Y-114786123D01*
X167658758Y-114865574D01*
X167658752Y-114865577D01*
X167429655Y-114982308D01*
X167221643Y-115133438D01*
X167221640Y-115133440D01*
X167039840Y-115315240D01*
X167039838Y-115315243D01*
X166888708Y-115523255D01*
X166771977Y-115752352D01*
X166771974Y-115752358D01*
X166692523Y-115996882D01*
X166692522Y-115996887D01*
X166692522Y-115996888D01*
X166652300Y-116250841D01*
X164839300Y-116250841D01*
X164799078Y-115996888D01*
X164719624Y-115752354D01*
X164602894Y-115523259D01*
X164451764Y-115315246D01*
X164451761Y-115315243D01*
X164451759Y-115315240D01*
X164269959Y-115133440D01*
X164269956Y-115133438D01*
X164269954Y-115133436D01*
X164089016Y-115001977D01*
X164061944Y-114982308D01*
X164061943Y-114982307D01*
X164061941Y-114982306D01*
X163832846Y-114865576D01*
X163832843Y-114865575D01*
X163832841Y-114865574D01*
X163588317Y-114786123D01*
X163588313Y-114786122D01*
X163588312Y-114786122D01*
X163334359Y-114745900D01*
X163077241Y-114745900D01*
X162823288Y-114786122D01*
X162823282Y-114786123D01*
X162578758Y-114865574D01*
X162578752Y-114865577D01*
X162349655Y-114982308D01*
X162141643Y-115133438D01*
X162141640Y-115133440D01*
X161959840Y-115315240D01*
X161959838Y-115315243D01*
X161808708Y-115523255D01*
X161691977Y-115752352D01*
X161691974Y-115752358D01*
X161612523Y-115996882D01*
X161612522Y-115996887D01*
X161612522Y-115996888D01*
X161572300Y-116250841D01*
X115746700Y-116250841D01*
X115746700Y-112059212D01*
X123617300Y-112059212D01*
X123617300Y-112419587D01*
X123657648Y-112777694D01*
X123691289Y-112925081D01*
X123737838Y-113129026D01*
X123737840Y-113129032D01*
X123737839Y-113129032D01*
X123856854Y-113469157D01*
X123856862Y-113469177D01*
X124013222Y-113793860D01*
X124013223Y-113793863D01*
X124204943Y-114098984D01*
X124204947Y-114098991D01*
X124429639Y-114380745D01*
X124684454Y-114635560D01*
X124966208Y-114860252D01*
X124966215Y-114860256D01*
X125271336Y-115051976D01*
X125271338Y-115051976D01*
X125271342Y-115051979D01*
X125596025Y-115208339D01*
X125596040Y-115208344D01*
X125596042Y-115208345D01*
X125936167Y-115327360D01*
X125936170Y-115327360D01*
X125936174Y-115327362D01*
X126287505Y-115407551D01*
X126287506Y-115407551D01*
X126287509Y-115407552D01*
X126498707Y-115431347D01*
X126645612Y-115447900D01*
X126645614Y-115447900D01*
X127005988Y-115447900D01*
X127096930Y-115437653D01*
X127364091Y-115407552D01*
X127715426Y-115327362D01*
X127745314Y-115316904D01*
X127858324Y-115277360D01*
X128055575Y-115208339D01*
X128380258Y-115051979D01*
X128685393Y-114860251D01*
X128967142Y-114635563D01*
X129221963Y-114380742D01*
X129266429Y-114324984D01*
X152917300Y-114324984D01*
X152917300Y-114538816D01*
X152950099Y-114745900D01*
X152950752Y-114750021D01*
X153016826Y-114953378D01*
X153016828Y-114953383D01*
X153108570Y-115133436D01*
X153113908Y-115143912D01*
X153124390Y-115158339D01*
X153239594Y-115316904D01*
X153239596Y-115316906D01*
X153239598Y-115316909D01*
X153390790Y-115468101D01*
X153390793Y-115468103D01*
X153390796Y-115468106D01*
X153563791Y-115593794D01*
X153754317Y-115690872D01*
X153957678Y-115756947D01*
X153957679Y-115756947D01*
X153957684Y-115756949D01*
X154168884Y-115790400D01*
X154168887Y-115790400D01*
X154382713Y-115790400D01*
X154382716Y-115790400D01*
X154593916Y-115756949D01*
X154797283Y-115690872D01*
X154987809Y-115593794D01*
X155160804Y-115468106D01*
X155312006Y-115316904D01*
X155437694Y-115143909D01*
X155534772Y-114953383D01*
X155600849Y-114750016D01*
X155634300Y-114538816D01*
X155634300Y-114324984D01*
X155600849Y-114113784D01*
X155534772Y-113910417D01*
X155437694Y-113719891D01*
X155312006Y-113546896D01*
X155312003Y-113546893D01*
X155312001Y-113546890D01*
X155230606Y-113465495D01*
X155196580Y-113403183D01*
X155201645Y-113332368D01*
X155244192Y-113275532D01*
X155310712Y-113250721D01*
X155319701Y-113250400D01*
X156444432Y-113250400D01*
X156444438Y-113250400D01*
X156444445Y-113250399D01*
X156444449Y-113250399D01*
X156504996Y-113243890D01*
X156504999Y-113243889D01*
X156505001Y-113243889D01*
X156642004Y-113192789D01*
X156740292Y-113119211D01*
X156806811Y-113094401D01*
X156876185Y-113109492D01*
X156891302Y-113119206D01*
X156989596Y-113192789D01*
X157126595Y-113243888D01*
X157126603Y-113243890D01*
X157187150Y-113250399D01*
X157187155Y-113250399D01*
X157187162Y-113250400D01*
X158601899Y-113250400D01*
X158670020Y-113270402D01*
X158716513Y-113324058D01*
X158726617Y-113394332D01*
X158697123Y-113458912D01*
X158690994Y-113465495D01*
X158609598Y-113546890D01*
X158609596Y-113546893D01*
X158483908Y-113719887D01*
X158386829Y-113910415D01*
X158386826Y-113910421D01*
X158320752Y-114113778D01*
X158320751Y-114113783D01*
X158320751Y-114113784D01*
X158287300Y-114324984D01*
X158287300Y-114538816D01*
X158320099Y-114745900D01*
X158320752Y-114750021D01*
X158386826Y-114953378D01*
X158386828Y-114953383D01*
X158478570Y-115133436D01*
X158483908Y-115143912D01*
X158494390Y-115158339D01*
X158609594Y-115316904D01*
X158609596Y-115316906D01*
X158609598Y-115316909D01*
X158760790Y-115468101D01*
X158760793Y-115468103D01*
X158760796Y-115468106D01*
X158933791Y-115593794D01*
X159124317Y-115690872D01*
X159327678Y-115756947D01*
X159327679Y-115756947D01*
X159327684Y-115756949D01*
X159538884Y-115790400D01*
X159538887Y-115790400D01*
X159752713Y-115790400D01*
X159752716Y-115790400D01*
X159963916Y-115756949D01*
X160167283Y-115690872D01*
X160357809Y-115593794D01*
X160530804Y-115468106D01*
X160682006Y-115316904D01*
X160807694Y-115143909D01*
X160904772Y-114953383D01*
X160970849Y-114750016D01*
X161004300Y-114538816D01*
X161004300Y-114324984D01*
X160970849Y-114113784D01*
X160904772Y-113910417D01*
X160807694Y-113719891D01*
X160682006Y-113546896D01*
X160682003Y-113546893D01*
X160682001Y-113546890D01*
X160530809Y-113395698D01*
X160530806Y-113395696D01*
X160530804Y-113395694D01*
X160357809Y-113270006D01*
X160167283Y-113172928D01*
X160167280Y-113172927D01*
X160167278Y-113172926D01*
X159963920Y-113106852D01*
X159963923Y-113106852D01*
X159885310Y-113094401D01*
X159752716Y-113073400D01*
X159538884Y-113073400D01*
X159536350Y-113073400D01*
X159468229Y-113053398D01*
X159421736Y-112999742D01*
X159411632Y-112929468D01*
X159418295Y-112903367D01*
X159437788Y-112851104D01*
X159437790Y-112851096D01*
X159444299Y-112790549D01*
X159444300Y-112790532D01*
X159444300Y-110993267D01*
X159444299Y-110993250D01*
X159437790Y-110932703D01*
X159437788Y-110932695D01*
X159386689Y-110795697D01*
X159386687Y-110795692D01*
X159299061Y-110678638D01*
X159182007Y-110591012D01*
X159182002Y-110591010D01*
X159045004Y-110539911D01*
X159044996Y-110539909D01*
X158984449Y-110533400D01*
X158984438Y-110533400D01*
X157187162Y-110533400D01*
X157187150Y-110533400D01*
X157126603Y-110539909D01*
X157126595Y-110539911D01*
X156989597Y-110591010D01*
X156989592Y-110591012D01*
X156891309Y-110664587D01*
X156824789Y-110689398D01*
X156755415Y-110674307D01*
X156740291Y-110664587D01*
X156642007Y-110591012D01*
X156642002Y-110591010D01*
X156505004Y-110539911D01*
X156504996Y-110539909D01*
X156444449Y-110533400D01*
X156444438Y-110533400D01*
X154647162Y-110533400D01*
X154647150Y-110533400D01*
X154586603Y-110539909D01*
X154586595Y-110539911D01*
X154449597Y-110591010D01*
X154449592Y-110591012D01*
X154332538Y-110678638D01*
X154244912Y-110795692D01*
X154244910Y-110795697D01*
X154193811Y-110932695D01*
X154193809Y-110932703D01*
X154187300Y-110993250D01*
X154187300Y-112790549D01*
X154193809Y-112851096D01*
X154193810Y-112851097D01*
X154193810Y-112851099D01*
X154193811Y-112851101D01*
X154216860Y-112912896D01*
X154221925Y-112983712D01*
X154187900Y-113046024D01*
X154125588Y-113080049D01*
X154118524Y-113081376D01*
X153957684Y-113106851D01*
X153957678Y-113106852D01*
X153754321Y-113172926D01*
X153754315Y-113172929D01*
X153563787Y-113270008D01*
X153390793Y-113395696D01*
X153390790Y-113395698D01*
X153239598Y-113546890D01*
X153239596Y-113546893D01*
X153113908Y-113719887D01*
X153016829Y-113910415D01*
X153016826Y-113910421D01*
X152950752Y-114113778D01*
X152950751Y-114113783D01*
X152950751Y-114113784D01*
X152917300Y-114324984D01*
X129266429Y-114324984D01*
X129446651Y-114098993D01*
X129638379Y-113793858D01*
X129794739Y-113469175D01*
X129913762Y-113129026D01*
X129993952Y-112777691D01*
X130034300Y-112419586D01*
X130034300Y-112129918D01*
X145137300Y-112129918D01*
X145137300Y-112129921D01*
X145137300Y-112308879D01*
X145172213Y-112484400D01*
X145240698Y-112649736D01*
X145340122Y-112798535D01*
X145466665Y-112925078D01*
X145615464Y-113024502D01*
X145780800Y-113092987D01*
X145956321Y-113127900D01*
X145956322Y-113127900D01*
X146135278Y-113127900D01*
X146135279Y-113127900D01*
X146310800Y-113092987D01*
X146463061Y-113029918D01*
X149062300Y-113029918D01*
X149062300Y-113208881D01*
X149075558Y-113275532D01*
X149097213Y-113384400D01*
X149165698Y-113549736D01*
X149265122Y-113698535D01*
X149391665Y-113825078D01*
X149540464Y-113924502D01*
X149705800Y-113992987D01*
X149881321Y-114027900D01*
X149881322Y-114027900D01*
X150060278Y-114027900D01*
X150060279Y-114027900D01*
X150235800Y-113992987D01*
X150401136Y-113924502D01*
X150549935Y-113825078D01*
X150676478Y-113698535D01*
X150775902Y-113549736D01*
X150844387Y-113384400D01*
X150879300Y-113208879D01*
X150879300Y-113029921D01*
X150844387Y-112854400D01*
X150775902Y-112689064D01*
X150676478Y-112540265D01*
X150549935Y-112413722D01*
X150401136Y-112314298D01*
X150284229Y-112265873D01*
X150235803Y-112245814D01*
X150235801Y-112245813D01*
X150235800Y-112245813D01*
X150147445Y-112228238D01*
X150060281Y-112210900D01*
X150060279Y-112210900D01*
X149881321Y-112210900D01*
X149881318Y-112210900D01*
X149750571Y-112236907D01*
X149705800Y-112245813D01*
X149705799Y-112245813D01*
X149705796Y-112245814D01*
X149574702Y-112300116D01*
X149553552Y-112308877D01*
X149540462Y-112314299D01*
X149391669Y-112413719D01*
X149391662Y-112413724D01*
X149265124Y-112540262D01*
X149265119Y-112540269D01*
X149165699Y-112689062D01*
X149097214Y-112854396D01*
X149062300Y-113029918D01*
X146463061Y-113029918D01*
X146476136Y-113024502D01*
X146624935Y-112925078D01*
X146751478Y-112798535D01*
X146850902Y-112649736D01*
X146919387Y-112484400D01*
X146954300Y-112308879D01*
X146954300Y-112129921D01*
X146919387Y-111954400D01*
X146850902Y-111789064D01*
X146751478Y-111640265D01*
X146624935Y-111513722D01*
X146476136Y-111414298D01*
X146320346Y-111349767D01*
X146310803Y-111345814D01*
X146310801Y-111345813D01*
X146310800Y-111345813D01*
X146222445Y-111328238D01*
X146135281Y-111310900D01*
X146135279Y-111310900D01*
X145956321Y-111310900D01*
X145956318Y-111310900D01*
X145825571Y-111336907D01*
X145780800Y-111345813D01*
X145780799Y-111345813D01*
X145780796Y-111345814D01*
X145615462Y-111414299D01*
X145466669Y-111513719D01*
X145466662Y-111513724D01*
X145340124Y-111640262D01*
X145340119Y-111640269D01*
X145240699Y-111789062D01*
X145172214Y-111954396D01*
X145137300Y-112129918D01*
X130034300Y-112129918D01*
X130034300Y-112059214D01*
X130034252Y-112058791D01*
X130009775Y-111841544D01*
X129993952Y-111701109D01*
X129913762Y-111349774D01*
X129912376Y-111345814D01*
X129794745Y-111009642D01*
X129794744Y-111009640D01*
X129794739Y-111009625D01*
X129638379Y-110684942D01*
X129638376Y-110684938D01*
X129638376Y-110684936D01*
X129446656Y-110379815D01*
X129446652Y-110379808D01*
X129221960Y-110098054D01*
X128967145Y-109843239D01*
X128685391Y-109618547D01*
X128685384Y-109618543D01*
X128380263Y-109426823D01*
X128380260Y-109426822D01*
X128375443Y-109424502D01*
X128055575Y-109270461D01*
X128055571Y-109270459D01*
X128055557Y-109270454D01*
X127715432Y-109151439D01*
X127364093Y-109071248D01*
X127364096Y-109071248D01*
X127005988Y-109030900D01*
X127005986Y-109030900D01*
X126645614Y-109030900D01*
X126645612Y-109030900D01*
X126287505Y-109071248D01*
X125936167Y-109151439D01*
X125596042Y-109270454D01*
X125596022Y-109270462D01*
X125271339Y-109426822D01*
X125271336Y-109426823D01*
X124966215Y-109618543D01*
X124966208Y-109618547D01*
X124684454Y-109843239D01*
X124429639Y-110098054D01*
X124204947Y-110379808D01*
X124204943Y-110379815D01*
X124013223Y-110684936D01*
X124013222Y-110684939D01*
X123856862Y-111009622D01*
X123856854Y-111009642D01*
X123737839Y-111349767D01*
X123657648Y-111701105D01*
X123617300Y-112059212D01*
X115746700Y-112059212D01*
X115746700Y-106244690D01*
X150987300Y-106244690D01*
X150987300Y-106394109D01*
X150991202Y-106413724D01*
X151016449Y-106540646D01*
X151073626Y-106678684D01*
X151156635Y-106802916D01*
X151156637Y-106802918D01*
X151234024Y-106880305D01*
X151268050Y-106942617D01*
X151262985Y-107013432D01*
X151234024Y-107058495D01*
X151156637Y-107135881D01*
X151156632Y-107135888D01*
X151073626Y-107260115D01*
X151016450Y-107398150D01*
X151016449Y-107398153D01*
X150987300Y-107544690D01*
X150987300Y-107694109D01*
X151016449Y-107840646D01*
X151016450Y-107840649D01*
X151016821Y-107841544D01*
X151073626Y-107978684D01*
X151156635Y-108102916D01*
X151262284Y-108208565D01*
X151386516Y-108291574D01*
X151524554Y-108348751D01*
X151671094Y-108377900D01*
X151820506Y-108377900D01*
X151967046Y-108348751D01*
X152105084Y-108291574D01*
X152225799Y-108210914D01*
X152293551Y-108189700D01*
X152362018Y-108208483D01*
X152365776Y-108210898D01*
X152486516Y-108291574D01*
X152624554Y-108348751D01*
X152771094Y-108377900D01*
X152920506Y-108377900D01*
X153067046Y-108348751D01*
X153183054Y-108300698D01*
X153253642Y-108293110D01*
X153317129Y-108324889D01*
X153353357Y-108385947D01*
X153354850Y-108441689D01*
X153337300Y-108529915D01*
X153337300Y-108708881D01*
X153354638Y-108796045D01*
X153372213Y-108884400D01*
X153440698Y-109049736D01*
X153540122Y-109198535D01*
X153666665Y-109325078D01*
X153815464Y-109424502D01*
X153980800Y-109492987D01*
X154156321Y-109527900D01*
X154156322Y-109527900D01*
X154335278Y-109527900D01*
X154335279Y-109527900D01*
X154510800Y-109492987D01*
X154676136Y-109424502D01*
X154824935Y-109325078D01*
X154951478Y-109198535D01*
X155050902Y-109049736D01*
X155119387Y-108884400D01*
X155154300Y-108708879D01*
X155154300Y-108529921D01*
X155119387Y-108354400D01*
X155050902Y-108189064D01*
X155050901Y-108189062D01*
X155050900Y-108189060D01*
X155050899Y-108189059D01*
X154978751Y-108081081D01*
X154978750Y-108081080D01*
X154953021Y-108042575D01*
X154951478Y-108040265D01*
X154928478Y-108017265D01*
X155824647Y-108017265D01*
X155824647Y-108196228D01*
X155829681Y-108221534D01*
X155856109Y-108354400D01*
X155859561Y-108371750D01*
X155865442Y-108385947D01*
X155928045Y-108537083D01*
X156027469Y-108685882D01*
X156154012Y-108812425D01*
X156302811Y-108911849D01*
X156468147Y-108980334D01*
X156643668Y-109015247D01*
X156643669Y-109015247D01*
X156822625Y-109015247D01*
X156822626Y-109015247D01*
X156998147Y-108980334D01*
X157163483Y-108911849D01*
X157312282Y-108812425D01*
X157438825Y-108685882D01*
X157538249Y-108537083D01*
X157606734Y-108371747D01*
X157619704Y-108306538D01*
X157652611Y-108243630D01*
X157714306Y-108208498D01*
X157785201Y-108212298D01*
X157842787Y-108253824D01*
X157866861Y-108306538D01*
X157881056Y-108377900D01*
X157884867Y-108397056D01*
X157884951Y-108397258D01*
X157953351Y-108562389D01*
X158052775Y-108711188D01*
X158179318Y-108837731D01*
X158328117Y-108937155D01*
X158493453Y-109005640D01*
X158668974Y-109040553D01*
X158668975Y-109040553D01*
X158847931Y-109040553D01*
X158847932Y-109040553D01*
X159023453Y-109005640D01*
X159188789Y-108937155D01*
X159337588Y-108837731D01*
X159464131Y-108711188D01*
X159563555Y-108562389D01*
X159632040Y-108397053D01*
X159666953Y-108221532D01*
X159666953Y-108042574D01*
X159632040Y-107867053D01*
X159563555Y-107701717D01*
X159464131Y-107552918D01*
X159337588Y-107426375D01*
X159188789Y-107326951D01*
X159132079Y-107303461D01*
X159076801Y-107258913D01*
X159054380Y-107191550D01*
X159054300Y-107187053D01*
X159054300Y-107029922D01*
X159054299Y-107029918D01*
X159047589Y-106996183D01*
X159019387Y-106854400D01*
X158950902Y-106689064D01*
X158851478Y-106540265D01*
X158724935Y-106413722D01*
X158576136Y-106314298D01*
X158459229Y-106265873D01*
X158410803Y-106245814D01*
X158410801Y-106245813D01*
X158410800Y-106245813D01*
X158322445Y-106228238D01*
X158235281Y-106210900D01*
X158235279Y-106210900D01*
X158056321Y-106210900D01*
X158056318Y-106210900D01*
X157925571Y-106236907D01*
X157880800Y-106245813D01*
X157880799Y-106245813D01*
X157880796Y-106245814D01*
X157715462Y-106314299D01*
X157566669Y-106413719D01*
X157566662Y-106413724D01*
X157440124Y-106540262D01*
X157440119Y-106540269D01*
X157347634Y-106678684D01*
X157340698Y-106689064D01*
X157338700Y-106693887D01*
X157272214Y-106854396D01*
X157237300Y-107029918D01*
X157237300Y-107143647D01*
X157217298Y-107211768D01*
X157163642Y-107258261D01*
X157093368Y-107268365D01*
X157063082Y-107260056D01*
X156998152Y-107233161D01*
X156822628Y-107198247D01*
X156822626Y-107198247D01*
X156643668Y-107198247D01*
X156643665Y-107198247D01*
X156512918Y-107224254D01*
X156468147Y-107233160D01*
X156468146Y-107233160D01*
X156468143Y-107233161D01*
X156302809Y-107301646D01*
X156154016Y-107401066D01*
X156154009Y-107401071D01*
X156027471Y-107527609D01*
X156027466Y-107527616D01*
X156015908Y-107544915D01*
X155928045Y-107676411D01*
X155920714Y-107694109D01*
X155859561Y-107841743D01*
X155824647Y-108017265D01*
X154928478Y-108017265D01*
X154824935Y-107913722D01*
X154676136Y-107814298D01*
X154559229Y-107765873D01*
X154510803Y-107745814D01*
X154510801Y-107745813D01*
X154510800Y-107745813D01*
X154422445Y-107728238D01*
X154335281Y-107710900D01*
X154335279Y-107710900D01*
X154156321Y-107710900D01*
X154156318Y-107710900D01*
X154025571Y-107736907D01*
X153980800Y-107745813D01*
X153980799Y-107745813D01*
X153980796Y-107745814D01*
X153815462Y-107814299D01*
X153797282Y-107826446D01*
X153729528Y-107847658D01*
X153661062Y-107828872D01*
X153613621Y-107776053D01*
X153602267Y-107705971D01*
X153603707Y-107697088D01*
X153604299Y-107694109D01*
X153604300Y-107694106D01*
X153604300Y-107544693D01*
X153604299Y-107544690D01*
X153600902Y-107527612D01*
X153575151Y-107398154D01*
X153517974Y-107260116D01*
X153434965Y-107135884D01*
X153357576Y-107058495D01*
X153323550Y-106996183D01*
X153328615Y-106925368D01*
X153357576Y-106880305D01*
X153395800Y-106842081D01*
X153434965Y-106802916D01*
X153517974Y-106678684D01*
X153575151Y-106540646D01*
X153604300Y-106394106D01*
X153604300Y-106244694D01*
X153575151Y-106098154D01*
X153517974Y-105960116D01*
X153434965Y-105835884D01*
X153329316Y-105730235D01*
X153205084Y-105647226D01*
X153087538Y-105598537D01*
X153067049Y-105590050D01*
X153067046Y-105590049D01*
X152920509Y-105560900D01*
X152920506Y-105560900D01*
X152771094Y-105560900D01*
X152771090Y-105560900D01*
X152624553Y-105590049D01*
X152624550Y-105590050D01*
X152486515Y-105647226D01*
X152486511Y-105647228D01*
X152365801Y-105727884D01*
X152298049Y-105749099D01*
X152229582Y-105730316D01*
X152225799Y-105727884D01*
X152105088Y-105647228D01*
X152105084Y-105647226D01*
X151967049Y-105590050D01*
X151967046Y-105590049D01*
X151820509Y-105560900D01*
X151820506Y-105560900D01*
X151671094Y-105560900D01*
X151671090Y-105560900D01*
X151524553Y-105590049D01*
X151524550Y-105590050D01*
X151386515Y-105647226D01*
X151262288Y-105730232D01*
X151262281Y-105730237D01*
X151156637Y-105835881D01*
X151156632Y-105835888D01*
X151073626Y-105960115D01*
X151016450Y-106098150D01*
X151016449Y-106098153D01*
X150987300Y-106244690D01*
X115746700Y-106244690D01*
X115746700Y-104529918D01*
X146837300Y-104529918D01*
X146837300Y-104708881D01*
X146851311Y-104779316D01*
X146872213Y-104884400D01*
X146940698Y-105049736D01*
X147040122Y-105198535D01*
X147166665Y-105325078D01*
X147315464Y-105424502D01*
X147480800Y-105492987D01*
X147656321Y-105527900D01*
X147656322Y-105527900D01*
X147835278Y-105527900D01*
X147835279Y-105527900D01*
X148010800Y-105492987D01*
X148176136Y-105424502D01*
X148324935Y-105325078D01*
X148451478Y-105198535D01*
X148550902Y-105049736D01*
X148550902Y-105049734D01*
X148550905Y-105049731D01*
X148550904Y-105049730D01*
X148558183Y-105032159D01*
X148559111Y-105029918D01*
X155337300Y-105029918D01*
X155337300Y-105208881D01*
X155354638Y-105296045D01*
X155372213Y-105384400D01*
X155440698Y-105549736D01*
X155540122Y-105698535D01*
X155666665Y-105825078D01*
X155815464Y-105924502D01*
X155980800Y-105992987D01*
X156156321Y-106027900D01*
X156156322Y-106027900D01*
X156335278Y-106027900D01*
X156335279Y-106027900D01*
X156510800Y-105992987D01*
X156676136Y-105924502D01*
X156824935Y-105825078D01*
X156951478Y-105698535D01*
X157050902Y-105549736D01*
X157119387Y-105384400D01*
X157154300Y-105208879D01*
X157154300Y-105029921D01*
X157119387Y-104854400D01*
X157050902Y-104689064D01*
X156951478Y-104540265D01*
X156824935Y-104413722D01*
X156676136Y-104314298D01*
X156559229Y-104265873D01*
X156510803Y-104245814D01*
X156510801Y-104245813D01*
X156510800Y-104245813D01*
X156422445Y-104228238D01*
X156335281Y-104210900D01*
X156335279Y-104210900D01*
X156156321Y-104210900D01*
X156156318Y-104210900D01*
X156025571Y-104236907D01*
X155980800Y-104245813D01*
X155980799Y-104245813D01*
X155980796Y-104245814D01*
X155815462Y-104314299D01*
X155666669Y-104413719D01*
X155666662Y-104413724D01*
X155540124Y-104540262D01*
X155540119Y-104540269D01*
X155507516Y-104589064D01*
X155440698Y-104689064D01*
X155426516Y-104723302D01*
X155372214Y-104854396D01*
X155337300Y-105029918D01*
X148559111Y-105029918D01*
X148581645Y-104975517D01*
X148581647Y-104975513D01*
X148619385Y-104884405D01*
X148619385Y-104884404D01*
X148619387Y-104884400D01*
X148654300Y-104708879D01*
X148654300Y-104529921D01*
X148619387Y-104354400D01*
X148550902Y-104189064D01*
X148487203Y-104093731D01*
X148451484Y-104040273D01*
X148451480Y-104040268D01*
X148451478Y-104040265D01*
X148441131Y-104029918D01*
X161737300Y-104029918D01*
X161737300Y-104208881D01*
X161772214Y-104384403D01*
X161792273Y-104432829D01*
X161840698Y-104549736D01*
X161940122Y-104698535D01*
X162066665Y-104825078D01*
X162215464Y-104924502D01*
X162380800Y-104992987D01*
X162556321Y-105027900D01*
X162556322Y-105027900D01*
X162735278Y-105027900D01*
X162735279Y-105027900D01*
X162910800Y-104992987D01*
X163076136Y-104924502D01*
X163224935Y-104825078D01*
X163224934Y-104825078D01*
X163230082Y-104821639D01*
X163231392Y-104823600D01*
X163287072Y-104799938D01*
X163357053Y-104811903D01*
X163409456Y-104859803D01*
X163427644Y-104928431D01*
X163426137Y-104944793D01*
X163412300Y-105032159D01*
X163412300Y-105206641D01*
X163439595Y-105378974D01*
X163439596Y-105378977D01*
X163476639Y-105492987D01*
X163493512Y-105544916D01*
X163572726Y-105700381D01*
X163675283Y-105841539D01*
X163675285Y-105841541D01*
X163675287Y-105841544D01*
X163798654Y-105964911D01*
X163798657Y-105964913D01*
X163798661Y-105964917D01*
X163861950Y-106010899D01*
X163870986Y-106017464D01*
X163914339Y-106073687D01*
X163920414Y-106144423D01*
X163887282Y-106207215D01*
X163870986Y-106221336D01*
X163798654Y-106273888D01*
X163675287Y-106397255D01*
X163675285Y-106397258D01*
X163572728Y-106538415D01*
X163493513Y-106693882D01*
X163493510Y-106693888D01*
X163439596Y-106859822D01*
X163439595Y-106859826D01*
X163412300Y-107032159D01*
X163412300Y-107206641D01*
X163439595Y-107378974D01*
X163439596Y-107378976D01*
X163439596Y-107378977D01*
X163493439Y-107544694D01*
X163493512Y-107544916D01*
X163572726Y-107700381D01*
X163572728Y-107700384D01*
X163576787Y-107705971D01*
X163675283Y-107841539D01*
X163675284Y-107841540D01*
X163675285Y-107841541D01*
X163675287Y-107841544D01*
X163798655Y-107964912D01*
X163798658Y-107964914D01*
X163798661Y-107964917D01*
X163870985Y-108017463D01*
X163914339Y-108073685D01*
X163920414Y-108144421D01*
X163887283Y-108207213D01*
X163870986Y-108221335D01*
X163798654Y-108273887D01*
X163675287Y-108397254D01*
X163675285Y-108397257D01*
X163572728Y-108538414D01*
X163493513Y-108693881D01*
X163493510Y-108693887D01*
X163446773Y-108837733D01*
X163439595Y-108859825D01*
X163412300Y-109032158D01*
X163412300Y-109206640D01*
X163439595Y-109378973D01*
X163439596Y-109378976D01*
X163487983Y-109527900D01*
X163493512Y-109544915D01*
X163572726Y-109700380D01*
X163675283Y-109841538D01*
X163675284Y-109841539D01*
X163675285Y-109841540D01*
X163675287Y-109841543D01*
X163774327Y-109940583D01*
X163808353Y-110002895D01*
X163803288Y-110073710D01*
X163760741Y-110130546D01*
X163751381Y-110136918D01*
X163697146Y-110170371D01*
X163697141Y-110170375D01*
X163571775Y-110295741D01*
X163571770Y-110295747D01*
X163478685Y-110446662D01*
X163422913Y-110614972D01*
X163422912Y-110614979D01*
X163412300Y-110718846D01*
X163412300Y-111519944D01*
X163422912Y-111623825D01*
X163478685Y-111792138D01*
X163571770Y-111943052D01*
X163571775Y-111943058D01*
X163697141Y-112068424D01*
X163697147Y-112068429D01*
X163697148Y-112068430D01*
X163848062Y-112161515D01*
X164016374Y-112217287D01*
X164120255Y-112227900D01*
X165371344Y-112227899D01*
X165475226Y-112217287D01*
X165643538Y-112161515D01*
X165794452Y-112068430D01*
X165794453Y-112068428D01*
X165800698Y-112064577D01*
X165802260Y-112067110D01*
X165855522Y-112045585D01*
X165925279Y-112058791D01*
X165935490Y-112065058D01*
X165935596Y-112064886D01*
X165939812Y-112067469D01*
X165939815Y-112067470D01*
X165939820Y-112067474D01*
X166095285Y-112146688D01*
X166261227Y-112200605D01*
X166433560Y-112227900D01*
X166433563Y-112227900D01*
X167058039Y-112227900D01*
X167058042Y-112227900D01*
X167230375Y-112200605D01*
X167396317Y-112146688D01*
X167551782Y-112067474D01*
X167631973Y-112009212D01*
X201597300Y-112009212D01*
X201597300Y-112369587D01*
X201637648Y-112727694D01*
X201677745Y-112903367D01*
X201717838Y-113079026D01*
X201717840Y-113079032D01*
X201717839Y-113079032D01*
X201836854Y-113419157D01*
X201836859Y-113419171D01*
X201836861Y-113419175D01*
X201971395Y-113698535D01*
X201993222Y-113743860D01*
X201993223Y-113743863D01*
X202184943Y-114048984D01*
X202184947Y-114048991D01*
X202409639Y-114330745D01*
X202664454Y-114585560D01*
X202946208Y-114810252D01*
X202946215Y-114810256D01*
X203251336Y-115001976D01*
X203251338Y-115001976D01*
X203251342Y-115001979D01*
X203576025Y-115158339D01*
X203576040Y-115158344D01*
X203576042Y-115158345D01*
X203916167Y-115277360D01*
X203916170Y-115277360D01*
X203916174Y-115277362D01*
X204267505Y-115357551D01*
X204267506Y-115357551D01*
X204267509Y-115357552D01*
X204478707Y-115381347D01*
X204625612Y-115397900D01*
X204625614Y-115397900D01*
X204985988Y-115397900D01*
X205076930Y-115387653D01*
X205344091Y-115357552D01*
X205695426Y-115277362D01*
X206035575Y-115158339D01*
X206360258Y-115001979D01*
X206665393Y-114810251D01*
X206947142Y-114585563D01*
X207201963Y-114330742D01*
X207426651Y-114048993D01*
X207618379Y-113743858D01*
X207774739Y-113419175D01*
X207893762Y-113079026D01*
X207973952Y-112727691D01*
X208009327Y-112413722D01*
X208014300Y-112369587D01*
X208014300Y-112009212D01*
X207989842Y-111792138D01*
X207973952Y-111651109D01*
X207893762Y-111299774D01*
X207861173Y-111206641D01*
X207774745Y-110959642D01*
X207774744Y-110959640D01*
X207774739Y-110959625D01*
X207618379Y-110634942D01*
X207618376Y-110634938D01*
X207618376Y-110634936D01*
X207426656Y-110329815D01*
X207426652Y-110329808D01*
X207201960Y-110048054D01*
X206947145Y-109793239D01*
X206665391Y-109568547D01*
X206665384Y-109568543D01*
X206360263Y-109376823D01*
X206360260Y-109376822D01*
X206139403Y-109270462D01*
X206035575Y-109220461D01*
X206035571Y-109220459D01*
X206035557Y-109220454D01*
X205695432Y-109101439D01*
X205344093Y-109021248D01*
X205344096Y-109021248D01*
X204985988Y-108980900D01*
X204985986Y-108980900D01*
X204625614Y-108980900D01*
X204625612Y-108980900D01*
X204267505Y-109021248D01*
X203916167Y-109101439D01*
X203576042Y-109220454D01*
X203576022Y-109220462D01*
X203251339Y-109376822D01*
X203251336Y-109376823D01*
X202946215Y-109568543D01*
X202946208Y-109568547D01*
X202664454Y-109793239D01*
X202409639Y-110048054D01*
X202184947Y-110329808D01*
X202184943Y-110329815D01*
X201993223Y-110634936D01*
X201993222Y-110634939D01*
X201836862Y-110959622D01*
X201836854Y-110959642D01*
X201717839Y-111299767D01*
X201637648Y-111651105D01*
X201597300Y-112009212D01*
X167631973Y-112009212D01*
X167692940Y-111964917D01*
X167714805Y-111943052D01*
X167741274Y-111916584D01*
X167816313Y-111841544D01*
X167816318Y-111841539D01*
X167918875Y-111700381D01*
X167998089Y-111544916D01*
X168052006Y-111378974D01*
X168079301Y-111206641D01*
X168079301Y-111032159D01*
X168052006Y-110859826D01*
X167998089Y-110693884D01*
X167918875Y-110538419D01*
X167816318Y-110397261D01*
X167816315Y-110397258D01*
X167816313Y-110397255D01*
X167692942Y-110273884D01*
X167620614Y-110221335D01*
X167577260Y-110165112D01*
X167571185Y-110094376D01*
X167604317Y-110031585D01*
X167620605Y-110017470D01*
X167692939Y-109964917D01*
X167816317Y-109841539D01*
X167918874Y-109700381D01*
X167998088Y-109544916D01*
X168052005Y-109378974D01*
X168079300Y-109206641D01*
X168079300Y-109032159D01*
X168052005Y-108859826D01*
X167998088Y-108693884D01*
X167918874Y-108538419D01*
X167816317Y-108397261D01*
X167816313Y-108397257D01*
X167816312Y-108397255D01*
X167692941Y-108273884D01*
X167620613Y-108221335D01*
X167577259Y-108165112D01*
X167571184Y-108094376D01*
X167604316Y-108031585D01*
X167620606Y-108017468D01*
X167692939Y-107964916D01*
X167816317Y-107841538D01*
X167918874Y-107700380D01*
X167998088Y-107544915D01*
X168052005Y-107378973D01*
X168079300Y-107206640D01*
X168079300Y-107032158D01*
X168052005Y-106859825D01*
X167998088Y-106693883D01*
X167918874Y-106538418D01*
X167816317Y-106397260D01*
X167816314Y-106397257D01*
X167816312Y-106397254D01*
X167692944Y-106273886D01*
X167692941Y-106273884D01*
X167692940Y-106273883D01*
X167692939Y-106273882D01*
X167620187Y-106221024D01*
X167576834Y-106164804D01*
X167570758Y-106094068D01*
X167603890Y-106031276D01*
X167620189Y-106017153D01*
X167692618Y-105964530D01*
X167815930Y-105841218D01*
X167815932Y-105841215D01*
X167918443Y-105700121D01*
X167997622Y-105544725D01*
X167997625Y-105544719D01*
X168051514Y-105378865D01*
X168052380Y-105373400D01*
X167089900Y-105373400D01*
X167141837Y-105283444D01*
X167170800Y-105175352D01*
X167170800Y-105063448D01*
X167141837Y-104955356D01*
X167127150Y-104929918D01*
X173137300Y-104929918D01*
X173137300Y-104929921D01*
X173137300Y-105108879D01*
X173164853Y-105247400D01*
X173172214Y-105284403D01*
X173189063Y-105325080D01*
X173240698Y-105449736D01*
X173340122Y-105598535D01*
X173466665Y-105725078D01*
X173615464Y-105824502D01*
X173780800Y-105892987D01*
X173956321Y-105927900D01*
X173956322Y-105927900D01*
X174135278Y-105927900D01*
X174135279Y-105927900D01*
X174310800Y-105892987D01*
X174476136Y-105824502D01*
X174624935Y-105725078D01*
X174751478Y-105598535D01*
X174850902Y-105449736D01*
X174919387Y-105284400D01*
X174954300Y-105108879D01*
X174954300Y-104929921D01*
X174919387Y-104754400D01*
X174850902Y-104589064D01*
X174751478Y-104440265D01*
X174624935Y-104313722D01*
X174476136Y-104214298D01*
X174358140Y-104165422D01*
X174310803Y-104145814D01*
X174310801Y-104145813D01*
X174310800Y-104145813D01*
X174222445Y-104128238D01*
X174135281Y-104110900D01*
X174135279Y-104110900D01*
X173956321Y-104110900D01*
X173956318Y-104110900D01*
X173825571Y-104136907D01*
X173780800Y-104145813D01*
X173780799Y-104145813D01*
X173780796Y-104145814D01*
X173649702Y-104200116D01*
X173623668Y-104210900D01*
X173615462Y-104214299D01*
X173466669Y-104313719D01*
X173466662Y-104313724D01*
X173340124Y-104440262D01*
X173340119Y-104440269D01*
X173240699Y-104589062D01*
X173172214Y-104754396D01*
X173137300Y-104929918D01*
X167127150Y-104929918D01*
X167089900Y-104865400D01*
X168052380Y-104865400D01*
X168051514Y-104859934D01*
X167997625Y-104694080D01*
X167997622Y-104694074D01*
X167918443Y-104538678D01*
X167815932Y-104397584D01*
X167815930Y-104397581D01*
X167692615Y-104274266D01*
X167620188Y-104221645D01*
X167576834Y-104165422D01*
X167570759Y-104094686D01*
X167603891Y-104031895D01*
X167620184Y-104017776D01*
X167692939Y-103964917D01*
X167816317Y-103841539D01*
X167918874Y-103700381D01*
X167998088Y-103544916D01*
X168052005Y-103378974D01*
X168079300Y-103206641D01*
X168079300Y-103032159D01*
X168052005Y-102859826D01*
X167998088Y-102693884D01*
X167918874Y-102538419D01*
X167816317Y-102397261D01*
X167816314Y-102397258D01*
X167816312Y-102397255D01*
X167692944Y-102273887D01*
X167692941Y-102273885D01*
X167692939Y-102273883D01*
X167620613Y-102221335D01*
X167577260Y-102165114D01*
X167571185Y-102094378D01*
X167604316Y-102031586D01*
X167620614Y-102017464D01*
X167692939Y-101964917D01*
X167816317Y-101841539D01*
X167918874Y-101700381D01*
X167998088Y-101544916D01*
X168052005Y-101378974D01*
X168079300Y-101206641D01*
X168079300Y-101032159D01*
X168052005Y-100859826D01*
X167998088Y-100693884D01*
X167918874Y-100538419D01*
X167816317Y-100397261D01*
X167816314Y-100397258D01*
X167816312Y-100397255D01*
X167692944Y-100273887D01*
X167692941Y-100273885D01*
X167692939Y-100273883D01*
X167551781Y-100171326D01*
X167396316Y-100092112D01*
X167396313Y-100092111D01*
X167396311Y-100092110D01*
X167230377Y-100038196D01*
X167230374Y-100038195D01*
X167058041Y-100010900D01*
X166433559Y-100010900D01*
X166261226Y-100038195D01*
X166261223Y-100038195D01*
X166261222Y-100038196D01*
X166095288Y-100092110D01*
X166095282Y-100092113D01*
X165939815Y-100171328D01*
X165819861Y-100258480D01*
X165752993Y-100282339D01*
X165683841Y-100266258D01*
X165671739Y-100258480D01*
X165551784Y-100171328D01*
X165551783Y-100171327D01*
X165551781Y-100171326D01*
X165396316Y-100092112D01*
X165396313Y-100092111D01*
X165396311Y-100092110D01*
X165230377Y-100038196D01*
X165230374Y-100038195D01*
X165058041Y-100010900D01*
X164433559Y-100010900D01*
X164261226Y-100038195D01*
X164261223Y-100038195D01*
X164261222Y-100038196D01*
X164095288Y-100092110D01*
X164095282Y-100092113D01*
X163939815Y-100171328D01*
X163798658Y-100273885D01*
X163798655Y-100273887D01*
X163675287Y-100397255D01*
X163675285Y-100397258D01*
X163572728Y-100538415D01*
X163493513Y-100693882D01*
X163493510Y-100693888D01*
X163439596Y-100859822D01*
X163439595Y-100859826D01*
X163412300Y-101032159D01*
X163412300Y-101206641D01*
X163439595Y-101378974D01*
X163493512Y-101544916D01*
X163572726Y-101700381D01*
X163675283Y-101841539D01*
X163675285Y-101841541D01*
X163675287Y-101841544D01*
X163798654Y-101964911D01*
X163798657Y-101964913D01*
X163798661Y-101964917D01*
X163870986Y-102017464D01*
X163914339Y-102073687D01*
X163920414Y-102144423D01*
X163887282Y-102207215D01*
X163870986Y-102221336D01*
X163798654Y-102273888D01*
X163675287Y-102397255D01*
X163675285Y-102397258D01*
X163572728Y-102538415D01*
X163493513Y-102693882D01*
X163493510Y-102693888D01*
X163439596Y-102859822D01*
X163439595Y-102859826D01*
X163412300Y-103032159D01*
X163412300Y-103206641D01*
X163426137Y-103294001D01*
X163417037Y-103364412D01*
X163371315Y-103418726D01*
X163303487Y-103439699D01*
X163235088Y-103420672D01*
X163230117Y-103417108D01*
X163230082Y-103417161D01*
X163076137Y-103314299D01*
X163076138Y-103314299D01*
X163076136Y-103314298D01*
X162959229Y-103265873D01*
X162910803Y-103245814D01*
X162910801Y-103245813D01*
X162910800Y-103245813D01*
X162822445Y-103228238D01*
X162735281Y-103210900D01*
X162735279Y-103210900D01*
X162556321Y-103210900D01*
X162556318Y-103210900D01*
X162425571Y-103236907D01*
X162380800Y-103245813D01*
X162380799Y-103245813D01*
X162380796Y-103245814D01*
X162215462Y-103314299D01*
X162066669Y-103413719D01*
X162066662Y-103413724D01*
X161940124Y-103540262D01*
X161940119Y-103540269D01*
X161840699Y-103689062D01*
X161772214Y-103854396D01*
X161737300Y-104029918D01*
X148441131Y-104029918D01*
X148324935Y-103913722D01*
X148176136Y-103814298D01*
X148059229Y-103765873D01*
X148010803Y-103745814D01*
X148010801Y-103745813D01*
X148010800Y-103745813D01*
X147922445Y-103728238D01*
X147835281Y-103710900D01*
X147835279Y-103710900D01*
X147656321Y-103710900D01*
X147656318Y-103710900D01*
X147525571Y-103736907D01*
X147480800Y-103745813D01*
X147480799Y-103745813D01*
X147480796Y-103745814D01*
X147315462Y-103814299D01*
X147166669Y-103913719D01*
X147166662Y-103913724D01*
X147040124Y-104040262D01*
X147040119Y-104040269D01*
X146969013Y-104146688D01*
X146940698Y-104189064D01*
X146931653Y-104210900D01*
X146872214Y-104354396D01*
X146837300Y-104529918D01*
X115746700Y-104529918D01*
X115746700Y-74812484D01*
X130387300Y-74812484D01*
X130387300Y-75026316D01*
X130398810Y-75098984D01*
X130420752Y-75237521D01*
X130467287Y-75380742D01*
X130486828Y-75440883D01*
X130583906Y-75631409D01*
X130709594Y-75804404D01*
X130709596Y-75804406D01*
X130709598Y-75804409D01*
X130860790Y-75955601D01*
X130860793Y-75955603D01*
X130860796Y-75955606D01*
X131033791Y-76081294D01*
X131224317Y-76178372D01*
X131427678Y-76244447D01*
X131427679Y-76244447D01*
X131427684Y-76244449D01*
X131638884Y-76277900D01*
X131638887Y-76277900D01*
X131852713Y-76277900D01*
X131852716Y-76277900D01*
X132063916Y-76244449D01*
X132267283Y-76178372D01*
X132457809Y-76081294D01*
X132630804Y-75955606D01*
X132733782Y-75852627D01*
X132796092Y-75818604D01*
X132866908Y-75823668D01*
X132923744Y-75866215D01*
X132940931Y-75897691D01*
X132984910Y-76015603D01*
X132984912Y-76015607D01*
X133072538Y-76132661D01*
X133189592Y-76220287D01*
X133189594Y-76220288D01*
X133189596Y-76220289D01*
X133248675Y-76242324D01*
X133326595Y-76271388D01*
X133326603Y-76271390D01*
X133387150Y-76277899D01*
X133387155Y-76277899D01*
X133387162Y-76277900D01*
X133387168Y-76277900D01*
X135184432Y-76277900D01*
X135184438Y-76277900D01*
X135184445Y-76277899D01*
X135184449Y-76277899D01*
X135244996Y-76271390D01*
X135244999Y-76271389D01*
X135245001Y-76271389D01*
X135382004Y-76220289D01*
X135397960Y-76208345D01*
X135499061Y-76132661D01*
X135586687Y-76015607D01*
X135586687Y-76015606D01*
X135586689Y-76015604D01*
X135630760Y-75897445D01*
X135637788Y-75878604D01*
X135637790Y-75878596D01*
X135644299Y-75818049D01*
X135644300Y-75818032D01*
X135644300Y-74020767D01*
X135644299Y-74020750D01*
X135637790Y-73960203D01*
X135637788Y-73960195D01*
X135586689Y-73823197D01*
X135586687Y-73823192D01*
X135499061Y-73706138D01*
X135382007Y-73618512D01*
X135382002Y-73618510D01*
X135245004Y-73567411D01*
X135244996Y-73567409D01*
X135184449Y-73560900D01*
X135184438Y-73560900D01*
X133387162Y-73560900D01*
X133387150Y-73560900D01*
X133326603Y-73567409D01*
X133326595Y-73567411D01*
X133189597Y-73618510D01*
X133189592Y-73618512D01*
X133072538Y-73706138D01*
X132984912Y-73823192D01*
X132984910Y-73823197D01*
X132940931Y-73941108D01*
X132898384Y-73997944D01*
X132831864Y-74022754D01*
X132762490Y-74007662D01*
X132733781Y-73986170D01*
X132630809Y-73883198D01*
X132630806Y-73883196D01*
X132630804Y-73883194D01*
X132500581Y-73788582D01*
X132457812Y-73757508D01*
X132457811Y-73757507D01*
X132457809Y-73757506D01*
X132267283Y-73660428D01*
X132267280Y-73660427D01*
X132267278Y-73660426D01*
X132063920Y-73594352D01*
X132063923Y-73594352D01*
X132024601Y-73588124D01*
X131852716Y-73560900D01*
X131638884Y-73560900D01*
X131427684Y-73594351D01*
X131427678Y-73594352D01*
X131224321Y-73660426D01*
X131224315Y-73660429D01*
X131033787Y-73757508D01*
X130860793Y-73883196D01*
X130860790Y-73883198D01*
X130709598Y-74034390D01*
X130709596Y-74034393D01*
X130583908Y-74207387D01*
X130486829Y-74397915D01*
X130486826Y-74397921D01*
X130420752Y-74601278D01*
X130420751Y-74601283D01*
X130420751Y-74601284D01*
X130387300Y-74812484D01*
X115746700Y-74812484D01*
X115746700Y-73043700D01*
X115766702Y-72975579D01*
X115820358Y-72929086D01*
X115872700Y-72917700D01*
X126086082Y-72917700D01*
X126159774Y-72887176D01*
X126216176Y-72830774D01*
X126246700Y-72757082D01*
X126246700Y-71212484D01*
X130522300Y-71212484D01*
X130522300Y-71426316D01*
X130550538Y-71604602D01*
X130555752Y-71637521D01*
X130621236Y-71839062D01*
X130621828Y-71840883D01*
X130718906Y-72031409D01*
X130718908Y-72031412D01*
X130732221Y-72049736D01*
X130844594Y-72204404D01*
X130844596Y-72204406D01*
X130844598Y-72204409D01*
X130995790Y-72355601D01*
X130995793Y-72355603D01*
X130995796Y-72355606D01*
X131168791Y-72481294D01*
X131359317Y-72578372D01*
X131562678Y-72644447D01*
X131562679Y-72644447D01*
X131562684Y-72644449D01*
X131773884Y-72677900D01*
X131773887Y-72677900D01*
X131987713Y-72677900D01*
X131987716Y-72677900D01*
X132198916Y-72644449D01*
X132402283Y-72578372D01*
X132592809Y-72481294D01*
X132765804Y-72355606D01*
X132868782Y-72252627D01*
X132931092Y-72218604D01*
X133001908Y-72223668D01*
X133058744Y-72266215D01*
X133075931Y-72297691D01*
X133119910Y-72415603D01*
X133119912Y-72415607D01*
X133207538Y-72532661D01*
X133324592Y-72620287D01*
X133324594Y-72620288D01*
X133324596Y-72620289D01*
X133356536Y-72632202D01*
X133461595Y-72671388D01*
X133461603Y-72671390D01*
X133522150Y-72677899D01*
X133522155Y-72677899D01*
X133522162Y-72677900D01*
X133522168Y-72677900D01*
X135319432Y-72677900D01*
X135319438Y-72677900D01*
X135319445Y-72677899D01*
X135319449Y-72677899D01*
X135379996Y-72671390D01*
X135379999Y-72671389D01*
X135380001Y-72671389D01*
X135517004Y-72620289D01*
X135572999Y-72578372D01*
X135634061Y-72532661D01*
X135721687Y-72415607D01*
X135721687Y-72415606D01*
X135721689Y-72415604D01*
X135772789Y-72278601D01*
X135775582Y-72252629D01*
X135779299Y-72218049D01*
X135779300Y-72218032D01*
X135779300Y-70420767D01*
X135779299Y-70420750D01*
X135772790Y-70360203D01*
X135772788Y-70360195D01*
X135739318Y-70270461D01*
X135721689Y-70223196D01*
X135721688Y-70223194D01*
X135721687Y-70223192D01*
X135634061Y-70106138D01*
X135517007Y-70018512D01*
X135517002Y-70018510D01*
X135380004Y-69967411D01*
X135379996Y-69967409D01*
X135319449Y-69960900D01*
X135319438Y-69960900D01*
X133522162Y-69960900D01*
X133522150Y-69960900D01*
X133461603Y-69967409D01*
X133461595Y-69967411D01*
X133324597Y-70018510D01*
X133324592Y-70018512D01*
X133207538Y-70106138D01*
X133119912Y-70223192D01*
X133119910Y-70223197D01*
X133075931Y-70341108D01*
X133033384Y-70397944D01*
X132966864Y-70422754D01*
X132897490Y-70407662D01*
X132868781Y-70386170D01*
X132765809Y-70283198D01*
X132765806Y-70283196D01*
X132765804Y-70283194D01*
X132592809Y-70157506D01*
X132402283Y-70060428D01*
X132402280Y-70060427D01*
X132402278Y-70060426D01*
X132198920Y-69994352D01*
X132198923Y-69994352D01*
X132159601Y-69988124D01*
X131987716Y-69960900D01*
X131773884Y-69960900D01*
X131562684Y-69994351D01*
X131562678Y-69994352D01*
X131359321Y-70060426D01*
X131359315Y-70060429D01*
X131168787Y-70157508D01*
X130995793Y-70283196D01*
X130995790Y-70283198D01*
X130844598Y-70434390D01*
X130844596Y-70434393D01*
X130718908Y-70607387D01*
X130621829Y-70797915D01*
X130621826Y-70797921D01*
X130555752Y-71001278D01*
X130555751Y-71001283D01*
X130555751Y-71001284D01*
X130522300Y-71212484D01*
X126246700Y-71212484D01*
X126246700Y-67512484D01*
X130522300Y-67512484D01*
X130522300Y-67726316D01*
X130555751Y-67937516D01*
X130555752Y-67937521D01*
X130621826Y-68140878D01*
X130621828Y-68140883D01*
X130718906Y-68331409D01*
X130718908Y-68331412D01*
X130737868Y-68357508D01*
X130844594Y-68504404D01*
X130844596Y-68504406D01*
X130844598Y-68504409D01*
X130995790Y-68655601D01*
X130995793Y-68655603D01*
X130995796Y-68655606D01*
X131168791Y-68781294D01*
X131359317Y-68878372D01*
X131562678Y-68944447D01*
X131562679Y-68944447D01*
X131562684Y-68944449D01*
X131773884Y-68977900D01*
X131773887Y-68977900D01*
X131987713Y-68977900D01*
X131987716Y-68977900D01*
X132198916Y-68944449D01*
X132402283Y-68878372D01*
X132592809Y-68781294D01*
X132765804Y-68655606D01*
X132868782Y-68552627D01*
X132931092Y-68518604D01*
X133001908Y-68523668D01*
X133058744Y-68566215D01*
X133075931Y-68597691D01*
X133119910Y-68715603D01*
X133119912Y-68715607D01*
X133207538Y-68832661D01*
X133324592Y-68920287D01*
X133324594Y-68920288D01*
X133324596Y-68920289D01*
X133374518Y-68938909D01*
X133461595Y-68971388D01*
X133461603Y-68971390D01*
X133522150Y-68977899D01*
X133522155Y-68977899D01*
X133522162Y-68977900D01*
X133522168Y-68977900D01*
X135319432Y-68977900D01*
X135319438Y-68977900D01*
X135319445Y-68977899D01*
X135319449Y-68977899D01*
X135379996Y-68971390D01*
X135379999Y-68971389D01*
X135380001Y-68971389D01*
X135517004Y-68920289D01*
X135525964Y-68913582D01*
X135634061Y-68832661D01*
X135721687Y-68715607D01*
X135721689Y-68715603D01*
X135744067Y-68655606D01*
X135757068Y-68620750D01*
X138812300Y-68620750D01*
X138812300Y-70418049D01*
X138818809Y-70478596D01*
X138818811Y-70478604D01*
X138869910Y-70615602D01*
X138869912Y-70615607D01*
X138957538Y-70732661D01*
X139074592Y-70820287D01*
X139074594Y-70820288D01*
X139074596Y-70820289D01*
X139092868Y-70827104D01*
X139211595Y-70871388D01*
X139211603Y-70871390D01*
X139272150Y-70877899D01*
X139272155Y-70877899D01*
X139272162Y-70877900D01*
X139272168Y-70877900D01*
X141069432Y-70877900D01*
X141069438Y-70877900D01*
X141069445Y-70877899D01*
X141069449Y-70877899D01*
X141129996Y-70871390D01*
X141129999Y-70871389D01*
X141130001Y-70871389D01*
X141267004Y-70820289D01*
X141296890Y-70797917D01*
X141384061Y-70732661D01*
X141471687Y-70615607D01*
X141471687Y-70615606D01*
X141471689Y-70615604D01*
X141515669Y-70497688D01*
X141558214Y-70440856D01*
X141624734Y-70416045D01*
X141694108Y-70431136D01*
X141722818Y-70452629D01*
X141825790Y-70555601D01*
X141825793Y-70555603D01*
X141825796Y-70555606D01*
X141998791Y-70681294D01*
X142189317Y-70778372D01*
X142392678Y-70844447D01*
X142392679Y-70844447D01*
X142392684Y-70844449D01*
X142603884Y-70877900D01*
X142603887Y-70877900D01*
X142817713Y-70877900D01*
X142817716Y-70877900D01*
X143028916Y-70844449D01*
X143232283Y-70778372D01*
X143422809Y-70681294D01*
X143595804Y-70555606D01*
X143747006Y-70404404D01*
X143872694Y-70231409D01*
X143969772Y-70040883D01*
X144002806Y-69939212D01*
X147067300Y-69939212D01*
X147067300Y-70299587D01*
X147107648Y-70657694D01*
X147144760Y-70820289D01*
X147187838Y-71009026D01*
X147187840Y-71009032D01*
X147187839Y-71009032D01*
X147306854Y-71349157D01*
X147306859Y-71349171D01*
X147306861Y-71349175D01*
X147312508Y-71360900D01*
X147463222Y-71673860D01*
X147463223Y-71673863D01*
X147654943Y-71978984D01*
X147654947Y-71978991D01*
X147879639Y-72260745D01*
X148134454Y-72515560D01*
X148416208Y-72740252D01*
X148416215Y-72740256D01*
X148721336Y-72931976D01*
X148721338Y-72931976D01*
X148721342Y-72931979D01*
X149046025Y-73088339D01*
X149046040Y-73088344D01*
X149046042Y-73088345D01*
X149386167Y-73207360D01*
X149386170Y-73207360D01*
X149386174Y-73207362D01*
X149737505Y-73287551D01*
X149737506Y-73287551D01*
X149737509Y-73287552D01*
X149948707Y-73311347D01*
X150095612Y-73327900D01*
X150095614Y-73327900D01*
X150455988Y-73327900D01*
X150546930Y-73317653D01*
X150814091Y-73287552D01*
X151165426Y-73207362D01*
X151505575Y-73088339D01*
X151566057Y-73059212D01*
X162627300Y-73059212D01*
X162627300Y-73419587D01*
X162667648Y-73777694D01*
X162694726Y-73896328D01*
X162747838Y-74129026D01*
X162747840Y-74129032D01*
X162747839Y-74129032D01*
X162866854Y-74469157D01*
X162866862Y-74469177D01*
X163023222Y-74793860D01*
X163023223Y-74793863D01*
X163214943Y-75098984D01*
X163214947Y-75098991D01*
X163439639Y-75380745D01*
X163694454Y-75635560D01*
X163976208Y-75860252D01*
X163976215Y-75860256D01*
X164281336Y-76051976D01*
X164281338Y-76051976D01*
X164281342Y-76051979D01*
X164606025Y-76208339D01*
X164606040Y-76208344D01*
X164606042Y-76208345D01*
X164946167Y-76327360D01*
X164946170Y-76327360D01*
X164946174Y-76327362D01*
X165297505Y-76407551D01*
X165297506Y-76407551D01*
X165297509Y-76407552D01*
X165508707Y-76431347D01*
X165655612Y-76447900D01*
X165655614Y-76447900D01*
X166015988Y-76447900D01*
X166106930Y-76437653D01*
X166374091Y-76407552D01*
X166725426Y-76327362D01*
X167065575Y-76208339D01*
X167390258Y-76051979D01*
X167695393Y-75860251D01*
X167977142Y-75635563D01*
X168231963Y-75380742D01*
X168456651Y-75098993D01*
X168648379Y-74793858D01*
X168804739Y-74469175D01*
X168813602Y-74443846D01*
X184787300Y-74443846D01*
X184787300Y-75694944D01*
X184797912Y-75798825D01*
X184830673Y-75897691D01*
X184853685Y-75967138D01*
X184924097Y-76081294D01*
X184950623Y-76124298D01*
X184948099Y-76125854D01*
X184969622Y-76179194D01*
X184956374Y-76248944D01*
X184950143Y-76259090D01*
X184950314Y-76259195D01*
X184947730Y-76263411D01*
X184868513Y-76418882D01*
X184868510Y-76418888D01*
X184826272Y-76548887D01*
X184814595Y-76584826D01*
X184787300Y-76757159D01*
X184787300Y-77381641D01*
X184814595Y-77553974D01*
X184814596Y-77553977D01*
X184858230Y-77688273D01*
X184868512Y-77719916D01*
X184874752Y-77732162D01*
X184947728Y-77875384D01*
X184970435Y-77906637D01*
X185050283Y-78016539D01*
X185050285Y-78016541D01*
X185050287Y-78016544D01*
X185173655Y-78139912D01*
X185173658Y-78139914D01*
X185173661Y-78139917D01*
X185314819Y-78242474D01*
X185470284Y-78321688D01*
X185636226Y-78375605D01*
X185808559Y-78402900D01*
X185808562Y-78402900D01*
X185983038Y-78402900D01*
X185983041Y-78402900D01*
X186155374Y-78375605D01*
X186321316Y-78321688D01*
X186476781Y-78242474D01*
X186617939Y-78139917D01*
X186741317Y-78016539D01*
X186793864Y-77944213D01*
X186850086Y-77900860D01*
X186920822Y-77894785D01*
X186983614Y-77927916D01*
X186997735Y-77944213D01*
X187050283Y-78016539D01*
X187050285Y-78016541D01*
X187050287Y-78016544D01*
X187173655Y-78139912D01*
X187173658Y-78139914D01*
X187173661Y-78139917D01*
X187314819Y-78242474D01*
X187470284Y-78321688D01*
X187636226Y-78375605D01*
X187808559Y-78402900D01*
X187808562Y-78402900D01*
X187983038Y-78402900D01*
X187983041Y-78402900D01*
X188155374Y-78375605D01*
X188321316Y-78321688D01*
X188476781Y-78242474D01*
X188617939Y-78139917D01*
X188741317Y-78016539D01*
X188843874Y-77875381D01*
X188916850Y-77732159D01*
X194712300Y-77732159D01*
X194712300Y-77906641D01*
X194739595Y-78078974D01*
X194739596Y-78078977D01*
X194792718Y-78242474D01*
X194793512Y-78244916D01*
X194860101Y-78375603D01*
X194872728Y-78400384D01*
X194890891Y-78425383D01*
X194975283Y-78541539D01*
X194975285Y-78541541D01*
X194975287Y-78541544D01*
X195098654Y-78664911D01*
X195098657Y-78664913D01*
X195098661Y-78664917D01*
X195137949Y-78693461D01*
X195170986Y-78717464D01*
X195214339Y-78773687D01*
X195220414Y-78844423D01*
X195187282Y-78907215D01*
X195170986Y-78921336D01*
X195098654Y-78973888D01*
X194975287Y-79097255D01*
X194975285Y-79097258D01*
X194872728Y-79238415D01*
X194793513Y-79393882D01*
X194793510Y-79393888D01*
X194739596Y-79559822D01*
X194739595Y-79559826D01*
X194712300Y-79732159D01*
X194712300Y-79906641D01*
X194739595Y-80078974D01*
X194793512Y-80244916D01*
X194872726Y-80400381D01*
X194872728Y-80400384D01*
X194890892Y-80425384D01*
X194975283Y-80541539D01*
X194975285Y-80541541D01*
X194975287Y-80541544D01*
X195098655Y-80664912D01*
X195098658Y-80664914D01*
X195098661Y-80664917D01*
X195239819Y-80767474D01*
X195395284Y-80846688D01*
X195561226Y-80900605D01*
X195733559Y-80927900D01*
X195733562Y-80927900D01*
X196358038Y-80927900D01*
X196358041Y-80927900D01*
X196530374Y-80900605D01*
X196696316Y-80846688D01*
X196851781Y-80767474D01*
X196971740Y-80680318D01*
X197038606Y-80656461D01*
X197107758Y-80672541D01*
X197119853Y-80680313D01*
X197239819Y-80767474D01*
X197395284Y-80846688D01*
X197561226Y-80900605D01*
X197733559Y-80927900D01*
X197733562Y-80927900D01*
X198358038Y-80927900D01*
X198358041Y-80927900D01*
X198530374Y-80900605D01*
X198696316Y-80846688D01*
X198851781Y-80767474D01*
X198992939Y-80664917D01*
X199116317Y-80541539D01*
X199218874Y-80400381D01*
X199298088Y-80244916D01*
X199352005Y-80078974D01*
X199379300Y-79906641D01*
X199379300Y-79732159D01*
X199352005Y-79559826D01*
X199298088Y-79393884D01*
X199218874Y-79238419D01*
X199116317Y-79097261D01*
X199116314Y-79097258D01*
X199116312Y-79097255D01*
X199017272Y-78998215D01*
X198983246Y-78935903D01*
X198988311Y-78865088D01*
X199030858Y-78808252D01*
X199040198Y-78801894D01*
X199094452Y-78768430D01*
X199219830Y-78643052D01*
X199312915Y-78492138D01*
X199368687Y-78323826D01*
X199379300Y-78219945D01*
X199379299Y-77418856D01*
X199368687Y-77314974D01*
X199312915Y-77146662D01*
X199219830Y-76995748D01*
X199219829Y-76995747D01*
X199219824Y-76995741D01*
X199217929Y-76993846D01*
X201437300Y-76993846D01*
X201437300Y-78244944D01*
X201447912Y-78348825D01*
X201495401Y-78492137D01*
X201503685Y-78517138D01*
X201594836Y-78664917D01*
X201600623Y-78674298D01*
X201598099Y-78675854D01*
X201619622Y-78729194D01*
X201606374Y-78798944D01*
X201600143Y-78809090D01*
X201600314Y-78809195D01*
X201597730Y-78813411D01*
X201518513Y-78968882D01*
X201518510Y-78968888D01*
X201499712Y-79026744D01*
X201464595Y-79134826D01*
X201437300Y-79307159D01*
X201437300Y-79931641D01*
X201464595Y-80103974D01*
X201464596Y-80103977D01*
X201510387Y-80244911D01*
X201518512Y-80269916D01*
X201597726Y-80425381D01*
X201597728Y-80425384D01*
X201623083Y-80460282D01*
X201700283Y-80566539D01*
X201700285Y-80566541D01*
X201700287Y-80566544D01*
X201823655Y-80689912D01*
X201823658Y-80689914D01*
X201823661Y-80689917D01*
X201964819Y-80792474D01*
X202120284Y-80871688D01*
X202286226Y-80925605D01*
X202458559Y-80952900D01*
X202458562Y-80952900D01*
X202633038Y-80952900D01*
X202633041Y-80952900D01*
X202805374Y-80925605D01*
X202971316Y-80871688D01*
X203126781Y-80792474D01*
X203267939Y-80689917D01*
X203391317Y-80566539D01*
X203443864Y-80494213D01*
X203500086Y-80450860D01*
X203570822Y-80444785D01*
X203633614Y-80477916D01*
X203647735Y-80494213D01*
X203700283Y-80566539D01*
X203700285Y-80566541D01*
X203700287Y-80566544D01*
X203823655Y-80689912D01*
X203823658Y-80689914D01*
X203823661Y-80689917D01*
X203964819Y-80792474D01*
X204120284Y-80871688D01*
X204286226Y-80925605D01*
X204458559Y-80952900D01*
X204458562Y-80952900D01*
X204633038Y-80952900D01*
X204633041Y-80952900D01*
X204805374Y-80925605D01*
X204971316Y-80871688D01*
X205126781Y-80792474D01*
X205267939Y-80689917D01*
X205391317Y-80566539D01*
X205493874Y-80425381D01*
X205573088Y-80269916D01*
X205627005Y-80103974D01*
X205654300Y-79931641D01*
X205654300Y-79307159D01*
X205627005Y-79134826D01*
X205573088Y-78968884D01*
X205493874Y-78813419D01*
X205406718Y-78693459D01*
X205382861Y-78626594D01*
X205398941Y-78557442D01*
X205406713Y-78545346D01*
X205493874Y-78425381D01*
X205573088Y-78269916D01*
X205627005Y-78103974D01*
X205654300Y-77931641D01*
X205654300Y-77307159D01*
X205627005Y-77134826D01*
X205573088Y-76968884D01*
X205493874Y-76813419D01*
X205391317Y-76672261D01*
X205391314Y-76672258D01*
X205391312Y-76672255D01*
X205267944Y-76548887D01*
X205267941Y-76548885D01*
X205267939Y-76548883D01*
X205161682Y-76471683D01*
X205126784Y-76446328D01*
X205126783Y-76446327D01*
X205126781Y-76446326D01*
X204971316Y-76367112D01*
X204971313Y-76367111D01*
X204971311Y-76367110D01*
X204805377Y-76313196D01*
X204805374Y-76313195D01*
X204633041Y-76285900D01*
X204458559Y-76285900D01*
X204286226Y-76313195D01*
X204286223Y-76313195D01*
X204286222Y-76313196D01*
X204120288Y-76367110D01*
X204120282Y-76367113D01*
X203964815Y-76446328D01*
X203823660Y-76548883D01*
X203724615Y-76647928D01*
X203662303Y-76681953D01*
X203591487Y-76676887D01*
X203534651Y-76634340D01*
X203528284Y-76624986D01*
X203494830Y-76570748D01*
X203494827Y-76570745D01*
X203494824Y-76570741D01*
X203369458Y-76445375D01*
X203369452Y-76445370D01*
X203326518Y-76418888D01*
X203218538Y-76352285D01*
X203100570Y-76313195D01*
X203050227Y-76296513D01*
X203050220Y-76296512D01*
X202946353Y-76285900D01*
X202145255Y-76285900D01*
X202041374Y-76296512D01*
X201873061Y-76352285D01*
X201722147Y-76445370D01*
X201722141Y-76445375D01*
X201596775Y-76570741D01*
X201596770Y-76570747D01*
X201503685Y-76721662D01*
X201447913Y-76889972D01*
X201447912Y-76889979D01*
X201437300Y-76993846D01*
X199217929Y-76993846D01*
X199094458Y-76870375D01*
X199094452Y-76870370D01*
X199002120Y-76813419D01*
X198943538Y-76777285D01*
X198825570Y-76738195D01*
X198775227Y-76721513D01*
X198775220Y-76721512D01*
X198671353Y-76710900D01*
X197420255Y-76710900D01*
X197316374Y-76721512D01*
X197148061Y-76777285D01*
X197054174Y-76835195D01*
X196997148Y-76870370D01*
X196997147Y-76870370D01*
X196990902Y-76874223D01*
X196989350Y-76871708D01*
X196935948Y-76893227D01*
X196866204Y-76879948D01*
X196856109Y-76873744D01*
X196856005Y-76873914D01*
X196851788Y-76871330D01*
X196851782Y-76871327D01*
X196851781Y-76871326D01*
X196696316Y-76792112D01*
X196696313Y-76792111D01*
X196696311Y-76792110D01*
X196530377Y-76738196D01*
X196530374Y-76738195D01*
X196358041Y-76710900D01*
X195733559Y-76710900D01*
X195561226Y-76738195D01*
X195561223Y-76738195D01*
X195561222Y-76738196D01*
X195395288Y-76792110D01*
X195395282Y-76792113D01*
X195239815Y-76871328D01*
X195098658Y-76973885D01*
X195098655Y-76973887D01*
X194975287Y-77097255D01*
X194975285Y-77097258D01*
X194872728Y-77238415D01*
X194793513Y-77393882D01*
X194793510Y-77393888D01*
X194785398Y-77418856D01*
X194739595Y-77559826D01*
X194712300Y-77732159D01*
X188916850Y-77732159D01*
X188923088Y-77719916D01*
X188977005Y-77553974D01*
X189004300Y-77381641D01*
X189004300Y-76757159D01*
X188977005Y-76584826D01*
X188923088Y-76418884D01*
X188843874Y-76263419D01*
X188756718Y-76143459D01*
X188732861Y-76076594D01*
X188748941Y-76007442D01*
X188756713Y-75995346D01*
X188843874Y-75875381D01*
X188923088Y-75719916D01*
X188977005Y-75553974D01*
X189004300Y-75381641D01*
X189004300Y-74757159D01*
X188977005Y-74584826D01*
X188923088Y-74418884D01*
X188843874Y-74263419D01*
X188741317Y-74122261D01*
X188741314Y-74122258D01*
X188741312Y-74122255D01*
X188617944Y-73998887D01*
X188617941Y-73998885D01*
X188617939Y-73998883D01*
X188476781Y-73896326D01*
X188321316Y-73817112D01*
X188321313Y-73817111D01*
X188321311Y-73817110D01*
X188155377Y-73763196D01*
X188155374Y-73763195D01*
X187983041Y-73735900D01*
X187808559Y-73735900D01*
X187636226Y-73763195D01*
X187636223Y-73763195D01*
X187636222Y-73763196D01*
X187470288Y-73817110D01*
X187470282Y-73817113D01*
X187314815Y-73896328D01*
X187173660Y-73998883D01*
X187074615Y-74097928D01*
X187012303Y-74131953D01*
X186941487Y-74126887D01*
X186884651Y-74084340D01*
X186878284Y-74074986D01*
X186844830Y-74020748D01*
X186844827Y-74020745D01*
X186844824Y-74020741D01*
X186719458Y-73895375D01*
X186719452Y-73895370D01*
X186699712Y-73883194D01*
X186568538Y-73802285D01*
X186450570Y-73763195D01*
X186400227Y-73746513D01*
X186400220Y-73746512D01*
X186296353Y-73735900D01*
X185495255Y-73735900D01*
X185391374Y-73746512D01*
X185223061Y-73802285D01*
X185072147Y-73895370D01*
X185072141Y-73895375D01*
X184946775Y-74020741D01*
X184946770Y-74020747D01*
X184853685Y-74171662D01*
X184797913Y-74339972D01*
X184797912Y-74339979D01*
X184787300Y-74443846D01*
X168813602Y-74443846D01*
X168822337Y-74418884D01*
X168829284Y-74399031D01*
X168829284Y-74399030D01*
X168923760Y-74129032D01*
X168923760Y-74129031D01*
X168923762Y-74129026D01*
X169003952Y-73777691D01*
X169044300Y-73419586D01*
X169044300Y-73059214D01*
X169003952Y-72701109D01*
X168923762Y-72349774D01*
X168915121Y-72325080D01*
X168876724Y-72215346D01*
X168864327Y-72179918D01*
X180737300Y-72179918D01*
X180737300Y-72179921D01*
X180737300Y-72358879D01*
X180772213Y-72534400D01*
X180840698Y-72699736D01*
X180940122Y-72848535D01*
X181066665Y-72975078D01*
X181215464Y-73074502D01*
X181380800Y-73142987D01*
X181556321Y-73177900D01*
X181556322Y-73177900D01*
X181735278Y-73177900D01*
X181735279Y-73177900D01*
X181910800Y-73142987D01*
X182076136Y-73074502D01*
X182224935Y-72975078D01*
X182351478Y-72848535D01*
X182450902Y-72699736D01*
X182519387Y-72534400D01*
X182554300Y-72358879D01*
X182554300Y-72279918D01*
X183987300Y-72279918D01*
X183987300Y-72458881D01*
X184004638Y-72546045D01*
X184019406Y-72620289D01*
X184022214Y-72634403D01*
X184026375Y-72644449D01*
X184090698Y-72799736D01*
X184190122Y-72948535D01*
X184316665Y-73075078D01*
X184465464Y-73174502D01*
X184630800Y-73242987D01*
X184806321Y-73277900D01*
X184806322Y-73277900D01*
X184985278Y-73277900D01*
X184985279Y-73277900D01*
X185160800Y-73242987D01*
X185326136Y-73174502D01*
X185474935Y-73075078D01*
X185601478Y-72948535D01*
X185700902Y-72799736D01*
X185769387Y-72634400D01*
X185804300Y-72458879D01*
X185804300Y-72279921D01*
X185784408Y-72179918D01*
X187237300Y-72179918D01*
X187237300Y-72179921D01*
X187237300Y-72358879D01*
X187272213Y-72534400D01*
X187340698Y-72699736D01*
X187440122Y-72848535D01*
X187566665Y-72975078D01*
X187715464Y-73074502D01*
X187880800Y-73142987D01*
X188056321Y-73177900D01*
X188056322Y-73177900D01*
X188235278Y-73177900D01*
X188235279Y-73177900D01*
X188410800Y-73142987D01*
X188576136Y-73074502D01*
X188724935Y-72975078D01*
X188851478Y-72848535D01*
X188950902Y-72699736D01*
X189019387Y-72534400D01*
X189054300Y-72358879D01*
X189054300Y-72279918D01*
X190687300Y-72279918D01*
X190687300Y-72458881D01*
X190704638Y-72546045D01*
X190719406Y-72620289D01*
X190722214Y-72634403D01*
X190726375Y-72644449D01*
X190790698Y-72799736D01*
X190890122Y-72948535D01*
X191016665Y-73075078D01*
X191165464Y-73174502D01*
X191330800Y-73242987D01*
X191506321Y-73277900D01*
X191506322Y-73277900D01*
X191685278Y-73277900D01*
X191685279Y-73277900D01*
X191860800Y-73242987D01*
X192026136Y-73174502D01*
X192174935Y-73075078D01*
X192301478Y-72948535D01*
X192400902Y-72799736D01*
X192469387Y-72634400D01*
X192504300Y-72458879D01*
X192504300Y-72452318D01*
X192524302Y-72384197D01*
X192577958Y-72337704D01*
X192648232Y-72327600D01*
X192700300Y-72347552D01*
X192815464Y-72424502D01*
X192980800Y-72492987D01*
X193156321Y-72527900D01*
X193156322Y-72527900D01*
X193335278Y-72527900D01*
X193335279Y-72527900D01*
X193510800Y-72492987D01*
X193676136Y-72424502D01*
X193824935Y-72325078D01*
X193951478Y-72198535D01*
X194050902Y-72049736D01*
X194059111Y-72029918D01*
X198337300Y-72029918D01*
X198337300Y-72208881D01*
X198346002Y-72252629D01*
X198372213Y-72384400D01*
X198440698Y-72549736D01*
X198540122Y-72698535D01*
X198666665Y-72825078D01*
X198815464Y-72924502D01*
X198980800Y-72992987D01*
X199156321Y-73027900D01*
X199156322Y-73027900D01*
X199335278Y-73027900D01*
X199335279Y-73027900D01*
X199510800Y-72992987D01*
X199676136Y-72924502D01*
X199824935Y-72825078D01*
X199906705Y-72743308D01*
X199969017Y-72709282D01*
X200039832Y-72714347D01*
X200084895Y-72743308D01*
X200166665Y-72825078D01*
X200315464Y-72924502D01*
X200480800Y-72992987D01*
X200656321Y-73027900D01*
X200656322Y-73027900D01*
X200835278Y-73027900D01*
X200835279Y-73027900D01*
X201010800Y-72992987D01*
X201176136Y-72924502D01*
X201324935Y-72825078D01*
X201451478Y-72698535D01*
X201550902Y-72549736D01*
X201619387Y-72384400D01*
X201654300Y-72208879D01*
X201654300Y-72029921D01*
X201619387Y-71854400D01*
X201550902Y-71689064D01*
X201451478Y-71540265D01*
X201422809Y-71511596D01*
X201388783Y-71449284D01*
X201393848Y-71378469D01*
X201436395Y-71321633D01*
X201502915Y-71296822D01*
X201560122Y-71306092D01*
X201591631Y-71319144D01*
X201786471Y-71357900D01*
X201786472Y-71357900D01*
X201985128Y-71357900D01*
X201985129Y-71357900D01*
X202179969Y-71319144D01*
X202363504Y-71243121D01*
X202528681Y-71132753D01*
X202669153Y-70992281D01*
X202779521Y-70827104D01*
X202855544Y-70643569D01*
X202894300Y-70448729D01*
X202894300Y-69150071D01*
X202855544Y-68955231D01*
X202779521Y-68771696D01*
X202669153Y-68606519D01*
X202528681Y-68466047D01*
X202363504Y-68355679D01*
X202179969Y-68279656D01*
X201985131Y-68240900D01*
X201985129Y-68240900D01*
X201786471Y-68240900D01*
X201786468Y-68240900D01*
X201591630Y-68279656D01*
X201591625Y-68279658D01*
X201408096Y-68355679D01*
X201242923Y-68466044D01*
X201242916Y-68466049D01*
X201102449Y-68606516D01*
X201102444Y-68606523D01*
X200990642Y-68773846D01*
X200936165Y-68819374D01*
X200865722Y-68828222D01*
X200819633Y-68808323D01*
X200818773Y-68809814D01*
X200679482Y-68729394D01*
X200679480Y-68729393D01*
X200679478Y-68729392D01*
X200532093Y-68689900D01*
X200379507Y-68689900D01*
X200232122Y-68729392D01*
X200232117Y-68729394D01*
X200099982Y-68805682D01*
X200099972Y-68805690D01*
X199992090Y-68913572D01*
X199992082Y-68913582D01*
X199915794Y-69045717D01*
X199915792Y-69045722D01*
X199876300Y-69193107D01*
X199876300Y-69345693D01*
X199903356Y-69446665D01*
X199915792Y-69493077D01*
X199915794Y-69493082D01*
X199992082Y-69625217D01*
X199992090Y-69625227D01*
X200099972Y-69733109D01*
X200099977Y-69733113D01*
X200099979Y-69733115D01*
X200099980Y-69733116D01*
X200099982Y-69733117D01*
X200192862Y-69786741D01*
X200232122Y-69809408D01*
X200379507Y-69848900D01*
X200379510Y-69848900D01*
X200532090Y-69848900D01*
X200532093Y-69848900D01*
X200679478Y-69809408D01*
X200688300Y-69804314D01*
X200757293Y-69787576D01*
X200824385Y-69810795D01*
X200868273Y-69866601D01*
X200877300Y-69913433D01*
X200877300Y-70448731D01*
X200898559Y-70555606D01*
X200916056Y-70643569D01*
X200992079Y-70827104D01*
X201102447Y-70992281D01*
X201102449Y-70992283D01*
X201152144Y-71041978D01*
X201186170Y-71104290D01*
X201181105Y-71175105D01*
X201138558Y-71231941D01*
X201072038Y-71256752D01*
X201014833Y-71247483D01*
X201010804Y-71245814D01*
X201010800Y-71245813D01*
X200941060Y-71231941D01*
X200835281Y-71210900D01*
X200835279Y-71210900D01*
X200656321Y-71210900D01*
X200656318Y-71210900D01*
X200525571Y-71236907D01*
X200480800Y-71245813D01*
X200480799Y-71245813D01*
X200480796Y-71245814D01*
X200357654Y-71296822D01*
X200335273Y-71306093D01*
X200315462Y-71314299D01*
X200166669Y-71413719D01*
X200166667Y-71413720D01*
X200084895Y-71495492D01*
X200022583Y-71529517D01*
X199951767Y-71524451D01*
X199906705Y-71495492D01*
X199872113Y-71460900D01*
X199824935Y-71413722D01*
X199676136Y-71314298D01*
X199514832Y-71247483D01*
X199510803Y-71245814D01*
X199510801Y-71245813D01*
X199510800Y-71245813D01*
X199422445Y-71228238D01*
X199335281Y-71210900D01*
X199335279Y-71210900D01*
X199156321Y-71210900D01*
X199156318Y-71210900D01*
X199025571Y-71236907D01*
X198980800Y-71245813D01*
X198980799Y-71245813D01*
X198980796Y-71245814D01*
X198857654Y-71296822D01*
X198835273Y-71306093D01*
X198815462Y-71314299D01*
X198666669Y-71413719D01*
X198666662Y-71413724D01*
X198540124Y-71540262D01*
X198540119Y-71540269D01*
X198457630Y-71663724D01*
X198440698Y-71689064D01*
X198426516Y-71723302D01*
X198372214Y-71854396D01*
X198337300Y-72029918D01*
X194059111Y-72029918D01*
X194081645Y-71975517D01*
X194081647Y-71975513D01*
X194119385Y-71884405D01*
X194119385Y-71884404D01*
X194119387Y-71884400D01*
X194154300Y-71708879D01*
X194154300Y-71529921D01*
X194119387Y-71354400D01*
X194050902Y-71189064D01*
X194020580Y-71143684D01*
X193999366Y-71075933D01*
X194018149Y-71007466D01*
X194027950Y-70993746D01*
X194029146Y-70992287D01*
X194029153Y-70992281D01*
X194139521Y-70827104D01*
X194215544Y-70643569D01*
X194254300Y-70448729D01*
X194254300Y-69913433D01*
X194274302Y-69845312D01*
X194327958Y-69798819D01*
X194398232Y-69788715D01*
X194443298Y-69804313D01*
X194452122Y-69809408D01*
X194599507Y-69848900D01*
X194599510Y-69848900D01*
X194752090Y-69848900D01*
X194752093Y-69848900D01*
X194899478Y-69809408D01*
X195031621Y-69733115D01*
X195139080Y-69625655D01*
X195201390Y-69591632D01*
X195272206Y-69596696D01*
X195329042Y-69639243D01*
X195351753Y-69690171D01*
X195356211Y-69712587D01*
X195387745Y-69788715D01*
X195424696Y-69877921D01*
X195524120Y-70026720D01*
X195650663Y-70153263D01*
X195799462Y-70252687D01*
X195964798Y-70321172D01*
X196140319Y-70356085D01*
X196140320Y-70356085D01*
X196319276Y-70356085D01*
X196319277Y-70356085D01*
X196494798Y-70321172D01*
X196660134Y-70252687D01*
X196808933Y-70153263D01*
X196935476Y-70026720D01*
X197034900Y-69877921D01*
X197103385Y-69712585D01*
X197138298Y-69537064D01*
X197138298Y-69358106D01*
X197103385Y-69182585D01*
X197034900Y-69017249D01*
X196935476Y-68868450D01*
X196808933Y-68741907D01*
X196660134Y-68642483D01*
X196505911Y-68578601D01*
X196494801Y-68573999D01*
X196494799Y-68573998D01*
X196494798Y-68573998D01*
X196387368Y-68552629D01*
X196319279Y-68539085D01*
X196319277Y-68539085D01*
X196140319Y-68539085D01*
X196140316Y-68539085D01*
X196010356Y-68564936D01*
X195964798Y-68573998D01*
X195964797Y-68573998D01*
X195964794Y-68573999D01*
X195799460Y-68642484D01*
X195650667Y-68741904D01*
X195650660Y-68741909D01*
X195524122Y-68868447D01*
X195524117Y-68868454D01*
X195424692Y-69017254D01*
X195423246Y-69019960D01*
X195422116Y-69021109D01*
X195421257Y-69022396D01*
X195421012Y-69022232D01*
X195373490Y-69070604D01*
X195304252Y-69086309D01*
X195237515Y-69062087D01*
X195203010Y-69023555D01*
X195139517Y-68913582D01*
X195139509Y-68913572D01*
X195031627Y-68805690D01*
X195031617Y-68805682D01*
X194899482Y-68729394D01*
X194899480Y-68729393D01*
X194899478Y-68729392D01*
X194752093Y-68689900D01*
X194599507Y-68689900D01*
X194452122Y-68729392D01*
X194452117Y-68729394D01*
X194312827Y-68809814D01*
X194311744Y-68807939D01*
X194256189Y-68829409D01*
X194186642Y-68815134D01*
X194140957Y-68773846D01*
X194139521Y-68771698D01*
X194139521Y-68771696D01*
X194029153Y-68606519D01*
X193888681Y-68466047D01*
X193723504Y-68355679D01*
X193539969Y-68279656D01*
X193345131Y-68240900D01*
X193345129Y-68240900D01*
X193146471Y-68240900D01*
X193146468Y-68240900D01*
X192951630Y-68279656D01*
X192951625Y-68279658D01*
X192768096Y-68355679D01*
X192602923Y-68466044D01*
X192602916Y-68466049D01*
X192462449Y-68606516D01*
X192462444Y-68606523D01*
X192352079Y-68771696D01*
X192276058Y-68955225D01*
X192276056Y-68955230D01*
X192237300Y-69150068D01*
X192237300Y-70448731D01*
X192258559Y-70555606D01*
X192276056Y-70643569D01*
X192352079Y-70827104D01*
X192386020Y-70877900D01*
X192462447Y-70992281D01*
X192463650Y-70993747D01*
X192464040Y-70994665D01*
X192465886Y-70997428D01*
X192465362Y-70997778D01*
X192491405Y-71059093D01*
X192479426Y-71129072D01*
X192471020Y-71143683D01*
X192440698Y-71189064D01*
X192372214Y-71354396D01*
X192372213Y-71354399D01*
X192372213Y-71354400D01*
X192365764Y-71386822D01*
X192337300Y-71529918D01*
X192337300Y-71536481D01*
X192317298Y-71604602D01*
X192263642Y-71651095D01*
X192193368Y-71661199D01*
X192141299Y-71641247D01*
X192026136Y-71564298D01*
X191860803Y-71495814D01*
X191860801Y-71495813D01*
X191860800Y-71495813D01*
X191772445Y-71478238D01*
X191685281Y-71460900D01*
X191685279Y-71460900D01*
X191506321Y-71460900D01*
X191506318Y-71460900D01*
X191375571Y-71486907D01*
X191330800Y-71495813D01*
X191330799Y-71495813D01*
X191330796Y-71495814D01*
X191165462Y-71564299D01*
X191016669Y-71663719D01*
X191016662Y-71663724D01*
X190890124Y-71790262D01*
X190890119Y-71790269D01*
X190790699Y-71939062D01*
X190722214Y-72104396D01*
X190687300Y-72279918D01*
X189054300Y-72279918D01*
X189054300Y-72179921D01*
X189019387Y-72004400D01*
X188950902Y-71839064D01*
X188851478Y-71690265D01*
X188724935Y-71563722D01*
X188576136Y-71464298D01*
X188454029Y-71413719D01*
X188410803Y-71395814D01*
X188410801Y-71395813D01*
X188410800Y-71395813D01*
X188318563Y-71377466D01*
X188235281Y-71360900D01*
X188235279Y-71360900D01*
X188056321Y-71360900D01*
X188056318Y-71360900D01*
X187936403Y-71384753D01*
X187880800Y-71395813D01*
X187880799Y-71395813D01*
X187880796Y-71395814D01*
X187751711Y-71449284D01*
X187723668Y-71460900D01*
X187715462Y-71464299D01*
X187566669Y-71563719D01*
X187566662Y-71563724D01*
X187440124Y-71690262D01*
X187440119Y-71690269D01*
X187340699Y-71839062D01*
X187272214Y-72004396D01*
X187237300Y-72179918D01*
X185784408Y-72179918D01*
X185769387Y-72104400D01*
X185700902Y-71939064D01*
X185601478Y-71790265D01*
X185474935Y-71663722D01*
X185326136Y-71564298D01*
X185198903Y-71511596D01*
X185160803Y-71495814D01*
X185160801Y-71495813D01*
X185160800Y-71495813D01*
X185072445Y-71478238D01*
X184985281Y-71460900D01*
X184985279Y-71460900D01*
X184806321Y-71460900D01*
X184806318Y-71460900D01*
X184675571Y-71486907D01*
X184630800Y-71495813D01*
X184630799Y-71495813D01*
X184630796Y-71495814D01*
X184465462Y-71564299D01*
X184316669Y-71663719D01*
X184316662Y-71663724D01*
X184190124Y-71790262D01*
X184190119Y-71790269D01*
X184090699Y-71939062D01*
X184022214Y-72104396D01*
X183987300Y-72279918D01*
X182554300Y-72279918D01*
X182554300Y-72179921D01*
X182519387Y-72004400D01*
X182450902Y-71839064D01*
X182351478Y-71690265D01*
X182224935Y-71563722D01*
X182224931Y-71563719D01*
X182220145Y-71559791D01*
X182221786Y-71557791D01*
X182183509Y-71511941D01*
X182174699Y-71441493D01*
X182205375Y-71377466D01*
X182265797Y-71340187D01*
X182274460Y-71338141D01*
X182369969Y-71319144D01*
X182553504Y-71243121D01*
X182718681Y-71132753D01*
X182859153Y-70992281D01*
X182969521Y-70827104D01*
X183045544Y-70643569D01*
X183084300Y-70448729D01*
X183084300Y-69913433D01*
X183104302Y-69845312D01*
X183157958Y-69798819D01*
X183228232Y-69788715D01*
X183273298Y-69804313D01*
X183282122Y-69809408D01*
X183429507Y-69848900D01*
X183429510Y-69848900D01*
X183582090Y-69848900D01*
X183582093Y-69848900D01*
X183729478Y-69809408D01*
X183861621Y-69733115D01*
X183969515Y-69625221D01*
X184045808Y-69493078D01*
X184058245Y-69446661D01*
X185407300Y-69446661D01*
X185407300Y-69592138D01*
X185414098Y-69626312D01*
X185435680Y-69734812D01*
X185491350Y-69869211D01*
X185538125Y-69939214D01*
X185572169Y-69990165D01*
X185572174Y-69990171D01*
X185675028Y-70093025D01*
X185675034Y-70093030D01*
X185795989Y-70173850D01*
X185930388Y-70229520D01*
X186073064Y-70257900D01*
X186073065Y-70257900D01*
X186218535Y-70257900D01*
X186218536Y-70257900D01*
X186361212Y-70229520D01*
X186495611Y-70173850D01*
X186606301Y-70099888D01*
X186674050Y-70078675D01*
X186742517Y-70097458D01*
X186746242Y-70099851D01*
X186856989Y-70173850D01*
X186991388Y-70229520D01*
X187134064Y-70257900D01*
X187134065Y-70257900D01*
X187279535Y-70257900D01*
X187279536Y-70257900D01*
X187422212Y-70229520D01*
X187556611Y-70173850D01*
X187677566Y-70093030D01*
X187780430Y-69990166D01*
X187861250Y-69869211D01*
X187916920Y-69734812D01*
X187945300Y-69592136D01*
X187945300Y-69446664D01*
X187916920Y-69303988D01*
X187870991Y-69193107D01*
X188706300Y-69193107D01*
X188706300Y-69345693D01*
X188733356Y-69446665D01*
X188745792Y-69493077D01*
X188745794Y-69493082D01*
X188822082Y-69625217D01*
X188822090Y-69625227D01*
X188929972Y-69733109D01*
X188929977Y-69733113D01*
X188929979Y-69733115D01*
X188929980Y-69733116D01*
X188929982Y-69733117D01*
X189022862Y-69786741D01*
X189062122Y-69809408D01*
X189209507Y-69848900D01*
X189209510Y-69848900D01*
X189362090Y-69848900D01*
X189362093Y-69848900D01*
X189509478Y-69809408D01*
X189518300Y-69804314D01*
X189587293Y-69787576D01*
X189654385Y-69810795D01*
X189698273Y-69866601D01*
X189707300Y-69913433D01*
X189707300Y-70448731D01*
X189728559Y-70555606D01*
X189746056Y-70643569D01*
X189822079Y-70827104D01*
X189932447Y-70992281D01*
X190072919Y-71132753D01*
X190238096Y-71243121D01*
X190421631Y-71319144D01*
X190616471Y-71357900D01*
X190616472Y-71357900D01*
X190815128Y-71357900D01*
X190815129Y-71357900D01*
X191009969Y-71319144D01*
X191193504Y-71243121D01*
X191358681Y-71132753D01*
X191499153Y-70992281D01*
X191609521Y-70827104D01*
X191685544Y-70643569D01*
X191724300Y-70448729D01*
X191724300Y-69150071D01*
X191685544Y-68955231D01*
X191609521Y-68771696D01*
X191499153Y-68606519D01*
X191358681Y-68466047D01*
X191193504Y-68355679D01*
X191009969Y-68279656D01*
X190815131Y-68240900D01*
X190815129Y-68240900D01*
X190616471Y-68240900D01*
X190616468Y-68240900D01*
X190421630Y-68279656D01*
X190421625Y-68279658D01*
X190238096Y-68355679D01*
X190072923Y-68466044D01*
X190072916Y-68466049D01*
X189932449Y-68606516D01*
X189932444Y-68606523D01*
X189820642Y-68773846D01*
X189766165Y-68819374D01*
X189695722Y-68828222D01*
X189649633Y-68808323D01*
X189648773Y-68809814D01*
X189509482Y-68729394D01*
X189509480Y-68729393D01*
X189509478Y-68729392D01*
X189362093Y-68689900D01*
X189209507Y-68689900D01*
X189062122Y-68729392D01*
X189062117Y-68729394D01*
X188929982Y-68805682D01*
X188929972Y-68805690D01*
X188822090Y-68913572D01*
X188822082Y-68913582D01*
X188745794Y-69045717D01*
X188745792Y-69045722D01*
X188706300Y-69193107D01*
X187870991Y-69193107D01*
X187861250Y-69169589D01*
X187780430Y-69048634D01*
X187780425Y-69048628D01*
X187677571Y-68945774D01*
X187677565Y-68945769D01*
X187637430Y-68918951D01*
X187556611Y-68864950D01*
X187422212Y-68809280D01*
X187404124Y-68805682D01*
X187279538Y-68780900D01*
X187279536Y-68780900D01*
X187134064Y-68780900D01*
X187134061Y-68780900D01*
X186991387Y-68809280D01*
X186991382Y-68809282D01*
X186856989Y-68864950D01*
X186746302Y-68938909D01*
X186678549Y-68960124D01*
X186610082Y-68941341D01*
X186606298Y-68938909D01*
X186578428Y-68920287D01*
X186495611Y-68864950D01*
X186361212Y-68809280D01*
X186343124Y-68805682D01*
X186218538Y-68780900D01*
X186218536Y-68780900D01*
X186073064Y-68780900D01*
X186073061Y-68780900D01*
X185930387Y-68809280D01*
X185930382Y-68809282D01*
X185795989Y-68864950D01*
X185675034Y-68945769D01*
X185675028Y-68945774D01*
X185572174Y-69048628D01*
X185572169Y-69048634D01*
X185491350Y-69169589D01*
X185435682Y-69303982D01*
X185435680Y-69303987D01*
X185407300Y-69446661D01*
X184058245Y-69446661D01*
X184085300Y-69345693D01*
X184085300Y-69193107D01*
X184045808Y-69045722D01*
X183993562Y-68955230D01*
X183969517Y-68913582D01*
X183969509Y-68913572D01*
X183861627Y-68805690D01*
X183861617Y-68805682D01*
X183729482Y-68729394D01*
X183729480Y-68729393D01*
X183729478Y-68729392D01*
X183582093Y-68689900D01*
X183429507Y-68689900D01*
X183282122Y-68729392D01*
X183282117Y-68729394D01*
X183142827Y-68809814D01*
X183141744Y-68807939D01*
X183086189Y-68829409D01*
X183016642Y-68815134D01*
X182970957Y-68773846D01*
X182969521Y-68771698D01*
X182969521Y-68771696D01*
X182859153Y-68606519D01*
X182718681Y-68466047D01*
X182553504Y-68355679D01*
X182369969Y-68279656D01*
X182175131Y-68240900D01*
X182175129Y-68240900D01*
X181976471Y-68240900D01*
X181976468Y-68240900D01*
X181781630Y-68279656D01*
X181781625Y-68279658D01*
X181598096Y-68355679D01*
X181432923Y-68466044D01*
X181432916Y-68466049D01*
X181292449Y-68606516D01*
X181292444Y-68606523D01*
X181182079Y-68771696D01*
X181106058Y-68955225D01*
X181106056Y-68955230D01*
X181067300Y-69150068D01*
X181067300Y-70448731D01*
X181088559Y-70555606D01*
X181106056Y-70643569D01*
X181182079Y-70827104D01*
X181292447Y-70992281D01*
X181432919Y-71132753D01*
X181468146Y-71156291D01*
X181471419Y-71158478D01*
X181516947Y-71212955D01*
X181525795Y-71283398D01*
X181495154Y-71347442D01*
X181434752Y-71384753D01*
X181426001Y-71386822D01*
X181380795Y-71395814D01*
X181238288Y-71454843D01*
X181223668Y-71460900D01*
X181215462Y-71464299D01*
X181066669Y-71563719D01*
X181066662Y-71563724D01*
X180940124Y-71690262D01*
X180940119Y-71690269D01*
X180840699Y-71839062D01*
X180772214Y-72004396D01*
X180737300Y-72179918D01*
X168864327Y-72179918D01*
X168804745Y-72009642D01*
X168804744Y-72009640D01*
X168804739Y-72009625D01*
X168648379Y-71684942D01*
X168648376Y-71684938D01*
X168648376Y-71684936D01*
X168456656Y-71379815D01*
X168456652Y-71379808D01*
X168231960Y-71098054D01*
X167977145Y-70843239D01*
X167695391Y-70618547D01*
X167695384Y-70618543D01*
X167390263Y-70426823D01*
X167390260Y-70426822D01*
X167377652Y-70420750D01*
X167065575Y-70270461D01*
X167065571Y-70270459D01*
X167065557Y-70270454D01*
X166725432Y-70151439D01*
X166374093Y-70071248D01*
X166374096Y-70071248D01*
X166015988Y-70030900D01*
X166015986Y-70030900D01*
X165655614Y-70030900D01*
X165655612Y-70030900D01*
X165297505Y-70071248D01*
X164946167Y-70151439D01*
X164606042Y-70270454D01*
X164606022Y-70270462D01*
X164281339Y-70426822D01*
X164281336Y-70426823D01*
X163976215Y-70618543D01*
X163976208Y-70618547D01*
X163694454Y-70843239D01*
X163439639Y-71098054D01*
X163214947Y-71379808D01*
X163214943Y-71379815D01*
X163023223Y-71684936D01*
X163023222Y-71684939D01*
X162866862Y-72009622D01*
X162866854Y-72009642D01*
X162747839Y-72349767D01*
X162667648Y-72701105D01*
X162627300Y-73059212D01*
X151566057Y-73059212D01*
X151830258Y-72931979D01*
X152135393Y-72740251D01*
X152417142Y-72515563D01*
X152671963Y-72260742D01*
X152896651Y-71978993D01*
X153078072Y-71690262D01*
X153088376Y-71673863D01*
X153088376Y-71673862D01*
X153088379Y-71673858D01*
X153244739Y-71349175D01*
X153363762Y-71009026D01*
X153443952Y-70657691D01*
X153484300Y-70299586D01*
X153484300Y-69939214D01*
X153443952Y-69581109D01*
X153363762Y-69229774D01*
X153350932Y-69193109D01*
X153244745Y-68889642D01*
X153244744Y-68889640D01*
X153244739Y-68889625D01*
X153088379Y-68564942D01*
X153088376Y-68564938D01*
X153088376Y-68564936D01*
X152896656Y-68259815D01*
X152896652Y-68259808D01*
X152671960Y-67978054D01*
X152417145Y-67723239D01*
X152135391Y-67498547D01*
X152135384Y-67498543D01*
X151830263Y-67306823D01*
X151830260Y-67306822D01*
X151505577Y-67150462D01*
X151505557Y-67150454D01*
X151165432Y-67031439D01*
X150814093Y-66951248D01*
X150814096Y-66951248D01*
X150455988Y-66910900D01*
X150455986Y-66910900D01*
X150095614Y-66910900D01*
X150095612Y-66910900D01*
X149737505Y-66951248D01*
X149386167Y-67031439D01*
X149046042Y-67150454D01*
X149046022Y-67150462D01*
X148721339Y-67306822D01*
X148721336Y-67306823D01*
X148416215Y-67498543D01*
X148416208Y-67498547D01*
X148134454Y-67723239D01*
X147879639Y-67978054D01*
X147654947Y-68259808D01*
X147654943Y-68259815D01*
X147463223Y-68564936D01*
X147463222Y-68564939D01*
X147306862Y-68889622D01*
X147306854Y-68889642D01*
X147187839Y-69229767D01*
X147107648Y-69581105D01*
X147067300Y-69939212D01*
X144002806Y-69939212D01*
X144035849Y-69837516D01*
X144069300Y-69626316D01*
X144069300Y-69412484D01*
X144035849Y-69201284D01*
X143969772Y-68997917D01*
X143872694Y-68807391D01*
X143747006Y-68634396D01*
X143747003Y-68634393D01*
X143747001Y-68634390D01*
X143595809Y-68483198D01*
X143595806Y-68483196D01*
X143595804Y-68483194D01*
X143422809Y-68357506D01*
X143232283Y-68260428D01*
X143232280Y-68260427D01*
X143232278Y-68260426D01*
X143028920Y-68194352D01*
X143028923Y-68194352D01*
X142989601Y-68188124D01*
X142817716Y-68160900D01*
X142603884Y-68160900D01*
X142392684Y-68194351D01*
X142392678Y-68194352D01*
X142189321Y-68260426D01*
X142189315Y-68260429D01*
X141998787Y-68357508D01*
X141825795Y-68483194D01*
X141722818Y-68586171D01*
X141660506Y-68620196D01*
X141589690Y-68615130D01*
X141532854Y-68572584D01*
X141515671Y-68541115D01*
X141471689Y-68423196D01*
X141471686Y-68423192D01*
X141471686Y-68423191D01*
X141384061Y-68306138D01*
X141267007Y-68218512D01*
X141267002Y-68218510D01*
X141130004Y-68167411D01*
X141129996Y-68167409D01*
X141069449Y-68160900D01*
X141069438Y-68160900D01*
X139272162Y-68160900D01*
X139272150Y-68160900D01*
X139211603Y-68167409D01*
X139211595Y-68167411D01*
X139074597Y-68218510D01*
X139074592Y-68218512D01*
X138957538Y-68306138D01*
X138869912Y-68423192D01*
X138869910Y-68423197D01*
X138818811Y-68560195D01*
X138818809Y-68560203D01*
X138812300Y-68620750D01*
X135757068Y-68620750D01*
X135772789Y-68578601D01*
X135774258Y-68564942D01*
X135779299Y-68518049D01*
X135779300Y-68518032D01*
X135779300Y-66720767D01*
X135779299Y-66720750D01*
X135772790Y-66660203D01*
X135772788Y-66660195D01*
X135721689Y-66523197D01*
X135721687Y-66523192D01*
X135634061Y-66406138D01*
X135517007Y-66318512D01*
X135517002Y-66318510D01*
X135380004Y-66267411D01*
X135379996Y-66267409D01*
X135319449Y-66260900D01*
X135319438Y-66260900D01*
X133522162Y-66260900D01*
X133522150Y-66260900D01*
X133461603Y-66267409D01*
X133461595Y-66267411D01*
X133324597Y-66318510D01*
X133324592Y-66318512D01*
X133207538Y-66406138D01*
X133119912Y-66523192D01*
X133119910Y-66523197D01*
X133075931Y-66641108D01*
X133033384Y-66697944D01*
X132966864Y-66722754D01*
X132897490Y-66707662D01*
X132868781Y-66686170D01*
X132765809Y-66583198D01*
X132765806Y-66583196D01*
X132765804Y-66583194D01*
X132592809Y-66457506D01*
X132402283Y-66360428D01*
X132402280Y-66360427D01*
X132402278Y-66360426D01*
X132198920Y-66294352D01*
X132198923Y-66294352D01*
X132159601Y-66288124D01*
X131987716Y-66260900D01*
X131773884Y-66260900D01*
X131562684Y-66294351D01*
X131562678Y-66294352D01*
X131359321Y-66360426D01*
X131359315Y-66360429D01*
X131168787Y-66457508D01*
X130995793Y-66583196D01*
X130995790Y-66583198D01*
X130844598Y-66734390D01*
X130844596Y-66734393D01*
X130718908Y-66907387D01*
X130621829Y-67097915D01*
X130621826Y-67097921D01*
X130555752Y-67301278D01*
X130555751Y-67301283D01*
X130555751Y-67301284D01*
X130522300Y-67512484D01*
X126246700Y-67512484D01*
X126246700Y-65220068D01*
X181067300Y-65220068D01*
X181067300Y-65220071D01*
X181067300Y-66018729D01*
X181106056Y-66213569D01*
X181182079Y-66397104D01*
X181292447Y-66562281D01*
X181432919Y-66702753D01*
X181598096Y-66813121D01*
X181781631Y-66889144D01*
X181976471Y-66927900D01*
X181976472Y-66927900D01*
X182175128Y-66927900D01*
X182175129Y-66927900D01*
X182369969Y-66889144D01*
X182553504Y-66813121D01*
X182718681Y-66702753D01*
X182859153Y-66562281D01*
X182969521Y-66397104D01*
X183045544Y-66213569D01*
X183084300Y-66018729D01*
X183084300Y-65220071D01*
X183084299Y-65220068D01*
X189707300Y-65220068D01*
X189707300Y-65220071D01*
X189707300Y-66018729D01*
X189746056Y-66213569D01*
X189822079Y-66397104D01*
X189932447Y-66562281D01*
X190072919Y-66702753D01*
X190238096Y-66813121D01*
X190421631Y-66889144D01*
X190616471Y-66927900D01*
X190616472Y-66927900D01*
X190815128Y-66927900D01*
X190815129Y-66927900D01*
X191009969Y-66889144D01*
X191193504Y-66813121D01*
X191358681Y-66702753D01*
X191499153Y-66562281D01*
X191609521Y-66397104D01*
X191685544Y-66213569D01*
X191724300Y-66018729D01*
X191724300Y-65220071D01*
X191724299Y-65220068D01*
X192237300Y-65220068D01*
X192237300Y-65220071D01*
X192237300Y-66018729D01*
X192276056Y-66213569D01*
X192352079Y-66397104D01*
X192462447Y-66562281D01*
X192602919Y-66702753D01*
X192768096Y-66813121D01*
X192951631Y-66889144D01*
X193146471Y-66927900D01*
X193146472Y-66927900D01*
X193345128Y-66927900D01*
X193345129Y-66927900D01*
X193539969Y-66889144D01*
X193723504Y-66813121D01*
X193888681Y-66702753D01*
X194029153Y-66562281D01*
X194139521Y-66397104D01*
X194215544Y-66213569D01*
X194254300Y-66018729D01*
X194254300Y-65220071D01*
X194254299Y-65220068D01*
X200877300Y-65220068D01*
X200877300Y-65220071D01*
X200877300Y-66018729D01*
X200916056Y-66213569D01*
X200992079Y-66397104D01*
X201102447Y-66562281D01*
X201242919Y-66702753D01*
X201408096Y-66813121D01*
X201591631Y-66889144D01*
X201786471Y-66927900D01*
X201786472Y-66927900D01*
X201985128Y-66927900D01*
X201985129Y-66927900D01*
X202179969Y-66889144D01*
X202363504Y-66813121D01*
X202528681Y-66702753D01*
X202669153Y-66562281D01*
X202779521Y-66397104D01*
X202855544Y-66213569D01*
X202894300Y-66018729D01*
X202894300Y-65220071D01*
X202855544Y-65025231D01*
X202779521Y-64841696D01*
X202669153Y-64676519D01*
X202528681Y-64536047D01*
X202363504Y-64425679D01*
X202179969Y-64349656D01*
X201985131Y-64310900D01*
X201985129Y-64310900D01*
X201786471Y-64310900D01*
X201786468Y-64310900D01*
X201591630Y-64349656D01*
X201591625Y-64349658D01*
X201408096Y-64425679D01*
X201242923Y-64536044D01*
X201242916Y-64536049D01*
X201102449Y-64676516D01*
X201102444Y-64676523D01*
X200992079Y-64841696D01*
X200916058Y-65025225D01*
X200916056Y-65025230D01*
X200877300Y-65220068D01*
X194254299Y-65220068D01*
X194215544Y-65025231D01*
X194139521Y-64841696D01*
X194029153Y-64676519D01*
X193888681Y-64536047D01*
X193723504Y-64425679D01*
X193539969Y-64349656D01*
X193345131Y-64310900D01*
X193345129Y-64310900D01*
X193146471Y-64310900D01*
X193146468Y-64310900D01*
X192951630Y-64349656D01*
X192951625Y-64349658D01*
X192768096Y-64425679D01*
X192602923Y-64536044D01*
X192602916Y-64536049D01*
X192462449Y-64676516D01*
X192462444Y-64676523D01*
X192352079Y-64841696D01*
X192276058Y-65025225D01*
X192276056Y-65025230D01*
X192237300Y-65220068D01*
X191724299Y-65220068D01*
X191685544Y-65025231D01*
X191609521Y-64841696D01*
X191499153Y-64676519D01*
X191358681Y-64536047D01*
X191193504Y-64425679D01*
X191009969Y-64349656D01*
X190815131Y-64310900D01*
X190815129Y-64310900D01*
X190616471Y-64310900D01*
X190616468Y-64310900D01*
X190421630Y-64349656D01*
X190421625Y-64349658D01*
X190238096Y-64425679D01*
X190072923Y-64536044D01*
X190072916Y-64536049D01*
X189932449Y-64676516D01*
X189932444Y-64676523D01*
X189822079Y-64841696D01*
X189746058Y-65025225D01*
X189746056Y-65025230D01*
X189707300Y-65220068D01*
X183084299Y-65220068D01*
X183045544Y-65025231D01*
X182969521Y-64841696D01*
X182859153Y-64676519D01*
X182718681Y-64536047D01*
X182553504Y-64425679D01*
X182369969Y-64349656D01*
X182175131Y-64310900D01*
X182175129Y-64310900D01*
X181976471Y-64310900D01*
X181976468Y-64310900D01*
X181781630Y-64349656D01*
X181781625Y-64349658D01*
X181598096Y-64425679D01*
X181432923Y-64536044D01*
X181432916Y-64536049D01*
X181292449Y-64676516D01*
X181292444Y-64676523D01*
X181182079Y-64841696D01*
X181106058Y-65025225D01*
X181106056Y-65025230D01*
X181067300Y-65220068D01*
X126246700Y-65220068D01*
X126246700Y-62543700D01*
X126266702Y-62475579D01*
X126320358Y-62429086D01*
X126372700Y-62417700D01*
X140574949Y-62417700D01*
X140597395Y-62419907D01*
G37*
%TD.AperFunction*%
%TD*%
M02*
