%TF.GenerationSoftware,KiCad,Pcbnew,9.0.3*%
%TF.CreationDate,2025-08-04T00:02:12-07:00*%
%TF.ProjectId,antenna_top_cap_v2b_cygnet_special,616e7465-6e6e-4615-9f74-6f705f636170,rev?*%
%TF.SameCoordinates,Original*%
%TF.FileFunction,Copper,L4,Bot*%
%TF.FilePolarity,Positive*%
%FSLAX46Y46*%
G04 Gerber Fmt 4.6, Leading zero omitted, Abs format (unit mm)*
G04 Created by KiCad (PCBNEW 9.0.3) date 2025-08-04 00:02:12*
%MOMM*%
%LPD*%
G01*
G04 APERTURE LIST*
G04 Aperture macros list*
%AMRoundRect*
0 Rectangle with rounded corners*
0 $1 Rounding radius*
0 $2 $3 $4 $5 $6 $7 $8 $9 X,Y pos of 4 corners*
0 Add a 4 corners polygon primitive as box body*
4,1,4,$2,$3,$4,$5,$6,$7,$8,$9,$2,$3,0*
0 Add four circle primitives for the rounded corners*
1,1,$1+$1,$2,$3*
1,1,$1+$1,$4,$5*
1,1,$1+$1,$6,$7*
1,1,$1+$1,$8,$9*
0 Add four rect primitives between the rounded corners*
20,1,$1+$1,$2,$3,$4,$5,0*
20,1,$1+$1,$4,$5,$6,$7,0*
20,1,$1+$1,$6,$7,$8,$9,0*
20,1,$1+$1,$8,$9,$2,$3,0*%
G04 Aperture macros list end*
%TA.AperFunction,NonConductor*%
%ADD10C,0.200000*%
%TD*%
%ADD11C,0.500000*%
%TA.AperFunction,NonConductor*%
%ADD12C,0.500000*%
%TD*%
%TA.AperFunction,EtchedComponent*%
%ADD13C,0.000000*%
%TD*%
%TA.AperFunction,ComponentPad*%
%ADD14O,1.700000X1.700000*%
%TD*%
%TA.AperFunction,ComponentPad*%
%ADD15R,1.700000X1.700000*%
%TD*%
%TA.AperFunction,ComponentPad*%
%ADD16RoundRect,0.250000X-0.350000X-0.575000X0.350000X-0.575000X0.350000X0.575000X-0.350000X0.575000X0*%
%TD*%
%TA.AperFunction,ComponentPad*%
%ADD17O,1.200000X1.650000*%
%TD*%
%TA.AperFunction,ComponentPad*%
%ADD18C,5.400000*%
%TD*%
%TA.AperFunction,ComponentPad*%
%ADD19RoundRect,0.250000X-0.575000X0.350000X-0.575000X-0.350000X0.575000X-0.350000X0.575000X0.350000X0*%
%TD*%
%TA.AperFunction,ComponentPad*%
%ADD20O,1.650000X1.200000*%
%TD*%
%TA.AperFunction,ComponentPad*%
%ADD21RoundRect,0.250000X0.575000X-0.350000X0.575000X0.350000X-0.575000X0.350000X-0.575000X-0.350000X0*%
%TD*%
%TA.AperFunction,ComponentPad*%
%ADD22C,1.700000*%
%TD*%
%TA.AperFunction,ComponentPad*%
%ADD23C,2.050000*%
%TD*%
%TA.AperFunction,ComponentPad*%
%ADD24C,2.250000*%
%TD*%
%TA.AperFunction,HeatsinkPad*%
%ADD25C,0.500000*%
%TD*%
%TA.AperFunction,HeatsinkPad*%
%ADD26R,1.600000X1.800000*%
%TD*%
%TA.AperFunction,SMDPad,CuDef*%
%ADD27R,1.600000X0.700000*%
%TD*%
%TA.AperFunction,SMDPad,CuDef*%
%ADD28RoundRect,0.218750X-0.218750X-0.256250X0.218750X-0.256250X0.218750X0.256250X-0.218750X0.256250X0*%
%TD*%
%TA.AperFunction,SMDPad,CuDef*%
%ADD29R,0.600000X1.450000*%
%TD*%
%TA.AperFunction,SMDPad,CuDef*%
%ADD30R,0.300000X1.450000*%
%TD*%
%TA.AperFunction,HeatsinkPad*%
%ADD31O,1.000000X1.600000*%
%TD*%
%TA.AperFunction,HeatsinkPad*%
%ADD32O,1.000000X2.100000*%
%TD*%
%TA.AperFunction,SMDPad,CuDef*%
%ADD33R,1.000000X0.500000*%
%TD*%
%TA.AperFunction,SMDPad,CuDef*%
%ADD34RoundRect,0.135000X-0.135000X-0.185000X0.135000X-0.185000X0.135000X0.185000X-0.135000X0.185000X0*%
%TD*%
%TA.AperFunction,ViaPad*%
%ADD35C,0.800000*%
%TD*%
%TA.AperFunction,ViaPad*%
%ADD36C,0.460000*%
%TD*%
%TA.AperFunction,Conductor*%
%ADD37C,0.267208*%
%TD*%
%TA.AperFunction,Conductor*%
%ADD38C,0.254000*%
%TD*%
%TA.AperFunction,Conductor*%
%ADD39C,0.152400*%
%TD*%
%TA.AperFunction,Conductor*%
%ADD40C,0.250000*%
%TD*%
%TA.AperFunction,Conductor*%
%ADD41C,0.300000*%
%TD*%
%TA.AperFunction,Conductor*%
%ADD42C,0.155448*%
%TD*%
%TA.AperFunction,Conductor*%
%ADD43C,0.200000*%
%TD*%
%TA.AperFunction,Conductor*%
%ADD44C,0.349250*%
%TD*%
G04 APERTURE END LIST*
D10*
X154775800Y-156309400D02*
X157475800Y-156309400D01*
X156625800Y-154459400D02*
X157475800Y-153609400D01*
X153925800Y-154459400D02*
X154775800Y-153609400D01*
X157455800Y-152719400D02*
X155975800Y-154199400D01*
X154775800Y-153609400D02*
X154775800Y-156309400D01*
X157475800Y-156309400D02*
X156625800Y-157159400D01*
X153925800Y-154459400D02*
X153925800Y-157159400D01*
X156625800Y-154459400D02*
X153925800Y-154459400D01*
X157475800Y-153609400D02*
X157475800Y-156309400D01*
X153925800Y-157159400D02*
X154775800Y-156309400D01*
X153925800Y-157159400D02*
X156625800Y-157159400D01*
X157475800Y-153609400D02*
X154775800Y-153609400D01*
X156625800Y-157159400D02*
X156625800Y-154459400D01*
X153825800Y-152709400D02*
X155295800Y-154179400D01*
D11*
D12*
X133127228Y-152439114D02*
X133031990Y-152343876D01*
X133031990Y-152343876D02*
X132841514Y-152248638D01*
X132841514Y-152248638D02*
X132365323Y-152248638D01*
X132365323Y-152248638D02*
X132174847Y-152343876D01*
X132174847Y-152343876D02*
X132079609Y-152439114D01*
X132079609Y-152439114D02*
X131984371Y-152629590D01*
X131984371Y-152629590D02*
X131984371Y-152820066D01*
X131984371Y-152820066D02*
X132079609Y-153105780D01*
X132079609Y-153105780D02*
X133222466Y-154248638D01*
X133222466Y-154248638D02*
X131984371Y-154248638D01*
D11*
D12*
X141253040Y-153625791D02*
X139395897Y-153625791D01*
X139395897Y-153625791D02*
X140395897Y-154768648D01*
X140395897Y-154768648D02*
X139967326Y-154768648D01*
X139967326Y-154768648D02*
X139681612Y-154911505D01*
X139681612Y-154911505D02*
X139538754Y-155054362D01*
X139538754Y-155054362D02*
X139395897Y-155340076D01*
X139395897Y-155340076D02*
X139395897Y-156054362D01*
X139395897Y-156054362D02*
X139538754Y-156340076D01*
X139538754Y-156340076D02*
X139681612Y-156482934D01*
X139681612Y-156482934D02*
X139967326Y-156625791D01*
X139967326Y-156625791D02*
X140824469Y-156625791D01*
X140824469Y-156625791D02*
X141110183Y-156482934D01*
X141110183Y-156482934D02*
X141253040Y-156340076D01*
X138110183Y-156625791D02*
X138110183Y-153625791D01*
X138110183Y-153625791D02*
X136967326Y-153625791D01*
X136967326Y-153625791D02*
X136681611Y-153768648D01*
X136681611Y-153768648D02*
X136538754Y-153911505D01*
X136538754Y-153911505D02*
X136395897Y-154197219D01*
X136395897Y-154197219D02*
X136395897Y-154625791D01*
X136395897Y-154625791D02*
X136538754Y-154911505D01*
X136538754Y-154911505D02*
X136681611Y-155054362D01*
X136681611Y-155054362D02*
X136967326Y-155197219D01*
X136967326Y-155197219D02*
X138110183Y-155197219D01*
X135395897Y-154625791D02*
X134681611Y-156625791D01*
X133967326Y-154625791D02*
X134681611Y-156625791D01*
X134681611Y-156625791D02*
X134967326Y-157340076D01*
X134967326Y-157340076D02*
X135110183Y-157482934D01*
X135110183Y-157482934D02*
X135395897Y-157625791D01*
D13*
%TA.AperFunction,EtchedComponent*%
%TO.C,G\u002A\u002A\u002A*%
G36*
X148667444Y-153275066D02*
G01*
X148670426Y-153423965D01*
X148677741Y-153842151D01*
X147956191Y-153848042D01*
X147234640Y-153853934D01*
X147234640Y-154032493D01*
X149488946Y-154054813D01*
X149616573Y-154114631D01*
X149668782Y-154141244D01*
X149827766Y-154254087D01*
X149959624Y-154401176D01*
X150062753Y-154580425D01*
X150135550Y-154789748D01*
X150195074Y-155076325D01*
X150226572Y-155401319D01*
X150217591Y-155725680D01*
X150168369Y-156058662D01*
X150119311Y-156261849D01*
X150046321Y-156470711D01*
X149957242Y-156640618D01*
X149850780Y-156773499D01*
X149725644Y-156871284D01*
X149580540Y-156935900D01*
X149534147Y-156945766D01*
X149441770Y-156956100D01*
X149321305Y-156963099D01*
X149182048Y-156966061D01*
X148875150Y-156967554D01*
X148875150Y-156603966D01*
X148874248Y-156487200D01*
X148868203Y-156324738D01*
X148855272Y-156192671D01*
X148834060Y-156082278D01*
X148803173Y-155984836D01*
X148761215Y-155891622D01*
X148755840Y-155881416D01*
X148679062Y-155770943D01*
X148573045Y-155660862D01*
X148450281Y-155562689D01*
X148323265Y-155487940D01*
X148172075Y-155416324D01*
X147256960Y-155405164D01*
X147047587Y-155402566D01*
X146858349Y-155399969D01*
X146705023Y-155397339D01*
X146583060Y-155394395D01*
X146487912Y-155390857D01*
X146415033Y-155386442D01*
X146359873Y-155380870D01*
X146317885Y-155373859D01*
X146284522Y-155365129D01*
X146255234Y-155354397D01*
X146225476Y-155341384D01*
X146134572Y-155288189D01*
X146023769Y-155194366D01*
X145926112Y-155081687D01*
X145854810Y-154963615D01*
X145848283Y-154949234D01*
X145837156Y-154921608D01*
X145828183Y-154891143D01*
X145821133Y-154853193D01*
X145815774Y-154803115D01*
X145811874Y-154736263D01*
X145809203Y-154647994D01*
X145807529Y-154533663D01*
X145806619Y-154388625D01*
X145806243Y-154208237D01*
X145806169Y-153987853D01*
X145806169Y-153152776D01*
X147786750Y-153152776D01*
X147787667Y-153248469D01*
X147826689Y-153347500D01*
X147830129Y-153352900D01*
X147884025Y-153411639D01*
X147948648Y-153453519D01*
X148002626Y-153472415D01*
X148095765Y-153480652D01*
X148178069Y-153448686D01*
X148257594Y-153374454D01*
X148266113Y-153364102D01*
X148304007Y-153304495D01*
X148319408Y-153239694D01*
X148317352Y-153150858D01*
X148309546Y-153103640D01*
X148272230Y-153031063D01*
X148198550Y-152971188D01*
X148138108Y-152942599D01*
X148040914Y-152928081D01*
X147951020Y-152948074D01*
X147874587Y-152996344D01*
X147817777Y-153066657D01*
X147786750Y-153152776D01*
X145806169Y-153152776D01*
X145806169Y-153117378D01*
X145860800Y-153006361D01*
X145870345Y-152987747D01*
X145967922Y-152848137D01*
X146098511Y-152727265D01*
X146252515Y-152634249D01*
X146337182Y-152598994D01*
X146466685Y-152559735D01*
X146616295Y-152530624D01*
X146792016Y-152510825D01*
X146999850Y-152499499D01*
X147245800Y-152495811D01*
X147315625Y-152496109D01*
X147617391Y-152506560D01*
X147878381Y-152532179D01*
X148099711Y-152573296D01*
X148282492Y-152630238D01*
X148427840Y-152703336D01*
X148536866Y-152792918D01*
X148610685Y-152899314D01*
X148626114Y-152932487D01*
X148640805Y-152972907D01*
X148651413Y-153019727D01*
X148658808Y-153080595D01*
X148663861Y-153163159D01*
X148666311Y-153239694D01*
X148667444Y-153275066D01*
G37*
%TD.AperFunction*%
%TA.AperFunction,EtchedComponent*%
G36*
X148666246Y-157772550D02*
G01*
X148661342Y-157827818D01*
X148654697Y-157869518D01*
X148646046Y-157902454D01*
X148635121Y-157931427D01*
X148621656Y-157961241D01*
X148557710Y-158063044D01*
X148460150Y-158169365D01*
X148342741Y-158265040D01*
X148217401Y-158338934D01*
X148124050Y-158377818D01*
X147989504Y-158424135D01*
X147841324Y-158467695D01*
X147695855Y-158503743D01*
X147569438Y-158527523D01*
X147560904Y-158528733D01*
X147333112Y-158547524D01*
X147099312Y-158543036D01*
X146866543Y-158517031D01*
X146641847Y-158471271D01*
X146432264Y-158407517D01*
X146244836Y-158327532D01*
X146086603Y-158233078D01*
X145964606Y-158125917D01*
X145959318Y-158119997D01*
X145899770Y-158045235D01*
X145856077Y-157968957D01*
X145825997Y-157882589D01*
X145816980Y-157831966D01*
X146156990Y-157831966D01*
X146180025Y-157919538D01*
X146233541Y-157995586D01*
X146319298Y-158051411D01*
X146350673Y-158063320D01*
X146448731Y-158079768D01*
X146534430Y-158055598D01*
X146615797Y-157989123D01*
X146646668Y-157949824D01*
X146686029Y-157856863D01*
X146690100Y-157761065D01*
X146662492Y-157671232D01*
X146606814Y-157596166D01*
X146526676Y-157544672D01*
X146425689Y-157525551D01*
X146334453Y-157540453D01*
X146253167Y-157587114D01*
X146195321Y-157657054D01*
X146162675Y-157741571D01*
X146156990Y-157831966D01*
X145816980Y-157831966D01*
X145807287Y-157777552D01*
X145797705Y-157645271D01*
X145795009Y-157477169D01*
X145795009Y-157169051D01*
X146514825Y-157163162D01*
X147234640Y-157157273D01*
X147241504Y-157062414D01*
X147248367Y-156967554D01*
X146112822Y-156967554D01*
X146039955Y-156967553D01*
X145777151Y-156967419D01*
X145554209Y-156966742D01*
X145367314Y-156965081D01*
X145212648Y-156961994D01*
X145086396Y-156957038D01*
X144984740Y-156949772D01*
X144903865Y-156939753D01*
X144839953Y-156926539D01*
X144789189Y-156909688D01*
X144747756Y-156888758D01*
X144711837Y-156863306D01*
X144677616Y-156832890D01*
X144641276Y-156797069D01*
X144595466Y-156745763D01*
X144504067Y-156608677D01*
X144422213Y-156439860D01*
X144352363Y-156247808D01*
X144296974Y-156041020D01*
X144258504Y-155827994D01*
X144239412Y-155617225D01*
X144242154Y-155417213D01*
X144257952Y-155252597D01*
X144296199Y-155000954D01*
X144348794Y-154771591D01*
X144414236Y-154568875D01*
X144491027Y-154397172D01*
X144577665Y-154260847D01*
X144672651Y-154164268D01*
X144694991Y-154147681D01*
X144754753Y-154109574D01*
X144817395Y-154082091D01*
X144891258Y-154063544D01*
X144984683Y-154052245D01*
X145106012Y-154046504D01*
X145263586Y-154044632D01*
X145613798Y-154043653D01*
X145620704Y-154473310D01*
X145627611Y-154902967D01*
X145699226Y-155054158D01*
X145759588Y-155163182D01*
X145885037Y-155319708D01*
X146038704Y-155444099D01*
X146216087Y-155533019D01*
X146412687Y-155583131D01*
X146451584Y-155587004D01*
X146538779Y-155591951D01*
X146659458Y-155596366D01*
X146807184Y-155600093D01*
X146975518Y-155602978D01*
X147158021Y-155604865D01*
X147348255Y-155605601D01*
X148131465Y-155606043D01*
X148268300Y-155674420D01*
X148292277Y-155686952D01*
X148435348Y-155788154D01*
X148549961Y-155917369D01*
X148628887Y-156066734D01*
X148639189Y-156095868D01*
X148649033Y-156130502D01*
X148656843Y-156170718D01*
X148662853Y-156221397D01*
X148667292Y-156287421D01*
X148670394Y-156373674D01*
X148672389Y-156485037D01*
X148673510Y-156626393D01*
X148673987Y-156802624D01*
X148674053Y-157018611D01*
X148674018Y-157124600D01*
X148673807Y-157319747D01*
X148673192Y-157477313D01*
X148671904Y-157602100D01*
X148669678Y-157698912D01*
X148666781Y-157761065D01*
X148666246Y-157772550D01*
G37*
%TD.AperFunction*%
%TD*%
D14*
%TO.P,J7,1,Power*%
%TO.N,BURN*%
X154275800Y-114431900D03*
D15*
X155545800Y-111891900D03*
X158085800Y-111891900D03*
D14*
X159645800Y-114431900D03*
D15*
%TO.P,J7,2,GND*%
%TO.N,GND*%
X154275800Y-122811900D03*
X155545800Y-125351900D03*
X158085800Y-125351900D03*
X159645800Y-122811900D03*
%TD*%
%TO.P,J3,1,Pin_1*%
%TO.N,~{FC_RESET}*%
X134420800Y-67619400D03*
D14*
%TO.P,J3,2,Pin_2*%
%TO.N,GND*%
X131880800Y-67619400D03*
%TD*%
D16*
%TO.P,J11,1,Pin_1*%
%TO.N,/RBF_High*%
X202545800Y-77619400D03*
D17*
%TO.P,J11,2,Pin_2*%
%TO.N,/RBF_Low*%
X202545800Y-79619400D03*
%TO.P,J11,3,Pin_3*%
%TO.N,/RBF_High*%
X204545800Y-77619400D03*
%TO.P,J11,4,Pin_4*%
%TO.N,/RBF_Low*%
X204545800Y-79619400D03*
%TD*%
D18*
%TO.P,TP3,1,1*%
%TO.N,unconnected-(TP3-Pad1)*%
X150275800Y-70119400D03*
%TD*%
D19*
%TO.P,J13,1,Pin_1*%
%TO.N,Net-(J13-Pin_1)*%
X198045800Y-77819400D03*
D20*
%TO.P,J13,2,Pin_2*%
%TO.N,GND*%
X196045800Y-77819400D03*
%TO.P,J13,3,Pin_3*%
%TO.N,Net-(J13-Pin_1)*%
X198045800Y-79819400D03*
%TO.P,J13,4,Pin_4*%
%TO.N,GND*%
X196045800Y-79819400D03*
%TD*%
D21*
%TO.P,J1,1,Pin_1*%
%TO.N,GND*%
X164745800Y-111119400D03*
D20*
%TO.P,J1,2,Pin_2*%
X166745801Y-111119400D03*
%TO.P,J1,3,Pin_3*%
%TO.N,WDT_DISABLE*%
X164745800Y-109119399D03*
%TO.P,J1,4,Pin_4*%
%TO.N,BURN*%
X166745800Y-109119400D03*
%TO.P,J1,5,Pin_5*%
%TO.N,SCL0*%
X164745800Y-107119400D03*
%TO.P,J1,6,Pin_6*%
%TO.N,Dir_Chrg_In*%
X166745800Y-107119399D03*
%TO.P,J1,7,Pin_7*%
%TO.N,SDA0*%
X164745800Y-105119400D03*
%TO.P,J1,8,Pin_8*%
%TO.N,+3V3*%
X166745800Y-105119400D03*
%TO.P,J1,9,Pin_9*%
%TO.N,USB_D+*%
X164745800Y-103119400D03*
%TO.P,J1,10,Pin_10*%
%TO.N,USB_D-*%
X166745800Y-103119400D03*
%TO.P,J1,11,Pin_11*%
%TO.N,FC_USBBOOT*%
X164745800Y-101119400D03*
%TO.P,J1,12,Pin_12*%
%TO.N,~{FC_RESET}*%
X166745800Y-101119400D03*
%TD*%
D15*
%TO.P,J10,1,Pin_1*%
%TO.N,WDT_DISABLE*%
X134285800Y-74919400D03*
D22*
%TO.P,J10,2,Pin_2*%
%TO.N,GND*%
X131745800Y-74919400D03*
%TD*%
D18*
%TO.P,TP5,1,1*%
%TO.N,unconnected-(TP5-Pad1)*%
X126825800Y-112239400D03*
%TD*%
%TO.P,TP6,1,1*%
%TO.N,unconnected-(TP6-Pad1)*%
X165835800Y-73239400D03*
%TD*%
%TO.P,TP1,1,1*%
%TO.N,unconnected-(TP1-Pad1)*%
X165835800Y-151189400D03*
%TD*%
%TO.P,TP4,1,1*%
%TO.N,unconnected-(TP4-Pad1)*%
X204805800Y-112189400D03*
%TD*%
D23*
%TO.P,J5,1,In*%
%TO.N,Net-(J5-In)*%
X165745800Y-118919400D03*
D24*
%TO.P,J5,2,Ext*%
%TO.N,GND*%
X163205800Y-116379400D03*
X163205800Y-121459400D03*
X168285800Y-116379400D03*
X168285800Y-121459400D03*
%TD*%
D16*
%TO.P,J9,1,Pin_1*%
%TO.N,/Payload_D-*%
X185895800Y-75069400D03*
D17*
%TO.P,J9,2,Pin_2*%
%TO.N,/Payload_VBUS*%
X185895800Y-77069400D03*
%TO.P,J9,3,Pin_3*%
%TO.N,/Payload_D+*%
X187895800Y-75069400D03*
%TO.P,J9,4,Pin_4*%
%TO.N,GND*%
X187895800Y-77069400D03*
%TD*%
D25*
%TO.P,U16,9,EP/GND*%
%TO.N,GND*%
X152845800Y-107619400D03*
X152845800Y-106319400D03*
D26*
X152295800Y-106969400D03*
D25*
X151745800Y-107619400D03*
X151745800Y-106319400D03*
%TD*%
D15*
%TO.P,J4,1,Pin_1*%
%TO.N,FC_USBBOOT*%
X134420800Y-71319400D03*
D14*
%TO.P,J4,2,Pin_2*%
%TO.N,GND*%
X131880800Y-71319400D03*
%TD*%
D27*
%TO.P,U4,1,SCL*%
%TO.N,SCL0*%
X151645800Y-111214400D03*
%TO.P,U4,2,VDD*%
%TO.N,+3V3*%
X151645800Y-112484400D03*
%TO.P,U4,3,GND*%
%TO.N,GND*%
X151645800Y-113754400D03*
%TO.P,U4,4,SDA*%
%TO.N,SDA0*%
X151645800Y-115024400D03*
%TD*%
D28*
%TO.P,D1,1,A*%
%TO.N,Net-(D1-A)*%
X171458299Y-105119400D03*
%TO.P,D1,2,C*%
%TO.N,GND*%
X173033301Y-105119400D03*
%TD*%
D15*
%TO.P,J2,1,Pin_1*%
%TO.N,Dir_Chrg_In*%
X140170800Y-69519400D03*
D14*
%TO.P,J2,2,Pin_2*%
%TO.N,GND*%
X142710800Y-69519400D03*
%TD*%
D29*
%TO.P,J12,A1,GND*%
%TO.N,GND*%
X194315800Y-70714400D03*
%TO.P,J12,A4,VBUS*%
%TO.N,unconnected-(J12-VBUS-PadA4)_3*%
X195115799Y-70714400D03*
D30*
%TO.P,J12,A5,CC1*%
%TO.N,Net-(J12-CC1)*%
X196315800Y-70714399D03*
%TO.P,J12,A6,D+*%
%TO.N,USB_D+*%
X197315800Y-70714400D03*
%TO.P,J12,A7,D-*%
%TO.N,USB_D-*%
X197815800Y-70714400D03*
%TO.P,J12,A8,SBU1*%
%TO.N,unconnected-(J12-SBU1-PadA8)*%
X198815800Y-70714399D03*
D29*
%TO.P,J12,A9,VBUS*%
%TO.N,unconnected-(J12-VBUS-PadA4)_2*%
X200015801Y-70714400D03*
%TO.P,J12,A12,GND*%
%TO.N,GND*%
X200815800Y-70714400D03*
%TO.P,J12,B1,GND*%
X200815800Y-70714400D03*
%TO.P,J12,B4,VBUS*%
%TO.N,unconnected-(J12-VBUS-PadA4)_1*%
X200015801Y-70714400D03*
D30*
%TO.P,J12,B5,CC2*%
%TO.N,Net-(J12-CC2)*%
X199315800Y-70714400D03*
%TO.P,J12,B6,D+*%
%TO.N,USB_D+*%
X198315800Y-70714400D03*
%TO.P,J12,B7,D-*%
%TO.N,USB_D-*%
X196815800Y-70714400D03*
%TO.P,J12,B8,SBU2*%
%TO.N,unconnected-(J12-SBU2-PadB8)*%
X195815800Y-70714400D03*
D29*
%TO.P,J12,B9,VBUS*%
%TO.N,unconnected-(J12-VBUS-PadA4)*%
X195115799Y-70714400D03*
%TO.P,J12,B12,GND*%
%TO.N,GND*%
X194315800Y-70714400D03*
D31*
%TO.P,J12,S1,SHIELD*%
X193245800Y-65619400D03*
D32*
X193245800Y-69799400D03*
D31*
X201885800Y-65619400D03*
D32*
X201885800Y-69799400D03*
%TD*%
D29*
%TO.P,J8,A1,GND*%
%TO.N,GND*%
X183145800Y-70714400D03*
%TO.P,J8,A4,VBUS*%
%TO.N,/Payload_VBUS*%
X183945800Y-70714400D03*
D30*
%TO.P,J8,A5,CC1*%
%TO.N,Net-(J8-CC1)*%
X185145800Y-70714400D03*
%TO.P,J8,A6,D+*%
%TO.N,/Payload_D+*%
X186145800Y-70714400D03*
%TO.P,J8,A7,D-*%
%TO.N,/Payload_D-*%
X186645800Y-70714400D03*
%TO.P,J8,A8,SBU1*%
%TO.N,unconnected-(J8-SBU1-PadA8)*%
X187645800Y-70714400D03*
D29*
%TO.P,J8,A9,VBUS*%
%TO.N,/Payload_VBUS*%
X188845800Y-70714400D03*
%TO.P,J8,A12,GND*%
%TO.N,GND*%
X189645800Y-70714400D03*
%TO.P,J8,B1,GND*%
X189645800Y-70714400D03*
%TO.P,J8,B4,VBUS*%
%TO.N,/Payload_VBUS*%
X188845800Y-70714400D03*
D30*
%TO.P,J8,B5,CC2*%
%TO.N,Net-(J8-CC2)*%
X188145800Y-70714400D03*
%TO.P,J8,B6,D+*%
%TO.N,/Payload_D+*%
X187145800Y-70714400D03*
%TO.P,J8,B7,D-*%
%TO.N,/Payload_D-*%
X185645800Y-70714400D03*
%TO.P,J8,B8,SBU2*%
%TO.N,unconnected-(J8-SBU2-PadB8)*%
X184645800Y-70714400D03*
D29*
%TO.P,J8,B9,VBUS*%
%TO.N,/Payload_VBUS*%
X183945800Y-70714400D03*
%TO.P,J8,B12,GND*%
%TO.N,GND*%
X183145800Y-70714400D03*
D31*
%TO.P,J8,S1,SHIELD*%
X182075800Y-65619400D03*
D32*
X182075800Y-69799400D03*
D31*
X190715800Y-65619400D03*
D32*
X190715800Y-69799400D03*
%TD*%
D33*
%TO.P,U1,1,GPIO1*%
%TO.N,/GPIO*%
X121525800Y-135279400D03*
%TO.P,U1,2,NC*%
%TO.N,unconnected-(U1-NC-Pad2)*%
X121525800Y-136029400D03*
%TO.P,U1,3,NC*%
%TO.N,unconnected-(U1-NC-Pad3)*%
X121525800Y-136779400D03*
%TO.P,U1,4,GPIO0*%
%TO.N,/XSHUT_2.8V*%
X121525800Y-137529400D03*
%TO.P,U1,5,SCL*%
%TO.N,/SCL_3V*%
X121525800Y-138279400D03*
%TO.P,U1,6,SDA*%
%TO.N,/SDA_3V*%
X121525800Y-139029400D03*
%TO.P,U1,7,NC*%
%TO.N,unconnected-(U1-NC-Pad7)*%
X119125800Y-139029400D03*
%TO.P,U1,8,AVDD_VCSEL*%
%TO.N,2.8V*%
X119125800Y-138279400D03*
%TO.P,U1,9,AVSS_VCSEL*%
%TO.N,GND*%
X119125800Y-137529400D03*
%TO.P,U1,10,AVDD*%
%TO.N,2.8V*%
X119125800Y-136779400D03*
%TO.P,U1,11,NC*%
%TO.N,unconnected-(U1-NC-Pad11)*%
X119125800Y-136029400D03*
%TO.P,U1,12,AVSS*%
%TO.N,GND*%
X119125800Y-135279400D03*
%TD*%
D34*
%TO.P,R1,1,1*%
%TO.N,+3V3*%
X169135800Y-105119400D03*
%TO.P,R1,2,2*%
%TO.N,Net-(D1-A)*%
X170155798Y-105119400D03*
%TD*%
D35*
%TO.N,GND*%
X200745800Y-72119400D03*
X138745800Y-121119400D03*
X193245800Y-71619400D03*
X167245800Y-127119400D03*
X167245800Y-123119400D03*
X191595800Y-72369400D03*
X130347958Y-123222637D03*
X156245800Y-105119400D03*
X167245800Y-126119400D03*
X128845800Y-135719400D03*
X164445800Y-125519400D03*
X167245800Y-124119400D03*
X167395800Y-129169400D03*
X147745800Y-104619400D03*
X164445800Y-123519400D03*
X117945800Y-138629545D03*
X174045800Y-105019400D03*
X164445800Y-124519400D03*
X164545800Y-122519400D03*
X163895800Y-129119400D03*
D36*
X164557800Y-131307400D03*
D35*
X164445800Y-126519400D03*
X167245800Y-125119400D03*
X146045800Y-112219400D03*
X164445800Y-127419400D03*
X140645800Y-122719400D03*
X118145800Y-134819400D03*
X181645800Y-72269400D03*
X164971175Y-128319400D03*
X166545800Y-128419400D03*
X149970800Y-113119400D03*
%TO.N,+3V3*%
X146245800Y-106619400D03*
X140345800Y-124619400D03*
X150245800Y-112119400D03*
%TO.N,2.8V*%
X124045800Y-136819400D03*
X125945800Y-126619400D03*
X118106730Y-136731536D03*
X125745800Y-122619400D03*
X133845800Y-123619400D03*
X129820800Y-126607053D03*
%TO.N,/SCL_3V*%
X122945800Y-138304400D03*
%TO.N,/GPIO*%
X121535800Y-134409400D03*
%TO.N,/XSHUT_2.8V*%
X122625802Y-136719400D03*
%TO.N,/SDA_3V*%
X123845800Y-139119400D03*
%TO.N,SDA0*%
X158145800Y-107119400D03*
X154245800Y-108619400D03*
X132845800Y-126291732D03*
X130545800Y-125867037D03*
%TO.N,SCL0*%
X158758453Y-108132053D03*
X156733147Y-108106747D03*
%TO.N,Net-(J12-CC2)*%
X199245800Y-72119400D03*
%TO.N,Net-(J12-CC1)*%
X196229798Y-69447585D03*
%TO.N,Net-(J8-CC1)*%
X184895800Y-72369400D03*
%TO.N,Net-(J8-CC2)*%
X188145800Y-72269400D03*
D36*
%TO.N,/Payload_D+*%
X187206800Y-69519400D03*
X186145800Y-69519400D03*
D35*
%TO.N,WDT_DISABLE*%
X162645800Y-104119400D03*
%TD*%
D37*
%TO.N,USB_D+*%
X176495800Y-95856096D02*
X168219396Y-104132500D01*
X176495800Y-82619400D02*
X176495800Y-95856096D01*
X193714008Y-79151192D02*
X191245800Y-81619400D01*
X193714008Y-75325366D02*
X193714008Y-79151192D01*
X197300404Y-71774004D02*
X197265370Y-71774004D01*
X197265370Y-71774004D02*
X193714008Y-75325366D01*
X191245800Y-81619400D02*
X177495800Y-81619400D01*
X197300404Y-71662244D02*
X197300404Y-71774004D01*
X197315800Y-71646848D02*
X197300404Y-71662244D01*
X177495800Y-81619400D02*
X176495800Y-82619400D01*
%TO.N,USB_D-*%
X193245800Y-78914621D02*
X193245800Y-75131428D01*
X177245800Y-81119400D02*
X191041021Y-81119400D01*
X175995800Y-82369400D02*
X177245800Y-81119400D01*
X175995800Y-95693950D02*
X175995800Y-82369400D01*
X168570350Y-103119400D02*
X175995800Y-95693950D01*
X166745800Y-103119400D02*
X168570350Y-103119400D01*
X191041021Y-81119400D02*
X193245800Y-78914621D01*
X193245800Y-75131428D02*
X196645800Y-71731428D01*
D38*
%TO.N,GND*%
X118471800Y-137529400D02*
X119125800Y-137529400D01*
D39*
X200815800Y-70714400D02*
X200970800Y-70714400D01*
D40*
X182990800Y-70714400D02*
X182075800Y-69799400D01*
X189645800Y-70714400D02*
X189800800Y-70714400D01*
D39*
X200745800Y-70784400D02*
X200815800Y-70714400D01*
D38*
X117945800Y-138055400D02*
X118471800Y-137529400D01*
D39*
X194315800Y-70714400D02*
X194160800Y-70714400D01*
D38*
X117945800Y-138629545D02*
X117945800Y-138055400D01*
D39*
X193245800Y-71619400D02*
X193245800Y-69799400D01*
D41*
X173033301Y-105119400D02*
X173945801Y-105119400D01*
X173945801Y-105119400D02*
X174045800Y-105019400D01*
D38*
X118145800Y-134819400D02*
X118605800Y-135279400D01*
X118605800Y-135279400D02*
X119125800Y-135279400D01*
D39*
X200970800Y-70714400D02*
X201885800Y-69799400D01*
D40*
X189800800Y-70714400D02*
X190715800Y-69799400D01*
D38*
X149970800Y-113119400D02*
X150605800Y-113754400D01*
D39*
X200745800Y-72119400D02*
X200745800Y-70784400D01*
X194160800Y-70714400D02*
X193245800Y-69799400D01*
D38*
X150605800Y-113754400D02*
X151645800Y-113754400D01*
D40*
X183145800Y-70714400D02*
X182990800Y-70714400D01*
D38*
%TO.N,+3V3*%
X151645800Y-112484400D02*
X150610800Y-112484400D01*
D40*
X166745800Y-105119400D02*
X169135800Y-105119400D01*
D38*
X150610800Y-112484400D02*
X150245800Y-112119400D01*
%TO.N,2.8V*%
X118106730Y-136731536D02*
X118154594Y-136779400D01*
X119779800Y-136779400D02*
X120145800Y-137145400D01*
X119125800Y-136779400D02*
X119779800Y-136779400D01*
X119785800Y-138279400D02*
X119125800Y-138279400D01*
X118154594Y-136779400D02*
X119125800Y-136779400D01*
X120145800Y-137145400D02*
X120145800Y-137919400D01*
X120145800Y-137919400D02*
X119785800Y-138279400D01*
D40*
%TO.N,Net-(D1-A)*%
X170155799Y-105119400D02*
X171458299Y-105119400D01*
%TO.N,/SCL_3V*%
X122945800Y-138304400D02*
X121550800Y-138304400D01*
X121550800Y-138304400D02*
X121525800Y-138279400D01*
D38*
%TO.N,/GPIO*%
X121535800Y-135269400D02*
X121525800Y-135279400D01*
X121535800Y-134409400D02*
X121535800Y-135269400D01*
%TO.N,/XSHUT_2.8V*%
X122625802Y-136719400D02*
X122352800Y-136992402D01*
X122352800Y-137356400D02*
X122179800Y-137529400D01*
X122352800Y-136992402D02*
X122352800Y-137356400D01*
X122179800Y-137529400D02*
X121525800Y-137529400D01*
D37*
%TO.N,USB_D-*%
X196815800Y-71549400D02*
X196815800Y-70714400D01*
D42*
X196815800Y-69833952D02*
X197030352Y-69619400D01*
D37*
X196645800Y-71719400D02*
X196815800Y-71549400D01*
D42*
X196815800Y-70714400D02*
X196815800Y-69833952D01*
X197587076Y-69619400D02*
X197815800Y-69848124D01*
X196645800Y-71731428D02*
X196645800Y-71719400D01*
X197815800Y-69848124D02*
X197815800Y-70714400D01*
X197030352Y-69619400D02*
X197587076Y-69619400D01*
D40*
%TO.N,/SDA_3V*%
X123845800Y-139119400D02*
X123755800Y-139029400D01*
X123755800Y-139029400D02*
X121525800Y-139029400D01*
%TO.N,SDA0*%
X132421105Y-125867037D02*
X130545800Y-125867037D01*
X154275332Y-108648932D02*
X154245800Y-108619400D01*
X149245800Y-114119400D02*
X150150800Y-115024400D01*
X132845800Y-126291732D02*
X132421105Y-125867037D01*
X154275332Y-108589868D02*
X154275332Y-108648932D01*
X154245800Y-108619400D02*
X152438800Y-108619400D01*
X152438800Y-108619400D02*
X149245800Y-111812400D01*
X155745800Y-107119400D02*
X154275332Y-108589868D01*
X158145800Y-107119400D02*
X155745800Y-107119400D01*
X150150800Y-115024400D02*
X151645800Y-115024400D01*
X149245800Y-111812400D02*
X149245800Y-114119400D01*
D42*
%TO.N,USB_D+*%
X198187076Y-71718124D02*
X198315800Y-71589400D01*
D37*
X197315800Y-70714400D02*
X197315800Y-71646848D01*
D42*
X197315800Y-71646848D02*
X197387076Y-71718124D01*
X198315800Y-71589400D02*
X198315800Y-70714400D01*
D37*
X197387076Y-71718124D02*
X197488352Y-71819400D01*
X198085800Y-71819400D02*
X198187076Y-71718124D01*
D38*
X165758900Y-104132500D02*
X164745800Y-103119400D01*
X168219396Y-104132500D02*
X165758900Y-104132500D01*
D37*
X197488352Y-71819400D02*
X198085800Y-71819400D01*
D40*
%TO.N,SCL0*%
X153625494Y-111214400D02*
X151645800Y-111214400D01*
X156733147Y-108106747D02*
X158733147Y-108106747D01*
X156733147Y-108106747D02*
X153625494Y-111214400D01*
X158733147Y-108106747D02*
X158758453Y-108132053D01*
D39*
%TO.N,Net-(J12-CC2)*%
X199245800Y-70784400D02*
X199315800Y-70714400D01*
X199245800Y-72119400D02*
X199245800Y-70784400D01*
%TO.N,Net-(J12-CC1)*%
X196315800Y-69533587D02*
X196315800Y-70714399D01*
X196229798Y-69447585D02*
X196315800Y-69533587D01*
D40*
%TO.N,Net-(J8-CC1)*%
X185145800Y-72119400D02*
X184895800Y-72369400D01*
X185145800Y-70714400D02*
X185145800Y-72119400D01*
D37*
%TO.N,/Payload_D-*%
X186645800Y-70714400D02*
X186645800Y-74319400D01*
D43*
X186645800Y-71289400D02*
X186670800Y-71314400D01*
X186676800Y-70683400D02*
X186676800Y-69299452D01*
X186645800Y-70714400D02*
X186620800Y-70689400D01*
X186645800Y-70714400D02*
X186676800Y-70683400D01*
X186645800Y-70714400D02*
X186645800Y-71289400D01*
X185614800Y-69299452D02*
X185614800Y-70683400D01*
X185614800Y-70683400D02*
X185645800Y-70714400D01*
X186365748Y-68988400D02*
X185925852Y-68988400D01*
D37*
X186645800Y-74319400D02*
X185895800Y-75069400D01*
D43*
X186676800Y-69299452D02*
X186365748Y-68988400D01*
X185925852Y-68988400D02*
X185614800Y-69299452D01*
D40*
%TO.N,Net-(J8-CC2)*%
X188145800Y-70714400D02*
X188145800Y-72269400D01*
D43*
%TO.N,/Payload_D+*%
X187145800Y-71289400D02*
X187120800Y-71314400D01*
X187145800Y-69580400D02*
X187145800Y-70714400D01*
X187206800Y-69519400D02*
X187145800Y-69580400D01*
X187145800Y-70714400D02*
X187145800Y-71289400D01*
D37*
X187145800Y-74319400D02*
X187895800Y-75069400D01*
D43*
X186145800Y-70714400D02*
X186145800Y-69519400D01*
D37*
X187145800Y-70714400D02*
X187145800Y-74319400D01*
D41*
%TO.N,/Payload_VBUS*%
X183945800Y-69970400D02*
X183945800Y-70714400D01*
X183945800Y-75119400D02*
X185895800Y-77069400D01*
X188845800Y-70714400D02*
X188895800Y-70764400D01*
X183945800Y-70714400D02*
X183945800Y-75119400D01*
X188845800Y-70714400D02*
X188845800Y-69861776D01*
X187521424Y-68537400D02*
X185378800Y-68537400D01*
X188845800Y-69861776D02*
X187521424Y-68537400D01*
X185378800Y-68537400D02*
X183945800Y-69970400D01*
D44*
%TO.N,WDT_DISABLE*%
X162645800Y-104119400D02*
X162645800Y-107019399D01*
X162645800Y-107019399D02*
X164745800Y-109119399D01*
%TD*%
%TA.AperFunction,NonConductor*%
G36*
X132187421Y-126212539D02*
G01*
X132233914Y-126266195D01*
X132245300Y-126318537D01*
X132245300Y-126370789D01*
X132271224Y-126467537D01*
X132286224Y-126523520D01*
X132365277Y-126660444D01*
X132365285Y-126660454D01*
X132369136Y-126664305D01*
X132403162Y-126726617D01*
X132398097Y-126797432D01*
X132355550Y-126854268D01*
X132289030Y-126879079D01*
X132280041Y-126879400D01*
X130533714Y-126879400D01*
X130465593Y-126859398D01*
X130419100Y-126805742D01*
X130408167Y-126742730D01*
X130409113Y-126731589D01*
X130421300Y-126686110D01*
X130421300Y-126588197D01*
X130421753Y-126582867D01*
X130432745Y-126554557D01*
X130441302Y-126525416D01*
X130445459Y-126521813D01*
X130447451Y-126516685D01*
X130472004Y-126498812D01*
X130494958Y-126478923D01*
X130501191Y-126477567D01*
X130504851Y-126474903D01*
X130516566Y-126474222D01*
X130547300Y-126467537D01*
X130624855Y-126467537D01*
X130624857Y-126467537D01*
X130777584Y-126426614D01*
X130777587Y-126426612D01*
X130777588Y-126426612D01*
X130866517Y-126375269D01*
X130914516Y-126347557D01*
X130943536Y-126318537D01*
X131032160Y-126229914D01*
X131034618Y-126232372D01*
X131078964Y-126199976D01*
X131121617Y-126192537D01*
X132119300Y-126192537D01*
X132187421Y-126212539D01*
G37*
%TD.AperFunction*%
%TA.AperFunction,NonConductor*%
G36*
X140597395Y-62419907D02*
G01*
X140598454Y-62419906D01*
X140598457Y-62419908D01*
X151844973Y-62417700D01*
X204719700Y-62417700D01*
X204787821Y-62437702D01*
X204834314Y-62491358D01*
X204845700Y-62543700D01*
X204845700Y-72757082D01*
X204876223Y-72830773D01*
X204876226Y-72830777D01*
X204932622Y-72887173D01*
X204932626Y-72887176D01*
X205006318Y-72917700D01*
X215219700Y-72917700D01*
X215287821Y-72937702D01*
X215334314Y-72991358D01*
X215345700Y-73043700D01*
X215345700Y-126753400D01*
X215325698Y-126821521D01*
X215272042Y-126868014D01*
X215219700Y-126879400D01*
X197977991Y-126879400D01*
X197943934Y-126869400D01*
X197915800Y-126869400D01*
X167867606Y-126869400D01*
X167863646Y-126868237D01*
X167859621Y-126869147D01*
X167829864Y-126858318D01*
X167799485Y-126849398D01*
X167795669Y-126845874D01*
X167792905Y-126844868D01*
X167784930Y-126835955D01*
X167767344Y-126819712D01*
X167762493Y-126813339D01*
X167726320Y-126750684D01*
X167678117Y-126702481D01*
X167672965Y-126695712D01*
X167663207Y-126670176D01*
X167650106Y-126646183D01*
X167650726Y-126637510D01*
X167647624Y-126629392D01*
X167653220Y-126602638D01*
X167655171Y-126575368D01*
X167660736Y-126566707D01*
X167662161Y-126559899D01*
X167670667Y-126551255D01*
X167684132Y-126530305D01*
X167726314Y-126488122D01*
X167726320Y-126488116D01*
X167794058Y-126370789D01*
X167805375Y-126351188D01*
X167805375Y-126351187D01*
X167805377Y-126351184D01*
X167846300Y-126198457D01*
X167846300Y-126040343D01*
X167805377Y-125887616D01*
X167805375Y-125887613D01*
X167805375Y-125887611D01*
X167726322Y-125750687D01*
X167726314Y-125750677D01*
X167684132Y-125708495D01*
X167650106Y-125646183D01*
X167655171Y-125575368D01*
X167684132Y-125530305D01*
X167726314Y-125488122D01*
X167726320Y-125488116D01*
X167784978Y-125386517D01*
X167805375Y-125351188D01*
X167805375Y-125351187D01*
X167805377Y-125351184D01*
X167846300Y-125198457D01*
X167846300Y-125040343D01*
X167805377Y-124887616D01*
X167805375Y-124887613D01*
X167805375Y-124887611D01*
X167726322Y-124750687D01*
X167726314Y-124750677D01*
X167684132Y-124708495D01*
X167650106Y-124646183D01*
X167655171Y-124575368D01*
X167684132Y-124530305D01*
X167726314Y-124488122D01*
X167726320Y-124488116D01*
X167784346Y-124387611D01*
X167805375Y-124351188D01*
X167805375Y-124351187D01*
X167805377Y-124351184D01*
X167846300Y-124198457D01*
X167846300Y-124040343D01*
X167805377Y-123887616D01*
X167805375Y-123887613D01*
X167805375Y-123887611D01*
X167726322Y-123750687D01*
X167726314Y-123750677D01*
X167684132Y-123708495D01*
X167650106Y-123646183D01*
X167655171Y-123575368D01*
X167684132Y-123530305D01*
X167726314Y-123488122D01*
X167726320Y-123488116D01*
X167805377Y-123351184D01*
X167846300Y-123198457D01*
X167846300Y-123040343D01*
X167809497Y-122902992D01*
X167811186Y-122832017D01*
X167850980Y-122773221D01*
X167916244Y-122745273D01*
X167970142Y-122750550D01*
X167975411Y-122752262D01*
X168181481Y-122784900D01*
X168181484Y-122784900D01*
X168390116Y-122784900D01*
X168390119Y-122784900D01*
X168596189Y-122752262D01*
X168794616Y-122687789D01*
X168980514Y-122593070D01*
X169149305Y-122470435D01*
X169296835Y-122322905D01*
X169419470Y-122154114D01*
X169514189Y-121968216D01*
X169578662Y-121769789D01*
X169611300Y-121563719D01*
X169611300Y-121355081D01*
X169578662Y-121149011D01*
X169514189Y-120950584D01*
X169482105Y-120887616D01*
X169419471Y-120764688D01*
X169409299Y-120750687D01*
X169296835Y-120595895D01*
X169296831Y-120595891D01*
X169296829Y-120595888D01*
X169149311Y-120448370D01*
X169149307Y-120448367D01*
X169149305Y-120448365D01*
X168980514Y-120325730D01*
X168980513Y-120325729D01*
X168980511Y-120325728D01*
X168794623Y-120231014D01*
X168794618Y-120231012D01*
X168794616Y-120231011D01*
X168596189Y-120166538D01*
X168390119Y-120133900D01*
X168181481Y-120133900D01*
X167975411Y-120166538D01*
X167975408Y-120166538D01*
X167975407Y-120166539D01*
X167776984Y-120231011D01*
X167776976Y-120231014D01*
X167591088Y-120325728D01*
X167422288Y-120448370D01*
X167274770Y-120595888D01*
X167152128Y-120764688D01*
X167057414Y-120950576D01*
X167057411Y-120950584D01*
X166992938Y-121149011D01*
X166960300Y-121355081D01*
X166960300Y-121563719D01*
X166992938Y-121769789D01*
X167054684Y-121959824D01*
X167057411Y-121968215D01*
X167057414Y-121968223D01*
X167152128Y-122154111D01*
X167152130Y-122154114D01*
X167271811Y-122318840D01*
X167295669Y-122385706D01*
X167279589Y-122454858D01*
X167228676Y-122504338D01*
X167174909Y-122517653D01*
X167174932Y-122517822D01*
X167173428Y-122518019D01*
X167169875Y-122518900D01*
X167166743Y-122518900D01*
X167086713Y-122540344D01*
X167014011Y-122559824D01*
X166877087Y-122638877D01*
X166877077Y-122638885D01*
X166765285Y-122750677D01*
X166765277Y-122750687D01*
X166686224Y-122887611D01*
X166682102Y-122902994D01*
X166645300Y-123040343D01*
X166645300Y-123198457D01*
X166681389Y-123333143D01*
X166686224Y-123351188D01*
X166765277Y-123488112D01*
X166765285Y-123488122D01*
X166807468Y-123530305D01*
X166841494Y-123592617D01*
X166836429Y-123663432D01*
X166807468Y-123708495D01*
X166765285Y-123750677D01*
X166765277Y-123750687D01*
X166686224Y-123887611D01*
X166663344Y-123972999D01*
X166645300Y-124040343D01*
X166645300Y-124198457D01*
X166681389Y-124333143D01*
X166686224Y-124351188D01*
X166765277Y-124488112D01*
X166765285Y-124488122D01*
X166807468Y-124530305D01*
X166841494Y-124592617D01*
X166836429Y-124663432D01*
X166807468Y-124708495D01*
X166765285Y-124750677D01*
X166765277Y-124750687D01*
X166686224Y-124887611D01*
X166663344Y-124972999D01*
X166645300Y-125040343D01*
X166645300Y-125198457D01*
X166681389Y-125333143D01*
X166686224Y-125351188D01*
X166765277Y-125488112D01*
X166765285Y-125488122D01*
X166807468Y-125530305D01*
X166841494Y-125592617D01*
X166836429Y-125663432D01*
X166807468Y-125708495D01*
X166765285Y-125750677D01*
X166765277Y-125750687D01*
X166686224Y-125887611D01*
X166663344Y-125972999D01*
X166645300Y-126040343D01*
X166645300Y-126198457D01*
X166669189Y-126287611D01*
X166686224Y-126351188D01*
X166765277Y-126488112D01*
X166765285Y-126488122D01*
X166807468Y-126530305D01*
X166807718Y-126530763D01*
X166808177Y-126531019D01*
X166824715Y-126561890D01*
X166841494Y-126592617D01*
X166841456Y-126593140D01*
X166841703Y-126593600D01*
X166838934Y-126628401D01*
X166836429Y-126663432D01*
X166836100Y-126664028D01*
X166836073Y-126664373D01*
X166834986Y-126666049D01*
X166818635Y-126695712D01*
X166813482Y-126702481D01*
X166765280Y-126750684D01*
X166729106Y-126813339D01*
X166724256Y-126819712D01*
X166701861Y-126836198D01*
X166681732Y-126855393D01*
X166672869Y-126857543D01*
X166667083Y-126861803D01*
X166651134Y-126862815D01*
X166623994Y-126869400D01*
X165137907Y-126869400D01*
X165069786Y-126849398D01*
X165023293Y-126795742D01*
X165013189Y-126725468D01*
X165016197Y-126710801D01*
X165046300Y-126598457D01*
X165046300Y-126440343D01*
X165005377Y-126287616D01*
X165005375Y-126287613D01*
X165005375Y-126287611D01*
X164926322Y-126150687D01*
X164926314Y-126150677D01*
X164884132Y-126108495D01*
X164850106Y-126046183D01*
X164855171Y-125975368D01*
X164884132Y-125930305D01*
X164926314Y-125888122D01*
X164926320Y-125888116D01*
X164970722Y-125811209D01*
X165005375Y-125751188D01*
X165005375Y-125751187D01*
X165005377Y-125751184D01*
X165046300Y-125598457D01*
X165046300Y-125440343D01*
X165005377Y-125287616D01*
X165005375Y-125287613D01*
X165005375Y-125287611D01*
X164926322Y-125150687D01*
X164926314Y-125150677D01*
X164884132Y-125108495D01*
X164850106Y-125046183D01*
X164855171Y-124975368D01*
X164884132Y-124930305D01*
X164926314Y-124888122D01*
X164926320Y-124888116D01*
X165005377Y-124751184D01*
X165046300Y-124598457D01*
X165046300Y-124440343D01*
X165005377Y-124287616D01*
X165005375Y-124287613D01*
X165005375Y-124287611D01*
X164926322Y-124150687D01*
X164926314Y-124150677D01*
X164884132Y-124108495D01*
X164850106Y-124046183D01*
X164855171Y-123975368D01*
X164884132Y-123930305D01*
X164926314Y-123888122D01*
X164926320Y-123888116D01*
X165005377Y-123751184D01*
X165046300Y-123598457D01*
X165046300Y-123440343D01*
X165005377Y-123287616D01*
X165005375Y-123287613D01*
X165005375Y-123287611D01*
X164942654Y-123178975D01*
X164926320Y-123150684D01*
X164926317Y-123150681D01*
X164923004Y-123146362D01*
X164897404Y-123080142D01*
X164911669Y-123010593D01*
X164933869Y-122980566D01*
X165026320Y-122888116D01*
X165105377Y-122751184D01*
X165146300Y-122598457D01*
X165146300Y-122440343D01*
X165105377Y-122287616D01*
X165105375Y-122287613D01*
X165105375Y-122287611D01*
X165026322Y-122150687D01*
X165026314Y-122150677D01*
X164914522Y-122038885D01*
X164914512Y-122038877D01*
X164777588Y-121959824D01*
X164759543Y-121954989D01*
X164624857Y-121918900D01*
X164622572Y-121918900D01*
X164620715Y-121918354D01*
X164616668Y-121917822D01*
X164616751Y-121917190D01*
X164554451Y-121898898D01*
X164507958Y-121845242D01*
X164497854Y-121774968D01*
X164498123Y-121773189D01*
X164498662Y-121769789D01*
X164531300Y-121563719D01*
X164531300Y-121355081D01*
X164498662Y-121149011D01*
X164434189Y-120950584D01*
X164402105Y-120887616D01*
X164339471Y-120764688D01*
X164329299Y-120750687D01*
X164216835Y-120595895D01*
X164216831Y-120595891D01*
X164216829Y-120595888D01*
X164069311Y-120448370D01*
X164069307Y-120448367D01*
X164069305Y-120448365D01*
X163900514Y-120325730D01*
X163900513Y-120325729D01*
X163900511Y-120325728D01*
X163714623Y-120231014D01*
X163714618Y-120231012D01*
X163714616Y-120231011D01*
X163516189Y-120166538D01*
X163310119Y-120133900D01*
X163101481Y-120133900D01*
X162895411Y-120166538D01*
X162895408Y-120166538D01*
X162895407Y-120166539D01*
X162696984Y-120231011D01*
X162696976Y-120231014D01*
X162511088Y-120325728D01*
X162342288Y-120448370D01*
X162194770Y-120595888D01*
X162072128Y-120764688D01*
X161977414Y-120950576D01*
X161977411Y-120950584D01*
X161912938Y-121149011D01*
X161880300Y-121355081D01*
X161880300Y-121563719D01*
X161912938Y-121769789D01*
X161974684Y-121959824D01*
X161977411Y-121968215D01*
X161977414Y-121968223D01*
X162072128Y-122154111D01*
X162072130Y-122154114D01*
X162194765Y-122322905D01*
X162194767Y-122322907D01*
X162194770Y-122322911D01*
X162342288Y-122470429D01*
X162342291Y-122470431D01*
X162342295Y-122470435D01*
X162511086Y-122593070D01*
X162696984Y-122687789D01*
X162895411Y-122752262D01*
X163101481Y-122784900D01*
X163101484Y-122784900D01*
X163310116Y-122784900D01*
X163310119Y-122784900D01*
X163516189Y-122752262D01*
X163714616Y-122687789D01*
X163800015Y-122644276D01*
X163869787Y-122631173D01*
X163935572Y-122657873D01*
X163968816Y-122698055D01*
X163975304Y-122710435D01*
X163986223Y-122751184D01*
X164065280Y-122888116D01*
X164071885Y-122894721D01*
X164080234Y-122910651D01*
X164085148Y-122935256D01*
X164094195Y-122958659D01*
X164091979Y-122969460D01*
X164094139Y-122980273D01*
X164084970Y-123003629D01*
X164079929Y-123028208D01*
X164070108Y-123041490D01*
X164068197Y-123046360D01*
X164064572Y-123048978D01*
X164057728Y-123058235D01*
X163965282Y-123150681D01*
X163965277Y-123150687D01*
X163886224Y-123287611D01*
X163869190Y-123351184D01*
X163845300Y-123440343D01*
X163845300Y-123598457D01*
X163872094Y-123698455D01*
X163886224Y-123751188D01*
X163965277Y-123888112D01*
X163965285Y-123888122D01*
X164007468Y-123930305D01*
X164041494Y-123992617D01*
X164036429Y-124063432D01*
X164007468Y-124108495D01*
X163965285Y-124150677D01*
X163965277Y-124150687D01*
X163886224Y-124287611D01*
X163869190Y-124351184D01*
X163845300Y-124440343D01*
X163845300Y-124598457D01*
X163858088Y-124646183D01*
X163886224Y-124751188D01*
X163965277Y-124888112D01*
X163965285Y-124888122D01*
X164007468Y-124930305D01*
X164041494Y-124992617D01*
X164036429Y-125063432D01*
X164007468Y-125108495D01*
X163965285Y-125150677D01*
X163965277Y-125150687D01*
X163886224Y-125287611D01*
X163869190Y-125351184D01*
X163845300Y-125440343D01*
X163845300Y-125598457D01*
X163874785Y-125708495D01*
X163886224Y-125751188D01*
X163965277Y-125888112D01*
X163965285Y-125888122D01*
X164007468Y-125930305D01*
X164041494Y-125992617D01*
X164036429Y-126063432D01*
X164007468Y-126108495D01*
X163965285Y-126150677D01*
X163965277Y-126150687D01*
X163886224Y-126287611D01*
X163886223Y-126287616D01*
X163845300Y-126440343D01*
X163845300Y-126598457D01*
X163875399Y-126710791D01*
X163873710Y-126781765D01*
X163833916Y-126840561D01*
X163768652Y-126868509D01*
X163753693Y-126869400D01*
X133421488Y-126869400D01*
X133353367Y-126849398D01*
X133306874Y-126795742D01*
X133296770Y-126725468D01*
X133321526Y-126666695D01*
X133326315Y-126660452D01*
X133326320Y-126660448D01*
X133383222Y-126561890D01*
X133405375Y-126523520D01*
X133405375Y-126523519D01*
X133405377Y-126523516D01*
X133446300Y-126370789D01*
X133446300Y-126212675D01*
X133405377Y-126059948D01*
X133405375Y-126059945D01*
X133405375Y-126059943D01*
X133326322Y-125923019D01*
X133326314Y-125923009D01*
X133214522Y-125811217D01*
X133214512Y-125811209D01*
X133077588Y-125732156D01*
X133059543Y-125727321D01*
X132924857Y-125691232D01*
X132766743Y-125691232D01*
X132758485Y-125691232D01*
X132758485Y-125687780D01*
X132704064Y-125679231D01*
X132668800Y-125654404D01*
X132620973Y-125606577D01*
X132620963Y-125606569D01*
X132546748Y-125563721D01*
X132546746Y-125563720D01*
X132546744Y-125563719D01*
X132463958Y-125541537D01*
X132463956Y-125541537D01*
X131121617Y-125541537D01*
X131053496Y-125521535D01*
X131033336Y-125502983D01*
X131032160Y-125504160D01*
X130914522Y-125386522D01*
X130914512Y-125386514D01*
X130777588Y-125307461D01*
X130759543Y-125302626D01*
X130624857Y-125266537D01*
X130466743Y-125266537D01*
X130388094Y-125287611D01*
X130314011Y-125307461D01*
X130177087Y-125386514D01*
X130177077Y-125386522D01*
X130065285Y-125498314D01*
X130065277Y-125498324D01*
X129986224Y-125635248D01*
X129967763Y-125704147D01*
X129955160Y-125751184D01*
X129945300Y-125787981D01*
X129945300Y-125880553D01*
X129925298Y-125948674D01*
X129871642Y-125995167D01*
X129819300Y-126006553D01*
X129741743Y-126006553D01*
X129675335Y-126024347D01*
X129589011Y-126047477D01*
X129452087Y-126126530D01*
X129452077Y-126126538D01*
X129340285Y-126238330D01*
X129340277Y-126238340D01*
X129261224Y-126375264D01*
X129243786Y-126440344D01*
X129220992Y-126525416D01*
X129220300Y-126527997D01*
X129220300Y-126686112D01*
X129229592Y-126720788D01*
X129227903Y-126791764D01*
X129188110Y-126850560D01*
X129122846Y-126878509D01*
X129107886Y-126879400D01*
X126662023Y-126879400D01*
X126593902Y-126859398D01*
X126547409Y-126805742D01*
X126537305Y-126735468D01*
X126540316Y-126720790D01*
X126540850Y-126718793D01*
X126546300Y-126698457D01*
X126546300Y-126540343D01*
X126505377Y-126387616D01*
X126505375Y-126387613D01*
X126505375Y-126387611D01*
X126426322Y-126250687D01*
X126426314Y-126250677D01*
X126314522Y-126138885D01*
X126314512Y-126138877D01*
X126177588Y-126059824D01*
X126131504Y-126047476D01*
X126024857Y-126018900D01*
X125866743Y-126018900D01*
X125786713Y-126040344D01*
X125714011Y-126059824D01*
X125577087Y-126138877D01*
X125577077Y-126138885D01*
X125465285Y-126250677D01*
X125465277Y-126250687D01*
X125386224Y-126387611D01*
X125369576Y-126449742D01*
X125347799Y-126531019D01*
X125345300Y-126540344D01*
X125345300Y-126698457D01*
X125351284Y-126720790D01*
X125349594Y-126791766D01*
X125309799Y-126850562D01*
X125244535Y-126878509D01*
X125229577Y-126879400D01*
X115872700Y-126879400D01*
X115804579Y-126859398D01*
X115758086Y-126805742D01*
X115746700Y-126753400D01*
X115746700Y-124540343D01*
X139745300Y-124540343D01*
X139745300Y-124698457D01*
X139781389Y-124833143D01*
X139786224Y-124851188D01*
X139865277Y-124988112D01*
X139865285Y-124988122D01*
X139977077Y-125099914D01*
X139977082Y-125099918D01*
X139977084Y-125099920D01*
X139977085Y-125099921D01*
X139977087Y-125099922D01*
X140114011Y-125178975D01*
X140114013Y-125178975D01*
X140114016Y-125178977D01*
X140266743Y-125219900D01*
X140266745Y-125219900D01*
X140424855Y-125219900D01*
X140424857Y-125219900D01*
X140577584Y-125178977D01*
X140577587Y-125178975D01*
X140577588Y-125178975D01*
X140646050Y-125139448D01*
X140714516Y-125099920D01*
X140826320Y-124988116D01*
X140884051Y-124888122D01*
X140905375Y-124851188D01*
X140905375Y-124851187D01*
X140905377Y-124851184D01*
X140946300Y-124698457D01*
X140946300Y-124540343D01*
X140930707Y-124482149D01*
X154495300Y-124482149D01*
X154495300Y-126221650D01*
X154501075Y-126250684D01*
X154506933Y-126280131D01*
X154551248Y-126346452D01*
X154617569Y-126390767D01*
X154676052Y-126402400D01*
X154676053Y-126402400D01*
X156415547Y-126402400D01*
X156415548Y-126402400D01*
X156474031Y-126390767D01*
X156540352Y-126346452D01*
X156584667Y-126280131D01*
X156596300Y-126221648D01*
X156596300Y-124482152D01*
X156596299Y-124482149D01*
X157035300Y-124482149D01*
X157035300Y-126221650D01*
X157041075Y-126250684D01*
X157046933Y-126280131D01*
X157091248Y-126346452D01*
X157157569Y-126390767D01*
X157216052Y-126402400D01*
X157216053Y-126402400D01*
X158955547Y-126402400D01*
X158955548Y-126402400D01*
X159014031Y-126390767D01*
X159080352Y-126346452D01*
X159124667Y-126280131D01*
X159136300Y-126221648D01*
X159136300Y-124482152D01*
X159124667Y-124423669D01*
X159080352Y-124357348D01*
X159014031Y-124313033D01*
X159014028Y-124313032D01*
X158955550Y-124301400D01*
X158955548Y-124301400D01*
X157216052Y-124301400D01*
X157216049Y-124301400D01*
X157157571Y-124313032D01*
X157157568Y-124313033D01*
X157091248Y-124357348D01*
X157046933Y-124423668D01*
X157046932Y-124423671D01*
X157035300Y-124482149D01*
X156596299Y-124482149D01*
X156584667Y-124423669D01*
X156540352Y-124357348D01*
X156474031Y-124313033D01*
X156474028Y-124313032D01*
X156415550Y-124301400D01*
X156415548Y-124301400D01*
X154676052Y-124301400D01*
X154676049Y-124301400D01*
X154617571Y-124313032D01*
X154617568Y-124313033D01*
X154551248Y-124357348D01*
X154506933Y-124423668D01*
X154506932Y-124423671D01*
X154495300Y-124482149D01*
X140930707Y-124482149D01*
X140905377Y-124387616D01*
X140905375Y-124387613D01*
X140905375Y-124387611D01*
X140826322Y-124250687D01*
X140826314Y-124250677D01*
X140714522Y-124138885D01*
X140714512Y-124138877D01*
X140577588Y-124059824D01*
X140559543Y-124054989D01*
X140424857Y-124018900D01*
X140266743Y-124018900D01*
X140186713Y-124040344D01*
X140114011Y-124059824D01*
X139977087Y-124138877D01*
X139977077Y-124138885D01*
X139865285Y-124250677D01*
X139865277Y-124250687D01*
X139786224Y-124387611D01*
X139763344Y-124472999D01*
X139745300Y-124540343D01*
X115746700Y-124540343D01*
X115746700Y-122540343D01*
X125145300Y-122540343D01*
X125145300Y-122698457D01*
X125159717Y-122752262D01*
X125186224Y-122851188D01*
X125265277Y-122988112D01*
X125265285Y-122988122D01*
X125377077Y-123099914D01*
X125377082Y-123099918D01*
X125377084Y-123099920D01*
X125377085Y-123099921D01*
X125377087Y-123099922D01*
X125514011Y-123178975D01*
X125514013Y-123178975D01*
X125514016Y-123178977D01*
X125666743Y-123219900D01*
X125666745Y-123219900D01*
X125824855Y-123219900D01*
X125824857Y-123219900D01*
X125977584Y-123178977D01*
X125977587Y-123178975D01*
X125977588Y-123178975D01*
X126038894Y-123143580D01*
X129747458Y-123143580D01*
X129747458Y-123301694D01*
X129770481Y-123387616D01*
X129788382Y-123454425D01*
X129867435Y-123591349D01*
X129867443Y-123591359D01*
X129979235Y-123703151D01*
X129979240Y-123703155D01*
X129979242Y-123703157D01*
X129979243Y-123703158D01*
X129979245Y-123703159D01*
X130116169Y-123782212D01*
X130116171Y-123782212D01*
X130116174Y-123782214D01*
X130268901Y-123823137D01*
X130268903Y-123823137D01*
X130427013Y-123823137D01*
X130427015Y-123823137D01*
X130579742Y-123782214D01*
X130579745Y-123782212D01*
X130579746Y-123782212D01*
X130707428Y-123708495D01*
X130716674Y-123703157D01*
X130828478Y-123591353D01*
X130857928Y-123540344D01*
X130857929Y-123540343D01*
X133245300Y-123540343D01*
X133245300Y-123698457D01*
X133267742Y-123782212D01*
X133286224Y-123851188D01*
X133365277Y-123988112D01*
X133365285Y-123988122D01*
X133477077Y-124099914D01*
X133477082Y-124099918D01*
X133477084Y-124099920D01*
X133477085Y-124099921D01*
X133477087Y-124099922D01*
X133614011Y-124178975D01*
X133614013Y-124178975D01*
X133614016Y-124178977D01*
X133766743Y-124219900D01*
X133766745Y-124219900D01*
X133924855Y-124219900D01*
X133924857Y-124219900D01*
X134077584Y-124178977D01*
X134077587Y-124178975D01*
X134077588Y-124178975D01*
X134147040Y-124138877D01*
X134214516Y-124099920D01*
X134326320Y-123988116D01*
X134384051Y-123888122D01*
X134405375Y-123851188D01*
X134405375Y-123851187D01*
X134405377Y-123851184D01*
X134446300Y-123698457D01*
X134446300Y-123540343D01*
X134405377Y-123387616D01*
X134405375Y-123387613D01*
X134405375Y-123387611D01*
X134326322Y-123250687D01*
X134326314Y-123250677D01*
X134214522Y-123138885D01*
X134214512Y-123138877D01*
X134077588Y-123059824D01*
X134027339Y-123046360D01*
X133924857Y-123018900D01*
X133766743Y-123018900D01*
X133686713Y-123040344D01*
X133614011Y-123059824D01*
X133477087Y-123138877D01*
X133477077Y-123138885D01*
X133365285Y-123250677D01*
X133365277Y-123250687D01*
X133286224Y-123387611D01*
X133268323Y-123454421D01*
X133245300Y-123540343D01*
X130857929Y-123540343D01*
X130899070Y-123469085D01*
X130899070Y-123469084D01*
X130907532Y-123454426D01*
X130907531Y-123454426D01*
X130907535Y-123454421D01*
X130948458Y-123301694D01*
X130948458Y-123143580D01*
X130907535Y-122990853D01*
X130907533Y-122990850D01*
X130907533Y-122990848D01*
X130828480Y-122853924D01*
X130828472Y-122853914D01*
X130716680Y-122742122D01*
X130716670Y-122742114D01*
X130715093Y-122741204D01*
X130579746Y-122663061D01*
X130560384Y-122657873D01*
X130494961Y-122640343D01*
X140045300Y-122640343D01*
X140045300Y-122798457D01*
X140069189Y-122887611D01*
X140086224Y-122951188D01*
X140165277Y-123088112D01*
X140165285Y-123088122D01*
X140277077Y-123199914D01*
X140277082Y-123199918D01*
X140277084Y-123199920D01*
X140277085Y-123199921D01*
X140277087Y-123199922D01*
X140414011Y-123278975D01*
X140414013Y-123278975D01*
X140414016Y-123278977D01*
X140566743Y-123319900D01*
X140566745Y-123319900D01*
X140724855Y-123319900D01*
X140724857Y-123319900D01*
X140877584Y-123278977D01*
X140877587Y-123278975D01*
X140877588Y-123278975D01*
X140979909Y-123219900D01*
X141014516Y-123199920D01*
X141126320Y-123088116D01*
X141184051Y-122988122D01*
X141205375Y-122951188D01*
X141205375Y-122951187D01*
X141205377Y-122951184D01*
X141246300Y-122798457D01*
X141246300Y-122640343D01*
X141205377Y-122487616D01*
X141205375Y-122487613D01*
X141205375Y-122487611D01*
X141126322Y-122350687D01*
X141126314Y-122350677D01*
X141014522Y-122238885D01*
X141014512Y-122238877D01*
X140877588Y-122159824D01*
X140843488Y-122150687D01*
X140724857Y-122118900D01*
X140566743Y-122118900D01*
X140492158Y-122138885D01*
X140414011Y-122159824D01*
X140277087Y-122238877D01*
X140277077Y-122238885D01*
X140165285Y-122350677D01*
X140165277Y-122350687D01*
X140086224Y-122487611D01*
X140066875Y-122559823D01*
X140045300Y-122640343D01*
X130494961Y-122640343D01*
X130427015Y-122622137D01*
X130268901Y-122622137D01*
X130186273Y-122644277D01*
X130116169Y-122663061D01*
X129979245Y-122742114D01*
X129979235Y-122742122D01*
X129867443Y-122853914D01*
X129867435Y-122853924D01*
X129788382Y-122990848D01*
X129773508Y-123046360D01*
X129747458Y-123143580D01*
X126038894Y-123143580D01*
X126047040Y-123138877D01*
X126114516Y-123099920D01*
X126134294Y-123080142D01*
X126168210Y-123046227D01*
X126226314Y-122988122D01*
X126226320Y-122988116D01*
X126284054Y-122888117D01*
X126305375Y-122851188D01*
X126305375Y-122851187D01*
X126305377Y-122851184D01*
X126346300Y-122698457D01*
X126346300Y-122540343D01*
X126305377Y-122387616D01*
X126305375Y-122387613D01*
X126305375Y-122387611D01*
X126226322Y-122250687D01*
X126226314Y-122250677D01*
X126114522Y-122138885D01*
X126114512Y-122138877D01*
X125977588Y-122059824D01*
X125976695Y-122059584D01*
X125824857Y-122018900D01*
X125666743Y-122018900D01*
X125592158Y-122038885D01*
X125514011Y-122059824D01*
X125377087Y-122138877D01*
X125377077Y-122138885D01*
X125265285Y-122250677D01*
X125265277Y-122250687D01*
X125186224Y-122387611D01*
X125168206Y-122454858D01*
X125145300Y-122540343D01*
X115746700Y-122540343D01*
X115746700Y-121942149D01*
X153225300Y-121942149D01*
X153225300Y-123681650D01*
X153229578Y-123703159D01*
X153236933Y-123740131D01*
X153281248Y-123806452D01*
X153347569Y-123850767D01*
X153406052Y-123862400D01*
X153406053Y-123862400D01*
X155145547Y-123862400D01*
X155145548Y-123862400D01*
X155204031Y-123850767D01*
X155270352Y-123806452D01*
X155314667Y-123740131D01*
X155326300Y-123681648D01*
X155326300Y-121942152D01*
X155326299Y-121942149D01*
X158595300Y-121942149D01*
X158595300Y-123681650D01*
X158599578Y-123703159D01*
X158606933Y-123740131D01*
X158651248Y-123806452D01*
X158717569Y-123850767D01*
X158776052Y-123862400D01*
X158776053Y-123862400D01*
X160515547Y-123862400D01*
X160515548Y-123862400D01*
X160574031Y-123850767D01*
X160640352Y-123806452D01*
X160684667Y-123740131D01*
X160696300Y-123681648D01*
X160696300Y-121942152D01*
X160684667Y-121883669D01*
X160640352Y-121817348D01*
X160574031Y-121773033D01*
X160574028Y-121773032D01*
X160515550Y-121761400D01*
X160515548Y-121761400D01*
X158776052Y-121761400D01*
X158776049Y-121761400D01*
X158717571Y-121773032D01*
X158717568Y-121773033D01*
X158651248Y-121817348D01*
X158606933Y-121883668D01*
X158606932Y-121883671D01*
X158595300Y-121942149D01*
X155326299Y-121942149D01*
X155314667Y-121883669D01*
X155270352Y-121817348D01*
X155204031Y-121773033D01*
X155204028Y-121773032D01*
X155145550Y-121761400D01*
X155145548Y-121761400D01*
X153406052Y-121761400D01*
X153406049Y-121761400D01*
X153347571Y-121773032D01*
X153347568Y-121773033D01*
X153281248Y-121817348D01*
X153236933Y-121883668D01*
X153236932Y-121883671D01*
X153225300Y-121942149D01*
X115746700Y-121942149D01*
X115746700Y-121040343D01*
X138145300Y-121040343D01*
X138145300Y-121198457D01*
X138181389Y-121333143D01*
X138186224Y-121351188D01*
X138265277Y-121488112D01*
X138265285Y-121488122D01*
X138377077Y-121599914D01*
X138377082Y-121599918D01*
X138377084Y-121599920D01*
X138377085Y-121599921D01*
X138377087Y-121599922D01*
X138514011Y-121678975D01*
X138514013Y-121678975D01*
X138514016Y-121678977D01*
X138666743Y-121719900D01*
X138666745Y-121719900D01*
X138824855Y-121719900D01*
X138824857Y-121719900D01*
X138977584Y-121678977D01*
X138977587Y-121678975D01*
X138977588Y-121678975D01*
X139046050Y-121639448D01*
X139114516Y-121599920D01*
X139226320Y-121488116D01*
X139265848Y-121419650D01*
X139305375Y-121351188D01*
X139305375Y-121351187D01*
X139305377Y-121351184D01*
X139346300Y-121198457D01*
X139346300Y-121040343D01*
X139305377Y-120887616D01*
X139305375Y-120887613D01*
X139305375Y-120887611D01*
X139226322Y-120750687D01*
X139226314Y-120750677D01*
X139114522Y-120638885D01*
X139114512Y-120638877D01*
X138977588Y-120559824D01*
X138959543Y-120554989D01*
X138824857Y-120518900D01*
X138666743Y-120518900D01*
X138573270Y-120543945D01*
X138514011Y-120559824D01*
X138377087Y-120638877D01*
X138377077Y-120638885D01*
X138265285Y-120750677D01*
X138265277Y-120750687D01*
X138186224Y-120887611D01*
X138186223Y-120887616D01*
X138145300Y-121040343D01*
X115746700Y-121040343D01*
X115746700Y-118822951D01*
X164520300Y-118822951D01*
X164520300Y-119015849D01*
X164550476Y-119206372D01*
X164550477Y-119206377D01*
X164610083Y-119389825D01*
X164610084Y-119389828D01*
X164610085Y-119389829D01*
X164697659Y-119561702D01*
X164811041Y-119717759D01*
X164811043Y-119717761D01*
X164811045Y-119717764D01*
X164947435Y-119854154D01*
X164947438Y-119854156D01*
X164947441Y-119854159D01*
X165103498Y-119967541D01*
X165275371Y-120055115D01*
X165458828Y-120114724D01*
X165649351Y-120144900D01*
X165649354Y-120144900D01*
X165842246Y-120144900D01*
X165842249Y-120144900D01*
X166032772Y-120114724D01*
X166216229Y-120055115D01*
X166388102Y-119967541D01*
X166544159Y-119854159D01*
X166680559Y-119717759D01*
X166793941Y-119561702D01*
X166881515Y-119389829D01*
X166941124Y-119206372D01*
X166971300Y-119015849D01*
X166971300Y-118822951D01*
X166941124Y-118632428D01*
X166881515Y-118448971D01*
X166793941Y-118277098D01*
X166680559Y-118121041D01*
X166680556Y-118121038D01*
X166680554Y-118121035D01*
X166544164Y-117984645D01*
X166544161Y-117984643D01*
X166544159Y-117984641D01*
X166388102Y-117871259D01*
X166216229Y-117783685D01*
X166216228Y-117783684D01*
X166216225Y-117783683D01*
X166032777Y-117724077D01*
X166032773Y-117724076D01*
X166032772Y-117724076D01*
X165842249Y-117693900D01*
X165649351Y-117693900D01*
X165458828Y-117724076D01*
X165458822Y-117724077D01*
X165275374Y-117783683D01*
X165103494Y-117871261D01*
X164947438Y-117984643D01*
X164947435Y-117984645D01*
X164811045Y-118121035D01*
X164811043Y-118121038D01*
X164697661Y-118277094D01*
X164610083Y-118448974D01*
X164550477Y-118632422D01*
X164550476Y-118632427D01*
X164550476Y-118632428D01*
X164520300Y-118822951D01*
X115746700Y-118822951D01*
X115746700Y-116275081D01*
X161880300Y-116275081D01*
X161880300Y-116483719D01*
X161912938Y-116689789D01*
X161912939Y-116689792D01*
X161977411Y-116888215D01*
X161977414Y-116888223D01*
X162072128Y-117074111D01*
X162072130Y-117074114D01*
X162194765Y-117242905D01*
X162194767Y-117242907D01*
X162194770Y-117242911D01*
X162342288Y-117390429D01*
X162342291Y-117390431D01*
X162342295Y-117390435D01*
X162511086Y-117513070D01*
X162696984Y-117607789D01*
X162895411Y-117672262D01*
X163101481Y-117704900D01*
X163101484Y-117704900D01*
X163310116Y-117704900D01*
X163310119Y-117704900D01*
X163516189Y-117672262D01*
X163714616Y-117607789D01*
X163900514Y-117513070D01*
X164069305Y-117390435D01*
X164216835Y-117242905D01*
X164339470Y-117074114D01*
X164434189Y-116888216D01*
X164498662Y-116689789D01*
X164531300Y-116483719D01*
X164531300Y-116275081D01*
X166960300Y-116275081D01*
X166960300Y-116483719D01*
X166992938Y-116689789D01*
X166992939Y-116689792D01*
X167057411Y-116888215D01*
X167057414Y-116888223D01*
X167152128Y-117074111D01*
X167152130Y-117074114D01*
X167274765Y-117242905D01*
X167274767Y-117242907D01*
X167274770Y-117242911D01*
X167422288Y-117390429D01*
X167422291Y-117390431D01*
X167422295Y-117390435D01*
X167591086Y-117513070D01*
X167776984Y-117607789D01*
X167975411Y-117672262D01*
X168181481Y-117704900D01*
X168181484Y-117704900D01*
X168390116Y-117704900D01*
X168390119Y-117704900D01*
X168596189Y-117672262D01*
X168794616Y-117607789D01*
X168980514Y-117513070D01*
X169149305Y-117390435D01*
X169296835Y-117242905D01*
X169419470Y-117074114D01*
X169514189Y-116888216D01*
X169578662Y-116689789D01*
X169611300Y-116483719D01*
X169611300Y-116275081D01*
X169578662Y-116069011D01*
X169514189Y-115870584D01*
X169419470Y-115684686D01*
X169296835Y-115515895D01*
X169296831Y-115515891D01*
X169296829Y-115515888D01*
X169149311Y-115368370D01*
X169149307Y-115368367D01*
X169149305Y-115368365D01*
X168980514Y-115245730D01*
X168980513Y-115245729D01*
X168980511Y-115245728D01*
X168794623Y-115151014D01*
X168794618Y-115151012D01*
X168794616Y-115151011D01*
X168596189Y-115086538D01*
X168390119Y-115053900D01*
X168181481Y-115053900D01*
X167975411Y-115086538D01*
X167975408Y-115086538D01*
X167975407Y-115086539D01*
X167776984Y-115151011D01*
X167776976Y-115151014D01*
X167591088Y-115245728D01*
X167422288Y-115368370D01*
X167274770Y-115515888D01*
X167152128Y-115684688D01*
X167057414Y-115870576D01*
X167057411Y-115870584D01*
X166992938Y-116069011D01*
X166960300Y-116275081D01*
X164531300Y-116275081D01*
X164498662Y-116069011D01*
X164434189Y-115870584D01*
X164339470Y-115684686D01*
X164216835Y-115515895D01*
X164216831Y-115515891D01*
X164216829Y-115515888D01*
X164069311Y-115368370D01*
X164069307Y-115368367D01*
X164069305Y-115368365D01*
X163900514Y-115245730D01*
X163900513Y-115245729D01*
X163900511Y-115245728D01*
X163714623Y-115151014D01*
X163714618Y-115151012D01*
X163714616Y-115151011D01*
X163516189Y-115086538D01*
X163310119Y-115053900D01*
X163101481Y-115053900D01*
X162895411Y-115086538D01*
X162895408Y-115086538D01*
X162895407Y-115086539D01*
X162696984Y-115151011D01*
X162696976Y-115151014D01*
X162511088Y-115245728D01*
X162342288Y-115368370D01*
X162194770Y-115515888D01*
X162072128Y-115684688D01*
X161977414Y-115870576D01*
X161977411Y-115870584D01*
X161912938Y-116069011D01*
X161880300Y-116275081D01*
X115746700Y-116275081D01*
X115746700Y-112076509D01*
X123925300Y-112076509D01*
X123925300Y-112402290D01*
X123961776Y-112726020D01*
X123991020Y-112854146D01*
X124034268Y-113043627D01*
X124034270Y-113043633D01*
X124034269Y-113043633D01*
X124141858Y-113351104D01*
X124141863Y-113351118D01*
X124141865Y-113351122D01*
X124269388Y-113615924D01*
X124283216Y-113644639D01*
X124283217Y-113644641D01*
X124456539Y-113920481D01*
X124659659Y-114175186D01*
X124890013Y-114405540D01*
X125013265Y-114503830D01*
X125144719Y-114608661D01*
X125420563Y-114781985D01*
X125714078Y-114923335D01*
X125714093Y-114923340D01*
X125714095Y-114923341D01*
X126021566Y-115030930D01*
X126021569Y-115030930D01*
X126021573Y-115030932D01*
X126339183Y-115103424D01*
X126568734Y-115129288D01*
X126662909Y-115139900D01*
X126662911Y-115139900D01*
X126988691Y-115139900D01*
X127070906Y-115130636D01*
X127312417Y-115103424D01*
X127630027Y-115030932D01*
X127937522Y-114923335D01*
X128231037Y-114781985D01*
X128506881Y-114608661D01*
X128761583Y-114405543D01*
X128991943Y-114175183D01*
X129195061Y-113920481D01*
X129368385Y-113644637D01*
X129509735Y-113351122D01*
X129617332Y-113043627D01*
X129689824Y-112726017D01*
X129726300Y-112402289D01*
X129726300Y-112140343D01*
X145445300Y-112140343D01*
X145445300Y-112298457D01*
X145473122Y-112402289D01*
X145486224Y-112451188D01*
X145565277Y-112588112D01*
X145565285Y-112588122D01*
X145677077Y-112699914D01*
X145677082Y-112699918D01*
X145677084Y-112699920D01*
X145677085Y-112699921D01*
X145677087Y-112699922D01*
X145814011Y-112778975D01*
X145814013Y-112778975D01*
X145814016Y-112778977D01*
X145966743Y-112819900D01*
X145966745Y-112819900D01*
X146124855Y-112819900D01*
X146124857Y-112819900D01*
X146277584Y-112778977D01*
X146277587Y-112778975D01*
X146277588Y-112778975D01*
X146369314Y-112726017D01*
X146414516Y-112699920D01*
X146526320Y-112588116D01*
X146565848Y-112519650D01*
X146605375Y-112451188D01*
X146605375Y-112451187D01*
X146605377Y-112451184D01*
X146646300Y-112298457D01*
X146646300Y-112140343D01*
X146605377Y-111987616D01*
X146605375Y-111987613D01*
X146605375Y-111987611D01*
X146526322Y-111850687D01*
X146526314Y-111850677D01*
X146445181Y-111769544D01*
X148920300Y-111769544D01*
X148920300Y-111769547D01*
X148920300Y-114076547D01*
X148920300Y-114162253D01*
X148942482Y-114245039D01*
X148942483Y-114245041D01*
X148942484Y-114245043D01*
X148985332Y-114319258D01*
X148985340Y-114319268D01*
X149950931Y-115284859D01*
X149950936Y-115284863D01*
X149950938Y-115284865D01*
X150025161Y-115327718D01*
X150107947Y-115349900D01*
X150533093Y-115349900D01*
X150601214Y-115369902D01*
X150647707Y-115423558D01*
X150656672Y-115451320D01*
X150656933Y-115452631D01*
X150701248Y-115518952D01*
X150767569Y-115563267D01*
X150826052Y-115574900D01*
X150826053Y-115574900D01*
X152465547Y-115574900D01*
X152465548Y-115574900D01*
X152524031Y-115563267D01*
X152590352Y-115518952D01*
X152634667Y-115452631D01*
X152646300Y-115394148D01*
X152646300Y-114654652D01*
X152634667Y-114596169D01*
X152590352Y-114529848D01*
X152536948Y-114494164D01*
X152518446Y-114472025D01*
X152497628Y-114452046D01*
X152495975Y-114445138D01*
X152491421Y-114439688D01*
X152487824Y-114411054D01*
X152481114Y-114382996D01*
X152483458Y-114376293D01*
X152482573Y-114369245D01*
X152495026Y-114343216D01*
X152500197Y-114328432D01*
X153225300Y-114328432D01*
X153225300Y-114535367D01*
X153264410Y-114731985D01*
X153265670Y-114738320D01*
X153344859Y-114929498D01*
X153459823Y-115101555D01*
X153459824Y-115101556D01*
X153459829Y-115101562D01*
X153606137Y-115247870D01*
X153606143Y-115247875D01*
X153606145Y-115247877D01*
X153778202Y-115362841D01*
X153969380Y-115442030D01*
X154172335Y-115482400D01*
X154172336Y-115482400D01*
X154379264Y-115482400D01*
X154379265Y-115482400D01*
X154582220Y-115442030D01*
X154773398Y-115362841D01*
X154945455Y-115247877D01*
X155091777Y-115101555D01*
X155206741Y-114929498D01*
X155285930Y-114738320D01*
X155326300Y-114535365D01*
X155326300Y-114328435D01*
X155326299Y-114328432D01*
X158595300Y-114328432D01*
X158595300Y-114535367D01*
X158634410Y-114731985D01*
X158635670Y-114738320D01*
X158714859Y-114929498D01*
X158829823Y-115101555D01*
X158829824Y-115101556D01*
X158829829Y-115101562D01*
X158976137Y-115247870D01*
X158976143Y-115247875D01*
X158976145Y-115247877D01*
X159148202Y-115362841D01*
X159339380Y-115442030D01*
X159542335Y-115482400D01*
X159542336Y-115482400D01*
X159749264Y-115482400D01*
X159749265Y-115482400D01*
X159952220Y-115442030D01*
X160143398Y-115362841D01*
X160315455Y-115247877D01*
X160461777Y-115101555D01*
X160576741Y-114929498D01*
X160655930Y-114738320D01*
X160696300Y-114535365D01*
X160696300Y-114328435D01*
X160655930Y-114125480D01*
X160576741Y-113934302D01*
X160461777Y-113762245D01*
X160461775Y-113762243D01*
X160461770Y-113762237D01*
X160315462Y-113615929D01*
X160315456Y-113615924D01*
X160315455Y-113615923D01*
X160143398Y-113500959D01*
X159952220Y-113421770D01*
X159749267Y-113381400D01*
X159749265Y-113381400D01*
X159542335Y-113381400D01*
X159542332Y-113381400D01*
X159339379Y-113421770D01*
X159339374Y-113421772D01*
X159148202Y-113500959D01*
X158976143Y-113615924D01*
X158976137Y-113615929D01*
X158829829Y-113762237D01*
X158829824Y-113762243D01*
X158714859Y-113934302D01*
X158635672Y-114125474D01*
X158635670Y-114125479D01*
X158595300Y-114328432D01*
X155326299Y-114328432D01*
X155285930Y-114125480D01*
X155206741Y-113934302D01*
X155091777Y-113762245D01*
X155091775Y-113762243D01*
X155091770Y-113762237D01*
X154945462Y-113615929D01*
X154945456Y-113615924D01*
X154945455Y-113615923D01*
X154773398Y-113500959D01*
X154582220Y-113421770D01*
X154379267Y-113381400D01*
X154379265Y-113381400D01*
X154172335Y-113381400D01*
X154172332Y-113381400D01*
X153969379Y-113421770D01*
X153969374Y-113421772D01*
X153778202Y-113500959D01*
X153606143Y-113615924D01*
X153606137Y-113615929D01*
X153459829Y-113762237D01*
X153459824Y-113762243D01*
X153344859Y-113934302D01*
X153265672Y-114125474D01*
X153265670Y-114125479D01*
X153225300Y-114328432D01*
X152500197Y-114328432D01*
X152504552Y-114315980D01*
X152511079Y-114309664D01*
X152513215Y-114305201D01*
X152529385Y-114290105D01*
X152533061Y-114287232D01*
X152590352Y-114248952D01*
X152634667Y-114182631D01*
X152646300Y-114124148D01*
X152646300Y-113384652D01*
X152634667Y-113326169D01*
X152590352Y-113259848D01*
X152536948Y-113224164D01*
X152491421Y-113169688D01*
X152482573Y-113099245D01*
X152513215Y-113035201D01*
X152536949Y-113014635D01*
X152590352Y-112978952D01*
X152634667Y-112912631D01*
X152646300Y-112854148D01*
X152646300Y-112114652D01*
X152634667Y-112056169D01*
X152590352Y-111989848D01*
X152536948Y-111954164D01*
X152491421Y-111899688D01*
X152482573Y-111829245D01*
X152509802Y-111769163D01*
X152522714Y-111753528D01*
X152524031Y-111753267D01*
X152590352Y-111708952D01*
X152634667Y-111642631D01*
X152641126Y-111610159D01*
X152661358Y-111585663D01*
X152665510Y-111582853D01*
X152667835Y-111578410D01*
X152694624Y-111563153D01*
X152720159Y-111545877D01*
X152725171Y-111545758D01*
X152729529Y-111543277D01*
X152758507Y-111539900D01*
X153668345Y-111539900D01*
X153668347Y-111539900D01*
X153751133Y-111517718D01*
X153825356Y-111474865D01*
X154280205Y-111020014D01*
X154342517Y-110985991D01*
X154413332Y-110991055D01*
X154470168Y-111033602D01*
X154494979Y-111100122D01*
X154495300Y-111109111D01*
X154495300Y-112761650D01*
X154505295Y-112811900D01*
X154506933Y-112820131D01*
X154551248Y-112886452D01*
X154617569Y-112930767D01*
X154676052Y-112942400D01*
X154676053Y-112942400D01*
X156415547Y-112942400D01*
X156415548Y-112942400D01*
X156474031Y-112930767D01*
X156540352Y-112886452D01*
X156584667Y-112820131D01*
X156596300Y-112761648D01*
X156596300Y-111022152D01*
X156596299Y-111022149D01*
X157035300Y-111022149D01*
X157035300Y-112761650D01*
X157045295Y-112811900D01*
X157046933Y-112820131D01*
X157091248Y-112886452D01*
X157157569Y-112930767D01*
X157216052Y-112942400D01*
X157216053Y-112942400D01*
X158955547Y-112942400D01*
X158955548Y-112942400D01*
X159014031Y-112930767D01*
X159080352Y-112886452D01*
X159124667Y-112820131D01*
X159136300Y-112761648D01*
X159136300Y-112026509D01*
X201905300Y-112026509D01*
X201905300Y-112352290D01*
X201941776Y-112676020D01*
X201961321Y-112761650D01*
X202014268Y-112993627D01*
X202014270Y-112993633D01*
X202014269Y-112993633D01*
X202121858Y-113301104D01*
X202121863Y-113301118D01*
X202121865Y-113301122D01*
X202140438Y-113339688D01*
X202263216Y-113594639D01*
X202263217Y-113594641D01*
X202436539Y-113870481D01*
X202639659Y-114125186D01*
X202870013Y-114355540D01*
X202981938Y-114444797D01*
X203124719Y-114558661D01*
X203400563Y-114731985D01*
X203694078Y-114873335D01*
X203694093Y-114873340D01*
X203694095Y-114873341D01*
X204001566Y-114980930D01*
X204001569Y-114980930D01*
X204001573Y-114980932D01*
X204319183Y-115053424D01*
X204548734Y-115079288D01*
X204642909Y-115089900D01*
X204642911Y-115089900D01*
X204968691Y-115089900D01*
X205050906Y-115080636D01*
X205292417Y-115053424D01*
X205610027Y-114980932D01*
X205917522Y-114873335D01*
X206211037Y-114731985D01*
X206486881Y-114558661D01*
X206741583Y-114355543D01*
X206971943Y-114125183D01*
X207175061Y-113870481D01*
X207348385Y-113594637D01*
X207489735Y-113301122D01*
X207597332Y-112993627D01*
X207669824Y-112676017D01*
X207706300Y-112352289D01*
X207706300Y-112026511D01*
X207669824Y-111702783D01*
X207597332Y-111385173D01*
X207586038Y-111352897D01*
X207489741Y-111077695D01*
X207489740Y-111077693D01*
X207489735Y-111077678D01*
X207348385Y-110784163D01*
X207320774Y-110740221D01*
X207238391Y-110609108D01*
X207175061Y-110508319D01*
X207062050Y-110366608D01*
X206971940Y-110253613D01*
X206741586Y-110023259D01*
X206486881Y-109820139D01*
X206211041Y-109646817D01*
X206211039Y-109646816D01*
X206175473Y-109629688D01*
X205917522Y-109505465D01*
X205917518Y-109505463D01*
X205917504Y-109505458D01*
X205610033Y-109397869D01*
X205292420Y-109325376D01*
X204968691Y-109288900D01*
X204968689Y-109288900D01*
X204642911Y-109288900D01*
X204642909Y-109288900D01*
X204319179Y-109325376D01*
X204001566Y-109397869D01*
X203694095Y-109505458D01*
X203694075Y-109505466D01*
X203400560Y-109646816D01*
X203400558Y-109646817D01*
X203124718Y-109820139D01*
X202870013Y-110023259D01*
X202639659Y-110253613D01*
X202436539Y-110508318D01*
X202263217Y-110784158D01*
X202263216Y-110784160D01*
X202121866Y-111077675D01*
X202121858Y-111077695D01*
X202014269Y-111385166D01*
X201941776Y-111702779D01*
X201905300Y-112026509D01*
X159136300Y-112026509D01*
X159136300Y-111022152D01*
X159124667Y-110963669D01*
X159080352Y-110897348D01*
X159014031Y-110853033D01*
X159014028Y-110853032D01*
X158955550Y-110841400D01*
X158955548Y-110841400D01*
X157216052Y-110841400D01*
X157216049Y-110841400D01*
X157157571Y-110853032D01*
X157157568Y-110853033D01*
X157091248Y-110897348D01*
X157046933Y-110963668D01*
X157046932Y-110963671D01*
X157035300Y-111022149D01*
X156596299Y-111022149D01*
X156584667Y-110963669D01*
X156540352Y-110897348D01*
X156474031Y-110853033D01*
X156474028Y-110853032D01*
X156415550Y-110841400D01*
X156415548Y-110841400D01*
X154763011Y-110841400D01*
X154741423Y-110835061D01*
X154718979Y-110833456D01*
X154708022Y-110825254D01*
X154694890Y-110821398D01*
X154680154Y-110804392D01*
X154662143Y-110790909D01*
X154657360Y-110778086D01*
X154648397Y-110767742D01*
X154645194Y-110745469D01*
X154637332Y-110724389D01*
X154639345Y-110715133D01*
X163720300Y-110715133D01*
X163720300Y-111523666D01*
X163723154Y-111554100D01*
X163723155Y-111554104D01*
X163768006Y-111682281D01*
X163768008Y-111682285D01*
X163848649Y-111791550D01*
X163957914Y-111872191D01*
X163957918Y-111872193D01*
X164001994Y-111887616D01*
X164086101Y-111917046D01*
X164116534Y-111919900D01*
X164116536Y-111919900D01*
X165375064Y-111919900D01*
X165375066Y-111919900D01*
X165405499Y-111917046D01*
X165533682Y-111872193D01*
X165562836Y-111850677D01*
X165642950Y-111791550D01*
X165729201Y-111674685D01*
X165730700Y-111675791D01*
X165772151Y-111633180D01*
X165841311Y-111617133D01*
X165908167Y-111641023D01*
X165923152Y-111653829D01*
X166010512Y-111741189D01*
X166141622Y-111828794D01*
X166287304Y-111889137D01*
X166441959Y-111919900D01*
X166441960Y-111919900D01*
X167049642Y-111919900D01*
X167049643Y-111919900D01*
X167204298Y-111889137D01*
X167349980Y-111828794D01*
X167481090Y-111741189D01*
X167592590Y-111629689D01*
X167680195Y-111498579D01*
X167740538Y-111352897D01*
X167771301Y-111198242D01*
X167771301Y-111040558D01*
X167740538Y-110885903D01*
X167680195Y-110740221D01*
X167592590Y-110609111D01*
X167481090Y-110497611D01*
X167349980Y-110410006D01*
X167204298Y-110349663D01*
X167049645Y-110318900D01*
X167049643Y-110318900D01*
X166441959Y-110318900D01*
X166441956Y-110318900D01*
X166287303Y-110349663D01*
X166287298Y-110349665D01*
X166141621Y-110410006D01*
X166010516Y-110497608D01*
X166010514Y-110497609D01*
X165923152Y-110584971D01*
X165860840Y-110618996D01*
X165790024Y-110613930D01*
X165733188Y-110571383D01*
X165724890Y-110558274D01*
X165642950Y-110447249D01*
X165533685Y-110366608D01*
X165533681Y-110366606D01*
X165405504Y-110321755D01*
X165405500Y-110321754D01*
X165375066Y-110318900D01*
X164116534Y-110318900D01*
X164116533Y-110318900D01*
X164086099Y-110321754D01*
X164086095Y-110321755D01*
X163957918Y-110366606D01*
X163957914Y-110366608D01*
X163848649Y-110447249D01*
X163768008Y-110556514D01*
X163768006Y-110556518D01*
X163723155Y-110684695D01*
X163723154Y-110684699D01*
X163720300Y-110715133D01*
X154639345Y-110715133D01*
X154640240Y-110711016D01*
X154638293Y-110697468D01*
X154647640Y-110677001D01*
X154652423Y-110655015D01*
X154665908Y-110637001D01*
X154667787Y-110632888D01*
X154673916Y-110626305D01*
X154674892Y-110625327D01*
X156556148Y-108744071D01*
X156618457Y-108710049D01*
X156645831Y-108708912D01*
X156645831Y-108707247D01*
X156812202Y-108707247D01*
X156812204Y-108707247D01*
X156964931Y-108666324D01*
X156964934Y-108666322D01*
X156964935Y-108666322D01*
X157064021Y-108609115D01*
X157101863Y-108587267D01*
X157157046Y-108532084D01*
X157219507Y-108469624D01*
X157221965Y-108472082D01*
X157266311Y-108439686D01*
X157308964Y-108432247D01*
X158165626Y-108432247D01*
X158233747Y-108452249D01*
X158274746Y-108495249D01*
X158277930Y-108500765D01*
X158277938Y-108500775D01*
X158389730Y-108612567D01*
X158389735Y-108612571D01*
X158389737Y-108612573D01*
X158389738Y-108612574D01*
X158389740Y-108612575D01*
X158526664Y-108691628D01*
X158526666Y-108691628D01*
X158526669Y-108691630D01*
X158679396Y-108732553D01*
X158679398Y-108732553D01*
X158837508Y-108732553D01*
X158837510Y-108732553D01*
X158990237Y-108691630D01*
X158990240Y-108691628D01*
X158990241Y-108691628D01*
X159058703Y-108652101D01*
X159127169Y-108612573D01*
X159238973Y-108500769D01*
X159318030Y-108363837D01*
X159358953Y-108211110D01*
X159358953Y-108052996D01*
X159318030Y-107900269D01*
X159318028Y-107900266D01*
X159318028Y-107900264D01*
X159238975Y-107763340D01*
X159238967Y-107763330D01*
X159127175Y-107651538D01*
X159127165Y-107651530D01*
X158990241Y-107572477D01*
X158933166Y-107557184D01*
X158837510Y-107531553D01*
X158819239Y-107531553D01*
X158751118Y-107511551D01*
X158704625Y-107457895D01*
X158694521Y-107387621D01*
X158702826Y-107357344D01*
X158705375Y-107351187D01*
X158705374Y-107351187D01*
X158705377Y-107351184D01*
X158746300Y-107198457D01*
X158746300Y-107040343D01*
X158705377Y-106887616D01*
X158705375Y-106887613D01*
X158705375Y-106887611D01*
X158626322Y-106750687D01*
X158626314Y-106750677D01*
X158514522Y-106638885D01*
X158514512Y-106638877D01*
X158377588Y-106559824D01*
X158359543Y-106554989D01*
X158224857Y-106518900D01*
X158066743Y-106518900D01*
X157986713Y-106540344D01*
X157914011Y-106559824D01*
X157777087Y-106638877D01*
X157777077Y-106638885D01*
X157659440Y-106756523D01*
X157656981Y-106754064D01*
X157612636Y-106786461D01*
X157569983Y-106793900D01*
X155788653Y-106793900D01*
X155702947Y-106793900D01*
X155620161Y-106816082D01*
X155620159Y-106816082D01*
X155620155Y-106816084D01*
X155592118Y-106832271D01*
X155592111Y-106832276D01*
X155583050Y-106837508D01*
X155545938Y-106858935D01*
X155485335Y-106919538D01*
X155485333Y-106919540D01*
X155481055Y-106923818D01*
X154422799Y-107982073D01*
X154360487Y-108016098D01*
X154333115Y-108017250D01*
X154333115Y-108018900D01*
X154324857Y-108018900D01*
X154166743Y-108018900D01*
X154073270Y-108043945D01*
X154014011Y-108059824D01*
X153877087Y-108138877D01*
X153877077Y-108138885D01*
X153759440Y-108256523D01*
X153756981Y-108254064D01*
X153712636Y-108286461D01*
X153669983Y-108293900D01*
X153236747Y-108293900D01*
X153168626Y-108273898D01*
X153122133Y-108220242D01*
X153112029Y-108149968D01*
X153141523Y-108085388D01*
X153166745Y-108063135D01*
X153174029Y-108058267D01*
X153174031Y-108058267D01*
X153240352Y-108013952D01*
X153284667Y-107947631D01*
X153296300Y-107889148D01*
X153296300Y-106049652D01*
X153284667Y-105991169D01*
X153240352Y-105924848D01*
X153174031Y-105880533D01*
X153174028Y-105880532D01*
X153115550Y-105868900D01*
X153115548Y-105868900D01*
X151476052Y-105868900D01*
X151476049Y-105868900D01*
X151417571Y-105880532D01*
X151417568Y-105880533D01*
X151351248Y-105924848D01*
X151306933Y-105991168D01*
X151306932Y-105991171D01*
X151295300Y-106049649D01*
X151295300Y-107889150D01*
X151301416Y-107919899D01*
X151306933Y-107947631D01*
X151351248Y-108013952D01*
X151417569Y-108058267D01*
X151476052Y-108069900D01*
X151476053Y-108069900D01*
X152274861Y-108069900D01*
X152342982Y-108089902D01*
X152389475Y-108143558D01*
X152399579Y-108213832D01*
X152370085Y-108278412D01*
X152319865Y-108310686D01*
X152320792Y-108312922D01*
X152313156Y-108316084D01*
X152238941Y-108358932D01*
X152238931Y-108358940D01*
X148985340Y-111612531D01*
X148985332Y-111612541D01*
X148942484Y-111686756D01*
X148942479Y-111686768D01*
X148928516Y-111738877D01*
X148928517Y-111738878D01*
X148920300Y-111769544D01*
X146445181Y-111769544D01*
X146414522Y-111738885D01*
X146414512Y-111738877D01*
X146277588Y-111659824D01*
X146207421Y-111641023D01*
X146124857Y-111618900D01*
X145966743Y-111618900D01*
X145884179Y-111641023D01*
X145814011Y-111659824D01*
X145677087Y-111738877D01*
X145677077Y-111738885D01*
X145565285Y-111850677D01*
X145565277Y-111850687D01*
X145486224Y-111987611D01*
X145475801Y-112026511D01*
X145445300Y-112140343D01*
X129726300Y-112140343D01*
X129726300Y-112076511D01*
X129689824Y-111752783D01*
X129617332Y-111435173D01*
X129605637Y-111401751D01*
X129509741Y-111127695D01*
X129509740Y-111127693D01*
X129509735Y-111127678D01*
X129368385Y-110834163D01*
X129195061Y-110558319D01*
X129028665Y-110349665D01*
X128991940Y-110303613D01*
X128761586Y-110073259D01*
X128506881Y-109870139D01*
X128231041Y-109696817D01*
X128231039Y-109696816D01*
X128127216Y-109646817D01*
X127937522Y-109555465D01*
X127937518Y-109555463D01*
X127937504Y-109555458D01*
X127630033Y-109447869D01*
X127312420Y-109375376D01*
X126988691Y-109338900D01*
X126988689Y-109338900D01*
X126662911Y-109338900D01*
X126662909Y-109338900D01*
X126339179Y-109375376D01*
X126021566Y-109447869D01*
X125714095Y-109555458D01*
X125714075Y-109555466D01*
X125420560Y-109696816D01*
X125420558Y-109696817D01*
X125144718Y-109870139D01*
X124890013Y-110073259D01*
X124659659Y-110303613D01*
X124456539Y-110558318D01*
X124283217Y-110834158D01*
X124283216Y-110834160D01*
X124141866Y-111127675D01*
X124141858Y-111127695D01*
X124034269Y-111435166D01*
X123961776Y-111752779D01*
X123925300Y-112076509D01*
X115746700Y-112076509D01*
X115746700Y-106540343D01*
X145645300Y-106540343D01*
X145645300Y-106698457D01*
X145676818Y-106816084D01*
X145686224Y-106851188D01*
X145765277Y-106988112D01*
X145765285Y-106988122D01*
X145877077Y-107099914D01*
X145877082Y-107099918D01*
X145877084Y-107099920D01*
X145877085Y-107099921D01*
X145877087Y-107099922D01*
X146014011Y-107178975D01*
X146014013Y-107178975D01*
X146014016Y-107178977D01*
X146166743Y-107219900D01*
X146166745Y-107219900D01*
X146324855Y-107219900D01*
X146324857Y-107219900D01*
X146477584Y-107178977D01*
X146477587Y-107178975D01*
X146477588Y-107178975D01*
X146546050Y-107139448D01*
X146614516Y-107099920D01*
X146726320Y-106988116D01*
X146805377Y-106851184D01*
X146846300Y-106698457D01*
X146846300Y-106540343D01*
X146805377Y-106387616D01*
X146805375Y-106387613D01*
X146805375Y-106387611D01*
X146726322Y-106250687D01*
X146726314Y-106250677D01*
X146614522Y-106138885D01*
X146614512Y-106138877D01*
X146477588Y-106059824D01*
X146439614Y-106049649D01*
X146324857Y-106018900D01*
X146166743Y-106018900D01*
X146073270Y-106043945D01*
X146014011Y-106059824D01*
X145877087Y-106138877D01*
X145877077Y-106138885D01*
X145765285Y-106250677D01*
X145765277Y-106250687D01*
X145686224Y-106387611D01*
X145663344Y-106472999D01*
X145645300Y-106540343D01*
X115746700Y-106540343D01*
X115746700Y-104540343D01*
X147145300Y-104540343D01*
X147145300Y-104698457D01*
X147165755Y-104774795D01*
X147186224Y-104851188D01*
X147265277Y-104988112D01*
X147265285Y-104988122D01*
X147377077Y-105099914D01*
X147377082Y-105099918D01*
X147377084Y-105099920D01*
X147377085Y-105099921D01*
X147377087Y-105099922D01*
X147514011Y-105178975D01*
X147514013Y-105178975D01*
X147514016Y-105178977D01*
X147666743Y-105219900D01*
X147666745Y-105219900D01*
X147824855Y-105219900D01*
X147824857Y-105219900D01*
X147977584Y-105178977D01*
X147977587Y-105178975D01*
X147977588Y-105178975D01*
X148046050Y-105139448D01*
X148114516Y-105099920D01*
X148174093Y-105040343D01*
X155645300Y-105040343D01*
X155645300Y-105198457D01*
X155679592Y-105326438D01*
X155686224Y-105351188D01*
X155765277Y-105488112D01*
X155765285Y-105488122D01*
X155877077Y-105599914D01*
X155877082Y-105599918D01*
X155877084Y-105599920D01*
X155877085Y-105599921D01*
X155877087Y-105599922D01*
X156014011Y-105678975D01*
X156014013Y-105678975D01*
X156014016Y-105678977D01*
X156166743Y-105719900D01*
X156166745Y-105719900D01*
X156324855Y-105719900D01*
X156324857Y-105719900D01*
X156477584Y-105678977D01*
X156477587Y-105678975D01*
X156477588Y-105678975D01*
X156596575Y-105610278D01*
X156614516Y-105599920D01*
X156726320Y-105488116D01*
X156784051Y-105388122D01*
X156805375Y-105351188D01*
X156805375Y-105351187D01*
X156805377Y-105351184D01*
X156846300Y-105198457D01*
X156846300Y-105040343D01*
X156805377Y-104887616D01*
X156805375Y-104887613D01*
X156805375Y-104887611D01*
X156726322Y-104750687D01*
X156726314Y-104750677D01*
X156614522Y-104638885D01*
X156614512Y-104638877D01*
X156477588Y-104559824D01*
X156414833Y-104543009D01*
X156324857Y-104518900D01*
X156166743Y-104518900D01*
X156086713Y-104540344D01*
X156014011Y-104559824D01*
X155877087Y-104638877D01*
X155877077Y-104638885D01*
X155765285Y-104750677D01*
X155765277Y-104750687D01*
X155686224Y-104887611D01*
X155664394Y-104969082D01*
X155645300Y-105040343D01*
X148174093Y-105040343D01*
X148226320Y-104988116D01*
X148305377Y-104851184D01*
X148346300Y-104698457D01*
X148346300Y-104540343D01*
X148305377Y-104387616D01*
X148305375Y-104387613D01*
X148305375Y-104387611D01*
X148226322Y-104250687D01*
X148226314Y-104250677D01*
X148114522Y-104138885D01*
X148114511Y-104138876D01*
X147977588Y-104059824D01*
X147959543Y-104054989D01*
X147904883Y-104040343D01*
X162045300Y-104040343D01*
X162045300Y-104198457D01*
X162059294Y-104250684D01*
X162086224Y-104351188D01*
X162165277Y-104488112D01*
X162165279Y-104488115D01*
X162165280Y-104488116D01*
X162233771Y-104556607D01*
X162267795Y-104618917D01*
X162270675Y-104645701D01*
X162270675Y-106970013D01*
X162270675Y-107068785D01*
X162279016Y-107099914D01*
X162296238Y-107164189D01*
X162296241Y-107164196D01*
X162345622Y-107249727D01*
X162345630Y-107249737D01*
X163759110Y-108663216D01*
X163793135Y-108725528D01*
X163788071Y-108796343D01*
X163786425Y-108800527D01*
X163751065Y-108885896D01*
X163751063Y-108885901D01*
X163720300Y-109040554D01*
X163720300Y-109198243D01*
X163724608Y-109219900D01*
X163751063Y-109352896D01*
X163811406Y-109498578D01*
X163899011Y-109629688D01*
X164010511Y-109741188D01*
X164141621Y-109828793D01*
X164287303Y-109889136D01*
X164441958Y-109919899D01*
X164441959Y-109919899D01*
X165049641Y-109919899D01*
X165049642Y-109919899D01*
X165204297Y-109889136D01*
X165349979Y-109828793D01*
X165481089Y-109741188D01*
X165592589Y-109629688D01*
X165641035Y-109557183D01*
X165695510Y-109511657D01*
X165765953Y-109502808D01*
X165829997Y-109533449D01*
X165850564Y-109557184D01*
X165899007Y-109629684D01*
X165899009Y-109629686D01*
X165899011Y-109629689D01*
X166010511Y-109741189D01*
X166141621Y-109828794D01*
X166287303Y-109889137D01*
X166441958Y-109919900D01*
X166441959Y-109919900D01*
X167049641Y-109919900D01*
X167049642Y-109919900D01*
X167204297Y-109889137D01*
X167349979Y-109828794D01*
X167481089Y-109741189D01*
X167592589Y-109629689D01*
X167680194Y-109498579D01*
X167740537Y-109352897D01*
X167771300Y-109198242D01*
X167771300Y-109040558D01*
X167740537Y-108885903D01*
X167680194Y-108740221D01*
X167592589Y-108609111D01*
X167481089Y-108497611D01*
X167349979Y-108410006D01*
X167204299Y-108349664D01*
X167204297Y-108349663D01*
X167049644Y-108318900D01*
X167049642Y-108318900D01*
X166441958Y-108318900D01*
X166441955Y-108318900D01*
X166287302Y-108349663D01*
X166287297Y-108349665D01*
X166141620Y-108410006D01*
X166010515Y-108497608D01*
X166010508Y-108497613D01*
X165899013Y-108609108D01*
X165899011Y-108609111D01*
X165850565Y-108681615D01*
X165796087Y-108727142D01*
X165725644Y-108735989D01*
X165661600Y-108705348D01*
X165641035Y-108681614D01*
X165594904Y-108612575D01*
X165592589Y-108609110D01*
X165481089Y-108497610D01*
X165349979Y-108410005D01*
X165204302Y-108349664D01*
X165204297Y-108349662D01*
X165049644Y-108318899D01*
X165049642Y-108318899D01*
X164527997Y-108318899D01*
X164498081Y-108310115D01*
X164467612Y-108303487D01*
X164462516Y-108299672D01*
X164459876Y-108298897D01*
X164438902Y-108281994D01*
X164279847Y-108122939D01*
X164245821Y-108060627D01*
X164250886Y-107989812D01*
X164293433Y-107932976D01*
X164359953Y-107908165D01*
X164393524Y-107910265D01*
X164406267Y-107912800D01*
X164441950Y-107919899D01*
X164441956Y-107919899D01*
X164441958Y-107919900D01*
X164441959Y-107919900D01*
X165049641Y-107919900D01*
X165049642Y-107919900D01*
X165204297Y-107889137D01*
X165349979Y-107828794D01*
X165481089Y-107741189D01*
X165592589Y-107629689D01*
X165630818Y-107572476D01*
X165641035Y-107557185D01*
X165695511Y-107511657D01*
X165765954Y-107502808D01*
X165829999Y-107533449D01*
X165850565Y-107557184D01*
X165857043Y-107566879D01*
X165899011Y-107629688D01*
X166010511Y-107741188D01*
X166141621Y-107828793D01*
X166287303Y-107889136D01*
X166441958Y-107919899D01*
X166441959Y-107919899D01*
X167049641Y-107919899D01*
X167049642Y-107919899D01*
X167204297Y-107889136D01*
X167349979Y-107828793D01*
X167481089Y-107741188D01*
X167592589Y-107629688D01*
X167680194Y-107498578D01*
X167740537Y-107352896D01*
X167771300Y-107198241D01*
X167771300Y-107040557D01*
X167740537Y-106885902D01*
X167680194Y-106740220D01*
X167592589Y-106609110D01*
X167481089Y-106497610D01*
X167349979Y-106410005D01*
X167204299Y-106349663D01*
X167204297Y-106349662D01*
X167049644Y-106318899D01*
X167049642Y-106318899D01*
X166441958Y-106318899D01*
X166441955Y-106318899D01*
X166287302Y-106349662D01*
X166287297Y-106349664D01*
X166141620Y-106410005D01*
X166010515Y-106497607D01*
X166010508Y-106497612D01*
X165899013Y-106609107D01*
X165899005Y-106609116D01*
X165850563Y-106681615D01*
X165796086Y-106727142D01*
X165725643Y-106735989D01*
X165661599Y-106705348D01*
X165641034Y-106681614D01*
X165592592Y-106609116D01*
X165592589Y-106609111D01*
X165481089Y-106497611D01*
X165349979Y-106410006D01*
X165204299Y-106349664D01*
X165204297Y-106349663D01*
X165049644Y-106318900D01*
X165049642Y-106318900D01*
X164441958Y-106318900D01*
X164441955Y-106318900D01*
X164287302Y-106349663D01*
X164287297Y-106349665D01*
X164141620Y-106410006D01*
X164010515Y-106497608D01*
X164010508Y-106497613D01*
X163899013Y-106609108D01*
X163899008Y-106609115D01*
X163811406Y-106740220D01*
X163751065Y-106885897D01*
X163751063Y-106885902D01*
X163720300Y-107040555D01*
X163720300Y-107198244D01*
X163729934Y-107246675D01*
X163723606Y-107317389D01*
X163680052Y-107373457D01*
X163613100Y-107397076D01*
X163544006Y-107380749D01*
X163517260Y-107360352D01*
X163057830Y-106900922D01*
X163023804Y-106838610D01*
X163020925Y-106811827D01*
X163020925Y-104645701D01*
X163040927Y-104577580D01*
X163057825Y-104556610D01*
X163126320Y-104488116D01*
X163205377Y-104351184D01*
X163246300Y-104198457D01*
X163246300Y-104040343D01*
X163205377Y-103887616D01*
X163205375Y-103887613D01*
X163205375Y-103887611D01*
X163126322Y-103750687D01*
X163126314Y-103750677D01*
X163014522Y-103638885D01*
X163014512Y-103638877D01*
X162877588Y-103559824D01*
X162854971Y-103553764D01*
X162724857Y-103518900D01*
X162566743Y-103518900D01*
X162473270Y-103543945D01*
X162414011Y-103559824D01*
X162277087Y-103638877D01*
X162277077Y-103638885D01*
X162165285Y-103750677D01*
X162165277Y-103750687D01*
X162086224Y-103887611D01*
X162075219Y-103928683D01*
X162045300Y-104040343D01*
X147904883Y-104040343D01*
X147824857Y-104018900D01*
X147666743Y-104018900D01*
X147586713Y-104040344D01*
X147514011Y-104059824D01*
X147377087Y-104138877D01*
X147377077Y-104138885D01*
X147265285Y-104250677D01*
X147265277Y-104250687D01*
X147186224Y-104387611D01*
X147177840Y-104418900D01*
X147145300Y-104540343D01*
X115746700Y-104540343D01*
X115746700Y-103040555D01*
X163720300Y-103040555D01*
X163720300Y-103198244D01*
X163751063Y-103352897D01*
X163751065Y-103352902D01*
X163811406Y-103498579D01*
X163899011Y-103629689D01*
X164010511Y-103741189D01*
X164141621Y-103828794D01*
X164287303Y-103889137D01*
X164441958Y-103919900D01*
X164441959Y-103919900D01*
X165030955Y-103919900D01*
X165060870Y-103928683D01*
X165091340Y-103935312D01*
X165096435Y-103939126D01*
X165099076Y-103939902D01*
X165120050Y-103956805D01*
X165295829Y-104132584D01*
X165329855Y-104194896D01*
X165324790Y-104265711D01*
X165282243Y-104322547D01*
X165215723Y-104347358D01*
X165182152Y-104345258D01*
X165049644Y-104318900D01*
X165049642Y-104318900D01*
X164441958Y-104318900D01*
X164441955Y-104318900D01*
X164287302Y-104349663D01*
X164287297Y-104349665D01*
X164141620Y-104410006D01*
X164010515Y-104497608D01*
X164010508Y-104497613D01*
X163899013Y-104609108D01*
X163899008Y-104609115D01*
X163811406Y-104740220D01*
X163751065Y-104885897D01*
X163751063Y-104885902D01*
X163720300Y-105040555D01*
X163720300Y-105198244D01*
X163745800Y-105326438D01*
X163751063Y-105352897D01*
X163811406Y-105498579D01*
X163899011Y-105629689D01*
X164010511Y-105741189D01*
X164141621Y-105828794D01*
X164287303Y-105889137D01*
X164441958Y-105919900D01*
X164441959Y-105919900D01*
X165049641Y-105919900D01*
X165049642Y-105919900D01*
X165204297Y-105889137D01*
X165349979Y-105828794D01*
X165481089Y-105741189D01*
X165592589Y-105629689D01*
X165641035Y-105557185D01*
X165695511Y-105511657D01*
X165765954Y-105502808D01*
X165829999Y-105533449D01*
X165850565Y-105557185D01*
X165899004Y-105629680D01*
X165899008Y-105629685D01*
X165899011Y-105629689D01*
X166010511Y-105741189D01*
X166141621Y-105828794D01*
X166287303Y-105889137D01*
X166441958Y-105919900D01*
X166441959Y-105919900D01*
X167049641Y-105919900D01*
X167049642Y-105919900D01*
X167204297Y-105889137D01*
X167349979Y-105828794D01*
X167481089Y-105741189D01*
X167592589Y-105629689D01*
X167678645Y-105500897D01*
X167733120Y-105455371D01*
X167783409Y-105444900D01*
X168617700Y-105444900D01*
X168685821Y-105464902D01*
X168720916Y-105498634D01*
X168721737Y-105499807D01*
X168805394Y-105583464D01*
X168805395Y-105583464D01*
X168805396Y-105583465D01*
X168912627Y-105633468D01*
X168961484Y-105639900D01*
X168961492Y-105639900D01*
X169310108Y-105639900D01*
X169310116Y-105639900D01*
X169358973Y-105633468D01*
X169466204Y-105583465D01*
X169508074Y-105541595D01*
X169556704Y-105492966D01*
X169619016Y-105458940D01*
X169689831Y-105464005D01*
X169734894Y-105492966D01*
X169825392Y-105583464D01*
X169825393Y-105583464D01*
X169825394Y-105583465D01*
X169932625Y-105633468D01*
X169981482Y-105639900D01*
X169981490Y-105639900D01*
X170330106Y-105639900D01*
X170330114Y-105639900D01*
X170378971Y-105633468D01*
X170486202Y-105583465D01*
X170569863Y-105499804D01*
X170569864Y-105499800D01*
X170570682Y-105498634D01*
X170572436Y-105497231D01*
X170576483Y-105493184D01*
X170578674Y-105488388D01*
X170603283Y-105472572D01*
X170626137Y-105454303D01*
X170634172Y-105452721D01*
X170638400Y-105450004D01*
X170673898Y-105444900D01*
X170727085Y-105444900D01*
X170795206Y-105464902D01*
X170839352Y-105513697D01*
X170896140Y-105625151D01*
X170990047Y-105719058D01*
X171033476Y-105741186D01*
X171108379Y-105779351D01*
X171206553Y-105794900D01*
X171206555Y-105794900D01*
X171710043Y-105794900D01*
X171710045Y-105794900D01*
X171808219Y-105779351D01*
X171926550Y-105719058D01*
X172020457Y-105625151D01*
X172080750Y-105506820D01*
X172096299Y-105408646D01*
X172096299Y-104830155D01*
X172395301Y-104830155D01*
X172395301Y-105408644D01*
X172410849Y-105506818D01*
X172471142Y-105625151D01*
X172565049Y-105719058D01*
X172608478Y-105741186D01*
X172683381Y-105779351D01*
X172781555Y-105794900D01*
X172781557Y-105794900D01*
X173285045Y-105794900D01*
X173285047Y-105794900D01*
X173383221Y-105779351D01*
X173501552Y-105719058D01*
X173595459Y-105625151D01*
X173603037Y-105610277D01*
X173651785Y-105558662D01*
X173720700Y-105541595D01*
X173778305Y-105558360D01*
X173814011Y-105578975D01*
X173814013Y-105578975D01*
X173814016Y-105578977D01*
X173966743Y-105619900D01*
X173966745Y-105619900D01*
X174124855Y-105619900D01*
X174124857Y-105619900D01*
X174277584Y-105578977D01*
X174277587Y-105578975D01*
X174277588Y-105578975D01*
X174346050Y-105539448D01*
X174414516Y-105499920D01*
X174526320Y-105388116D01*
X174605377Y-105251184D01*
X174646300Y-105098457D01*
X174646300Y-104940343D01*
X174605377Y-104787616D01*
X174605375Y-104787613D01*
X174605375Y-104787611D01*
X174526322Y-104650687D01*
X174526314Y-104650677D01*
X174414522Y-104538885D01*
X174414512Y-104538877D01*
X174277588Y-104459824D01*
X174218158Y-104443900D01*
X174124857Y-104418900D01*
X173966743Y-104418900D01*
X173873688Y-104443834D01*
X173814011Y-104459824D01*
X173677077Y-104538883D01*
X173676248Y-104539520D01*
X173675422Y-104539839D01*
X173669932Y-104543009D01*
X173669437Y-104542152D01*
X173610026Y-104565116D01*
X173540479Y-104550846D01*
X173510457Y-104528647D01*
X173501552Y-104519742D01*
X173383221Y-104459449D01*
X173383220Y-104459448D01*
X173383219Y-104459448D01*
X173316143Y-104448825D01*
X173285047Y-104443900D01*
X172781555Y-104443900D01*
X172754710Y-104448151D01*
X172683382Y-104459448D01*
X172565049Y-104519741D01*
X172471142Y-104613648D01*
X172410849Y-104731981D01*
X172395301Y-104830155D01*
X172096299Y-104830155D01*
X172096299Y-104830154D01*
X172080750Y-104731980D01*
X172039329Y-104650687D01*
X172020457Y-104613648D01*
X171926550Y-104519741D01*
X171808217Y-104459448D01*
X171741141Y-104448825D01*
X171710045Y-104443900D01*
X171206553Y-104443900D01*
X171179708Y-104448151D01*
X171108380Y-104459448D01*
X170990047Y-104519741D01*
X170896140Y-104613648D01*
X170839352Y-104725103D01*
X170828732Y-104736347D01*
X170822309Y-104750412D01*
X170804854Y-104761629D01*
X170790604Y-104776718D01*
X170774669Y-104781028D01*
X170762583Y-104788796D01*
X170727085Y-104793900D01*
X170673898Y-104793900D01*
X170605777Y-104773898D01*
X170570682Y-104740166D01*
X170569860Y-104738992D01*
X170486203Y-104655335D01*
X170378969Y-104605331D01*
X170330120Y-104598900D01*
X170330114Y-104598900D01*
X169981482Y-104598900D01*
X169981475Y-104598900D01*
X169932626Y-104605331D01*
X169825392Y-104655335D01*
X169825391Y-104655336D01*
X169734894Y-104745834D01*
X169672582Y-104779860D01*
X169601767Y-104774795D01*
X169556704Y-104745834D01*
X169466205Y-104655335D01*
X169358971Y-104605331D01*
X169310122Y-104598900D01*
X169310116Y-104598900D01*
X168961484Y-104598900D01*
X168961477Y-104598900D01*
X168912628Y-104605331D01*
X168805394Y-104655335D01*
X168721737Y-104738992D01*
X168720916Y-104740166D01*
X168719161Y-104741568D01*
X168713940Y-104746790D01*
X168713357Y-104746207D01*
X168665461Y-104784497D01*
X168617700Y-104793900D01*
X167783409Y-104793900D01*
X167775669Y-104791627D01*
X167767705Y-104792918D01*
X167742091Y-104781768D01*
X167715288Y-104773898D01*
X167708345Y-104767078D01*
X167702609Y-104764581D01*
X167678646Y-104737904D01*
X167623920Y-104656001D01*
X167602706Y-104588248D01*
X167621490Y-104519781D01*
X167674307Y-104472339D01*
X167728686Y-104460000D01*
X168134174Y-104460000D01*
X168166784Y-104464293D01*
X168170627Y-104465322D01*
X168175410Y-104466604D01*
X168263382Y-104466604D01*
X168348355Y-104443835D01*
X168424540Y-104399850D01*
X176690568Y-96133820D01*
X176690578Y-96133813D01*
X176763146Y-96061245D01*
X176763150Y-96061241D01*
X176807135Y-95985055D01*
X176813500Y-95961300D01*
X176829905Y-95900081D01*
X176829905Y-95812110D01*
X176829904Y-95812106D01*
X176829904Y-82809980D01*
X176849906Y-82741859D01*
X176866809Y-82720885D01*
X177597285Y-81990409D01*
X177659597Y-81956383D01*
X177686380Y-81953504D01*
X191289786Y-81953504D01*
X191374759Y-81930735D01*
X191450945Y-81886750D01*
X191513150Y-81824545D01*
X191523515Y-81814180D01*
X191523521Y-81814171D01*
X193597140Y-79740555D01*
X195020300Y-79740555D01*
X195020300Y-79740558D01*
X195020300Y-79898242D01*
X195051063Y-80052897D01*
X195111406Y-80198579D01*
X195199011Y-80329689D01*
X195310511Y-80441189D01*
X195441621Y-80528794D01*
X195587303Y-80589137D01*
X195741958Y-80619900D01*
X195741959Y-80619900D01*
X196349641Y-80619900D01*
X196349642Y-80619900D01*
X196504297Y-80589137D01*
X196649979Y-80528794D01*
X196781089Y-80441189D01*
X196892589Y-80329689D01*
X196941035Y-80257185D01*
X196995511Y-80211657D01*
X197065954Y-80202808D01*
X197129999Y-80233449D01*
X197150565Y-80257185D01*
X197199004Y-80329680D01*
X197199009Y-80329686D01*
X197199011Y-80329689D01*
X197310511Y-80441189D01*
X197441621Y-80528794D01*
X197587303Y-80589137D01*
X197741958Y-80619900D01*
X197741959Y-80619900D01*
X198349641Y-80619900D01*
X198349642Y-80619900D01*
X198504297Y-80589137D01*
X198649979Y-80528794D01*
X198781089Y-80441189D01*
X198892589Y-80329689D01*
X198980194Y-80198579D01*
X199040537Y-80052897D01*
X199071300Y-79898242D01*
X199071300Y-79740558D01*
X199040537Y-79585903D01*
X198980194Y-79440221D01*
X198892589Y-79309111D01*
X198781089Y-79197611D01*
X198649979Y-79110006D01*
X198504297Y-79049663D01*
X198349644Y-79018900D01*
X198349642Y-79018900D01*
X197741958Y-79018900D01*
X197741955Y-79018900D01*
X197587302Y-79049663D01*
X197587297Y-79049665D01*
X197441620Y-79110006D01*
X197310515Y-79197608D01*
X197310508Y-79197613D01*
X197199013Y-79309108D01*
X197199008Y-79309115D01*
X197150565Y-79381615D01*
X197096088Y-79427143D01*
X197025645Y-79435991D01*
X196961601Y-79405349D01*
X196941035Y-79381615D01*
X196896897Y-79315559D01*
X196892589Y-79309111D01*
X196781089Y-79197611D01*
X196649979Y-79110006D01*
X196504297Y-79049663D01*
X196349644Y-79018900D01*
X196349642Y-79018900D01*
X195741958Y-79018900D01*
X195741955Y-79018900D01*
X195587302Y-79049663D01*
X195587297Y-79049665D01*
X195441620Y-79110006D01*
X195310515Y-79197608D01*
X195310508Y-79197613D01*
X195199013Y-79309108D01*
X195199008Y-79309115D01*
X195111406Y-79440220D01*
X195051065Y-79585897D01*
X195051063Y-79585902D01*
X195020300Y-79740555D01*
X193597140Y-79740555D01*
X193981358Y-79356337D01*
X194025343Y-79280151D01*
X194048112Y-79195178D01*
X194048112Y-79107207D01*
X194048112Y-77740555D01*
X195020300Y-77740555D01*
X195020300Y-77898244D01*
X195041296Y-78003794D01*
X195051063Y-78052897D01*
X195111406Y-78198579D01*
X195199011Y-78329689D01*
X195310511Y-78441189D01*
X195441621Y-78528794D01*
X195587303Y-78589137D01*
X195741958Y-78619900D01*
X195741959Y-78619900D01*
X196349641Y-78619900D01*
X196349642Y-78619900D01*
X196504297Y-78589137D01*
X196649979Y-78528794D01*
X196781089Y-78441189D01*
X196868450Y-78353827D01*
X196930758Y-78319805D01*
X197001574Y-78324869D01*
X197058410Y-78367415D01*
X197066713Y-78380530D01*
X197148649Y-78491550D01*
X197257914Y-78572191D01*
X197257918Y-78572193D01*
X197377787Y-78614137D01*
X197386101Y-78617046D01*
X197416534Y-78619900D01*
X197416536Y-78619900D01*
X198675064Y-78619900D01*
X198675066Y-78619900D01*
X198705499Y-78617046D01*
X198833682Y-78572193D01*
X198942950Y-78491550D01*
X198961669Y-78466186D01*
X199023591Y-78382285D01*
X199023593Y-78382281D01*
X199033549Y-78353830D01*
X199068446Y-78254099D01*
X199071300Y-78223666D01*
X199071300Y-77415134D01*
X199068446Y-77384701D01*
X199023593Y-77256518D01*
X199023591Y-77256514D01*
X198942950Y-77147249D01*
X198863452Y-77088577D01*
X198863437Y-77088567D01*
X198833681Y-77066606D01*
X198705504Y-77021755D01*
X198705500Y-77021754D01*
X198675066Y-77018900D01*
X197416534Y-77018900D01*
X197416533Y-77018900D01*
X197386099Y-77021754D01*
X197386095Y-77021755D01*
X197257918Y-77066606D01*
X197257914Y-77066608D01*
X197148649Y-77147249D01*
X197062399Y-77264115D01*
X197060902Y-77263010D01*
X197019421Y-77305633D01*
X196950258Y-77321663D01*
X196883407Y-77297757D01*
X196868447Y-77284969D01*
X196781091Y-77197613D01*
X196781089Y-77197611D01*
X196649979Y-77110006D01*
X196504297Y-77049663D01*
X196349644Y-77018900D01*
X196349642Y-77018900D01*
X195741958Y-77018900D01*
X195741955Y-77018900D01*
X195587302Y-77049663D01*
X195587297Y-77049665D01*
X195441620Y-77110006D01*
X195310515Y-77197608D01*
X195310508Y-77197613D01*
X195199013Y-77309108D01*
X195199008Y-77309115D01*
X195111406Y-77440220D01*
X195051065Y-77585897D01*
X195051063Y-77585902D01*
X195020300Y-77740555D01*
X194048112Y-77740555D01*
X194048112Y-76990133D01*
X201745300Y-76990133D01*
X201745300Y-78248666D01*
X201748154Y-78279100D01*
X201748155Y-78279104D01*
X201793006Y-78407281D01*
X201793008Y-78407285D01*
X201873649Y-78516550D01*
X201990515Y-78602801D01*
X201989409Y-78604299D01*
X202032025Y-78645765D01*
X202048064Y-78714926D01*
X202024165Y-78781780D01*
X202011370Y-78796752D01*
X201924009Y-78884113D01*
X201924008Y-78884115D01*
X201836406Y-79015220D01*
X201776065Y-79160897D01*
X201776063Y-79160902D01*
X201745300Y-79315555D01*
X201745300Y-79315558D01*
X201745300Y-79923242D01*
X201776063Y-80077897D01*
X201836406Y-80223579D01*
X201924011Y-80354689D01*
X202035511Y-80466189D01*
X202166621Y-80553794D01*
X202312303Y-80614137D01*
X202466958Y-80644900D01*
X202466959Y-80644900D01*
X202624641Y-80644900D01*
X202624642Y-80644900D01*
X202779297Y-80614137D01*
X202924979Y-80553794D01*
X203056089Y-80466189D01*
X203167589Y-80354689D01*
X203255194Y-80223579D01*
X203315537Y-80077897D01*
X203346300Y-79923242D01*
X203346300Y-79315558D01*
X203315537Y-79160903D01*
X203255194Y-79015221D01*
X203167589Y-78884111D01*
X203080230Y-78796752D01*
X203046204Y-78734440D01*
X203051269Y-78663625D01*
X203093816Y-78606789D01*
X203106925Y-78598490D01*
X203217950Y-78516550D01*
X203298591Y-78407285D01*
X203298593Y-78407281D01*
X203307340Y-78382285D01*
X203343446Y-78279099D01*
X203346300Y-78248666D01*
X203346300Y-77315555D01*
X203745300Y-77315555D01*
X203745300Y-77315558D01*
X203745300Y-77923242D01*
X203776063Y-78077897D01*
X203836406Y-78223579D01*
X203924011Y-78354689D01*
X204035511Y-78466189D01*
X204084575Y-78498972D01*
X204108015Y-78514635D01*
X204153543Y-78569112D01*
X204162391Y-78639555D01*
X204131749Y-78703599D01*
X204108015Y-78724165D01*
X204035515Y-78772608D01*
X204035508Y-78772613D01*
X203924013Y-78884108D01*
X203924008Y-78884115D01*
X203836406Y-79015220D01*
X203776065Y-79160897D01*
X203776063Y-79160902D01*
X203745300Y-79315555D01*
X203745300Y-79315558D01*
X203745300Y-79923242D01*
X203776063Y-80077897D01*
X203836406Y-80223579D01*
X203924011Y-80354689D01*
X204035511Y-80466189D01*
X204166621Y-80553794D01*
X204312303Y-80614137D01*
X204466958Y-80644900D01*
X204466959Y-80644900D01*
X204624641Y-80644900D01*
X204624642Y-80644900D01*
X204779297Y-80614137D01*
X204924979Y-80553794D01*
X205056089Y-80466189D01*
X205167589Y-80354689D01*
X205255194Y-80223579D01*
X205315537Y-80077897D01*
X205346300Y-79923242D01*
X205346300Y-79315558D01*
X205315537Y-79160903D01*
X205255194Y-79015221D01*
X205167589Y-78884111D01*
X205056089Y-78772611D01*
X205056085Y-78772608D01*
X205056080Y-78772604D01*
X204983585Y-78724165D01*
X204938057Y-78669689D01*
X204929208Y-78599246D01*
X204959849Y-78535201D01*
X204983585Y-78514635D01*
X205056080Y-78466195D01*
X205056079Y-78466195D01*
X205056089Y-78466189D01*
X205167589Y-78354689D01*
X205255194Y-78223579D01*
X205315537Y-78077897D01*
X205346300Y-77923242D01*
X205346300Y-77315558D01*
X205315537Y-77160903D01*
X205255194Y-77015221D01*
X205167589Y-76884111D01*
X205056089Y-76772611D01*
X204924979Y-76685006D01*
X204779297Y-76624663D01*
X204624644Y-76593900D01*
X204624642Y-76593900D01*
X204466958Y-76593900D01*
X204466955Y-76593900D01*
X204312302Y-76624663D01*
X204312297Y-76624665D01*
X204166620Y-76685006D01*
X204035515Y-76772608D01*
X204035508Y-76772613D01*
X203924013Y-76884108D01*
X203924008Y-76884115D01*
X203836406Y-77015220D01*
X203776065Y-77160897D01*
X203776063Y-77160902D01*
X203745300Y-77315555D01*
X203346300Y-77315555D01*
X203346300Y-76990134D01*
X203343446Y-76959701D01*
X203298593Y-76831518D01*
X203298591Y-76831514D01*
X203217950Y-76722249D01*
X203108685Y-76641608D01*
X203108681Y-76641606D01*
X202980504Y-76596755D01*
X202980500Y-76596754D01*
X202950066Y-76593900D01*
X202141534Y-76593900D01*
X202141533Y-76593900D01*
X202111099Y-76596754D01*
X202111095Y-76596755D01*
X201982918Y-76641606D01*
X201982914Y-76641608D01*
X201873649Y-76722249D01*
X201793008Y-76831514D01*
X201793006Y-76831518D01*
X201748155Y-76959695D01*
X201748154Y-76959699D01*
X201745300Y-76990133D01*
X194048112Y-76990133D01*
X194048112Y-75515946D01*
X194068114Y-75447825D01*
X194085017Y-75426851D01*
X195642968Y-73868900D01*
X197325100Y-72186767D01*
X197387410Y-72152743D01*
X197435983Y-72153900D01*
X197436178Y-72152426D01*
X197444366Y-72153504D01*
X198129786Y-72153504D01*
X198214759Y-72130735D01*
X198220054Y-72127678D01*
X198290945Y-72086750D01*
X198353150Y-72024545D01*
X198363519Y-72014176D01*
X198363527Y-72014167D01*
X198430205Y-71947489D01*
X198492517Y-71913463D01*
X198563332Y-71918528D01*
X198620168Y-71961075D01*
X198644979Y-72027595D01*
X198645300Y-72036584D01*
X198645300Y-72040343D01*
X198645300Y-72198457D01*
X198676247Y-72313952D01*
X198686224Y-72351188D01*
X198765277Y-72488112D01*
X198765285Y-72488122D01*
X198877077Y-72599914D01*
X198877082Y-72599918D01*
X198877084Y-72599920D01*
X198877085Y-72599921D01*
X198877087Y-72599922D01*
X199014011Y-72678975D01*
X199014013Y-72678975D01*
X199014016Y-72678977D01*
X199166743Y-72719900D01*
X199166745Y-72719900D01*
X199324855Y-72719900D01*
X199324857Y-72719900D01*
X199477584Y-72678977D01*
X199477587Y-72678975D01*
X199477588Y-72678975D01*
X199558582Y-72632213D01*
X199614516Y-72599920D01*
X199726320Y-72488116D01*
X199765848Y-72419650D01*
X199805375Y-72351188D01*
X199805375Y-72351187D01*
X199805377Y-72351184D01*
X199846300Y-72198457D01*
X199846300Y-72040343D01*
X199805377Y-71887616D01*
X199805375Y-71887613D01*
X199805375Y-71887611D01*
X199771478Y-71828900D01*
X199770023Y-71822905D01*
X199765983Y-71818242D01*
X199761749Y-71788799D01*
X199754740Y-71759905D01*
X199756757Y-71754076D01*
X199755879Y-71747968D01*
X199768233Y-71720916D01*
X199777960Y-71692813D01*
X199782810Y-71688998D01*
X199785373Y-71683388D01*
X199810386Y-71667312D01*
X199833767Y-71648926D01*
X199841236Y-71647486D01*
X199845099Y-71645004D01*
X199880597Y-71639900D01*
X200111003Y-71639900D01*
X200179124Y-71659902D01*
X200225617Y-71713558D01*
X200235721Y-71783832D01*
X200220122Y-71828900D01*
X200186224Y-71887611D01*
X200179297Y-71913463D01*
X200145300Y-72040343D01*
X200145300Y-72198457D01*
X200176247Y-72313952D01*
X200186224Y-72351188D01*
X200265277Y-72488112D01*
X200265285Y-72488122D01*
X200377077Y-72599914D01*
X200377082Y-72599918D01*
X200377084Y-72599920D01*
X200377085Y-72599921D01*
X200377087Y-72599922D01*
X200514011Y-72678975D01*
X200514013Y-72678975D01*
X200514016Y-72678977D01*
X200666743Y-72719900D01*
X200666745Y-72719900D01*
X200824855Y-72719900D01*
X200824857Y-72719900D01*
X200977584Y-72678977D01*
X200977587Y-72678975D01*
X200977588Y-72678975D01*
X201058582Y-72632213D01*
X201114516Y-72599920D01*
X201226320Y-72488116D01*
X201265848Y-72419650D01*
X201305375Y-72351188D01*
X201305375Y-72351187D01*
X201305377Y-72351184D01*
X201346300Y-72198457D01*
X201346300Y-72040343D01*
X201305377Y-71887616D01*
X201305375Y-71887613D01*
X201305375Y-71887611D01*
X201248372Y-71788880D01*
X201226320Y-71750684D01*
X201226318Y-71750682D01*
X201225334Y-71748977D01*
X201208596Y-71679982D01*
X201231816Y-71612890D01*
X201252076Y-71593225D01*
X201251578Y-71592727D01*
X201260349Y-71583955D01*
X201260350Y-71583953D01*
X201260352Y-71583952D01*
X201304667Y-71517631D01*
X201316300Y-71459148D01*
X201316300Y-71047085D01*
X201336302Y-70978964D01*
X201389958Y-70932471D01*
X201460232Y-70922367D01*
X201512298Y-70942318D01*
X201553989Y-70970175D01*
X201553990Y-70970175D01*
X201553991Y-70970176D01*
X201596483Y-70987776D01*
X201681472Y-71022980D01*
X201816807Y-71049900D01*
X201816808Y-71049900D01*
X201954792Y-71049900D01*
X201954793Y-71049900D01*
X202090128Y-71022980D01*
X202217611Y-70970175D01*
X202332342Y-70893514D01*
X202429914Y-70795942D01*
X202506575Y-70681211D01*
X202559380Y-70553728D01*
X202586300Y-70418393D01*
X202586300Y-69180407D01*
X202559380Y-69045072D01*
X202506575Y-68917589D01*
X202429914Y-68802858D01*
X202429909Y-68802852D01*
X202332347Y-68705290D01*
X202332341Y-68705285D01*
X202261973Y-68658267D01*
X202217611Y-68628625D01*
X202127184Y-68591169D01*
X202090131Y-68575821D01*
X202090128Y-68575820D01*
X201954795Y-68548900D01*
X201954793Y-68548900D01*
X201816807Y-68548900D01*
X201816804Y-68548900D01*
X201681471Y-68575820D01*
X201681468Y-68575821D01*
X201553989Y-68628625D01*
X201439258Y-68705285D01*
X201439252Y-68705290D01*
X201341690Y-68802852D01*
X201341685Y-68802858D01*
X201265026Y-68917587D01*
X201219436Y-69027650D01*
X201174887Y-69082930D01*
X201107524Y-69105351D01*
X201038732Y-69087792D01*
X200993908Y-69042431D01*
X200919517Y-68913582D01*
X200919509Y-68913572D01*
X200811627Y-68805690D01*
X200811617Y-68805682D01*
X200679482Y-68729394D01*
X200679480Y-68729393D01*
X200679478Y-68729392D01*
X200532093Y-68689900D01*
X200379507Y-68689900D01*
X200232122Y-68729392D01*
X200232117Y-68729394D01*
X200099982Y-68805682D01*
X200099972Y-68805690D01*
X199992090Y-68913572D01*
X199992082Y-68913582D01*
X199915794Y-69045717D01*
X199915792Y-69045722D01*
X199876300Y-69193107D01*
X199876300Y-69345693D01*
X199907659Y-69462724D01*
X199915792Y-69493077D01*
X199915794Y-69493082D01*
X199977466Y-69599900D01*
X199994204Y-69668895D01*
X199970984Y-69735987D01*
X199915177Y-69779874D01*
X199868347Y-69788900D01*
X199696050Y-69788900D01*
X199625399Y-69802954D01*
X199625095Y-69801430D01*
X199568426Y-69807522D01*
X199545876Y-69800900D01*
X199485550Y-69788900D01*
X199485548Y-69788900D01*
X199146052Y-69788900D01*
X199146049Y-69788900D01*
X199090384Y-69799973D01*
X199041221Y-69799973D01*
X199026496Y-69797044D01*
X198985550Y-69788899D01*
X198985548Y-69788899D01*
X198646052Y-69788899D01*
X198646044Y-69788899D01*
X198590377Y-69799972D01*
X198541217Y-69799972D01*
X198485555Y-69788900D01*
X198485548Y-69788900D01*
X198175619Y-69788900D01*
X198163915Y-69785463D01*
X198151775Y-69786623D01*
X198130485Y-69775647D01*
X198107498Y-69768898D01*
X198097932Y-69758866D01*
X198088670Y-69754091D01*
X198066502Y-69725902D01*
X198047273Y-69692598D01*
X198038435Y-69677290D01*
X198038432Y-69677287D01*
X198038429Y-69677283D01*
X197982245Y-69621099D01*
X197982222Y-69621078D01*
X197816899Y-69455755D01*
X197816887Y-69455741D01*
X197757916Y-69396770D01*
X197757912Y-69396767D01*
X197757910Y-69396765D01*
X197749408Y-69391856D01*
X197694467Y-69360135D01*
X197694462Y-69360134D01*
X197688582Y-69358558D01*
X197688574Y-69358557D01*
X197679512Y-69356129D01*
X197623705Y-69341175D01*
X197550447Y-69341175D01*
X197550443Y-69341176D01*
X196993723Y-69341176D01*
X196956110Y-69351254D01*
X196885134Y-69349562D01*
X196826339Y-69309766D01*
X196801796Y-69262159D01*
X196789375Y-69215801D01*
X196787746Y-69212980D01*
X196710320Y-69078872D01*
X196710312Y-69078862D01*
X196598520Y-68967070D01*
X196598510Y-68967062D01*
X196461586Y-68888009D01*
X196443541Y-68883174D01*
X196308855Y-68847085D01*
X196150741Y-68847085D01*
X196057268Y-68872130D01*
X195998009Y-68888009D01*
X195861085Y-68967062D01*
X195861075Y-68967070D01*
X195749283Y-69078862D01*
X195749275Y-69078872D01*
X195670222Y-69215796D01*
X195667329Y-69226594D01*
X195629298Y-69368528D01*
X195629298Y-69526642D01*
X195651528Y-69609605D01*
X195662587Y-69650879D01*
X195662575Y-69651350D01*
X195662818Y-69651754D01*
X195661730Y-69686838D01*
X195660897Y-69721856D01*
X195660633Y-69722245D01*
X195660619Y-69722716D01*
X195640753Y-69751617D01*
X195621103Y-69780651D01*
X195620580Y-69780967D01*
X195620403Y-69781225D01*
X195589647Y-69799670D01*
X195589566Y-69799704D01*
X195519013Y-69807626D01*
X195495968Y-69800918D01*
X195435549Y-69788900D01*
X195435547Y-69788900D01*
X195263253Y-69788900D01*
X195195132Y-69768898D01*
X195148639Y-69715242D01*
X195138535Y-69644968D01*
X195154134Y-69599900D01*
X195167889Y-69576076D01*
X195215808Y-69493078D01*
X195255300Y-69345693D01*
X195255300Y-69193107D01*
X195215808Y-69045722D01*
X195139515Y-68913579D01*
X195139513Y-68913577D01*
X195139509Y-68913572D01*
X195031627Y-68805690D01*
X195031617Y-68805682D01*
X194899482Y-68729394D01*
X194899480Y-68729393D01*
X194899478Y-68729392D01*
X194752093Y-68689900D01*
X194599507Y-68689900D01*
X194452122Y-68729392D01*
X194452117Y-68729394D01*
X194319982Y-68805682D01*
X194319972Y-68805690D01*
X194212090Y-68913572D01*
X194212084Y-68913579D01*
X194137691Y-69042432D01*
X194086308Y-69091425D01*
X194016594Y-69104860D01*
X193950683Y-69078473D01*
X193912163Y-69027649D01*
X193903891Y-69007678D01*
X193866575Y-68917589D01*
X193789914Y-68802858D01*
X193789909Y-68802852D01*
X193692347Y-68705290D01*
X193692341Y-68705285D01*
X193621973Y-68658267D01*
X193577611Y-68628625D01*
X193487184Y-68591169D01*
X193450131Y-68575821D01*
X193450128Y-68575820D01*
X193314795Y-68548900D01*
X193314793Y-68548900D01*
X193176807Y-68548900D01*
X193176804Y-68548900D01*
X193041471Y-68575820D01*
X193041468Y-68575821D01*
X192913989Y-68628625D01*
X192799258Y-68705285D01*
X192799252Y-68705290D01*
X192701690Y-68802852D01*
X192701685Y-68802858D01*
X192625025Y-68917589D01*
X192572221Y-69045068D01*
X192572220Y-69045071D01*
X192545300Y-69180404D01*
X192545300Y-70418395D01*
X192572220Y-70553728D01*
X192572221Y-70553731D01*
X192591726Y-70600821D01*
X192625025Y-70681211D01*
X192635452Y-70696816D01*
X192701685Y-70795941D01*
X192701690Y-70795947D01*
X192799252Y-70893509D01*
X192799262Y-70893518D01*
X192865584Y-70937832D01*
X192911112Y-70992308D01*
X192919961Y-71062751D01*
X192889320Y-71126796D01*
X192882756Y-71132873D01*
X192882923Y-71133040D01*
X192765285Y-71250677D01*
X192765277Y-71250687D01*
X192686224Y-71387611D01*
X192676300Y-71424649D01*
X192645300Y-71540343D01*
X192645300Y-71698457D01*
X192664175Y-71768900D01*
X192686224Y-71851188D01*
X192765277Y-71988112D01*
X192765285Y-71988122D01*
X192877077Y-72099914D01*
X192877082Y-72099918D01*
X192877084Y-72099920D01*
X192877085Y-72099921D01*
X192877087Y-72099922D01*
X193014011Y-72178975D01*
X193014013Y-72178975D01*
X193014016Y-72178977D01*
X193166743Y-72219900D01*
X193166745Y-72219900D01*
X193324855Y-72219900D01*
X193324857Y-72219900D01*
X193477584Y-72178977D01*
X193477587Y-72178975D01*
X193477588Y-72178975D01*
X193566442Y-72127675D01*
X193614516Y-72099920D01*
X193726320Y-71988116D01*
X193776797Y-71900687D01*
X193805375Y-71851188D01*
X193805375Y-71851187D01*
X193805377Y-71851184D01*
X193838231Y-71728570D01*
X193875180Y-71667952D01*
X193939041Y-71636930D01*
X193984517Y-71637606D01*
X193996046Y-71639899D01*
X193996049Y-71639899D01*
X193996052Y-71639900D01*
X193996053Y-71639900D01*
X194635547Y-71639900D01*
X194635548Y-71639900D01*
X194691221Y-71628826D01*
X194740378Y-71628826D01*
X194796051Y-71639900D01*
X194796052Y-71639900D01*
X195435546Y-71639900D01*
X195435547Y-71639900D01*
X195494030Y-71628267D01*
X195494030Y-71628266D01*
X195506201Y-71625846D01*
X195506504Y-71627370D01*
X195563168Y-71621278D01*
X195585725Y-71627900D01*
X195587568Y-71628266D01*
X195587569Y-71628267D01*
X195646052Y-71639900D01*
X195646053Y-71639900D01*
X195960644Y-71639900D01*
X196028765Y-71659902D01*
X196075258Y-71713558D01*
X196085362Y-71783832D01*
X196055868Y-71848412D01*
X196049739Y-71854994D01*
X193040657Y-74864076D01*
X193040655Y-74864078D01*
X193009552Y-74895180D01*
X192978450Y-74926282D01*
X192978449Y-74926284D01*
X192934464Y-75002469D01*
X192934463Y-75002472D01*
X192911696Y-75087438D01*
X192911696Y-78724040D01*
X192891694Y-78792161D01*
X192874791Y-78813135D01*
X190939536Y-80748391D01*
X190877224Y-80782416D01*
X190850441Y-80785296D01*
X177201810Y-80785296D01*
X177116844Y-80808063D01*
X177116841Y-80808064D01*
X177040656Y-80852049D01*
X177040654Y-80852050D01*
X177009552Y-80883152D01*
X176978450Y-80914255D01*
X176978448Y-80914257D01*
X175790657Y-82102048D01*
X175790655Y-82102050D01*
X175759552Y-82133152D01*
X175728450Y-82164254D01*
X175728449Y-82164256D01*
X175684464Y-82240441D01*
X175684463Y-82240444D01*
X175661696Y-82325410D01*
X175661696Y-95503370D01*
X175641694Y-95571491D01*
X175624791Y-95592465D01*
X168468865Y-102748391D01*
X168406553Y-102782417D01*
X168379770Y-102785296D01*
X167777660Y-102785296D01*
X167709539Y-102765294D01*
X167672895Y-102729298D01*
X167671455Y-102727143D01*
X167592589Y-102609111D01*
X167481089Y-102497611D01*
X167349979Y-102410006D01*
X167204297Y-102349663D01*
X167049644Y-102318900D01*
X167049642Y-102318900D01*
X166441958Y-102318900D01*
X166441955Y-102318900D01*
X166287302Y-102349663D01*
X166287297Y-102349665D01*
X166141620Y-102410006D01*
X166010515Y-102497608D01*
X166010508Y-102497613D01*
X165899013Y-102609108D01*
X165899008Y-102609115D01*
X165850565Y-102681615D01*
X165796088Y-102727143D01*
X165725645Y-102735991D01*
X165661601Y-102705349D01*
X165641035Y-102681615D01*
X165625372Y-102658175D01*
X165592589Y-102609111D01*
X165481089Y-102497611D01*
X165349979Y-102410006D01*
X165204297Y-102349663D01*
X165049644Y-102318900D01*
X165049642Y-102318900D01*
X164441958Y-102318900D01*
X164441955Y-102318900D01*
X164287302Y-102349663D01*
X164287297Y-102349665D01*
X164141620Y-102410006D01*
X164010515Y-102497608D01*
X164010508Y-102497613D01*
X163899013Y-102609108D01*
X163899008Y-102609115D01*
X163811406Y-102740220D01*
X163751065Y-102885897D01*
X163751063Y-102885902D01*
X163720300Y-103040555D01*
X115746700Y-103040555D01*
X115746700Y-101040555D01*
X163720300Y-101040555D01*
X163720300Y-101040558D01*
X163720300Y-101198242D01*
X163751063Y-101352897D01*
X163811406Y-101498579D01*
X163899011Y-101629689D01*
X164010511Y-101741189D01*
X164141621Y-101828794D01*
X164287303Y-101889137D01*
X164441958Y-101919900D01*
X164441959Y-101919900D01*
X165049641Y-101919900D01*
X165049642Y-101919900D01*
X165204297Y-101889137D01*
X165349979Y-101828794D01*
X165481089Y-101741189D01*
X165592589Y-101629689D01*
X165641035Y-101557185D01*
X165695511Y-101511657D01*
X165765954Y-101502808D01*
X165829999Y-101533449D01*
X165850565Y-101557185D01*
X165899004Y-101629680D01*
X165899009Y-101629686D01*
X165899011Y-101629689D01*
X166010511Y-101741189D01*
X166141621Y-101828794D01*
X166287303Y-101889137D01*
X166441958Y-101919900D01*
X166441959Y-101919900D01*
X167049641Y-101919900D01*
X167049642Y-101919900D01*
X167204297Y-101889137D01*
X167349979Y-101828794D01*
X167481089Y-101741189D01*
X167592589Y-101629689D01*
X167680194Y-101498579D01*
X167740537Y-101352897D01*
X167771300Y-101198242D01*
X167771300Y-101040558D01*
X167740537Y-100885903D01*
X167680194Y-100740221D01*
X167592589Y-100609111D01*
X167481089Y-100497611D01*
X167349979Y-100410006D01*
X167204297Y-100349663D01*
X167049644Y-100318900D01*
X167049642Y-100318900D01*
X166441958Y-100318900D01*
X166441955Y-100318900D01*
X166287302Y-100349663D01*
X166287297Y-100349665D01*
X166141620Y-100410006D01*
X166010515Y-100497608D01*
X166010508Y-100497613D01*
X165899013Y-100609108D01*
X165899008Y-100609115D01*
X165850565Y-100681615D01*
X165796088Y-100727143D01*
X165725645Y-100735991D01*
X165661601Y-100705349D01*
X165641035Y-100681615D01*
X165625372Y-100658175D01*
X165592589Y-100609111D01*
X165481089Y-100497611D01*
X165349979Y-100410006D01*
X165204297Y-100349663D01*
X165049644Y-100318900D01*
X165049642Y-100318900D01*
X164441958Y-100318900D01*
X164441955Y-100318900D01*
X164287302Y-100349663D01*
X164287297Y-100349665D01*
X164141620Y-100410006D01*
X164010515Y-100497608D01*
X164010508Y-100497613D01*
X163899013Y-100609108D01*
X163899008Y-100609115D01*
X163811406Y-100740220D01*
X163751065Y-100885897D01*
X163751063Y-100885902D01*
X163720300Y-101040555D01*
X115746700Y-101040555D01*
X115746700Y-74815932D01*
X130695300Y-74815932D01*
X130695300Y-74815935D01*
X130695300Y-75022865D01*
X130735670Y-75225820D01*
X130814859Y-75416998D01*
X130929823Y-75589055D01*
X130929824Y-75589056D01*
X130929829Y-75589062D01*
X131076137Y-75735370D01*
X131076143Y-75735375D01*
X131076145Y-75735377D01*
X131248202Y-75850341D01*
X131439380Y-75929530D01*
X131642335Y-75969900D01*
X131642336Y-75969900D01*
X131849264Y-75969900D01*
X131849265Y-75969900D01*
X132052220Y-75929530D01*
X132243398Y-75850341D01*
X132415455Y-75735377D01*
X132561777Y-75589055D01*
X132676741Y-75416998D01*
X132755930Y-75225820D01*
X132796300Y-75022865D01*
X132796300Y-74815935D01*
X132755930Y-74612980D01*
X132676741Y-74421802D01*
X132561777Y-74249745D01*
X132561775Y-74249743D01*
X132561770Y-74249737D01*
X132415462Y-74103429D01*
X132415456Y-74103424D01*
X132397772Y-74091608D01*
X132334976Y-74049649D01*
X133235300Y-74049649D01*
X133235300Y-75789150D01*
X133238391Y-75804691D01*
X133246933Y-75847631D01*
X133291248Y-75913952D01*
X133357569Y-75958267D01*
X133416052Y-75969900D01*
X133416053Y-75969900D01*
X135155547Y-75969900D01*
X135155548Y-75969900D01*
X135214031Y-75958267D01*
X135280352Y-75913952D01*
X135324667Y-75847631D01*
X135336300Y-75789148D01*
X135336300Y-74049652D01*
X135324667Y-73991169D01*
X135280352Y-73924848D01*
X135214031Y-73880533D01*
X135214028Y-73880532D01*
X135155550Y-73868900D01*
X135155548Y-73868900D01*
X133416052Y-73868900D01*
X133416049Y-73868900D01*
X133357571Y-73880532D01*
X133357568Y-73880533D01*
X133291248Y-73924848D01*
X133246933Y-73991168D01*
X133246932Y-73991171D01*
X133235300Y-74049649D01*
X132334976Y-74049649D01*
X132243398Y-73988459D01*
X132052220Y-73909270D01*
X131849267Y-73868900D01*
X131849265Y-73868900D01*
X131642335Y-73868900D01*
X131642332Y-73868900D01*
X131439379Y-73909270D01*
X131439374Y-73909272D01*
X131248202Y-73988459D01*
X131076143Y-74103424D01*
X131076137Y-74103429D01*
X130929829Y-74249737D01*
X130929824Y-74249743D01*
X130814859Y-74421802D01*
X130735672Y-74612974D01*
X130735670Y-74612979D01*
X130695300Y-74815932D01*
X115746700Y-74815932D01*
X115746700Y-73076509D01*
X162935300Y-73076509D01*
X162935300Y-73402290D01*
X162971776Y-73726020D01*
X163044269Y-74043633D01*
X163151858Y-74351104D01*
X163151863Y-74351118D01*
X163151865Y-74351122D01*
X163276970Y-74610903D01*
X163293216Y-74644639D01*
X163293217Y-74644641D01*
X163466539Y-74920481D01*
X163669659Y-75175186D01*
X163900013Y-75405540D01*
X163900017Y-75405543D01*
X164154719Y-75608661D01*
X164430563Y-75781985D01*
X164724078Y-75923335D01*
X164724093Y-75923340D01*
X164724095Y-75923341D01*
X165031566Y-76030930D01*
X165031569Y-76030930D01*
X165031573Y-76030932D01*
X165349183Y-76103424D01*
X165578734Y-76129288D01*
X165672909Y-76139900D01*
X165672911Y-76139900D01*
X165998691Y-76139900D01*
X166080906Y-76130636D01*
X166322417Y-76103424D01*
X166640027Y-76030932D01*
X166947522Y-75923335D01*
X167241037Y-75781985D01*
X167516881Y-75608661D01*
X167771583Y-75405543D01*
X168001943Y-75175183D01*
X168205061Y-74920481D01*
X168378385Y-74644637D01*
X168519735Y-74351122D01*
X168623752Y-74053858D01*
X168627330Y-74043633D01*
X168627330Y-74043632D01*
X168627332Y-74043627D01*
X168699824Y-73726017D01*
X168736300Y-73402289D01*
X168736300Y-73076511D01*
X168699824Y-72752783D01*
X168627332Y-72435173D01*
X168604492Y-72369899D01*
X168553335Y-72223700D01*
X168541663Y-72190343D01*
X181045300Y-72190343D01*
X181045300Y-72348457D01*
X181072094Y-72448455D01*
X181086224Y-72501188D01*
X181165277Y-72638112D01*
X181165285Y-72638122D01*
X181277077Y-72749914D01*
X181277082Y-72749918D01*
X181277084Y-72749920D01*
X181277085Y-72749921D01*
X181277087Y-72749922D01*
X181414011Y-72828975D01*
X181414013Y-72828975D01*
X181414016Y-72828977D01*
X181566743Y-72869900D01*
X181566745Y-72869900D01*
X181724855Y-72869900D01*
X181724857Y-72869900D01*
X181877584Y-72828977D01*
X181877587Y-72828975D01*
X181877588Y-72828975D01*
X181946050Y-72789448D01*
X182014516Y-72749920D01*
X182126320Y-72638116D01*
X182205377Y-72501184D01*
X182246300Y-72348457D01*
X182246300Y-72190343D01*
X182205377Y-72037616D01*
X182205375Y-72037613D01*
X182205375Y-72037611D01*
X182126322Y-71900687D01*
X182126314Y-71900677D01*
X182014522Y-71788885D01*
X182014512Y-71788877D01*
X181877588Y-71709824D01*
X181832635Y-71697779D01*
X181724857Y-71668900D01*
X181566743Y-71668900D01*
X181491736Y-71688998D01*
X181414011Y-71709824D01*
X181277087Y-71788877D01*
X181277077Y-71788885D01*
X181165285Y-71900677D01*
X181165277Y-71900687D01*
X181086224Y-72037611D01*
X181069530Y-72099914D01*
X181045300Y-72190343D01*
X168541663Y-72190343D01*
X168519741Y-72127695D01*
X168519740Y-72127693D01*
X168519735Y-72127678D01*
X168378385Y-71834163D01*
X168205061Y-71558319D01*
X168001943Y-71303617D01*
X168001940Y-71303613D01*
X167771586Y-71073259D01*
X167516881Y-70870139D01*
X167241041Y-70696817D01*
X167241039Y-70696816D01*
X167143296Y-70649745D01*
X166947522Y-70555465D01*
X166947518Y-70555463D01*
X166947504Y-70555458D01*
X166640033Y-70447869D01*
X166322420Y-70375376D01*
X165998691Y-70338900D01*
X165998689Y-70338900D01*
X165672911Y-70338900D01*
X165672909Y-70338900D01*
X165349179Y-70375376D01*
X165031566Y-70447869D01*
X164724095Y-70555458D01*
X164724075Y-70555466D01*
X164430560Y-70696816D01*
X164430558Y-70696817D01*
X164154718Y-70870139D01*
X163900013Y-71073259D01*
X163669659Y-71303613D01*
X163466539Y-71558318D01*
X163293217Y-71834158D01*
X163293216Y-71834160D01*
X163151866Y-72127675D01*
X163151858Y-72127695D01*
X163044269Y-72435166D01*
X162971776Y-72752779D01*
X162935300Y-73076509D01*
X115746700Y-73076509D01*
X115746700Y-73043700D01*
X115766702Y-72975579D01*
X115820358Y-72929086D01*
X115872700Y-72917700D01*
X126086082Y-72917700D01*
X126159774Y-72887176D01*
X126216176Y-72830774D01*
X126246700Y-72757082D01*
X126246700Y-71215932D01*
X130830300Y-71215932D01*
X130830300Y-71422867D01*
X130850544Y-71524639D01*
X130870670Y-71625820D01*
X130949859Y-71816998D01*
X131064193Y-71988112D01*
X131064824Y-71989056D01*
X131064829Y-71989062D01*
X131211137Y-72135370D01*
X131211143Y-72135375D01*
X131211145Y-72135377D01*
X131383202Y-72250341D01*
X131574380Y-72329530D01*
X131777335Y-72369900D01*
X131777336Y-72369900D01*
X131984264Y-72369900D01*
X131984265Y-72369900D01*
X132187220Y-72329530D01*
X132378398Y-72250341D01*
X132550455Y-72135377D01*
X132696777Y-71989055D01*
X132811741Y-71816998D01*
X132890930Y-71625820D01*
X132931300Y-71422865D01*
X132931300Y-71215935D01*
X132890930Y-71012980D01*
X132811741Y-70821802D01*
X132696777Y-70649745D01*
X132696775Y-70649743D01*
X132696770Y-70649737D01*
X132550462Y-70503429D01*
X132550456Y-70503424D01*
X132550455Y-70503423D01*
X132469976Y-70449649D01*
X133370300Y-70449649D01*
X133370300Y-72189150D01*
X133377172Y-72223700D01*
X133381933Y-72247631D01*
X133426248Y-72313952D01*
X133492569Y-72358267D01*
X133551052Y-72369900D01*
X133551053Y-72369900D01*
X135290547Y-72369900D01*
X135290548Y-72369900D01*
X135349031Y-72358267D01*
X135415352Y-72313952D01*
X135459667Y-72247631D01*
X135471300Y-72189148D01*
X135471300Y-70449652D01*
X135459667Y-70391169D01*
X135415352Y-70324848D01*
X135349031Y-70280533D01*
X135349028Y-70280532D01*
X135290550Y-70268900D01*
X135290548Y-70268900D01*
X133551052Y-70268900D01*
X133551049Y-70268900D01*
X133492571Y-70280532D01*
X133492568Y-70280533D01*
X133426248Y-70324848D01*
X133381933Y-70391168D01*
X133381932Y-70391171D01*
X133370300Y-70449649D01*
X132469976Y-70449649D01*
X132378398Y-70388459D01*
X132187220Y-70309270D01*
X131984267Y-70268900D01*
X131984265Y-70268900D01*
X131777335Y-70268900D01*
X131777332Y-70268900D01*
X131574379Y-70309270D01*
X131574374Y-70309272D01*
X131383202Y-70388459D01*
X131211143Y-70503424D01*
X131211137Y-70503429D01*
X131064829Y-70649737D01*
X131064824Y-70649743D01*
X130949859Y-70821802D01*
X130870672Y-71012974D01*
X130870670Y-71012979D01*
X130830300Y-71215932D01*
X126246700Y-71215932D01*
X126246700Y-67515932D01*
X130830300Y-67515932D01*
X130830300Y-67515935D01*
X130830300Y-67722865D01*
X130870670Y-67925820D01*
X130949859Y-68116998D01*
X131064823Y-68289055D01*
X131064824Y-68289056D01*
X131064829Y-68289062D01*
X131211137Y-68435370D01*
X131211143Y-68435375D01*
X131211145Y-68435377D01*
X131383202Y-68550341D01*
X131574380Y-68629530D01*
X131777335Y-68669900D01*
X131777336Y-68669900D01*
X131984264Y-68669900D01*
X131984265Y-68669900D01*
X132187220Y-68629530D01*
X132378398Y-68550341D01*
X132550455Y-68435377D01*
X132696777Y-68289055D01*
X132811741Y-68116998D01*
X132890930Y-67925820D01*
X132931300Y-67722865D01*
X132931300Y-67515935D01*
X132890930Y-67312980D01*
X132811741Y-67121802D01*
X132696777Y-66949745D01*
X132696775Y-66949743D01*
X132696770Y-66949737D01*
X132550462Y-66803429D01*
X132550456Y-66803424D01*
X132550455Y-66803423D01*
X132469976Y-66749649D01*
X133370300Y-66749649D01*
X133370300Y-68489150D01*
X133381932Y-68547628D01*
X133381933Y-68547631D01*
X133426248Y-68613952D01*
X133492569Y-68658267D01*
X133551052Y-68669900D01*
X133551053Y-68669900D01*
X135290547Y-68669900D01*
X135290548Y-68669900D01*
X135349031Y-68658267D01*
X135361929Y-68649649D01*
X139120300Y-68649649D01*
X139120300Y-70389150D01*
X139126117Y-70418395D01*
X139131933Y-70447631D01*
X139176248Y-70513952D01*
X139242569Y-70558267D01*
X139301052Y-70569900D01*
X139301053Y-70569900D01*
X141040547Y-70569900D01*
X141040548Y-70569900D01*
X141099031Y-70558267D01*
X141165352Y-70513952D01*
X141209667Y-70447631D01*
X141221300Y-70389148D01*
X141221300Y-69415932D01*
X141660300Y-69415932D01*
X141660300Y-69622867D01*
X141695529Y-69799973D01*
X141700670Y-69825820D01*
X141779859Y-70016998D01*
X141779860Y-70016999D01*
X141894824Y-70189056D01*
X141894829Y-70189062D01*
X142041137Y-70335370D01*
X142041143Y-70335375D01*
X142041145Y-70335377D01*
X142213202Y-70450341D01*
X142404380Y-70529530D01*
X142607335Y-70569900D01*
X142607336Y-70569900D01*
X142814264Y-70569900D01*
X142814265Y-70569900D01*
X143017220Y-70529530D01*
X143208398Y-70450341D01*
X143380455Y-70335377D01*
X143526777Y-70189055D01*
X143641741Y-70016998D01*
X143666797Y-69956509D01*
X147375300Y-69956509D01*
X147375300Y-70282290D01*
X147411776Y-70606020D01*
X147428938Y-70681210D01*
X147484268Y-70923627D01*
X147484270Y-70923633D01*
X147484269Y-70923633D01*
X147591858Y-71231104D01*
X147591863Y-71231118D01*
X147591865Y-71231122D01*
X147667227Y-71387611D01*
X147733216Y-71524639D01*
X147733217Y-71524641D01*
X147906539Y-71800481D01*
X148109659Y-72055186D01*
X148340013Y-72285540D01*
X148375641Y-72313952D01*
X148594719Y-72488661D01*
X148614656Y-72501188D01*
X148870120Y-72661707D01*
X148870563Y-72661985D01*
X149164078Y-72803335D01*
X149164093Y-72803340D01*
X149164095Y-72803341D01*
X149471566Y-72910930D01*
X149471569Y-72910930D01*
X149471573Y-72910932D01*
X149789183Y-72983424D01*
X150018734Y-73009288D01*
X150112909Y-73019900D01*
X150112911Y-73019900D01*
X150438691Y-73019900D01*
X150520906Y-73010636D01*
X150762417Y-72983424D01*
X151080027Y-72910932D01*
X151387522Y-72803335D01*
X151681037Y-72661985D01*
X151956881Y-72488661D01*
X152211583Y-72285543D01*
X152441943Y-72055183D01*
X152645061Y-71800481D01*
X152818385Y-71524637D01*
X152959735Y-71231122D01*
X153061642Y-70939888D01*
X153067330Y-70923633D01*
X153067330Y-70923632D01*
X153067332Y-70923627D01*
X153139824Y-70606017D01*
X153176300Y-70282289D01*
X153176300Y-69956511D01*
X153170468Y-69904755D01*
X153158826Y-69801430D01*
X153139824Y-69632783D01*
X153067332Y-69315173D01*
X153032560Y-69215801D01*
X153020174Y-69180404D01*
X181375300Y-69180404D01*
X181375300Y-70418395D01*
X181402220Y-70553728D01*
X181402221Y-70553731D01*
X181421726Y-70600821D01*
X181455025Y-70681211D01*
X181465452Y-70696816D01*
X181531685Y-70795941D01*
X181531690Y-70795947D01*
X181629252Y-70893509D01*
X181629258Y-70893514D01*
X181743989Y-70970175D01*
X181871472Y-71022980D01*
X182006807Y-71049900D01*
X182006808Y-71049900D01*
X182144792Y-71049900D01*
X182144793Y-71049900D01*
X182280128Y-71022980D01*
X182407611Y-70970175D01*
X182449300Y-70942318D01*
X182517050Y-70921105D01*
X182585517Y-70939888D01*
X182632961Y-70992704D01*
X182645300Y-71047085D01*
X182645300Y-71459148D01*
X182656933Y-71517631D01*
X182701248Y-71583952D01*
X182767569Y-71628267D01*
X182826052Y-71639900D01*
X182826053Y-71639900D01*
X183469300Y-71639900D01*
X183537421Y-71659902D01*
X183583914Y-71713558D01*
X183595300Y-71765900D01*
X183595300Y-75165547D01*
X183603569Y-75196405D01*
X183603569Y-75196406D01*
X183603570Y-75196406D01*
X183603570Y-75196407D01*
X183619186Y-75254688D01*
X183619187Y-75254690D01*
X183619188Y-75254693D01*
X183665327Y-75334608D01*
X183665335Y-75334618D01*
X185058395Y-76727677D01*
X185092420Y-76789989D01*
X185095300Y-76816772D01*
X185095300Y-77373244D01*
X185103633Y-77415134D01*
X185126063Y-77527897D01*
X185186406Y-77673579D01*
X185274011Y-77804689D01*
X185385511Y-77916189D01*
X185516621Y-78003794D01*
X185662303Y-78064137D01*
X185816958Y-78094900D01*
X185816959Y-78094900D01*
X185974641Y-78094900D01*
X185974642Y-78094900D01*
X186129297Y-78064137D01*
X186274979Y-78003794D01*
X186406089Y-77916189D01*
X186517589Y-77804689D01*
X186605194Y-77673579D01*
X186665537Y-77527897D01*
X186696300Y-77373242D01*
X186696300Y-76765558D01*
X186665537Y-76610903D01*
X186605194Y-76465221D01*
X186517589Y-76334111D01*
X186430230Y-76246752D01*
X186396204Y-76184440D01*
X186401269Y-76113625D01*
X186443816Y-76056789D01*
X186456925Y-76048490D01*
X186567950Y-75966550D01*
X186648591Y-75857285D01*
X186648593Y-75857281D01*
X186651022Y-75850341D01*
X186693446Y-75729099D01*
X186696300Y-75698666D01*
X186696300Y-74793584D01*
X186705083Y-74763668D01*
X186711712Y-74733199D01*
X186715526Y-74728103D01*
X186716302Y-74725463D01*
X186733205Y-74704489D01*
X186806705Y-74630989D01*
X186869017Y-74596963D01*
X186939832Y-74602028D01*
X186984895Y-74630989D01*
X187058395Y-74704489D01*
X187092421Y-74766801D01*
X187095300Y-74793584D01*
X187095300Y-75373244D01*
X187113304Y-75463756D01*
X187126063Y-75527897D01*
X187186406Y-75673579D01*
X187274011Y-75804689D01*
X187385511Y-75916189D01*
X187434575Y-75948972D01*
X187458015Y-75964635D01*
X187503543Y-76019112D01*
X187512391Y-76089555D01*
X187481749Y-76153599D01*
X187458015Y-76174165D01*
X187385515Y-76222608D01*
X187385508Y-76222613D01*
X187274013Y-76334108D01*
X187274008Y-76334115D01*
X187186406Y-76465220D01*
X187126065Y-76610897D01*
X187126063Y-76610902D01*
X187095300Y-76765555D01*
X187095300Y-77373244D01*
X187103633Y-77415134D01*
X187126063Y-77527897D01*
X187186406Y-77673579D01*
X187274011Y-77804689D01*
X187385511Y-77916189D01*
X187516621Y-78003794D01*
X187662303Y-78064137D01*
X187816958Y-78094900D01*
X187816959Y-78094900D01*
X187974641Y-78094900D01*
X187974642Y-78094900D01*
X188129297Y-78064137D01*
X188274979Y-78003794D01*
X188406089Y-77916189D01*
X188517589Y-77804689D01*
X188605194Y-77673579D01*
X188665537Y-77527897D01*
X188696300Y-77373242D01*
X188696300Y-76765558D01*
X188665537Y-76610903D01*
X188605194Y-76465221D01*
X188517589Y-76334111D01*
X188406089Y-76222611D01*
X188406085Y-76222608D01*
X188406080Y-76222604D01*
X188333585Y-76174165D01*
X188288057Y-76119689D01*
X188279208Y-76049246D01*
X188309849Y-75985201D01*
X188333585Y-75964635D01*
X188406080Y-75916195D01*
X188406079Y-75916195D01*
X188406089Y-75916189D01*
X188517589Y-75804689D01*
X188605194Y-75673579D01*
X188665537Y-75527897D01*
X188696300Y-75373242D01*
X188696300Y-74765558D01*
X188665537Y-74610903D01*
X188605194Y-74465221D01*
X188517589Y-74334111D01*
X188406089Y-74222611D01*
X188274979Y-74135006D01*
X188129299Y-74074664D01*
X188129297Y-74074663D01*
X187974644Y-74043900D01*
X187974642Y-74043900D01*
X187816958Y-74043900D01*
X187816955Y-74043900D01*
X187662302Y-74074663D01*
X187662298Y-74074664D01*
X187654118Y-74078053D01*
X187583528Y-74085639D01*
X187520042Y-74053858D01*
X187483817Y-73992798D01*
X187479904Y-73961642D01*
X187479904Y-72756931D01*
X187499906Y-72688810D01*
X187553562Y-72642317D01*
X187623836Y-72632213D01*
X187688416Y-72661707D01*
X187694999Y-72667836D01*
X187777077Y-72749914D01*
X187777082Y-72749918D01*
X187777084Y-72749920D01*
X187777085Y-72749921D01*
X187777087Y-72749922D01*
X187914011Y-72828975D01*
X187914013Y-72828975D01*
X187914016Y-72828977D01*
X188066743Y-72869900D01*
X188066745Y-72869900D01*
X188224855Y-72869900D01*
X188224857Y-72869900D01*
X188377584Y-72828977D01*
X188377587Y-72828975D01*
X188377588Y-72828975D01*
X188446050Y-72789448D01*
X188514516Y-72749920D01*
X188626320Y-72638116D01*
X188705377Y-72501184D01*
X188746300Y-72348457D01*
X188746300Y-72290343D01*
X190995300Y-72290343D01*
X190995300Y-72448457D01*
X191031389Y-72583143D01*
X191036224Y-72601188D01*
X191115277Y-72738112D01*
X191115285Y-72738122D01*
X191227077Y-72849914D01*
X191227082Y-72849918D01*
X191227084Y-72849920D01*
X191227085Y-72849921D01*
X191227087Y-72849922D01*
X191364011Y-72928975D01*
X191364013Y-72928975D01*
X191364016Y-72928977D01*
X191516743Y-72969900D01*
X191516745Y-72969900D01*
X191674855Y-72969900D01*
X191674857Y-72969900D01*
X191827584Y-72928977D01*
X191827587Y-72928975D01*
X191827588Y-72928975D01*
X191955360Y-72855206D01*
X191964516Y-72849920D01*
X192076320Y-72738116D01*
X192134051Y-72638122D01*
X192155375Y-72601188D01*
X192155375Y-72601187D01*
X192155377Y-72601184D01*
X192196300Y-72448457D01*
X192196300Y-72290343D01*
X192155377Y-72137616D01*
X192155375Y-72137613D01*
X192155375Y-72137611D01*
X192076322Y-72000687D01*
X192076314Y-72000677D01*
X191964522Y-71888885D01*
X191964512Y-71888877D01*
X191827588Y-71809824D01*
X191792719Y-71800481D01*
X191674857Y-71768900D01*
X191516743Y-71768900D01*
X191423270Y-71793945D01*
X191364011Y-71809824D01*
X191227087Y-71888877D01*
X191227077Y-71888885D01*
X191115285Y-72000677D01*
X191115277Y-72000687D01*
X191036224Y-72137611D01*
X191019921Y-72198455D01*
X190995300Y-72290343D01*
X188746300Y-72290343D01*
X188746300Y-72190343D01*
X188705377Y-72037616D01*
X188705375Y-72037613D01*
X188705375Y-72037611D01*
X188626322Y-71900687D01*
X188626314Y-71900677D01*
X188580632Y-71854995D01*
X188546606Y-71792683D01*
X188551671Y-71721868D01*
X188594218Y-71665032D01*
X188660738Y-71640221D01*
X188669727Y-71639900D01*
X189165547Y-71639900D01*
X189165548Y-71639900D01*
X189221221Y-71628826D01*
X189270379Y-71628826D01*
X189326052Y-71639900D01*
X189326053Y-71639900D01*
X189965547Y-71639900D01*
X189965548Y-71639900D01*
X190024031Y-71628267D01*
X190090352Y-71583952D01*
X190134667Y-71517631D01*
X190146300Y-71459148D01*
X190146300Y-71047085D01*
X190166302Y-70978964D01*
X190219958Y-70932471D01*
X190290232Y-70922367D01*
X190342298Y-70942318D01*
X190383989Y-70970175D01*
X190383990Y-70970175D01*
X190383991Y-70970176D01*
X190426483Y-70987776D01*
X190511472Y-71022980D01*
X190646807Y-71049900D01*
X190646808Y-71049900D01*
X190784792Y-71049900D01*
X190784793Y-71049900D01*
X190920128Y-71022980D01*
X191047611Y-70970175D01*
X191162342Y-70893514D01*
X191259914Y-70795942D01*
X191336575Y-70681211D01*
X191389380Y-70553728D01*
X191416300Y-70418393D01*
X191416300Y-69180407D01*
X191389380Y-69045072D01*
X191336575Y-68917589D01*
X191259914Y-68802858D01*
X191259909Y-68802852D01*
X191162347Y-68705290D01*
X191162341Y-68705285D01*
X191091973Y-68658267D01*
X191047611Y-68628625D01*
X190957184Y-68591169D01*
X190920131Y-68575821D01*
X190920128Y-68575820D01*
X190784795Y-68548900D01*
X190784793Y-68548900D01*
X190646807Y-68548900D01*
X190646804Y-68548900D01*
X190511471Y-68575820D01*
X190511468Y-68575821D01*
X190383989Y-68628625D01*
X190269258Y-68705285D01*
X190269252Y-68705290D01*
X190171690Y-68802852D01*
X190171685Y-68802858D01*
X190095026Y-68917587D01*
X190049436Y-69027650D01*
X190004887Y-69082930D01*
X189937524Y-69105351D01*
X189868732Y-69087792D01*
X189823908Y-69042431D01*
X189749517Y-68913582D01*
X189749509Y-68913572D01*
X189641627Y-68805690D01*
X189641617Y-68805682D01*
X189509482Y-68729394D01*
X189509480Y-68729393D01*
X189509478Y-68729392D01*
X189362093Y-68689900D01*
X189209507Y-68689900D01*
X189062122Y-68729392D01*
X189062117Y-68729394D01*
X188929982Y-68805682D01*
X188929972Y-68805690D01*
X188822090Y-68913572D01*
X188822082Y-68913582D01*
X188747236Y-69043220D01*
X188695853Y-69092213D01*
X188626140Y-69105649D01*
X188560229Y-69079262D01*
X188549022Y-69069315D01*
X187736642Y-68256935D01*
X187736632Y-68256927D01*
X187656716Y-68210787D01*
X187646183Y-68207964D01*
X187567568Y-68186900D01*
X185332656Y-68186900D01*
X185278097Y-68201518D01*
X185243507Y-68210787D01*
X185163591Y-68256927D01*
X185163581Y-68256935D01*
X184269648Y-69150869D01*
X184207336Y-69184895D01*
X184136521Y-69179830D01*
X184079685Y-69137283D01*
X184058848Y-69094388D01*
X184045808Y-69045722D01*
X183969515Y-68913579D01*
X183969513Y-68913577D01*
X183969509Y-68913572D01*
X183861627Y-68805690D01*
X183861617Y-68805682D01*
X183729482Y-68729394D01*
X183729480Y-68729393D01*
X183729478Y-68729392D01*
X183582093Y-68689900D01*
X183429507Y-68689900D01*
X183282122Y-68729392D01*
X183282117Y-68729394D01*
X183149982Y-68805682D01*
X183149972Y-68805690D01*
X183042090Y-68913572D01*
X183042084Y-68913579D01*
X182967691Y-69042432D01*
X182916308Y-69091425D01*
X182846594Y-69104860D01*
X182780683Y-69078473D01*
X182742163Y-69027649D01*
X182733891Y-69007678D01*
X182696575Y-68917589D01*
X182619914Y-68802858D01*
X182619909Y-68802852D01*
X182522347Y-68705290D01*
X182522341Y-68705285D01*
X182451973Y-68658267D01*
X182407611Y-68628625D01*
X182317184Y-68591169D01*
X182280131Y-68575821D01*
X182280128Y-68575820D01*
X182144795Y-68548900D01*
X182144793Y-68548900D01*
X182006807Y-68548900D01*
X182006804Y-68548900D01*
X181871471Y-68575820D01*
X181871468Y-68575821D01*
X181743989Y-68628625D01*
X181629258Y-68705285D01*
X181629252Y-68705290D01*
X181531690Y-68802852D01*
X181531685Y-68802858D01*
X181455025Y-68917589D01*
X181402221Y-69045068D01*
X181402220Y-69045071D01*
X181375300Y-69180404D01*
X153020174Y-69180404D01*
X152959741Y-69007695D01*
X152959740Y-69007693D01*
X152959735Y-69007678D01*
X152818385Y-68714163D01*
X152811640Y-68703429D01*
X152731458Y-68575820D01*
X152645061Y-68438319D01*
X152441943Y-68183617D01*
X152441940Y-68183613D01*
X152211586Y-67953259D01*
X151956881Y-67750139D01*
X151681041Y-67576817D01*
X151681039Y-67576816D01*
X151387524Y-67435466D01*
X151387504Y-67435458D01*
X151080033Y-67327869D01*
X150762420Y-67255376D01*
X150438691Y-67218900D01*
X150438689Y-67218900D01*
X150112911Y-67218900D01*
X150112909Y-67218900D01*
X149789179Y-67255376D01*
X149471566Y-67327869D01*
X149164095Y-67435458D01*
X149164075Y-67435466D01*
X148870560Y-67576816D01*
X148870558Y-67576817D01*
X148594718Y-67750139D01*
X148340013Y-67953259D01*
X148109659Y-68183613D01*
X147906539Y-68438318D01*
X147733217Y-68714158D01*
X147733216Y-68714160D01*
X147591866Y-69007675D01*
X147591858Y-69007695D01*
X147484269Y-69315166D01*
X147411776Y-69632779D01*
X147375300Y-69956509D01*
X143666797Y-69956509D01*
X143720930Y-69825820D01*
X143761300Y-69622865D01*
X143761300Y-69415935D01*
X143720930Y-69212980D01*
X143641741Y-69021802D01*
X143526777Y-68849745D01*
X143526775Y-68849743D01*
X143526770Y-68849737D01*
X143380462Y-68703429D01*
X143380456Y-68703424D01*
X143360216Y-68689900D01*
X143208398Y-68588459D01*
X143017220Y-68509270D01*
X142814267Y-68468900D01*
X142814265Y-68468900D01*
X142607335Y-68468900D01*
X142607332Y-68468900D01*
X142404379Y-68509270D01*
X142404374Y-68509272D01*
X142213202Y-68588459D01*
X142041143Y-68703424D01*
X142041137Y-68703429D01*
X141894829Y-68849737D01*
X141894824Y-68849743D01*
X141779859Y-69021802D01*
X141700672Y-69212974D01*
X141700670Y-69212979D01*
X141660300Y-69415932D01*
X141221300Y-69415932D01*
X141221300Y-68649652D01*
X141209667Y-68591169D01*
X141165352Y-68524848D01*
X141099031Y-68480533D01*
X141099028Y-68480532D01*
X141040550Y-68468900D01*
X141040548Y-68468900D01*
X139301052Y-68468900D01*
X139301049Y-68468900D01*
X139242571Y-68480532D01*
X139242568Y-68480533D01*
X139176248Y-68524848D01*
X139131933Y-68591168D01*
X139131932Y-68591171D01*
X139120300Y-68649649D01*
X135361929Y-68649649D01*
X135415352Y-68613952D01*
X135459667Y-68547631D01*
X135471300Y-68489148D01*
X135471300Y-66749652D01*
X135459667Y-66691169D01*
X135415352Y-66624848D01*
X135349031Y-66580533D01*
X135349028Y-66580532D01*
X135290550Y-66568900D01*
X135290548Y-66568900D01*
X133551052Y-66568900D01*
X133551049Y-66568900D01*
X133492571Y-66580532D01*
X133492568Y-66580533D01*
X133426248Y-66624848D01*
X133381933Y-66691168D01*
X133381932Y-66691171D01*
X133370300Y-66749649D01*
X132469976Y-66749649D01*
X132378398Y-66688459D01*
X132187220Y-66609270D01*
X131984267Y-66568900D01*
X131984265Y-66568900D01*
X131777335Y-66568900D01*
X131777332Y-66568900D01*
X131574379Y-66609270D01*
X131574374Y-66609272D01*
X131383202Y-66688459D01*
X131211143Y-66803424D01*
X131211137Y-66803429D01*
X131064829Y-66949737D01*
X131064824Y-66949743D01*
X130949859Y-67121802D01*
X130870672Y-67312974D01*
X130870670Y-67312979D01*
X130830300Y-67515932D01*
X126246700Y-67515932D01*
X126246700Y-65250404D01*
X181375300Y-65250404D01*
X181375300Y-65250407D01*
X181375300Y-65988393D01*
X181402220Y-66123728D01*
X181455025Y-66251211D01*
X181506247Y-66327871D01*
X181531685Y-66365941D01*
X181531690Y-66365947D01*
X181629252Y-66463509D01*
X181629258Y-66463514D01*
X181743989Y-66540175D01*
X181871472Y-66592980D01*
X182006807Y-66619900D01*
X182006808Y-66619900D01*
X182144792Y-66619900D01*
X182144793Y-66619900D01*
X182280128Y-66592980D01*
X182407611Y-66540175D01*
X182522342Y-66463514D01*
X182619914Y-66365942D01*
X182696575Y-66251211D01*
X182749380Y-66123728D01*
X182776300Y-65988393D01*
X182776300Y-65250407D01*
X182776299Y-65250404D01*
X190015300Y-65250404D01*
X190015300Y-65250407D01*
X190015300Y-65988393D01*
X190042220Y-66123728D01*
X190095025Y-66251211D01*
X190146247Y-66327871D01*
X190171685Y-66365941D01*
X190171690Y-66365947D01*
X190269252Y-66463509D01*
X190269258Y-66463514D01*
X190383989Y-66540175D01*
X190511472Y-66592980D01*
X190646807Y-66619900D01*
X190646808Y-66619900D01*
X190784792Y-66619900D01*
X190784793Y-66619900D01*
X190920128Y-66592980D01*
X191047611Y-66540175D01*
X191162342Y-66463514D01*
X191259914Y-66365942D01*
X191336575Y-66251211D01*
X191389380Y-66123728D01*
X191416300Y-65988393D01*
X191416300Y-65250407D01*
X191416299Y-65250404D01*
X192545300Y-65250404D01*
X192545300Y-65250407D01*
X192545300Y-65988393D01*
X192572220Y-66123728D01*
X192625025Y-66251211D01*
X192676247Y-66327871D01*
X192701685Y-66365941D01*
X192701690Y-66365947D01*
X192799252Y-66463509D01*
X192799258Y-66463514D01*
X192913989Y-66540175D01*
X193041472Y-66592980D01*
X193176807Y-66619900D01*
X193176808Y-66619900D01*
X193314792Y-66619900D01*
X193314793Y-66619900D01*
X193450128Y-66592980D01*
X193577611Y-66540175D01*
X193692342Y-66463514D01*
X193789914Y-66365942D01*
X193866575Y-66251211D01*
X193919380Y-66123728D01*
X193946300Y-65988393D01*
X193946300Y-65250407D01*
X193946299Y-65250404D01*
X201185300Y-65250404D01*
X201185300Y-65250407D01*
X201185300Y-65988393D01*
X201212220Y-66123728D01*
X201265025Y-66251211D01*
X201316247Y-66327871D01*
X201341685Y-66365941D01*
X201341690Y-66365947D01*
X201439252Y-66463509D01*
X201439258Y-66463514D01*
X201553989Y-66540175D01*
X201681472Y-66592980D01*
X201816807Y-66619900D01*
X201816808Y-66619900D01*
X201954792Y-66619900D01*
X201954793Y-66619900D01*
X202090128Y-66592980D01*
X202217611Y-66540175D01*
X202332342Y-66463514D01*
X202429914Y-66365942D01*
X202506575Y-66251211D01*
X202559380Y-66123728D01*
X202586300Y-65988393D01*
X202586300Y-65250407D01*
X202559380Y-65115072D01*
X202506575Y-64987589D01*
X202429914Y-64872858D01*
X202429909Y-64872852D01*
X202332347Y-64775290D01*
X202332341Y-64775285D01*
X202294271Y-64749847D01*
X202217611Y-64698625D01*
X202137221Y-64665326D01*
X202090131Y-64645821D01*
X202090128Y-64645820D01*
X201954795Y-64618900D01*
X201954793Y-64618900D01*
X201816807Y-64618900D01*
X201816804Y-64618900D01*
X201681471Y-64645820D01*
X201681468Y-64645821D01*
X201553989Y-64698625D01*
X201439258Y-64775285D01*
X201439252Y-64775290D01*
X201341690Y-64872852D01*
X201341685Y-64872858D01*
X201265025Y-64987589D01*
X201212221Y-65115068D01*
X201212220Y-65115071D01*
X201185300Y-65250404D01*
X193946299Y-65250404D01*
X193919380Y-65115072D01*
X193866575Y-64987589D01*
X193789914Y-64872858D01*
X193789909Y-64872852D01*
X193692347Y-64775290D01*
X193692341Y-64775285D01*
X193654271Y-64749847D01*
X193577611Y-64698625D01*
X193497221Y-64665326D01*
X193450131Y-64645821D01*
X193450128Y-64645820D01*
X193314795Y-64618900D01*
X193314793Y-64618900D01*
X193176807Y-64618900D01*
X193176804Y-64618900D01*
X193041471Y-64645820D01*
X193041468Y-64645821D01*
X192913989Y-64698625D01*
X192799258Y-64775285D01*
X192799252Y-64775290D01*
X192701690Y-64872852D01*
X192701685Y-64872858D01*
X192625025Y-64987589D01*
X192572221Y-65115068D01*
X192572220Y-65115071D01*
X192545300Y-65250404D01*
X191416299Y-65250404D01*
X191389380Y-65115072D01*
X191336575Y-64987589D01*
X191259914Y-64872858D01*
X191259909Y-64872852D01*
X191162347Y-64775290D01*
X191162341Y-64775285D01*
X191124271Y-64749847D01*
X191047611Y-64698625D01*
X190967221Y-64665326D01*
X190920131Y-64645821D01*
X190920128Y-64645820D01*
X190784795Y-64618900D01*
X190784793Y-64618900D01*
X190646807Y-64618900D01*
X190646804Y-64618900D01*
X190511471Y-64645820D01*
X190511468Y-64645821D01*
X190383989Y-64698625D01*
X190269258Y-64775285D01*
X190269252Y-64775290D01*
X190171690Y-64872852D01*
X190171685Y-64872858D01*
X190095025Y-64987589D01*
X190042221Y-65115068D01*
X190042220Y-65115071D01*
X190015300Y-65250404D01*
X182776299Y-65250404D01*
X182749380Y-65115072D01*
X182696575Y-64987589D01*
X182619914Y-64872858D01*
X182619909Y-64872852D01*
X182522347Y-64775290D01*
X182522341Y-64775285D01*
X182484271Y-64749847D01*
X182407611Y-64698625D01*
X182327221Y-64665326D01*
X182280131Y-64645821D01*
X182280128Y-64645820D01*
X182144795Y-64618900D01*
X182144793Y-64618900D01*
X182006807Y-64618900D01*
X182006804Y-64618900D01*
X181871471Y-64645820D01*
X181871468Y-64645821D01*
X181743989Y-64698625D01*
X181629258Y-64775285D01*
X181629252Y-64775290D01*
X181531690Y-64872852D01*
X181531685Y-64872858D01*
X181455025Y-64987589D01*
X181402221Y-65115068D01*
X181402220Y-65115071D01*
X181375300Y-65250404D01*
X126246700Y-65250404D01*
X126246700Y-62543700D01*
X126266702Y-62475579D01*
X126320358Y-62429086D01*
X126372700Y-62417700D01*
X140574949Y-62417700D01*
X140597395Y-62419907D01*
G37*
%TD.AperFunction*%
%TA.AperFunction,NonConductor*%
G36*
X185232333Y-69283716D02*
G01*
X185289168Y-69326263D01*
X185313979Y-69392783D01*
X185314300Y-69401772D01*
X185314300Y-69662900D01*
X185294298Y-69731021D01*
X185240642Y-69777514D01*
X185188300Y-69788900D01*
X184976044Y-69788900D01*
X184942696Y-69795534D01*
X184871982Y-69789206D01*
X184815916Y-69745651D01*
X184792297Y-69678698D01*
X184808624Y-69609605D01*
X184829014Y-69582867D01*
X185099207Y-69312674D01*
X185161517Y-69278651D01*
X185232333Y-69283716D01*
G37*
%TD.AperFunction*%
%TA.AperFunction,NonConductor*%
G36*
X185920377Y-71628825D02*
G01*
X185976052Y-71639900D01*
X186185696Y-71639900D01*
X186253817Y-71659902D01*
X186300310Y-71713558D01*
X186311696Y-71765900D01*
X186311696Y-73917900D01*
X186291694Y-73986021D01*
X186238038Y-74032514D01*
X186185696Y-74043900D01*
X185491533Y-74043900D01*
X185461099Y-74046754D01*
X185461095Y-74046755D01*
X185332918Y-74091606D01*
X185332914Y-74091608D01*
X185223649Y-74172249D01*
X185143008Y-74281514D01*
X185143006Y-74281518D01*
X185098155Y-74409695D01*
X185098154Y-74409699D01*
X185095300Y-74440133D01*
X185095300Y-75469028D01*
X185075298Y-75537149D01*
X185021642Y-75583642D01*
X184951368Y-75593746D01*
X184886788Y-75564252D01*
X184880205Y-75558123D01*
X184333205Y-75011123D01*
X184299179Y-74948811D01*
X184296300Y-74922028D01*
X184296300Y-72923327D01*
X184316302Y-72855206D01*
X184369958Y-72808713D01*
X184440232Y-72798609D01*
X184504812Y-72828103D01*
X184511395Y-72834232D01*
X184527077Y-72849914D01*
X184527082Y-72849918D01*
X184527084Y-72849920D01*
X184527085Y-72849921D01*
X184527087Y-72849922D01*
X184664011Y-72928975D01*
X184664013Y-72928975D01*
X184664016Y-72928977D01*
X184816743Y-72969900D01*
X184816745Y-72969900D01*
X184974855Y-72969900D01*
X184974857Y-72969900D01*
X185127584Y-72928977D01*
X185127587Y-72928975D01*
X185127588Y-72928975D01*
X185255360Y-72855206D01*
X185264516Y-72849920D01*
X185376320Y-72738116D01*
X185434051Y-72638122D01*
X185455375Y-72601188D01*
X185455375Y-72601187D01*
X185455377Y-72601184D01*
X185496300Y-72448457D01*
X185496300Y-72290343D01*
X185474714Y-72209786D01*
X185472142Y-72170512D01*
X185471300Y-72170512D01*
X185471300Y-71765900D01*
X185491302Y-71697779D01*
X185544958Y-71651286D01*
X185597300Y-71639900D01*
X185815547Y-71639900D01*
X185815548Y-71639900D01*
X185871221Y-71628826D01*
X185879691Y-71628826D01*
X185884571Y-71626906D01*
X185920377Y-71628825D01*
G37*
%TD.AperFunction*%
%TA.AperFunction,NonConductor*%
G36*
X168189829Y-103473506D02*
G01*
X168236322Y-103527162D01*
X168246426Y-103597436D01*
X168216932Y-103662016D01*
X168210803Y-103668599D01*
X168111307Y-103768095D01*
X168048995Y-103802121D01*
X168022212Y-103805000D01*
X167711179Y-103805000D01*
X167643058Y-103784998D01*
X167596565Y-103731342D01*
X167586461Y-103661068D01*
X167606414Y-103608998D01*
X167672896Y-103509501D01*
X167727372Y-103463974D01*
X167777660Y-103453504D01*
X168121708Y-103453504D01*
X168189829Y-103473506D01*
G37*
%TD.AperFunction*%
%TA.AperFunction,NonConductor*%
G36*
X157573715Y-107445995D02*
G01*
X157577505Y-107445125D01*
X157607506Y-107455917D01*
X157638104Y-107464902D01*
X157641713Y-107468223D01*
X157644311Y-107469158D01*
X157658599Y-107483117D01*
X157659440Y-107482277D01*
X157743315Y-107566152D01*
X157777341Y-107628464D01*
X157772276Y-107699279D01*
X157729729Y-107756115D01*
X157663209Y-107780926D01*
X157654220Y-107781247D01*
X157308964Y-107781247D01*
X157240843Y-107761245D01*
X157220683Y-107742693D01*
X157219507Y-107743870D01*
X157135632Y-107659995D01*
X157101606Y-107597683D01*
X157106671Y-107526868D01*
X157149218Y-107470032D01*
X157215738Y-107445221D01*
X157224727Y-107444900D01*
X157569983Y-107444900D01*
X157573715Y-107445995D01*
G37*
%TD.AperFunction*%
%TA.AperFunction,NonConductor*%
G36*
X156309688Y-107464902D02*
G01*
X156356181Y-107518558D01*
X156366285Y-107588832D01*
X156336791Y-107653412D01*
X156330662Y-107659995D01*
X156252632Y-107738024D01*
X156252624Y-107738034D01*
X156173571Y-107874958D01*
X156154099Y-107947631D01*
X156135003Y-108018900D01*
X156132647Y-108027691D01*
X156132647Y-108194062D01*
X156129191Y-108194062D01*
X156120658Y-108248457D01*
X156095819Y-108283746D01*
X153527572Y-110851995D01*
X153465260Y-110886020D01*
X153438477Y-110888900D01*
X152758507Y-110888900D01*
X152690386Y-110868898D01*
X152643893Y-110815242D01*
X152634928Y-110787480D01*
X152634856Y-110787121D01*
X152634667Y-110786169D01*
X152590352Y-110719848D01*
X152524031Y-110675533D01*
X152524028Y-110675532D01*
X152465550Y-110663900D01*
X152465548Y-110663900D01*
X151158817Y-110663900D01*
X151090696Y-110643898D01*
X151044203Y-110590242D01*
X151034099Y-110519968D01*
X151063593Y-110455388D01*
X151069722Y-110448805D01*
X152536722Y-108981805D01*
X152599034Y-108947779D01*
X152625817Y-108944900D01*
X153669983Y-108944900D01*
X153738104Y-108964902D01*
X153758263Y-108983453D01*
X153759440Y-108982277D01*
X153877077Y-109099914D01*
X153877082Y-109099918D01*
X153877084Y-109099920D01*
X153877085Y-109099921D01*
X153877087Y-109099922D01*
X154014011Y-109178975D01*
X154014013Y-109178975D01*
X154014016Y-109178977D01*
X154166743Y-109219900D01*
X154166745Y-109219900D01*
X154324855Y-109219900D01*
X154324857Y-109219900D01*
X154477584Y-109178977D01*
X154477587Y-109178975D01*
X154477588Y-109178975D01*
X154546050Y-109139448D01*
X154614516Y-109099920D01*
X154726320Y-108988116D01*
X154805377Y-108851184D01*
X154846300Y-108698457D01*
X154846300Y-108540343D01*
X154846300Y-108532084D01*
X154849779Y-108532084D01*
X154858222Y-108477827D01*
X154883122Y-108442403D01*
X155843723Y-107481802D01*
X155906033Y-107447779D01*
X155932816Y-107444900D01*
X156241567Y-107444900D01*
X156309688Y-107464902D01*
G37*
%TD.AperFunction*%
%TA.AperFunction,NonConductor*%
G36*
X150563332Y-111059361D02*
G01*
X150620168Y-111101908D01*
X150644979Y-111168428D01*
X150645300Y-111177417D01*
X150645300Y-111440721D01*
X150638888Y-111462556D01*
X150637170Y-111485247D01*
X150629080Y-111495959D01*
X150625298Y-111508842D01*
X150608097Y-111523745D01*
X150594386Y-111541904D01*
X150581789Y-111546542D01*
X150571642Y-111555335D01*
X150549114Y-111558574D01*
X150527763Y-111566436D01*
X150505931Y-111564782D01*
X150501368Y-111565439D01*
X150496322Y-111564055D01*
X150492002Y-111563728D01*
X150479568Y-111560968D01*
X150477584Y-111559823D01*
X150324857Y-111518900D01*
X150290006Y-111518900D01*
X150276519Y-111515907D01*
X150214349Y-111481622D01*
X150180585Y-111419168D01*
X150185947Y-111348374D01*
X150214722Y-111303805D01*
X150430205Y-111088322D01*
X150492517Y-111054296D01*
X150563332Y-111059361D01*
G37*
%TD.AperFunction*%
%TA.AperFunction,NonConductor*%
G36*
X149730823Y-113677642D02*
G01*
X149731039Y-113676839D01*
X149739014Y-113678975D01*
X149739016Y-113678977D01*
X149891743Y-113719900D01*
X149891745Y-113719900D01*
X150055955Y-113719900D01*
X150124076Y-113739902D01*
X150145050Y-113756805D01*
X150343735Y-113955490D01*
X150404710Y-114016465D01*
X150404711Y-114016466D01*
X150404713Y-114016467D01*
X150479386Y-114059579D01*
X150479390Y-114059581D01*
X150562684Y-114081900D01*
X150562686Y-114081900D01*
X150565392Y-114082625D01*
X150626015Y-114119577D01*
X150630184Y-114124403D01*
X150650203Y-114148799D01*
X150656933Y-114182631D01*
X150701248Y-114248952D01*
X150767569Y-114293267D01*
X150768985Y-114293548D01*
X150782051Y-114309471D01*
X150788916Y-114325637D01*
X150800178Y-114339113D01*
X150802504Y-114357633D01*
X150809802Y-114374819D01*
X150806836Y-114392132D01*
X150809025Y-114409556D01*
X150800968Y-114426394D01*
X150797817Y-114444797D01*
X150785963Y-114457757D01*
X150778384Y-114473600D01*
X150754651Y-114494164D01*
X150701248Y-114529847D01*
X150656933Y-114596168D01*
X150656932Y-114596172D01*
X150656672Y-114597480D01*
X150655318Y-114600066D01*
X150652183Y-114607637D01*
X150651505Y-114607356D01*
X150641721Y-114626062D01*
X150628317Y-114655412D01*
X150625382Y-114657297D01*
X150623765Y-114660390D01*
X150595722Y-114676359D01*
X150568591Y-114693796D01*
X150563925Y-114694466D01*
X150562071Y-114695523D01*
X150533093Y-114698900D01*
X150337817Y-114698900D01*
X150269696Y-114678898D01*
X150248722Y-114661995D01*
X149608205Y-114021478D01*
X149574179Y-113959166D01*
X149571300Y-113932383D01*
X149571300Y-113798078D01*
X149591302Y-113729957D01*
X149644958Y-113683464D01*
X149715232Y-113673360D01*
X149730823Y-113677642D01*
G37*
%TD.AperFunction*%
%TA.AperFunction,NonConductor*%
G36*
X215287821Y-145599402D02*
G01*
X215334314Y-145653058D01*
X215345700Y-145705400D01*
X215345700Y-151390700D01*
X215325698Y-151458821D01*
X215272042Y-151505314D01*
X215219700Y-151516700D01*
X205006318Y-151516700D01*
X204932626Y-151547223D01*
X204932622Y-151547226D01*
X204876226Y-151603622D01*
X204876223Y-151603626D01*
X204845700Y-151677317D01*
X204845700Y-161890700D01*
X204825698Y-161958821D01*
X204772042Y-162005314D01*
X204719700Y-162016700D01*
X126372700Y-162016700D01*
X126304579Y-161996698D01*
X126258086Y-161943042D01*
X126246700Y-161890700D01*
X126246700Y-155504139D01*
X130725987Y-155504139D01*
X132583671Y-155504139D01*
X132651792Y-155524141D01*
X132698285Y-155577797D01*
X132709671Y-155630139D01*
X132709671Y-158884175D01*
X142508541Y-158884175D01*
X142508541Y-155603417D01*
X143234005Y-155603417D01*
X143238012Y-155707932D01*
X143238013Y-155707949D01*
X143257103Y-155918701D01*
X143269009Y-156006689D01*
X143307478Y-156219707D01*
X143325712Y-156301181D01*
X143381096Y-156507948D01*
X143407425Y-156591500D01*
X143477268Y-156783532D01*
X143477269Y-156783535D01*
X143517461Y-156878556D01*
X143599312Y-157047367D01*
X143599320Y-157047381D01*
X143667460Y-157166458D01*
X143667468Y-157166471D01*
X143758862Y-157303548D01*
X143845433Y-157415451D01*
X143845440Y-157415459D01*
X143891249Y-157466765D01*
X143935403Y-157513152D01*
X143951467Y-157528986D01*
X143971752Y-157548981D01*
X144009631Y-157584439D01*
X144043852Y-157614855D01*
X144130498Y-157683718D01*
X144151309Y-157698464D01*
X144166412Y-157709167D01*
X144166429Y-157709178D01*
X144270716Y-157771990D01*
X144294387Y-157786247D01*
X144335820Y-157807177D01*
X144472412Y-157863985D01*
X144523176Y-157880836D01*
X144523186Y-157880838D01*
X144523190Y-157880840D01*
X144598638Y-157901087D01*
X144636369Y-157911213D01*
X144700281Y-157924427D01*
X144700286Y-157924428D01*
X144727604Y-157928937D01*
X144791558Y-157959764D01*
X144828693Y-158020275D01*
X144831133Y-158031159D01*
X144836073Y-158058896D01*
X144836080Y-158058926D01*
X144876437Y-158213296D01*
X144906520Y-158299674D01*
X144940903Y-158375107D01*
X144983579Y-158468735D01*
X145027272Y-158545013D01*
X145113266Y-158671686D01*
X145172814Y-158746448D01*
X145209422Y-158789837D01*
X145214710Y-158795757D01*
X145257870Y-158838559D01*
X145301025Y-158881358D01*
X145301046Y-158881377D01*
X145423015Y-158988513D01*
X145423023Y-158988519D01*
X145423027Y-158988523D01*
X145571228Y-159096454D01*
X145571236Y-159096458D01*
X145571241Y-159096462D01*
X145729450Y-159190902D01*
X145729456Y-159190905D01*
X145729461Y-159190908D01*
X145850173Y-159252341D01*
X145850177Y-159252343D01*
X145850188Y-159252348D01*
X146037586Y-159332320D01*
X146037592Y-159332322D01*
X146037601Y-159332326D01*
X146139636Y-159369494D01*
X146139661Y-159369501D01*
X146139671Y-159369505D01*
X146349194Y-159433241D01*
X146349213Y-159433246D01*
X146349219Y-159433248D01*
X146441193Y-159456547D01*
X146665889Y-159502307D01*
X146665908Y-159502310D01*
X146665918Y-159502312D01*
X146716927Y-159510338D01*
X146754903Y-159516314D01*
X146987672Y-159542319D01*
X146987676Y-159542319D01*
X146987683Y-159542320D01*
X147073827Y-159547946D01*
X147080014Y-159548351D01*
X147313814Y-159552839D01*
X147313846Y-159552838D01*
X147313847Y-159552838D01*
X147415752Y-159549621D01*
X147415760Y-159549620D01*
X147415777Y-159549620D01*
X147415791Y-159549618D01*
X147415806Y-159549618D01*
X147643569Y-159530829D01*
X147702058Y-159524276D01*
X147710592Y-159523066D01*
X147755320Y-159515692D01*
X147881737Y-159491912D01*
X147937708Y-159479723D01*
X148083177Y-159443675D01*
X148124908Y-159432376D01*
X148273088Y-159388816D01*
X148316794Y-159374878D01*
X148379273Y-159353369D01*
X148451332Y-159328564D01*
X148451340Y-159328561D01*
X148510677Y-159306015D01*
X148604028Y-159267131D01*
X148728055Y-159205111D01*
X148853395Y-159131217D01*
X148977922Y-159044511D01*
X149095331Y-158948836D01*
X149201014Y-158849181D01*
X149298574Y-158742860D01*
X149409171Y-158597876D01*
X149473117Y-158496073D01*
X149538032Y-158375107D01*
X149551497Y-158345293D01*
X149575957Y-158286193D01*
X149586882Y-158257220D01*
X149618558Y-158157895D01*
X149627209Y-158124959D01*
X149647669Y-158027751D01*
X149647670Y-158027740D01*
X149647989Y-158026228D01*
X149648920Y-158026424D01*
X149679194Y-157966152D01*
X149740301Y-157930007D01*
X149745014Y-157928907D01*
X149789694Y-157919406D01*
X149796300Y-157917978D01*
X149989575Y-157854443D01*
X150134679Y-157789827D01*
X150172602Y-157771983D01*
X150344763Y-157663573D01*
X150469899Y-157565788D01*
X150492872Y-157547287D01*
X150635491Y-157402196D01*
X150741953Y-157269315D01*
X150847773Y-157107506D01*
X150936852Y-156937599D01*
X150995529Y-156802426D01*
X151068519Y-156593564D01*
X151096726Y-156497839D01*
X151145784Y-156294652D01*
X151163060Y-156205699D01*
X151212282Y-155872717D01*
X151222706Y-155753510D01*
X151231687Y-155429149D01*
X151230800Y-155403430D01*
X151227964Y-155321174D01*
X151227383Y-155304322D01*
X151195885Y-154979328D01*
X151179562Y-154871840D01*
X151120038Y-154585263D01*
X151085257Y-154459465D01*
X151085255Y-154459459D01*
X151085253Y-154459452D01*
X151012463Y-154250148D01*
X150934303Y-154078997D01*
X150831260Y-153899897D01*
X150831170Y-153899741D01*
X150828107Y-153894453D01*
X150708326Y-153730002D01*
X150576468Y-153582913D01*
X150562892Y-153568070D01*
X150409750Y-153434133D01*
X150409747Y-153434131D01*
X150409745Y-153434129D01*
X150250766Y-153321290D01*
X150250761Y-153321287D01*
X150125425Y-153245417D01*
X150125422Y-153245415D01*
X150125408Y-153245408D01*
X150125399Y-153245403D01*
X150104478Y-153234739D01*
X150073213Y-153218802D01*
X150043299Y-153204172D01*
X149998152Y-153183012D01*
X149915635Y-153144336D01*
X149894620Y-153134780D01*
X149894604Y-153134774D01*
X149894600Y-153134772D01*
X149894593Y-153134770D01*
X149894586Y-153134767D01*
X149745232Y-153086278D01*
X149686617Y-153046218D01*
X149658965Y-152980828D01*
X149658669Y-152977971D01*
X149656968Y-152959326D01*
X149649574Y-152898466D01*
X149649574Y-152898461D01*
X149632059Y-152797550D01*
X149632058Y-152797542D01*
X149621450Y-152750722D01*
X149585821Y-152629433D01*
X149583406Y-152622789D01*
X152725300Y-152622789D01*
X152725300Y-152796011D01*
X152752398Y-152967101D01*
X152805927Y-153131845D01*
X152805928Y-153131848D01*
X152805930Y-153131852D01*
X152834941Y-153188789D01*
X152884568Y-153286188D01*
X152986386Y-153426328D01*
X153105363Y-153545305D01*
X153139387Y-153607615D01*
X153134323Y-153678431D01*
X153105364Y-153723492D01*
X153086387Y-153742469D01*
X152984568Y-153882611D01*
X152905930Y-154036947D01*
X152905927Y-154036953D01*
X152905927Y-154036955D01*
X152852398Y-154201699D01*
X152825300Y-154372789D01*
X152825300Y-157072789D01*
X152825300Y-157246011D01*
X152852398Y-157417101D01*
X152905927Y-157581845D01*
X152905928Y-157581848D01*
X152905930Y-157581852D01*
X152984568Y-157736188D01*
X153086385Y-157876327D01*
X153086390Y-157876333D01*
X153208869Y-157998812D01*
X153208872Y-157998814D01*
X153349012Y-158100632D01*
X153503355Y-158179273D01*
X153668099Y-158232802D01*
X153839189Y-158259900D01*
X153839192Y-158259900D01*
X156712408Y-158259900D01*
X156712411Y-158259900D01*
X156883501Y-158232802D01*
X157048245Y-158179273D01*
X157202588Y-158100632D01*
X157342728Y-157998814D01*
X157465214Y-157876328D01*
X158315215Y-157026327D01*
X158357916Y-156967554D01*
X158417032Y-156886188D01*
X158495673Y-156731845D01*
X158549203Y-156567100D01*
X158576300Y-156396010D01*
X158576300Y-156222789D01*
X158576300Y-153522789D01*
X158572640Y-153499682D01*
X158549203Y-153351699D01*
X158495673Y-153186954D01*
X158495672Y-153186952D01*
X158494040Y-153183012D01*
X158486450Y-153112422D01*
X158490610Y-153095871D01*
X158529202Y-152977101D01*
X158556300Y-152806011D01*
X158556300Y-152632789D01*
X158529202Y-152461699D01*
X158475673Y-152296955D01*
X158474039Y-152293749D01*
X158436325Y-152219729D01*
X158397032Y-152142612D01*
X158295214Y-152002472D01*
X158295212Y-152002469D01*
X158172730Y-151879987D01*
X158032588Y-151778168D01*
X157878252Y-151699530D01*
X157878248Y-151699528D01*
X157878245Y-151699527D01*
X157713501Y-151645998D01*
X157542411Y-151618900D01*
X157369189Y-151618900D01*
X157198099Y-151645998D01*
X157198096Y-151645998D01*
X157198095Y-151645999D01*
X157123478Y-151670244D01*
X157033355Y-151699527D01*
X157033353Y-151699527D01*
X157033347Y-151699530D01*
X156879011Y-151778168D01*
X156738871Y-151879986D01*
X156529239Y-152089619D01*
X156146861Y-152471996D01*
X156084551Y-152506020D01*
X156057768Y-152508900D01*
X155233832Y-152508900D01*
X155165711Y-152488898D01*
X155144741Y-152471999D01*
X154542728Y-151869986D01*
X154402588Y-151768168D01*
X154333639Y-151733037D01*
X154248252Y-151689530D01*
X154248248Y-151689528D01*
X154248245Y-151689527D01*
X154083501Y-151635998D01*
X153912411Y-151608900D01*
X153739189Y-151608900D01*
X153568099Y-151635998D01*
X153568096Y-151635998D01*
X153568095Y-151635999D01*
X153537322Y-151645998D01*
X153403355Y-151689527D01*
X153403353Y-151689527D01*
X153403347Y-151689530D01*
X153249011Y-151768168D01*
X153108869Y-151869987D01*
X152986387Y-151992469D01*
X152884568Y-152132611D01*
X152805930Y-152286947D01*
X152805927Y-152286953D01*
X152805927Y-152286955D01*
X152752398Y-152451699D01*
X152725300Y-152622789D01*
X149583406Y-152622789D01*
X149571130Y-152589013D01*
X149542743Y-152520343D01*
X149537826Y-152508446D01*
X149522393Y-152475265D01*
X149436826Y-152326149D01*
X149436817Y-152326133D01*
X149378033Y-152241407D01*
X149362993Y-152219729D01*
X149318528Y-152160436D01*
X149318525Y-152160432D01*
X149318524Y-152160431D01*
X149318522Y-152160428D01*
X149175203Y-152016029D01*
X149175202Y-152016028D01*
X149175193Y-152016020D01*
X149066164Y-151926436D01*
X149051187Y-151914369D01*
X149051183Y-151914366D01*
X148879606Y-151805038D01*
X148734274Y-151731948D01*
X148734254Y-151731939D01*
X148581571Y-151670248D01*
X148581566Y-151670246D01*
X148581560Y-151670244D01*
X148398779Y-151613302D01*
X148398772Y-151613300D01*
X148398768Y-151613299D01*
X148334883Y-151597473D01*
X148283367Y-151584711D01*
X148283370Y-151584711D01*
X148081573Y-151547223D01*
X148062033Y-151543593D01*
X148062030Y-151543592D01*
X148062027Y-151543592D01*
X147976599Y-151531487D01*
X147715644Y-151505871D01*
X147652194Y-151501662D01*
X147350380Y-151491209D01*
X147319940Y-151490618D01*
X147292443Y-151490500D01*
X147250091Y-151490320D01*
X147250074Y-151490320D01*
X147250054Y-151490320D01*
X147230760Y-151490423D01*
X146984762Y-151494112D01*
X146945124Y-151495489D01*
X146737305Y-151506814D01*
X146679451Y-151511645D01*
X146503695Y-151531448D01*
X146424250Y-151543633D01*
X146274640Y-151572745D01*
X146274629Y-151572747D01*
X146174993Y-151597473D01*
X146174976Y-151597478D01*
X146045488Y-151636733D01*
X146045464Y-151636741D01*
X145950661Y-151670752D01*
X145865987Y-151706010D01*
X145732672Y-151773554D01*
X145732669Y-151773556D01*
X145578682Y-151866562D01*
X145578666Y-151866572D01*
X145578023Y-151866961D01*
X145578020Y-151866963D01*
X145415499Y-151989345D01*
X145415496Y-151989347D01*
X145284965Y-152110164D01*
X145276586Y-152118009D01*
X145143773Y-152272108D01*
X145143772Y-152272110D01*
X145046191Y-152411725D01*
X145046188Y-152411729D01*
X144975611Y-152528961D01*
X144966124Y-152547462D01*
X144958599Y-152562441D01*
X144903990Y-152673414D01*
X144882156Y-152720853D01*
X144821251Y-152914974D01*
X144821250Y-152914979D01*
X144816196Y-152964685D01*
X144789405Y-153030432D01*
X144731321Y-153071258D01*
X144713799Y-153075828D01*
X144646379Y-153088319D01*
X144646371Y-153088320D01*
X144646353Y-153088325D01*
X144572529Y-153106861D01*
X144572511Y-153106867D01*
X144413419Y-153161312D01*
X144350790Y-153188788D01*
X144350788Y-153188789D01*
X144214146Y-153261767D01*
X144154395Y-153299868D01*
X144095572Y-153340384D01*
X144073240Y-153356965D01*
X144073239Y-153356965D01*
X143955770Y-153459206D01*
X143955749Y-153459225D01*
X143860869Y-153555696D01*
X143854979Y-153561735D01*
X143729039Y-153721527D01*
X143642400Y-153857855D01*
X143573140Y-153986666D01*
X143550649Y-154036956D01*
X143496350Y-154158368D01*
X143479724Y-154201695D01*
X143457357Y-154259984D01*
X143420941Y-154372789D01*
X143391920Y-154462687D01*
X143368731Y-154546854D01*
X143316136Y-154776217D01*
X143302115Y-154849864D01*
X143302113Y-154849877D01*
X143263866Y-155101514D01*
X143257053Y-155156518D01*
X143241251Y-155321174D01*
X143236747Y-155403422D01*
X143234005Y-155603417D01*
X142508541Y-155603417D01*
X142508541Y-152367407D01*
X134603967Y-152367407D01*
X134535846Y-152347405D01*
X134489353Y-152293749D01*
X134477967Y-152241407D01*
X134477967Y-151007599D01*
X162135300Y-151007599D01*
X162135300Y-151371200D01*
X162170936Y-151733015D01*
X162170939Y-151733037D01*
X162241866Y-152089619D01*
X162241869Y-152089630D01*
X162241870Y-152089633D01*
X162326132Y-152367407D01*
X162347414Y-152437564D01*
X162347415Y-152437568D01*
X162486553Y-152773476D01*
X162657948Y-153094134D01*
X162859942Y-153396439D01*
X162859945Y-153396443D01*
X162859946Y-153396444D01*
X162911453Y-153459206D01*
X163090602Y-153677500D01*
X163090619Y-153677518D01*
X163347681Y-153934580D01*
X163347699Y-153934597D01*
X163620365Y-154158368D01*
X163628760Y-154165257D01*
X163770529Y-154259984D01*
X163931068Y-154367253D01*
X164251724Y-154538647D01*
X164587636Y-154677786D01*
X164935567Y-154783330D01*
X164935576Y-154783331D01*
X164935580Y-154783333D01*
X165080113Y-154812081D01*
X165292169Y-154854262D01*
X165654006Y-154889900D01*
X165654015Y-154889900D01*
X166017585Y-154889900D01*
X166017594Y-154889900D01*
X166379431Y-154854262D01*
X166660901Y-154798274D01*
X166736019Y-154783333D01*
X166736021Y-154783332D01*
X166736033Y-154783330D01*
X167083964Y-154677786D01*
X167419876Y-154538647D01*
X167740532Y-154367253D01*
X168042844Y-154165254D01*
X168323901Y-153934597D01*
X168580997Y-153677501D01*
X168811654Y-153396444D01*
X169013653Y-153094132D01*
X169185047Y-152773476D01*
X169324186Y-152437564D01*
X169429730Y-152089633D01*
X169500662Y-151733031D01*
X169536300Y-151371194D01*
X169536300Y-151007606D01*
X169500662Y-150645769D01*
X169429730Y-150289167D01*
X169324186Y-149941236D01*
X169185047Y-149605324D01*
X169013653Y-149284668D01*
X168811654Y-148982356D01*
X168580997Y-148701299D01*
X168580980Y-148701281D01*
X168323918Y-148444219D01*
X168323900Y-148444202D01*
X168042839Y-148213542D01*
X167740534Y-148011548D01*
X167419876Y-147840153D01*
X167083968Y-147701015D01*
X167083964Y-147701014D01*
X166736033Y-147595470D01*
X166736030Y-147595469D01*
X166736019Y-147595466D01*
X166379437Y-147524539D01*
X166379433Y-147524538D01*
X166379431Y-147524538D01*
X166379426Y-147524537D01*
X166379415Y-147524536D01*
X166017600Y-147488900D01*
X166017594Y-147488900D01*
X165654006Y-147488900D01*
X165653999Y-147488900D01*
X165292184Y-147524536D01*
X165292162Y-147524539D01*
X164935580Y-147595466D01*
X164587635Y-147701014D01*
X164587631Y-147701015D01*
X164251723Y-147840153D01*
X163931065Y-148011548D01*
X163628760Y-148213542D01*
X163347699Y-148444202D01*
X163347681Y-148444219D01*
X163090619Y-148701281D01*
X163090602Y-148701299D01*
X162859942Y-148982360D01*
X162657948Y-149284665D01*
X162486553Y-149605323D01*
X162347415Y-149941231D01*
X162347414Y-149941235D01*
X162241866Y-150289180D01*
X162170939Y-150645762D01*
X162170936Y-150645784D01*
X162135300Y-151007599D01*
X134477967Y-151007599D01*
X134477967Y-150990254D01*
X130725987Y-150990254D01*
X130725987Y-155504139D01*
X126246700Y-155504139D01*
X126246700Y-151677317D01*
X126216176Y-151603626D01*
X126216173Y-151603622D01*
X126159777Y-151547226D01*
X126159773Y-151547223D01*
X126086082Y-151516700D01*
X115872700Y-151516700D01*
X115804579Y-151496698D01*
X115758086Y-151443042D01*
X115746700Y-151390700D01*
X115746700Y-145705400D01*
X115766702Y-145637279D01*
X115820358Y-145590786D01*
X115872700Y-145579400D01*
X215219700Y-145579400D01*
X215287821Y-145599402D01*
G37*
%TD.AperFunction*%
M02*
