%TF.GenerationSoftware,KiCad,Pcbnew,8.0.2-1*%
%TF.CreationDate,2024-06-23T19:16:47-07:00*%
%TF.ProjectId,antenna_top_cap_v2,616e7465-6e6e-4615-9f74-6f705f636170,rev?*%
%TF.SameCoordinates,Original*%
%TF.FileFunction,Profile,NP*%
%FSLAX46Y46*%
G04 Gerber Fmt 4.6, Leading zero omitted, Abs format (unit mm)*
G04 Created by KiCad (PCBNEW 8.0.2-1) date 2024-06-23 19:16:47*
%MOMM*%
%LPD*%
G01*
G04 APERTURE LIST*
%TA.AperFunction,Profile*%
%ADD10C,0.100000*%
%TD*%
%TA.AperFunction,Profile*%
%ADD11C,0.050000*%
%TD*%
%TA.AperFunction,Profile*%
%ADD12C,0.150000*%
%TD*%
%TA.AperFunction,Profile*%
%ADD13C,0.010000*%
%TD*%
G04 APERTURE END LIST*
D10*
X126046200Y-62217200D02*
X140645800Y-62217200D01*
D11*
X126046200Y-162217200D02*
X126046200Y-151717200D01*
X205046200Y-62217200D02*
X205046200Y-72717200D01*
D10*
X205046200Y-162217200D02*
X126046200Y-162217200D01*
D11*
X126046200Y-72717200D02*
X126046200Y-62217200D01*
D10*
X115545800Y-76844400D02*
X115546200Y-72717200D01*
D11*
X215546200Y-151717200D02*
X205046200Y-151717200D01*
X205046200Y-72717200D02*
X215546200Y-72717200D01*
X126046200Y-151717200D02*
X115546200Y-151717200D01*
D10*
X205046200Y-62217200D02*
X151845800Y-62217200D01*
X215545800Y-96039403D02*
X215546200Y-151717200D01*
D11*
X205046200Y-151717200D02*
X205046200Y-162217200D01*
D10*
X215545800Y-85769400D02*
X215545800Y-86244400D01*
X215545800Y-75969400D02*
X215546200Y-72717200D01*
X115545800Y-96669400D02*
X115546200Y-151717200D01*
X115545800Y-86644400D02*
X115545800Y-86869400D01*
X140638300Y-62219400D02*
X151845800Y-62217200D01*
D11*
X115546200Y-72717200D02*
X126046200Y-72717200D01*
%TO.C,J6*%
X140305400Y-142297000D02*
X144129600Y-142297000D01*
X140319600Y-129797000D02*
X140305400Y-142297000D01*
X144129600Y-129801800D02*
X140319600Y-129797000D01*
X144129600Y-142297000D02*
X144129600Y-129801800D01*
X146379600Y-142299400D02*
X150203800Y-142299400D01*
X146393800Y-129799400D02*
X146379600Y-142299400D01*
X150203800Y-129804200D02*
X146393800Y-129799400D01*
X150203800Y-142299400D02*
X150203800Y-129804200D01*
X152743800Y-129799400D02*
X155283800Y-129799400D01*
X152743800Y-142299400D02*
X152743800Y-129799400D01*
X155283800Y-129799400D02*
X155283800Y-142299400D01*
X155283800Y-142299400D02*
X152743800Y-142299400D01*
X176205800Y-129799400D02*
X176205800Y-142299400D01*
X176205800Y-142299400D02*
X178745800Y-142299400D01*
X178745800Y-129799400D02*
X176205800Y-129799400D01*
X178745800Y-142299400D02*
X178745800Y-129799400D01*
X181285800Y-129799400D02*
X181285800Y-142299400D01*
X181285800Y-142299400D02*
X185095800Y-142299400D01*
X185095800Y-129799400D02*
X181285800Y-129799400D01*
X185095800Y-142299400D02*
X185095800Y-129799400D01*
X187311600Y-129799400D02*
X187311600Y-142299400D01*
X187311600Y-142299400D02*
X191121600Y-142299400D01*
X191121600Y-129799400D02*
X187311600Y-129799400D01*
X191121600Y-142299400D02*
X191121600Y-129799400D01*
D12*
X154535800Y-144299400D02*
G75*
G02*
X153035800Y-144299400I-750000J0D01*
G01*
X153035800Y-144299400D02*
G75*
G02*
X154535800Y-144299400I750000J0D01*
G01*
X154779600Y-128049400D02*
G75*
G02*
X153279600Y-128049400I-750000J0D01*
G01*
X153279600Y-128049400D02*
G75*
G02*
X154779600Y-128049400I750000J0D01*
G01*
X162385800Y-135884200D02*
G75*
G02*
X159185800Y-135884200I-1600000J0D01*
G01*
X159185800Y-135884200D02*
G75*
G02*
X162385800Y-135884200I1600000J0D01*
G01*
X172385800Y-135884201D02*
G75*
G02*
X169185800Y-135884201I-1600000J0D01*
G01*
X169185800Y-135884201D02*
G75*
G02*
X172385800Y-135884201I1600000J0D01*
G01*
X178111600Y-144549400D02*
G75*
G02*
X176611600Y-144549400I-750000J0D01*
G01*
X176611600Y-144549400D02*
G75*
G02*
X178111600Y-144549400I750000J0D01*
G01*
X178261600Y-128049400D02*
G75*
G02*
X176761600Y-128049400I-750000J0D01*
G01*
X176761600Y-128049400D02*
G75*
G02*
X178261600Y-128049400I750000J0D01*
G01*
D13*
%TO.C,J10*%
X115540857Y-81743870D02*
X115540857Y-83043870D01*
X115540857Y-81743870D02*
X115545800Y-80444400D01*
X115545800Y-76844400D02*
X115545800Y-78344400D01*
X115545800Y-78344400D02*
X116045800Y-78919400D01*
X115545800Y-85144400D02*
X116045800Y-84569400D01*
X115545800Y-86644400D02*
X115545800Y-85144400D01*
X116695800Y-78919400D02*
X116045800Y-78919400D01*
X116695800Y-79819400D02*
X116045800Y-79819400D01*
X116695800Y-83669400D02*
X116045800Y-83669400D01*
X116695800Y-84569400D02*
X116045800Y-84569400D01*
X115545800Y-80444400D02*
G75*
G02*
X116050743Y-79818873I564940J60530D01*
G01*
X116045800Y-83669399D02*
G75*
G02*
X115540857Y-83043870I59999J564999D01*
G01*
X116695800Y-78919400D02*
G75*
G02*
X116695800Y-79819400I0J-450000D01*
G01*
X116695800Y-83669400D02*
G75*
G02*
X116695800Y-84569400I0J-450000D01*
G01*
%TO.C,J13*%
X214395800Y-88319400D02*
X215045800Y-88319400D01*
X214395800Y-89219400D02*
X215045800Y-89219400D01*
X214395800Y-93069400D02*
X215045800Y-93069400D01*
X214395800Y-93969400D02*
X215045800Y-93969400D01*
X215545800Y-86244400D02*
X215545800Y-87744400D01*
X215545800Y-87744400D02*
X215045800Y-88319400D01*
X215545800Y-94544400D02*
X215045800Y-93969400D01*
X215545800Y-96044400D02*
X215545800Y-94544400D01*
X215550743Y-91144930D02*
X215545800Y-92444400D01*
X215550743Y-91144930D02*
X215550743Y-89844930D01*
X214395800Y-89219400D02*
G75*
G02*
X214395800Y-88319400I0J450000D01*
G01*
X214395800Y-93969400D02*
G75*
G02*
X214395800Y-93069400I0J450000D01*
G01*
X215045800Y-89219401D02*
G75*
G02*
X215550743Y-89844930I-59999J-564999D01*
G01*
X215545800Y-92444400D02*
G75*
G02*
X215040857Y-93069927I-564940J-60530D01*
G01*
%TO.C,J15*%
X214395800Y-78044400D02*
X215045800Y-78044400D01*
X214395800Y-78944400D02*
X215045800Y-78944400D01*
X214395800Y-82794400D02*
X215045800Y-82794400D01*
X214395800Y-83694400D02*
X215045800Y-83694400D01*
X215545800Y-75969400D02*
X215545800Y-77469400D01*
X215545800Y-77469400D02*
X215045800Y-78044400D01*
X215545800Y-84269400D02*
X215045800Y-83694400D01*
X215545800Y-85769400D02*
X215545800Y-84269400D01*
X215550743Y-80869930D02*
X215545800Y-82169400D01*
X215550743Y-80869930D02*
X215550743Y-79569930D01*
X214395800Y-78944400D02*
G75*
G02*
X214395800Y-78044400I0J450000D01*
G01*
X214395800Y-83694400D02*
G75*
G02*
X214395800Y-82794400I0J450000D01*
G01*
X215045800Y-78944401D02*
G75*
G02*
X215550743Y-79569930I-59999J-564999D01*
G01*
X215545800Y-82169400D02*
G75*
G02*
X215040857Y-82794927I-564940J-60530D01*
G01*
%TO.C,J11*%
X115540857Y-91768870D02*
X115540857Y-93068870D01*
X115540857Y-91768870D02*
X115545800Y-90469400D01*
X115545800Y-86869400D02*
X115545800Y-88369400D01*
X115545800Y-88369400D02*
X116045800Y-88944400D01*
X115545800Y-95169400D02*
X116045800Y-94594400D01*
X115545800Y-96669400D02*
X115545800Y-95169400D01*
X116695800Y-88944400D02*
X116045800Y-88944400D01*
X116695800Y-89844400D02*
X116045800Y-89844400D01*
X116695800Y-93694400D02*
X116045800Y-93694400D01*
X116695800Y-94594400D02*
X116045800Y-94594400D01*
X115545800Y-90469400D02*
G75*
G02*
X116050743Y-89843873I564940J60530D01*
G01*
X116045800Y-93694399D02*
G75*
G02*
X115540857Y-93068870I59999J564999D01*
G01*
X116695800Y-88944400D02*
G75*
G02*
X116695800Y-89844400I0J-450000D01*
G01*
X116695800Y-93694400D02*
G75*
G02*
X116695800Y-94594400I0J-450000D01*
G01*
%TD*%
M02*
