%TF.GenerationSoftware,KiCad,Pcbnew,8.0.2-1*%
%TF.CreationDate,2024-06-23T19:16:47-07:00*%
%TF.ProjectId,antenna_top_cap_v2,616e7465-6e6e-4615-9f74-6f705f636170,rev?*%
%TF.SameCoordinates,Original*%
%TF.FileFunction,Copper,L3,Inr*%
%TF.FilePolarity,Positive*%
%FSLAX46Y46*%
G04 Gerber Fmt 4.6, Leading zero omitted, Abs format (unit mm)*
G04 Created by KiCad (PCBNEW 8.0.2-1) date 2024-06-23 19:16:47*
%MOMM*%
%LPD*%
G01*
G04 APERTURE LIST*
%TA.AperFunction,ComponentPad*%
%ADD10O,1.700000X1.700000*%
%TD*%
%TA.AperFunction,ComponentPad*%
%ADD11R,1.700000X1.700000*%
%TD*%
%TA.AperFunction,ComponentPad*%
%ADD12C,5.400000*%
%TD*%
%TA.AperFunction,ComponentPad*%
%ADD13C,2.050000*%
%TD*%
%TA.AperFunction,ComponentPad*%
%ADD14C,2.250000*%
%TD*%
%TA.AperFunction,ComponentPad*%
%ADD15O,2.416000X1.208000*%
%TD*%
%TA.AperFunction,ViaPad*%
%ADD16C,0.800000*%
%TD*%
G04 APERTURE END LIST*
D10*
%TO.N,BURN*%
%TO.C,J7*%
X154275800Y-116609400D03*
D11*
X155545800Y-114069400D03*
X158085800Y-114069400D03*
D10*
X159645800Y-116609400D03*
D11*
%TO.N,BURN_GND*%
X154275800Y-121689400D03*
X155545800Y-124229400D03*
X158085800Y-124229400D03*
X159645800Y-121689400D03*
%TD*%
%TO.N,~{FC_RESET}*%
%TO.C,J9*%
X134420800Y-67619400D03*
D10*
%TO.N,GND*%
X131880800Y-67619400D03*
%TD*%
D11*
%TO.N,EPS_USBBOOT*%
%TO.C,J2*%
X138370800Y-71319400D03*
D10*
%TO.N,GND*%
X140910800Y-71319400D03*
%TD*%
D12*
%TO.N,GND*%
%TO.C,TP3*%
X150275800Y-70119400D03*
%TD*%
%TO.N,GND*%
%TO.C,TP7*%
X142693713Y-79756113D03*
%TD*%
%TO.N,GND*%
%TO.C,TP2*%
X152215800Y-79769400D03*
%TD*%
%TO.N,GND*%
%TO.C,TP5*%
X126825800Y-112239400D03*
%TD*%
%TO.N,GND*%
%TO.C,TP6*%
X165835800Y-73239400D03*
%TD*%
%TO.N,GND*%
%TO.C,TP1*%
X165835800Y-151189400D03*
%TD*%
%TO.N,GND*%
%TO.C,TP4*%
X204805800Y-112189400D03*
%TD*%
D13*
%TO.N,Net-(J5-In)*%
%TO.C,J5*%
X165745800Y-118919400D03*
D14*
%TO.N,GND*%
X163205800Y-116379400D03*
X163205800Y-121459400D03*
X168285800Y-116379400D03*
X168285800Y-121459400D03*
%TD*%
D11*
%TO.N,~{EPS_RESET}*%
%TO.C,J3*%
X138370800Y-67619400D03*
D10*
%TO.N,GND*%
X140910800Y-67619400D03*
%TD*%
D11*
%TO.N,FC_USBBOOT*%
%TO.C,J20*%
X134420800Y-71319400D03*
D10*
%TO.N,GND*%
X131880800Y-71319400D03*
%TD*%
D15*
%TO.N,GND*%
%TO.C,J10*%
X116995800Y-85694400D03*
%TO.N,N/C*%
X116995800Y-77794400D03*
%TD*%
%TO.N,GND*%
%TO.C,J13*%
X214095800Y-87194400D03*
%TO.N,N/C*%
X214095800Y-95094400D03*
%TD*%
D11*
%TO.N,Dir_Chrg_In*%
%TO.C,J1*%
X155570800Y-109719400D03*
D10*
%TO.N,GND*%
X158110800Y-109719400D03*
%TD*%
D15*
%TO.N,GND*%
%TO.C,J15*%
X214095800Y-76919400D03*
%TO.N,N/C*%
X214095800Y-84819400D03*
%TD*%
%TO.N,GND*%
%TO.C,J11*%
X116995800Y-95719400D03*
%TO.N,N/C*%
X116995800Y-87819400D03*
%TD*%
D16*
%TO.N,GND*%
X175645800Y-122519400D03*
X175145800Y-123519400D03*
X174545800Y-124319400D03*
X173745800Y-124919400D03*
X172945800Y-125619400D03*
X173145800Y-121919400D03*
X172445800Y-122519400D03*
X171745800Y-123219400D03*
X171045800Y-123919400D03*
X168045800Y-107719400D03*
X162545800Y-111219400D03*
X166745800Y-104919400D03*
X163945647Y-106919553D03*
X153177969Y-111051569D03*
%TO.N,EPS_USBBOOT*%
X147797800Y-110389400D03*
X149645800Y-116419400D03*
%TO.N,~{EPS_RESET}*%
X148645800Y-110919400D03*
X150645800Y-116519400D03*
%TO.N,V_RF*%
X184345800Y-106819400D03*
X174245800Y-106519400D03*
X171245800Y-103119400D03*
X168745800Y-103119400D03*
%TO.N,+3V3*%
X150245800Y-108719400D03*
%TO.N,SDA1*%
X150445800Y-112519400D03*
%TO.N,SCL1*%
X149745800Y-111719400D03*
X147934616Y-113516366D03*
%TO.N,SDA1*%
X148641725Y-114223475D03*
%TO.N,EPS_USB_D+*%
X121045800Y-92119400D03*
%TO.N,EPS_USB_D-*%
X122184502Y-91994399D03*
%TO.N,GND*%
X122535800Y-83619400D03*
X188345800Y-106619400D03*
X182545800Y-106219400D03*
X166695800Y-123069400D03*
X130347958Y-123222637D03*
X176245800Y-106619400D03*
X209075800Y-78979400D03*
X164445800Y-125519400D03*
X166645800Y-124969400D03*
X167395800Y-129169400D03*
X164445800Y-123519400D03*
X117945800Y-138629545D03*
X166695800Y-127519400D03*
X164445800Y-124519400D03*
X164545800Y-122519400D03*
X166945800Y-130301025D03*
X163895800Y-129119400D03*
X166645800Y-123969400D03*
X164445800Y-126519400D03*
X164445800Y-127419400D03*
X118145800Y-134819400D03*
X164971175Y-128319400D03*
X166545800Y-128419400D03*
X209175800Y-89609400D03*
X121705800Y-93769400D03*
X174345800Y-102919400D03*
X164578799Y-130276413D03*
%TO.N,+3V3*%
X166245800Y-113919400D03*
X140345800Y-124619400D03*
X178345800Y-102919400D03*
X169045800Y-124119400D03*
X191245800Y-82625901D03*
%TO.N,2.8V*%
X124045800Y-136819400D03*
X125945800Y-126619400D03*
X118106730Y-136731536D03*
X125745800Y-122619400D03*
X133845800Y-123619400D03*
X129820800Y-126607053D03*
%TO.N,/SCL_3V*%
X122945800Y-138304400D03*
%TO.N,/GPIO*%
X121535800Y-134409400D03*
%TO.N,/XSHUT_2.8V*%
X122625802Y-136719400D03*
%TO.N,Net-(J10-VBUS)*%
X121745800Y-80359400D03*
%TO.N,/2d-*%
X208673487Y-92116785D03*
%TO.N,/2d+*%
X208745800Y-91119400D03*
%TO.N,/3d-*%
X206237842Y-81684400D03*
%TO.N,/3d+*%
X206237842Y-80634400D03*
%TO.N,Net-(J11-VBUS)*%
X121985800Y-90219400D03*
%TO.N,Net-(J13-VBUS)*%
X209325800Y-93099900D03*
%TO.N,Net-(J15-VBUS)*%
X209502184Y-82340211D03*
%TO.N,FC_USB_D-*%
X124159873Y-80864400D03*
%TO.N,FC_USB_D+*%
X124159873Y-81914400D03*
%TO.N,SDA1*%
X132845800Y-126291732D03*
X130545800Y-125867037D03*
%TO.N,/SDA_3V*%
X123845800Y-139119400D03*
%TD*%
%TA.AperFunction,Conductor*%
%TO.N,+3V3*%
G36*
X140597395Y-62419907D02*
G01*
X140598454Y-62419906D01*
X140598457Y-62419908D01*
X151844973Y-62417700D01*
X204719700Y-62417700D01*
X204787821Y-62437702D01*
X204834314Y-62491358D01*
X204845700Y-62543700D01*
X204845700Y-72757082D01*
X204876223Y-72830773D01*
X204876226Y-72830777D01*
X204932622Y-72887173D01*
X204932626Y-72887176D01*
X205006318Y-72917700D01*
X215219659Y-72917700D01*
X215287780Y-72937702D01*
X215334273Y-72991358D01*
X215345659Y-73043716D01*
X215345320Y-75794124D01*
X215325310Y-75862242D01*
X215271648Y-75908728D01*
X215201373Y-75918823D01*
X215162119Y-75906375D01*
X215126852Y-75888406D01*
X215126849Y-75888405D01*
X215126847Y-75888404D01*
X214960315Y-75834295D01*
X214960313Y-75834294D01*
X214960311Y-75834294D01*
X214787356Y-75806900D01*
X213404244Y-75806900D01*
X213231289Y-75834294D01*
X213231287Y-75834294D01*
X213231284Y-75834295D01*
X213064752Y-75888404D01*
X213064746Y-75888407D01*
X212908719Y-75967907D01*
X212767052Y-76070834D01*
X212643234Y-76194652D01*
X212540307Y-76336319D01*
X212460807Y-76492346D01*
X212460804Y-76492352D01*
X212406695Y-76658884D01*
X212406694Y-76658887D01*
X212406694Y-76658889D01*
X212379300Y-76831844D01*
X212379300Y-77006956D01*
X212406694Y-77179911D01*
X212460806Y-77346452D01*
X212540305Y-77502477D01*
X212540307Y-77502480D01*
X212643234Y-77644147D01*
X212767052Y-77767965D01*
X212767055Y-77767967D01*
X212908723Y-77870895D01*
X213064748Y-77950394D01*
X213231289Y-78004506D01*
X213404244Y-78031900D01*
X213696000Y-78031900D01*
X213764121Y-78051902D01*
X213810614Y-78105558D01*
X213820718Y-78175832D01*
X213809522Y-78212569D01*
X213792850Y-78247190D01*
X213777919Y-78278194D01*
X213745300Y-78421106D01*
X213745300Y-78567694D01*
X213777330Y-78708025D01*
X213777919Y-78710605D01*
X213777921Y-78710610D01*
X213841518Y-78842672D01*
X213841519Y-78842674D01*
X213841520Y-78842675D01*
X213841521Y-78842677D01*
X213932917Y-78957283D01*
X214047523Y-79048679D01*
X214179594Y-79112281D01*
X214322506Y-79144900D01*
X214355918Y-79144900D01*
X215014275Y-79144900D01*
X215043831Y-79148415D01*
X215101854Y-79162416D01*
X215132564Y-79174248D01*
X215187751Y-79204306D01*
X215214348Y-79223686D01*
X215259871Y-79267013D01*
X215280544Y-79292624D01*
X215313292Y-79346261D01*
X215326626Y-79376348D01*
X215344368Y-79436635D01*
X215349457Y-79469154D01*
X215350520Y-79513016D01*
X215350121Y-79517652D01*
X215350243Y-79517652D01*
X215350243Y-79552486D01*
X215349526Y-79565909D01*
X215347135Y-79588223D01*
X215348246Y-79600589D01*
X215347893Y-79600620D01*
X215350243Y-79616937D01*
X215350243Y-80869294D01*
X215350242Y-80869773D01*
X215345478Y-82122258D01*
X215343076Y-82138715D01*
X215343304Y-82138736D01*
X215342192Y-82151097D01*
X215344517Y-82172807D01*
X215345232Y-82186695D01*
X215345104Y-82220504D01*
X215345579Y-82226139D01*
X215344510Y-82270159D01*
X215339420Y-82302678D01*
X215321679Y-82362952D01*
X215308342Y-82393040D01*
X215275596Y-82446666D01*
X215254920Y-82472276D01*
X215209403Y-82515591D01*
X215182802Y-82534971D01*
X215127624Y-82565019D01*
X215096914Y-82576849D01*
X215040800Y-82590386D01*
X215011251Y-82593900D01*
X214435682Y-82593900D01*
X214395800Y-82593900D01*
X214322506Y-82593900D01*
X214179594Y-82626519D01*
X214179589Y-82626521D01*
X214047527Y-82690118D01*
X214047525Y-82690119D01*
X213932917Y-82781517D01*
X213841519Y-82896125D01*
X213841518Y-82896127D01*
X213779180Y-83025575D01*
X213777919Y-83028194D01*
X213745300Y-83171106D01*
X213745300Y-83317694D01*
X213762733Y-83394072D01*
X213777919Y-83460605D01*
X213777921Y-83460610D01*
X213809522Y-83526231D01*
X213821057Y-83596284D01*
X213792887Y-83661453D01*
X213733957Y-83701047D01*
X213696000Y-83706900D01*
X213404244Y-83706900D01*
X213231289Y-83734294D01*
X213231287Y-83734294D01*
X213231284Y-83734295D01*
X213064752Y-83788404D01*
X213064746Y-83788407D01*
X212908719Y-83867907D01*
X212767052Y-83970834D01*
X212643234Y-84094652D01*
X212540307Y-84236319D01*
X212460807Y-84392346D01*
X212460804Y-84392352D01*
X212406695Y-84558884D01*
X212406694Y-84558887D01*
X212406694Y-84558889D01*
X212379300Y-84731844D01*
X212379300Y-84906956D01*
X212398920Y-85030826D01*
X212406695Y-85079915D01*
X212419254Y-85118569D01*
X212460806Y-85246452D01*
X212495769Y-85315070D01*
X212540307Y-85402480D01*
X212643234Y-85544147D01*
X212767052Y-85667965D01*
X212767055Y-85667967D01*
X212908723Y-85770895D01*
X213064748Y-85850394D01*
X213124178Y-85869704D01*
X213177616Y-85887067D01*
X213236222Y-85927141D01*
X213263859Y-85992537D01*
X213251752Y-86062494D01*
X213203746Y-86114800D01*
X213177616Y-86126733D01*
X213064752Y-86163404D01*
X213064746Y-86163407D01*
X212908719Y-86242907D01*
X212767052Y-86345834D01*
X212643234Y-86469652D01*
X212540307Y-86611319D01*
X212460807Y-86767346D01*
X212460804Y-86767352D01*
X212406695Y-86933884D01*
X212406694Y-86933887D01*
X212406694Y-86933889D01*
X212379300Y-87106844D01*
X212379300Y-87281956D01*
X212406694Y-87454911D01*
X212406695Y-87454915D01*
X212440476Y-87558884D01*
X212460806Y-87621452D01*
X212540305Y-87777477D01*
X212540307Y-87777480D01*
X212643234Y-87919147D01*
X212767052Y-88042965D01*
X212767055Y-88042967D01*
X212908723Y-88145895D01*
X213064748Y-88225394D01*
X213231289Y-88279506D01*
X213404244Y-88306900D01*
X213696000Y-88306900D01*
X213764121Y-88326902D01*
X213810614Y-88380558D01*
X213820718Y-88450832D01*
X213809522Y-88487569D01*
X213782276Y-88544147D01*
X213777919Y-88553194D01*
X213745300Y-88696106D01*
X213745300Y-88842694D01*
X213765661Y-88931900D01*
X213777919Y-88985605D01*
X213777921Y-88985610D01*
X213841518Y-89117672D01*
X213841519Y-89117674D01*
X213841520Y-89117675D01*
X213841521Y-89117677D01*
X213932917Y-89232283D01*
X214047523Y-89323679D01*
X214179594Y-89387281D01*
X214322506Y-89419900D01*
X214355918Y-89419900D01*
X215014275Y-89419900D01*
X215043831Y-89423415D01*
X215101854Y-89437416D01*
X215132564Y-89449248D01*
X215187751Y-89479306D01*
X215214349Y-89498687D01*
X215259871Y-89542013D01*
X215280544Y-89567624D01*
X215313292Y-89621261D01*
X215326626Y-89651348D01*
X215344368Y-89711635D01*
X215349457Y-89744154D01*
X215350520Y-89788016D01*
X215350121Y-89792652D01*
X215350243Y-89792652D01*
X215350243Y-89827486D01*
X215349526Y-89840909D01*
X215347135Y-89863223D01*
X215348246Y-89875589D01*
X215347893Y-89875620D01*
X215350243Y-89891937D01*
X215350243Y-91144294D01*
X215350242Y-91144773D01*
X215345478Y-92397258D01*
X215343076Y-92413715D01*
X215343304Y-92413736D01*
X215342192Y-92426097D01*
X215344517Y-92447807D01*
X215345232Y-92461695D01*
X215345104Y-92495504D01*
X215345579Y-92501139D01*
X215344510Y-92545159D01*
X215339420Y-92577678D01*
X215321679Y-92637952D01*
X215308342Y-92668040D01*
X215275596Y-92721666D01*
X215254920Y-92747276D01*
X215209403Y-92790591D01*
X215182802Y-92809971D01*
X215127624Y-92840019D01*
X215096914Y-92851849D01*
X215040800Y-92865386D01*
X215011251Y-92868900D01*
X214435682Y-92868900D01*
X214395800Y-92868900D01*
X214322506Y-92868900D01*
X214187923Y-92899618D01*
X214179594Y-92901519D01*
X214179589Y-92901521D01*
X214047527Y-92965118D01*
X214047525Y-92965119D01*
X213932917Y-93056517D01*
X213841519Y-93171125D01*
X213841518Y-93171127D01*
X213777921Y-93303189D01*
X213777919Y-93303194D01*
X213745300Y-93446106D01*
X213745300Y-93592694D01*
X213772195Y-93710528D01*
X213777919Y-93735605D01*
X213777921Y-93735610D01*
X213809522Y-93801231D01*
X213821057Y-93871284D01*
X213792887Y-93936453D01*
X213733957Y-93976047D01*
X213696000Y-93981900D01*
X213404244Y-93981900D01*
X213231289Y-94009294D01*
X213231287Y-94009294D01*
X213231284Y-94009295D01*
X213064752Y-94063404D01*
X213064746Y-94063407D01*
X212908719Y-94142907D01*
X212767052Y-94245834D01*
X212643234Y-94369652D01*
X212540307Y-94511319D01*
X212460807Y-94667346D01*
X212460804Y-94667352D01*
X212406695Y-94833884D01*
X212406694Y-94833887D01*
X212406694Y-94833889D01*
X212379300Y-95006844D01*
X212379300Y-95181956D01*
X212406694Y-95354911D01*
X212406695Y-95354915D01*
X212440476Y-95458884D01*
X212460806Y-95521452D01*
X212540305Y-95677477D01*
X212540307Y-95677480D01*
X212643234Y-95819147D01*
X212767052Y-95942965D01*
X212767055Y-95942967D01*
X212908723Y-96045895D01*
X213064748Y-96125394D01*
X213231289Y-96179506D01*
X213404244Y-96206900D01*
X213404247Y-96206900D01*
X214787353Y-96206900D01*
X214787356Y-96206900D01*
X214960311Y-96179506D01*
X215126852Y-96125394D01*
X215162097Y-96107435D01*
X215231871Y-96094330D01*
X215297656Y-96121028D01*
X215338564Y-96179055D01*
X215345300Y-96219700D01*
X215345697Y-151390699D01*
X215325695Y-151458820D01*
X215272040Y-151505313D01*
X215219697Y-151516700D01*
X205006318Y-151516700D01*
X204932626Y-151547223D01*
X204932622Y-151547226D01*
X204876226Y-151603622D01*
X204876223Y-151603626D01*
X204845700Y-151677317D01*
X204845700Y-161890700D01*
X204825698Y-161958821D01*
X204772042Y-162005314D01*
X204719700Y-162016700D01*
X126372700Y-162016700D01*
X126304579Y-161996698D01*
X126258086Y-161943042D01*
X126246700Y-161890700D01*
X126246700Y-151677317D01*
X126216176Y-151603626D01*
X126216173Y-151603622D01*
X126159777Y-151547226D01*
X126159773Y-151547223D01*
X126086082Y-151516700D01*
X115872697Y-151516700D01*
X115804576Y-151496698D01*
X115758083Y-151443042D01*
X115746697Y-151390701D01*
X115746696Y-151189400D01*
X162622244Y-151189400D01*
X162642449Y-151549200D01*
X162702813Y-151904476D01*
X162802579Y-152250774D01*
X162940481Y-152583699D01*
X162940486Y-152583710D01*
X162940493Y-152583722D01*
X163114799Y-152899107D01*
X163114801Y-152899110D01*
X163114804Y-152899115D01*
X163323341Y-153193019D01*
X163563473Y-153461727D01*
X163832181Y-153701859D01*
X164126085Y-153910396D01*
X164441490Y-154084714D01*
X164774430Y-154222622D01*
X165120717Y-154322385D01*
X165475996Y-154382750D01*
X165835800Y-154402956D01*
X166195604Y-154382750D01*
X166550883Y-154322385D01*
X166897170Y-154222622D01*
X167230110Y-154084714D01*
X167545515Y-153910396D01*
X167839419Y-153701859D01*
X168108127Y-153461727D01*
X168348259Y-153193019D01*
X168556796Y-152899115D01*
X168731114Y-152583710D01*
X168869022Y-152250770D01*
X168968785Y-151904483D01*
X169029150Y-151549204D01*
X169049356Y-151189400D01*
X169029150Y-150829596D01*
X168968785Y-150474317D01*
X168869022Y-150128030D01*
X168731114Y-149795090D01*
X168556796Y-149479685D01*
X168348259Y-149185781D01*
X168108127Y-148917073D01*
X167839419Y-148676941D01*
X167545515Y-148468404D01*
X167545510Y-148468401D01*
X167545507Y-148468399D01*
X167352703Y-148361841D01*
X167230110Y-148294086D01*
X167230103Y-148294083D01*
X167230099Y-148294081D01*
X166897174Y-148156179D01*
X166550876Y-148056413D01*
X166195600Y-147996049D01*
X165835800Y-147975844D01*
X165475999Y-147996049D01*
X165120723Y-148056413D01*
X164774425Y-148156179D01*
X164441500Y-148294081D01*
X164441477Y-148294093D01*
X164126092Y-148468399D01*
X163832177Y-148676944D01*
X163563473Y-148917073D01*
X163323344Y-149185777D01*
X163114799Y-149479692D01*
X162940493Y-149795077D01*
X162940481Y-149795100D01*
X162802579Y-150128025D01*
X162702813Y-150474323D01*
X162642449Y-150829599D01*
X162622244Y-151189400D01*
X115746696Y-151189400D01*
X115746688Y-150128025D01*
X115746604Y-138629545D01*
X117032296Y-138629545D01*
X117052257Y-138819472D01*
X117082326Y-138912015D01*
X117111273Y-139001101D01*
X117111276Y-139001106D01*
X117206758Y-139166486D01*
X117206765Y-139166496D01*
X117334544Y-139308409D01*
X117334547Y-139308411D01*
X117489048Y-139420663D01*
X117663512Y-139498339D01*
X117850313Y-139538045D01*
X118041287Y-139538045D01*
X118228088Y-139498339D01*
X118402552Y-139420663D01*
X118557053Y-139308411D01*
X118557055Y-139308409D01*
X118684834Y-139166496D01*
X118684835Y-139166494D01*
X118684840Y-139166489D01*
X118780327Y-139001101D01*
X118839342Y-138819473D01*
X118859304Y-138629545D01*
X118839342Y-138439617D01*
X118780327Y-138257989D01*
X118684840Y-138092601D01*
X118684838Y-138092599D01*
X118684834Y-138092593D01*
X118557055Y-137950680D01*
X118491610Y-137903132D01*
X118402552Y-137838427D01*
X118392189Y-137833813D01*
X118386929Y-137831471D01*
X118332834Y-137785490D01*
X118312186Y-137717562D01*
X118331540Y-137649255D01*
X118384751Y-137602254D01*
X118386932Y-137601258D01*
X118389014Y-137600330D01*
X118389018Y-137600330D01*
X118563482Y-137522654D01*
X118717983Y-137410402D01*
X118845770Y-137268480D01*
X118941257Y-137103092D01*
X119000272Y-136921464D01*
X119020234Y-136731536D01*
X119018958Y-136719400D01*
X121712298Y-136719400D01*
X121732259Y-136909327D01*
X121736203Y-136921464D01*
X121791275Y-137090956D01*
X121791278Y-137090961D01*
X121886760Y-137256341D01*
X121886767Y-137256351D01*
X122014546Y-137398264D01*
X122014549Y-137398266D01*
X122169050Y-137510518D01*
X122169053Y-137510519D01*
X122169054Y-137510520D01*
X122202680Y-137525491D01*
X122256777Y-137571470D01*
X122277427Y-137639397D01*
X122258075Y-137707705D01*
X122245070Y-137724908D01*
X122206761Y-137767454D01*
X122206758Y-137767458D01*
X122111276Y-137932838D01*
X122111273Y-137932845D01*
X122052257Y-138114472D01*
X122032296Y-138304400D01*
X122052257Y-138494327D01*
X122080890Y-138582448D01*
X122111273Y-138675956D01*
X122111276Y-138675961D01*
X122206758Y-138841341D01*
X122206765Y-138841351D01*
X122334544Y-138983264D01*
X122395799Y-139027768D01*
X122489048Y-139095518D01*
X122663512Y-139173194D01*
X122850313Y-139212900D01*
X122850314Y-139212900D01*
X122855578Y-139214019D01*
X122918051Y-139247748D01*
X122948837Y-139303495D01*
X122950217Y-139303047D01*
X122952258Y-139309327D01*
X122952258Y-139309328D01*
X123011273Y-139490956D01*
X123011276Y-139490961D01*
X123106758Y-139656341D01*
X123106765Y-139656351D01*
X123234544Y-139798264D01*
X123234547Y-139798266D01*
X123389048Y-139910518D01*
X123563512Y-139988194D01*
X123750313Y-140027900D01*
X123941287Y-140027900D01*
X124128088Y-139988194D01*
X124302552Y-139910518D01*
X124457053Y-139798266D01*
X124584840Y-139656344D01*
X124680327Y-139490956D01*
X124739342Y-139309328D01*
X124759304Y-139119400D01*
X124739342Y-138929472D01*
X124680327Y-138747844D01*
X124584840Y-138582456D01*
X124584838Y-138582454D01*
X124584834Y-138582448D01*
X124457055Y-138440535D01*
X124302552Y-138328282D01*
X124248912Y-138304400D01*
X124128088Y-138250606D01*
X124128087Y-138250605D01*
X124128083Y-138250604D01*
X123936021Y-138209779D01*
X123873547Y-138176051D01*
X123842762Y-138120304D01*
X123841383Y-138120753D01*
X123832233Y-138092593D01*
X123780327Y-137932844D01*
X123763171Y-137903129D01*
X123746434Y-137834137D01*
X123769654Y-137767045D01*
X123825461Y-137723157D01*
X123896136Y-137716408D01*
X123898489Y-137716885D01*
X123950309Y-137727900D01*
X123950313Y-137727900D01*
X124141287Y-137727900D01*
X124328088Y-137688194D01*
X124502552Y-137610518D01*
X124657053Y-137498266D01*
X124713472Y-137435606D01*
X124784834Y-137356351D01*
X124784835Y-137356349D01*
X124784840Y-137356344D01*
X124880327Y-137190956D01*
X124939342Y-137009328D01*
X124959304Y-136819400D01*
X124939342Y-136629472D01*
X124880327Y-136447844D01*
X124784840Y-136282456D01*
X124784838Y-136282454D01*
X124784834Y-136282448D01*
X124657055Y-136140535D01*
X124502552Y-136028282D01*
X124328088Y-135950606D01*
X124141287Y-135910900D01*
X123950313Y-135910900D01*
X123763511Y-135950606D01*
X123589047Y-136028282D01*
X123461373Y-136121043D01*
X123394505Y-136144902D01*
X123325353Y-136128821D01*
X123293676Y-136103417D01*
X123237057Y-136040535D01*
X123082554Y-135928282D01*
X122908090Y-135850606D01*
X122721289Y-135810900D01*
X122530315Y-135810900D01*
X122343513Y-135850606D01*
X122169049Y-135928282D01*
X122014546Y-136040535D01*
X121886767Y-136182448D01*
X121886760Y-136182458D01*
X121791278Y-136347838D01*
X121791275Y-136347844D01*
X121776801Y-136392386D01*
X121732259Y-136529472D01*
X121712298Y-136719400D01*
X119018958Y-136719400D01*
X119000272Y-136541608D01*
X118941257Y-136359980D01*
X118845770Y-136194592D01*
X118845768Y-136194590D01*
X118845764Y-136194584D01*
X118717985Y-136052671D01*
X118563482Y-135940418D01*
X118471066Y-135899272D01*
X118416970Y-135853292D01*
X118396321Y-135785364D01*
X118415673Y-135717056D01*
X118468884Y-135670055D01*
X118471013Y-135669082D01*
X118602552Y-135610518D01*
X118757053Y-135498266D01*
X118884840Y-135356344D01*
X118980327Y-135190956D01*
X119039342Y-135009328D01*
X119059304Y-134819400D01*
X119039342Y-134629472D01*
X118980327Y-134447844D01*
X118958131Y-134409400D01*
X120622296Y-134409400D01*
X120642257Y-134599327D01*
X120652052Y-134629472D01*
X120701273Y-134780956D01*
X120701276Y-134780961D01*
X120796758Y-134946341D01*
X120796765Y-134946351D01*
X120924544Y-135088264D01*
X120924547Y-135088266D01*
X121079048Y-135200518D01*
X121253512Y-135278194D01*
X121440313Y-135317900D01*
X121631287Y-135317900D01*
X121818088Y-135278194D01*
X121992552Y-135200518D01*
X122147053Y-135088266D01*
X122274840Y-134946344D01*
X122370327Y-134780956D01*
X122429342Y-134599328D01*
X122449304Y-134409400D01*
X122429342Y-134219472D01*
X122370327Y-134037844D01*
X122274840Y-133872456D01*
X122274838Y-133872454D01*
X122274834Y-133872448D01*
X122147055Y-133730535D01*
X121992552Y-133618282D01*
X121818088Y-133540606D01*
X121631287Y-133500900D01*
X121440313Y-133500900D01*
X121253511Y-133540606D01*
X121079047Y-133618282D01*
X120924544Y-133730535D01*
X120796765Y-133872448D01*
X120796758Y-133872458D01*
X120701276Y-134037838D01*
X120701273Y-134037845D01*
X120642257Y-134219472D01*
X120622296Y-134409400D01*
X118958131Y-134409400D01*
X118884840Y-134282456D01*
X118884838Y-134282454D01*
X118884834Y-134282448D01*
X118757055Y-134140535D01*
X118602552Y-134028282D01*
X118428088Y-133950606D01*
X118241287Y-133910900D01*
X118050313Y-133910900D01*
X117863511Y-133950606D01*
X117689047Y-134028282D01*
X117534544Y-134140535D01*
X117406765Y-134282448D01*
X117406758Y-134282458D01*
X117311276Y-134447838D01*
X117311273Y-134447845D01*
X117252257Y-134629472D01*
X117232296Y-134819400D01*
X117252257Y-135009327D01*
X117277906Y-135088264D01*
X117311273Y-135190956D01*
X117311276Y-135190961D01*
X117406758Y-135356341D01*
X117406765Y-135356351D01*
X117534544Y-135498264D01*
X117534547Y-135498266D01*
X117689048Y-135610518D01*
X117781462Y-135651663D01*
X117835558Y-135697643D01*
X117856208Y-135765570D01*
X117836856Y-135833878D01*
X117783645Y-135880880D01*
X117781463Y-135881877D01*
X117649977Y-135940418D01*
X117495474Y-136052671D01*
X117367695Y-136194584D01*
X117367688Y-136194594D01*
X117272206Y-136359974D01*
X117272203Y-136359981D01*
X117213187Y-136541608D01*
X117193226Y-136731536D01*
X117213187Y-136921463D01*
X117241737Y-137009327D01*
X117272203Y-137103092D01*
X117272206Y-137103097D01*
X117367688Y-137268477D01*
X117367695Y-137268487D01*
X117495474Y-137410400D01*
X117495477Y-137410402D01*
X117649978Y-137522654D01*
X117665357Y-137529501D01*
X117665597Y-137529608D01*
X117719693Y-137575588D01*
X117740343Y-137643515D01*
X117720991Y-137711823D01*
X117667780Y-137758825D01*
X117665598Y-137759822D01*
X117489047Y-137838427D01*
X117334544Y-137950680D01*
X117206765Y-138092593D01*
X117206758Y-138092603D01*
X117111276Y-138257983D01*
X117111273Y-138257990D01*
X117052257Y-138439617D01*
X117032296Y-138629545D01*
X115746604Y-138629545D01*
X115746517Y-126619400D01*
X125032296Y-126619400D01*
X125052257Y-126809327D01*
X125082326Y-126901870D01*
X125111273Y-126990956D01*
X125111276Y-126990961D01*
X125206758Y-127156341D01*
X125206765Y-127156351D01*
X125334544Y-127298264D01*
X125334547Y-127298266D01*
X125489048Y-127410518D01*
X125663512Y-127488194D01*
X125850313Y-127527900D01*
X126041287Y-127527900D01*
X126228088Y-127488194D01*
X126402552Y-127410518D01*
X126557053Y-127298266D01*
X126579001Y-127273890D01*
X126684834Y-127156351D01*
X126684835Y-127156349D01*
X126684840Y-127156344D01*
X126780327Y-126990956D01*
X126839342Y-126809328D01*
X126859304Y-126619400D01*
X126858006Y-126607053D01*
X128907296Y-126607053D01*
X128927257Y-126796980D01*
X128957326Y-126889523D01*
X128986273Y-126978609D01*
X129014641Y-127027744D01*
X129081758Y-127143994D01*
X129081765Y-127144004D01*
X129209544Y-127285917D01*
X129209547Y-127285919D01*
X129364048Y-127398171D01*
X129538512Y-127475847D01*
X129725313Y-127515553D01*
X129916287Y-127515553D01*
X130103088Y-127475847D01*
X130277552Y-127398171D01*
X130432053Y-127285919D01*
X130509206Y-127200232D01*
X130559834Y-127144004D01*
X130559835Y-127144002D01*
X130559840Y-127143997D01*
X130655327Y-126978609D01*
X130704767Y-126826449D01*
X130744839Y-126767845D01*
X130798402Y-126742140D01*
X130828088Y-126735831D01*
X131002552Y-126658155D01*
X131157053Y-126545903D01*
X131173263Y-126527900D01*
X131284834Y-126403988D01*
X131284835Y-126403986D01*
X131284840Y-126403981D01*
X131349647Y-126291732D01*
X131932296Y-126291732D01*
X131952257Y-126481659D01*
X131967282Y-126527900D01*
X132011273Y-126663288D01*
X132037854Y-126709328D01*
X132106758Y-126828673D01*
X132106765Y-126828683D01*
X132234544Y-126970596D01*
X132262567Y-126990956D01*
X132389048Y-127082850D01*
X132563512Y-127160526D01*
X132750313Y-127200232D01*
X132759800Y-127200232D01*
X132827921Y-127220234D01*
X132874414Y-127273890D01*
X132885800Y-127326232D01*
X132885800Y-145539400D01*
X197915800Y-145539400D01*
X197915800Y-126869400D01*
X167387479Y-126869400D01*
X167319358Y-126849398D01*
X167312550Y-126844200D01*
X167312395Y-126844415D01*
X167152552Y-126728282D01*
X166978088Y-126650606D01*
X166791287Y-126610900D01*
X166600313Y-126610900D01*
X166413511Y-126650606D01*
X166239047Y-126728282D01*
X166079205Y-126844415D01*
X166077616Y-126842227D01*
X166024416Y-126867755D01*
X166004121Y-126869400D01*
X165460756Y-126869400D01*
X165392635Y-126849398D01*
X165346142Y-126795742D01*
X165336038Y-126725468D01*
X165338274Y-126715849D01*
X165337970Y-126715785D01*
X165339342Y-126709330D01*
X165344720Y-126658155D01*
X165359304Y-126519400D01*
X165339342Y-126329472D01*
X165280327Y-126147844D01*
X165242542Y-126082400D01*
X165225805Y-126013405D01*
X165242543Y-125956399D01*
X165251703Y-125940534D01*
X165280327Y-125890956D01*
X165339342Y-125709328D01*
X165359304Y-125519400D01*
X165339342Y-125329472D01*
X165280327Y-125147844D01*
X165242542Y-125082400D01*
X165225805Y-125013405D01*
X165242543Y-124956399D01*
X165251703Y-124940534D01*
X165280327Y-124890956D01*
X165339342Y-124709328D01*
X165359304Y-124519400D01*
X165339342Y-124329472D01*
X165280327Y-124147844D01*
X165242542Y-124082400D01*
X165225805Y-124013405D01*
X165238726Y-123969400D01*
X165732296Y-123969400D01*
X165752257Y-124159327D01*
X165778644Y-124240534D01*
X165811273Y-124340956D01*
X165811274Y-124340959D01*
X165849057Y-124406401D01*
X165865794Y-124475397D01*
X165849057Y-124532399D01*
X165811274Y-124597840D01*
X165811273Y-124597845D01*
X165752257Y-124779472D01*
X165732296Y-124969400D01*
X165752257Y-125159327D01*
X165778534Y-125240198D01*
X165811273Y-125340956D01*
X165811276Y-125340961D01*
X165906758Y-125506341D01*
X165906765Y-125506351D01*
X166034544Y-125648264D01*
X166034547Y-125648266D01*
X166189048Y-125760518D01*
X166363512Y-125838194D01*
X166550313Y-125877900D01*
X166741287Y-125877900D01*
X166928088Y-125838194D01*
X167102552Y-125760518D01*
X167257053Y-125648266D01*
X167283044Y-125619400D01*
X172032296Y-125619400D01*
X172052257Y-125809327D01*
X172078780Y-125890954D01*
X172111273Y-125990956D01*
X172111275Y-125990959D01*
X172111276Y-125990961D01*
X172206758Y-126156341D01*
X172206765Y-126156351D01*
X172334544Y-126298264D01*
X172334547Y-126298266D01*
X172489048Y-126410518D01*
X172663512Y-126488194D01*
X172850313Y-126527900D01*
X173041287Y-126527900D01*
X173228088Y-126488194D01*
X173402552Y-126410518D01*
X173557053Y-126298266D01*
X173610785Y-126238591D01*
X173684834Y-126156351D01*
X173684835Y-126156349D01*
X173684840Y-126156344D01*
X173780327Y-125990956D01*
X173810236Y-125898906D01*
X173850308Y-125840302D01*
X173903869Y-125814597D01*
X174028088Y-125788194D01*
X174202552Y-125710518D01*
X174357053Y-125598266D01*
X174366387Y-125587900D01*
X174484834Y-125456351D01*
X174484835Y-125456349D01*
X174484840Y-125456344D01*
X174580327Y-125290956D01*
X174580326Y-125290956D01*
X174583629Y-125285237D01*
X174585581Y-125286364D01*
X174624794Y-125240198D01*
X174667757Y-125222273D01*
X174828088Y-125188194D01*
X175002552Y-125110518D01*
X175157053Y-124998266D01*
X175192825Y-124958537D01*
X175284834Y-124856351D01*
X175284835Y-124856349D01*
X175284840Y-124856344D01*
X175380327Y-124690956D01*
X175439342Y-124509328D01*
X175445647Y-124449337D01*
X175472660Y-124383681D01*
X175519707Y-124347402D01*
X175602552Y-124310518D01*
X175757053Y-124198266D01*
X175792114Y-124159327D01*
X175884834Y-124056351D01*
X175884835Y-124056349D01*
X175884840Y-124056344D01*
X175980327Y-123890956D01*
X176039342Y-123709328D01*
X176059304Y-123519400D01*
X176049579Y-123426876D01*
X176062351Y-123357040D01*
X176100828Y-123311771D01*
X176173011Y-123259326D01*
X176257053Y-123198266D01*
X176262846Y-123191832D01*
X176384834Y-123056351D01*
X176384835Y-123056349D01*
X176384840Y-123056344D01*
X176480327Y-122890956D01*
X176539342Y-122709328D01*
X176559304Y-122519400D01*
X176539342Y-122329472D01*
X176480327Y-122147844D01*
X176384840Y-121982456D01*
X176384838Y-121982454D01*
X176384834Y-121982448D01*
X176257055Y-121840535D01*
X176102552Y-121728282D01*
X175928088Y-121650606D01*
X175741287Y-121610900D01*
X175550313Y-121610900D01*
X175363511Y-121650606D01*
X175189047Y-121728282D01*
X175034544Y-121840535D01*
X174906765Y-121982448D01*
X174906758Y-121982458D01*
X174811276Y-122147838D01*
X174811273Y-122147845D01*
X174752257Y-122329472D01*
X174732296Y-122519400D01*
X174742020Y-122611925D01*
X174729247Y-122681763D01*
X174690771Y-122727030D01*
X174534544Y-122840535D01*
X174406765Y-122982448D01*
X174406758Y-122982458D01*
X174311276Y-123147838D01*
X174311273Y-123147845D01*
X174252258Y-123329470D01*
X174252257Y-123329472D01*
X174245951Y-123389464D01*
X174218937Y-123455120D01*
X174171892Y-123491396D01*
X174089054Y-123528278D01*
X174089048Y-123528282D01*
X173934544Y-123640535D01*
X173806765Y-123782448D01*
X173806758Y-123782458D01*
X173707971Y-123953563D01*
X173706027Y-123952440D01*
X173666759Y-123998631D01*
X173623839Y-124016527D01*
X173463511Y-124050606D01*
X173289047Y-124128282D01*
X173134544Y-124240535D01*
X173006765Y-124382448D01*
X173006758Y-124382458D01*
X172911275Y-124547838D01*
X172881364Y-124639893D01*
X172841289Y-124698498D01*
X172787729Y-124724201D01*
X172663515Y-124750604D01*
X172489047Y-124828282D01*
X172334544Y-124940535D01*
X172206765Y-125082448D01*
X172206758Y-125082458D01*
X172111276Y-125247838D01*
X172111273Y-125247845D01*
X172052257Y-125429472D01*
X172032296Y-125619400D01*
X167283044Y-125619400D01*
X167384834Y-125506351D01*
X167384835Y-125506349D01*
X167384840Y-125506344D01*
X167480327Y-125340956D01*
X167539342Y-125159328D01*
X167559304Y-124969400D01*
X167539342Y-124779472D01*
X167480327Y-124597844D01*
X167442542Y-124532400D01*
X167425805Y-124463405D01*
X167442543Y-124406399D01*
X167455659Y-124383681D01*
X167480327Y-124340956D01*
X167539342Y-124159328D01*
X167559304Y-123969400D01*
X167554049Y-123919400D01*
X170132296Y-123919400D01*
X170152257Y-124109327D01*
X170181155Y-124198264D01*
X170211273Y-124290956D01*
X170222566Y-124310516D01*
X170306758Y-124456341D01*
X170306765Y-124456351D01*
X170434544Y-124598264D01*
X170434547Y-124598266D01*
X170589048Y-124710518D01*
X170763512Y-124788194D01*
X170950313Y-124827900D01*
X171141287Y-124827900D01*
X171328088Y-124788194D01*
X171502552Y-124710518D01*
X171657053Y-124598266D01*
X171767685Y-124475397D01*
X171784834Y-124456351D01*
X171784835Y-124456349D01*
X171784840Y-124456344D01*
X171880327Y-124290956D01*
X171917654Y-124176073D01*
X171957727Y-124117469D01*
X172011290Y-124091764D01*
X172028088Y-124088194D01*
X172202552Y-124010518D01*
X172357053Y-123898266D01*
X172357055Y-123898264D01*
X172484834Y-123756351D01*
X172484835Y-123756349D01*
X172484840Y-123756344D01*
X172580327Y-123590956D01*
X172617654Y-123476073D01*
X172657727Y-123417469D01*
X172711290Y-123391764D01*
X172728088Y-123388194D01*
X172902552Y-123310518D01*
X173057053Y-123198266D01*
X173062846Y-123191832D01*
X173184834Y-123056351D01*
X173184835Y-123056349D01*
X173184840Y-123056344D01*
X173280327Y-122890956D01*
X173282749Y-122883499D01*
X173322818Y-122824894D01*
X173376387Y-122799183D01*
X173428088Y-122788194D01*
X173602552Y-122710518D01*
X173757053Y-122598266D01*
X173757055Y-122598264D01*
X173884834Y-122456351D01*
X173884835Y-122456349D01*
X173884840Y-122456344D01*
X173980327Y-122290956D01*
X174039342Y-122109328D01*
X174059304Y-121919400D01*
X174039342Y-121729472D01*
X173980327Y-121547844D01*
X173884840Y-121382456D01*
X173884838Y-121382454D01*
X173884834Y-121382448D01*
X173757055Y-121240535D01*
X173602552Y-121128282D01*
X173428088Y-121050606D01*
X173241287Y-121010900D01*
X173050313Y-121010900D01*
X172863511Y-121050606D01*
X172689047Y-121128282D01*
X172534544Y-121240535D01*
X172406765Y-121382448D01*
X172406758Y-121382458D01*
X172311275Y-121547839D01*
X172308847Y-121555311D01*
X172268771Y-121613915D01*
X172215213Y-121639616D01*
X172163512Y-121650605D01*
X171989047Y-121728282D01*
X171834544Y-121840535D01*
X171706765Y-121982448D01*
X171706758Y-121982458D01*
X171611276Y-122147838D01*
X171611272Y-122147845D01*
X171573945Y-122262725D01*
X171533871Y-122321331D01*
X171480313Y-122347034D01*
X171463513Y-122350605D01*
X171289047Y-122428282D01*
X171134544Y-122540535D01*
X171006765Y-122682448D01*
X171006758Y-122682458D01*
X170911276Y-122847838D01*
X170911272Y-122847845D01*
X170873945Y-122962725D01*
X170833871Y-123021331D01*
X170780313Y-123047034D01*
X170763513Y-123050605D01*
X170589047Y-123128282D01*
X170434544Y-123240535D01*
X170306765Y-123382448D01*
X170306758Y-123382458D01*
X170211276Y-123547838D01*
X170211273Y-123547845D01*
X170152257Y-123729472D01*
X170132296Y-123919400D01*
X167554049Y-123919400D01*
X167539342Y-123779472D01*
X167483048Y-123606221D01*
X167481021Y-123535255D01*
X167493764Y-123504285D01*
X167530324Y-123440961D01*
X167530323Y-123440961D01*
X167530327Y-123440956D01*
X167589342Y-123259328D01*
X167603967Y-123120177D01*
X167630978Y-123054523D01*
X167689200Y-123013892D01*
X167760145Y-123011189D01*
X167777482Y-123016935D01*
X167779460Y-123017755D01*
X168029474Y-123077778D01*
X168285800Y-123097951D01*
X168542126Y-123077778D01*
X168792140Y-123017755D01*
X169029687Y-122919360D01*
X169248916Y-122785016D01*
X169444431Y-122618031D01*
X169611416Y-122422516D01*
X169745760Y-122203287D01*
X169844155Y-121965740D01*
X169904178Y-121715726D01*
X169924351Y-121459400D01*
X169904178Y-121203074D01*
X169844155Y-120953060D01*
X169745760Y-120715513D01*
X169611416Y-120496284D01*
X169578412Y-120457641D01*
X169444431Y-120300768D01*
X169248919Y-120133786D01*
X169248917Y-120133785D01*
X169248916Y-120133784D01*
X169029687Y-119999440D01*
X168792140Y-119901045D01*
X168792138Y-119901044D01*
X168621110Y-119859984D01*
X168542126Y-119841022D01*
X168285800Y-119820849D01*
X168029474Y-119841022D01*
X167779461Y-119901044D01*
X167541914Y-119999439D01*
X167322682Y-120133785D01*
X167322680Y-120133786D01*
X167127168Y-120300768D01*
X166960186Y-120496280D01*
X166960185Y-120496282D01*
X166825839Y-120715514D01*
X166727444Y-120953061D01*
X166704026Y-121050606D01*
X166667422Y-121203074D01*
X166647249Y-121459400D01*
X166667422Y-121715726D01*
X166670722Y-121729472D01*
X166727444Y-121965738D01*
X166727445Y-121965740D01*
X166736120Y-121986683D01*
X166743709Y-122057272D01*
X166711929Y-122120759D01*
X166650871Y-122156986D01*
X166619711Y-122160900D01*
X166600313Y-122160900D01*
X166413511Y-122200606D01*
X166239047Y-122278282D01*
X166084544Y-122390535D01*
X165956765Y-122532448D01*
X165956758Y-122532458D01*
X165861276Y-122697838D01*
X165861273Y-122697845D01*
X165802257Y-122879472D01*
X165782296Y-123069400D01*
X165802257Y-123259328D01*
X165858550Y-123432577D01*
X165860578Y-123503544D01*
X165847837Y-123534512D01*
X165811272Y-123597844D01*
X165811270Y-123597849D01*
X165752257Y-123779471D01*
X165732296Y-123969400D01*
X165238726Y-123969400D01*
X165242543Y-123956399D01*
X165247482Y-123947844D01*
X165280327Y-123890956D01*
X165339342Y-123709328D01*
X165359304Y-123519400D01*
X165339342Y-123329472D01*
X165280327Y-123147844D01*
X165280324Y-123147838D01*
X165280263Y-123147649D01*
X165278235Y-123076681D01*
X165290972Y-123045722D01*
X165380327Y-122890956D01*
X165439342Y-122709328D01*
X165459304Y-122519400D01*
X165439342Y-122329472D01*
X165380327Y-122147844D01*
X165284840Y-121982456D01*
X165284838Y-121982454D01*
X165284834Y-121982448D01*
X165157055Y-121840535D01*
X165002552Y-121728282D01*
X164910610Y-121687347D01*
X164856514Y-121641367D01*
X164835865Y-121573439D01*
X164836248Y-121562353D01*
X164844351Y-121459406D01*
X164844351Y-121459405D01*
X164844351Y-121459400D01*
X164824178Y-121203074D01*
X164764155Y-120953060D01*
X164665760Y-120715513D01*
X164531416Y-120496284D01*
X164498412Y-120457641D01*
X164364431Y-120300768D01*
X164168919Y-120133786D01*
X164168917Y-120133785D01*
X164168916Y-120133784D01*
X163949687Y-119999440D01*
X163712140Y-119901045D01*
X163712138Y-119901044D01*
X163541110Y-119859984D01*
X163462126Y-119841022D01*
X163205800Y-119820849D01*
X162949474Y-119841022D01*
X162699461Y-119901044D01*
X162461914Y-119999439D01*
X162242682Y-120133785D01*
X162242680Y-120133786D01*
X162047168Y-120300768D01*
X161880186Y-120496280D01*
X161880185Y-120496282D01*
X161745839Y-120715514D01*
X161647444Y-120953061D01*
X161624026Y-121050606D01*
X161587422Y-121203074D01*
X161567249Y-121459400D01*
X161587422Y-121715726D01*
X161590722Y-121729472D01*
X161647444Y-121965738D01*
X161726662Y-122156986D01*
X161745840Y-122203287D01*
X161860585Y-122390534D01*
X161880185Y-122422517D01*
X161880186Y-122422519D01*
X162047168Y-122618031D01*
X162242680Y-122785013D01*
X162242684Y-122785016D01*
X162461913Y-122919360D01*
X162699460Y-123017755D01*
X162949474Y-123077778D01*
X163205800Y-123097951D01*
X163450562Y-123078688D01*
X163520038Y-123093283D01*
X163570597Y-123143125D01*
X163586184Y-123212390D01*
X163580277Y-123243234D01*
X163552257Y-123329469D01*
X163532296Y-123519400D01*
X163552257Y-123709327D01*
X163582326Y-123801870D01*
X163611273Y-123890956D01*
X163611274Y-123890959D01*
X163649057Y-123956401D01*
X163665794Y-124025397D01*
X163649057Y-124082399D01*
X163611274Y-124147840D01*
X163611273Y-124147845D01*
X163552257Y-124329472D01*
X163532296Y-124519400D01*
X163552257Y-124709327D01*
X163565669Y-124750604D01*
X163611273Y-124890956D01*
X163611274Y-124890959D01*
X163649057Y-124956401D01*
X163665794Y-125025397D01*
X163649057Y-125082399D01*
X163611274Y-125147840D01*
X163611273Y-125147845D01*
X163552257Y-125329472D01*
X163532296Y-125519400D01*
X163552257Y-125709327D01*
X163577883Y-125788193D01*
X163611273Y-125890956D01*
X163611274Y-125890959D01*
X163649057Y-125956401D01*
X163665794Y-126025397D01*
X163649057Y-126082399D01*
X163611274Y-126147840D01*
X163611273Y-126147845D01*
X163552257Y-126329472D01*
X163532296Y-126519400D01*
X163552257Y-126709330D01*
X163553630Y-126715785D01*
X163551017Y-126716340D01*
X163552703Y-126775438D01*
X163516037Y-126836234D01*
X163452323Y-126867556D01*
X163430844Y-126869400D01*
X133779566Y-126869400D01*
X133711445Y-126849398D01*
X133664952Y-126795742D01*
X133654848Y-126725468D01*
X133670447Y-126680400D01*
X133680327Y-126663288D01*
X133739342Y-126481660D01*
X133759304Y-126291732D01*
X133739342Y-126101804D01*
X133680327Y-125920176D01*
X133584840Y-125754788D01*
X133584838Y-125754786D01*
X133584834Y-125754780D01*
X133457055Y-125612867D01*
X133302552Y-125500614D01*
X133128088Y-125422938D01*
X132941287Y-125383232D01*
X132750313Y-125383232D01*
X132563511Y-125422938D01*
X132389047Y-125500614D01*
X132234544Y-125612867D01*
X132106765Y-125754780D01*
X132106758Y-125754790D01*
X132011276Y-125920170D01*
X132011273Y-125920177D01*
X131952257Y-126101804D01*
X131932296Y-126291732D01*
X131349647Y-126291732D01*
X131380327Y-126238593D01*
X131439342Y-126056965D01*
X131459304Y-125867037D01*
X131439342Y-125677109D01*
X131380327Y-125495481D01*
X131284840Y-125330093D01*
X131284838Y-125330091D01*
X131284834Y-125330085D01*
X131157055Y-125188172D01*
X131002552Y-125075919D01*
X130828088Y-124998243D01*
X130641287Y-124958537D01*
X130450313Y-124958537D01*
X130263511Y-124998243D01*
X130089047Y-125075919D01*
X129934544Y-125188172D01*
X129806765Y-125330085D01*
X129806758Y-125330095D01*
X129733656Y-125456712D01*
X129711273Y-125495481D01*
X129707741Y-125506351D01*
X129661833Y-125647639D01*
X129621759Y-125706244D01*
X129568198Y-125731948D01*
X129538515Y-125738257D01*
X129364047Y-125815935D01*
X129209544Y-125928188D01*
X129081765Y-126070101D01*
X129081758Y-126070111D01*
X128986276Y-126235491D01*
X128986273Y-126235497D01*
X128982263Y-126247838D01*
X128927257Y-126417125D01*
X128907296Y-126607053D01*
X126858006Y-126607053D01*
X126839342Y-126429472D01*
X126780327Y-126247844D01*
X126684840Y-126082456D01*
X126684838Y-126082454D01*
X126684834Y-126082448D01*
X126557055Y-125940535D01*
X126402552Y-125828282D01*
X126228088Y-125750606D01*
X126041287Y-125710900D01*
X125850313Y-125710900D01*
X125663511Y-125750606D01*
X125489047Y-125828282D01*
X125334544Y-125940535D01*
X125206765Y-126082448D01*
X125206758Y-126082458D01*
X125111276Y-126247838D01*
X125111273Y-126247845D01*
X125052257Y-126429472D01*
X125032296Y-126619400D01*
X115746517Y-126619400D01*
X115746488Y-122619400D01*
X124832296Y-122619400D01*
X124852257Y-122809327D01*
X124871328Y-122868020D01*
X124911273Y-122990956D01*
X124922955Y-123011189D01*
X125006758Y-123156341D01*
X125006765Y-123156351D01*
X125134544Y-123298264D01*
X125134547Y-123298266D01*
X125289048Y-123410518D01*
X125463512Y-123488194D01*
X125650313Y-123527900D01*
X125841287Y-123527900D01*
X126028088Y-123488194D01*
X126202552Y-123410518D01*
X126357053Y-123298266D01*
X126425150Y-123222637D01*
X129434454Y-123222637D01*
X129454415Y-123412564D01*
X129480030Y-123491396D01*
X129513431Y-123594193D01*
X129513434Y-123594198D01*
X129608916Y-123759578D01*
X129608923Y-123759588D01*
X129736702Y-123901501D01*
X129736705Y-123901503D01*
X129891206Y-124013755D01*
X130065670Y-124091431D01*
X130252471Y-124131137D01*
X130443445Y-124131137D01*
X130630246Y-124091431D01*
X130804710Y-124013755D01*
X130959211Y-123901503D01*
X130962126Y-123898266D01*
X131086992Y-123759588D01*
X131086993Y-123759586D01*
X131086998Y-123759581D01*
X131167932Y-123619400D01*
X132932296Y-123619400D01*
X132952257Y-123809327D01*
X132978780Y-123890954D01*
X133011273Y-123990956D01*
X133027695Y-124019400D01*
X133106758Y-124156341D01*
X133106765Y-124156351D01*
X133234544Y-124298264D01*
X133293307Y-124340958D01*
X133389048Y-124410518D01*
X133563512Y-124488194D01*
X133750313Y-124527900D01*
X133941287Y-124527900D01*
X134128088Y-124488194D01*
X134302552Y-124410518D01*
X134457053Y-124298266D01*
X134457055Y-124298264D01*
X134584834Y-124156351D01*
X134584835Y-124156349D01*
X134584840Y-124156344D01*
X134680327Y-123990956D01*
X134739342Y-123809328D01*
X134759304Y-123619400D01*
X134739342Y-123429472D01*
X134680327Y-123247844D01*
X134584840Y-123082456D01*
X134584838Y-123082454D01*
X134584834Y-123082448D01*
X134457055Y-122940535D01*
X134302552Y-122828282D01*
X134128088Y-122750606D01*
X133941287Y-122710900D01*
X133750313Y-122710900D01*
X133563511Y-122750606D01*
X133389047Y-122828282D01*
X133234544Y-122940535D01*
X133106765Y-123082448D01*
X133106758Y-123082458D01*
X133011276Y-123247838D01*
X133011273Y-123247844D01*
X133004008Y-123270203D01*
X132952257Y-123429472D01*
X132932296Y-123619400D01*
X131167932Y-123619400D01*
X131182485Y-123594193D01*
X131241500Y-123412565D01*
X131261462Y-123222637D01*
X131241500Y-123032709D01*
X131182485Y-122851081D01*
X131086998Y-122685693D01*
X131086996Y-122685691D01*
X131086992Y-122685685D01*
X130959213Y-122543772D01*
X130804710Y-122431519D01*
X130630246Y-122353843D01*
X130443445Y-122314137D01*
X130252471Y-122314137D01*
X130065669Y-122353843D01*
X129891205Y-122431519D01*
X129736702Y-122543772D01*
X129608923Y-122685685D01*
X129608916Y-122685695D01*
X129513434Y-122851075D01*
X129513431Y-122851081D01*
X129504876Y-122877411D01*
X129454415Y-123032709D01*
X129434454Y-123222637D01*
X126425150Y-123222637D01*
X126434376Y-123212390D01*
X126484834Y-123156351D01*
X126484835Y-123156349D01*
X126484840Y-123156344D01*
X126580327Y-122990956D01*
X126639342Y-122809328D01*
X126659304Y-122619400D01*
X126639342Y-122429472D01*
X126580327Y-122247844D01*
X126484840Y-122082456D01*
X126484838Y-122082454D01*
X126484834Y-122082448D01*
X126357055Y-121940535D01*
X126202552Y-121828282D01*
X126028088Y-121750606D01*
X125841287Y-121710900D01*
X125650313Y-121710900D01*
X125463511Y-121750606D01*
X125289047Y-121828282D01*
X125134544Y-121940535D01*
X125006765Y-122082448D01*
X125006758Y-122082458D01*
X124911276Y-122247838D01*
X124911273Y-122247845D01*
X124852257Y-122429472D01*
X124832296Y-122619400D01*
X115746488Y-122619400D01*
X115746475Y-120790750D01*
X152917300Y-120790750D01*
X152917300Y-122588049D01*
X152923809Y-122648596D01*
X152923811Y-122648604D01*
X152974910Y-122785602D01*
X152974912Y-122785607D01*
X153062538Y-122902661D01*
X153179592Y-122990287D01*
X153179594Y-122990288D01*
X153179596Y-122990289D01*
X153237287Y-123011807D01*
X153316595Y-123041388D01*
X153316603Y-123041390D01*
X153377150Y-123047899D01*
X153377155Y-123047899D01*
X153377162Y-123047900D01*
X154095250Y-123047900D01*
X154163371Y-123067902D01*
X154209864Y-123121558D01*
X154219968Y-123191832D01*
X154213305Y-123217933D01*
X154193811Y-123270195D01*
X154193809Y-123270203D01*
X154187300Y-123330750D01*
X154187300Y-125128049D01*
X154193809Y-125188596D01*
X154193811Y-125188604D01*
X154244910Y-125325602D01*
X154244912Y-125325607D01*
X154332538Y-125442661D01*
X154449592Y-125530287D01*
X154449594Y-125530288D01*
X154449596Y-125530289D01*
X154508675Y-125552324D01*
X154586595Y-125581388D01*
X154586603Y-125581390D01*
X154647150Y-125587899D01*
X154647155Y-125587899D01*
X154647162Y-125587900D01*
X154647168Y-125587900D01*
X156444432Y-125587900D01*
X156444438Y-125587900D01*
X156444445Y-125587899D01*
X156444449Y-125587899D01*
X156504996Y-125581390D01*
X156504999Y-125581389D01*
X156505001Y-125581389D01*
X156642004Y-125530289D01*
X156740292Y-125456711D01*
X156806811Y-125431901D01*
X156876185Y-125446992D01*
X156891302Y-125456706D01*
X156957619Y-125506351D01*
X156989596Y-125530289D01*
X157126595Y-125581388D01*
X157126603Y-125581390D01*
X157187150Y-125587899D01*
X157187155Y-125587899D01*
X157187162Y-125587900D01*
X157187168Y-125587900D01*
X158984432Y-125587900D01*
X158984438Y-125587900D01*
X158984445Y-125587899D01*
X158984449Y-125587899D01*
X159044996Y-125581390D01*
X159044999Y-125581389D01*
X159045001Y-125581389D01*
X159182004Y-125530289D01*
X159213982Y-125506351D01*
X159299061Y-125442661D01*
X159386687Y-125325607D01*
X159386687Y-125325606D01*
X159386689Y-125325604D01*
X159437789Y-125188601D01*
X159437836Y-125188172D01*
X159444299Y-125128049D01*
X159444300Y-125128032D01*
X159444300Y-123330767D01*
X159444299Y-123330750D01*
X159437790Y-123270203D01*
X159437788Y-123270195D01*
X159418295Y-123217933D01*
X159413229Y-123147117D01*
X159447254Y-123084805D01*
X159509566Y-123050780D01*
X159536350Y-123047900D01*
X160544432Y-123047900D01*
X160544438Y-123047900D01*
X160544445Y-123047899D01*
X160544449Y-123047899D01*
X160604996Y-123041390D01*
X160604999Y-123041389D01*
X160605001Y-123041389D01*
X160742004Y-122990289D01*
X160752479Y-122982448D01*
X160859061Y-122902661D01*
X160946687Y-122785607D01*
X160946687Y-122785606D01*
X160946689Y-122785604D01*
X160997789Y-122648601D01*
X161000929Y-122619400D01*
X161004299Y-122588049D01*
X161004300Y-122588032D01*
X161004300Y-120790767D01*
X161004299Y-120790750D01*
X160997790Y-120730203D01*
X160997788Y-120730195D01*
X160946689Y-120593197D01*
X160946687Y-120593192D01*
X160859061Y-120476138D01*
X160742007Y-120388512D01*
X160742002Y-120388510D01*
X160605004Y-120337411D01*
X160604996Y-120337409D01*
X160544449Y-120330900D01*
X160544438Y-120330900D01*
X158747162Y-120330900D01*
X158747150Y-120330900D01*
X158686603Y-120337409D01*
X158686595Y-120337411D01*
X158549597Y-120388510D01*
X158549592Y-120388512D01*
X158432538Y-120476138D01*
X158344912Y-120593192D01*
X158344910Y-120593197D01*
X158293811Y-120730195D01*
X158293809Y-120730203D01*
X158287300Y-120790750D01*
X158287300Y-122588049D01*
X158293809Y-122648596D01*
X158293811Y-122648604D01*
X158313305Y-122700867D01*
X158318371Y-122771683D01*
X158284346Y-122833995D01*
X158222034Y-122868020D01*
X158195250Y-122870900D01*
X157187150Y-122870900D01*
X157126603Y-122877409D01*
X157126595Y-122877411D01*
X156989597Y-122928510D01*
X156989592Y-122928512D01*
X156891309Y-123002087D01*
X156824789Y-123026898D01*
X156755415Y-123011807D01*
X156740291Y-123002087D01*
X156642007Y-122928512D01*
X156642002Y-122928510D01*
X156505004Y-122877411D01*
X156504996Y-122877409D01*
X156444449Y-122870900D01*
X156444438Y-122870900D01*
X155726350Y-122870900D01*
X155658229Y-122850898D01*
X155611736Y-122797242D01*
X155601632Y-122726968D01*
X155608295Y-122700867D01*
X155627788Y-122648604D01*
X155627790Y-122648596D01*
X155634299Y-122588049D01*
X155634300Y-122588032D01*
X155634300Y-120790767D01*
X155634299Y-120790750D01*
X155627790Y-120730203D01*
X155627788Y-120730195D01*
X155576689Y-120593197D01*
X155576687Y-120593192D01*
X155489061Y-120476138D01*
X155372007Y-120388512D01*
X155372002Y-120388510D01*
X155235004Y-120337411D01*
X155234996Y-120337409D01*
X155174449Y-120330900D01*
X155174438Y-120330900D01*
X153377162Y-120330900D01*
X153377150Y-120330900D01*
X153316603Y-120337409D01*
X153316595Y-120337411D01*
X153179597Y-120388510D01*
X153179592Y-120388512D01*
X153062538Y-120476138D01*
X152974912Y-120593192D01*
X152974910Y-120593197D01*
X152923811Y-120730195D01*
X152923809Y-120730203D01*
X152917300Y-120790750D01*
X115746475Y-120790750D01*
X115746461Y-118919400D01*
X164207558Y-118919400D01*
X164226496Y-119160033D01*
X164282844Y-119394741D01*
X164282845Y-119394743D01*
X164375216Y-119617747D01*
X164501336Y-119823556D01*
X164658099Y-120007101D01*
X164841644Y-120163864D01*
X165047453Y-120289984D01*
X165270457Y-120382355D01*
X165505166Y-120438704D01*
X165745800Y-120457642D01*
X165986434Y-120438704D01*
X166221143Y-120382355D01*
X166444147Y-120289984D01*
X166649956Y-120163864D01*
X166833501Y-120007101D01*
X166990264Y-119823556D01*
X167116384Y-119617747D01*
X167208755Y-119394743D01*
X167265104Y-119160034D01*
X167284042Y-118919400D01*
X167265104Y-118678766D01*
X167208755Y-118444057D01*
X167116384Y-118221053D01*
X166990264Y-118015244D01*
X166833501Y-117831699D01*
X166649956Y-117674936D01*
X166444147Y-117548816D01*
X166221143Y-117456445D01*
X166221141Y-117456444D01*
X166060583Y-117417897D01*
X165986434Y-117400096D01*
X165745800Y-117381158D01*
X165505166Y-117400096D01*
X165270458Y-117456444D01*
X165047454Y-117548815D01*
X164841645Y-117674935D01*
X164658099Y-117831699D01*
X164501335Y-118015245D01*
X164375215Y-118221054D01*
X164282844Y-118444058D01*
X164226496Y-118678766D01*
X164207558Y-118919400D01*
X115746461Y-118919400D01*
X115746443Y-116419400D01*
X148732296Y-116419400D01*
X148752257Y-116609327D01*
X148760835Y-116635726D01*
X148811273Y-116790956D01*
X148811276Y-116790961D01*
X148906758Y-116956341D01*
X148906765Y-116956351D01*
X149034544Y-117098264D01*
X149068985Y-117123287D01*
X149189048Y-117210518D01*
X149363512Y-117288194D01*
X149550313Y-117327900D01*
X149741287Y-117327900D01*
X149928088Y-117288194D01*
X150004386Y-117254223D01*
X150074752Y-117244790D01*
X150129693Y-117267394D01*
X150189048Y-117310518D01*
X150363512Y-117388194D01*
X150550313Y-117427900D01*
X150741287Y-117427900D01*
X150928088Y-117388194D01*
X151102552Y-117310518D01*
X151257053Y-117198266D01*
X151257055Y-117198264D01*
X151384834Y-117056351D01*
X151384835Y-117056349D01*
X151384840Y-117056344D01*
X151480327Y-116890956D01*
X151539342Y-116709328D01*
X151549845Y-116609400D01*
X152912644Y-116609400D01*
X152927688Y-116790956D01*
X152931237Y-116833775D01*
X152986502Y-117052012D01*
X152986503Y-117052013D01*
X152986504Y-117052016D01*
X153056029Y-117210518D01*
X153076941Y-117258193D01*
X153200075Y-117446665D01*
X153200079Y-117446670D01*
X153352562Y-117612308D01*
X153407131Y-117654781D01*
X153530224Y-117750589D01*
X153728226Y-117857742D01*
X153728227Y-117857742D01*
X153728228Y-117857743D01*
X153840027Y-117896123D01*
X153941165Y-117930844D01*
X154163231Y-117967900D01*
X154163235Y-117967900D01*
X154388365Y-117967900D01*
X154388369Y-117967900D01*
X154610435Y-117930844D01*
X154823374Y-117857742D01*
X155021376Y-117750589D01*
X155199040Y-117612306D01*
X155351522Y-117446668D01*
X155474660Y-117258191D01*
X155565096Y-117052016D01*
X155620364Y-116833768D01*
X155638956Y-116609400D01*
X155620364Y-116385032D01*
X155565096Y-116166784D01*
X155474660Y-115960609D01*
X155467940Y-115950324D01*
X155351524Y-115772134D01*
X155351520Y-115772129D01*
X155229183Y-115639238D01*
X155197762Y-115575573D01*
X155205748Y-115505027D01*
X155250607Y-115449998D01*
X155318096Y-115427957D01*
X155321884Y-115427900D01*
X156444432Y-115427900D01*
X156444438Y-115427900D01*
X156444445Y-115427899D01*
X156444449Y-115427899D01*
X156504996Y-115421390D01*
X156504999Y-115421389D01*
X156505001Y-115421389D01*
X156642004Y-115370289D01*
X156740292Y-115296711D01*
X156806811Y-115271901D01*
X156876185Y-115286992D01*
X156891302Y-115296706D01*
X156977262Y-115361056D01*
X156989596Y-115370289D01*
X157126595Y-115421388D01*
X157126603Y-115421390D01*
X157187150Y-115427899D01*
X157187155Y-115427899D01*
X157187162Y-115427900D01*
X158599716Y-115427900D01*
X158667837Y-115447902D01*
X158714330Y-115501558D01*
X158724434Y-115571832D01*
X158694940Y-115636412D01*
X158692417Y-115639238D01*
X158570079Y-115772129D01*
X158570075Y-115772134D01*
X158446941Y-115960606D01*
X158356503Y-116166786D01*
X158356502Y-116166787D01*
X158301237Y-116385024D01*
X158301236Y-116385030D01*
X158301236Y-116385032D01*
X158282644Y-116609400D01*
X158297688Y-116790956D01*
X158301237Y-116833775D01*
X158356502Y-117052012D01*
X158356503Y-117052013D01*
X158356504Y-117052016D01*
X158426029Y-117210518D01*
X158446941Y-117258193D01*
X158570075Y-117446665D01*
X158570079Y-117446670D01*
X158722562Y-117612308D01*
X158777131Y-117654781D01*
X158900224Y-117750589D01*
X159098226Y-117857742D01*
X159098227Y-117857742D01*
X159098228Y-117857743D01*
X159210027Y-117896123D01*
X159311165Y-117930844D01*
X159533231Y-117967900D01*
X159533235Y-117967900D01*
X159758365Y-117967900D01*
X159758369Y-117967900D01*
X159980435Y-117930844D01*
X160193374Y-117857742D01*
X160391376Y-117750589D01*
X160569040Y-117612306D01*
X160721522Y-117446668D01*
X160844660Y-117258191D01*
X160935096Y-117052016D01*
X160990364Y-116833768D01*
X161008956Y-116609400D01*
X160990364Y-116385032D01*
X160988938Y-116379400D01*
X161567249Y-116379400D01*
X161585344Y-116609328D01*
X161587422Y-116635725D01*
X161647444Y-116885738D01*
X161716319Y-117052016D01*
X161745840Y-117123287D01*
X161871227Y-117327900D01*
X161880185Y-117342517D01*
X161880186Y-117342519D01*
X162047168Y-117538031D01*
X162242680Y-117705013D01*
X162242684Y-117705016D01*
X162461913Y-117839360D01*
X162699460Y-117937755D01*
X162949474Y-117997778D01*
X163205800Y-118017951D01*
X163462126Y-117997778D01*
X163712140Y-117937755D01*
X163949687Y-117839360D01*
X164168916Y-117705016D01*
X164364431Y-117538031D01*
X164531416Y-117342516D01*
X164665760Y-117123287D01*
X164764155Y-116885740D01*
X164824178Y-116635726D01*
X164844351Y-116379400D01*
X166647249Y-116379400D01*
X166665344Y-116609328D01*
X166667422Y-116635725D01*
X166727444Y-116885738D01*
X166796319Y-117052016D01*
X166825840Y-117123287D01*
X166951227Y-117327900D01*
X166960185Y-117342517D01*
X166960186Y-117342519D01*
X167127168Y-117538031D01*
X167322680Y-117705013D01*
X167322684Y-117705016D01*
X167541913Y-117839360D01*
X167779460Y-117937755D01*
X168029474Y-117997778D01*
X168285800Y-118017951D01*
X168542126Y-117997778D01*
X168792140Y-117937755D01*
X169029687Y-117839360D01*
X169248916Y-117705016D01*
X169444431Y-117538031D01*
X169611416Y-117342516D01*
X169745760Y-117123287D01*
X169844155Y-116885740D01*
X169904178Y-116635726D01*
X169924351Y-116379400D01*
X169904178Y-116123074D01*
X169844155Y-115873060D01*
X169745760Y-115635513D01*
X169611416Y-115416284D01*
X169600032Y-115402955D01*
X169444431Y-115220768D01*
X169248919Y-115053786D01*
X169248917Y-115053785D01*
X169248916Y-115053784D01*
X169029687Y-114919440D01*
X169007863Y-114910400D01*
X168792138Y-114821044D01*
X168621110Y-114779984D01*
X168542126Y-114761022D01*
X168285800Y-114740849D01*
X168029474Y-114761022D01*
X167779461Y-114821044D01*
X167541914Y-114919439D01*
X167322682Y-115053785D01*
X167322680Y-115053786D01*
X167127168Y-115220768D01*
X166960186Y-115416280D01*
X166960185Y-115416282D01*
X166825839Y-115635514D01*
X166727444Y-115873061D01*
X166685483Y-116047844D01*
X166667422Y-116123074D01*
X166647249Y-116379400D01*
X164844351Y-116379400D01*
X164824178Y-116123074D01*
X164764155Y-115873060D01*
X164665760Y-115635513D01*
X164531416Y-115416284D01*
X164520032Y-115402955D01*
X164364431Y-115220768D01*
X164168919Y-115053786D01*
X164168917Y-115053785D01*
X164168916Y-115053784D01*
X163949687Y-114919440D01*
X163927863Y-114910400D01*
X163712138Y-114821044D01*
X163541110Y-114779984D01*
X163462126Y-114761022D01*
X163205800Y-114740849D01*
X162949474Y-114761022D01*
X162699461Y-114821044D01*
X162461914Y-114919439D01*
X162242682Y-115053785D01*
X162242680Y-115053786D01*
X162047168Y-115220768D01*
X161880186Y-115416280D01*
X161880185Y-115416282D01*
X161745839Y-115635514D01*
X161647444Y-115873061D01*
X161605483Y-116047844D01*
X161587422Y-116123074D01*
X161567249Y-116379400D01*
X160988938Y-116379400D01*
X160935096Y-116166784D01*
X160844660Y-115960609D01*
X160837940Y-115950324D01*
X160721524Y-115772134D01*
X160721520Y-115772129D01*
X160569037Y-115606491D01*
X160446222Y-115510900D01*
X160391376Y-115468211D01*
X160193374Y-115361058D01*
X160193372Y-115361057D01*
X160193371Y-115361056D01*
X159980439Y-115287957D01*
X159980430Y-115287955D01*
X159936276Y-115280587D01*
X159758369Y-115250900D01*
X159536350Y-115250900D01*
X159468229Y-115230898D01*
X159421736Y-115177242D01*
X159411632Y-115106968D01*
X159418295Y-115080867D01*
X159437788Y-115028604D01*
X159437790Y-115028596D01*
X159444299Y-114968049D01*
X159444300Y-114968032D01*
X159444300Y-113170767D01*
X159444299Y-113170750D01*
X159437790Y-113110203D01*
X159437788Y-113110195D01*
X159386689Y-112973197D01*
X159386687Y-112973192D01*
X159299061Y-112856138D01*
X159182007Y-112768512D01*
X159182002Y-112768510D01*
X159045004Y-112717411D01*
X159044996Y-112717409D01*
X158984449Y-112710900D01*
X158984438Y-112710900D01*
X157187162Y-112710900D01*
X157187150Y-112710900D01*
X157126603Y-112717409D01*
X157126595Y-112717411D01*
X156989597Y-112768510D01*
X156989592Y-112768512D01*
X156891309Y-112842087D01*
X156824789Y-112866898D01*
X156755415Y-112851807D01*
X156740291Y-112842087D01*
X156642007Y-112768512D01*
X156642002Y-112768510D01*
X156505004Y-112717411D01*
X156504996Y-112717409D01*
X156444449Y-112710900D01*
X156444438Y-112710900D01*
X154647162Y-112710900D01*
X154647150Y-112710900D01*
X154586603Y-112717409D01*
X154586595Y-112717411D01*
X154449597Y-112768510D01*
X154449592Y-112768512D01*
X154332538Y-112856138D01*
X154244912Y-112973192D01*
X154244910Y-112973197D01*
X154193811Y-113110195D01*
X154193809Y-113110203D01*
X154187300Y-113170750D01*
X154187300Y-114968049D01*
X154193809Y-115028596D01*
X154193810Y-115028599D01*
X154216677Y-115089907D01*
X154221741Y-115160722D01*
X154187716Y-115223035D01*
X154125404Y-115257060D01*
X154119370Y-115258218D01*
X154067092Y-115266942D01*
X153941167Y-115287955D01*
X153941160Y-115287957D01*
X153728228Y-115361056D01*
X153728226Y-115361058D01*
X153604713Y-115427900D01*
X153530226Y-115468210D01*
X153530224Y-115468211D01*
X153352562Y-115606491D01*
X153200079Y-115772129D01*
X153200075Y-115772134D01*
X153076941Y-115960606D01*
X152986503Y-116166786D01*
X152986502Y-116166787D01*
X152931237Y-116385024D01*
X152931236Y-116385030D01*
X152931236Y-116385032D01*
X152912644Y-116609400D01*
X151549845Y-116609400D01*
X151559304Y-116519400D01*
X151539342Y-116329472D01*
X151480327Y-116147844D01*
X151384840Y-115982456D01*
X151384838Y-115982454D01*
X151384834Y-115982448D01*
X151257055Y-115840535D01*
X151102552Y-115728282D01*
X150928088Y-115650606D01*
X150741287Y-115610900D01*
X150550313Y-115610900D01*
X150363509Y-115650606D01*
X150287213Y-115684575D01*
X150216845Y-115694009D01*
X150161903Y-115671403D01*
X150102556Y-115628284D01*
X149975762Y-115571832D01*
X149928088Y-115550606D01*
X149741287Y-115510900D01*
X149550313Y-115510900D01*
X149363511Y-115550606D01*
X149189047Y-115628282D01*
X149034544Y-115740535D01*
X148906765Y-115882448D01*
X148906758Y-115882458D01*
X148811276Y-116047838D01*
X148811273Y-116047845D01*
X148752257Y-116229472D01*
X148732296Y-116419400D01*
X115746443Y-116419400D01*
X115746413Y-112239400D01*
X123612244Y-112239400D01*
X123632449Y-112599200D01*
X123692813Y-112954476D01*
X123792579Y-113300774D01*
X123909775Y-113583710D01*
X123930486Y-113633710D01*
X123930493Y-113633722D01*
X124104799Y-113949107D01*
X124104801Y-113949110D01*
X124104804Y-113949115D01*
X124313341Y-114243019D01*
X124553473Y-114511727D01*
X124822181Y-114751859D01*
X125116085Y-114960396D01*
X125431490Y-115134714D01*
X125764430Y-115272622D01*
X126110717Y-115372385D01*
X126465996Y-115432750D01*
X126825800Y-115452956D01*
X127185604Y-115432750D01*
X127540883Y-115372385D01*
X127887170Y-115272622D01*
X128220110Y-115134714D01*
X128535515Y-114960396D01*
X128829419Y-114751859D01*
X129098127Y-114511727D01*
X129338259Y-114243019D01*
X129546796Y-113949115D01*
X129721114Y-113633710D01*
X129769719Y-113516366D01*
X147021112Y-113516366D01*
X147041073Y-113706293D01*
X147071142Y-113798836D01*
X147100089Y-113887922D01*
X147100092Y-113887927D01*
X147195574Y-114053307D01*
X147195581Y-114053317D01*
X147323360Y-114195230D01*
X147323363Y-114195232D01*
X147477864Y-114307484D01*
X147652328Y-114385160D01*
X147674277Y-114389825D01*
X147736751Y-114423551D01*
X147767916Y-114474135D01*
X147807198Y-114595031D01*
X147807201Y-114595036D01*
X147902683Y-114760416D01*
X147902690Y-114760426D01*
X148030469Y-114902339D01*
X148030472Y-114902341D01*
X148184973Y-115014593D01*
X148359437Y-115092269D01*
X148546238Y-115131975D01*
X148737212Y-115131975D01*
X148924013Y-115092269D01*
X149098477Y-115014593D01*
X149252978Y-114902341D01*
X149380765Y-114760419D01*
X149476252Y-114595031D01*
X149535267Y-114413403D01*
X149555229Y-114223475D01*
X149535267Y-114033547D01*
X149476252Y-113851919D01*
X149380765Y-113686531D01*
X149380763Y-113686529D01*
X149380759Y-113686523D01*
X149252980Y-113544610D01*
X149098477Y-113432357D01*
X149088466Y-113427900D01*
X148924013Y-113354681D01*
X148924011Y-113354680D01*
X148924010Y-113354680D01*
X148902057Y-113350013D01*
X148839584Y-113316283D01*
X148808424Y-113265704D01*
X148803573Y-113250774D01*
X148769143Y-113144810D01*
X148673656Y-112979422D01*
X148673654Y-112979420D01*
X148673650Y-112979414D01*
X148545871Y-112837501D01*
X148391368Y-112725248D01*
X148216904Y-112647572D01*
X148030103Y-112607866D01*
X147839129Y-112607866D01*
X147652327Y-112647572D01*
X147477863Y-112725248D01*
X147323360Y-112837501D01*
X147195581Y-112979414D01*
X147195574Y-112979424D01*
X147100092Y-113144804D01*
X147100089Y-113144811D01*
X147041073Y-113326438D01*
X147021112Y-113516366D01*
X129769719Y-113516366D01*
X129859022Y-113300770D01*
X129958785Y-112954483D01*
X130019150Y-112599204D01*
X130039356Y-112239400D01*
X130019150Y-111879596D01*
X129958785Y-111524317D01*
X129859022Y-111178030D01*
X129721114Y-110845090D01*
X129546796Y-110529685D01*
X129447258Y-110389400D01*
X146884296Y-110389400D01*
X146904257Y-110579327D01*
X146934326Y-110671870D01*
X146963273Y-110760956D01*
X146963276Y-110760961D01*
X147058758Y-110926341D01*
X147058765Y-110926351D01*
X147186544Y-111068264D01*
X147199807Y-111077900D01*
X147341048Y-111180518D01*
X147515512Y-111258194D01*
X147702313Y-111297900D01*
X147742536Y-111297900D01*
X147810657Y-111317902D01*
X147851655Y-111360900D01*
X147906758Y-111456341D01*
X147906765Y-111456351D01*
X148034544Y-111598264D01*
X148034547Y-111598266D01*
X148189048Y-111710518D01*
X148363512Y-111788194D01*
X148550313Y-111827900D01*
X148734256Y-111827900D01*
X148802377Y-111847902D01*
X148848870Y-111901558D01*
X148854088Y-111914962D01*
X148911273Y-112090956D01*
X148911276Y-112090961D01*
X149006758Y-112256341D01*
X149006765Y-112256351D01*
X149134544Y-112398264D01*
X149134547Y-112398266D01*
X149289048Y-112510518D01*
X149463512Y-112588194D01*
X149463524Y-112588196D01*
X149464382Y-112588476D01*
X149464823Y-112588777D01*
X149469545Y-112590880D01*
X149469160Y-112591743D01*
X149522991Y-112628544D01*
X149550634Y-112693938D01*
X149550766Y-112695138D01*
X149552257Y-112709327D01*
X149552258Y-112709329D01*
X149554884Y-112717411D01*
X149611273Y-112890956D01*
X149611276Y-112890961D01*
X149706758Y-113056341D01*
X149706765Y-113056351D01*
X149834544Y-113198264D01*
X149834547Y-113198266D01*
X149989048Y-113310518D01*
X150163512Y-113388194D01*
X150350313Y-113427900D01*
X150541287Y-113427900D01*
X150728088Y-113388194D01*
X150902552Y-113310518D01*
X151057053Y-113198266D01*
X151081818Y-113170762D01*
X151184834Y-113056351D01*
X151184835Y-113056349D01*
X151184840Y-113056344D01*
X151280327Y-112890956D01*
X151339342Y-112709328D01*
X151359304Y-112519400D01*
X151339342Y-112329472D01*
X151293829Y-112189400D01*
X201592244Y-112189400D01*
X201612449Y-112549200D01*
X201672813Y-112904476D01*
X201772579Y-113250774D01*
X201894290Y-113544610D01*
X201910486Y-113583710D01*
X201910493Y-113583722D01*
X202084799Y-113899107D01*
X202084801Y-113899110D01*
X202084804Y-113899115D01*
X202293341Y-114193019D01*
X202533473Y-114461727D01*
X202802181Y-114701859D01*
X203096085Y-114910396D01*
X203411490Y-115084714D01*
X203532182Y-115134706D01*
X203706391Y-115206866D01*
X203744430Y-115222622D01*
X204090717Y-115322385D01*
X204445996Y-115382750D01*
X204805800Y-115402956D01*
X205165604Y-115382750D01*
X205520883Y-115322385D01*
X205867170Y-115222622D01*
X206200110Y-115084714D01*
X206515515Y-114910396D01*
X206809419Y-114701859D01*
X207078127Y-114461727D01*
X207318259Y-114193019D01*
X207526796Y-113899115D01*
X207701114Y-113583710D01*
X207839022Y-113250770D01*
X207938785Y-112904483D01*
X207999150Y-112549204D01*
X208019356Y-112189400D01*
X207999150Y-111829596D01*
X207938785Y-111474317D01*
X207839022Y-111128030D01*
X207701114Y-110795090D01*
X207526796Y-110479685D01*
X207318259Y-110185781D01*
X207078127Y-109917073D01*
X206809419Y-109676941D01*
X206515515Y-109468404D01*
X206515510Y-109468401D01*
X206515507Y-109468399D01*
X206290569Y-109344081D01*
X206200110Y-109294086D01*
X206200103Y-109294083D01*
X206200099Y-109294081D01*
X205867174Y-109156179D01*
X205520876Y-109056413D01*
X205165600Y-108996049D01*
X204805800Y-108975844D01*
X204445999Y-108996049D01*
X204090723Y-109056413D01*
X203744425Y-109156179D01*
X203411500Y-109294081D01*
X203411477Y-109294093D01*
X203096092Y-109468399D01*
X202802177Y-109676944D01*
X202533473Y-109917073D01*
X202293344Y-110185777D01*
X202293341Y-110185780D01*
X202293341Y-110185781D01*
X202254491Y-110240535D01*
X202084799Y-110479692D01*
X201910493Y-110795077D01*
X201910481Y-110795100D01*
X201772579Y-111128025D01*
X201672813Y-111474323D01*
X201612449Y-111829599D01*
X201592244Y-112189400D01*
X151293829Y-112189400D01*
X151280327Y-112147844D01*
X151184840Y-111982456D01*
X151184838Y-111982454D01*
X151184834Y-111982448D01*
X151057055Y-111840535D01*
X150902552Y-111728282D01*
X150728081Y-111650603D01*
X150727207Y-111650319D01*
X150726766Y-111650017D01*
X150722055Y-111647920D01*
X150722438Y-111647058D01*
X150668601Y-111610246D01*
X150640963Y-111544850D01*
X150640832Y-111543651D01*
X150639342Y-111529476D01*
X150639342Y-111529472D01*
X150580327Y-111347844D01*
X150484840Y-111182456D01*
X150484838Y-111182454D01*
X150484834Y-111182448D01*
X150366990Y-111051569D01*
X152264465Y-111051569D01*
X152284426Y-111241496D01*
X152309253Y-111317902D01*
X152343442Y-111423125D01*
X152343445Y-111423130D01*
X152438927Y-111588510D01*
X152438934Y-111588520D01*
X152566713Y-111730433D01*
X152602386Y-111756351D01*
X152721217Y-111842687D01*
X152895681Y-111920363D01*
X153082482Y-111960069D01*
X153273456Y-111960069D01*
X153460257Y-111920363D01*
X153634721Y-111842687D01*
X153789222Y-111730435D01*
X153791161Y-111728282D01*
X153917003Y-111588520D01*
X153917004Y-111588518D01*
X153917009Y-111588513D01*
X154012496Y-111423125D01*
X154071511Y-111241497D01*
X154073833Y-111219400D01*
X161632296Y-111219400D01*
X161652257Y-111409327D01*
X161673374Y-111474317D01*
X161711273Y-111590956D01*
X161722410Y-111610246D01*
X161806758Y-111756341D01*
X161806765Y-111756351D01*
X161934544Y-111898264D01*
X161934547Y-111898266D01*
X162089048Y-112010518D01*
X162263512Y-112088194D01*
X162450313Y-112127900D01*
X162641287Y-112127900D01*
X162828088Y-112088194D01*
X163002552Y-112010518D01*
X163157053Y-111898266D01*
X163207097Y-111842687D01*
X163284834Y-111756351D01*
X163284835Y-111756349D01*
X163284840Y-111756344D01*
X163380327Y-111590956D01*
X163439342Y-111409328D01*
X163459304Y-111219400D01*
X163439342Y-111029472D01*
X163380327Y-110847844D01*
X163284840Y-110682456D01*
X163284838Y-110682454D01*
X163284834Y-110682448D01*
X163157055Y-110540535D01*
X163002552Y-110428282D01*
X162828088Y-110350606D01*
X162641287Y-110310900D01*
X162450313Y-110310900D01*
X162263511Y-110350606D01*
X162089047Y-110428282D01*
X161934544Y-110540535D01*
X161806765Y-110682448D01*
X161806758Y-110682458D01*
X161711276Y-110847838D01*
X161711273Y-110847845D01*
X161652257Y-111029472D01*
X161632296Y-111219400D01*
X154073833Y-111219400D01*
X154091473Y-111051569D01*
X154081262Y-110954416D01*
X154094034Y-110884578D01*
X154142536Y-110832731D01*
X154211369Y-110815337D01*
X154278679Y-110837919D01*
X154307440Y-110865737D01*
X154357538Y-110932661D01*
X154474592Y-111020287D01*
X154474594Y-111020288D01*
X154474596Y-111020289D01*
X154528874Y-111040534D01*
X154611595Y-111071388D01*
X154611603Y-111071390D01*
X154672150Y-111077899D01*
X154672155Y-111077899D01*
X154672162Y-111077900D01*
X154672168Y-111077900D01*
X156469432Y-111077900D01*
X156469438Y-111077900D01*
X156469445Y-111077899D01*
X156469449Y-111077899D01*
X156529996Y-111071390D01*
X156529999Y-111071389D01*
X156530001Y-111071389D01*
X156538380Y-111068264D01*
X156548845Y-111064360D01*
X156667004Y-111020289D01*
X156737199Y-110967742D01*
X156784061Y-110932661D01*
X156871686Y-110815608D01*
X156871685Y-110815608D01*
X156871689Y-110815604D01*
X156915799Y-110697339D01*
X156958345Y-110640507D01*
X157024866Y-110615696D01*
X157094240Y-110630788D01*
X157126553Y-110656035D01*
X157150877Y-110682458D01*
X157187562Y-110722308D01*
X157237214Y-110760954D01*
X157365224Y-110860589D01*
X157563226Y-110967742D01*
X157563227Y-110967742D01*
X157563228Y-110967743D01*
X157675027Y-111006123D01*
X157776165Y-111040844D01*
X157998231Y-111077900D01*
X157998235Y-111077900D01*
X158223365Y-111077900D01*
X158223369Y-111077900D01*
X158445435Y-111040844D01*
X158658374Y-110967742D01*
X158856376Y-110860589D01*
X159034040Y-110722306D01*
X159186522Y-110556668D01*
X159309660Y-110368191D01*
X159400096Y-110162016D01*
X159455364Y-109943768D01*
X159473956Y-109719400D01*
X159455364Y-109495032D01*
X159404479Y-109294093D01*
X159400097Y-109276787D01*
X159400096Y-109276786D01*
X159400096Y-109276784D01*
X159309660Y-109070609D01*
X159247747Y-108975844D01*
X159186524Y-108882134D01*
X159186520Y-108882129D01*
X159034037Y-108716491D01*
X158952182Y-108652781D01*
X158856376Y-108578211D01*
X158658374Y-108471058D01*
X158658372Y-108471057D01*
X158658371Y-108471056D01*
X158445439Y-108397957D01*
X158445430Y-108397955D01*
X158401276Y-108390587D01*
X158223369Y-108360900D01*
X157998231Y-108360900D01*
X157850011Y-108385633D01*
X157776169Y-108397955D01*
X157776160Y-108397957D01*
X157563228Y-108471056D01*
X157563226Y-108471058D01*
X157365226Y-108578210D01*
X157365224Y-108578211D01*
X157187562Y-108716491D01*
X157126554Y-108782763D01*
X157065701Y-108819333D01*
X156994736Y-108817198D01*
X156936191Y-108777036D01*
X156915799Y-108741457D01*
X156891065Y-108675144D01*
X156871689Y-108623196D01*
X156871688Y-108623194D01*
X156871687Y-108623192D01*
X156784061Y-108506138D01*
X156667007Y-108418512D01*
X156667002Y-108418510D01*
X156530004Y-108367411D01*
X156529996Y-108367409D01*
X156469449Y-108360900D01*
X156469438Y-108360900D01*
X154672162Y-108360900D01*
X154672150Y-108360900D01*
X154611603Y-108367409D01*
X154611595Y-108367411D01*
X154474597Y-108418510D01*
X154474592Y-108418512D01*
X154357538Y-108506138D01*
X154269912Y-108623192D01*
X154269910Y-108623197D01*
X154218811Y-108760195D01*
X154218809Y-108760203D01*
X154212300Y-108820750D01*
X154212300Y-110555845D01*
X154192298Y-110623966D01*
X154138642Y-110670459D01*
X154068368Y-110680563D01*
X154003788Y-110651069D01*
X153977181Y-110618846D01*
X153917009Y-110514625D01*
X153917005Y-110514620D01*
X153917003Y-110514617D01*
X153789224Y-110372704D01*
X153634721Y-110260451D01*
X153460257Y-110182775D01*
X153273456Y-110143069D01*
X153082482Y-110143069D01*
X152895680Y-110182775D01*
X152721216Y-110260451D01*
X152566713Y-110372704D01*
X152438934Y-110514617D01*
X152438927Y-110514627D01*
X152348958Y-110670459D01*
X152343442Y-110680013D01*
X152329700Y-110722306D01*
X152284426Y-110861641D01*
X152264465Y-111051569D01*
X150366990Y-111051569D01*
X150357055Y-111040535D01*
X150202552Y-110928282D01*
X150028088Y-110850606D01*
X149841287Y-110810900D01*
X149657344Y-110810900D01*
X149589223Y-110790898D01*
X149542730Y-110737242D01*
X149537511Y-110723837D01*
X149524065Y-110682456D01*
X149480327Y-110547844D01*
X149384840Y-110382456D01*
X149384838Y-110382454D01*
X149384834Y-110382448D01*
X149257055Y-110240535D01*
X149102552Y-110128282D01*
X148928088Y-110050606D01*
X148741287Y-110010900D01*
X148701064Y-110010900D01*
X148632943Y-109990898D01*
X148591945Y-109947900D01*
X148536841Y-109852458D01*
X148536834Y-109852448D01*
X148409055Y-109710535D01*
X148254552Y-109598282D01*
X148080088Y-109520606D01*
X147893287Y-109480900D01*
X147702313Y-109480900D01*
X147515511Y-109520606D01*
X147341047Y-109598282D01*
X147186544Y-109710535D01*
X147058765Y-109852448D01*
X147058758Y-109852458D01*
X146963276Y-110017838D01*
X146963273Y-110017845D01*
X146904257Y-110199472D01*
X146884296Y-110389400D01*
X129447258Y-110389400D01*
X129338259Y-110235781D01*
X129098127Y-109967073D01*
X128829419Y-109726941D01*
X128535515Y-109518404D01*
X128535510Y-109518401D01*
X128535507Y-109518399D01*
X128342703Y-109411841D01*
X128220110Y-109344086D01*
X128220103Y-109344083D01*
X128220099Y-109344081D01*
X127887174Y-109206179D01*
X127540876Y-109106413D01*
X127185600Y-109046049D01*
X126825800Y-109025844D01*
X126465999Y-109046049D01*
X126110723Y-109106413D01*
X125764425Y-109206179D01*
X125431500Y-109344081D01*
X125431477Y-109344093D01*
X125116092Y-109518399D01*
X125116085Y-109518404D01*
X124845305Y-109710534D01*
X124822177Y-109726944D01*
X124553473Y-109967073D01*
X124313344Y-110235777D01*
X124313341Y-110235780D01*
X124313341Y-110235781D01*
X124209275Y-110382448D01*
X124104799Y-110529692D01*
X123930493Y-110845077D01*
X123930481Y-110845100D01*
X123792579Y-111178025D01*
X123692813Y-111524323D01*
X123632449Y-111879599D01*
X123612244Y-112239400D01*
X115746413Y-112239400D01*
X115746374Y-106919553D01*
X163032143Y-106919553D01*
X163052104Y-107109480D01*
X163075816Y-107182456D01*
X163111120Y-107291109D01*
X163111123Y-107291114D01*
X163206605Y-107456494D01*
X163206612Y-107456504D01*
X163334391Y-107598417D01*
X163334394Y-107598419D01*
X163488895Y-107710671D01*
X163663359Y-107788347D01*
X163850160Y-107828053D01*
X164041134Y-107828053D01*
X164227935Y-107788347D01*
X164382793Y-107719400D01*
X167132296Y-107719400D01*
X167152257Y-107909327D01*
X167182326Y-108001870D01*
X167211273Y-108090956D01*
X167211276Y-108090961D01*
X167306758Y-108256341D01*
X167306765Y-108256351D01*
X167434544Y-108398264D01*
X167434547Y-108398266D01*
X167589048Y-108510518D01*
X167763512Y-108588194D01*
X167950313Y-108627900D01*
X168141287Y-108627900D01*
X168328088Y-108588194D01*
X168502552Y-108510518D01*
X168657053Y-108398266D01*
X168684837Y-108367409D01*
X168784834Y-108256351D01*
X168784835Y-108256349D01*
X168784840Y-108256344D01*
X168880327Y-108090956D01*
X168939342Y-107909328D01*
X168959304Y-107719400D01*
X168939342Y-107529472D01*
X168880327Y-107347844D01*
X168784840Y-107182456D01*
X168784838Y-107182454D01*
X168784834Y-107182448D01*
X168657055Y-107040535D01*
X168502552Y-106928282D01*
X168328088Y-106850606D01*
X168141287Y-106810900D01*
X167950313Y-106810900D01*
X167763511Y-106850606D01*
X167589047Y-106928282D01*
X167434544Y-107040535D01*
X167306765Y-107182448D01*
X167306758Y-107182458D01*
X167211276Y-107347838D01*
X167211273Y-107347845D01*
X167152257Y-107529472D01*
X167132296Y-107719400D01*
X164382793Y-107719400D01*
X164402399Y-107710671D01*
X164556900Y-107598419D01*
X164684687Y-107456497D01*
X164780174Y-107291109D01*
X164839189Y-107109481D01*
X164859151Y-106919553D01*
X164839189Y-106729625D01*
X164780174Y-106547997D01*
X164763663Y-106519400D01*
X173332296Y-106519400D01*
X173352257Y-106709327D01*
X173381706Y-106799958D01*
X173411273Y-106890956D01*
X173427784Y-106919553D01*
X173506758Y-107056341D01*
X173506765Y-107056351D01*
X173634544Y-107198264D01*
X173634547Y-107198266D01*
X173789048Y-107310518D01*
X173963512Y-107388194D01*
X174150313Y-107427900D01*
X174341287Y-107427900D01*
X174528088Y-107388194D01*
X174702552Y-107310518D01*
X174857053Y-107198266D01*
X174857055Y-107198264D01*
X174984834Y-107056351D01*
X174984835Y-107056349D01*
X174984840Y-107056344D01*
X175080327Y-106890956D01*
X175109894Y-106799957D01*
X175149968Y-106741352D01*
X175215364Y-106713715D01*
X175285321Y-106725822D01*
X175337627Y-106773828D01*
X175349284Y-106803350D01*
X175350217Y-106803047D01*
X175352258Y-106809327D01*
X175352258Y-106809328D01*
X175411273Y-106990956D01*
X175411276Y-106990961D01*
X175506758Y-107156341D01*
X175506765Y-107156351D01*
X175634544Y-107298264D01*
X175634547Y-107298266D01*
X175789048Y-107410518D01*
X175963512Y-107488194D01*
X176150313Y-107527900D01*
X176341287Y-107527900D01*
X176528088Y-107488194D01*
X176702552Y-107410518D01*
X176857053Y-107298266D01*
X176863499Y-107291107D01*
X176984834Y-107156351D01*
X176984835Y-107156349D01*
X176984840Y-107156344D01*
X177080327Y-106990956D01*
X177139342Y-106809328D01*
X177159304Y-106619400D01*
X177139342Y-106429472D01*
X177080327Y-106247844D01*
X177063905Y-106219400D01*
X181632296Y-106219400D01*
X181652257Y-106409327D01*
X181664773Y-106447845D01*
X181711273Y-106590956D01*
X181711276Y-106590961D01*
X181806758Y-106756341D01*
X181806765Y-106756351D01*
X181934544Y-106898264D01*
X181934547Y-106898266D01*
X182089048Y-107010518D01*
X182263512Y-107088194D01*
X182450313Y-107127900D01*
X182641287Y-107127900D01*
X182828088Y-107088194D01*
X183002552Y-107010518D01*
X183157053Y-106898266D01*
X183221584Y-106826596D01*
X183282028Y-106789358D01*
X183353011Y-106790709D01*
X183411996Y-106830223D01*
X183440255Y-106895353D01*
X183440529Y-106897737D01*
X183452257Y-107009327D01*
X183477883Y-107088193D01*
X183511273Y-107190956D01*
X183539641Y-107240091D01*
X183606758Y-107356341D01*
X183606765Y-107356351D01*
X183734544Y-107498264D01*
X183777498Y-107529472D01*
X183889048Y-107610518D01*
X184063512Y-107688194D01*
X184250313Y-107727900D01*
X184441287Y-107727900D01*
X184628088Y-107688194D01*
X184802552Y-107610518D01*
X184957053Y-107498266D01*
X185036062Y-107410518D01*
X185084834Y-107356351D01*
X185084835Y-107356349D01*
X185084840Y-107356344D01*
X185180327Y-107190956D01*
X185239342Y-107009328D01*
X185259304Y-106819400D01*
X185239342Y-106629472D01*
X185236069Y-106619400D01*
X187432296Y-106619400D01*
X187452257Y-106809327D01*
X187457869Y-106826598D01*
X187511273Y-106990956D01*
X187511276Y-106990961D01*
X187606758Y-107156341D01*
X187606765Y-107156351D01*
X187734544Y-107298264D01*
X187734547Y-107298266D01*
X187889048Y-107410518D01*
X188063512Y-107488194D01*
X188250313Y-107527900D01*
X188441287Y-107527900D01*
X188628088Y-107488194D01*
X188802552Y-107410518D01*
X188957053Y-107298266D01*
X188963499Y-107291107D01*
X189084834Y-107156351D01*
X189084835Y-107156349D01*
X189084840Y-107156344D01*
X189180327Y-106990956D01*
X189239342Y-106809328D01*
X189259304Y-106619400D01*
X189239342Y-106429472D01*
X189180327Y-106247844D01*
X189084840Y-106082456D01*
X189084838Y-106082454D01*
X189084834Y-106082448D01*
X188957055Y-105940535D01*
X188802552Y-105828282D01*
X188628088Y-105750606D01*
X188441287Y-105710900D01*
X188250313Y-105710900D01*
X188063511Y-105750606D01*
X187889047Y-105828282D01*
X187734544Y-105940535D01*
X187606765Y-106082448D01*
X187606758Y-106082458D01*
X187511276Y-106247838D01*
X187511273Y-106247844D01*
X187510754Y-106249441D01*
X187452257Y-106429472D01*
X187432296Y-106619400D01*
X185236069Y-106619400D01*
X185180327Y-106447844D01*
X185084840Y-106282456D01*
X185084838Y-106282454D01*
X185084834Y-106282448D01*
X184957055Y-106140535D01*
X184802552Y-106028282D01*
X184628088Y-105950606D01*
X184441287Y-105910900D01*
X184250313Y-105910900D01*
X184063511Y-105950606D01*
X183889047Y-106028282D01*
X183734546Y-106140534D01*
X183670016Y-106212202D01*
X183609570Y-106249441D01*
X183538586Y-106248089D01*
X183479602Y-106208575D01*
X183451344Y-106143444D01*
X183451070Y-106141061D01*
X183439342Y-106029472D01*
X183424063Y-105982448D01*
X183380327Y-105847844D01*
X183284840Y-105682456D01*
X183284838Y-105682454D01*
X183284834Y-105682448D01*
X183157055Y-105540535D01*
X183002552Y-105428282D01*
X182828088Y-105350606D01*
X182641287Y-105310900D01*
X182450313Y-105310900D01*
X182263511Y-105350606D01*
X182089047Y-105428282D01*
X181934544Y-105540535D01*
X181806765Y-105682448D01*
X181806758Y-105682458D01*
X181711276Y-105847838D01*
X181711273Y-105847845D01*
X181652257Y-106029472D01*
X181632296Y-106219400D01*
X177063905Y-106219400D01*
X176984840Y-106082456D01*
X176984838Y-106082454D01*
X176984834Y-106082448D01*
X176857055Y-105940535D01*
X176702552Y-105828282D01*
X176528088Y-105750606D01*
X176341287Y-105710900D01*
X176150313Y-105710900D01*
X175963511Y-105750606D01*
X175789047Y-105828282D01*
X175634544Y-105940535D01*
X175506765Y-106082448D01*
X175506758Y-106082458D01*
X175411276Y-106247838D01*
X175411273Y-106247844D01*
X175410754Y-106249441D01*
X175381705Y-106338843D01*
X175341630Y-106397448D01*
X175276233Y-106425084D01*
X175206277Y-106412976D01*
X175153971Y-106364970D01*
X175142319Y-106335448D01*
X175141383Y-106335753D01*
X175113338Y-106249441D01*
X175080327Y-106147844D01*
X174984840Y-105982456D01*
X174984838Y-105982454D01*
X174984834Y-105982448D01*
X174857055Y-105840535D01*
X174702552Y-105728282D01*
X174528088Y-105650606D01*
X174341287Y-105610900D01*
X174150313Y-105610900D01*
X173963511Y-105650606D01*
X173789047Y-105728282D01*
X173634544Y-105840535D01*
X173506765Y-105982448D01*
X173506758Y-105982458D01*
X173411276Y-106147838D01*
X173411273Y-106147845D01*
X173352257Y-106329472D01*
X173332296Y-106519400D01*
X164763663Y-106519400D01*
X164684687Y-106382609D01*
X164684685Y-106382607D01*
X164684681Y-106382601D01*
X164556902Y-106240688D01*
X164402399Y-106128435D01*
X164227935Y-106050759D01*
X164041134Y-106011053D01*
X163850160Y-106011053D01*
X163663358Y-106050759D01*
X163488894Y-106128435D01*
X163334391Y-106240688D01*
X163206612Y-106382601D01*
X163206605Y-106382611D01*
X163111123Y-106547991D01*
X163111120Y-106547998D01*
X163052104Y-106729625D01*
X163032143Y-106919553D01*
X115746374Y-106919553D01*
X115746360Y-104919400D01*
X165832296Y-104919400D01*
X165852257Y-105109327D01*
X165882326Y-105201870D01*
X165911273Y-105290956D01*
X165911276Y-105290961D01*
X166006758Y-105456341D01*
X166006765Y-105456351D01*
X166134544Y-105598264D01*
X166134547Y-105598266D01*
X166289048Y-105710518D01*
X166463512Y-105788194D01*
X166650313Y-105827900D01*
X166841287Y-105827900D01*
X167028088Y-105788194D01*
X167202552Y-105710518D01*
X167357053Y-105598266D01*
X167484840Y-105456344D01*
X167580327Y-105290956D01*
X167639342Y-105109328D01*
X167659304Y-104919400D01*
X167639342Y-104729472D01*
X167580327Y-104547844D01*
X167484840Y-104382456D01*
X167484838Y-104382454D01*
X167484834Y-104382448D01*
X167357055Y-104240535D01*
X167202552Y-104128282D01*
X167028088Y-104050606D01*
X166841287Y-104010900D01*
X166650313Y-104010900D01*
X166463511Y-104050606D01*
X166289047Y-104128282D01*
X166134544Y-104240535D01*
X166006765Y-104382448D01*
X166006758Y-104382458D01*
X165911276Y-104547838D01*
X165911273Y-104547845D01*
X165852257Y-104729472D01*
X165832296Y-104919400D01*
X115746360Y-104919400D01*
X115746347Y-103119400D01*
X167832296Y-103119400D01*
X167852257Y-103309327D01*
X167882326Y-103401870D01*
X167911273Y-103490956D01*
X167911276Y-103490961D01*
X168006758Y-103656341D01*
X168006765Y-103656351D01*
X168134544Y-103798264D01*
X168195799Y-103842768D01*
X168289048Y-103910518D01*
X168463512Y-103988194D01*
X168650313Y-104027900D01*
X168841287Y-104027900D01*
X169028088Y-103988194D01*
X169202552Y-103910518D01*
X169357053Y-103798266D01*
X169436062Y-103710518D01*
X169484834Y-103656351D01*
X169484835Y-103656349D01*
X169484840Y-103656344D01*
X169580327Y-103490956D01*
X169639342Y-103309328D01*
X169659304Y-103119400D01*
X170332296Y-103119400D01*
X170352257Y-103309327D01*
X170382326Y-103401870D01*
X170411273Y-103490956D01*
X170411276Y-103490961D01*
X170506758Y-103656341D01*
X170506765Y-103656351D01*
X170634544Y-103798264D01*
X170695799Y-103842768D01*
X170789048Y-103910518D01*
X170963512Y-103988194D01*
X171150313Y-104027900D01*
X171341287Y-104027900D01*
X171528088Y-103988194D01*
X171702552Y-103910518D01*
X171857053Y-103798266D01*
X171936062Y-103710518D01*
X171984834Y-103656351D01*
X171984835Y-103656349D01*
X171984840Y-103656344D01*
X172080327Y-103490956D01*
X172139342Y-103309328D01*
X172159304Y-103119400D01*
X172139342Y-102929472D01*
X172136069Y-102919400D01*
X173432296Y-102919400D01*
X173452257Y-103109327D01*
X173482326Y-103201870D01*
X173511273Y-103290956D01*
X173511276Y-103290961D01*
X173606758Y-103456341D01*
X173606765Y-103456351D01*
X173734544Y-103598264D01*
X173734547Y-103598266D01*
X173889048Y-103710518D01*
X174063512Y-103788194D01*
X174250313Y-103827900D01*
X174441287Y-103827900D01*
X174628088Y-103788194D01*
X174802552Y-103710518D01*
X174957053Y-103598266D01*
X175053671Y-103490961D01*
X175084834Y-103456351D01*
X175084835Y-103456349D01*
X175084840Y-103456344D01*
X175180327Y-103290956D01*
X175239342Y-103109328D01*
X175259304Y-102919400D01*
X175239342Y-102729472D01*
X175180327Y-102547844D01*
X175084840Y-102382456D01*
X175084838Y-102382454D01*
X175084834Y-102382448D01*
X174957055Y-102240535D01*
X174802552Y-102128282D01*
X174628088Y-102050606D01*
X174441287Y-102010900D01*
X174250313Y-102010900D01*
X174063511Y-102050606D01*
X173889047Y-102128282D01*
X173734544Y-102240535D01*
X173606765Y-102382448D01*
X173606758Y-102382458D01*
X173511276Y-102547838D01*
X173511273Y-102547845D01*
X173452257Y-102729472D01*
X173432296Y-102919400D01*
X172136069Y-102919400D01*
X172080327Y-102747844D01*
X171984840Y-102582456D01*
X171984838Y-102582454D01*
X171984834Y-102582448D01*
X171857055Y-102440535D01*
X171702552Y-102328282D01*
X171528088Y-102250606D01*
X171341287Y-102210900D01*
X171150313Y-102210900D01*
X170963511Y-102250606D01*
X170789047Y-102328282D01*
X170634544Y-102440535D01*
X170506765Y-102582448D01*
X170506758Y-102582458D01*
X170411276Y-102747838D01*
X170411273Y-102747845D01*
X170352257Y-102929472D01*
X170332296Y-103119400D01*
X169659304Y-103119400D01*
X169639342Y-102929472D01*
X169580327Y-102747844D01*
X169484840Y-102582456D01*
X169484838Y-102582454D01*
X169484834Y-102582448D01*
X169357055Y-102440535D01*
X169202552Y-102328282D01*
X169028088Y-102250606D01*
X168841287Y-102210900D01*
X168650313Y-102210900D01*
X168463511Y-102250606D01*
X168289047Y-102328282D01*
X168134544Y-102440535D01*
X168006765Y-102582448D01*
X168006758Y-102582458D01*
X167911276Y-102747838D01*
X167911273Y-102747845D01*
X167852257Y-102929472D01*
X167832296Y-103119400D01*
X115746347Y-103119400D01*
X115746301Y-96844701D01*
X115766303Y-96776582D01*
X115819958Y-96730089D01*
X115890232Y-96719984D01*
X115929499Y-96732433D01*
X115964748Y-96750394D01*
X116131289Y-96804506D01*
X116304244Y-96831900D01*
X116304247Y-96831900D01*
X117687353Y-96831900D01*
X117687356Y-96831900D01*
X117860311Y-96804506D01*
X118026852Y-96750394D01*
X118182877Y-96670895D01*
X118324545Y-96567967D01*
X118448367Y-96444145D01*
X118551295Y-96302477D01*
X118630794Y-96146452D01*
X118684906Y-95979911D01*
X118712300Y-95806956D01*
X118712300Y-95631844D01*
X118684906Y-95458889D01*
X118630794Y-95292348D01*
X118551295Y-95136323D01*
X118448367Y-94994655D01*
X118448365Y-94994652D01*
X118324547Y-94870834D01*
X118182880Y-94767907D01*
X118182879Y-94767906D01*
X118182877Y-94767905D01*
X118026852Y-94688406D01*
X118026849Y-94688405D01*
X118026847Y-94688404D01*
X117860315Y-94634295D01*
X117860313Y-94634294D01*
X117860311Y-94634294D01*
X117687356Y-94606900D01*
X117687353Y-94606900D01*
X117395600Y-94606900D01*
X117327479Y-94586898D01*
X117280986Y-94533242D01*
X117270882Y-94462968D01*
X117282078Y-94426231D01*
X117298750Y-94391610D01*
X117313681Y-94360606D01*
X117346300Y-94217694D01*
X117346300Y-94071106D01*
X117313681Y-93928194D01*
X117250079Y-93796123D01*
X117158683Y-93681517D01*
X117044077Y-93590121D01*
X117044075Y-93590120D01*
X117044074Y-93590119D01*
X117044072Y-93590118D01*
X116912010Y-93526521D01*
X116912006Y-93526519D01*
X116769094Y-93493900D01*
X116769091Y-93493900D01*
X116077325Y-93493900D01*
X116047768Y-93490384D01*
X115989744Y-93476382D01*
X115959034Y-93464550D01*
X115903850Y-93434494D01*
X115877250Y-93415112D01*
X115831728Y-93371786D01*
X115811055Y-93346175D01*
X115778307Y-93292538D01*
X115764973Y-93262451D01*
X115747231Y-93202164D01*
X115742142Y-93169650D01*
X115741079Y-93125802D01*
X115741480Y-93121172D01*
X115741357Y-93121172D01*
X115741357Y-93086313D01*
X115742074Y-93072889D01*
X115744465Y-93050575D01*
X115744463Y-93050569D01*
X115743354Y-93038215D01*
X115743705Y-93038183D01*
X115741357Y-93021864D01*
X115741357Y-92119400D01*
X120132296Y-92119400D01*
X120152257Y-92309327D01*
X120170657Y-92365955D01*
X120211273Y-92490956D01*
X120234595Y-92531350D01*
X120306758Y-92656341D01*
X120306765Y-92656351D01*
X120434544Y-92798264D01*
X120434547Y-92798266D01*
X120589048Y-92910518D01*
X120763512Y-92988194D01*
X120894521Y-93016041D01*
X120905243Y-93018320D01*
X120967716Y-93052049D01*
X121002038Y-93114198D01*
X120997310Y-93185037D01*
X120972686Y-93225873D01*
X120966766Y-93232448D01*
X120966758Y-93232458D01*
X120873117Y-93394650D01*
X120871273Y-93397844D01*
X120859365Y-93434494D01*
X120812257Y-93579472D01*
X120792296Y-93769400D01*
X120812257Y-93959327D01*
X120828493Y-94009294D01*
X120871273Y-94140956D01*
X120898275Y-94187725D01*
X120966758Y-94306341D01*
X120966765Y-94306351D01*
X121094544Y-94448264D01*
X121094547Y-94448266D01*
X121249048Y-94560518D01*
X121423512Y-94638194D01*
X121610313Y-94677900D01*
X121801287Y-94677900D01*
X121988088Y-94638194D01*
X122162552Y-94560518D01*
X122317053Y-94448266D01*
X122332756Y-94430826D01*
X122444834Y-94306351D01*
X122444835Y-94306349D01*
X122444840Y-94306344D01*
X122540327Y-94140956D01*
X122599342Y-93959328D01*
X122619304Y-93769400D01*
X122599342Y-93579472D01*
X122540327Y-93397844D01*
X122444840Y-93232456D01*
X122444838Y-93232454D01*
X122444834Y-93232448D01*
X122315322Y-93088610D01*
X122284604Y-93024603D01*
X122293369Y-92954149D01*
X122338832Y-92899618D01*
X122382758Y-92881054D01*
X122466790Y-92863193D01*
X122641254Y-92785517D01*
X122795755Y-92673265D01*
X122800460Y-92668040D01*
X122923536Y-92531350D01*
X122923537Y-92531348D01*
X122923542Y-92531343D01*
X123019029Y-92365955D01*
X123078044Y-92184327D01*
X123085143Y-92116785D01*
X207759983Y-92116785D01*
X207779944Y-92306712D01*
X207809365Y-92397258D01*
X207838960Y-92488341D01*
X207838963Y-92488346D01*
X207934445Y-92653726D01*
X207934452Y-92653736D01*
X208062231Y-92795649D01*
X208062234Y-92795651D01*
X208216735Y-92907903D01*
X208320606Y-92954149D01*
X208339201Y-92962428D01*
X208393297Y-93008408D01*
X208413946Y-93076336D01*
X208413262Y-93090700D01*
X208412296Y-93099895D01*
X208412296Y-93099899D01*
X208432257Y-93289827D01*
X208444749Y-93328272D01*
X208491273Y-93471456D01*
X208491276Y-93471461D01*
X208586758Y-93636841D01*
X208586765Y-93636851D01*
X208714544Y-93778764D01*
X208775799Y-93823268D01*
X208869048Y-93891018D01*
X209043512Y-93968694D01*
X209230313Y-94008400D01*
X209421287Y-94008400D01*
X209608088Y-93968694D01*
X209782552Y-93891018D01*
X209937053Y-93778766D01*
X209945486Y-93769400D01*
X210064834Y-93636851D01*
X210064835Y-93636849D01*
X210064840Y-93636844D01*
X210160327Y-93471456D01*
X210219342Y-93289828D01*
X210239304Y-93099900D01*
X210219342Y-92909972D01*
X210160327Y-92728344D01*
X210064840Y-92562956D01*
X210064838Y-92562954D01*
X210064834Y-92562948D01*
X209937055Y-92421035D01*
X209861250Y-92365960D01*
X209782552Y-92308782D01*
X209660085Y-92254256D01*
X209605990Y-92208277D01*
X209585340Y-92140350D01*
X209586025Y-92125977D01*
X209586991Y-92116788D01*
X209586991Y-92116786D01*
X209567029Y-91926857D01*
X209508864Y-91747845D01*
X209508014Y-91745229D01*
X209507138Y-91743713D01*
X209506899Y-91742728D01*
X209505328Y-91739198D01*
X209505973Y-91738910D01*
X209490403Y-91674719D01*
X209507141Y-91617717D01*
X209527499Y-91582456D01*
X209580327Y-91490956D01*
X209639342Y-91309328D01*
X209659304Y-91119400D01*
X209639342Y-90929472D01*
X209580327Y-90747844D01*
X209501450Y-90611226D01*
X209484713Y-90542233D01*
X209507933Y-90475141D01*
X209559321Y-90433122D01*
X209632552Y-90400518D01*
X209787053Y-90288266D01*
X209808415Y-90264541D01*
X209914834Y-90146351D01*
X209914835Y-90146349D01*
X209914840Y-90146344D01*
X210010327Y-89980956D01*
X210069342Y-89799328D01*
X210089304Y-89609400D01*
X210069342Y-89419472D01*
X210010327Y-89237844D01*
X209914840Y-89072456D01*
X209914838Y-89072454D01*
X209914834Y-89072448D01*
X209787055Y-88930535D01*
X209632552Y-88818282D01*
X209458088Y-88740606D01*
X209271287Y-88700900D01*
X209080313Y-88700900D01*
X208893511Y-88740606D01*
X208719047Y-88818282D01*
X208564544Y-88930535D01*
X208436765Y-89072448D01*
X208436758Y-89072458D01*
X208341276Y-89237838D01*
X208341273Y-89237845D01*
X208282257Y-89419472D01*
X208262296Y-89609400D01*
X208282257Y-89799327D01*
X208304290Y-89867136D01*
X208341273Y-89980956D01*
X208390281Y-90065841D01*
X208420148Y-90117571D01*
X208436886Y-90186566D01*
X208413666Y-90253658D01*
X208362278Y-90295678D01*
X208289047Y-90328282D01*
X208134544Y-90440535D01*
X208006765Y-90582448D01*
X208006758Y-90582458D01*
X207911276Y-90747838D01*
X207911273Y-90747845D01*
X207852257Y-90929472D01*
X207832296Y-91119400D01*
X207852257Y-91309327D01*
X207911274Y-91490960D01*
X207912147Y-91492471D01*
X207912386Y-91493457D01*
X207913961Y-91496995D01*
X207913314Y-91497282D01*
X207928883Y-91561466D01*
X207912145Y-91618468D01*
X207838963Y-91745223D01*
X207838960Y-91745229D01*
X207838110Y-91747845D01*
X207779944Y-91926857D01*
X207759983Y-92116785D01*
X123085143Y-92116785D01*
X123098006Y-91994399D01*
X123078044Y-91804471D01*
X123019029Y-91622843D01*
X122923542Y-91457455D01*
X122923540Y-91457453D01*
X122923536Y-91457447D01*
X122795757Y-91315534D01*
X122641254Y-91203281D01*
X122552915Y-91163950D01*
X122498819Y-91117969D01*
X122478170Y-91050042D01*
X122497523Y-90981734D01*
X122530099Y-90946910D01*
X122597053Y-90898266D01*
X122724840Y-90756344D01*
X122820327Y-90590956D01*
X122879342Y-90409328D01*
X122899304Y-90219400D01*
X122879342Y-90029472D01*
X122820327Y-89847844D01*
X122724840Y-89682456D01*
X122724838Y-89682454D01*
X122724834Y-89682448D01*
X122597055Y-89540535D01*
X122442552Y-89428282D01*
X122268088Y-89350606D01*
X122081287Y-89310900D01*
X121890313Y-89310900D01*
X121703511Y-89350606D01*
X121529047Y-89428282D01*
X121374544Y-89540535D01*
X121246765Y-89682448D01*
X121246758Y-89682458D01*
X121151276Y-89847838D01*
X121151273Y-89847844D01*
X121145005Y-89867136D01*
X121092257Y-90029472D01*
X121072296Y-90219400D01*
X121092257Y-90409327D01*
X121110674Y-90466007D01*
X121151273Y-90590956D01*
X121151276Y-90590961D01*
X121246758Y-90756341D01*
X121246765Y-90756351D01*
X121374544Y-90898264D01*
X121374547Y-90898266D01*
X121529048Y-91010518D01*
X121617387Y-91049848D01*
X121671482Y-91095828D01*
X121692131Y-91163755D01*
X121672779Y-91232063D01*
X121640198Y-91266891D01*
X121594359Y-91300195D01*
X121527491Y-91324054D01*
X121469050Y-91313366D01*
X121328088Y-91250606D01*
X121141287Y-91210900D01*
X120950313Y-91210900D01*
X120763511Y-91250606D01*
X120589047Y-91328282D01*
X120434544Y-91440535D01*
X120306765Y-91582448D01*
X120306758Y-91582458D01*
X120212782Y-91745230D01*
X120211273Y-91747844D01*
X120204235Y-91769504D01*
X120152257Y-91929472D01*
X120132296Y-92119400D01*
X115741357Y-92119400D01*
X115741357Y-91769504D01*
X115741358Y-91769025D01*
X115741448Y-91745229D01*
X115746120Y-90516539D01*
X115748523Y-90500088D01*
X115748295Y-90500068D01*
X115749406Y-90487706D01*
X115749407Y-90487704D01*
X115747081Y-90465990D01*
X115746366Y-90452110D01*
X115746450Y-90430281D01*
X115746449Y-90430280D01*
X115746496Y-90418295D01*
X115746019Y-90412651D01*
X115747089Y-90368630D01*
X115752177Y-90336131D01*
X115769922Y-90275842D01*
X115783255Y-90245762D01*
X115816009Y-90192125D01*
X115836673Y-90166529D01*
X115882198Y-90123206D01*
X115908794Y-90103829D01*
X115963979Y-90073778D01*
X115994686Y-90061949D01*
X116024451Y-90054769D01*
X116050803Y-90048413D01*
X116080349Y-90044900D01*
X116769091Y-90044900D01*
X116769094Y-90044900D01*
X116912006Y-90012281D01*
X117044077Y-89948679D01*
X117158683Y-89857283D01*
X117250079Y-89742677D01*
X117313681Y-89610606D01*
X117346300Y-89467694D01*
X117346300Y-89321106D01*
X117313681Y-89178194D01*
X117293022Y-89135296D01*
X117282078Y-89112569D01*
X117270543Y-89042516D01*
X117298713Y-88977347D01*
X117357643Y-88937753D01*
X117395600Y-88931900D01*
X117687353Y-88931900D01*
X117687356Y-88931900D01*
X117860311Y-88904506D01*
X118026852Y-88850394D01*
X118182877Y-88770895D01*
X118324545Y-88667967D01*
X118448367Y-88544145D01*
X118551295Y-88402477D01*
X118630794Y-88246452D01*
X118684906Y-88079911D01*
X118712300Y-87906956D01*
X118712300Y-87731844D01*
X118684906Y-87558889D01*
X118630794Y-87392348D01*
X118551295Y-87236323D01*
X118448367Y-87094655D01*
X118448365Y-87094652D01*
X118324547Y-86970834D01*
X118182875Y-86867903D01*
X118178659Y-86865320D01*
X118179622Y-86863747D01*
X118133748Y-86820438D01*
X118116670Y-86751527D01*
X118139559Y-86684321D01*
X118179443Y-86649760D01*
X118178659Y-86648480D01*
X118182875Y-86645896D01*
X118182874Y-86645896D01*
X118182877Y-86645895D01*
X118324545Y-86542967D01*
X118448367Y-86419145D01*
X118551295Y-86277477D01*
X118630794Y-86121452D01*
X118684906Y-85954911D01*
X118712300Y-85781956D01*
X118712300Y-85606844D01*
X118684906Y-85433889D01*
X118630794Y-85267348D01*
X118551295Y-85111323D01*
X118448367Y-84969655D01*
X118448365Y-84969652D01*
X118324547Y-84845834D01*
X118182880Y-84742907D01*
X118182879Y-84742906D01*
X118182877Y-84742905D01*
X118026852Y-84663406D01*
X118026849Y-84663405D01*
X118026847Y-84663404D01*
X117860315Y-84609295D01*
X117860313Y-84609294D01*
X117860311Y-84609294D01*
X117687356Y-84581900D01*
X117687353Y-84581900D01*
X117395600Y-84581900D01*
X117327479Y-84561898D01*
X117280986Y-84508242D01*
X117270882Y-84437968D01*
X117282078Y-84401231D01*
X117298750Y-84366610D01*
X117313681Y-84335606D01*
X117346300Y-84192694D01*
X117346300Y-84046106D01*
X117313681Y-83903194D01*
X117250079Y-83771123D01*
X117158683Y-83656517D01*
X117112140Y-83619400D01*
X121622296Y-83619400D01*
X121642257Y-83809327D01*
X121661939Y-83869900D01*
X121701273Y-83990956D01*
X121701276Y-83990961D01*
X121796758Y-84156341D01*
X121796765Y-84156351D01*
X121924544Y-84298264D01*
X121975941Y-84335606D01*
X122079048Y-84410518D01*
X122253512Y-84488194D01*
X122440313Y-84527900D01*
X122631287Y-84527900D01*
X122818088Y-84488194D01*
X122992552Y-84410518D01*
X123147053Y-84298266D01*
X123195779Y-84244150D01*
X123274834Y-84156351D01*
X123274835Y-84156349D01*
X123274840Y-84156344D01*
X123370327Y-83990956D01*
X123429342Y-83809328D01*
X123449304Y-83619400D01*
X123429342Y-83429472D01*
X123370327Y-83247844D01*
X123274840Y-83082456D01*
X123274838Y-83082454D01*
X123274834Y-83082448D01*
X123147055Y-82940535D01*
X122992552Y-82828282D01*
X122818088Y-82750606D01*
X122631287Y-82710900D01*
X122440313Y-82710900D01*
X122253511Y-82750606D01*
X122079047Y-82828282D01*
X121924544Y-82940535D01*
X121796765Y-83082448D01*
X121796758Y-83082458D01*
X121707273Y-83237451D01*
X121701273Y-83247844D01*
X121699476Y-83253374D01*
X121642257Y-83429472D01*
X121622296Y-83619400D01*
X117112140Y-83619400D01*
X117044077Y-83565121D01*
X117044075Y-83565120D01*
X117044074Y-83565119D01*
X117044072Y-83565118D01*
X116912010Y-83501521D01*
X116912006Y-83501519D01*
X116769094Y-83468900D01*
X116769091Y-83468900D01*
X116077325Y-83468900D01*
X116047768Y-83465384D01*
X115989744Y-83451382D01*
X115959034Y-83439550D01*
X115903850Y-83409494D01*
X115877250Y-83390112D01*
X115831728Y-83346786D01*
X115811055Y-83321175D01*
X115778307Y-83267538D01*
X115764973Y-83237451D01*
X115747231Y-83177164D01*
X115742142Y-83144650D01*
X115741079Y-83100802D01*
X115741480Y-83096172D01*
X115741357Y-83096172D01*
X115741357Y-83061313D01*
X115742074Y-83047889D01*
X115744465Y-83025575D01*
X115744463Y-83025569D01*
X115743354Y-83013215D01*
X115743705Y-83013183D01*
X115741357Y-82996864D01*
X115741357Y-81744504D01*
X115741358Y-81744025D01*
X115742365Y-81479107D01*
X115746120Y-80491539D01*
X115748523Y-80475088D01*
X115748295Y-80475068D01*
X115749406Y-80462706D01*
X115749407Y-80462704D01*
X115747081Y-80440990D01*
X115746366Y-80427110D01*
X115746450Y-80405281D01*
X115746449Y-80405280D01*
X115746496Y-80393295D01*
X115746019Y-80387651D01*
X115746706Y-80359400D01*
X120832296Y-80359400D01*
X120852257Y-80549327D01*
X120879900Y-80634400D01*
X120911273Y-80730956D01*
X120911276Y-80730961D01*
X121006758Y-80896341D01*
X121006765Y-80896351D01*
X121134544Y-81038264D01*
X121134547Y-81038266D01*
X121289048Y-81150518D01*
X121463512Y-81228194D01*
X121650313Y-81267900D01*
X121841287Y-81267900D01*
X122028088Y-81228194D01*
X122202552Y-81150518D01*
X122357053Y-81038266D01*
X122472384Y-80910178D01*
X122484834Y-80896351D01*
X122484835Y-80896349D01*
X122484840Y-80896344D01*
X122503283Y-80864400D01*
X123246369Y-80864400D01*
X123266330Y-81054327D01*
X123280001Y-81096401D01*
X123325346Y-81235956D01*
X123325346Y-81235957D01*
X123325347Y-81235958D01*
X123377564Y-81326401D01*
X123394301Y-81395396D01*
X123377564Y-81452399D01*
X123325347Y-81542841D01*
X123325346Y-81542845D01*
X123266330Y-81724472D01*
X123246369Y-81914400D01*
X123266330Y-82104327D01*
X123281527Y-82151096D01*
X123325346Y-82285956D01*
X123353714Y-82335091D01*
X123420831Y-82451341D01*
X123420838Y-82451351D01*
X123548617Y-82593264D01*
X123594389Y-82626519D01*
X123703121Y-82705518D01*
X123877585Y-82783194D01*
X124064386Y-82822900D01*
X124255360Y-82822900D01*
X124442161Y-82783194D01*
X124616625Y-82705518D01*
X124771126Y-82593266D01*
X124785908Y-82576849D01*
X124898907Y-82451351D01*
X124898908Y-82451349D01*
X124898913Y-82451344D01*
X124994400Y-82285956D01*
X125053415Y-82104328D01*
X125073377Y-81914400D01*
X125053415Y-81724472D01*
X124994400Y-81542844D01*
X124942181Y-81452400D01*
X124925444Y-81383406D01*
X124942182Y-81326399D01*
X124994400Y-81235956D01*
X125053415Y-81054328D01*
X125073377Y-80864400D01*
X125053415Y-80674472D01*
X124994400Y-80492844D01*
X124898913Y-80327456D01*
X124898911Y-80327454D01*
X124898907Y-80327448D01*
X124771128Y-80185535D01*
X124616625Y-80073282D01*
X124442161Y-79995606D01*
X124255360Y-79955900D01*
X124064386Y-79955900D01*
X123877584Y-79995606D01*
X123703120Y-80073282D01*
X123548617Y-80185535D01*
X123420838Y-80327448D01*
X123420831Y-80327458D01*
X123325349Y-80492838D01*
X123325346Y-80492845D01*
X123266330Y-80674472D01*
X123246369Y-80864400D01*
X122503283Y-80864400D01*
X122580327Y-80730956D01*
X122639342Y-80549328D01*
X122659304Y-80359400D01*
X122639342Y-80169472D01*
X122580327Y-79987844D01*
X122484840Y-79822456D01*
X122484838Y-79822454D01*
X122484834Y-79822448D01*
X122425106Y-79756113D01*
X139480157Y-79756113D01*
X139500362Y-80115913D01*
X139560726Y-80471189D01*
X139560727Y-80471195D01*
X139560728Y-80471196D01*
X139561849Y-80475088D01*
X139660492Y-80817487D01*
X139776022Y-81096401D01*
X139798399Y-81150423D01*
X139863326Y-81267900D01*
X139972712Y-81465820D01*
X139972714Y-81465823D01*
X139972717Y-81465828D01*
X140181254Y-81759732D01*
X140421386Y-82028440D01*
X140690094Y-82268572D01*
X140983998Y-82477109D01*
X141299403Y-82651427D01*
X141442984Y-82710900D01*
X141613468Y-82781517D01*
X141632343Y-82789335D01*
X141978630Y-82889098D01*
X142333909Y-82949463D01*
X142693713Y-82969669D01*
X143053517Y-82949463D01*
X143408796Y-82889098D01*
X143755083Y-82789335D01*
X144088023Y-82651427D01*
X144403428Y-82477109D01*
X144697332Y-82268572D01*
X144966040Y-82028440D01*
X145206172Y-81759732D01*
X145414709Y-81465828D01*
X145589027Y-81150423D01*
X145726935Y-80817483D01*
X145826698Y-80471196D01*
X145887063Y-80115917D01*
X145906523Y-79769400D01*
X149002244Y-79769400D01*
X149022449Y-80129200D01*
X149082813Y-80484476D01*
X149182579Y-80830774D01*
X149320481Y-81163699D01*
X149320486Y-81163710D01*
X149356125Y-81228194D01*
X149494799Y-81479107D01*
X149494801Y-81479110D01*
X149494804Y-81479115D01*
X149703341Y-81773019D01*
X149943473Y-82041727D01*
X150212181Y-82281859D01*
X150506085Y-82490396D01*
X150821490Y-82664714D01*
X150935086Y-82711767D01*
X151107526Y-82783194D01*
X151154430Y-82802622D01*
X151500717Y-82902385D01*
X151855996Y-82962750D01*
X152215800Y-82982956D01*
X152575604Y-82962750D01*
X152930883Y-82902385D01*
X153277170Y-82802622D01*
X153610110Y-82664714D01*
X153925515Y-82490396D01*
X154219419Y-82281859D01*
X154488127Y-82041727D01*
X154728259Y-81773019D01*
X154936796Y-81479115D01*
X155111114Y-81163710D01*
X155249022Y-80830770D01*
X155305595Y-80634400D01*
X205324338Y-80634400D01*
X205344299Y-80824327D01*
X205367702Y-80896351D01*
X205403315Y-81005956D01*
X205403315Y-81005957D01*
X205403316Y-81005958D01*
X205455533Y-81096401D01*
X205472270Y-81165396D01*
X205455533Y-81222399D01*
X205403316Y-81312841D01*
X205403315Y-81312845D01*
X205344299Y-81494472D01*
X205324338Y-81684400D01*
X205344299Y-81874327D01*
X205357320Y-81914400D01*
X205403315Y-82055956D01*
X205403318Y-82055961D01*
X205498800Y-82221341D01*
X205498807Y-82221351D01*
X205626586Y-82363264D01*
X205648073Y-82378875D01*
X205781090Y-82475518D01*
X205955554Y-82553194D01*
X206142355Y-82592900D01*
X206333329Y-82592900D01*
X206520130Y-82553194D01*
X206694594Y-82475518D01*
X206849095Y-82363266D01*
X206869854Y-82340211D01*
X208588680Y-82340211D01*
X208608641Y-82530138D01*
X208629034Y-82592900D01*
X208667657Y-82711767D01*
X208667660Y-82711772D01*
X208763142Y-82877152D01*
X208763149Y-82877162D01*
X208890928Y-83019075D01*
X208903479Y-83028194D01*
X209045432Y-83131329D01*
X209219896Y-83209005D01*
X209406697Y-83248711D01*
X209597671Y-83248711D01*
X209784472Y-83209005D01*
X209958936Y-83131329D01*
X210113437Y-83019077D01*
X210113439Y-83019075D01*
X210241218Y-82877162D01*
X210241219Y-82877160D01*
X210241224Y-82877155D01*
X210336711Y-82711767D01*
X210395726Y-82530139D01*
X210415688Y-82340211D01*
X210395726Y-82150283D01*
X210336711Y-81968655D01*
X210241224Y-81803267D01*
X210241222Y-81803265D01*
X210241218Y-81803259D01*
X210113439Y-81661346D01*
X209958936Y-81549093D01*
X209784472Y-81471417D01*
X209597671Y-81431711D01*
X209406697Y-81431711D01*
X209219895Y-81471417D01*
X209045431Y-81549093D01*
X208890928Y-81661346D01*
X208763149Y-81803259D01*
X208763142Y-81803269D01*
X208667660Y-81968649D01*
X208667657Y-81968656D01*
X208608641Y-82150283D01*
X208588680Y-82340211D01*
X206869854Y-82340211D01*
X206934358Y-82268572D01*
X206976876Y-82221351D01*
X206976877Y-82221349D01*
X206976882Y-82221344D01*
X207072369Y-82055956D01*
X207131384Y-81874328D01*
X207151346Y-81684400D01*
X207131384Y-81494472D01*
X207072369Y-81312844D01*
X207020150Y-81222400D01*
X207003413Y-81153406D01*
X207020151Y-81096399D01*
X207044441Y-81054328D01*
X207072369Y-81005956D01*
X207131384Y-80824328D01*
X207151346Y-80634400D01*
X207131384Y-80444472D01*
X207072369Y-80262844D01*
X206976882Y-80097456D01*
X206976880Y-80097454D01*
X206976876Y-80097448D01*
X206849097Y-79955535D01*
X206694594Y-79843282D01*
X206520130Y-79765606D01*
X206333329Y-79725900D01*
X206142355Y-79725900D01*
X205955553Y-79765606D01*
X205781089Y-79843282D01*
X205626586Y-79955535D01*
X205498807Y-80097448D01*
X205498800Y-80097458D01*
X205403318Y-80262838D01*
X205403315Y-80262845D01*
X205344299Y-80444472D01*
X205324338Y-80634400D01*
X155305595Y-80634400D01*
X155348785Y-80484483D01*
X155409150Y-80129204D01*
X155429356Y-79769400D01*
X155409150Y-79409596D01*
X155348785Y-79054317D01*
X155327202Y-78979400D01*
X208162296Y-78979400D01*
X208182257Y-79169327D01*
X208196203Y-79212246D01*
X208241273Y-79350956D01*
X208241276Y-79350961D01*
X208336758Y-79516341D01*
X208336765Y-79516351D01*
X208464544Y-79658264D01*
X208525799Y-79702768D01*
X208619048Y-79770518D01*
X208793512Y-79848194D01*
X208980313Y-79887900D01*
X209171287Y-79887900D01*
X209358088Y-79848194D01*
X209532552Y-79770518D01*
X209687053Y-79658266D01*
X209714702Y-79627559D01*
X209814834Y-79516351D01*
X209814835Y-79516349D01*
X209814840Y-79516344D01*
X209910327Y-79350956D01*
X209969342Y-79169328D01*
X209989304Y-78979400D01*
X209969342Y-78789472D01*
X209910327Y-78607844D01*
X209814840Y-78442456D01*
X209814838Y-78442454D01*
X209814834Y-78442448D01*
X209687055Y-78300535D01*
X209532552Y-78188282D01*
X209358088Y-78110606D01*
X209171287Y-78070900D01*
X208980313Y-78070900D01*
X208793511Y-78110606D01*
X208619047Y-78188282D01*
X208464544Y-78300535D01*
X208336765Y-78442448D01*
X208336758Y-78442458D01*
X208241276Y-78607838D01*
X208241273Y-78607844D01*
X208229861Y-78642965D01*
X208182257Y-78789472D01*
X208162296Y-78979400D01*
X155327202Y-78979400D01*
X155249022Y-78708030D01*
X155111114Y-78375090D01*
X154936796Y-78059685D01*
X154728259Y-77765781D01*
X154488127Y-77497073D01*
X154219419Y-77256941D01*
X153925515Y-77048404D01*
X153925510Y-77048401D01*
X153925507Y-77048399D01*
X153628540Y-76884272D01*
X153610110Y-76874086D01*
X153610103Y-76874083D01*
X153610099Y-76874081D01*
X153277174Y-76736179D01*
X152930876Y-76636413D01*
X152575600Y-76576049D01*
X152215800Y-76555844D01*
X151855999Y-76576049D01*
X151500723Y-76636413D01*
X151154425Y-76736179D01*
X150821500Y-76874081D01*
X150821477Y-76874093D01*
X150506092Y-77048399D01*
X150506085Y-77048404D01*
X150320739Y-77179915D01*
X150212177Y-77256944D01*
X149943473Y-77497073D01*
X149703344Y-77765777D01*
X149703341Y-77765780D01*
X149703341Y-77765781D01*
X149572350Y-77950395D01*
X149494799Y-78059692D01*
X149320493Y-78375077D01*
X149320481Y-78375100D01*
X149182579Y-78708025D01*
X149082813Y-79054323D01*
X149022449Y-79409599D01*
X149002244Y-79769400D01*
X145906523Y-79769400D01*
X145907269Y-79756113D01*
X145887063Y-79396309D01*
X145826698Y-79041030D01*
X145726935Y-78694743D01*
X145589027Y-78361803D01*
X145422056Y-78059692D01*
X145414713Y-78046405D01*
X145414712Y-78046404D01*
X145414709Y-78046398D01*
X145206172Y-77752494D01*
X144966040Y-77483786D01*
X144697332Y-77243654D01*
X144403428Y-77035117D01*
X144403423Y-77035114D01*
X144403420Y-77035112D01*
X144130478Y-76884263D01*
X144088023Y-76860799D01*
X144088016Y-76860796D01*
X144088012Y-76860794D01*
X143755087Y-76722892D01*
X143408789Y-76623126D01*
X143053513Y-76562762D01*
X142693713Y-76542557D01*
X142333912Y-76562762D01*
X141978636Y-76623126D01*
X141632338Y-76722892D01*
X141299413Y-76860794D01*
X141299390Y-76860806D01*
X140984005Y-77035112D01*
X140690090Y-77243657D01*
X140421386Y-77483786D01*
X140181257Y-77752490D01*
X139972712Y-78046405D01*
X139798406Y-78361790D01*
X139798394Y-78361813D01*
X139660492Y-78694738D01*
X139560726Y-79041036D01*
X139500362Y-79396312D01*
X139480157Y-79756113D01*
X122425106Y-79756113D01*
X122357055Y-79680535D01*
X122202552Y-79568282D01*
X122028088Y-79490606D01*
X121841287Y-79450900D01*
X121650313Y-79450900D01*
X121463511Y-79490606D01*
X121289047Y-79568282D01*
X121134544Y-79680535D01*
X121006765Y-79822448D01*
X121006758Y-79822458D01*
X120911276Y-79987838D01*
X120911273Y-79987845D01*
X120852257Y-80169472D01*
X120832296Y-80359400D01*
X115746706Y-80359400D01*
X115747089Y-80343630D01*
X115752177Y-80311131D01*
X115769922Y-80250842D01*
X115783255Y-80220762D01*
X115816009Y-80167125D01*
X115836673Y-80141529D01*
X115882198Y-80098206D01*
X115908794Y-80078829D01*
X115963979Y-80048778D01*
X115994686Y-80036949D01*
X116024451Y-80029769D01*
X116050803Y-80023413D01*
X116080349Y-80019900D01*
X116769091Y-80019900D01*
X116769094Y-80019900D01*
X116912006Y-79987281D01*
X117044077Y-79923679D01*
X117158683Y-79832283D01*
X117250079Y-79717677D01*
X117313681Y-79585606D01*
X117346300Y-79442694D01*
X117346300Y-79296106D01*
X117313681Y-79153194D01*
X117293022Y-79110296D01*
X117282078Y-79087569D01*
X117270543Y-79017516D01*
X117298713Y-78952347D01*
X117357643Y-78912753D01*
X117395600Y-78906900D01*
X117687353Y-78906900D01*
X117687356Y-78906900D01*
X117860311Y-78879506D01*
X118026852Y-78825394D01*
X118182877Y-78745895D01*
X118324545Y-78642967D01*
X118448367Y-78519145D01*
X118551295Y-78377477D01*
X118630794Y-78221452D01*
X118684906Y-78054911D01*
X118712300Y-77881956D01*
X118712300Y-77706844D01*
X118684906Y-77533889D01*
X118630794Y-77367348D01*
X118551295Y-77211323D01*
X118448367Y-77069655D01*
X118448365Y-77069652D01*
X118324547Y-76945834D01*
X118182880Y-76842907D01*
X118182879Y-76842906D01*
X118182877Y-76842905D01*
X118026852Y-76763406D01*
X118026849Y-76763405D01*
X118026847Y-76763404D01*
X117860315Y-76709295D01*
X117860313Y-76709294D01*
X117860311Y-76709294D01*
X117687356Y-76681900D01*
X116304244Y-76681900D01*
X116131289Y-76709294D01*
X116131287Y-76709294D01*
X116131284Y-76709295D01*
X115964752Y-76763404D01*
X115964734Y-76763412D01*
X115929517Y-76781356D01*
X115859741Y-76794460D01*
X115793956Y-76767759D01*
X115753051Y-76709731D01*
X115746316Y-76669082D01*
X115746669Y-73043688D01*
X115766678Y-72975569D01*
X115820338Y-72929081D01*
X115872669Y-72917700D01*
X126086082Y-72917700D01*
X126159774Y-72887176D01*
X126216176Y-72830774D01*
X126246700Y-72757082D01*
X126246700Y-71319400D01*
X130517644Y-71319400D01*
X130533746Y-71513722D01*
X130536237Y-71543775D01*
X130591502Y-71762012D01*
X130591503Y-71762013D01*
X130591504Y-71762016D01*
X130627948Y-71845100D01*
X130681941Y-71968193D01*
X130805075Y-72156665D01*
X130805079Y-72156670D01*
X130957562Y-72322308D01*
X131012131Y-72364781D01*
X131135224Y-72460589D01*
X131333226Y-72567742D01*
X131333227Y-72567742D01*
X131333228Y-72567743D01*
X131355655Y-72575442D01*
X131546165Y-72640844D01*
X131768231Y-72677900D01*
X131768235Y-72677900D01*
X131993365Y-72677900D01*
X131993369Y-72677900D01*
X132215435Y-72640844D01*
X132428374Y-72567742D01*
X132626376Y-72460589D01*
X132804040Y-72322306D01*
X132865045Y-72256037D01*
X132925896Y-72219467D01*
X132996861Y-72221600D01*
X133055406Y-72261762D01*
X133075800Y-72297341D01*
X133119911Y-72415604D01*
X133119912Y-72415607D01*
X133207538Y-72532661D01*
X133324592Y-72620287D01*
X133324594Y-72620288D01*
X133324596Y-72620289D01*
X133378271Y-72640309D01*
X133461595Y-72671388D01*
X133461603Y-72671390D01*
X133522150Y-72677899D01*
X133522155Y-72677899D01*
X133522162Y-72677900D01*
X133522168Y-72677900D01*
X135319432Y-72677900D01*
X135319438Y-72677900D01*
X135319445Y-72677899D01*
X135319449Y-72677899D01*
X135379996Y-72671390D01*
X135379999Y-72671389D01*
X135380001Y-72671389D01*
X135517004Y-72620289D01*
X135539249Y-72603637D01*
X135634061Y-72532661D01*
X135721687Y-72415607D01*
X135721687Y-72415606D01*
X135721689Y-72415604D01*
X135772789Y-72278601D01*
X135774600Y-72261762D01*
X135779299Y-72218049D01*
X135779300Y-72218032D01*
X135779300Y-70420767D01*
X135779299Y-70420750D01*
X137012300Y-70420750D01*
X137012300Y-72218049D01*
X137018809Y-72278596D01*
X137018811Y-72278604D01*
X137069910Y-72415602D01*
X137069912Y-72415607D01*
X137157538Y-72532661D01*
X137274592Y-72620287D01*
X137274594Y-72620288D01*
X137274596Y-72620289D01*
X137328271Y-72640309D01*
X137411595Y-72671388D01*
X137411603Y-72671390D01*
X137472150Y-72677899D01*
X137472155Y-72677899D01*
X137472162Y-72677900D01*
X137472168Y-72677900D01*
X139269432Y-72677900D01*
X139269438Y-72677900D01*
X139269445Y-72677899D01*
X139269449Y-72677899D01*
X139329996Y-72671390D01*
X139329999Y-72671389D01*
X139330001Y-72671389D01*
X139467004Y-72620289D01*
X139489249Y-72603637D01*
X139584061Y-72532661D01*
X139671686Y-72415608D01*
X139671685Y-72415608D01*
X139671689Y-72415604D01*
X139715799Y-72297339D01*
X139758345Y-72240507D01*
X139824866Y-72215696D01*
X139894240Y-72230788D01*
X139926553Y-72256035D01*
X139947329Y-72278604D01*
X139987562Y-72322308D01*
X140042131Y-72364781D01*
X140165224Y-72460589D01*
X140363226Y-72567742D01*
X140363227Y-72567742D01*
X140363228Y-72567743D01*
X140385655Y-72575442D01*
X140576165Y-72640844D01*
X140798231Y-72677900D01*
X140798235Y-72677900D01*
X141023365Y-72677900D01*
X141023369Y-72677900D01*
X141245435Y-72640844D01*
X141458374Y-72567742D01*
X141656376Y-72460589D01*
X141834040Y-72322306D01*
X141986522Y-72156668D01*
X142109660Y-71968191D01*
X142200096Y-71762016D01*
X142255364Y-71543768D01*
X142273956Y-71319400D01*
X142255364Y-71095032D01*
X142200096Y-70876784D01*
X142109660Y-70670609D01*
X142010220Y-70518404D01*
X141986524Y-70482134D01*
X141986520Y-70482129D01*
X141834037Y-70316491D01*
X141714172Y-70223196D01*
X141656376Y-70178211D01*
X141547702Y-70119400D01*
X147062244Y-70119400D01*
X147082449Y-70479200D01*
X147142813Y-70834476D01*
X147242579Y-71180774D01*
X147265364Y-71235781D01*
X147380486Y-71513710D01*
X147448241Y-71636303D01*
X147554799Y-71829107D01*
X147554801Y-71829110D01*
X147554804Y-71829115D01*
X147763341Y-72123019D01*
X148003473Y-72391727D01*
X148272181Y-72631859D01*
X148566085Y-72840396D01*
X148881490Y-73014714D01*
X149214430Y-73152622D01*
X149560717Y-73252385D01*
X149915996Y-73312750D01*
X150275800Y-73332956D01*
X150635604Y-73312750D01*
X150990883Y-73252385D01*
X151035955Y-73239400D01*
X162622244Y-73239400D01*
X162642449Y-73599200D01*
X162702813Y-73954476D01*
X162802579Y-74300774D01*
X162940481Y-74633699D01*
X162940486Y-74633710D01*
X162940493Y-74633722D01*
X163114799Y-74949107D01*
X163114801Y-74949110D01*
X163114804Y-74949115D01*
X163323341Y-75243019D01*
X163563473Y-75511727D01*
X163832181Y-75751859D01*
X164126085Y-75960396D01*
X164126091Y-75960399D01*
X164126092Y-75960400D01*
X164139675Y-75967907D01*
X164441490Y-76134714D01*
X164774430Y-76272622D01*
X165120717Y-76372385D01*
X165475996Y-76432750D01*
X165835800Y-76452956D01*
X166195604Y-76432750D01*
X166550883Y-76372385D01*
X166897170Y-76272622D01*
X167230110Y-76134714D01*
X167545515Y-75960396D01*
X167839419Y-75751859D01*
X168108127Y-75511727D01*
X168348259Y-75243019D01*
X168556796Y-74949115D01*
X168731114Y-74633710D01*
X168869022Y-74300770D01*
X168968785Y-73954483D01*
X169029150Y-73599204D01*
X169049356Y-73239400D01*
X169029150Y-72879596D01*
X168968785Y-72524317D01*
X168869022Y-72178030D01*
X168731114Y-71845090D01*
X168556796Y-71529685D01*
X168348259Y-71235781D01*
X168108127Y-70967073D01*
X167839419Y-70726941D01*
X167545515Y-70518404D01*
X167545510Y-70518401D01*
X167545507Y-70518399D01*
X167300089Y-70382762D01*
X167230110Y-70344086D01*
X167230103Y-70344083D01*
X167230099Y-70344081D01*
X166897174Y-70206179D01*
X166550876Y-70106413D01*
X166195600Y-70046049D01*
X165835800Y-70025844D01*
X165475999Y-70046049D01*
X165120723Y-70106413D01*
X164774425Y-70206179D01*
X164441500Y-70344081D01*
X164441477Y-70344093D01*
X164126092Y-70518399D01*
X164126085Y-70518404D01*
X163911578Y-70670606D01*
X163832177Y-70726944D01*
X163563473Y-70967073D01*
X163323344Y-71235777D01*
X163114799Y-71529692D01*
X162940493Y-71845077D01*
X162940481Y-71845100D01*
X162802579Y-72178025D01*
X162702813Y-72524323D01*
X162642449Y-72879599D01*
X162622244Y-73239400D01*
X151035955Y-73239400D01*
X151337170Y-73152622D01*
X151670110Y-73014714D01*
X151985515Y-72840396D01*
X152279419Y-72631859D01*
X152548127Y-72391727D01*
X152788259Y-72123019D01*
X152996796Y-71829115D01*
X153171114Y-71513710D01*
X153309022Y-71180770D01*
X153408785Y-70834483D01*
X153469150Y-70479204D01*
X153489356Y-70119400D01*
X153469150Y-69759596D01*
X153408785Y-69404317D01*
X153309022Y-69058030D01*
X153171114Y-68725090D01*
X152996796Y-68409685D01*
X152788259Y-68115781D01*
X152548127Y-67847073D01*
X152279419Y-67606941D01*
X151985515Y-67398404D01*
X151985510Y-67398401D01*
X151985507Y-67398399D01*
X151792703Y-67291841D01*
X151670110Y-67224086D01*
X151670103Y-67224083D01*
X151670099Y-67224081D01*
X151337174Y-67086179D01*
X150990876Y-66986413D01*
X150635600Y-66926049D01*
X150275800Y-66905844D01*
X149915999Y-66926049D01*
X149560723Y-66986413D01*
X149214425Y-67086179D01*
X148881500Y-67224081D01*
X148881477Y-67224093D01*
X148566092Y-67398399D01*
X148272177Y-67606944D01*
X148003473Y-67847073D01*
X147763344Y-68115777D01*
X147554799Y-68409692D01*
X147380493Y-68725077D01*
X147380481Y-68725100D01*
X147242579Y-69058025D01*
X147142813Y-69404323D01*
X147082449Y-69759599D01*
X147062244Y-70119400D01*
X141547702Y-70119400D01*
X141458374Y-70071058D01*
X141458372Y-70071057D01*
X141458371Y-70071056D01*
X141245439Y-69997957D01*
X141245430Y-69997955D01*
X141201276Y-69990587D01*
X141023369Y-69960900D01*
X140798231Y-69960900D01*
X140650011Y-69985633D01*
X140576169Y-69997955D01*
X140576160Y-69997957D01*
X140363228Y-70071056D01*
X140363226Y-70071058D01*
X140297896Y-70106413D01*
X140165226Y-70178210D01*
X140165224Y-70178211D01*
X139987562Y-70316491D01*
X139926554Y-70382763D01*
X139865701Y-70419333D01*
X139794736Y-70417198D01*
X139736191Y-70377036D01*
X139715799Y-70341457D01*
X139671689Y-70223197D01*
X139671687Y-70223192D01*
X139584061Y-70106138D01*
X139467007Y-70018512D01*
X139467002Y-70018510D01*
X139330004Y-69967411D01*
X139329996Y-69967409D01*
X139269449Y-69960900D01*
X139269438Y-69960900D01*
X137472162Y-69960900D01*
X137472150Y-69960900D01*
X137411603Y-69967409D01*
X137411595Y-69967411D01*
X137274597Y-70018510D01*
X137274592Y-70018512D01*
X137157538Y-70106138D01*
X137069912Y-70223192D01*
X137069910Y-70223197D01*
X137018811Y-70360195D01*
X137018809Y-70360203D01*
X137012300Y-70420750D01*
X135779299Y-70420750D01*
X135772790Y-70360203D01*
X135772788Y-70360195D01*
X135721689Y-70223197D01*
X135721687Y-70223192D01*
X135634061Y-70106138D01*
X135517007Y-70018512D01*
X135517002Y-70018510D01*
X135380004Y-69967411D01*
X135379996Y-69967409D01*
X135319449Y-69960900D01*
X135319438Y-69960900D01*
X133522162Y-69960900D01*
X133522150Y-69960900D01*
X133461603Y-69967409D01*
X133461595Y-69967411D01*
X133324597Y-70018510D01*
X133324592Y-70018512D01*
X133207538Y-70106138D01*
X133119912Y-70223192D01*
X133119911Y-70223195D01*
X133075800Y-70341458D01*
X133033253Y-70398293D01*
X132966732Y-70423103D01*
X132897358Y-70408011D01*
X132865046Y-70382763D01*
X132804040Y-70316494D01*
X132804039Y-70316493D01*
X132804037Y-70316491D01*
X132684172Y-70223196D01*
X132626376Y-70178211D01*
X132428374Y-70071058D01*
X132428372Y-70071057D01*
X132428371Y-70071056D01*
X132215439Y-69997957D01*
X132215430Y-69997955D01*
X132171276Y-69990587D01*
X131993369Y-69960900D01*
X131768231Y-69960900D01*
X131620011Y-69985633D01*
X131546169Y-69997955D01*
X131546160Y-69997957D01*
X131333228Y-70071056D01*
X131333226Y-70071058D01*
X131267896Y-70106413D01*
X131135226Y-70178210D01*
X131135224Y-70178211D01*
X130957562Y-70316491D01*
X130805079Y-70482129D01*
X130805075Y-70482134D01*
X130681941Y-70670606D01*
X130591503Y-70876786D01*
X130591502Y-70876787D01*
X130536237Y-71095024D01*
X130536236Y-71095030D01*
X130536236Y-71095032D01*
X130517644Y-71319400D01*
X126246700Y-71319400D01*
X126246700Y-67619400D01*
X130517644Y-67619400D01*
X130536237Y-67843775D01*
X130591502Y-68062012D01*
X130591503Y-68062013D01*
X130591504Y-68062016D01*
X130681940Y-68268191D01*
X130681941Y-68268193D01*
X130805075Y-68456665D01*
X130805079Y-68456670D01*
X130957562Y-68622308D01*
X131012131Y-68664781D01*
X131135224Y-68760589D01*
X131333226Y-68867742D01*
X131333227Y-68867742D01*
X131333228Y-68867743D01*
X131445027Y-68906123D01*
X131546165Y-68940844D01*
X131768231Y-68977900D01*
X131768235Y-68977900D01*
X131993365Y-68977900D01*
X131993369Y-68977900D01*
X132215435Y-68940844D01*
X132428374Y-68867742D01*
X132626376Y-68760589D01*
X132804040Y-68622306D01*
X132865045Y-68556037D01*
X132925896Y-68519467D01*
X132996861Y-68521600D01*
X133055406Y-68561762D01*
X133075800Y-68597341D01*
X133119911Y-68715604D01*
X133119912Y-68715607D01*
X133207538Y-68832661D01*
X133324592Y-68920287D01*
X133324594Y-68920288D01*
X133324596Y-68920289D01*
X133379700Y-68940842D01*
X133461595Y-68971388D01*
X133461603Y-68971390D01*
X133522150Y-68977899D01*
X133522155Y-68977899D01*
X133522162Y-68977900D01*
X133522168Y-68977900D01*
X135319432Y-68977900D01*
X135319438Y-68977900D01*
X135319445Y-68977899D01*
X135319449Y-68977899D01*
X135379996Y-68971390D01*
X135379999Y-68971389D01*
X135380001Y-68971389D01*
X135517004Y-68920289D01*
X135587199Y-68867742D01*
X135634061Y-68832661D01*
X135721687Y-68715607D01*
X135721687Y-68715606D01*
X135721689Y-68715604D01*
X135772789Y-68578601D01*
X135774600Y-68561762D01*
X135779299Y-68518049D01*
X135779300Y-68518032D01*
X135779300Y-66720767D01*
X135779299Y-66720750D01*
X137012300Y-66720750D01*
X137012300Y-68518049D01*
X137018809Y-68578596D01*
X137018811Y-68578604D01*
X137069910Y-68715602D01*
X137069912Y-68715607D01*
X137157538Y-68832661D01*
X137274592Y-68920287D01*
X137274594Y-68920288D01*
X137274596Y-68920289D01*
X137329700Y-68940842D01*
X137411595Y-68971388D01*
X137411603Y-68971390D01*
X137472150Y-68977899D01*
X137472155Y-68977899D01*
X137472162Y-68977900D01*
X137472168Y-68977900D01*
X139269432Y-68977900D01*
X139269438Y-68977900D01*
X139269445Y-68977899D01*
X139269449Y-68977899D01*
X139329996Y-68971390D01*
X139329999Y-68971389D01*
X139330001Y-68971389D01*
X139467004Y-68920289D01*
X139537199Y-68867742D01*
X139584061Y-68832661D01*
X139671686Y-68715608D01*
X139671685Y-68715608D01*
X139671689Y-68715604D01*
X139715799Y-68597339D01*
X139758345Y-68540507D01*
X139824866Y-68515696D01*
X139894240Y-68530788D01*
X139926553Y-68556035D01*
X139947329Y-68578604D01*
X139987562Y-68622308D01*
X140042131Y-68664781D01*
X140165224Y-68760589D01*
X140363226Y-68867742D01*
X140363227Y-68867742D01*
X140363228Y-68867743D01*
X140475027Y-68906123D01*
X140576165Y-68940844D01*
X140798231Y-68977900D01*
X140798235Y-68977900D01*
X141023365Y-68977900D01*
X141023369Y-68977900D01*
X141245435Y-68940844D01*
X141458374Y-68867742D01*
X141656376Y-68760589D01*
X141834040Y-68622306D01*
X141986522Y-68456668D01*
X142109660Y-68268191D01*
X142200096Y-68062016D01*
X142255364Y-67843768D01*
X142273956Y-67619400D01*
X142255364Y-67395032D01*
X142200096Y-67176784D01*
X142109660Y-66970609D01*
X142067347Y-66905844D01*
X141986524Y-66782134D01*
X141986520Y-66782129D01*
X141834037Y-66616491D01*
X141714172Y-66523196D01*
X141656376Y-66478211D01*
X141458374Y-66371058D01*
X141458372Y-66371057D01*
X141458371Y-66371056D01*
X141245439Y-66297957D01*
X141245430Y-66297955D01*
X141201276Y-66290587D01*
X141023369Y-66260900D01*
X140798231Y-66260900D01*
X140650011Y-66285633D01*
X140576169Y-66297955D01*
X140576160Y-66297957D01*
X140363228Y-66371056D01*
X140363226Y-66371058D01*
X140165226Y-66478210D01*
X140165224Y-66478211D01*
X139987562Y-66616491D01*
X139926554Y-66682763D01*
X139865701Y-66719333D01*
X139794736Y-66717198D01*
X139736191Y-66677036D01*
X139715799Y-66641457D01*
X139671689Y-66523197D01*
X139671687Y-66523192D01*
X139584061Y-66406138D01*
X139467007Y-66318512D01*
X139467002Y-66318510D01*
X139330004Y-66267411D01*
X139329996Y-66267409D01*
X139269449Y-66260900D01*
X139269438Y-66260900D01*
X137472162Y-66260900D01*
X137472150Y-66260900D01*
X137411603Y-66267409D01*
X137411595Y-66267411D01*
X137274597Y-66318510D01*
X137274592Y-66318512D01*
X137157538Y-66406138D01*
X137069912Y-66523192D01*
X137069910Y-66523197D01*
X137018811Y-66660195D01*
X137018809Y-66660203D01*
X137012300Y-66720750D01*
X135779299Y-66720750D01*
X135772790Y-66660203D01*
X135772788Y-66660195D01*
X135721689Y-66523197D01*
X135721687Y-66523192D01*
X135634061Y-66406138D01*
X135517007Y-66318512D01*
X135517002Y-66318510D01*
X135380004Y-66267411D01*
X135379996Y-66267409D01*
X135319449Y-66260900D01*
X135319438Y-66260900D01*
X133522162Y-66260900D01*
X133522150Y-66260900D01*
X133461603Y-66267409D01*
X133461595Y-66267411D01*
X133324597Y-66318510D01*
X133324592Y-66318512D01*
X133207538Y-66406138D01*
X133119912Y-66523192D01*
X133119911Y-66523195D01*
X133075800Y-66641458D01*
X133033253Y-66698293D01*
X132966732Y-66723103D01*
X132897358Y-66708011D01*
X132865046Y-66682763D01*
X132804040Y-66616494D01*
X132804039Y-66616493D01*
X132804037Y-66616491D01*
X132684172Y-66523196D01*
X132626376Y-66478211D01*
X132428374Y-66371058D01*
X132428372Y-66371057D01*
X132428371Y-66371056D01*
X132215439Y-66297957D01*
X132215430Y-66297955D01*
X132171276Y-66290587D01*
X131993369Y-66260900D01*
X131768231Y-66260900D01*
X131620011Y-66285633D01*
X131546169Y-66297955D01*
X131546160Y-66297957D01*
X131333228Y-66371056D01*
X131333226Y-66371058D01*
X131135226Y-66478210D01*
X131135224Y-66478211D01*
X130957562Y-66616491D01*
X130805079Y-66782129D01*
X130805075Y-66782134D01*
X130681941Y-66970606D01*
X130591503Y-67176786D01*
X130591502Y-67176787D01*
X130536237Y-67395024D01*
X130517644Y-67619400D01*
X126246700Y-67619400D01*
X126246700Y-62543700D01*
X126266702Y-62475579D01*
X126320358Y-62429086D01*
X126372700Y-62417700D01*
X140574949Y-62417700D01*
X140597395Y-62419907D01*
G37*
%TD.AperFunction*%
%TD*%
M02*
