%TF.GenerationSoftware,KiCad,Pcbnew,8.0.2-1*%
%TF.CreationDate,2024-06-23T19:16:47-07:00*%
%TF.ProjectId,antenna_top_cap_v2,616e7465-6e6e-4615-9f74-6f705f636170,rev?*%
%TF.SameCoordinates,Original*%
%TF.FileFunction,Paste,Top*%
%TF.FilePolarity,Positive*%
%FSLAX46Y46*%
G04 Gerber Fmt 4.6, Leading zero omitted, Abs format (unit mm)*
G04 Created by KiCad (PCBNEW 8.0.2-1) date 2024-06-23 19:16:47*
%MOMM*%
%LPD*%
G01*
G04 APERTURE LIST*
G04 Aperture macros list*
%AMRoundRect*
0 Rectangle with rounded corners*
0 $1 Rounding radius*
0 $2 $3 $4 $5 $6 $7 $8 $9 X,Y pos of 4 corners*
0 Add a 4 corners polygon primitive as box body*
4,1,4,$2,$3,$4,$5,$6,$7,$8,$9,$2,$3,0*
0 Add four circle primitives for the rounded corners*
1,1,$1+$1,$2,$3*
1,1,$1+$1,$4,$5*
1,1,$1+$1,$6,$7*
1,1,$1+$1,$8,$9*
0 Add four rect primitives between the rounded corners*
20,1,$1+$1,$2,$3,$4,$5,0*
20,1,$1+$1,$4,$5,$6,$7,0*
20,1,$1+$1,$6,$7,$8,$9,0*
20,1,$1+$1,$8,$9,$2,$3,0*%
G04 Aperture macros list end*
%ADD10RoundRect,0.200000X-0.200000X-0.275000X0.200000X-0.275000X0.200000X0.275000X-0.200000X0.275000X0*%
%ADD11R,0.600000X1.550000*%
%ADD12R,1.200000X1.800000*%
%ADD13R,0.350000X1.000000*%
%ADD14R,1.000000X2.000000*%
%ADD15R,1.550000X0.600000*%
%ADD16R,1.800000X1.200000*%
%ADD17R,1.000000X0.700000*%
%ADD18RoundRect,0.218750X0.256250X-0.218750X0.256250X0.218750X-0.256250X0.218750X-0.256250X-0.218750X0*%
%ADD19RoundRect,0.250000X0.475000X-0.250000X0.475000X0.250000X-0.475000X0.250000X-0.475000X-0.250000X0*%
%ADD20RoundRect,0.135000X0.135000X0.185000X-0.135000X0.185000X-0.135000X-0.185000X0.135000X-0.185000X0*%
%ADD21RoundRect,0.218750X-0.256250X0.218750X-0.256250X-0.218750X0.256250X-0.218750X0.256250X0.218750X0*%
%ADD22RoundRect,0.200000X0.200000X0.275000X-0.200000X0.275000X-0.200000X-0.275000X0.200000X-0.275000X0*%
%ADD23RoundRect,0.225000X0.225000X0.250000X-0.225000X0.250000X-0.225000X-0.250000X0.225000X-0.250000X0*%
%ADD24RoundRect,0.135000X-0.135000X-0.185000X0.135000X-0.185000X0.135000X0.185000X-0.135000X0.185000X0*%
%ADD25RoundRect,0.150000X-0.350000X0.150000X-0.350000X-0.150000X0.350000X-0.150000X0.350000X0.150000X0*%
%ADD26RoundRect,0.250000X-0.650000X0.375000X-0.650000X-0.375000X0.650000X-0.375000X0.650000X0.375000X0*%
%ADD27R,6.390000X11.320000*%
%ADD28R,6.400000X11.300000*%
%ADD29R,1.000000X0.600000*%
%ADD30R,1.800000X1.250000*%
%ADD31RoundRect,0.150000X0.512500X0.150000X-0.512500X0.150000X-0.512500X-0.150000X0.512500X-0.150000X0*%
%ADD32R,0.400000X1.100000*%
%ADD33RoundRect,0.225000X-0.250000X0.225000X-0.250000X-0.225000X0.250000X-0.225000X0.250000X0.225000X0*%
%ADD34R,1.300000X2.000000*%
%ADD35RoundRect,0.225000X0.250000X-0.225000X0.250000X0.225000X-0.250000X0.225000X-0.250000X-0.225000X0*%
%ADD36R,0.650000X0.400000*%
%ADD37RoundRect,0.225000X-0.017678X0.335876X-0.335876X0.017678X0.017678X-0.335876X0.335876X-0.017678X0*%
%ADD38R,0.500000X0.800000*%
%ADD39R,0.400000X0.800000*%
%ADD40RoundRect,0.135000X0.185000X-0.135000X0.185000X0.135000X-0.185000X0.135000X-0.185000X-0.135000X0*%
G04 APERTURE END LIST*
D10*
%TO.C,R4*%
X122695800Y-135769400D03*
X124345800Y-135769400D03*
%TD*%
D11*
%TO.C,J17*%
X181845800Y-81944400D03*
X182845800Y-81944400D03*
X183845800Y-81944400D03*
X184845800Y-81944400D03*
D12*
X180545800Y-79419400D03*
X186145800Y-79419400D03*
%TD*%
D13*
%TO.C,U3*%
X166395800Y-129469399D03*
X165745800Y-129469400D03*
X165095800Y-129469399D03*
X165095800Y-131269401D03*
X165745800Y-131269400D03*
X166395800Y-131269401D03*
%TD*%
D14*
%TO.C,U6*%
X188345800Y-104529400D03*
X186345800Y-104529400D03*
X184345800Y-104529400D03*
X182345800Y-104529400D03*
X180345800Y-104529400D03*
X178345800Y-104529400D03*
X176345800Y-104529400D03*
X174345800Y-104529400D03*
X174345800Y-120529400D03*
X176345800Y-120529400D03*
X178345800Y-120529400D03*
X180345800Y-120529400D03*
X182345800Y-120529400D03*
X184345800Y-120529400D03*
X186345800Y-120529400D03*
X188345800Y-120529400D03*
%TD*%
D15*
%TO.C,J16*%
X201350800Y-82659400D03*
X201350800Y-81659400D03*
X201350800Y-80659400D03*
X201350800Y-79659400D03*
D16*
X198825800Y-83959400D03*
X198825800Y-78359400D03*
%TD*%
D17*
%TO.C,U4*%
X171645800Y-127169400D03*
X171645800Y-126219400D03*
X171645800Y-125269400D03*
X169045800Y-125269400D03*
X169045800Y-126219400D03*
X169045800Y-127169400D03*
%TD*%
D18*
%TO.C,D1*%
X167945800Y-110306900D03*
X167945800Y-108731900D03*
%TD*%
D15*
%TO.C,J14*%
X201305800Y-92939400D03*
X201305800Y-91939400D03*
X201305800Y-90939400D03*
X201305800Y-89939400D03*
D16*
X198780800Y-94239400D03*
X198780800Y-88639400D03*
%TD*%
D18*
%TO.C,D4*%
X212355800Y-92154400D03*
X212355800Y-90579400D03*
%TD*%
%TO.C,D5*%
X212365800Y-81824400D03*
X212365800Y-80249400D03*
%TD*%
D11*
%TO.C,J4*%
X166745800Y-103506900D03*
X165745800Y-103506900D03*
X164745800Y-103506900D03*
X163745800Y-103506900D03*
D12*
X168045800Y-106031900D03*
X162445800Y-106031900D03*
%TD*%
D19*
%TO.C,C2*%
X131845800Y-124569399D03*
X131845800Y-122669401D03*
%TD*%
D20*
%TO.C,R6*%
X121995800Y-89359400D03*
X120975800Y-89359400D03*
%TD*%
D19*
%TO.C,C1*%
X138745800Y-124619400D03*
X138745800Y-122719400D03*
%TD*%
D21*
%TO.C,D3*%
X118595800Y-91199400D03*
X118595800Y-92774400D03*
%TD*%
D22*
%TO.C,R10*%
X167370800Y-126219400D03*
X165720800Y-126219400D03*
%TD*%
D23*
%TO.C,C4*%
X184050800Y-122869400D03*
X182500800Y-122869400D03*
%TD*%
D24*
%TO.C,R8*%
X208325800Y-83259400D03*
X209345800Y-83259400D03*
%TD*%
D25*
%TO.C,J19*%
X151645800Y-106519401D03*
X151645800Y-108019400D03*
X151645800Y-109519400D03*
X151645800Y-111019400D03*
X151645800Y-112519400D03*
X151645800Y-114019399D03*
X151645800Y-115519401D03*
X151645800Y-117019400D03*
X151645800Y-118519400D03*
X151645800Y-120019400D03*
X151645800Y-121519400D03*
X151645800Y-123019399D03*
D26*
X146455800Y-103914400D03*
X146455800Y-125624400D03*
%TD*%
D27*
%TO.C,J6*%
X160783800Y-135889400D03*
D28*
X170745800Y-135869400D03*
%TD*%
D10*
%TO.C,R9*%
X168245800Y-113919400D03*
X169895800Y-113919400D03*
%TD*%
D29*
%TO.C,J12*%
X132415800Y-79119400D03*
X132415800Y-80619400D03*
X132415800Y-82119400D03*
X132415800Y-83619400D03*
X132415800Y-85119400D03*
D30*
X127225800Y-76514400D03*
X127225800Y-87724400D03*
%TD*%
D31*
%TO.C,U2*%
X136083300Y-124569399D03*
X136083300Y-123619400D03*
X136083300Y-122669401D03*
X133808300Y-122669401D03*
X133808300Y-124569399D03*
%TD*%
D32*
%TO.C,IC1*%
X166220801Y-108269400D03*
X165570800Y-108269400D03*
X164920800Y-108269400D03*
X164270799Y-108269400D03*
X164270799Y-112569400D03*
X164920800Y-112569400D03*
X165570800Y-112569400D03*
X166220801Y-112569400D03*
%TD*%
D24*
%TO.C,R7*%
X208345800Y-94019400D03*
X209365800Y-94019400D03*
%TD*%
D10*
%TO.C,R2*%
X122710800Y-134049400D03*
X124360800Y-134049400D03*
%TD*%
D33*
%TO.C,C3*%
X117145800Y-136144400D03*
X117145800Y-137694400D03*
%TD*%
D34*
%TO.C,U5*%
X174337300Y-120534401D03*
X176337300Y-120534401D03*
X178337300Y-120534401D03*
X180337300Y-120534401D03*
X182337300Y-120534401D03*
X184337300Y-120534401D03*
X186337300Y-120534401D03*
X188337300Y-120534401D03*
X188337300Y-85534401D03*
X186337300Y-85534401D03*
X184337300Y-85534401D03*
X182337300Y-85534401D03*
X180337300Y-85534401D03*
X178337300Y-85534401D03*
X176337300Y-85534401D03*
X174337300Y-85534401D03*
%TD*%
D35*
%TO.C,C6*%
X162545800Y-113894400D03*
X162545800Y-112344400D03*
%TD*%
D36*
%TO.C,Q1*%
X128895800Y-127269400D03*
X128895799Y-126619400D03*
X128895800Y-125969400D03*
X126995800Y-125969400D03*
X126995801Y-126619400D03*
X126995800Y-127269400D03*
%TD*%
D37*
%TO.C,C8*%
X174093808Y-122871392D03*
X172997792Y-123967408D03*
%TD*%
D21*
%TO.C,D2*%
X118445800Y-80989400D03*
X118445800Y-82564400D03*
%TD*%
D15*
%TO.C,J18*%
X192640800Y-99259400D03*
X192640800Y-100259400D03*
X192640800Y-101259400D03*
X192640800Y-102259400D03*
D16*
X195165800Y-97959400D03*
X195165800Y-103559400D03*
%TD*%
D38*
%TO.C,R3*%
X129145800Y-122619400D03*
D39*
X128345800Y-122619400D03*
X127545800Y-122619400D03*
D38*
X126745800Y-122619400D03*
X126745800Y-124419400D03*
D39*
X127545800Y-124419400D03*
X128345800Y-124419400D03*
D38*
X129145800Y-124419400D03*
%TD*%
D20*
%TO.C,R5*%
X121965800Y-79609400D03*
X120945800Y-79609400D03*
%TD*%
D40*
%TO.C,R1*%
X167945800Y-112629399D03*
X167945800Y-111609401D03*
%TD*%
M02*
