%TF.GenerationSoftware,KiCad,Pcbnew,9.0.0*%
%TF.CreationDate,2025-05-03T12:21:44-07:00*%
%TF.ProjectId,antenna_top_cap_v2a,616e7465-6e6e-4615-9f74-6f705f636170,rev?*%
%TF.SameCoordinates,Original*%
%TF.FileFunction,Copper,L4,Bot*%
%TF.FilePolarity,Positive*%
%FSLAX46Y46*%
G04 Gerber Fmt 4.6, Leading zero omitted, Abs format (unit mm)*
G04 Created by KiCad (PCBNEW 9.0.0) date 2025-05-03 12:21:44*
%MOMM*%
%LPD*%
G01*
G04 APERTURE LIST*
G04 Aperture macros list*
%AMRoundRect*
0 Rectangle with rounded corners*
0 $1 Rounding radius*
0 $2 $3 $4 $5 $6 $7 $8 $9 X,Y pos of 4 corners*
0 Add a 4 corners polygon primitive as box body*
4,1,4,$2,$3,$4,$5,$6,$7,$8,$9,$2,$3,0*
0 Add four circle primitives for the rounded corners*
1,1,$1+$1,$2,$3*
1,1,$1+$1,$4,$5*
1,1,$1+$1,$6,$7*
1,1,$1+$1,$8,$9*
0 Add four rect primitives between the rounded corners*
20,1,$1+$1,$2,$3,$4,$5,0*
20,1,$1+$1,$4,$5,$6,$7,0*
20,1,$1+$1,$6,$7,$8,$9,0*
20,1,$1+$1,$8,$9,$2,$3,0*%
G04 Aperture macros list end*
%TA.AperFunction,NonConductor*%
%ADD10C,0.200000*%
%TD*%
%ADD11C,0.500000*%
%TA.AperFunction,NonConductor*%
%ADD12C,0.500000*%
%TD*%
%TA.AperFunction,EtchedComponent*%
%ADD13C,0.000000*%
%TD*%
%TA.AperFunction,ComponentPad*%
%ADD14O,1.700000X1.700000*%
%TD*%
%TA.AperFunction,ComponentPad*%
%ADD15R,1.700000X1.700000*%
%TD*%
%TA.AperFunction,ComponentPad*%
%ADD16C,5.400000*%
%TD*%
%TA.AperFunction,ComponentPad*%
%ADD17RoundRect,0.250000X0.575000X-0.350000X0.575000X0.350000X-0.575000X0.350000X-0.575000X-0.350000X0*%
%TD*%
%TA.AperFunction,ComponentPad*%
%ADD18O,1.650000X1.200000*%
%TD*%
%TA.AperFunction,ComponentPad*%
%ADD19C,2.050000*%
%TD*%
%TA.AperFunction,ComponentPad*%
%ADD20C,2.250000*%
%TD*%
%TA.AperFunction,HeatsinkPad*%
%ADD21C,0.500000*%
%TD*%
%TA.AperFunction,HeatsinkPad*%
%ADD22R,1.600000X1.800000*%
%TD*%
%TA.AperFunction,SMDPad,CuDef*%
%ADD23R,1.600000X0.700000*%
%TD*%
%TA.AperFunction,SMDPad,CuDef*%
%ADD24RoundRect,0.218750X-0.218750X-0.256250X0.218750X-0.256250X0.218750X0.256250X-0.218750X0.256250X0*%
%TD*%
%TA.AperFunction,SMDPad,CuDef*%
%ADD25R,0.600000X1.450000*%
%TD*%
%TA.AperFunction,SMDPad,CuDef*%
%ADD26R,0.300000X1.450000*%
%TD*%
%TA.AperFunction,HeatsinkPad*%
%ADD27O,1.000000X1.600000*%
%TD*%
%TA.AperFunction,HeatsinkPad*%
%ADD28O,1.000000X2.100000*%
%TD*%
%TA.AperFunction,SMDPad,CuDef*%
%ADD29R,1.000000X0.500000*%
%TD*%
%TA.AperFunction,SMDPad,CuDef*%
%ADD30RoundRect,0.135000X-0.135000X-0.185000X0.135000X-0.185000X0.135000X0.185000X-0.135000X0.185000X0*%
%TD*%
%TA.AperFunction,ViaPad*%
%ADD31C,0.800000*%
%TD*%
%TA.AperFunction,ViaPad*%
%ADD32C,0.460000*%
%TD*%
%TA.AperFunction,Conductor*%
%ADD33C,0.254000*%
%TD*%
%TA.AperFunction,Conductor*%
%ADD34C,0.152400*%
%TD*%
%TA.AperFunction,Conductor*%
%ADD35C,0.300000*%
%TD*%
%TA.AperFunction,Conductor*%
%ADD36C,0.250000*%
%TD*%
%TA.AperFunction,Conductor*%
%ADD37C,0.381000*%
%TD*%
G04 APERTURE END LIST*
D10*
X154775800Y-156309400D02*
X157475800Y-156309400D01*
X156625800Y-154459400D02*
X157475800Y-153609400D01*
X153925800Y-154459400D02*
X154775800Y-153609400D01*
X157455800Y-152719400D02*
X155975800Y-154199400D01*
X154775800Y-153609400D02*
X154775800Y-156309400D01*
X157475800Y-156309400D02*
X156625800Y-157159400D01*
X153925800Y-154459400D02*
X153925800Y-157159400D01*
X156625800Y-154459400D02*
X153925800Y-154459400D01*
X157475800Y-153609400D02*
X157475800Y-156309400D01*
X153925800Y-157159400D02*
X154775800Y-156309400D01*
X153925800Y-157159400D02*
X156625800Y-157159400D01*
X157475800Y-153609400D02*
X154775800Y-153609400D01*
X156625800Y-157159400D02*
X156625800Y-154459400D01*
X153825800Y-152709400D02*
X155295800Y-154179400D01*
D11*
D12*
X133127228Y-152439114D02*
X133031990Y-152343876D01*
X133031990Y-152343876D02*
X132841514Y-152248638D01*
X132841514Y-152248638D02*
X132365323Y-152248638D01*
X132365323Y-152248638D02*
X132174847Y-152343876D01*
X132174847Y-152343876D02*
X132079609Y-152439114D01*
X132079609Y-152439114D02*
X131984371Y-152629590D01*
X131984371Y-152629590D02*
X131984371Y-152820066D01*
X131984371Y-152820066D02*
X132079609Y-153105780D01*
X132079609Y-153105780D02*
X133222466Y-154248638D01*
X133222466Y-154248638D02*
X131984371Y-154248638D01*
D11*
D12*
X141253040Y-153625791D02*
X139395897Y-153625791D01*
X139395897Y-153625791D02*
X140395897Y-154768648D01*
X140395897Y-154768648D02*
X139967326Y-154768648D01*
X139967326Y-154768648D02*
X139681612Y-154911505D01*
X139681612Y-154911505D02*
X139538754Y-155054362D01*
X139538754Y-155054362D02*
X139395897Y-155340076D01*
X139395897Y-155340076D02*
X139395897Y-156054362D01*
X139395897Y-156054362D02*
X139538754Y-156340076D01*
X139538754Y-156340076D02*
X139681612Y-156482934D01*
X139681612Y-156482934D02*
X139967326Y-156625791D01*
X139967326Y-156625791D02*
X140824469Y-156625791D01*
X140824469Y-156625791D02*
X141110183Y-156482934D01*
X141110183Y-156482934D02*
X141253040Y-156340076D01*
X138110183Y-156625791D02*
X138110183Y-153625791D01*
X138110183Y-153625791D02*
X136967326Y-153625791D01*
X136967326Y-153625791D02*
X136681611Y-153768648D01*
X136681611Y-153768648D02*
X136538754Y-153911505D01*
X136538754Y-153911505D02*
X136395897Y-154197219D01*
X136395897Y-154197219D02*
X136395897Y-154625791D01*
X136395897Y-154625791D02*
X136538754Y-154911505D01*
X136538754Y-154911505D02*
X136681611Y-155054362D01*
X136681611Y-155054362D02*
X136967326Y-155197219D01*
X136967326Y-155197219D02*
X138110183Y-155197219D01*
X135395897Y-154625791D02*
X134681611Y-156625791D01*
X133967326Y-154625791D02*
X134681611Y-156625791D01*
X134681611Y-156625791D02*
X134967326Y-157340076D01*
X134967326Y-157340076D02*
X135110183Y-157482934D01*
X135110183Y-157482934D02*
X135395897Y-157625791D01*
D13*
%TA.AperFunction,EtchedComponent*%
%TO.C,G\u002A\u002A\u002A*%
G36*
X148667444Y-153275066D02*
G01*
X148670426Y-153423965D01*
X148677741Y-153842151D01*
X147956191Y-153848042D01*
X147234640Y-153853934D01*
X147234640Y-154032493D01*
X149488946Y-154054813D01*
X149616573Y-154114631D01*
X149668782Y-154141244D01*
X149827766Y-154254087D01*
X149959624Y-154401176D01*
X150062753Y-154580425D01*
X150135550Y-154789748D01*
X150195074Y-155076325D01*
X150226572Y-155401319D01*
X150217591Y-155725680D01*
X150168369Y-156058662D01*
X150119311Y-156261849D01*
X150046321Y-156470711D01*
X149957242Y-156640618D01*
X149850780Y-156773499D01*
X149725644Y-156871284D01*
X149580540Y-156935900D01*
X149534147Y-156945766D01*
X149441770Y-156956100D01*
X149321305Y-156963099D01*
X149182048Y-156966061D01*
X148875150Y-156967554D01*
X148875150Y-156603966D01*
X148874248Y-156487200D01*
X148868203Y-156324738D01*
X148855272Y-156192671D01*
X148834060Y-156082278D01*
X148803173Y-155984836D01*
X148761215Y-155891622D01*
X148755840Y-155881416D01*
X148679062Y-155770943D01*
X148573045Y-155660862D01*
X148450281Y-155562689D01*
X148323265Y-155487940D01*
X148172075Y-155416324D01*
X147256960Y-155405164D01*
X147047587Y-155402566D01*
X146858349Y-155399969D01*
X146705023Y-155397339D01*
X146583060Y-155394395D01*
X146487912Y-155390857D01*
X146415033Y-155386442D01*
X146359873Y-155380870D01*
X146317885Y-155373859D01*
X146284522Y-155365129D01*
X146255234Y-155354397D01*
X146225476Y-155341384D01*
X146134572Y-155288189D01*
X146023769Y-155194366D01*
X145926112Y-155081687D01*
X145854810Y-154963615D01*
X145848283Y-154949234D01*
X145837156Y-154921608D01*
X145828183Y-154891143D01*
X145821133Y-154853193D01*
X145815774Y-154803115D01*
X145811874Y-154736263D01*
X145809203Y-154647994D01*
X145807529Y-154533663D01*
X145806619Y-154388625D01*
X145806243Y-154208237D01*
X145806169Y-153987853D01*
X145806169Y-153152776D01*
X147786750Y-153152776D01*
X147787667Y-153248469D01*
X147826689Y-153347500D01*
X147830129Y-153352900D01*
X147884025Y-153411639D01*
X147948648Y-153453519D01*
X148002626Y-153472415D01*
X148095765Y-153480652D01*
X148178069Y-153448686D01*
X148257594Y-153374454D01*
X148266113Y-153364102D01*
X148304007Y-153304495D01*
X148319408Y-153239694D01*
X148317352Y-153150858D01*
X148309546Y-153103640D01*
X148272230Y-153031063D01*
X148198550Y-152971188D01*
X148138108Y-152942599D01*
X148040914Y-152928081D01*
X147951020Y-152948074D01*
X147874587Y-152996344D01*
X147817777Y-153066657D01*
X147786750Y-153152776D01*
X145806169Y-153152776D01*
X145806169Y-153117378D01*
X145860800Y-153006361D01*
X145870345Y-152987747D01*
X145967922Y-152848137D01*
X146098511Y-152727265D01*
X146252515Y-152634249D01*
X146337182Y-152598994D01*
X146466685Y-152559735D01*
X146616295Y-152530624D01*
X146792016Y-152510825D01*
X146999850Y-152499499D01*
X147245800Y-152495811D01*
X147315625Y-152496109D01*
X147617391Y-152506560D01*
X147878381Y-152532179D01*
X148099711Y-152573296D01*
X148282492Y-152630238D01*
X148427840Y-152703336D01*
X148536866Y-152792918D01*
X148610685Y-152899314D01*
X148626114Y-152932487D01*
X148640805Y-152972907D01*
X148651413Y-153019727D01*
X148658808Y-153080595D01*
X148663861Y-153163159D01*
X148666311Y-153239694D01*
X148667444Y-153275066D01*
G37*
%TD.AperFunction*%
%TA.AperFunction,EtchedComponent*%
G36*
X148666246Y-157772550D02*
G01*
X148661342Y-157827818D01*
X148654697Y-157869518D01*
X148646046Y-157902454D01*
X148635121Y-157931427D01*
X148621656Y-157961241D01*
X148557710Y-158063044D01*
X148460150Y-158169365D01*
X148342741Y-158265040D01*
X148217401Y-158338934D01*
X148124050Y-158377818D01*
X147989504Y-158424135D01*
X147841324Y-158467695D01*
X147695855Y-158503743D01*
X147569438Y-158527523D01*
X147560904Y-158528733D01*
X147333112Y-158547524D01*
X147099312Y-158543036D01*
X146866543Y-158517031D01*
X146641847Y-158471271D01*
X146432264Y-158407517D01*
X146244836Y-158327532D01*
X146086603Y-158233078D01*
X145964606Y-158125917D01*
X145959318Y-158119997D01*
X145899770Y-158045235D01*
X145856077Y-157968957D01*
X145825997Y-157882589D01*
X145816980Y-157831966D01*
X146156990Y-157831966D01*
X146180025Y-157919538D01*
X146233541Y-157995586D01*
X146319298Y-158051411D01*
X146350673Y-158063320D01*
X146448731Y-158079768D01*
X146534430Y-158055598D01*
X146615797Y-157989123D01*
X146646668Y-157949824D01*
X146686029Y-157856863D01*
X146690100Y-157761065D01*
X146662492Y-157671232D01*
X146606814Y-157596166D01*
X146526676Y-157544672D01*
X146425689Y-157525551D01*
X146334453Y-157540453D01*
X146253167Y-157587114D01*
X146195321Y-157657054D01*
X146162675Y-157741571D01*
X146156990Y-157831966D01*
X145816980Y-157831966D01*
X145807287Y-157777552D01*
X145797705Y-157645271D01*
X145795009Y-157477169D01*
X145795009Y-157169051D01*
X146514825Y-157163162D01*
X147234640Y-157157273D01*
X147241504Y-157062414D01*
X147248367Y-156967554D01*
X146112822Y-156967554D01*
X146039955Y-156967553D01*
X145777151Y-156967419D01*
X145554209Y-156966742D01*
X145367314Y-156965081D01*
X145212648Y-156961994D01*
X145086396Y-156957038D01*
X144984740Y-156949772D01*
X144903865Y-156939753D01*
X144839953Y-156926539D01*
X144789189Y-156909688D01*
X144747756Y-156888758D01*
X144711837Y-156863306D01*
X144677616Y-156832890D01*
X144641276Y-156797069D01*
X144595466Y-156745763D01*
X144504067Y-156608677D01*
X144422213Y-156439860D01*
X144352363Y-156247808D01*
X144296974Y-156041020D01*
X144258504Y-155827994D01*
X144239412Y-155617225D01*
X144242154Y-155417213D01*
X144257952Y-155252597D01*
X144296199Y-155000954D01*
X144348794Y-154771591D01*
X144414236Y-154568875D01*
X144491027Y-154397172D01*
X144577665Y-154260847D01*
X144672651Y-154164268D01*
X144694991Y-154147681D01*
X144754753Y-154109574D01*
X144817395Y-154082091D01*
X144891258Y-154063544D01*
X144984683Y-154052245D01*
X145106012Y-154046504D01*
X145263586Y-154044632D01*
X145613798Y-154043653D01*
X145620704Y-154473310D01*
X145627611Y-154902967D01*
X145699226Y-155054158D01*
X145759588Y-155163182D01*
X145885037Y-155319708D01*
X146038704Y-155444099D01*
X146216087Y-155533019D01*
X146412687Y-155583131D01*
X146451584Y-155587004D01*
X146538779Y-155591951D01*
X146659458Y-155596366D01*
X146807184Y-155600093D01*
X146975518Y-155602978D01*
X147158021Y-155604865D01*
X147348255Y-155605601D01*
X148131465Y-155606043D01*
X148268300Y-155674420D01*
X148292277Y-155686952D01*
X148435348Y-155788154D01*
X148549961Y-155917369D01*
X148628887Y-156066734D01*
X148639189Y-156095868D01*
X148649033Y-156130502D01*
X148656843Y-156170718D01*
X148662853Y-156221397D01*
X148667292Y-156287421D01*
X148670394Y-156373674D01*
X148672389Y-156485037D01*
X148673510Y-156626393D01*
X148673987Y-156802624D01*
X148674053Y-157018611D01*
X148674018Y-157124600D01*
X148673807Y-157319747D01*
X148673192Y-157477313D01*
X148671904Y-157602100D01*
X148669678Y-157698912D01*
X148666781Y-157761065D01*
X148666246Y-157772550D01*
G37*
%TD.AperFunction*%
%TD*%
D14*
%TO.P,J7,1,Power*%
%TO.N,BURN*%
X154275800Y-114409400D03*
D15*
X155545800Y-111869400D03*
X158085800Y-111869400D03*
D14*
X159645800Y-114409400D03*
D15*
%TO.P,J7,2,GND*%
%TO.N,GND*%
X154275800Y-121689400D03*
X155545800Y-124229400D03*
X158085800Y-124229400D03*
X159645800Y-121689400D03*
%TD*%
%TO.P,J3,1,Pin_1*%
%TO.N,~{FC_RESET}*%
X134420800Y-67619400D03*
D14*
%TO.P,J3,2,Pin_2*%
%TO.N,GND*%
X131880800Y-67619400D03*
%TD*%
D16*
%TO.P,TP3,1,1*%
%TO.N,unconnected-(TP3-Pad1)*%
X150275800Y-70119400D03*
%TD*%
D17*
%TO.P,J1,1,Pin_1*%
%TO.N,GND*%
X164745800Y-111119400D03*
D18*
%TO.P,J1,2,Pin_2*%
X166745801Y-111119400D03*
%TO.P,J1,3,Pin_3*%
%TO.N,BURN*%
X164745800Y-109119399D03*
%TO.P,J1,4,Pin_4*%
X166745800Y-109119400D03*
%TO.P,J1,5,Pin_5*%
%TO.N,SCL0*%
X164745800Y-107119400D03*
%TO.P,J1,6,Pin_6*%
%TO.N,Dir_Chrg_In*%
X166745800Y-107119399D03*
%TO.P,J1,7,Pin_7*%
%TO.N,SDA0*%
X164745800Y-105119400D03*
%TO.P,J1,8,Pin_8*%
%TO.N,+3V3*%
X166745800Y-105119400D03*
%TO.P,J1,9,Pin_9*%
%TO.N,USB_D+*%
X164745800Y-103119400D03*
%TO.P,J1,10,Pin_10*%
%TO.N,USB_D-*%
X166745800Y-103119400D03*
%TO.P,J1,11,Pin_11*%
%TO.N,FC_USBBOOT*%
X164745800Y-101119400D03*
%TO.P,J1,12,Pin_12*%
%TO.N,~{FC_RESET}*%
X166745800Y-101119400D03*
%TD*%
D16*
%TO.P,TP7,1,1*%
%TO.N,unconnected-(TP7-Pad1)*%
X142693713Y-79756113D03*
%TD*%
%TO.P,TP2,1,1*%
%TO.N,unconnected-(TP2-Pad1)*%
X152215800Y-79769400D03*
%TD*%
%TO.P,TP5,1,1*%
%TO.N,unconnected-(TP5-Pad1)*%
X126825800Y-112239400D03*
%TD*%
%TO.P,TP6,1,1*%
%TO.N,unconnected-(TP6-Pad1)*%
X165835800Y-73239400D03*
%TD*%
%TO.P,TP1,1,1*%
%TO.N,unconnected-(TP1-Pad1)*%
X165835800Y-151189400D03*
%TD*%
%TO.P,TP4,1,1*%
%TO.N,unconnected-(TP4-Pad1)*%
X204805800Y-112189400D03*
%TD*%
D19*
%TO.P,J5,1,In*%
%TO.N,Net-(J5-In)*%
X165745800Y-118919400D03*
D20*
%TO.P,J5,2,Ext*%
%TO.N,GND*%
X163205800Y-116379400D03*
X163205800Y-121459400D03*
X168285800Y-116379400D03*
X168285800Y-121459400D03*
%TD*%
D21*
%TO.P,U16,9,EP/GND*%
%TO.N,GND*%
X152845800Y-107619400D03*
X152845800Y-106319400D03*
D22*
X152295800Y-106969400D03*
D21*
X151745800Y-107619400D03*
X151745800Y-106319400D03*
%TD*%
D15*
%TO.P,J4,1,Pin_1*%
%TO.N,FC_USBBOOT*%
X134420800Y-71319400D03*
D14*
%TO.P,J4,2,Pin_2*%
%TO.N,GND*%
X131880800Y-71319400D03*
%TD*%
D23*
%TO.P,U4,1,SCL*%
%TO.N,SCL0*%
X151645800Y-111214400D03*
%TO.P,U4,2,VDD*%
%TO.N,+3V3*%
X151645800Y-112484400D03*
%TO.P,U4,3,GND*%
%TO.N,GND*%
X151645800Y-113754400D03*
%TO.P,U4,4,SDA*%
%TO.N,SDA0*%
X151645800Y-115024400D03*
%TD*%
D24*
%TO.P,D1,1,A*%
%TO.N,Net-(D1-A)*%
X171458299Y-105119400D03*
%TO.P,D1,2,C*%
%TO.N,GND*%
X173033301Y-105119400D03*
%TD*%
D15*
%TO.P,J2,1,Pin_1*%
%TO.N,Dir_Chrg_In*%
X140170800Y-69519400D03*
D14*
%TO.P,J2,2,Pin_2*%
%TO.N,GND*%
X142710800Y-69519400D03*
%TD*%
D25*
%TO.P,J12,A1,GND*%
%TO.N,GND*%
X194315800Y-70714400D03*
%TO.P,J12,A4,VBUS*%
%TO.N,unconnected-(J12-VBUS-PadA4)_3*%
X195115799Y-70714400D03*
D26*
%TO.P,J12,A5,CC1*%
%TO.N,Net-(J12-CC1)*%
X196315800Y-70714399D03*
%TO.P,J12,A6,D+*%
%TO.N,USB_D+*%
X197315800Y-70714400D03*
%TO.P,J12,A7,D-*%
%TO.N,USB_D-*%
X197815800Y-70714400D03*
%TO.P,J12,A8,SBU1*%
%TO.N,unconnected-(J12-SBU1-PadA8)*%
X198815800Y-70714399D03*
D25*
%TO.P,J12,A9,VBUS*%
%TO.N,unconnected-(J12-VBUS-PadA4)_2*%
X200015801Y-70714400D03*
%TO.P,J12,A12,GND*%
%TO.N,GND*%
X200815800Y-70714400D03*
%TO.P,J12,B1,GND*%
X200815800Y-70714400D03*
%TO.P,J12,B4,VBUS*%
%TO.N,unconnected-(J12-VBUS-PadA4)_1*%
X200015801Y-70714400D03*
D26*
%TO.P,J12,B5,CC2*%
%TO.N,Net-(J12-CC2)*%
X199315800Y-70714400D03*
%TO.P,J12,B6,D+*%
%TO.N,USB_D+*%
X198315800Y-70714400D03*
%TO.P,J12,B7,D-*%
%TO.N,USB_D-*%
X196815800Y-70714400D03*
%TO.P,J12,B8,SBU2*%
%TO.N,unconnected-(J12-SBU2-PadB8)*%
X195815800Y-70714400D03*
D25*
%TO.P,J12,B9,VBUS*%
%TO.N,unconnected-(J12-VBUS-PadA4)*%
X195115799Y-70714400D03*
%TO.P,J12,B12,GND*%
%TO.N,GND*%
X194315800Y-70714400D03*
D27*
%TO.P,J12,S1,SHIELD*%
X193245800Y-65619400D03*
D28*
X193245800Y-69799400D03*
D27*
X201885800Y-65619400D03*
D28*
X201885800Y-69799400D03*
%TD*%
D29*
%TO.P,U1,1,GPIO1*%
%TO.N,/GPIO*%
X121525800Y-135279400D03*
%TO.P,U1,2,NC*%
%TO.N,unconnected-(U1-NC-Pad2)*%
X121525800Y-136029400D03*
%TO.P,U1,3,NC*%
%TO.N,unconnected-(U1-NC-Pad3)*%
X121525800Y-136779400D03*
%TO.P,U1,4,GPIO0*%
%TO.N,/XSHUT_2.8V*%
X121525800Y-137529400D03*
%TO.P,U1,5,SCL*%
%TO.N,/SCL_3V*%
X121525800Y-138279400D03*
%TO.P,U1,6,SDA*%
%TO.N,/SDA_3V*%
X121525800Y-139029400D03*
%TO.P,U1,7,NC*%
%TO.N,unconnected-(U1-NC-Pad7)*%
X119125800Y-139029400D03*
%TO.P,U1,8,AVDD_VCSEL*%
%TO.N,2.8V*%
X119125800Y-138279400D03*
%TO.P,U1,9,AVSS_VCSEL*%
%TO.N,GND*%
X119125800Y-137529400D03*
%TO.P,U1,10,AVDD*%
%TO.N,2.8V*%
X119125800Y-136779400D03*
%TO.P,U1,11,NC*%
%TO.N,unconnected-(U1-NC-Pad11)*%
X119125800Y-136029400D03*
%TO.P,U1,12,AVSS*%
%TO.N,GND*%
X119125800Y-135279400D03*
%TD*%
D30*
%TO.P,R1,1,1*%
%TO.N,+3V3*%
X169135800Y-105119400D03*
%TO.P,R1,2,2*%
%TO.N,Net-(D1-A)*%
X170155798Y-105119400D03*
%TD*%
D31*
%TO.N,GND*%
X200745800Y-72119400D03*
X193245800Y-71619400D03*
X167245800Y-127119400D03*
X167245800Y-123119400D03*
X130347958Y-123222637D03*
X156245800Y-105119400D03*
X167245800Y-126119400D03*
X164445800Y-125519400D03*
X167245800Y-124119400D03*
X167395800Y-129169400D03*
X147745800Y-104619400D03*
X164445800Y-123519400D03*
X117945800Y-138629545D03*
X174045800Y-105019400D03*
X164445800Y-124519400D03*
X164545800Y-122519400D03*
X163895800Y-129119400D03*
D32*
X164557800Y-131307400D03*
D31*
X164445800Y-126519400D03*
X167245800Y-125119400D03*
X164445800Y-127419400D03*
X118145800Y-134819400D03*
X164971175Y-128319400D03*
X166545800Y-128419400D03*
X149970800Y-113119400D03*
%TO.N,+3V3*%
X146245800Y-106619400D03*
X140345800Y-124619400D03*
X150245800Y-112119400D03*
%TO.N,Dir_Chrg_In*%
X169745800Y-101619400D03*
X169745800Y-98619400D03*
%TO.N,2.8V*%
X124045800Y-136819400D03*
X125945800Y-126619400D03*
X118106730Y-136731536D03*
X125745800Y-122619400D03*
X133845800Y-123619400D03*
X129820800Y-126607053D03*
%TO.N,/SCL_3V*%
X122945800Y-138304400D03*
%TO.N,/GPIO*%
X121535800Y-134409400D03*
%TO.N,/XSHUT_2.8V*%
X122625802Y-136719400D03*
%TO.N,USB_D-*%
X196883227Y-73471129D03*
%TO.N,/SDA_3V*%
X123845800Y-139119400D03*
%TO.N,SDA0*%
X157245800Y-107119400D03*
X154245800Y-108619400D03*
X132845800Y-126291732D03*
X130545800Y-125867037D03*
%TO.N,USB_D+*%
X196568612Y-72442212D03*
%TO.N,SCL0*%
X158758453Y-108132053D03*
X156733147Y-108106747D03*
%TO.N,Net-(J12-CC2)*%
X199245800Y-72119400D03*
%TO.N,Net-(J12-CC1)*%
X196229798Y-69447585D03*
%TD*%
D33*
%TO.N,GND*%
X118471800Y-137529400D02*
X119125800Y-137529400D01*
D34*
X200815800Y-70714400D02*
X200970800Y-70714400D01*
X200745800Y-70784400D02*
X200815800Y-70714400D01*
D33*
X117945800Y-138055400D02*
X118471800Y-137529400D01*
D34*
X194315800Y-70714400D02*
X194160800Y-70714400D01*
D33*
X117945800Y-138629545D02*
X117945800Y-138055400D01*
D34*
X193245800Y-71619400D02*
X193245800Y-69799400D01*
D35*
X173033301Y-105119400D02*
X173945801Y-105119400D01*
X173945801Y-105119400D02*
X174045800Y-105019400D01*
D33*
X118145800Y-134819400D02*
X118605800Y-135279400D01*
X118605800Y-135279400D02*
X119125800Y-135279400D01*
D34*
X200970800Y-70714400D02*
X201885800Y-69799400D01*
D33*
X149970800Y-113119400D02*
X150605800Y-113754400D01*
D34*
X200745800Y-72119400D02*
X200745800Y-70784400D01*
X194160800Y-70714400D02*
X193245800Y-69799400D01*
D33*
X150605800Y-113754400D02*
X151645800Y-113754400D01*
%TO.N,+3V3*%
X151645800Y-112484400D02*
X150610800Y-112484400D01*
D36*
X166745800Y-105119400D02*
X169135800Y-105119400D01*
D33*
X150610800Y-112484400D02*
X150245800Y-112119400D01*
D37*
%TO.N,Dir_Chrg_In*%
X169745800Y-101619400D02*
X169745800Y-98619400D01*
D33*
%TO.N,2.8V*%
X118106730Y-136731536D02*
X118154594Y-136779400D01*
X119779800Y-136779400D02*
X120145800Y-137145400D01*
X119125800Y-136779400D02*
X119779800Y-136779400D01*
X119785800Y-138279400D02*
X119125800Y-138279400D01*
X118154594Y-136779400D02*
X119125800Y-136779400D01*
X120145800Y-137145400D02*
X120145800Y-137919400D01*
X120145800Y-137919400D02*
X119785800Y-138279400D01*
D36*
%TO.N,Net-(D1-A)*%
X170155799Y-105119400D02*
X171458299Y-105119400D01*
%TO.N,/SCL_3V*%
X122945800Y-138304400D02*
X121550800Y-138304400D01*
X121550800Y-138304400D02*
X121525800Y-138279400D01*
D33*
%TO.N,/GPIO*%
X121535800Y-135269400D02*
X121525800Y-135279400D01*
X121535800Y-134409400D02*
X121535800Y-135269400D01*
%TO.N,/XSHUT_2.8V*%
X122625802Y-136719400D02*
X122352800Y-136992402D01*
X122352800Y-137356400D02*
X122179800Y-137529400D01*
X122352800Y-136992402D02*
X122352800Y-137356400D01*
X122179800Y-137529400D02*
X121525800Y-137529400D01*
D34*
%TO.N,USB_D-*%
X196288106Y-71765012D02*
X196600188Y-71765012D01*
X196888600Y-69712200D02*
X197743000Y-69712200D01*
X196883227Y-73471129D02*
X196883227Y-73348163D01*
X196288094Y-73119400D02*
X195891412Y-72722718D01*
X196815800Y-71549400D02*
X196815800Y-70714400D01*
X195891412Y-72722718D02*
X195891412Y-72161706D01*
X197815800Y-69785000D02*
X197815800Y-70714400D01*
X196600188Y-71765012D02*
X196815800Y-71549400D01*
X196883227Y-73471129D02*
X196531498Y-73119400D01*
X197815800Y-72415590D02*
X197815800Y-70714400D01*
X196815800Y-69785000D02*
X196888600Y-69712200D01*
X196815800Y-70714400D02*
X196815800Y-69785000D01*
X197743000Y-69712200D02*
X197815800Y-69785000D01*
X196883227Y-73348163D02*
X197815800Y-72415590D01*
X196531498Y-73119400D02*
X196288094Y-73119400D01*
X195891412Y-72161706D02*
X196288106Y-71765012D01*
D36*
%TO.N,/SDA_3V*%
X123845800Y-139119400D02*
X123755800Y-139029400D01*
X123755800Y-139029400D02*
X121525800Y-139029400D01*
%TO.N,SDA0*%
X132421105Y-125867037D02*
X130545800Y-125867037D01*
X154275332Y-108648932D02*
X154245800Y-108619400D01*
X149245800Y-114119400D02*
X150150800Y-115024400D01*
X157245800Y-107119400D02*
X155745800Y-107119400D01*
X132845800Y-126291732D02*
X132421105Y-125867037D01*
X154275332Y-108589868D02*
X154275332Y-108648932D01*
X155745800Y-107119400D02*
X154275332Y-108589868D01*
X154245800Y-108619400D02*
X152438800Y-108619400D01*
X152438800Y-108619400D02*
X149245800Y-111812400D01*
X150150800Y-115024400D02*
X151645800Y-115024400D01*
X149245800Y-111812400D02*
X149245800Y-114119400D01*
D34*
%TO.N,USB_D+*%
X197315800Y-70714400D02*
X197315800Y-71695024D01*
X197315800Y-71695024D02*
X196568612Y-72442212D01*
D36*
%TO.N,SCL0*%
X153625494Y-111214400D02*
X151645800Y-111214400D01*
X156733147Y-108106747D02*
X158733147Y-108106747D01*
X156733147Y-108106747D02*
X153625494Y-111214400D01*
X158733147Y-108106747D02*
X158758453Y-108132053D01*
D34*
%TO.N,Net-(J12-CC2)*%
X199245800Y-70784400D02*
X199315800Y-70714400D01*
X199245800Y-72119400D02*
X199245800Y-70784400D01*
%TO.N,Net-(J12-CC1)*%
X196315800Y-69533587D02*
X196315800Y-70714399D01*
X196229798Y-69447585D02*
X196315800Y-69533587D01*
%TD*%
%TA.AperFunction,NonConductor*%
G36*
X165438862Y-120921968D02*
G01*
X165613042Y-120944900D01*
X165613049Y-120944900D01*
X165878551Y-120944900D01*
X165878558Y-120944900D01*
X166052734Y-120921969D01*
X166122881Y-120932908D01*
X166175980Y-120980036D01*
X166195170Y-121048390D01*
X166194101Y-121063337D01*
X166160300Y-121320084D01*
X166160300Y-121598715D01*
X166196666Y-121874947D01*
X166243978Y-122051519D01*
X166243820Y-122058148D01*
X166246674Y-122064133D01*
X166242985Y-122093201D01*
X166242288Y-122122496D01*
X166238364Y-122129620D01*
X166237737Y-122134565D01*
X166226852Y-122150522D01*
X166218850Y-122165053D01*
X166215285Y-122169306D01*
X166177558Y-122207035D01*
X166137653Y-122261958D01*
X166134845Y-122265311D01*
X166108777Y-122282680D01*
X166083979Y-122301803D01*
X166079503Y-122302187D01*
X166075764Y-122304679D01*
X166044445Y-122305198D01*
X166013243Y-122307878D01*
X166009269Y-122305781D01*
X166004777Y-122305856D01*
X165978148Y-122289360D01*
X165950451Y-122274746D01*
X165948242Y-122270834D01*
X165944422Y-122268468D01*
X165930940Y-122240197D01*
X165915540Y-122212926D01*
X165913880Y-122204421D01*
X165913864Y-122204387D01*
X165913863Y-122204381D01*
X165913867Y-122204353D01*
X165913823Y-122204131D01*
X165911815Y-122191449D01*
X165843695Y-121981794D01*
X165743615Y-121785378D01*
X165614042Y-121607035D01*
X165614039Y-121607032D01*
X165614037Y-121607029D01*
X165458170Y-121451162D01*
X165458167Y-121451160D01*
X165458165Y-121451158D01*
X165380756Y-121394917D01*
X165360742Y-121368962D01*
X165339590Y-121343956D01*
X165338519Y-121340144D01*
X165337403Y-121338696D01*
X165329897Y-121309433D01*
X165297498Y-121063336D01*
X165308437Y-120993188D01*
X165355566Y-120940090D01*
X165423920Y-120920900D01*
X165438862Y-120921968D01*
G37*
%TD.AperFunction*%
%TA.AperFunction,NonConductor*%
G36*
X140597395Y-62419907D02*
G01*
X140598454Y-62419906D01*
X140598457Y-62419908D01*
X151844973Y-62417700D01*
X204719700Y-62417700D01*
X204787821Y-62437702D01*
X204834314Y-62491358D01*
X204845700Y-62543700D01*
X204845700Y-72757082D01*
X204876223Y-72830773D01*
X204876226Y-72830777D01*
X204932622Y-72887173D01*
X204932626Y-72887176D01*
X205006318Y-72917700D01*
X215219700Y-72917700D01*
X215287821Y-72937702D01*
X215334314Y-72991358D01*
X215345700Y-73043700D01*
X215345700Y-126753400D01*
X215325698Y-126821521D01*
X215272042Y-126868014D01*
X215219700Y-126879400D01*
X197977991Y-126879400D01*
X197943934Y-126869400D01*
X197915800Y-126869400D01*
X168728687Y-126869400D01*
X168704591Y-126862325D01*
X168679639Y-126859462D01*
X168671121Y-126852497D01*
X168660566Y-126849398D01*
X168644118Y-126830416D01*
X168624678Y-126814520D01*
X168617245Y-126799403D01*
X168614073Y-126795742D01*
X168608854Y-126782336D01*
X168591725Y-126729619D01*
X168568563Y-126658335D01*
X168566537Y-126587368D01*
X168568564Y-126580464D01*
X168611813Y-126447356D01*
X168611815Y-126447351D01*
X168646300Y-126229622D01*
X168646300Y-126009178D01*
X168611815Y-125791449D01*
X168568563Y-125658335D01*
X168566536Y-125587369D01*
X168568564Y-125580464D01*
X168575957Y-125557710D01*
X168611815Y-125447351D01*
X168646300Y-125229622D01*
X168646300Y-125009178D01*
X168611815Y-124791449D01*
X168568563Y-124658335D01*
X168566536Y-124587369D01*
X168568564Y-124580464D01*
X168569134Y-124578711D01*
X168611815Y-124447351D01*
X168646300Y-124229622D01*
X168646300Y-124009178D01*
X168611815Y-123791449D01*
X168586613Y-123713885D01*
X168584585Y-123642918D01*
X168621248Y-123582120D01*
X168684960Y-123550794D01*
X168690001Y-123550027D01*
X168696210Y-123549209D01*
X168701354Y-123548532D01*
X168970486Y-123476419D01*
X169227902Y-123369794D01*
X169469198Y-123230481D01*
X169690247Y-123060865D01*
X169887265Y-122863847D01*
X170056881Y-122642798D01*
X170196194Y-122401502D01*
X170302819Y-122144086D01*
X170374932Y-121874954D01*
X170411300Y-121598713D01*
X170411300Y-121320087D01*
X170374932Y-121043846D01*
X170302819Y-120774714D01*
X170196194Y-120517298D01*
X170111712Y-120370972D01*
X170056883Y-120276005D01*
X170020662Y-120228801D01*
X169887265Y-120054953D01*
X169887264Y-120054952D01*
X169887255Y-120054942D01*
X169690257Y-119857944D01*
X169690247Y-119857935D01*
X169469194Y-119688316D01*
X169227913Y-119549012D01*
X169227908Y-119549009D01*
X169227902Y-119549006D01*
X168970486Y-119442381D01*
X168701354Y-119370268D01*
X168701347Y-119370266D01*
X168425115Y-119333900D01*
X168425113Y-119333900D01*
X168146487Y-119333900D01*
X168146484Y-119333900D01*
X167889737Y-119367701D01*
X167819588Y-119356761D01*
X167766490Y-119309633D01*
X167747300Y-119241279D01*
X167748369Y-119226333D01*
X167771300Y-119052158D01*
X167771300Y-118786642D01*
X167748369Y-118612465D01*
X167759308Y-118542318D01*
X167806436Y-118489219D01*
X167874790Y-118470029D01*
X167889736Y-118471097D01*
X168146487Y-118504900D01*
X168146494Y-118504900D01*
X168425106Y-118504900D01*
X168425113Y-118504900D01*
X168674769Y-118472031D01*
X168701347Y-118468533D01*
X168701347Y-118468532D01*
X168701354Y-118468532D01*
X168970486Y-118396419D01*
X169227902Y-118289794D01*
X169469198Y-118150481D01*
X169690247Y-117980865D01*
X169887265Y-117783847D01*
X170056881Y-117562798D01*
X170196194Y-117321502D01*
X170302819Y-117064086D01*
X170374932Y-116794954D01*
X170375531Y-116790408D01*
X170378431Y-116768369D01*
X170411300Y-116518713D01*
X170411300Y-116240087D01*
X170374932Y-115963846D01*
X170302819Y-115694714D01*
X170196194Y-115437298D01*
X170076293Y-115229624D01*
X170056883Y-115196005D01*
X170033289Y-115165257D01*
X169887265Y-114974953D01*
X169887264Y-114974952D01*
X169887255Y-114974942D01*
X169690257Y-114777944D01*
X169690247Y-114777935D01*
X169469194Y-114608316D01*
X169227913Y-114469012D01*
X169227908Y-114469009D01*
X169227902Y-114469006D01*
X168970486Y-114362381D01*
X168701354Y-114290268D01*
X168701347Y-114290266D01*
X168425115Y-114253900D01*
X168425113Y-114253900D01*
X168146487Y-114253900D01*
X168146484Y-114253900D01*
X167870252Y-114290266D01*
X167601114Y-114362381D01*
X167518879Y-114396444D01*
X167343696Y-114469007D01*
X167343686Y-114469012D01*
X167102405Y-114608316D01*
X166881352Y-114777935D01*
X166881342Y-114777944D01*
X166684344Y-114974942D01*
X166684335Y-114974952D01*
X166514716Y-115196005D01*
X166375412Y-115437286D01*
X166375407Y-115437296D01*
X166268781Y-115694714D01*
X166196666Y-115963852D01*
X166160300Y-116240084D01*
X166160300Y-116518715D01*
X166194101Y-116775462D01*
X166183161Y-116845611D01*
X166136033Y-116898709D01*
X166067679Y-116917899D01*
X166052733Y-116916830D01*
X165878560Y-116893900D01*
X165878558Y-116893900D01*
X165613042Y-116893900D01*
X165613039Y-116893900D01*
X165438866Y-116916830D01*
X165368717Y-116905890D01*
X165315619Y-116858762D01*
X165296429Y-116790408D01*
X165297498Y-116775462D01*
X165331300Y-116518713D01*
X165331300Y-116240087D01*
X165294932Y-115963846D01*
X165222819Y-115694714D01*
X165116194Y-115437298D01*
X164996293Y-115229624D01*
X164976883Y-115196005D01*
X164953289Y-115165257D01*
X164807265Y-114974953D01*
X164807264Y-114974952D01*
X164807255Y-114974942D01*
X164610257Y-114777944D01*
X164610247Y-114777935D01*
X164389194Y-114608316D01*
X164147913Y-114469012D01*
X164147908Y-114469009D01*
X164147902Y-114469006D01*
X163890486Y-114362381D01*
X163621354Y-114290268D01*
X163621347Y-114290266D01*
X163345115Y-114253900D01*
X163345113Y-114253900D01*
X163066487Y-114253900D01*
X163066484Y-114253900D01*
X162790252Y-114290266D01*
X162521114Y-114362381D01*
X162438879Y-114396444D01*
X162263696Y-114469007D01*
X162263686Y-114469012D01*
X162022405Y-114608316D01*
X161801352Y-114777935D01*
X161671430Y-114907857D01*
X161609118Y-114941882D01*
X161538302Y-114936816D01*
X161481467Y-114894270D01*
X161456656Y-114827749D01*
X161460628Y-114786153D01*
X161464638Y-114771189D01*
X161496300Y-114530688D01*
X161496300Y-114288112D01*
X161470763Y-114094134D01*
X161464639Y-114047617D01*
X161464638Y-114047615D01*
X161464638Y-114047611D01*
X161401854Y-113813300D01*
X161309024Y-113589188D01*
X161309018Y-113589179D01*
X161309017Y-113589175D01*
X161187738Y-113379114D01*
X161187736Y-113379111D01*
X161040065Y-113186662D01*
X161040059Y-113186656D01*
X161040055Y-113186651D01*
X160868548Y-113015144D01*
X160868542Y-113015139D01*
X160868538Y-113015135D01*
X160676089Y-112867464D01*
X160676088Y-112867463D01*
X160676085Y-112867461D01*
X160466024Y-112746182D01*
X160466016Y-112746178D01*
X160466012Y-112746176D01*
X160241900Y-112653346D01*
X160241894Y-112653344D01*
X160241884Y-112653341D01*
X160029687Y-112596482D01*
X159969065Y-112559531D01*
X159938043Y-112495670D01*
X159936299Y-112474776D01*
X159936299Y-110961372D01*
X159936299Y-110961364D01*
X159925686Y-110841982D01*
X159869709Y-110646351D01*
X159775498Y-110465993D01*
X159646909Y-110308291D01*
X159489207Y-110179702D01*
X159489205Y-110179701D01*
X159489204Y-110179700D01*
X159308851Y-110085492D01*
X159308850Y-110085491D01*
X159308849Y-110085491D01*
X159113218Y-110029514D01*
X158993837Y-110018900D01*
X158993832Y-110018900D01*
X157177772Y-110018900D01*
X157177762Y-110018901D01*
X157058388Y-110029513D01*
X157058385Y-110029513D01*
X157058382Y-110029514D01*
X156949844Y-110060570D01*
X156862742Y-110085493D01*
X156862539Y-110085575D01*
X156862418Y-110085586D01*
X156856608Y-110087249D01*
X156856298Y-110086166D01*
X156838871Y-110087816D01*
X156816071Y-110094565D01*
X156800025Y-110091496D01*
X156791859Y-110092270D01*
X156780562Y-110089537D01*
X156771593Y-110086924D01*
X156768849Y-110085491D01*
X156645768Y-110050273D01*
X156645359Y-110050154D01*
X156615682Y-110031172D01*
X156585945Y-110012350D01*
X156585813Y-110012066D01*
X156585551Y-110011899D01*
X156570875Y-109979947D01*
X156556006Y-109947975D01*
X156556048Y-109947665D01*
X156555918Y-109947382D01*
X156560846Y-109912570D01*
X156565624Y-109877633D01*
X156565837Y-109877323D01*
X156565871Y-109877087D01*
X156566514Y-109876341D01*
X156591499Y-109840090D01*
X156910634Y-109520955D01*
X156972944Y-109486931D01*
X156979989Y-109485608D01*
X157061098Y-109472762D01*
X157270753Y-109404642D01*
X157467169Y-109304562D01*
X157533581Y-109256310D01*
X157553951Y-109249042D01*
X157572144Y-109237351D01*
X157596556Y-109233840D01*
X157600449Y-109232452D01*
X157607642Y-109232247D01*
X157849126Y-109232247D01*
X157917247Y-109252249D01*
X157923186Y-109256310D01*
X157933140Y-109263542D01*
X158024431Y-109329868D01*
X158220847Y-109429948D01*
X158430502Y-109498068D01*
X158648231Y-109532553D01*
X158648234Y-109532553D01*
X158868672Y-109532553D01*
X158868675Y-109532553D01*
X159086404Y-109498068D01*
X159296059Y-109429948D01*
X159492475Y-109329868D01*
X159670818Y-109200295D01*
X159826695Y-109044418D01*
X159956268Y-108866075D01*
X160056348Y-108669659D01*
X160124468Y-108460004D01*
X160158953Y-108242275D01*
X160158953Y-108021831D01*
X160124468Y-107804102D01*
X160056348Y-107594447D01*
X159956268Y-107398031D01*
X159826695Y-107219688D01*
X159826692Y-107219685D01*
X159826690Y-107219682D01*
X159670823Y-107063815D01*
X159670820Y-107063813D01*
X159670818Y-107063811D01*
X159492475Y-106934238D01*
X159296059Y-106834158D01*
X159296056Y-106834157D01*
X159296054Y-106834156D01*
X159086407Y-106766039D01*
X159086404Y-106766038D01*
X158868675Y-106731553D01*
X158683899Y-106731553D01*
X158615778Y-106711551D01*
X158569285Y-106657895D01*
X158564066Y-106644488D01*
X158543698Y-106581802D01*
X158543696Y-106581799D01*
X158543695Y-106581794D01*
X158443615Y-106385378D01*
X158314042Y-106207035D01*
X158314039Y-106207032D01*
X158314037Y-106207029D01*
X158158170Y-106051162D01*
X158158167Y-106051160D01*
X158158165Y-106051158D01*
X157993841Y-105931770D01*
X157979825Y-105921587D01*
X157979824Y-105921586D01*
X157979822Y-105921585D01*
X157783406Y-105821505D01*
X157783403Y-105821504D01*
X157783401Y-105821503D01*
X157638072Y-105774283D01*
X157579466Y-105734209D01*
X157551829Y-105668813D01*
X157557174Y-105615520D01*
X157611815Y-105447351D01*
X157646300Y-105229622D01*
X157646300Y-105009178D01*
X157611815Y-104791449D01*
X157543695Y-104581794D01*
X157443615Y-104385378D01*
X157314042Y-104207035D01*
X157314039Y-104207032D01*
X157314037Y-104207029D01*
X157158170Y-104051162D01*
X157158167Y-104051160D01*
X157158165Y-104051158D01*
X157023914Y-103953620D01*
X156979825Y-103921587D01*
X156979824Y-103921586D01*
X156979822Y-103921585D01*
X156783406Y-103821505D01*
X156783403Y-103821504D01*
X156783401Y-103821503D01*
X156573754Y-103753386D01*
X156573751Y-103753385D01*
X156356022Y-103718900D01*
X156135578Y-103718900D01*
X155917849Y-103753385D01*
X155917846Y-103753385D01*
X155917845Y-103753386D01*
X155708198Y-103821503D01*
X155708192Y-103821506D01*
X155511774Y-103921587D01*
X155333432Y-104051160D01*
X155333429Y-104051162D01*
X155177562Y-104207029D01*
X155177560Y-104207032D01*
X155047987Y-104385374D01*
X154947906Y-104581792D01*
X154947903Y-104581798D01*
X154895004Y-104744609D01*
X154879785Y-104791449D01*
X154845300Y-105009178D01*
X154845300Y-105229622D01*
X154879785Y-105447351D01*
X154879786Y-105447354D01*
X154934423Y-105615514D01*
X154947905Y-105657006D01*
X155031723Y-105821506D01*
X155047987Y-105853425D01*
X155155468Y-106001361D01*
X155179327Y-106068229D01*
X155163246Y-106137381D01*
X155127593Y-106177358D01*
X155012588Y-106260913D01*
X154311394Y-106962107D01*
X154249082Y-106996132D01*
X154178266Y-106991067D01*
X154121431Y-106948520D01*
X154096620Y-106882000D01*
X154096299Y-106873011D01*
X154096299Y-106417821D01*
X154096300Y-106417817D01*
X154096300Y-106220983D01*
X154096299Y-106220977D01*
X154096299Y-106011364D01*
X154085686Y-105891982D01*
X154029709Y-105696351D01*
X153935498Y-105515993D01*
X153806909Y-105358291D01*
X153649207Y-105229702D01*
X153649205Y-105229701D01*
X153649204Y-105229700D01*
X153468851Y-105135492D01*
X153468850Y-105135491D01*
X153468849Y-105135491D01*
X153273218Y-105079514D01*
X153153837Y-105068900D01*
X152944217Y-105068900D01*
X152747383Y-105068900D01*
X152747381Y-105068900D01*
X151844221Y-105068900D01*
X151844217Y-105068900D01*
X151647383Y-105068900D01*
X151647377Y-105068900D01*
X151437772Y-105068900D01*
X151437762Y-105068901D01*
X151318388Y-105079513D01*
X151318385Y-105079513D01*
X151318382Y-105079514D01*
X151122751Y-105135491D01*
X151122748Y-105135492D01*
X150942395Y-105229700D01*
X150784691Y-105358291D01*
X150656100Y-105515995D01*
X150561892Y-105696348D01*
X150561891Y-105696350D01*
X150561891Y-105696351D01*
X150505914Y-105891982D01*
X150500023Y-105958247D01*
X150495300Y-106011365D01*
X150495300Y-107927427D01*
X150495301Y-107927437D01*
X150503692Y-108021831D01*
X150505914Y-108046818D01*
X150561891Y-108242449D01*
X150656102Y-108422807D01*
X150758253Y-108548085D01*
X150785799Y-108613520D01*
X150773596Y-108683460D01*
X150749696Y-108716805D01*
X150161943Y-109304559D01*
X148512586Y-110953917D01*
X148475272Y-110991231D01*
X148387317Y-111079185D01*
X148283187Y-111222507D01*
X148242185Y-111302979D01*
X148202759Y-111380356D01*
X148202756Y-111380362D01*
X148158026Y-111518031D01*
X148158026Y-111518033D01*
X148148014Y-111548842D01*
X148148014Y-111548845D01*
X148120300Y-111723821D01*
X148120300Y-114030821D01*
X148120300Y-114207979D01*
X148144755Y-114362381D01*
X148148015Y-114382961D01*
X148168642Y-114446444D01*
X148194976Y-114527492D01*
X148202758Y-114551442D01*
X148283186Y-114709290D01*
X148360358Y-114815508D01*
X148360359Y-114815510D01*
X148387312Y-114852609D01*
X148387316Y-114852613D01*
X148387317Y-114852614D01*
X149292317Y-115757614D01*
X149368033Y-115833330D01*
X149417585Y-115882882D01*
X149560911Y-115987015D01*
X149620959Y-116017611D01*
X149620960Y-116017611D01*
X149718758Y-116067442D01*
X149887238Y-116122184D01*
X149887239Y-116122184D01*
X149887244Y-116122186D01*
X150062221Y-116149900D01*
X150168802Y-116149900D01*
X150236923Y-116169902D01*
X150248426Y-116178248D01*
X150292393Y-116214098D01*
X150472751Y-116308309D01*
X150668382Y-116364286D01*
X150787763Y-116374900D01*
X152503836Y-116374899D01*
X152623218Y-116364286D01*
X152818849Y-116308309D01*
X152999207Y-116214098D01*
X153156909Y-116085509D01*
X153191880Y-116042619D01*
X153250428Y-116002465D01*
X153321392Y-116000338D01*
X153352527Y-116013121D01*
X153455588Y-116072624D01*
X153679700Y-116165454D01*
X153914011Y-116228238D01*
X153914015Y-116228238D01*
X153914017Y-116228239D01*
X153976002Y-116236399D01*
X154154512Y-116259900D01*
X154154519Y-116259900D01*
X154397081Y-116259900D01*
X154397088Y-116259900D01*
X154614437Y-116231285D01*
X154637582Y-116228239D01*
X154637582Y-116228238D01*
X154637589Y-116228238D01*
X154871900Y-116165454D01*
X155096012Y-116072624D01*
X155306089Y-115951336D01*
X155498538Y-115803665D01*
X155670065Y-115632138D01*
X155817736Y-115439689D01*
X155939024Y-115229612D01*
X156031854Y-115005500D01*
X156094638Y-114771189D01*
X156126300Y-114530688D01*
X156126300Y-114288112D01*
X156100763Y-114094134D01*
X156094639Y-114047617D01*
X156094638Y-114047615D01*
X156094638Y-114047611D01*
X156049327Y-113878509D01*
X156051017Y-113807534D01*
X156090811Y-113748738D01*
X156156075Y-113720790D01*
X156171034Y-113719899D01*
X156453828Y-113719899D01*
X156453836Y-113719899D01*
X156573218Y-113709286D01*
X156768849Y-113653309D01*
X156768853Y-113653306D01*
X156769038Y-113653233D01*
X156769152Y-113653222D01*
X156774993Y-113651551D01*
X156775304Y-113652638D01*
X156839717Y-113646525D01*
X156862562Y-113653233D01*
X156862749Y-113653308D01*
X156862751Y-113653309D01*
X157058382Y-113709286D01*
X157177763Y-113719900D01*
X157750566Y-113719899D01*
X157818687Y-113739901D01*
X157865180Y-113793557D01*
X157875284Y-113863830D01*
X157872273Y-113878510D01*
X157826960Y-114047617D01*
X157795300Y-114288109D01*
X157795300Y-114530690D01*
X157826960Y-114771182D01*
X157889744Y-115005495D01*
X157889745Y-115005497D01*
X157889746Y-115005500D01*
X157982576Y-115229612D01*
X157982577Y-115229613D01*
X157982582Y-115229624D01*
X158103861Y-115439685D01*
X158103863Y-115439688D01*
X158103864Y-115439689D01*
X158251535Y-115632138D01*
X158251539Y-115632142D01*
X158251544Y-115632148D01*
X158423051Y-115803655D01*
X158423056Y-115803659D01*
X158423062Y-115803665D01*
X158615511Y-115951336D01*
X158615514Y-115951338D01*
X158825575Y-116072617D01*
X158825579Y-116072618D01*
X158825588Y-116072624D01*
X159049700Y-116165454D01*
X159284011Y-116228238D01*
X159284015Y-116228238D01*
X159284017Y-116228239D01*
X159346002Y-116236399D01*
X159524512Y-116259900D01*
X159524519Y-116259900D01*
X159767081Y-116259900D01*
X159767088Y-116259900D01*
X159984437Y-116231285D01*
X160007582Y-116228239D01*
X160007582Y-116228238D01*
X160007589Y-116228238D01*
X160241900Y-116165454D01*
X160466012Y-116072624D01*
X160676089Y-115951336D01*
X160868538Y-115803665D01*
X160933612Y-115738590D01*
X160995922Y-115704567D01*
X161066738Y-115709631D01*
X161123574Y-115752177D01*
X161148385Y-115818697D01*
X161144413Y-115860297D01*
X161116666Y-115963850D01*
X161080300Y-116240084D01*
X161080300Y-116518715D01*
X161116666Y-116794947D01*
X161116668Y-116794954D01*
X161188781Y-117064086D01*
X161295406Y-117321502D01*
X161295407Y-117321503D01*
X161295412Y-117321513D01*
X161434716Y-117562794D01*
X161604335Y-117783847D01*
X161604344Y-117783857D01*
X161801342Y-117980855D01*
X161801352Y-117980864D01*
X161801353Y-117980865D01*
X162022402Y-118150481D01*
X162263698Y-118289794D01*
X162521114Y-118396419D01*
X162790246Y-118468532D01*
X162790250Y-118468532D01*
X162790252Y-118468533D01*
X162861445Y-118477905D01*
X163066487Y-118504900D01*
X163066494Y-118504900D01*
X163345106Y-118504900D01*
X163345113Y-118504900D01*
X163601862Y-118471098D01*
X163672010Y-118482037D01*
X163725109Y-118529165D01*
X163744299Y-118597519D01*
X163743230Y-118612466D01*
X163720300Y-118786639D01*
X163720300Y-119052160D01*
X163743230Y-119226333D01*
X163732290Y-119296482D01*
X163685162Y-119349580D01*
X163616808Y-119368770D01*
X163601862Y-119367701D01*
X163345115Y-119333900D01*
X163345113Y-119333900D01*
X163066487Y-119333900D01*
X163066484Y-119333900D01*
X162790252Y-119370266D01*
X162521114Y-119442381D01*
X162263696Y-119549007D01*
X162263686Y-119549012D01*
X162022405Y-119688316D01*
X161801352Y-119857935D01*
X161801342Y-119857944D01*
X161604344Y-120054942D01*
X161604327Y-120054962D01*
X161479625Y-120217476D01*
X161422287Y-120259343D01*
X161351416Y-120263565D01*
X161289513Y-120228801D01*
X161282011Y-120220396D01*
X161206911Y-120128293D01*
X161116967Y-120054953D01*
X161049207Y-119999702D01*
X161049205Y-119999701D01*
X161049204Y-119999700D01*
X160868851Y-119905492D01*
X160868850Y-119905491D01*
X160868849Y-119905491D01*
X160673218Y-119849514D01*
X160553837Y-119838900D01*
X160553832Y-119838900D01*
X158737772Y-119838900D01*
X158737762Y-119838901D01*
X158618388Y-119849513D01*
X158618385Y-119849513D01*
X158618382Y-119849514D01*
X158422751Y-119905491D01*
X158422748Y-119905492D01*
X158242395Y-119999700D01*
X158084691Y-120128291D01*
X157956100Y-120285995D01*
X157861892Y-120466348D01*
X157861891Y-120466350D01*
X157861891Y-120466351D01*
X157805914Y-120661982D01*
X157805914Y-120661988D01*
X157795300Y-120781365D01*
X157795300Y-122252900D01*
X157775298Y-122321021D01*
X157721642Y-122367514D01*
X157669300Y-122378900D01*
X157177772Y-122378900D01*
X157177762Y-122378901D01*
X157058388Y-122389513D01*
X157058385Y-122389513D01*
X157058382Y-122389514D01*
X156949844Y-122420570D01*
X156862742Y-122445493D01*
X156862539Y-122445575D01*
X156862418Y-122445586D01*
X156856608Y-122447249D01*
X156856298Y-122446166D01*
X156791859Y-122452270D01*
X156769061Y-122445575D01*
X156768857Y-122445493D01*
X156685301Y-122421585D01*
X156573218Y-122389514D01*
X156453837Y-122378900D01*
X156453834Y-122378900D01*
X156252299Y-122378900D01*
X156184178Y-122358898D01*
X156137685Y-122305242D01*
X156126299Y-122252900D01*
X156126299Y-120781372D01*
X156126299Y-120781364D01*
X156115686Y-120661982D01*
X156059709Y-120466351D01*
X155965498Y-120285993D01*
X155836909Y-120128291D01*
X155679207Y-119999702D01*
X155679205Y-119999701D01*
X155679204Y-119999700D01*
X155498851Y-119905492D01*
X155498850Y-119905491D01*
X155498849Y-119905491D01*
X155303218Y-119849514D01*
X155183837Y-119838900D01*
X155183832Y-119838900D01*
X153367772Y-119838900D01*
X153367762Y-119838901D01*
X153248388Y-119849513D01*
X153248385Y-119849513D01*
X153248382Y-119849514D01*
X153052751Y-119905491D01*
X153052748Y-119905492D01*
X152872395Y-119999700D01*
X152714691Y-120128291D01*
X152586100Y-120285995D01*
X152491892Y-120466348D01*
X152491891Y-120466350D01*
X152491891Y-120466351D01*
X152435914Y-120661982D01*
X152435914Y-120661988D01*
X152425300Y-120781365D01*
X152425300Y-122597427D01*
X152425301Y-122597437D01*
X152435308Y-122710008D01*
X152435914Y-122716818D01*
X152491891Y-122912449D01*
X152491892Y-122912451D01*
X152569411Y-123060855D01*
X152586102Y-123092807D01*
X152714691Y-123250509D01*
X152872393Y-123379098D01*
X153052751Y-123473309D01*
X153248382Y-123529286D01*
X153367763Y-123539900D01*
X153569300Y-123539899D01*
X153637420Y-123559901D01*
X153683913Y-123613556D01*
X153695300Y-123665899D01*
X153695300Y-125137427D01*
X153695301Y-125137437D01*
X153705608Y-125253385D01*
X153705914Y-125256818D01*
X153760434Y-125447356D01*
X153761892Y-125452451D01*
X153849098Y-125619400D01*
X153856102Y-125632807D01*
X153984691Y-125790509D01*
X154142393Y-125919098D01*
X154322751Y-126013309D01*
X154518382Y-126069286D01*
X154637763Y-126079900D01*
X156453836Y-126079899D01*
X156573218Y-126069286D01*
X156768849Y-126013309D01*
X156768853Y-126013306D01*
X156769038Y-126013233D01*
X156769152Y-126013222D01*
X156774993Y-126011551D01*
X156775304Y-126012638D01*
X156839717Y-126006525D01*
X156862562Y-126013233D01*
X156862747Y-126013307D01*
X156862751Y-126013309D01*
X157058382Y-126069286D01*
X157177763Y-126079900D01*
X158993836Y-126079899D01*
X159113218Y-126069286D01*
X159308849Y-126013309D01*
X159489207Y-125919098D01*
X159646909Y-125790509D01*
X159775498Y-125632807D01*
X159869709Y-125452449D01*
X159925686Y-125256818D01*
X159936300Y-125137437D01*
X159936299Y-123665898D01*
X159956301Y-123597778D01*
X160009957Y-123551285D01*
X160062299Y-123539899D01*
X160553828Y-123539899D01*
X160553836Y-123539899D01*
X160673218Y-123529286D01*
X160868849Y-123473309D01*
X161049207Y-123379098D01*
X161206909Y-123250509D01*
X161335498Y-123092807D01*
X161426859Y-122917906D01*
X161476127Y-122866787D01*
X161545211Y-122850420D01*
X161612178Y-122874001D01*
X161627635Y-122887148D01*
X161801342Y-123060855D01*
X161801352Y-123060864D01*
X161801353Y-123060865D01*
X162007309Y-123218900D01*
X162022405Y-123230483D01*
X162062074Y-123253386D01*
X162263698Y-123369794D01*
X162521114Y-123476419D01*
X162790246Y-123548532D01*
X162790250Y-123548532D01*
X162790252Y-123548533D01*
X162861583Y-123557923D01*
X162944330Y-123568817D01*
X163009257Y-123597539D01*
X163048349Y-123656804D01*
X163052333Y-123674028D01*
X163057561Y-123707035D01*
X163075011Y-123817212D01*
X163079786Y-123847356D01*
X163123035Y-123980465D01*
X163125062Y-124051432D01*
X163123035Y-124058335D01*
X163079786Y-124191443D01*
X163079785Y-124191448D01*
X163079785Y-124191449D01*
X163045300Y-124409178D01*
X163045300Y-124629622D01*
X163075012Y-124817215D01*
X163079786Y-124847356D01*
X163123035Y-124980465D01*
X163125062Y-125051432D01*
X163123035Y-125058335D01*
X163079786Y-125191443D01*
X163079785Y-125191448D01*
X163079785Y-125191449D01*
X163045300Y-125409178D01*
X163045300Y-125629622D01*
X163075012Y-125817215D01*
X163079786Y-125847356D01*
X163123035Y-125980465D01*
X163125062Y-126051432D01*
X163123035Y-126058335D01*
X163079786Y-126191443D01*
X163079785Y-126191448D01*
X163079785Y-126191449D01*
X163046445Y-126401954D01*
X163045300Y-126409181D01*
X163045300Y-126629619D01*
X163060199Y-126723690D01*
X163051099Y-126794101D01*
X163005377Y-126848415D01*
X162937549Y-126869387D01*
X162935750Y-126869400D01*
X134304101Y-126869400D01*
X134235980Y-126849398D01*
X134189487Y-126795742D01*
X134179383Y-126725468D01*
X134184268Y-126704464D01*
X134211815Y-126619683D01*
X134246300Y-126401954D01*
X134246300Y-126181510D01*
X134211815Y-125963781D01*
X134143695Y-125754126D01*
X134043615Y-125557710D01*
X133914042Y-125379367D01*
X133914039Y-125379364D01*
X133914037Y-125379361D01*
X133769671Y-125234995D01*
X133735645Y-125172683D01*
X133740710Y-125101868D01*
X133783257Y-125045032D01*
X133849777Y-125020221D01*
X133858766Y-125019900D01*
X133956019Y-125019900D01*
X133956022Y-125019900D01*
X134173751Y-124985415D01*
X134383406Y-124917295D01*
X134579822Y-124817215D01*
X134758165Y-124687642D01*
X134914042Y-124531765D01*
X134930452Y-124509178D01*
X138945300Y-124509178D01*
X138945300Y-124729622D01*
X138979785Y-124947351D01*
X138979786Y-124947354D01*
X139041546Y-125137437D01*
X139047905Y-125157006D01*
X139147985Y-125353422D01*
X139277558Y-125531765D01*
X139277560Y-125531767D01*
X139277562Y-125531770D01*
X139433429Y-125687637D01*
X139433432Y-125687639D01*
X139433435Y-125687642D01*
X139611778Y-125817215D01*
X139808194Y-125917295D01*
X140017849Y-125985415D01*
X140235578Y-126019900D01*
X140235581Y-126019900D01*
X140456019Y-126019900D01*
X140456022Y-126019900D01*
X140673751Y-125985415D01*
X140883406Y-125917295D01*
X141079822Y-125817215D01*
X141258165Y-125687642D01*
X141414042Y-125531765D01*
X141543615Y-125353422D01*
X141643695Y-125157006D01*
X141711815Y-124947351D01*
X141746300Y-124729622D01*
X141746300Y-124509178D01*
X141711815Y-124291449D01*
X141643695Y-124081794D01*
X141543615Y-123885378D01*
X141414042Y-123707035D01*
X141414039Y-123707032D01*
X141414037Y-123707029D01*
X141258170Y-123551162D01*
X141258167Y-123551160D01*
X141258165Y-123551158D01*
X141079822Y-123421585D01*
X140883406Y-123321505D01*
X140883403Y-123321504D01*
X140883401Y-123321503D01*
X140673754Y-123253386D01*
X140673751Y-123253385D01*
X140456022Y-123218900D01*
X140235578Y-123218900D01*
X140017849Y-123253385D01*
X140017846Y-123253385D01*
X140017845Y-123253386D01*
X139808198Y-123321503D01*
X139808192Y-123321506D01*
X139611774Y-123421587D01*
X139433432Y-123551160D01*
X139433429Y-123551162D01*
X139277562Y-123707029D01*
X139277560Y-123707032D01*
X139147987Y-123885374D01*
X139047906Y-124081792D01*
X139047903Y-124081798D01*
X138979972Y-124290874D01*
X138979785Y-124291449D01*
X138945300Y-124509178D01*
X134930452Y-124509178D01*
X134998220Y-124415903D01*
X135043611Y-124353428D01*
X135043613Y-124353425D01*
X135043615Y-124353422D01*
X135143695Y-124157006D01*
X135211815Y-123947351D01*
X135246300Y-123729622D01*
X135246300Y-123509178D01*
X135211815Y-123291449D01*
X135143695Y-123081794D01*
X135043615Y-122885378D01*
X134914042Y-122707035D01*
X134914039Y-122707032D01*
X134914037Y-122707029D01*
X134758170Y-122551162D01*
X134758167Y-122551160D01*
X134758165Y-122551158D01*
X134579822Y-122421585D01*
X134383406Y-122321505D01*
X134383403Y-122321504D01*
X134383401Y-122321503D01*
X134173754Y-122253386D01*
X134173751Y-122253385D01*
X133956022Y-122218900D01*
X133735578Y-122218900D01*
X133517849Y-122253385D01*
X133517846Y-122253385D01*
X133517845Y-122253386D01*
X133308198Y-122321503D01*
X133308192Y-122321506D01*
X133111774Y-122421587D01*
X132933432Y-122551160D01*
X132933429Y-122551162D01*
X132777562Y-122707029D01*
X132777560Y-122707032D01*
X132647987Y-122885374D01*
X132547906Y-123081792D01*
X132547903Y-123081798D01*
X132492152Y-123253386D01*
X132479785Y-123291449D01*
X132445300Y-123509178D01*
X132445300Y-123729622D01*
X132479785Y-123947351D01*
X132479786Y-123947354D01*
X132540755Y-124135002D01*
X132547905Y-124157006D01*
X132647985Y-124353422D01*
X132777558Y-124531765D01*
X132777560Y-124531767D01*
X132777562Y-124531770D01*
X132803511Y-124557719D01*
X132837537Y-124620031D01*
X132832472Y-124690846D01*
X132789925Y-124747682D01*
X132723405Y-124772493D01*
X132689599Y-124769712D01*
X132689550Y-124770026D01*
X132685385Y-124769366D01*
X132685016Y-124769336D01*
X132684671Y-124769253D01*
X132684663Y-124769251D01*
X132684661Y-124769251D01*
X132509684Y-124741537D01*
X132509681Y-124741537D01*
X131420295Y-124741537D01*
X131404359Y-124737226D01*
X131390003Y-124737841D01*
X131366913Y-124727096D01*
X131356773Y-124724353D01*
X131351333Y-124721177D01*
X131279822Y-124669222D01*
X131142274Y-124599137D01*
X131139158Y-124597318D01*
X131117159Y-124574024D01*
X131093861Y-124552020D01*
X131092966Y-124548406D01*
X131090411Y-124545701D01*
X131084496Y-124514203D01*
X131076796Y-124483105D01*
X131077996Y-124479583D01*
X131077309Y-124475924D01*
X131089361Y-124446232D01*
X131099697Y-124415903D01*
X131103055Y-124412496D01*
X131104012Y-124410140D01*
X131108491Y-124406982D01*
X131128615Y-124386569D01*
X131260323Y-124290879D01*
X131416200Y-124135002D01*
X131545773Y-123956659D01*
X131645853Y-123760243D01*
X131713973Y-123550588D01*
X131748458Y-123332859D01*
X131748458Y-123112415D01*
X131713973Y-122894686D01*
X131645853Y-122685031D01*
X131545773Y-122488615D01*
X131416200Y-122310272D01*
X131416197Y-122310269D01*
X131416195Y-122310266D01*
X131260328Y-122154399D01*
X131260325Y-122154397D01*
X131260323Y-122154395D01*
X131126072Y-122056857D01*
X131081983Y-122024824D01*
X131081982Y-122024823D01*
X131081980Y-122024822D01*
X130885564Y-121924742D01*
X130885561Y-121924741D01*
X130885559Y-121924740D01*
X130675912Y-121856623D01*
X130675909Y-121856622D01*
X130458180Y-121822137D01*
X130237736Y-121822137D01*
X130020007Y-121856622D01*
X130020004Y-121856622D01*
X130020003Y-121856623D01*
X129810356Y-121924740D01*
X129810350Y-121924743D01*
X129613932Y-122024824D01*
X129435590Y-122154397D01*
X129435587Y-122154399D01*
X129279720Y-122310266D01*
X129279718Y-122310269D01*
X129150145Y-122488611D01*
X129050064Y-122685029D01*
X129050061Y-122685035D01*
X128984967Y-122885378D01*
X128981943Y-122894686D01*
X128947458Y-123112415D01*
X128947458Y-123332859D01*
X128981943Y-123550588D01*
X128981944Y-123550591D01*
X129040113Y-123729622D01*
X129050063Y-123760243D01*
X129150143Y-123956659D01*
X129279716Y-124135002D01*
X129279718Y-124135004D01*
X129279720Y-124135007D01*
X129435587Y-124290874D01*
X129435590Y-124290876D01*
X129435593Y-124290879D01*
X129613936Y-124420452D01*
X129748280Y-124488904D01*
X129799895Y-124537653D01*
X129816961Y-124606568D01*
X129794060Y-124673769D01*
X129765138Y-124703107D01*
X129633432Y-124798797D01*
X129633429Y-124798799D01*
X129477562Y-124954666D01*
X129477560Y-124954669D01*
X129347985Y-125133014D01*
X129268067Y-125289859D01*
X129219319Y-125341474D01*
X129213005Y-125344921D01*
X129086777Y-125409238D01*
X128908432Y-125538813D01*
X128908429Y-125538815D01*
X128752562Y-125694682D01*
X128752560Y-125694685D01*
X128622987Y-125873027D01*
X128522906Y-126069445D01*
X128522903Y-126069451D01*
X128454786Y-126279098D01*
X128454785Y-126279102D01*
X128428137Y-126447356D01*
X128420300Y-126496834D01*
X128420300Y-126717274D01*
X128422900Y-126733691D01*
X128413800Y-126804102D01*
X128368077Y-126858415D01*
X128300249Y-126879387D01*
X128298451Y-126879400D01*
X127470104Y-126879400D01*
X127401983Y-126859398D01*
X127355490Y-126805742D01*
X127345386Y-126735468D01*
X127345645Y-126733754D01*
X127346300Y-126729622D01*
X127346300Y-126509178D01*
X127311815Y-126291449D01*
X127243695Y-126081794D01*
X127143615Y-125885378D01*
X127014042Y-125707035D01*
X127014039Y-125707032D01*
X127014037Y-125707029D01*
X126858170Y-125551162D01*
X126858167Y-125551160D01*
X126858165Y-125551158D01*
X126679822Y-125421585D01*
X126483406Y-125321505D01*
X126483403Y-125321504D01*
X126483401Y-125321503D01*
X126273754Y-125253386D01*
X126273751Y-125253385D01*
X126056022Y-125218900D01*
X125835578Y-125218900D01*
X125617849Y-125253385D01*
X125617846Y-125253385D01*
X125617845Y-125253386D01*
X125408198Y-125321503D01*
X125408192Y-125321506D01*
X125211774Y-125421587D01*
X125033432Y-125551160D01*
X125033429Y-125551162D01*
X124877562Y-125707029D01*
X124877560Y-125707032D01*
X124747987Y-125885374D01*
X124647906Y-126081792D01*
X124647903Y-126081798D01*
X124579786Y-126291445D01*
X124579785Y-126291449D01*
X124547256Y-126496834D01*
X124545300Y-126509181D01*
X124545300Y-126729619D01*
X124545944Y-126733685D01*
X124536847Y-126804096D01*
X124491127Y-126858412D01*
X124423300Y-126879387D01*
X124421496Y-126879400D01*
X115872700Y-126879400D01*
X115804579Y-126859398D01*
X115758086Y-126805742D01*
X115746700Y-126753400D01*
X115746700Y-122509178D01*
X124345300Y-122509178D01*
X124345300Y-122729622D01*
X124379785Y-122947351D01*
X124379786Y-122947354D01*
X124444835Y-123147560D01*
X124447905Y-123157006D01*
X124547985Y-123353422D01*
X124677558Y-123531765D01*
X124677560Y-123531767D01*
X124677562Y-123531770D01*
X124833429Y-123687637D01*
X124833432Y-123687639D01*
X124833435Y-123687642D01*
X125011778Y-123817215D01*
X125208194Y-123917295D01*
X125417849Y-123985415D01*
X125635578Y-124019900D01*
X125635581Y-124019900D01*
X125856019Y-124019900D01*
X125856022Y-124019900D01*
X126073751Y-123985415D01*
X126283406Y-123917295D01*
X126479822Y-123817215D01*
X126658165Y-123687642D01*
X126814042Y-123531765D01*
X126943615Y-123353422D01*
X127043695Y-123157006D01*
X127111815Y-122947351D01*
X127146300Y-122729622D01*
X127146300Y-122509178D01*
X127111815Y-122291449D01*
X127043695Y-122081794D01*
X126943615Y-121885378D01*
X126814042Y-121707035D01*
X126814039Y-121707032D01*
X126814037Y-121707029D01*
X126658170Y-121551162D01*
X126658167Y-121551160D01*
X126658165Y-121551158D01*
X126523914Y-121453620D01*
X126479825Y-121421587D01*
X126479824Y-121421586D01*
X126479822Y-121421585D01*
X126283406Y-121321505D01*
X126283403Y-121321504D01*
X126283401Y-121321503D01*
X126073754Y-121253386D01*
X126073751Y-121253385D01*
X125856022Y-121218900D01*
X125635578Y-121218900D01*
X125417849Y-121253385D01*
X125417846Y-121253385D01*
X125417845Y-121253386D01*
X125208198Y-121321503D01*
X125208192Y-121321506D01*
X125011774Y-121421587D01*
X124833432Y-121551160D01*
X124833429Y-121551162D01*
X124677562Y-121707029D01*
X124677560Y-121707032D01*
X124547987Y-121885374D01*
X124447906Y-122081792D01*
X124447903Y-122081798D01*
X124379786Y-122291445D01*
X124379785Y-122291449D01*
X124345300Y-122509178D01*
X115746700Y-122509178D01*
X115746700Y-112057599D01*
X123125300Y-112057599D01*
X123125300Y-112421200D01*
X123160936Y-112783015D01*
X123160939Y-112783037D01*
X123231866Y-113139619D01*
X123337414Y-113487564D01*
X123337415Y-113487568D01*
X123476553Y-113823476D01*
X123647948Y-114144134D01*
X123849942Y-114446439D01*
X124080602Y-114727500D01*
X124080619Y-114727518D01*
X124337681Y-114984580D01*
X124337699Y-114984597D01*
X124595297Y-115196002D01*
X124618760Y-115215257D01*
X124640262Y-115229624D01*
X124921068Y-115417253D01*
X125241724Y-115588647D01*
X125577636Y-115727786D01*
X125925567Y-115833330D01*
X125925576Y-115833331D01*
X125925580Y-115833333D01*
X126030800Y-115854262D01*
X126282169Y-115904262D01*
X126644006Y-115939900D01*
X126644015Y-115939900D01*
X127007585Y-115939900D01*
X127007594Y-115939900D01*
X127369431Y-115904262D01*
X127650901Y-115848274D01*
X127726019Y-115833333D01*
X127726021Y-115833332D01*
X127726033Y-115833330D01*
X128073964Y-115727786D01*
X128409876Y-115588647D01*
X128730532Y-115417253D01*
X129032844Y-115215254D01*
X129313901Y-114984597D01*
X129570997Y-114727501D01*
X129801654Y-114446444D01*
X130003653Y-114144132D01*
X130175047Y-113823476D01*
X130314186Y-113487564D01*
X130419730Y-113139633D01*
X130490662Y-112783031D01*
X130526300Y-112421194D01*
X130526300Y-112057606D01*
X130490662Y-111695769D01*
X130427924Y-111380362D01*
X130419733Y-111339180D01*
X130419731Y-111339176D01*
X130419730Y-111339167D01*
X130314186Y-110991236D01*
X130175047Y-110655324D01*
X130003653Y-110334668D01*
X129900108Y-110179702D01*
X129801657Y-110032360D01*
X129799321Y-110029514D01*
X129570997Y-109751299D01*
X129570980Y-109751281D01*
X129313918Y-109494219D01*
X129313900Y-109494202D01*
X129032839Y-109263542D01*
X128730534Y-109061548D01*
X128409876Y-108890153D01*
X128073968Y-108751015D01*
X128073964Y-108751014D01*
X127961192Y-108716805D01*
X127726033Y-108645470D01*
X127726030Y-108645469D01*
X127726019Y-108645466D01*
X127369437Y-108574539D01*
X127369433Y-108574538D01*
X127369431Y-108574538D01*
X127369426Y-108574537D01*
X127369415Y-108574536D01*
X127007600Y-108538900D01*
X127007594Y-108538900D01*
X126644006Y-108538900D01*
X126643999Y-108538900D01*
X126282184Y-108574536D01*
X126282162Y-108574539D01*
X125925580Y-108645466D01*
X125577635Y-108751014D01*
X125577631Y-108751015D01*
X125241723Y-108890153D01*
X124921065Y-109061548D01*
X124618760Y-109263542D01*
X124337699Y-109494202D01*
X124337681Y-109494219D01*
X124080619Y-109751281D01*
X124080602Y-109751299D01*
X123849942Y-110032360D01*
X123647948Y-110334665D01*
X123476553Y-110655323D01*
X123337415Y-110991231D01*
X123337414Y-110991235D01*
X123231866Y-111339180D01*
X123160939Y-111695762D01*
X123160936Y-111695784D01*
X123125300Y-112057599D01*
X115746700Y-112057599D01*
X115746700Y-106509178D01*
X144845300Y-106509178D01*
X144845300Y-106729622D01*
X144879785Y-106947351D01*
X144879786Y-106947354D01*
X144917624Y-107063811D01*
X144947905Y-107157006D01*
X145047985Y-107353422D01*
X145177558Y-107531765D01*
X145177560Y-107531767D01*
X145177562Y-107531770D01*
X145333429Y-107687637D01*
X145333432Y-107687639D01*
X145333435Y-107687642D01*
X145511778Y-107817215D01*
X145708194Y-107917295D01*
X145917849Y-107985415D01*
X146135578Y-108019900D01*
X146135581Y-108019900D01*
X146356019Y-108019900D01*
X146356022Y-108019900D01*
X146573751Y-107985415D01*
X146783406Y-107917295D01*
X146979822Y-107817215D01*
X147158165Y-107687642D01*
X147314042Y-107531765D01*
X147443615Y-107353422D01*
X147543695Y-107157006D01*
X147611815Y-106947351D01*
X147646300Y-106729622D01*
X147646300Y-106509178D01*
X147611815Y-106291449D01*
X147588918Y-106220977D01*
X147577175Y-106184835D01*
X147575148Y-106113868D01*
X147611810Y-106053070D01*
X147675523Y-106021745D01*
X147697008Y-106019900D01*
X147856019Y-106019900D01*
X147856022Y-106019900D01*
X148073751Y-105985415D01*
X148283406Y-105917295D01*
X148479822Y-105817215D01*
X148658165Y-105687642D01*
X148814042Y-105531765D01*
X148943615Y-105353422D01*
X149043695Y-105157006D01*
X149111815Y-104947351D01*
X149146300Y-104729622D01*
X149146300Y-104509178D01*
X149111815Y-104291449D01*
X149043695Y-104081794D01*
X148943615Y-103885378D01*
X148814042Y-103707035D01*
X148814039Y-103707032D01*
X148814037Y-103707029D01*
X148658170Y-103551162D01*
X148658167Y-103551160D01*
X148658165Y-103551158D01*
X148479822Y-103421585D01*
X148283406Y-103321505D01*
X148283403Y-103321504D01*
X148283401Y-103321503D01*
X148073754Y-103253386D01*
X148073751Y-103253385D01*
X147856022Y-103218900D01*
X147635578Y-103218900D01*
X147417849Y-103253385D01*
X147417846Y-103253385D01*
X147417845Y-103253386D01*
X147208198Y-103321503D01*
X147208192Y-103321506D01*
X147011774Y-103421587D01*
X146833432Y-103551160D01*
X146833429Y-103551162D01*
X146677562Y-103707029D01*
X146677560Y-103707032D01*
X146547987Y-103885374D01*
X146447906Y-104081792D01*
X146447903Y-104081798D01*
X146379786Y-104291445D01*
X146379785Y-104291449D01*
X146345300Y-104509178D01*
X146345300Y-104729622D01*
X146379785Y-104947351D01*
X146379786Y-104947356D01*
X146414425Y-105053965D01*
X146416452Y-105124932D01*
X146379790Y-105185730D01*
X146316077Y-105217055D01*
X146294592Y-105218900D01*
X146135578Y-105218900D01*
X145917849Y-105253385D01*
X145917846Y-105253385D01*
X145917845Y-105253386D01*
X145708198Y-105321503D01*
X145708192Y-105321506D01*
X145511774Y-105421587D01*
X145333432Y-105551160D01*
X145333429Y-105551162D01*
X145177562Y-105707029D01*
X145177560Y-105707032D01*
X145047987Y-105885374D01*
X144947906Y-106081792D01*
X144947903Y-106081798D01*
X144879787Y-106291443D01*
X144879785Y-106291449D01*
X144845300Y-106509178D01*
X115746700Y-106509178D01*
X115746700Y-83769400D01*
X123345800Y-83769400D01*
X123345800Y-102969400D01*
X123545800Y-103169400D01*
X159045800Y-103169400D01*
X159045800Y-100993438D01*
X162920300Y-100993438D01*
X162920300Y-101245362D01*
X162927599Y-101291445D01*
X162959711Y-101494190D01*
X163036207Y-101729618D01*
X163037559Y-101733779D01*
X163037560Y-101733780D01*
X163151931Y-101958247D01*
X163215207Y-102045340D01*
X163239065Y-102112208D01*
X163222983Y-102181359D01*
X163215207Y-102193460D01*
X163151931Y-102280552D01*
X163037560Y-102505019D01*
X163037557Y-102505025D01*
X162959711Y-102744609D01*
X162959711Y-102744611D01*
X162959710Y-102744615D01*
X162920300Y-102993438D01*
X162920300Y-103245362D01*
X162948212Y-103421587D01*
X162959711Y-103494190D01*
X163033570Y-103721503D01*
X163037559Y-103733779D01*
X163133251Y-103921585D01*
X163151931Y-103958247D01*
X163215207Y-104045340D01*
X163239065Y-104112208D01*
X163222983Y-104181359D01*
X163215207Y-104193460D01*
X163151931Y-104280552D01*
X163037560Y-104505019D01*
X163037557Y-104505025D01*
X162959711Y-104744609D01*
X162959710Y-104744614D01*
X162959710Y-104744615D01*
X162920300Y-104993438D01*
X162920300Y-105245362D01*
X162948212Y-105421587D01*
X162959711Y-105494190D01*
X163028867Y-105707029D01*
X163037559Y-105733779D01*
X163133251Y-105921585D01*
X163151931Y-105958247D01*
X163215207Y-106045340D01*
X163239065Y-106112208D01*
X163222983Y-106181359D01*
X163215207Y-106193460D01*
X163151931Y-106280552D01*
X163037560Y-106505019D01*
X163037557Y-106505025D01*
X162959711Y-106744609D01*
X162959710Y-106744614D01*
X162959710Y-106744615D01*
X162920300Y-106993438D01*
X162920300Y-107245362D01*
X162937416Y-107353425D01*
X162959711Y-107494190D01*
X163032374Y-107717822D01*
X163037559Y-107733779D01*
X163151930Y-107958245D01*
X163151932Y-107958248D01*
X163215206Y-108045338D01*
X163239065Y-108112206D01*
X163222984Y-108181358D01*
X163215207Y-108193459D01*
X163151931Y-108280551D01*
X163037560Y-108505018D01*
X163037557Y-108505024D01*
X162959711Y-108744608D01*
X162959710Y-108744613D01*
X162959710Y-108744614D01*
X162920300Y-108993437D01*
X162920300Y-109245361D01*
X162959710Y-109494184D01*
X162959711Y-109494189D01*
X163037557Y-109733773D01*
X163037559Y-109733778D01*
X163142991Y-109940700D01*
X163156095Y-110010476D01*
X163134297Y-110069655D01*
X163078796Y-110149767D01*
X163078791Y-110149777D01*
X162985706Y-110354711D01*
X162985704Y-110354717D01*
X162930704Y-110572988D01*
X162924224Y-110655323D01*
X162920300Y-110705185D01*
X162920300Y-111533613D01*
X162921499Y-111548842D01*
X162930704Y-111665812D01*
X162930704Y-111665815D01*
X162930705Y-111665816D01*
X162985703Y-111884079D01*
X162985706Y-111884088D01*
X163078791Y-112089024D01*
X163078797Y-112089032D01*
X163206978Y-112274051D01*
X163206982Y-112274056D01*
X163366143Y-112433217D01*
X163366148Y-112433221D01*
X163551167Y-112561402D01*
X163551175Y-112561408D01*
X163641954Y-112602641D01*
X163756117Y-112654496D01*
X163974388Y-112709496D01*
X164106583Y-112719900D01*
X165385016Y-112719899D01*
X165517212Y-112709496D01*
X165735483Y-112654496D01*
X165828795Y-112612111D01*
X165899085Y-112602151D01*
X165919828Y-112606996D01*
X166146016Y-112680490D01*
X166394839Y-112719900D01*
X166394842Y-112719900D01*
X167096760Y-112719900D01*
X167096763Y-112719900D01*
X167345586Y-112680490D01*
X167585180Y-112602641D01*
X167809646Y-112488270D01*
X168013457Y-112340193D01*
X168191594Y-112162056D01*
X168303813Y-112007599D01*
X201105300Y-112007599D01*
X201105300Y-112371200D01*
X201140936Y-112733015D01*
X201140939Y-112733037D01*
X201211866Y-113089619D01*
X201211869Y-113089630D01*
X201211870Y-113089633D01*
X201241300Y-113186651D01*
X201317414Y-113437564D01*
X201317415Y-113437568D01*
X201456553Y-113773476D01*
X201627948Y-114094134D01*
X201829942Y-114396439D01*
X202060602Y-114677500D01*
X202060619Y-114677518D01*
X202317681Y-114934580D01*
X202317699Y-114934597D01*
X202598760Y-115165257D01*
X202695092Y-115229624D01*
X202901068Y-115367253D01*
X203221724Y-115538647D01*
X203557636Y-115677786D01*
X203905567Y-115783330D01*
X203905576Y-115783331D01*
X203905580Y-115783333D01*
X204050113Y-115812081D01*
X204262169Y-115854262D01*
X204624006Y-115889900D01*
X204624015Y-115889900D01*
X204987585Y-115889900D01*
X204987594Y-115889900D01*
X205349431Y-115854262D01*
X205630901Y-115798274D01*
X205706019Y-115783333D01*
X205706021Y-115783332D01*
X205706033Y-115783330D01*
X206053964Y-115677786D01*
X206389876Y-115538647D01*
X206710532Y-115367253D01*
X207012844Y-115165254D01*
X207293901Y-114934597D01*
X207550997Y-114677501D01*
X207781654Y-114396444D01*
X207983653Y-114094132D01*
X208155047Y-113773476D01*
X208294186Y-113437564D01*
X208399730Y-113089633D01*
X208470662Y-112733031D01*
X208506300Y-112371194D01*
X208506300Y-112007606D01*
X208470662Y-111645769D01*
X208417869Y-111380358D01*
X208399733Y-111289180D01*
X208399731Y-111289176D01*
X208399730Y-111289167D01*
X208294186Y-110941236D01*
X208155047Y-110605324D01*
X207983653Y-110284668D01*
X207913517Y-110179702D01*
X207781657Y-109982360D01*
X207761866Y-109958245D01*
X207550997Y-109701299D01*
X207550980Y-109701281D01*
X207293918Y-109444219D01*
X207293900Y-109444202D01*
X207051606Y-109245357D01*
X207012844Y-109213546D01*
X207012843Y-109213545D01*
X207012839Y-109213542D01*
X206710534Y-109011548D01*
X206389876Y-108840153D01*
X206053968Y-108701015D01*
X206053964Y-108701014D01*
X205950604Y-108669660D01*
X205706033Y-108595470D01*
X205706030Y-108595469D01*
X205706019Y-108595466D01*
X205349437Y-108524539D01*
X205349433Y-108524538D01*
X205349431Y-108524538D01*
X205349426Y-108524537D01*
X205349415Y-108524536D01*
X204987600Y-108488900D01*
X204987594Y-108488900D01*
X204624006Y-108488900D01*
X204623999Y-108488900D01*
X204262184Y-108524536D01*
X204262162Y-108524539D01*
X203905580Y-108595466D01*
X203557635Y-108701014D01*
X203557631Y-108701015D01*
X203221723Y-108840153D01*
X202901065Y-109011548D01*
X202598760Y-109213542D01*
X202317699Y-109444202D01*
X202317681Y-109444219D01*
X202060619Y-109701281D01*
X202060602Y-109701299D01*
X201829942Y-109982360D01*
X201627948Y-110284665D01*
X201456553Y-110605323D01*
X201317415Y-110941231D01*
X201317414Y-110941235D01*
X201211866Y-111289180D01*
X201140939Y-111645762D01*
X201140936Y-111645784D01*
X201105300Y-112007599D01*
X168303813Y-112007599D01*
X168339671Y-111958245D01*
X168454042Y-111733779D01*
X168531891Y-111494185D01*
X168571301Y-111245362D01*
X168571301Y-110993438D01*
X168531891Y-110744615D01*
X168454042Y-110505021D01*
X168339671Y-110280555D01*
X168276390Y-110193457D01*
X168252534Y-110126593D01*
X168268614Y-110057441D01*
X168276388Y-110045343D01*
X168339670Y-109958245D01*
X168454041Y-109733779D01*
X168531890Y-109494185D01*
X168571300Y-109245362D01*
X168571300Y-108993438D01*
X168531890Y-108744615D01*
X168454041Y-108505021D01*
X168339670Y-108280555D01*
X168276389Y-108193457D01*
X168252533Y-108126593D01*
X168268613Y-108057441D01*
X168276386Y-108045344D01*
X168339670Y-107958244D01*
X168454041Y-107733778D01*
X168531890Y-107494184D01*
X168571300Y-107245361D01*
X168571300Y-106993437D01*
X168531890Y-106744614D01*
X168464530Y-106537304D01*
X168462503Y-106466339D01*
X168499166Y-106405541D01*
X168562878Y-106374215D01*
X168633412Y-106382308D01*
X168633775Y-106382462D01*
X168653483Y-106390902D01*
X168653484Y-106390902D01*
X168653486Y-106390903D01*
X168786783Y-106419900D01*
X168865381Y-106436998D01*
X168914096Y-106439900D01*
X168914112Y-106439900D01*
X169357488Y-106439900D01*
X169357504Y-106439900D01*
X169406219Y-106436998D01*
X169484817Y-106419900D01*
X169619016Y-106390707D01*
X169672582Y-106390707D01*
X169806781Y-106419900D01*
X169885379Y-106436998D01*
X169934094Y-106439900D01*
X169934110Y-106439900D01*
X170377486Y-106439900D01*
X170377502Y-106439900D01*
X170426217Y-106436998D01*
X170528199Y-106414812D01*
X170599011Y-106419875D01*
X170626735Y-106434359D01*
X170635407Y-106440368D01*
X170835229Y-106531131D01*
X171048045Y-106584756D01*
X171176934Y-106594900D01*
X171739663Y-106594899D01*
X171868553Y-106584756D01*
X172081369Y-106531131D01*
X172193694Y-106480110D01*
X172263986Y-106470150D01*
X172297902Y-106480109D01*
X172410231Y-106531131D01*
X172623047Y-106584756D01*
X172751936Y-106594900D01*
X173314665Y-106594899D01*
X173443555Y-106584756D01*
X173656371Y-106531131D01*
X173856193Y-106440368D01*
X173856200Y-106440362D01*
X173861113Y-106437576D01*
X173862061Y-106439247D01*
X173921275Y-106419587D01*
X173935576Y-106419899D01*
X173935578Y-106419900D01*
X173935586Y-106419900D01*
X174156019Y-106419900D01*
X174156022Y-106419900D01*
X174373751Y-106385415D01*
X174583406Y-106317295D01*
X174779822Y-106217215D01*
X174958165Y-106087642D01*
X175114042Y-105931765D01*
X175243615Y-105753422D01*
X175343695Y-105557006D01*
X175411815Y-105347351D01*
X175446300Y-105129622D01*
X175446300Y-104909178D01*
X175411815Y-104691449D01*
X175343695Y-104481794D01*
X175243615Y-104285378D01*
X175114042Y-104107035D01*
X175114039Y-104107032D01*
X175114037Y-104107029D01*
X174958170Y-103951162D01*
X174958167Y-103951160D01*
X174958165Y-103951158D01*
X174796445Y-103833662D01*
X174779825Y-103821587D01*
X174779824Y-103821586D01*
X174779822Y-103821585D01*
X174583406Y-103721505D01*
X174583403Y-103721504D01*
X174583401Y-103721503D01*
X174373754Y-103653386D01*
X174373751Y-103653385D01*
X174156022Y-103618900D01*
X173935578Y-103618900D01*
X173826713Y-103636142D01*
X173717846Y-103653385D01*
X173631421Y-103681466D01*
X173561701Y-103683813D01*
X173443560Y-103654045D01*
X173443558Y-103654044D01*
X173443555Y-103654044D01*
X173314666Y-103643900D01*
X173314662Y-103643900D01*
X172751939Y-103643900D01*
X172676990Y-103649798D01*
X172623047Y-103654044D01*
X172623043Y-103654044D01*
X172623042Y-103654045D01*
X172410224Y-103707670D01*
X172297908Y-103758687D01*
X172227613Y-103768648D01*
X172193692Y-103758687D01*
X172081375Y-103707670D01*
X171937267Y-103671358D01*
X171868553Y-103654044D01*
X171739664Y-103643900D01*
X171739660Y-103643900D01*
X171176937Y-103643900D01*
X171101988Y-103649798D01*
X171048045Y-103654044D01*
X171048041Y-103654044D01*
X171048040Y-103654045D01*
X170835232Y-103707668D01*
X170835223Y-103707671D01*
X170635410Y-103798430D01*
X170635407Y-103798431D01*
X170626730Y-103804443D01*
X170559342Y-103826791D01*
X170528198Y-103823986D01*
X170426220Y-103801802D01*
X170426221Y-103801802D01*
X170377505Y-103798900D01*
X170377502Y-103798900D01*
X169934094Y-103798900D01*
X169934090Y-103798900D01*
X169885380Y-103801801D01*
X169672582Y-103848093D01*
X169619016Y-103848093D01*
X169406217Y-103801801D01*
X169357507Y-103798900D01*
X169357504Y-103798900D01*
X168914096Y-103798900D01*
X168914092Y-103798900D01*
X168865376Y-103801802D01*
X168653487Y-103847896D01*
X168633962Y-103856257D01*
X168563467Y-103864684D01*
X168499607Y-103833662D01*
X168462657Y-103773038D01*
X168464348Y-103702062D01*
X168464472Y-103701675D01*
X168531890Y-103494185D01*
X168571300Y-103245362D01*
X168571300Y-102993438D01*
X168531890Y-102744615D01*
X168521513Y-102712680D01*
X168519486Y-102641714D01*
X168556148Y-102580916D01*
X168619860Y-102549591D01*
X168690394Y-102557683D01*
X168730442Y-102584650D01*
X168833429Y-102687637D01*
X168833432Y-102687639D01*
X168833435Y-102687642D01*
X169011778Y-102817215D01*
X169208194Y-102917295D01*
X169417849Y-102985415D01*
X169635578Y-103019900D01*
X169635581Y-103019900D01*
X169856019Y-103019900D01*
X169856022Y-103019900D01*
X170073751Y-102985415D01*
X170283406Y-102917295D01*
X170479822Y-102817215D01*
X170658165Y-102687642D01*
X170814042Y-102531765D01*
X170943615Y-102353422D01*
X171043695Y-102157006D01*
X171111815Y-101947351D01*
X171146300Y-101729622D01*
X171146300Y-101509178D01*
X171111815Y-101291449D01*
X171043695Y-101081794D01*
X170950533Y-100898955D01*
X170936800Y-100841752D01*
X170936800Y-99397046D01*
X170950534Y-99339843D01*
X171043689Y-99157017D01*
X171043695Y-99157006D01*
X171111815Y-98947351D01*
X171146300Y-98729622D01*
X171146300Y-98509178D01*
X171111815Y-98291449D01*
X171043695Y-98081794D01*
X170943615Y-97885378D01*
X170814042Y-97707035D01*
X170814039Y-97707032D01*
X170814037Y-97707029D01*
X170658170Y-97551162D01*
X170658167Y-97551160D01*
X170658165Y-97551158D01*
X170479822Y-97421585D01*
X170283406Y-97321505D01*
X170283403Y-97321504D01*
X170283401Y-97321503D01*
X170073754Y-97253386D01*
X170073751Y-97253385D01*
X169856022Y-97218900D01*
X169635578Y-97218900D01*
X169417849Y-97253385D01*
X169417846Y-97253385D01*
X169417845Y-97253386D01*
X169208198Y-97321503D01*
X169208192Y-97321506D01*
X169011774Y-97421587D01*
X168833432Y-97551160D01*
X168833429Y-97551162D01*
X168677562Y-97707029D01*
X168677560Y-97707032D01*
X168547987Y-97885374D01*
X168447906Y-98081792D01*
X168447903Y-98081798D01*
X168379786Y-98291445D01*
X168379785Y-98291449D01*
X168345300Y-98509178D01*
X168345300Y-98729622D01*
X168379785Y-98947351D01*
X168379786Y-98947354D01*
X168447903Y-99157001D01*
X168447910Y-99157017D01*
X168541066Y-99339843D01*
X168554800Y-99397046D01*
X168554800Y-100188867D01*
X168534798Y-100256988D01*
X168481142Y-100303481D01*
X168410868Y-100313585D01*
X168346288Y-100284091D01*
X168326864Y-100262928D01*
X168262982Y-100175002D01*
X168191593Y-100076744D01*
X168191590Y-100076741D01*
X168191588Y-100076738D01*
X168013461Y-99898611D01*
X168013458Y-99898609D01*
X168013456Y-99898607D01*
X167809645Y-99750530D01*
X167585179Y-99636159D01*
X167585176Y-99636158D01*
X167585174Y-99636157D01*
X167345590Y-99558311D01*
X167345586Y-99558310D01*
X167345585Y-99558310D01*
X167096762Y-99518900D01*
X166394838Y-99518900D01*
X166146015Y-99558310D01*
X166146009Y-99558311D01*
X165906425Y-99636157D01*
X165906418Y-99636160D01*
X165803001Y-99688853D01*
X165733225Y-99701956D01*
X165688599Y-99688853D01*
X165585181Y-99636160D01*
X165585174Y-99636157D01*
X165345590Y-99558311D01*
X165345586Y-99558310D01*
X165345585Y-99558310D01*
X165096762Y-99518900D01*
X164394838Y-99518900D01*
X164146015Y-99558310D01*
X164146009Y-99558311D01*
X163906425Y-99636157D01*
X163906419Y-99636160D01*
X163681951Y-99750532D01*
X163478141Y-99898609D01*
X163478138Y-99898611D01*
X163300011Y-100076738D01*
X163300009Y-100076741D01*
X163151932Y-100280551D01*
X163037560Y-100505019D01*
X163037557Y-100505025D01*
X162959711Y-100744609D01*
X162959710Y-100744614D01*
X162959710Y-100744615D01*
X162920300Y-100993438D01*
X159045800Y-100993438D01*
X159045800Y-83769400D01*
X158945800Y-83669400D01*
X123445800Y-83669400D01*
X123345800Y-83769400D01*
X115746700Y-83769400D01*
X115746700Y-79574312D01*
X138993213Y-79574312D01*
X138993213Y-79937913D01*
X139028849Y-80299728D01*
X139028852Y-80299750D01*
X139099779Y-80656332D01*
X139099782Y-80656343D01*
X139099783Y-80656346D01*
X139103814Y-80669633D01*
X139205327Y-81004277D01*
X139205328Y-81004281D01*
X139344466Y-81340189D01*
X139515861Y-81660847D01*
X139717855Y-81963152D01*
X139948515Y-82244213D01*
X139948532Y-82244231D01*
X140205594Y-82501293D01*
X140205612Y-82501310D01*
X140486673Y-82731970D01*
X140788978Y-82933964D01*
X140788981Y-82933966D01*
X141109637Y-83105360D01*
X141445549Y-83244499D01*
X141793480Y-83350043D01*
X141793489Y-83350044D01*
X141793493Y-83350046D01*
X141938026Y-83378794D01*
X142150082Y-83420975D01*
X142511919Y-83456613D01*
X142511928Y-83456613D01*
X142875498Y-83456613D01*
X142875507Y-83456613D01*
X143237344Y-83420975D01*
X143527147Y-83363330D01*
X143593932Y-83350046D01*
X143593934Y-83350045D01*
X143593946Y-83350043D01*
X143941877Y-83244499D01*
X144277789Y-83105360D01*
X144598445Y-82933966D01*
X144900757Y-82731967D01*
X145181814Y-82501310D01*
X145438910Y-82244214D01*
X145669567Y-81963157D01*
X145871566Y-81660845D01*
X146042960Y-81340189D01*
X146182099Y-81004277D01*
X146287643Y-80656346D01*
X146358575Y-80299744D01*
X146394213Y-79937907D01*
X146394213Y-79587599D01*
X148515300Y-79587599D01*
X148515300Y-79951200D01*
X148550936Y-80313015D01*
X148550939Y-80313037D01*
X148621866Y-80669619D01*
X148727414Y-81017564D01*
X148727415Y-81017568D01*
X148866553Y-81353476D01*
X149037948Y-81674134D01*
X149239942Y-81976439D01*
X149470602Y-82257500D01*
X149470619Y-82257518D01*
X149727681Y-82514580D01*
X149727699Y-82514597D01*
X150008756Y-82745254D01*
X150311068Y-82947253D01*
X150631724Y-83118647D01*
X150967636Y-83257786D01*
X151315567Y-83363330D01*
X151315576Y-83363331D01*
X151315580Y-83363333D01*
X151460113Y-83392081D01*
X151672169Y-83434262D01*
X152034006Y-83469900D01*
X152034015Y-83469900D01*
X152397585Y-83469900D01*
X152397594Y-83469900D01*
X152759431Y-83434262D01*
X153040901Y-83378274D01*
X153116019Y-83363333D01*
X153116021Y-83363332D01*
X153116033Y-83363330D01*
X153463964Y-83257786D01*
X153799876Y-83118647D01*
X154120532Y-82947253D01*
X154422844Y-82745254D01*
X154703901Y-82514597D01*
X154960997Y-82257501D01*
X155191654Y-81976444D01*
X155393653Y-81674132D01*
X155565047Y-81353476D01*
X155704186Y-81017564D01*
X155809730Y-80669633D01*
X155880662Y-80313031D01*
X155916300Y-79951194D01*
X155916300Y-79587606D01*
X155880662Y-79225769D01*
X155809730Y-78869167D01*
X155704186Y-78521236D01*
X155565047Y-78185324D01*
X155393653Y-77864668D01*
X155191654Y-77562356D01*
X154960997Y-77281299D01*
X154960980Y-77281281D01*
X154703918Y-77024219D01*
X154703900Y-77024202D01*
X154422839Y-76793542D01*
X154120534Y-76591548D01*
X153799876Y-76420153D01*
X153463968Y-76281015D01*
X153463964Y-76281014D01*
X153420163Y-76267727D01*
X153116033Y-76175470D01*
X153116030Y-76175469D01*
X153116019Y-76175466D01*
X152759437Y-76104539D01*
X152759433Y-76104538D01*
X152759431Y-76104538D01*
X152759426Y-76104537D01*
X152759415Y-76104536D01*
X152397600Y-76068900D01*
X152397594Y-76068900D01*
X152034006Y-76068900D01*
X152033999Y-76068900D01*
X151672184Y-76104536D01*
X151672162Y-76104539D01*
X151315580Y-76175466D01*
X150967635Y-76281014D01*
X150967631Y-76281015D01*
X150631723Y-76420153D01*
X150311065Y-76591548D01*
X150008760Y-76793542D01*
X149727699Y-77024202D01*
X149727681Y-77024219D01*
X149470619Y-77281281D01*
X149470602Y-77281299D01*
X149239942Y-77562360D01*
X149037948Y-77864665D01*
X148866553Y-78185323D01*
X148727415Y-78521231D01*
X148727414Y-78521235D01*
X148621866Y-78869180D01*
X148550939Y-79225762D01*
X148550936Y-79225784D01*
X148515300Y-79587599D01*
X146394213Y-79587599D01*
X146394213Y-79574319D01*
X146358575Y-79212482D01*
X146287643Y-78855880D01*
X146182099Y-78507949D01*
X146042960Y-78172037D01*
X145871566Y-77851381D01*
X145669567Y-77549069D01*
X145438910Y-77268012D01*
X145438893Y-77267994D01*
X145181831Y-77010932D01*
X145181813Y-77010915D01*
X144900752Y-76780255D01*
X144598447Y-76578261D01*
X144277789Y-76406866D01*
X143941881Y-76267728D01*
X143941877Y-76267727D01*
X143637747Y-76175470D01*
X143593946Y-76162183D01*
X143593943Y-76162182D01*
X143593932Y-76162179D01*
X143237350Y-76091252D01*
X143237346Y-76091251D01*
X143237344Y-76091251D01*
X143237339Y-76091250D01*
X143237328Y-76091249D01*
X142875513Y-76055613D01*
X142875507Y-76055613D01*
X142511919Y-76055613D01*
X142511912Y-76055613D01*
X142150097Y-76091249D01*
X142150075Y-76091252D01*
X141793493Y-76162179D01*
X141445548Y-76267727D01*
X141445544Y-76267728D01*
X141109636Y-76406866D01*
X140788978Y-76578261D01*
X140486673Y-76780255D01*
X140205612Y-77010915D01*
X140205594Y-77010932D01*
X139948532Y-77267994D01*
X139948515Y-77268012D01*
X139717855Y-77549073D01*
X139515861Y-77851378D01*
X139344466Y-78172036D01*
X139205328Y-78507944D01*
X139205327Y-78507948D01*
X139099779Y-78855893D01*
X139028852Y-79212475D01*
X139028849Y-79212497D01*
X138993213Y-79574312D01*
X115746700Y-79574312D01*
X115746700Y-73043700D01*
X115766702Y-72975579D01*
X115820358Y-72929086D01*
X115872700Y-72917700D01*
X126086082Y-72917700D01*
X126159774Y-72887176D01*
X126216176Y-72830774D01*
X126246700Y-72757082D01*
X126246700Y-67498109D01*
X130030300Y-67498109D01*
X130030300Y-67740690D01*
X130061960Y-67981182D01*
X130124744Y-68215495D01*
X130124745Y-68215497D01*
X130124746Y-68215500D01*
X130217576Y-68439612D01*
X130217577Y-68439613D01*
X130217582Y-68439624D01*
X130338861Y-68649685D01*
X130338863Y-68649688D01*
X130338864Y-68649689D01*
X130486535Y-68842138D01*
X130486539Y-68842142D01*
X130486544Y-68842148D01*
X130658051Y-69013655D01*
X130658056Y-69013659D01*
X130658062Y-69013665D01*
X130850511Y-69161336D01*
X130850514Y-69161338D01*
X131060575Y-69282617D01*
X131060579Y-69282618D01*
X131060588Y-69282624D01*
X131230470Y-69352991D01*
X131285751Y-69397539D01*
X131308172Y-69464903D01*
X131290614Y-69533694D01*
X131238652Y-69582072D01*
X131230475Y-69585806D01*
X131086435Y-69645470D01*
X131060586Y-69656177D01*
X131060575Y-69656182D01*
X130850514Y-69777461D01*
X130658062Y-69925135D01*
X130658051Y-69925144D01*
X130486544Y-70096651D01*
X130486535Y-70096662D01*
X130338861Y-70289114D01*
X130217582Y-70499175D01*
X130217577Y-70499186D01*
X130124746Y-70723300D01*
X130124744Y-70723304D01*
X130061960Y-70957617D01*
X130030300Y-71198109D01*
X130030300Y-71440690D01*
X130061960Y-71681182D01*
X130124744Y-71915495D01*
X130124745Y-71915497D01*
X130124746Y-71915500D01*
X130217576Y-72139612D01*
X130217577Y-72139613D01*
X130217582Y-72139624D01*
X130338861Y-72349685D01*
X130338863Y-72349688D01*
X130338864Y-72349689D01*
X130486535Y-72542138D01*
X130486539Y-72542142D01*
X130486544Y-72542148D01*
X130658051Y-72713655D01*
X130658056Y-72713659D01*
X130658062Y-72713665D01*
X130850511Y-72861336D01*
X130850514Y-72861338D01*
X131060575Y-72982617D01*
X131060579Y-72982618D01*
X131060588Y-72982624D01*
X131284700Y-73075454D01*
X131519011Y-73138238D01*
X131519015Y-73138238D01*
X131519017Y-73138239D01*
X131581002Y-73146399D01*
X131759512Y-73169900D01*
X131759519Y-73169900D01*
X132002081Y-73169900D01*
X132002088Y-73169900D01*
X132219437Y-73141285D01*
X132242582Y-73138239D01*
X132242582Y-73138238D01*
X132242589Y-73138238D01*
X132476900Y-73075454D01*
X132701012Y-72982624D01*
X132791965Y-72930112D01*
X132860956Y-72913374D01*
X132928048Y-72936593D01*
X132934580Y-72941573D01*
X133017393Y-73009098D01*
X133197751Y-73103309D01*
X133393382Y-73159286D01*
X133512763Y-73169900D01*
X135328836Y-73169899D01*
X135448218Y-73159286D01*
X135643849Y-73103309D01*
X135824207Y-73009098D01*
X135981909Y-72880509D01*
X136110498Y-72722807D01*
X136204709Y-72542449D01*
X136260686Y-72346818D01*
X136271300Y-72227437D01*
X136271299Y-70411364D01*
X136260686Y-70291982D01*
X136204709Y-70096351D01*
X136110498Y-69915993D01*
X135981909Y-69758291D01*
X135824207Y-69629702D01*
X135824203Y-69629700D01*
X135824202Y-69629699D01*
X135731128Y-69581081D01*
X135680009Y-69531813D01*
X135663642Y-69462729D01*
X135687223Y-69395762D01*
X135731128Y-69357719D01*
X135779742Y-69332324D01*
X135824207Y-69309098D01*
X135981909Y-69180509D01*
X136110498Y-69022807D01*
X136204709Y-68842449D01*
X136260686Y-68646818D01*
X136263838Y-68611365D01*
X138320300Y-68611365D01*
X138320300Y-70427427D01*
X138320301Y-70427437D01*
X138326679Y-70499188D01*
X138330914Y-70546818D01*
X138381412Y-70723300D01*
X138386892Y-70742451D01*
X138476326Y-70913665D01*
X138481102Y-70922807D01*
X138609691Y-71080509D01*
X138767393Y-71209098D01*
X138947751Y-71303309D01*
X139143382Y-71359286D01*
X139262763Y-71369900D01*
X141078836Y-71369899D01*
X141198218Y-71359286D01*
X141393849Y-71303309D01*
X141574207Y-71209098D01*
X141657010Y-71141580D01*
X141722444Y-71114034D01*
X141792384Y-71126236D01*
X141799635Y-71130113D01*
X141890575Y-71182617D01*
X141890579Y-71182618D01*
X141890588Y-71182624D01*
X142114700Y-71275454D01*
X142349011Y-71338238D01*
X142349015Y-71338238D01*
X142349017Y-71338239D01*
X142411002Y-71346399D01*
X142589512Y-71369900D01*
X142589519Y-71369900D01*
X142832081Y-71369900D01*
X142832088Y-71369900D01*
X143049437Y-71341285D01*
X143072582Y-71338239D01*
X143072582Y-71338238D01*
X143072589Y-71338238D01*
X143306900Y-71275454D01*
X143531012Y-71182624D01*
X143741089Y-71061336D01*
X143933538Y-70913665D01*
X144105065Y-70742138D01*
X144252736Y-70549689D01*
X144374024Y-70339612D01*
X144466854Y-70115500D01*
X144514523Y-69937599D01*
X146575300Y-69937599D01*
X146575300Y-70301200D01*
X146610936Y-70663015D01*
X146610939Y-70663037D01*
X146681866Y-71019619D01*
X146681869Y-71019630D01*
X146681870Y-71019633D01*
X146739344Y-71209098D01*
X146787414Y-71367564D01*
X146787415Y-71367568D01*
X146926553Y-71703476D01*
X147097948Y-72024134D01*
X147299942Y-72326439D01*
X147299945Y-72326443D01*
X147299946Y-72326444D01*
X147319019Y-72349685D01*
X147530602Y-72607500D01*
X147530619Y-72607518D01*
X147787681Y-72864580D01*
X147787699Y-72864597D01*
X148044628Y-73075453D01*
X148068760Y-73095257D01*
X148207024Y-73187642D01*
X148371068Y-73297253D01*
X148691724Y-73468647D01*
X149027636Y-73607786D01*
X149375567Y-73713330D01*
X149375576Y-73713331D01*
X149375580Y-73713333D01*
X149520113Y-73742081D01*
X149732169Y-73784262D01*
X150094006Y-73819900D01*
X150094015Y-73819900D01*
X150457585Y-73819900D01*
X150457594Y-73819900D01*
X150819431Y-73784262D01*
X151100901Y-73728274D01*
X151176019Y-73713333D01*
X151176021Y-73713332D01*
X151176033Y-73713330D01*
X151523964Y-73607786D01*
X151859876Y-73468647D01*
X152180532Y-73297253D01*
X152482844Y-73095254D01*
X152528727Y-73057599D01*
X162135300Y-73057599D01*
X162135300Y-73421200D01*
X162170936Y-73783015D01*
X162170939Y-73783037D01*
X162241866Y-74139619D01*
X162347414Y-74487564D01*
X162347415Y-74487568D01*
X162486553Y-74823476D01*
X162657948Y-75144134D01*
X162859942Y-75446439D01*
X163090602Y-75727500D01*
X163090619Y-75727518D01*
X163347681Y-75984580D01*
X163347699Y-75984597D01*
X163493845Y-76104536D01*
X163628760Y-76215257D01*
X163727174Y-76281015D01*
X163931068Y-76417253D01*
X164251724Y-76588647D01*
X164587636Y-76727786D01*
X164935567Y-76833330D01*
X164935576Y-76833331D01*
X164935580Y-76833333D01*
X165080113Y-76862081D01*
X165292169Y-76904262D01*
X165654006Y-76939900D01*
X165654015Y-76939900D01*
X166017585Y-76939900D01*
X166017594Y-76939900D01*
X166379431Y-76904262D01*
X166660901Y-76848274D01*
X166736019Y-76833333D01*
X166736021Y-76833332D01*
X166736033Y-76833330D01*
X167083964Y-76727786D01*
X167419876Y-76588647D01*
X167740532Y-76417253D01*
X168042844Y-76215254D01*
X168323901Y-75984597D01*
X168580997Y-75727501D01*
X168811654Y-75446444D01*
X169013653Y-75144132D01*
X169185047Y-74823476D01*
X169324186Y-74487564D01*
X169429730Y-74139633D01*
X169500662Y-73783031D01*
X169536300Y-73421194D01*
X169536300Y-73057606D01*
X169500662Y-72695769D01*
X169432566Y-72353425D01*
X169429733Y-72339180D01*
X169429731Y-72339176D01*
X169429730Y-72339167D01*
X169324186Y-71991236D01*
X169185047Y-71655324D01*
X169013653Y-71334668D01*
X168912059Y-71182622D01*
X168811657Y-71032360D01*
X168801212Y-71019633D01*
X168580997Y-70751299D01*
X168580980Y-70751281D01*
X168323918Y-70494219D01*
X168323900Y-70494202D01*
X168042839Y-70263542D01*
X167740534Y-70061548D01*
X167419876Y-69890153D01*
X167083968Y-69751015D01*
X167083964Y-69751014D01*
X166973872Y-69717618D01*
X166736033Y-69645470D01*
X166736030Y-69645469D01*
X166736019Y-69645466D01*
X166379437Y-69574539D01*
X166379433Y-69574538D01*
X166379431Y-69574538D01*
X166379426Y-69574537D01*
X166379415Y-69574536D01*
X166017600Y-69538900D01*
X166017594Y-69538900D01*
X165654006Y-69538900D01*
X165653999Y-69538900D01*
X165292184Y-69574536D01*
X165292162Y-69574539D01*
X164935580Y-69645466D01*
X164587635Y-69751014D01*
X164587631Y-69751015D01*
X164251723Y-69890153D01*
X163931065Y-70061548D01*
X163628760Y-70263542D01*
X163347699Y-70494202D01*
X163347681Y-70494219D01*
X163090619Y-70751281D01*
X163090602Y-70751299D01*
X162859942Y-71032360D01*
X162657948Y-71334665D01*
X162486553Y-71655323D01*
X162347415Y-71991231D01*
X162347414Y-71991235D01*
X162241866Y-72339180D01*
X162170939Y-72695762D01*
X162170936Y-72695784D01*
X162135300Y-73057599D01*
X152528727Y-73057599D01*
X152763901Y-72864597D01*
X153020997Y-72607501D01*
X153251654Y-72326444D01*
X153453653Y-72024132D01*
X153625047Y-71703476D01*
X153764186Y-71367564D01*
X153869730Y-71019633D01*
X153940662Y-70663031D01*
X153976300Y-70301194D01*
X153976300Y-69937606D01*
X153940662Y-69575769D01*
X153869730Y-69219167D01*
X153843078Y-69131308D01*
X191745300Y-69131308D01*
X191745300Y-70467492D01*
X191782247Y-70700768D01*
X191782248Y-70700771D01*
X191855232Y-70925392D01*
X191919155Y-71050850D01*
X191932259Y-71120627D01*
X191926722Y-71146986D01*
X191879785Y-71291447D01*
X191867729Y-71367568D01*
X191845300Y-71509178D01*
X191845300Y-71729622D01*
X191879785Y-71947351D01*
X191879786Y-71947354D01*
X191942253Y-72139613D01*
X191947905Y-72157006D01*
X192047985Y-72353422D01*
X192177558Y-72531765D01*
X192177560Y-72531767D01*
X192177562Y-72531770D01*
X192333429Y-72687637D01*
X192333432Y-72687639D01*
X192333435Y-72687642D01*
X192511778Y-72817215D01*
X192708194Y-72917295D01*
X192917849Y-72985415D01*
X193135578Y-73019900D01*
X193135581Y-73019900D01*
X193356019Y-73019900D01*
X193356022Y-73019900D01*
X193573751Y-72985415D01*
X193783406Y-72917295D01*
X193979822Y-72817215D01*
X194158165Y-72687642D01*
X194314042Y-72531765D01*
X194343049Y-72491838D01*
X194347279Y-72488576D01*
X194349482Y-72483710D01*
X194375103Y-72467121D01*
X194399271Y-72448485D01*
X194405797Y-72447247D01*
X194409078Y-72445124D01*
X194443171Y-72440163D01*
X194444559Y-72439900D01*
X194444854Y-72439899D01*
X194673836Y-72439899D01*
X194682909Y-72439092D01*
X194688285Y-72439074D01*
X194717417Y-72447520D01*
X194747175Y-72453457D01*
X194751157Y-72457303D01*
X194756473Y-72458845D01*
X194776416Y-72481703D01*
X194798238Y-72502783D01*
X194799730Y-72508425D01*
X194803148Y-72512343D01*
X194806139Y-72532658D01*
X194814712Y-72565073D01*
X194814712Y-72807456D01*
X194832109Y-72917295D01*
X194841224Y-72974848D01*
X194844658Y-72985415D01*
X194860799Y-73035090D01*
X194893595Y-73136028D01*
X194970536Y-73287032D01*
X194970538Y-73287035D01*
X194998205Y-73325115D01*
X195070151Y-73424141D01*
X195530533Y-73884523D01*
X195561269Y-73934679D01*
X195585332Y-74008735D01*
X195685412Y-74205151D01*
X195814985Y-74383494D01*
X195814987Y-74383496D01*
X195814989Y-74383499D01*
X195970856Y-74539366D01*
X195970859Y-74539368D01*
X195970862Y-74539371D01*
X196149205Y-74668944D01*
X196345621Y-74769024D01*
X196555276Y-74837144D01*
X196773005Y-74871629D01*
X196773008Y-74871629D01*
X196993446Y-74871629D01*
X196993449Y-74871629D01*
X197211178Y-74837144D01*
X197420833Y-74769024D01*
X197617249Y-74668944D01*
X197795592Y-74539371D01*
X197951469Y-74383494D01*
X198081042Y-74205151D01*
X198181122Y-74008735D01*
X198249242Y-73799080D01*
X198283727Y-73581351D01*
X198283727Y-73522536D01*
X198292511Y-73492619D01*
X198299139Y-73462151D01*
X198302953Y-73457054D01*
X198303729Y-73454415D01*
X198320627Y-73433445D01*
X198397416Y-73356656D01*
X198459725Y-73322633D01*
X198530541Y-73327697D01*
X198543706Y-73333483D01*
X198708194Y-73417295D01*
X198917849Y-73485415D01*
X199135578Y-73519900D01*
X199135581Y-73519900D01*
X199356019Y-73519900D01*
X199356022Y-73519900D01*
X199573751Y-73485415D01*
X199783406Y-73417295D01*
X199938598Y-73338219D01*
X200008373Y-73325115D01*
X200052999Y-73338218D01*
X200208194Y-73417295D01*
X200417849Y-73485415D01*
X200635578Y-73519900D01*
X200635581Y-73519900D01*
X200856019Y-73519900D01*
X200856022Y-73519900D01*
X201073751Y-73485415D01*
X201283406Y-73417295D01*
X201479822Y-73317215D01*
X201658165Y-73187642D01*
X201814042Y-73031765D01*
X201943615Y-72853422D01*
X202043695Y-72657006D01*
X202111815Y-72447351D01*
X202146300Y-72229622D01*
X202146300Y-72009178D01*
X202137908Y-71956194D01*
X202147008Y-71885785D01*
X202192730Y-71831471D01*
X202232957Y-71813963D01*
X202237155Y-71812955D01*
X202237168Y-71812953D01*
X202461792Y-71739968D01*
X202672233Y-71632743D01*
X202863310Y-71493917D01*
X203030317Y-71326910D01*
X203169143Y-71135833D01*
X203276368Y-70925392D01*
X203349353Y-70700768D01*
X203386300Y-70467492D01*
X203386300Y-69131308D01*
X203349353Y-68898032D01*
X203276368Y-68673408D01*
X203169143Y-68462967D01*
X203030317Y-68271890D01*
X203030315Y-68271887D01*
X202863312Y-68104884D01*
X202672236Y-67966059D01*
X202672235Y-67966058D01*
X202672233Y-67966057D01*
X202461792Y-67858832D01*
X202237168Y-67785847D01*
X202003892Y-67748900D01*
X201767708Y-67748900D01*
X201534432Y-67785847D01*
X201534429Y-67785847D01*
X201534428Y-67785848D01*
X201309808Y-67858832D01*
X201309806Y-67858833D01*
X201099363Y-67966059D01*
X200908287Y-68104884D01*
X200741284Y-68271887D01*
X200602459Y-68462963D01*
X200602457Y-68462967D01*
X200526845Y-68611365D01*
X200521883Y-68621103D01*
X200473135Y-68672718D01*
X200409616Y-68689900D01*
X200379507Y-68689900D01*
X200232122Y-68729392D01*
X200232117Y-68729394D01*
X200099982Y-68805682D01*
X200099972Y-68805690D01*
X199992091Y-68913571D01*
X199992085Y-68913579D01*
X199986473Y-68923300D01*
X199984970Y-68925903D01*
X199933586Y-68974895D01*
X199875853Y-68988900D01*
X199657774Y-68988900D01*
X199657757Y-68988901D01*
X199601957Y-68993861D01*
X199579647Y-68993861D01*
X199554637Y-68991638D01*
X199523837Y-68988900D01*
X199523833Y-68988900D01*
X199107775Y-68988900D01*
X199107751Y-68988902D01*
X199076962Y-68991638D01*
X199054656Y-68991638D01*
X199025243Y-68989024D01*
X199023837Y-68988899D01*
X199023836Y-68988899D01*
X198607775Y-68988899D01*
X198607756Y-68988900D01*
X198606322Y-68989028D01*
X198606062Y-68988976D01*
X198604985Y-68989024D01*
X198604979Y-68988899D01*
X198604971Y-68988900D01*
X198604971Y-68988758D01*
X198536701Y-68975120D01*
X198506100Y-68952615D01*
X198444428Y-68890943D01*
X198444425Y-68890941D01*
X198444423Y-68890939D01*
X198307314Y-68791324D01*
X198156310Y-68714383D01*
X198156307Y-68714382D01*
X198156305Y-68714381D01*
X198030201Y-68673408D01*
X197995128Y-68662012D01*
X197827738Y-68635500D01*
X197827735Y-68635500D01*
X197435097Y-68635500D01*
X197366976Y-68615498D01*
X197333162Y-68583562D01*
X197298040Y-68535220D01*
X197298039Y-68535219D01*
X197298037Y-68535216D01*
X197142168Y-68379347D01*
X197142165Y-68379345D01*
X197142163Y-68379343D01*
X196963820Y-68249770D01*
X196767404Y-68149690D01*
X196767401Y-68149689D01*
X196767399Y-68149688D01*
X196557752Y-68081571D01*
X196557749Y-68081570D01*
X196340020Y-68047085D01*
X196119576Y-68047085D01*
X195901847Y-68081570D01*
X195901844Y-68081570D01*
X195901843Y-68081571D01*
X195692196Y-68149688D01*
X195692190Y-68149691D01*
X195495772Y-68249772D01*
X195317430Y-68379345D01*
X195317427Y-68379347D01*
X195161560Y-68535214D01*
X195161558Y-68535217D01*
X195050875Y-68687559D01*
X194994653Y-68730913D01*
X194923916Y-68736988D01*
X194922038Y-68736593D01*
X194905806Y-68733045D01*
X194899478Y-68729392D01*
X194752093Y-68689900D01*
X194708376Y-68689900D01*
X194695083Y-68686995D01*
X194675396Y-68676220D01*
X194653863Y-68669898D01*
X194644073Y-68659077D01*
X194632804Y-68652910D01*
X194624191Y-68637101D01*
X194609717Y-68621103D01*
X194606861Y-68615498D01*
X194529143Y-68462967D01*
X194390317Y-68271890D01*
X194390315Y-68271887D01*
X194223312Y-68104884D01*
X194032236Y-67966059D01*
X194032235Y-67966058D01*
X194032233Y-67966057D01*
X193821792Y-67858832D01*
X193597168Y-67785847D01*
X193363892Y-67748900D01*
X193127708Y-67748900D01*
X192894432Y-67785847D01*
X192894429Y-67785847D01*
X192894428Y-67785848D01*
X192669808Y-67858832D01*
X192669806Y-67858833D01*
X192459363Y-67966059D01*
X192268287Y-68104884D01*
X192101284Y-68271887D01*
X191962459Y-68462963D01*
X191855233Y-68673406D01*
X191855232Y-68673408D01*
X191784552Y-68890939D01*
X191782247Y-68898032D01*
X191745300Y-69131308D01*
X153843078Y-69131308D01*
X153764186Y-68871236D01*
X153625047Y-68535324D01*
X153453653Y-68214668D01*
X153387720Y-68115993D01*
X153251657Y-67912360D01*
X153243321Y-67902203D01*
X153020997Y-67631299D01*
X153020980Y-67631281D01*
X152763918Y-67374219D01*
X152763900Y-67374202D01*
X152482839Y-67143542D01*
X152180534Y-66941548D01*
X151859876Y-66770153D01*
X151523968Y-66631015D01*
X151523964Y-66631014D01*
X151395293Y-66591982D01*
X151176033Y-66525470D01*
X151176030Y-66525469D01*
X151176019Y-66525466D01*
X150819437Y-66454539D01*
X150819433Y-66454538D01*
X150819431Y-66454538D01*
X150819426Y-66454537D01*
X150819415Y-66454536D01*
X150457600Y-66418900D01*
X150457594Y-66418900D01*
X150094006Y-66418900D01*
X150093999Y-66418900D01*
X149732184Y-66454536D01*
X149732162Y-66454539D01*
X149375580Y-66525466D01*
X149027635Y-66631014D01*
X149027631Y-66631015D01*
X148691723Y-66770153D01*
X148371065Y-66941548D01*
X148068760Y-67143542D01*
X147787699Y-67374202D01*
X147787681Y-67374219D01*
X147530619Y-67631281D01*
X147530602Y-67631299D01*
X147299942Y-67912360D01*
X147097948Y-68214665D01*
X146926553Y-68535323D01*
X146787415Y-68871231D01*
X146787414Y-68871235D01*
X146681866Y-69219180D01*
X146610939Y-69575762D01*
X146610936Y-69575784D01*
X146575300Y-69937599D01*
X144514523Y-69937599D01*
X144529638Y-69881189D01*
X144561300Y-69640688D01*
X144561300Y-69398112D01*
X144532653Y-69180509D01*
X144529639Y-69157617D01*
X144529638Y-69157615D01*
X144529638Y-69157611D01*
X144466854Y-68923300D01*
X144374024Y-68699188D01*
X144374018Y-68699179D01*
X144374017Y-68699175D01*
X144252738Y-68489114D01*
X144214763Y-68439624D01*
X144105065Y-68296662D01*
X144105059Y-68296656D01*
X144105055Y-68296651D01*
X143933548Y-68125144D01*
X143933542Y-68125139D01*
X143933538Y-68125135D01*
X143741089Y-67977464D01*
X143741088Y-67977463D01*
X143741085Y-67977461D01*
X143531024Y-67856182D01*
X143531016Y-67856178D01*
X143531012Y-67856176D01*
X143306900Y-67763346D01*
X143306897Y-67763345D01*
X143306895Y-67763344D01*
X143072582Y-67700560D01*
X142832090Y-67668900D01*
X142832088Y-67668900D01*
X142589512Y-67668900D01*
X142589509Y-67668900D01*
X142349017Y-67700560D01*
X142114704Y-67763344D01*
X142114700Y-67763346D01*
X141890588Y-67856176D01*
X141890585Y-67856177D01*
X141890584Y-67856178D01*
X141799634Y-67908687D01*
X141730638Y-67925424D01*
X141663547Y-67902203D01*
X141657011Y-67897219D01*
X141574207Y-67829702D01*
X141393851Y-67735492D01*
X141393850Y-67735491D01*
X141393849Y-67735491D01*
X141198218Y-67679514D01*
X141078837Y-67668900D01*
X141078832Y-67668900D01*
X139262772Y-67668900D01*
X139262762Y-67668901D01*
X139143388Y-67679513D01*
X139143385Y-67679513D01*
X139143382Y-67679514D01*
X138947751Y-67735491D01*
X138947748Y-67735492D01*
X138767395Y-67829700D01*
X138609691Y-67958291D01*
X138481100Y-68115995D01*
X138386892Y-68296348D01*
X138386891Y-68296350D01*
X138386891Y-68296351D01*
X138330914Y-68491982D01*
X138321541Y-68597411D01*
X138320300Y-68611365D01*
X136263838Y-68611365D01*
X136271300Y-68527437D01*
X136271299Y-66711364D01*
X136260686Y-66591982D01*
X136204709Y-66396351D01*
X136110498Y-66215993D01*
X135981909Y-66058291D01*
X135824207Y-65929702D01*
X135824205Y-65929701D01*
X135824204Y-65929700D01*
X135643851Y-65835492D01*
X135643850Y-65835491D01*
X135643849Y-65835491D01*
X135448218Y-65779514D01*
X135328837Y-65768900D01*
X135328832Y-65768900D01*
X133512772Y-65768900D01*
X133512762Y-65768901D01*
X133393388Y-65779513D01*
X133393385Y-65779513D01*
X133393382Y-65779514D01*
X133197751Y-65835491D01*
X133197748Y-65835492D01*
X133017395Y-65929700D01*
X132934588Y-65997220D01*
X132869153Y-66024766D01*
X132799213Y-66012562D01*
X132791964Y-66008686D01*
X132701024Y-65956182D01*
X132701016Y-65956178D01*
X132701012Y-65956176D01*
X132476900Y-65863346D01*
X132476897Y-65863345D01*
X132476895Y-65863344D01*
X132242582Y-65800560D01*
X132002090Y-65768900D01*
X132002088Y-65768900D01*
X131759512Y-65768900D01*
X131759509Y-65768900D01*
X131519017Y-65800560D01*
X131284704Y-65863344D01*
X131284700Y-65863346D01*
X131060586Y-65956177D01*
X131060575Y-65956182D01*
X130850514Y-66077461D01*
X130658062Y-66225135D01*
X130658051Y-66225144D01*
X130486544Y-66396651D01*
X130486535Y-66396662D01*
X130338861Y-66589114D01*
X130217582Y-66799175D01*
X130217577Y-66799186D01*
X130217576Y-66799188D01*
X130158609Y-66941547D01*
X130124746Y-67023300D01*
X130124744Y-67023304D01*
X130061960Y-67257617D01*
X130030300Y-67498109D01*
X126246700Y-67498109D01*
X126246700Y-65201308D01*
X191745300Y-65201308D01*
X191745300Y-66037492D01*
X191782247Y-66270768D01*
X191855232Y-66495392D01*
X191962457Y-66705833D01*
X191962459Y-66705836D01*
X192101284Y-66896912D01*
X192268287Y-67063915D01*
X192268290Y-67063917D01*
X192459367Y-67202743D01*
X192669808Y-67309968D01*
X192894432Y-67382953D01*
X193127708Y-67419900D01*
X193127711Y-67419900D01*
X193363889Y-67419900D01*
X193363892Y-67419900D01*
X193597168Y-67382953D01*
X193821792Y-67309968D01*
X194032233Y-67202743D01*
X194223310Y-67063917D01*
X194390317Y-66896910D01*
X194529143Y-66705833D01*
X194636368Y-66495392D01*
X194709353Y-66270768D01*
X194746300Y-66037492D01*
X194746300Y-65201308D01*
X200385300Y-65201308D01*
X200385300Y-66037492D01*
X200422247Y-66270768D01*
X200495232Y-66495392D01*
X200602457Y-66705833D01*
X200602459Y-66705836D01*
X200741284Y-66896912D01*
X200908287Y-67063915D01*
X200908290Y-67063917D01*
X201099367Y-67202743D01*
X201309808Y-67309968D01*
X201534432Y-67382953D01*
X201767708Y-67419900D01*
X201767711Y-67419900D01*
X202003889Y-67419900D01*
X202003892Y-67419900D01*
X202237168Y-67382953D01*
X202461792Y-67309968D01*
X202672233Y-67202743D01*
X202863310Y-67063917D01*
X203030317Y-66896910D01*
X203169143Y-66705833D01*
X203276368Y-66495392D01*
X203349353Y-66270768D01*
X203386300Y-66037492D01*
X203386300Y-65201308D01*
X203349353Y-64968032D01*
X203276368Y-64743408D01*
X203169143Y-64532967D01*
X203030317Y-64341890D01*
X203030315Y-64341887D01*
X202863312Y-64174884D01*
X202672236Y-64036059D01*
X202672235Y-64036058D01*
X202672233Y-64036057D01*
X202461792Y-63928832D01*
X202237168Y-63855847D01*
X202003892Y-63818900D01*
X201767708Y-63818900D01*
X201534432Y-63855847D01*
X201534429Y-63855847D01*
X201534428Y-63855848D01*
X201309808Y-63928832D01*
X201309806Y-63928833D01*
X201099363Y-64036059D01*
X200908287Y-64174884D01*
X200741284Y-64341887D01*
X200602459Y-64532963D01*
X200602457Y-64532967D01*
X200495232Y-64743408D01*
X200422247Y-64968032D01*
X200385300Y-65201308D01*
X194746300Y-65201308D01*
X194709353Y-64968032D01*
X194636368Y-64743408D01*
X194529143Y-64532967D01*
X194390317Y-64341890D01*
X194390315Y-64341887D01*
X194223312Y-64174884D01*
X194032236Y-64036059D01*
X194032235Y-64036058D01*
X194032233Y-64036057D01*
X193821792Y-63928832D01*
X193597168Y-63855847D01*
X193363892Y-63818900D01*
X193127708Y-63818900D01*
X192894432Y-63855847D01*
X192894429Y-63855847D01*
X192894428Y-63855848D01*
X192669808Y-63928832D01*
X192669806Y-63928833D01*
X192459363Y-64036059D01*
X192268287Y-64174884D01*
X192101284Y-64341887D01*
X191962459Y-64532963D01*
X191962457Y-64532967D01*
X191855232Y-64743408D01*
X191782247Y-64968032D01*
X191745300Y-65201308D01*
X126246700Y-65201308D01*
X126246700Y-62543700D01*
X126266702Y-62475579D01*
X126320358Y-62429086D01*
X126372700Y-62417700D01*
X140574949Y-62417700D01*
X140597395Y-62419907D01*
G37*
%TD.AperFunction*%
%TA.AperFunction,NonConductor*%
G36*
X132928048Y-69236593D02*
G01*
X132934580Y-69241573D01*
X133017393Y-69309098D01*
X133017395Y-69309099D01*
X133110472Y-69357719D01*
X133114096Y-69361212D01*
X133118946Y-69362572D01*
X133139410Y-69385610D01*
X133161590Y-69406988D01*
X133162750Y-69411886D01*
X133166095Y-69415652D01*
X133170855Y-69446096D01*
X133177957Y-69476072D01*
X133176284Y-69480820D01*
X133177063Y-69485797D01*
X133164607Y-69513982D01*
X133154376Y-69543038D01*
X133149844Y-69547388D01*
X133148366Y-69550735D01*
X133136271Y-69560420D01*
X133121553Y-69574552D01*
X133116173Y-69578103D01*
X133017393Y-69629702D01*
X132929679Y-69701222D01*
X132924383Y-69704719D01*
X132896271Y-69713350D01*
X132869153Y-69724766D01*
X132862736Y-69723646D01*
X132856513Y-69725557D01*
X132828193Y-69717618D01*
X132799213Y-69712562D01*
X132791964Y-69708686D01*
X132701024Y-69656182D01*
X132701016Y-69656178D01*
X132701012Y-69656176D01*
X132531127Y-69585807D01*
X132475848Y-69541261D01*
X132453427Y-69473897D01*
X132470985Y-69405106D01*
X132522947Y-69356728D01*
X132531113Y-69352998D01*
X132701012Y-69282624D01*
X132791965Y-69230112D01*
X132860956Y-69213374D01*
X132928048Y-69236593D01*
G37*
%TD.AperFunction*%
%TA.AperFunction,NonConductor*%
G36*
X159045800Y-83769400D02*
G01*
X159045800Y-103169400D01*
X123545800Y-103169400D01*
X123345800Y-102969400D01*
X123345800Y-83769400D01*
X123445800Y-83669400D01*
X158945800Y-83669400D01*
X159045800Y-83769400D01*
G37*
%TD.AperFunction*%
%TA.AperFunction,NonConductor*%
G36*
X215287821Y-145599402D02*
G01*
X215334314Y-145653058D01*
X215345700Y-145705400D01*
X215345700Y-151390700D01*
X215325698Y-151458821D01*
X215272042Y-151505314D01*
X215219700Y-151516700D01*
X205006318Y-151516700D01*
X204932626Y-151547223D01*
X204932622Y-151547226D01*
X204876226Y-151603622D01*
X204876223Y-151603626D01*
X204845700Y-151677317D01*
X204845700Y-161890700D01*
X204825698Y-161958821D01*
X204772042Y-162005314D01*
X204719700Y-162016700D01*
X126372700Y-162016700D01*
X126304579Y-161996698D01*
X126258086Y-161943042D01*
X126246700Y-161890700D01*
X126246700Y-155504139D01*
X130725987Y-155504139D01*
X132583671Y-155504139D01*
X132651792Y-155524141D01*
X132698285Y-155577797D01*
X132709671Y-155630139D01*
X132709671Y-158884175D01*
X142508541Y-158884175D01*
X142508541Y-155603417D01*
X143234005Y-155603417D01*
X143238012Y-155707932D01*
X143238013Y-155707949D01*
X143257103Y-155918701D01*
X143269009Y-156006689D01*
X143307478Y-156219707D01*
X143325712Y-156301181D01*
X143381096Y-156507948D01*
X143407425Y-156591500D01*
X143477268Y-156783532D01*
X143477269Y-156783535D01*
X143517461Y-156878556D01*
X143599312Y-157047367D01*
X143599320Y-157047381D01*
X143667460Y-157166458D01*
X143667468Y-157166471D01*
X143758862Y-157303548D01*
X143845433Y-157415451D01*
X143845440Y-157415459D01*
X143891249Y-157466765D01*
X143935403Y-157513152D01*
X143951467Y-157528986D01*
X143971752Y-157548981D01*
X144009631Y-157584439D01*
X144043852Y-157614855D01*
X144130498Y-157683718D01*
X144151309Y-157698464D01*
X144166412Y-157709167D01*
X144166429Y-157709178D01*
X144270716Y-157771990D01*
X144294387Y-157786247D01*
X144335820Y-157807177D01*
X144472412Y-157863985D01*
X144523176Y-157880836D01*
X144523186Y-157880838D01*
X144523190Y-157880840D01*
X144598638Y-157901087D01*
X144636369Y-157911213D01*
X144700281Y-157924427D01*
X144700286Y-157924428D01*
X144727604Y-157928937D01*
X144791558Y-157959764D01*
X144828693Y-158020275D01*
X144831133Y-158031159D01*
X144836073Y-158058896D01*
X144836080Y-158058926D01*
X144876437Y-158213296D01*
X144906520Y-158299674D01*
X144940903Y-158375107D01*
X144983579Y-158468735D01*
X145027272Y-158545013D01*
X145113266Y-158671686D01*
X145172814Y-158746448D01*
X145209422Y-158789837D01*
X145214710Y-158795757D01*
X145257870Y-158838559D01*
X145301025Y-158881358D01*
X145301046Y-158881377D01*
X145423015Y-158988513D01*
X145423023Y-158988519D01*
X145423027Y-158988523D01*
X145571228Y-159096454D01*
X145571236Y-159096458D01*
X145571241Y-159096462D01*
X145729450Y-159190902D01*
X145729456Y-159190905D01*
X145729461Y-159190908D01*
X145850173Y-159252341D01*
X145850177Y-159252343D01*
X145850188Y-159252348D01*
X146037586Y-159332320D01*
X146037592Y-159332322D01*
X146037601Y-159332326D01*
X146139636Y-159369494D01*
X146139661Y-159369501D01*
X146139671Y-159369505D01*
X146349194Y-159433241D01*
X146349213Y-159433246D01*
X146349219Y-159433248D01*
X146441193Y-159456547D01*
X146665889Y-159502307D01*
X146665908Y-159502310D01*
X146665918Y-159502312D01*
X146716927Y-159510338D01*
X146754903Y-159516314D01*
X146987672Y-159542319D01*
X146987676Y-159542319D01*
X146987683Y-159542320D01*
X147073827Y-159547946D01*
X147080014Y-159548351D01*
X147313814Y-159552839D01*
X147313846Y-159552838D01*
X147313847Y-159552838D01*
X147415752Y-159549621D01*
X147415760Y-159549620D01*
X147415777Y-159549620D01*
X147415791Y-159549618D01*
X147415806Y-159549618D01*
X147643569Y-159530829D01*
X147702058Y-159524276D01*
X147710592Y-159523066D01*
X147755320Y-159515692D01*
X147881737Y-159491912D01*
X147937708Y-159479723D01*
X148083177Y-159443675D01*
X148124908Y-159432376D01*
X148273088Y-159388816D01*
X148316794Y-159374878D01*
X148379273Y-159353369D01*
X148451332Y-159328564D01*
X148451340Y-159328561D01*
X148510677Y-159306015D01*
X148604028Y-159267131D01*
X148728055Y-159205111D01*
X148853395Y-159131217D01*
X148977922Y-159044511D01*
X149095331Y-158948836D01*
X149201014Y-158849181D01*
X149298574Y-158742860D01*
X149409171Y-158597876D01*
X149473117Y-158496073D01*
X149538032Y-158375107D01*
X149551497Y-158345293D01*
X149575957Y-158286193D01*
X149586882Y-158257220D01*
X149618558Y-158157895D01*
X149627209Y-158124959D01*
X149647669Y-158027751D01*
X149647670Y-158027740D01*
X149647989Y-158026228D01*
X149648920Y-158026424D01*
X149679194Y-157966152D01*
X149740301Y-157930007D01*
X149745014Y-157928907D01*
X149789694Y-157919406D01*
X149796300Y-157917978D01*
X149989575Y-157854443D01*
X150134679Y-157789827D01*
X150172602Y-157771983D01*
X150344763Y-157663573D01*
X150469899Y-157565788D01*
X150492872Y-157547287D01*
X150635491Y-157402196D01*
X150741953Y-157269315D01*
X150847773Y-157107506D01*
X150936852Y-156937599D01*
X150995529Y-156802426D01*
X151068519Y-156593564D01*
X151096726Y-156497839D01*
X151145784Y-156294652D01*
X151163060Y-156205699D01*
X151212282Y-155872717D01*
X151222706Y-155753510D01*
X151231687Y-155429149D01*
X151230800Y-155403430D01*
X151227964Y-155321174D01*
X151227383Y-155304322D01*
X151195885Y-154979328D01*
X151179562Y-154871840D01*
X151120038Y-154585263D01*
X151085257Y-154459465D01*
X151085255Y-154459459D01*
X151085253Y-154459452D01*
X151012463Y-154250148D01*
X150934303Y-154078997D01*
X150831260Y-153899897D01*
X150831170Y-153899741D01*
X150828107Y-153894453D01*
X150708326Y-153730002D01*
X150576468Y-153582913D01*
X150562892Y-153568070D01*
X150409750Y-153434133D01*
X150409747Y-153434131D01*
X150409745Y-153434129D01*
X150250766Y-153321290D01*
X150250761Y-153321287D01*
X150125425Y-153245417D01*
X150125422Y-153245415D01*
X150125408Y-153245408D01*
X150125399Y-153245403D01*
X150104478Y-153234739D01*
X150073213Y-153218802D01*
X150043299Y-153204172D01*
X149998152Y-153183012D01*
X149915635Y-153144336D01*
X149894620Y-153134780D01*
X149894604Y-153134774D01*
X149894600Y-153134772D01*
X149894593Y-153134770D01*
X149894586Y-153134767D01*
X149745232Y-153086278D01*
X149686617Y-153046218D01*
X149658965Y-152980828D01*
X149658669Y-152977971D01*
X149656968Y-152959326D01*
X149649574Y-152898466D01*
X149649574Y-152898461D01*
X149632059Y-152797550D01*
X149632058Y-152797542D01*
X149621450Y-152750722D01*
X149585821Y-152629433D01*
X149583406Y-152622789D01*
X152725300Y-152622789D01*
X152725300Y-152796011D01*
X152752398Y-152967101D01*
X152805927Y-153131845D01*
X152805928Y-153131848D01*
X152805930Y-153131852D01*
X152834941Y-153188789D01*
X152884568Y-153286188D01*
X152986386Y-153426328D01*
X153105363Y-153545305D01*
X153139387Y-153607615D01*
X153134323Y-153678431D01*
X153105364Y-153723492D01*
X153086387Y-153742469D01*
X152984568Y-153882611D01*
X152905930Y-154036947D01*
X152905927Y-154036953D01*
X152905927Y-154036955D01*
X152852398Y-154201699D01*
X152825300Y-154372789D01*
X152825300Y-157072789D01*
X152825300Y-157246011D01*
X152852398Y-157417101D01*
X152905927Y-157581845D01*
X152905928Y-157581848D01*
X152905930Y-157581852D01*
X152984568Y-157736188D01*
X153086385Y-157876327D01*
X153086390Y-157876333D01*
X153208869Y-157998812D01*
X153208872Y-157998814D01*
X153349012Y-158100632D01*
X153503355Y-158179273D01*
X153668099Y-158232802D01*
X153839189Y-158259900D01*
X153839192Y-158259900D01*
X156712408Y-158259900D01*
X156712411Y-158259900D01*
X156883501Y-158232802D01*
X157048245Y-158179273D01*
X157202588Y-158100632D01*
X157342728Y-157998814D01*
X157465214Y-157876328D01*
X158315215Y-157026327D01*
X158357916Y-156967554D01*
X158417032Y-156886188D01*
X158495673Y-156731845D01*
X158549203Y-156567100D01*
X158576300Y-156396010D01*
X158576300Y-156222789D01*
X158576300Y-153522789D01*
X158572640Y-153499682D01*
X158549203Y-153351699D01*
X158495673Y-153186954D01*
X158495672Y-153186952D01*
X158494040Y-153183012D01*
X158486450Y-153112422D01*
X158490610Y-153095871D01*
X158529202Y-152977101D01*
X158556300Y-152806011D01*
X158556300Y-152632789D01*
X158529202Y-152461699D01*
X158475673Y-152296955D01*
X158474039Y-152293749D01*
X158436325Y-152219729D01*
X158397032Y-152142612D01*
X158295214Y-152002472D01*
X158295212Y-152002469D01*
X158172730Y-151879987D01*
X158032588Y-151778168D01*
X157878252Y-151699530D01*
X157878248Y-151699528D01*
X157878245Y-151699527D01*
X157713501Y-151645998D01*
X157542411Y-151618900D01*
X157369189Y-151618900D01*
X157198099Y-151645998D01*
X157198096Y-151645998D01*
X157198095Y-151645999D01*
X157123478Y-151670244D01*
X157033355Y-151699527D01*
X157033353Y-151699527D01*
X157033347Y-151699530D01*
X156879011Y-151778168D01*
X156738871Y-151879986D01*
X156529239Y-152089619D01*
X156146861Y-152471996D01*
X156084551Y-152506020D01*
X156057768Y-152508900D01*
X155233832Y-152508900D01*
X155165711Y-152488898D01*
X155144741Y-152471999D01*
X154542728Y-151869986D01*
X154402588Y-151768168D01*
X154333639Y-151733037D01*
X154248252Y-151689530D01*
X154248248Y-151689528D01*
X154248245Y-151689527D01*
X154083501Y-151635998D01*
X153912411Y-151608900D01*
X153739189Y-151608900D01*
X153568099Y-151635998D01*
X153568096Y-151635998D01*
X153568095Y-151635999D01*
X153537322Y-151645998D01*
X153403355Y-151689527D01*
X153403353Y-151689527D01*
X153403347Y-151689530D01*
X153249011Y-151768168D01*
X153108869Y-151869987D01*
X152986387Y-151992469D01*
X152884568Y-152132611D01*
X152805930Y-152286947D01*
X152805927Y-152286953D01*
X152805927Y-152286955D01*
X152752398Y-152451699D01*
X152725300Y-152622789D01*
X149583406Y-152622789D01*
X149571130Y-152589013D01*
X149542743Y-152520343D01*
X149537826Y-152508446D01*
X149522393Y-152475265D01*
X149436826Y-152326149D01*
X149436817Y-152326133D01*
X149378033Y-152241407D01*
X149362993Y-152219729D01*
X149318528Y-152160436D01*
X149318525Y-152160432D01*
X149318524Y-152160431D01*
X149318522Y-152160428D01*
X149175203Y-152016029D01*
X149175202Y-152016028D01*
X149175193Y-152016020D01*
X149066164Y-151926436D01*
X149051187Y-151914369D01*
X149051183Y-151914366D01*
X148879606Y-151805038D01*
X148734274Y-151731948D01*
X148734254Y-151731939D01*
X148581571Y-151670248D01*
X148581566Y-151670246D01*
X148581560Y-151670244D01*
X148398779Y-151613302D01*
X148398772Y-151613300D01*
X148398768Y-151613299D01*
X148334883Y-151597473D01*
X148283367Y-151584711D01*
X148283370Y-151584711D01*
X148081573Y-151547223D01*
X148062033Y-151543593D01*
X148062030Y-151543592D01*
X148062027Y-151543592D01*
X147976599Y-151531487D01*
X147715644Y-151505871D01*
X147652194Y-151501662D01*
X147350380Y-151491209D01*
X147319940Y-151490618D01*
X147292443Y-151490500D01*
X147250091Y-151490320D01*
X147250074Y-151490320D01*
X147250054Y-151490320D01*
X147230760Y-151490423D01*
X146984762Y-151494112D01*
X146945124Y-151495489D01*
X146737305Y-151506814D01*
X146679451Y-151511645D01*
X146503695Y-151531448D01*
X146424250Y-151543633D01*
X146274640Y-151572745D01*
X146274629Y-151572747D01*
X146174993Y-151597473D01*
X146174976Y-151597478D01*
X146045488Y-151636733D01*
X146045464Y-151636741D01*
X145950661Y-151670752D01*
X145865987Y-151706010D01*
X145732672Y-151773554D01*
X145732669Y-151773556D01*
X145578682Y-151866562D01*
X145578666Y-151866572D01*
X145578023Y-151866961D01*
X145578020Y-151866963D01*
X145415499Y-151989345D01*
X145415496Y-151989347D01*
X145284965Y-152110164D01*
X145276586Y-152118009D01*
X145143773Y-152272108D01*
X145143772Y-152272110D01*
X145046191Y-152411725D01*
X145046188Y-152411729D01*
X144975611Y-152528961D01*
X144966124Y-152547462D01*
X144958599Y-152562441D01*
X144903990Y-152673414D01*
X144882156Y-152720853D01*
X144821251Y-152914974D01*
X144821250Y-152914979D01*
X144816196Y-152964685D01*
X144789405Y-153030432D01*
X144731321Y-153071258D01*
X144713799Y-153075828D01*
X144646379Y-153088319D01*
X144646371Y-153088320D01*
X144646353Y-153088325D01*
X144572529Y-153106861D01*
X144572511Y-153106867D01*
X144413419Y-153161312D01*
X144350790Y-153188788D01*
X144350788Y-153188789D01*
X144214146Y-153261767D01*
X144154395Y-153299868D01*
X144095572Y-153340384D01*
X144073240Y-153356965D01*
X144073239Y-153356965D01*
X143955770Y-153459206D01*
X143955749Y-153459225D01*
X143860869Y-153555696D01*
X143854979Y-153561735D01*
X143729039Y-153721527D01*
X143642400Y-153857855D01*
X143573140Y-153986666D01*
X143550649Y-154036956D01*
X143496350Y-154158368D01*
X143479724Y-154201695D01*
X143457357Y-154259984D01*
X143420941Y-154372789D01*
X143391920Y-154462687D01*
X143368731Y-154546854D01*
X143316136Y-154776217D01*
X143302115Y-154849864D01*
X143302113Y-154849877D01*
X143263866Y-155101514D01*
X143257053Y-155156518D01*
X143241251Y-155321174D01*
X143236747Y-155403422D01*
X143234005Y-155603417D01*
X142508541Y-155603417D01*
X142508541Y-152367407D01*
X134603967Y-152367407D01*
X134535846Y-152347405D01*
X134489353Y-152293749D01*
X134477967Y-152241407D01*
X134477967Y-151007599D01*
X162135300Y-151007599D01*
X162135300Y-151371200D01*
X162170936Y-151733015D01*
X162170939Y-151733037D01*
X162241866Y-152089619D01*
X162241869Y-152089630D01*
X162241870Y-152089633D01*
X162326132Y-152367407D01*
X162347414Y-152437564D01*
X162347415Y-152437568D01*
X162486553Y-152773476D01*
X162657948Y-153094134D01*
X162859942Y-153396439D01*
X162859945Y-153396443D01*
X162859946Y-153396444D01*
X162911453Y-153459206D01*
X163090602Y-153677500D01*
X163090619Y-153677518D01*
X163347681Y-153934580D01*
X163347699Y-153934597D01*
X163620365Y-154158368D01*
X163628760Y-154165257D01*
X163770529Y-154259984D01*
X163931068Y-154367253D01*
X164251724Y-154538647D01*
X164587636Y-154677786D01*
X164935567Y-154783330D01*
X164935576Y-154783331D01*
X164935580Y-154783333D01*
X165080113Y-154812081D01*
X165292169Y-154854262D01*
X165654006Y-154889900D01*
X165654015Y-154889900D01*
X166017585Y-154889900D01*
X166017594Y-154889900D01*
X166379431Y-154854262D01*
X166660901Y-154798274D01*
X166736019Y-154783333D01*
X166736021Y-154783332D01*
X166736033Y-154783330D01*
X167083964Y-154677786D01*
X167419876Y-154538647D01*
X167740532Y-154367253D01*
X168042844Y-154165254D01*
X168323901Y-153934597D01*
X168580997Y-153677501D01*
X168811654Y-153396444D01*
X169013653Y-153094132D01*
X169185047Y-152773476D01*
X169324186Y-152437564D01*
X169429730Y-152089633D01*
X169500662Y-151733031D01*
X169536300Y-151371194D01*
X169536300Y-151007606D01*
X169500662Y-150645769D01*
X169429730Y-150289167D01*
X169324186Y-149941236D01*
X169185047Y-149605324D01*
X169013653Y-149284668D01*
X168811654Y-148982356D01*
X168580997Y-148701299D01*
X168580980Y-148701281D01*
X168323918Y-148444219D01*
X168323900Y-148444202D01*
X168042839Y-148213542D01*
X167740534Y-148011548D01*
X167419876Y-147840153D01*
X167083968Y-147701015D01*
X167083964Y-147701014D01*
X166736033Y-147595470D01*
X166736030Y-147595469D01*
X166736019Y-147595466D01*
X166379437Y-147524539D01*
X166379433Y-147524538D01*
X166379431Y-147524538D01*
X166379426Y-147524537D01*
X166379415Y-147524536D01*
X166017600Y-147488900D01*
X166017594Y-147488900D01*
X165654006Y-147488900D01*
X165653999Y-147488900D01*
X165292184Y-147524536D01*
X165292162Y-147524539D01*
X164935580Y-147595466D01*
X164587635Y-147701014D01*
X164587631Y-147701015D01*
X164251723Y-147840153D01*
X163931065Y-148011548D01*
X163628760Y-148213542D01*
X163347699Y-148444202D01*
X163347681Y-148444219D01*
X163090619Y-148701281D01*
X163090602Y-148701299D01*
X162859942Y-148982360D01*
X162657948Y-149284665D01*
X162486553Y-149605323D01*
X162347415Y-149941231D01*
X162347414Y-149941235D01*
X162241866Y-150289180D01*
X162170939Y-150645762D01*
X162170936Y-150645784D01*
X162135300Y-151007599D01*
X134477967Y-151007599D01*
X134477967Y-150990254D01*
X130725987Y-150990254D01*
X130725987Y-155504139D01*
X126246700Y-155504139D01*
X126246700Y-151677317D01*
X126216176Y-151603626D01*
X126216173Y-151603622D01*
X126159777Y-151547226D01*
X126159773Y-151547223D01*
X126086082Y-151516700D01*
X115872700Y-151516700D01*
X115804579Y-151496698D01*
X115758086Y-151443042D01*
X115746700Y-151390700D01*
X115746700Y-145705400D01*
X115766702Y-145637279D01*
X115820358Y-145590786D01*
X115872700Y-145579400D01*
X215219700Y-145579400D01*
X215287821Y-145599402D01*
G37*
%TD.AperFunction*%
M02*
