%TF.GenerationSoftware,KiCad,Pcbnew,9.0.0*%
%TF.CreationDate,2025-04-17T17:25:07-07:00*%
%TF.ProjectId,antenna_top_cap_v2a,616e7465-6e6e-4615-9f74-6f705f636170,rev?*%
%TF.SameCoordinates,Original*%
%TF.FileFunction,Copper,L3,Inr*%
%TF.FilePolarity,Positive*%
%FSLAX46Y46*%
G04 Gerber Fmt 4.6, Leading zero omitted, Abs format (unit mm)*
G04 Created by KiCad (PCBNEW 9.0.0) date 2025-04-17 17:25:07*
%MOMM*%
%LPD*%
G01*
G04 APERTURE LIST*
G04 Aperture macros list*
%AMRoundRect*
0 Rectangle with rounded corners*
0 $1 Rounding radius*
0 $2 $3 $4 $5 $6 $7 $8 $9 X,Y pos of 4 corners*
0 Add a 4 corners polygon primitive as box body*
4,1,4,$2,$3,$4,$5,$6,$7,$8,$9,$2,$3,0*
0 Add four circle primitives for the rounded corners*
1,1,$1+$1,$2,$3*
1,1,$1+$1,$4,$5*
1,1,$1+$1,$6,$7*
1,1,$1+$1,$8,$9*
0 Add four rect primitives between the rounded corners*
20,1,$1+$1,$2,$3,$4,$5,0*
20,1,$1+$1,$4,$5,$6,$7,0*
20,1,$1+$1,$6,$7,$8,$9,0*
20,1,$1+$1,$8,$9,$2,$3,0*%
G04 Aperture macros list end*
%TA.AperFunction,ComponentPad*%
%ADD10O,1.700000X1.700000*%
%TD*%
%TA.AperFunction,ComponentPad*%
%ADD11R,1.700000X1.700000*%
%TD*%
%TA.AperFunction,ComponentPad*%
%ADD12C,5.400000*%
%TD*%
%TA.AperFunction,ComponentPad*%
%ADD13RoundRect,0.250000X0.575000X-0.350000X0.575000X0.350000X-0.575000X0.350000X-0.575000X-0.350000X0*%
%TD*%
%TA.AperFunction,ComponentPad*%
%ADD14O,1.650000X1.200000*%
%TD*%
%TA.AperFunction,ComponentPad*%
%ADD15C,2.050000*%
%TD*%
%TA.AperFunction,ComponentPad*%
%ADD16C,2.250000*%
%TD*%
%TA.AperFunction,HeatsinkPad*%
%ADD17C,0.500000*%
%TD*%
%TA.AperFunction,HeatsinkPad*%
%ADD18O,1.000000X1.600000*%
%TD*%
%TA.AperFunction,HeatsinkPad*%
%ADD19O,1.000000X2.100000*%
%TD*%
%TA.AperFunction,ViaPad*%
%ADD20C,0.800000*%
%TD*%
%TA.AperFunction,ViaPad*%
%ADD21C,0.460000*%
%TD*%
G04 APERTURE END LIST*
D10*
%TO.N,BURN*%
%TO.C,J7*%
X154275800Y-114409400D03*
D11*
X155545800Y-111869400D03*
X158085800Y-111869400D03*
D10*
X159645800Y-114409400D03*
D11*
%TO.N,GND*%
X154275800Y-121689400D03*
X155545800Y-124229400D03*
X158085800Y-124229400D03*
X159645800Y-121689400D03*
%TD*%
%TO.N,~{FC_RESET}*%
%TO.C,J3*%
X134420800Y-67619400D03*
D10*
%TO.N,GND*%
X131880800Y-67619400D03*
%TD*%
D12*
%TO.N,unconnected-(TP3-Pad1)*%
%TO.C,TP3*%
X150275800Y-70119400D03*
%TD*%
D13*
%TO.N,GND*%
%TO.C,J1*%
X164745800Y-111119400D03*
D14*
X166745801Y-111119400D03*
%TO.N,BURN*%
X164745800Y-109119399D03*
X166745800Y-109119400D03*
%TO.N,SCL0*%
X164745800Y-107119400D03*
%TO.N,Dir_Chrg_In*%
X166745800Y-107119399D03*
%TO.N,SDA0*%
X164745800Y-105119400D03*
%TO.N,+3V3*%
X166745800Y-105119400D03*
%TO.N,USB_D+*%
X164745800Y-103119400D03*
%TO.N,USB_D-*%
X166745800Y-103119400D03*
%TO.N,FC_USBBOOT*%
X164745800Y-101119400D03*
%TO.N,~{FC_RESET}*%
X166745800Y-101119400D03*
%TD*%
D12*
%TO.N,unconnected-(TP7-Pad1)*%
%TO.C,TP7*%
X142693713Y-79756113D03*
%TD*%
%TO.N,unconnected-(TP2-Pad1)*%
%TO.C,TP2*%
X152215800Y-79769400D03*
%TD*%
%TO.N,unconnected-(TP5-Pad1)*%
%TO.C,TP5*%
X126825800Y-112239400D03*
%TD*%
%TO.N,unconnected-(TP6-Pad1)*%
%TO.C,TP6*%
X165835800Y-73239400D03*
%TD*%
%TO.N,unconnected-(TP1-Pad1)*%
%TO.C,TP1*%
X165835800Y-151189400D03*
%TD*%
%TO.N,unconnected-(TP4-Pad1)*%
%TO.C,TP4*%
X204805800Y-112189400D03*
%TD*%
D15*
%TO.N,Net-(J5-In)*%
%TO.C,J5*%
X165745800Y-118919400D03*
D16*
%TO.N,GND*%
X163205800Y-116379400D03*
X163205800Y-121459400D03*
X168285800Y-116379400D03*
X168285800Y-121459400D03*
%TD*%
D17*
%TO.N,GND*%
%TO.C,U16*%
X152845800Y-107619400D03*
X152845800Y-106319400D03*
X151745800Y-107619400D03*
X151745800Y-106319400D03*
%TD*%
D11*
%TO.N,FC_USBBOOT*%
%TO.C,J4*%
X134420800Y-71319400D03*
D10*
%TO.N,GND*%
X131880800Y-71319400D03*
%TD*%
D11*
%TO.N,Dir_Chrg_In*%
%TO.C,J2*%
X140170800Y-69519400D03*
D10*
%TO.N,GND*%
X142710800Y-69519400D03*
%TD*%
D18*
%TO.N,GND*%
%TO.C,J12*%
X193245800Y-65619400D03*
D19*
X193245800Y-69799400D03*
D18*
X201885800Y-65619400D03*
D19*
X201885800Y-69799400D03*
%TD*%
D20*
%TO.N,GND*%
X200745800Y-72119400D03*
X193245800Y-71619400D03*
X167245800Y-127119400D03*
X167245800Y-123119400D03*
X130347958Y-123222637D03*
X156245800Y-105119400D03*
X167245800Y-126119400D03*
X164445800Y-125519400D03*
X167245800Y-124119400D03*
X167395800Y-129169400D03*
X147745800Y-104619400D03*
X164445800Y-123519400D03*
X117945800Y-138629545D03*
X174045800Y-105019400D03*
X164445800Y-124519400D03*
X164545800Y-122519400D03*
X163895800Y-129119400D03*
D21*
X164557800Y-131307400D03*
D20*
X164445800Y-126519400D03*
X167245800Y-125119400D03*
X164445800Y-127419400D03*
X118145800Y-134819400D03*
X164971175Y-128319400D03*
X166545800Y-128419400D03*
X149970800Y-113119400D03*
%TO.N,+3V3*%
X146245800Y-106619400D03*
X140345800Y-124619400D03*
X150245800Y-112119400D03*
%TO.N,Dir_Chrg_In*%
X169745800Y-101619400D03*
X169745800Y-98619400D03*
%TO.N,2.8V*%
X124045800Y-136819400D03*
X125945800Y-126619400D03*
X118106730Y-136731536D03*
X125745800Y-122619400D03*
X133845800Y-123619400D03*
X129820800Y-126607053D03*
%TO.N,/SCL_3V*%
X122945800Y-138304400D03*
%TO.N,/GPIO*%
X121535800Y-134409400D03*
%TO.N,/XSHUT_2.8V*%
X122625802Y-136719400D03*
%TO.N,USB_D-*%
X196883227Y-73471129D03*
%TO.N,/SDA_3V*%
X123845800Y-139119400D03*
%TO.N,SDA0*%
X157245800Y-107119400D03*
X154245800Y-108619400D03*
X132845800Y-126291732D03*
X130545800Y-125867037D03*
%TO.N,USB_D+*%
X196568612Y-72442212D03*
%TO.N,SCL0*%
X158758453Y-108132053D03*
X156733147Y-108106747D03*
%TO.N,Net-(J12-CC2)*%
X199245800Y-72119400D03*
%TO.N,Net-(J12-CC1)*%
X196229798Y-69447585D03*
%TD*%
%TA.AperFunction,Conductor*%
%TO.N,+3V3*%
G36*
X140597395Y-62419907D02*
G01*
X140598454Y-62419906D01*
X140598457Y-62419908D01*
X151844973Y-62417700D01*
X204719700Y-62417700D01*
X204787821Y-62437702D01*
X204834314Y-62491358D01*
X204845700Y-62543700D01*
X204845700Y-72757082D01*
X204876223Y-72830773D01*
X204876226Y-72830777D01*
X204932622Y-72887173D01*
X204932626Y-72887176D01*
X205006318Y-72917700D01*
X215219700Y-72917700D01*
X215287821Y-72937702D01*
X215334314Y-72991358D01*
X215345700Y-73043700D01*
X215345700Y-151390700D01*
X215325698Y-151458821D01*
X215272042Y-151505314D01*
X215219700Y-151516700D01*
X205006318Y-151516700D01*
X204932626Y-151547223D01*
X204932622Y-151547226D01*
X204876226Y-151603622D01*
X204876223Y-151603626D01*
X204845700Y-151677317D01*
X204845700Y-161890700D01*
X204825698Y-161958821D01*
X204772042Y-162005314D01*
X204719700Y-162016700D01*
X126372700Y-162016700D01*
X126304579Y-161996698D01*
X126258086Y-161943042D01*
X126246700Y-161890700D01*
X126246700Y-151677317D01*
X126216176Y-151603626D01*
X126216173Y-151603622D01*
X126159777Y-151547226D01*
X126159773Y-151547223D01*
X126086082Y-151516700D01*
X115872700Y-151516700D01*
X115804579Y-151496698D01*
X115758086Y-151443042D01*
X115746700Y-151390700D01*
X115746700Y-151009212D01*
X162627300Y-151009212D01*
X162627300Y-151369587D01*
X162667648Y-151727694D01*
X162674356Y-151757082D01*
X162747838Y-152079026D01*
X162747840Y-152079032D01*
X162747839Y-152079032D01*
X162866854Y-152419157D01*
X162866862Y-152419177D01*
X163023222Y-152743860D01*
X163023223Y-152743863D01*
X163214943Y-153048984D01*
X163214947Y-153048991D01*
X163439639Y-153330745D01*
X163694454Y-153585560D01*
X163976208Y-153810252D01*
X163976215Y-153810256D01*
X164281336Y-154001976D01*
X164281338Y-154001976D01*
X164281342Y-154001979D01*
X164606025Y-154158339D01*
X164606040Y-154158344D01*
X164606042Y-154158345D01*
X164946167Y-154277360D01*
X164946170Y-154277360D01*
X164946174Y-154277362D01*
X165297505Y-154357551D01*
X165297506Y-154357551D01*
X165297509Y-154357552D01*
X165508707Y-154381347D01*
X165655612Y-154397900D01*
X165655614Y-154397900D01*
X166015988Y-154397900D01*
X166106930Y-154387653D01*
X166374091Y-154357552D01*
X166725426Y-154277362D01*
X167065575Y-154158339D01*
X167390258Y-154001979D01*
X167695393Y-153810251D01*
X167977142Y-153585563D01*
X168231963Y-153330742D01*
X168456651Y-153048993D01*
X168648379Y-152743858D01*
X168804739Y-152419175D01*
X168923762Y-152079026D01*
X169003952Y-151727691D01*
X169044300Y-151369586D01*
X169044300Y-151009214D01*
X169003952Y-150651109D01*
X168923762Y-150299774D01*
X168804739Y-149959625D01*
X168648379Y-149634942D01*
X168648376Y-149634938D01*
X168648376Y-149634936D01*
X168456656Y-149329815D01*
X168456652Y-149329808D01*
X168231960Y-149048054D01*
X167977145Y-148793239D01*
X167695391Y-148568547D01*
X167695384Y-148568543D01*
X167390263Y-148376823D01*
X167390260Y-148376822D01*
X167065577Y-148220462D01*
X167065557Y-148220454D01*
X166725432Y-148101439D01*
X166374093Y-148021248D01*
X166374096Y-148021248D01*
X166015988Y-147980900D01*
X166015986Y-147980900D01*
X165655614Y-147980900D01*
X165655612Y-147980900D01*
X165297505Y-148021248D01*
X164946167Y-148101439D01*
X164606042Y-148220454D01*
X164606022Y-148220462D01*
X164281339Y-148376822D01*
X164281336Y-148376823D01*
X163976215Y-148568543D01*
X163976208Y-148568547D01*
X163694454Y-148793239D01*
X163439639Y-149048054D01*
X163214947Y-149329808D01*
X163214943Y-149329815D01*
X163023223Y-149634936D01*
X163023222Y-149634939D01*
X162866862Y-149959622D01*
X162866854Y-149959642D01*
X162747839Y-150299767D01*
X162667648Y-150651105D01*
X162627300Y-151009212D01*
X115746700Y-151009212D01*
X115746700Y-138540063D01*
X117037300Y-138540063D01*
X117037300Y-138540066D01*
X117037300Y-138719024D01*
X117072213Y-138894545D01*
X117140698Y-139059881D01*
X117240122Y-139208680D01*
X117366665Y-139335223D01*
X117515464Y-139434647D01*
X117680800Y-139503132D01*
X117856321Y-139538045D01*
X117856322Y-139538045D01*
X118035278Y-139538045D01*
X118035279Y-139538045D01*
X118210800Y-139503132D01*
X118376136Y-139434647D01*
X118524935Y-139335223D01*
X118651478Y-139208680D01*
X118750902Y-139059881D01*
X118819387Y-138894545D01*
X118854300Y-138719024D01*
X118854300Y-138540066D01*
X118819387Y-138364545D01*
X118750902Y-138199209D01*
X118651478Y-138050410D01*
X118524935Y-137923867D01*
X118376136Y-137824443D01*
X118376135Y-137824442D01*
X118370989Y-137821004D01*
X118371973Y-137819529D01*
X118327332Y-137775668D01*
X118311630Y-137706430D01*
X118335853Y-137639694D01*
X118389165Y-137597901D01*
X118537066Y-137536638D01*
X118685865Y-137437214D01*
X118812408Y-137310671D01*
X118911832Y-137161872D01*
X118980317Y-136996536D01*
X119015230Y-136821015D01*
X119015230Y-136642057D01*
X119012815Y-136629918D01*
X121717302Y-136629918D01*
X121717302Y-136808881D01*
X121719716Y-136821015D01*
X121752215Y-136984400D01*
X121820700Y-137149736D01*
X121920124Y-137298535D01*
X122046667Y-137425078D01*
X122195466Y-137524502D01*
X122200927Y-137527421D01*
X122200274Y-137528641D01*
X122250073Y-137568766D01*
X122272497Y-137636128D01*
X122254944Y-137704920D01*
X122243980Y-137720564D01*
X122240120Y-137725267D01*
X122140699Y-137874062D01*
X122072214Y-138039396D01*
X122037300Y-138214918D01*
X122037300Y-138214921D01*
X122037300Y-138393879D01*
X122072213Y-138569400D01*
X122140698Y-138734736D01*
X122240122Y-138883535D01*
X122366665Y-139010078D01*
X122515464Y-139109502D01*
X122652428Y-139166235D01*
X122680797Y-139177986D01*
X122680798Y-139177986D01*
X122680800Y-139177987D01*
X122856321Y-139212900D01*
X122858895Y-139213412D01*
X122921805Y-139246320D01*
X122956937Y-139308015D01*
X122957893Y-139312409D01*
X122972213Y-139384400D01*
X123040698Y-139549736D01*
X123140122Y-139698535D01*
X123266665Y-139825078D01*
X123415464Y-139924502D01*
X123580800Y-139992987D01*
X123756321Y-140027900D01*
X123756322Y-140027900D01*
X123935278Y-140027900D01*
X123935279Y-140027900D01*
X124110800Y-139992987D01*
X124276136Y-139924502D01*
X124424935Y-139825078D01*
X124551478Y-139698535D01*
X124650902Y-139549736D01*
X124719387Y-139384400D01*
X124754300Y-139208879D01*
X124754300Y-139029921D01*
X124719387Y-138854400D01*
X124650902Y-138689064D01*
X124551478Y-138540265D01*
X124424935Y-138413722D01*
X124276136Y-138314298D01*
X124110800Y-138245813D01*
X124022042Y-138228158D01*
X123932703Y-138210387D01*
X123869794Y-138177479D01*
X123834662Y-138115784D01*
X123833706Y-138111389D01*
X123819387Y-138039400D01*
X123819385Y-138039397D01*
X123819385Y-138039393D01*
X123756688Y-137888033D01*
X123749098Y-137817444D01*
X123780876Y-137753956D01*
X123841934Y-137717728D01*
X123897676Y-137716235D01*
X123956321Y-137727900D01*
X123956322Y-137727900D01*
X124135278Y-137727900D01*
X124135279Y-137727900D01*
X124310800Y-137692987D01*
X124476136Y-137624502D01*
X124624935Y-137525078D01*
X124751478Y-137398535D01*
X124850902Y-137249736D01*
X124919387Y-137084400D01*
X124954300Y-136908879D01*
X124954300Y-136729921D01*
X124919387Y-136554400D01*
X124850902Y-136389064D01*
X124751478Y-136240265D01*
X124624935Y-136113722D01*
X124476136Y-136014298D01*
X124359229Y-135965873D01*
X124310803Y-135945814D01*
X124310801Y-135945813D01*
X124310800Y-135945813D01*
X124222445Y-135928238D01*
X124135281Y-135910900D01*
X124135279Y-135910900D01*
X123956321Y-135910900D01*
X123956318Y-135910900D01*
X123825571Y-135936907D01*
X123780800Y-135945813D01*
X123780799Y-135945813D01*
X123780796Y-135945814D01*
X123649702Y-136000116D01*
X123616860Y-136013720D01*
X123615462Y-136014299D01*
X123466654Y-136113729D01*
X123466092Y-136114191D01*
X123465740Y-136114340D01*
X123461519Y-136117161D01*
X123460983Y-136116359D01*
X123400739Y-136141930D01*
X123330763Y-136129933D01*
X123297085Y-136105870D01*
X123204937Y-136013722D01*
X123056138Y-135914298D01*
X122920101Y-135857949D01*
X122890805Y-135845814D01*
X122890803Y-135845813D01*
X122890802Y-135845813D01*
X122802447Y-135828238D01*
X122715283Y-135810900D01*
X122715281Y-135810900D01*
X122536323Y-135810900D01*
X122536320Y-135810900D01*
X122431899Y-135831671D01*
X122360802Y-135845813D01*
X122360801Y-135845813D01*
X122360798Y-135845814D01*
X122230064Y-135899967D01*
X122203670Y-135910900D01*
X122195464Y-135914299D01*
X122046671Y-136013719D01*
X122046664Y-136013724D01*
X121920126Y-136140262D01*
X121920121Y-136140269D01*
X121820701Y-136289062D01*
X121752216Y-136454396D01*
X121717302Y-136629918D01*
X119012815Y-136629918D01*
X118980317Y-136466536D01*
X118911832Y-136301200D01*
X118812408Y-136152401D01*
X118685865Y-136025858D01*
X118610460Y-135975474D01*
X118537065Y-135926433D01*
X118473172Y-135899967D01*
X118417892Y-135855418D01*
X118395472Y-135788054D01*
X118413031Y-135719263D01*
X118464994Y-135670886D01*
X118473159Y-135667156D01*
X118576136Y-135624502D01*
X118724935Y-135525078D01*
X118851478Y-135398535D01*
X118950902Y-135249736D01*
X119019387Y-135084400D01*
X119054300Y-134908879D01*
X119054300Y-134729921D01*
X119019387Y-134554400D01*
X118950902Y-134389064D01*
X118904700Y-134319918D01*
X120627300Y-134319918D01*
X120627300Y-134319921D01*
X120627300Y-134498879D01*
X120662213Y-134674400D01*
X120730698Y-134839736D01*
X120830122Y-134988535D01*
X120956665Y-135115078D01*
X121105464Y-135214502D01*
X121270800Y-135282987D01*
X121446321Y-135317900D01*
X121446322Y-135317900D01*
X121625278Y-135317900D01*
X121625279Y-135317900D01*
X121800800Y-135282987D01*
X121966136Y-135214502D01*
X122114935Y-135115078D01*
X122241478Y-134988535D01*
X122340902Y-134839736D01*
X122409387Y-134674400D01*
X122444300Y-134498879D01*
X122444300Y-134319921D01*
X122409387Y-134144400D01*
X122340902Y-133979064D01*
X122241478Y-133830265D01*
X122114935Y-133703722D01*
X121966136Y-133604298D01*
X121849229Y-133555873D01*
X121800803Y-133535814D01*
X121800801Y-133535813D01*
X121800800Y-133535813D01*
X121712445Y-133518238D01*
X121625281Y-133500900D01*
X121625279Y-133500900D01*
X121446321Y-133500900D01*
X121446318Y-133500900D01*
X121315571Y-133526907D01*
X121270800Y-133535813D01*
X121270799Y-133535813D01*
X121270796Y-133535814D01*
X121105462Y-133604299D01*
X120956669Y-133703719D01*
X120956662Y-133703724D01*
X120830124Y-133830262D01*
X120830119Y-133830269D01*
X120730699Y-133979062D01*
X120662214Y-134144396D01*
X120627300Y-134319918D01*
X118904700Y-134319918D01*
X118851478Y-134240265D01*
X118724935Y-134113722D01*
X118576136Y-134014298D01*
X118459229Y-133965873D01*
X118410803Y-133945814D01*
X118410801Y-133945813D01*
X118410800Y-133945813D01*
X118322445Y-133928238D01*
X118235281Y-133910900D01*
X118235279Y-133910900D01*
X118056321Y-133910900D01*
X118056318Y-133910900D01*
X117925571Y-133936907D01*
X117880800Y-133945813D01*
X117880799Y-133945813D01*
X117880796Y-133945814D01*
X117715462Y-134014299D01*
X117566669Y-134113719D01*
X117566662Y-134113724D01*
X117440124Y-134240262D01*
X117440119Y-134240269D01*
X117340699Y-134389062D01*
X117272214Y-134554396D01*
X117237300Y-134729918D01*
X117237300Y-134729921D01*
X117237300Y-134908879D01*
X117272213Y-135084400D01*
X117340698Y-135249736D01*
X117440122Y-135398535D01*
X117566665Y-135525078D01*
X117715463Y-135624501D01*
X117715464Y-135624502D01*
X117715468Y-135624504D01*
X117779356Y-135650968D01*
X117834637Y-135695516D01*
X117857057Y-135762880D01*
X117839498Y-135831671D01*
X117787536Y-135880049D01*
X117779356Y-135883784D01*
X117676399Y-135926431D01*
X117676394Y-135926433D01*
X117527599Y-136025855D01*
X117527592Y-136025860D01*
X117401054Y-136152398D01*
X117401049Y-136152405D01*
X117301629Y-136301198D01*
X117233144Y-136466532D01*
X117198230Y-136642054D01*
X117198230Y-136642057D01*
X117198230Y-136821015D01*
X117233143Y-136996536D01*
X117301628Y-137161872D01*
X117401052Y-137310671D01*
X117527595Y-137437214D01*
X117620511Y-137499298D01*
X117681541Y-137540077D01*
X117680554Y-137541553D01*
X117725190Y-137585400D01*
X117740900Y-137654637D01*
X117716684Y-137721376D01*
X117663365Y-137763178D01*
X117515469Y-137824440D01*
X117515464Y-137824442D01*
X117366669Y-137923864D01*
X117366662Y-137923869D01*
X117240124Y-138050407D01*
X117240119Y-138050414D01*
X117196441Y-138115784D01*
X117140698Y-138199209D01*
X117134191Y-138214918D01*
X117072214Y-138364541D01*
X117037300Y-138540063D01*
X115746700Y-138540063D01*
X115746700Y-126529918D01*
X125037300Y-126529918D01*
X125037300Y-126708881D01*
X125047333Y-126759319D01*
X125072213Y-126884400D01*
X125140698Y-127049736D01*
X125240122Y-127198535D01*
X125366665Y-127325078D01*
X125515464Y-127424502D01*
X125680800Y-127492987D01*
X125856321Y-127527900D01*
X125856322Y-127527900D01*
X126035278Y-127527900D01*
X126035279Y-127527900D01*
X126210800Y-127492987D01*
X126376136Y-127424502D01*
X126524935Y-127325078D01*
X126651478Y-127198535D01*
X126750902Y-127049736D01*
X126819387Y-126884400D01*
X126854300Y-126708879D01*
X126854300Y-126529921D01*
X126854299Y-126529919D01*
X126854299Y-126529914D01*
X126851844Y-126517571D01*
X128912300Y-126517571D01*
X128912300Y-126696534D01*
X128921071Y-126740626D01*
X128946977Y-126870869D01*
X128947214Y-126872056D01*
X128967273Y-126920482D01*
X129015698Y-127037389D01*
X129115122Y-127186188D01*
X129241665Y-127312731D01*
X129390464Y-127412155D01*
X129555800Y-127480640D01*
X129731321Y-127515553D01*
X129731322Y-127515553D01*
X129910278Y-127515553D01*
X129910279Y-127515553D01*
X130085800Y-127480640D01*
X130251136Y-127412155D01*
X130399935Y-127312731D01*
X130526478Y-127186188D01*
X130625902Y-127037389D01*
X130694387Y-126872053D01*
X130694388Y-126872047D01*
X130694389Y-126872047D01*
X130700386Y-126841895D01*
X130733292Y-126778985D01*
X130794986Y-126743852D01*
X130799386Y-126742895D01*
X130810794Y-126740626D01*
X130810794Y-126740625D01*
X130810800Y-126740624D01*
X130976136Y-126672139D01*
X131124935Y-126572715D01*
X131251478Y-126446172D01*
X131350902Y-126297373D01*
X131390304Y-126202250D01*
X131937300Y-126202250D01*
X131937300Y-126202253D01*
X131937300Y-126381211D01*
X131972213Y-126556732D01*
X132040698Y-126722068D01*
X132140122Y-126870867D01*
X132266665Y-126997410D01*
X132415464Y-127096834D01*
X132580800Y-127165319D01*
X132756321Y-127200232D01*
X132759800Y-127200232D01*
X132761554Y-127200747D01*
X132762477Y-127200838D01*
X132762459Y-127201012D01*
X132827921Y-127220234D01*
X132874414Y-127273890D01*
X132885800Y-127326232D01*
X132885800Y-145539400D01*
X197915800Y-145539400D01*
X197915800Y-126869400D01*
X168209790Y-126869400D01*
X168191322Y-126863977D01*
X168172077Y-126863624D01*
X168157962Y-126854182D01*
X168141669Y-126849398D01*
X168129063Y-126834850D01*
X168113066Y-126824149D01*
X168097498Y-126798421D01*
X168095176Y-126795742D01*
X168094234Y-126793628D01*
X168093812Y-126792659D01*
X168050902Y-126689064D01*
X168044841Y-126679994D01*
X168040336Y-126669628D01*
X168037277Y-126645177D01*
X168029912Y-126621662D01*
X168032950Y-126610580D01*
X168031525Y-126599180D01*
X168042170Y-126576959D01*
X168048119Y-126555265D01*
X168047985Y-126555193D01*
X168048302Y-126554599D01*
X168048688Y-126553193D01*
X168050863Y-126549807D01*
X168050900Y-126549739D01*
X168050900Y-126549738D01*
X168050902Y-126549736D01*
X168119387Y-126384400D01*
X168154300Y-126208879D01*
X168154300Y-126029921D01*
X168119387Y-125854400D01*
X168050902Y-125689064D01*
X168050901Y-125689062D01*
X168050900Y-125689060D01*
X168047985Y-125683607D01*
X168049124Y-125682997D01*
X168029912Y-125621662D01*
X168048119Y-125555265D01*
X168047985Y-125555193D01*
X168048302Y-125554599D01*
X168048688Y-125553193D01*
X168050863Y-125549807D01*
X168050900Y-125549739D01*
X168050900Y-125549738D01*
X168050902Y-125549736D01*
X168119387Y-125384400D01*
X168154300Y-125208879D01*
X168154300Y-125029921D01*
X168119387Y-124854400D01*
X168050902Y-124689064D01*
X168050901Y-124689062D01*
X168050900Y-124689060D01*
X168047985Y-124683607D01*
X168049124Y-124682997D01*
X168029912Y-124621662D01*
X168048119Y-124555265D01*
X168047985Y-124555193D01*
X168048302Y-124554599D01*
X168048688Y-124553193D01*
X168050863Y-124549807D01*
X168050900Y-124549739D01*
X168050900Y-124549738D01*
X168050902Y-124549736D01*
X168119387Y-124384400D01*
X168154300Y-124208879D01*
X168154300Y-124029921D01*
X168119387Y-123854400D01*
X168050902Y-123689064D01*
X168050901Y-123689062D01*
X168050900Y-123689060D01*
X168047985Y-123683607D01*
X168049124Y-123682997D01*
X168029912Y-123621662D01*
X168048119Y-123555265D01*
X168047985Y-123555193D01*
X168048302Y-123554599D01*
X168048688Y-123553193D01*
X168050863Y-123549807D01*
X168050900Y-123549739D01*
X168050900Y-123549738D01*
X168050902Y-123549736D01*
X168119387Y-123384400D01*
X168154300Y-123208879D01*
X168154300Y-123208878D01*
X168154301Y-123208873D01*
X168154530Y-123206551D01*
X168154989Y-123205412D01*
X168155508Y-123202807D01*
X168156002Y-123202905D01*
X168181112Y-123140719D01*
X168239066Y-123099708D01*
X168279923Y-123092900D01*
X168414356Y-123092900D01*
X168414359Y-123092900D01*
X168668312Y-123052678D01*
X168912846Y-122973224D01*
X169141941Y-122856494D01*
X169349954Y-122705364D01*
X169531764Y-122523554D01*
X169682894Y-122315541D01*
X169799624Y-122086446D01*
X169879078Y-121841912D01*
X169919300Y-121587959D01*
X169919300Y-121330841D01*
X169879078Y-121076888D01*
X169799624Y-120832354D01*
X169682894Y-120603259D01*
X169531764Y-120395246D01*
X169531761Y-120395243D01*
X169531759Y-120395240D01*
X169349959Y-120213440D01*
X169349956Y-120213438D01*
X169349954Y-120213436D01*
X169141941Y-120062306D01*
X168912846Y-119945576D01*
X168912843Y-119945575D01*
X168912841Y-119945574D01*
X168668317Y-119866123D01*
X168668313Y-119866122D01*
X168668312Y-119866122D01*
X168414359Y-119825900D01*
X168157241Y-119825900D01*
X167903288Y-119866122D01*
X167903282Y-119866123D01*
X167658758Y-119945574D01*
X167658752Y-119945577D01*
X167429655Y-120062308D01*
X167221643Y-120213438D01*
X167221640Y-120213440D01*
X167039840Y-120395240D01*
X167039838Y-120395243D01*
X166888708Y-120603255D01*
X166771977Y-120832352D01*
X166771974Y-120832358D01*
X166692523Y-121076882D01*
X166692522Y-121076887D01*
X166692522Y-121076888D01*
X166652300Y-121330841D01*
X166652300Y-121587959D01*
X166688149Y-121814299D01*
X166692523Y-121841917D01*
X166771974Y-122086441D01*
X166771979Y-122086453D01*
X166818799Y-122178342D01*
X166831903Y-122248118D01*
X166805203Y-122313903D01*
X166776534Y-122340309D01*
X166666669Y-122413718D01*
X166666662Y-122413724D01*
X166540124Y-122540262D01*
X166540119Y-122540269D01*
X166467738Y-122648596D01*
X166440698Y-122689064D01*
X166431653Y-122710900D01*
X166372214Y-122854396D01*
X166372213Y-122854399D01*
X166372213Y-122854400D01*
X166369504Y-122868020D01*
X166337300Y-123029918D01*
X166337300Y-123208881D01*
X166349496Y-123270195D01*
X166372213Y-123384400D01*
X166440698Y-123549736D01*
X166440699Y-123549738D01*
X166440701Y-123549742D01*
X166443616Y-123555196D01*
X166442481Y-123555802D01*
X166461686Y-123617168D01*
X166443471Y-123683526D01*
X166443616Y-123683604D01*
X166443276Y-123684239D01*
X166442894Y-123685632D01*
X166440740Y-123688984D01*
X166440701Y-123689057D01*
X166372214Y-123854396D01*
X166337300Y-124029918D01*
X166337300Y-124208881D01*
X166354638Y-124296045D01*
X166372213Y-124384400D01*
X166440698Y-124549736D01*
X166440699Y-124549738D01*
X166440701Y-124549742D01*
X166443616Y-124555196D01*
X166442481Y-124555802D01*
X166461686Y-124617168D01*
X166443471Y-124683526D01*
X166443616Y-124683604D01*
X166443276Y-124684239D01*
X166442894Y-124685632D01*
X166440740Y-124688984D01*
X166440701Y-124689057D01*
X166372214Y-124854396D01*
X166337300Y-125029918D01*
X166337300Y-125208881D01*
X166353019Y-125287906D01*
X166372213Y-125384400D01*
X166440698Y-125549736D01*
X166440699Y-125549738D01*
X166440701Y-125549742D01*
X166443616Y-125555196D01*
X166442481Y-125555802D01*
X166461686Y-125617168D01*
X166443471Y-125683526D01*
X166443616Y-125683604D01*
X166443276Y-125684239D01*
X166442894Y-125685632D01*
X166440740Y-125688984D01*
X166440701Y-125689057D01*
X166372214Y-125854396D01*
X166372213Y-125854399D01*
X166372213Y-125854400D01*
X166363307Y-125899171D01*
X166337300Y-126029918D01*
X166337300Y-126208881D01*
X166354638Y-126296045D01*
X166372213Y-126384400D01*
X166440698Y-126549736D01*
X166440699Y-126549738D01*
X166440701Y-126549742D01*
X166443616Y-126555196D01*
X166442481Y-126555802D01*
X166461686Y-126617168D01*
X166451263Y-126669626D01*
X166446753Y-126680001D01*
X166440698Y-126689064D01*
X166397784Y-126792665D01*
X166397367Y-126793626D01*
X166375287Y-126820074D01*
X166353671Y-126846899D01*
X166352595Y-126847257D01*
X166351868Y-126848128D01*
X166318982Y-126858444D01*
X166286307Y-126869320D01*
X166284195Y-126869357D01*
X166284127Y-126869379D01*
X166284057Y-126869360D01*
X166281810Y-126869400D01*
X165456011Y-126869400D01*
X165387890Y-126849398D01*
X165341397Y-126795742D01*
X165331293Y-126725468D01*
X165332432Y-126718819D01*
X165354299Y-126608884D01*
X165354300Y-126608877D01*
X165354300Y-126429922D01*
X165354299Y-126429918D01*
X165319387Y-126254400D01*
X165250902Y-126089064D01*
X165250901Y-126089062D01*
X165250900Y-126089060D01*
X165247985Y-126083607D01*
X165249124Y-126082997D01*
X165229912Y-126021662D01*
X165248119Y-125955265D01*
X165247985Y-125955193D01*
X165248302Y-125954599D01*
X165248688Y-125953193D01*
X165250863Y-125949807D01*
X165250900Y-125949739D01*
X165250900Y-125949738D01*
X165250902Y-125949736D01*
X165319387Y-125784400D01*
X165354300Y-125608879D01*
X165354300Y-125429921D01*
X165319387Y-125254400D01*
X165250902Y-125089064D01*
X165250901Y-125089062D01*
X165250900Y-125089060D01*
X165247985Y-125083607D01*
X165249124Y-125082997D01*
X165229912Y-125021662D01*
X165248119Y-124955265D01*
X165247985Y-124955193D01*
X165248302Y-124954599D01*
X165248688Y-124953193D01*
X165250863Y-124949807D01*
X165250900Y-124949739D01*
X165250900Y-124949738D01*
X165250902Y-124949736D01*
X165319387Y-124784400D01*
X165354300Y-124608879D01*
X165354300Y-124429921D01*
X165319387Y-124254400D01*
X165250902Y-124089064D01*
X165250901Y-124089062D01*
X165250900Y-124089060D01*
X165247985Y-124083607D01*
X165249124Y-124082997D01*
X165229912Y-124021662D01*
X165248119Y-123955265D01*
X165247985Y-123955193D01*
X165248302Y-123954599D01*
X165248688Y-123953193D01*
X165250863Y-123949807D01*
X165250900Y-123949739D01*
X165250900Y-123949738D01*
X165250902Y-123949736D01*
X165319387Y-123784400D01*
X165354300Y-123608879D01*
X165354300Y-123429921D01*
X165319387Y-123254400D01*
X165279317Y-123157663D01*
X165271728Y-123087074D01*
X165290961Y-123039443D01*
X165350902Y-122949736D01*
X165419387Y-122784400D01*
X165454300Y-122608879D01*
X165454300Y-122429921D01*
X165419387Y-122254400D01*
X165350902Y-122089064D01*
X165251478Y-121940265D01*
X165124935Y-121813722D01*
X164976136Y-121714298D01*
X164967933Y-121710900D01*
X164917080Y-121689835D01*
X164861800Y-121645286D01*
X164839380Y-121577922D01*
X164839300Y-121573427D01*
X164839300Y-121330844D01*
X164839300Y-121330841D01*
X164799078Y-121076888D01*
X164719624Y-120832354D01*
X164602894Y-120603259D01*
X164451764Y-120395246D01*
X164451761Y-120395243D01*
X164451759Y-120395240D01*
X164269959Y-120213440D01*
X164269956Y-120213438D01*
X164269954Y-120213436D01*
X164061941Y-120062306D01*
X163832846Y-119945576D01*
X163832843Y-119945575D01*
X163832841Y-119945574D01*
X163588317Y-119866123D01*
X163588313Y-119866122D01*
X163588312Y-119866122D01*
X163334359Y-119825900D01*
X163077241Y-119825900D01*
X162823288Y-119866122D01*
X162823282Y-119866123D01*
X162578758Y-119945574D01*
X162578752Y-119945577D01*
X162349655Y-120062308D01*
X162141643Y-120213438D01*
X162141640Y-120213440D01*
X161959840Y-120395240D01*
X161959838Y-120395243D01*
X161808708Y-120603255D01*
X161691977Y-120832352D01*
X161691974Y-120832358D01*
X161612523Y-121076882D01*
X161612522Y-121076887D01*
X161612522Y-121076888D01*
X161572300Y-121330841D01*
X161572300Y-121587959D01*
X161608149Y-121814299D01*
X161612523Y-121841917D01*
X161676972Y-122040269D01*
X161691976Y-122086446D01*
X161808706Y-122315541D01*
X161959836Y-122523554D01*
X161959838Y-122523556D01*
X161959840Y-122523559D01*
X162141640Y-122705359D01*
X162141643Y-122705361D01*
X162141646Y-122705364D01*
X162349659Y-122856494D01*
X162578754Y-122973224D01*
X162823288Y-123052678D01*
X163077241Y-123092900D01*
X163077244Y-123092900D01*
X163334356Y-123092900D01*
X163334359Y-123092900D01*
X163438287Y-123076439D01*
X163508696Y-123085539D01*
X163563010Y-123131260D01*
X163583983Y-123199089D01*
X163574406Y-123249103D01*
X163572214Y-123254392D01*
X163537300Y-123429918D01*
X163537300Y-123608881D01*
X163546071Y-123652973D01*
X163557191Y-123708881D01*
X163572214Y-123784403D01*
X163594156Y-123837376D01*
X163640698Y-123949736D01*
X163640699Y-123949738D01*
X163640701Y-123949742D01*
X163643616Y-123955196D01*
X163642481Y-123955802D01*
X163661686Y-124017168D01*
X163643471Y-124083526D01*
X163643616Y-124083604D01*
X163643276Y-124084239D01*
X163642894Y-124085632D01*
X163640740Y-124088984D01*
X163640701Y-124089057D01*
X163572214Y-124254396D01*
X163537300Y-124429918D01*
X163537300Y-124608881D01*
X163552043Y-124682997D01*
X163572213Y-124784400D01*
X163640698Y-124949736D01*
X163640699Y-124949738D01*
X163640701Y-124949742D01*
X163643616Y-124955196D01*
X163642481Y-124955802D01*
X163661686Y-125017168D01*
X163643471Y-125083526D01*
X163643616Y-125083604D01*
X163643276Y-125084239D01*
X163642894Y-125085632D01*
X163640740Y-125088984D01*
X163640701Y-125089057D01*
X163572214Y-125254396D01*
X163537300Y-125429918D01*
X163537300Y-125608881D01*
X163541939Y-125632201D01*
X163572213Y-125784400D01*
X163640698Y-125949736D01*
X163640699Y-125949738D01*
X163640701Y-125949742D01*
X163643616Y-125955196D01*
X163642481Y-125955802D01*
X163661686Y-126017168D01*
X163643471Y-126083526D01*
X163643616Y-126083604D01*
X163643276Y-126084239D01*
X163642894Y-126085632D01*
X163640740Y-126088984D01*
X163640701Y-126089057D01*
X163572214Y-126254396D01*
X163537300Y-126429918D01*
X163537300Y-126608884D01*
X163559168Y-126718819D01*
X163552840Y-126789533D01*
X163509286Y-126845600D01*
X163442333Y-126869219D01*
X163435589Y-126869400D01*
X133778448Y-126869400D01*
X133710327Y-126849398D01*
X133663834Y-126795742D01*
X133653730Y-126725468D01*
X133662039Y-126695181D01*
X133671584Y-126672137D01*
X133719387Y-126556732D01*
X133754300Y-126381211D01*
X133754300Y-126202253D01*
X133719387Y-126026732D01*
X133650902Y-125861396D01*
X133551478Y-125712597D01*
X133424935Y-125586054D01*
X133276136Y-125486630D01*
X133139230Y-125429921D01*
X133110803Y-125418146D01*
X133110801Y-125418145D01*
X133110800Y-125418145D01*
X133022445Y-125400570D01*
X132935281Y-125383232D01*
X132935279Y-125383232D01*
X132756321Y-125383232D01*
X132756318Y-125383232D01*
X132625571Y-125409239D01*
X132580800Y-125418145D01*
X132580799Y-125418145D01*
X132580796Y-125418146D01*
X132415462Y-125486631D01*
X132266669Y-125586051D01*
X132266662Y-125586056D01*
X132140124Y-125712594D01*
X132140119Y-125712601D01*
X132040699Y-125861394D01*
X131972214Y-126026728D01*
X131972213Y-126026731D01*
X131972213Y-126026732D01*
X131969522Y-126040262D01*
X131937300Y-126202250D01*
X131390304Y-126202250D01*
X131419387Y-126132037D01*
X131454300Y-125956516D01*
X131454300Y-125777558D01*
X131419387Y-125602037D01*
X131350902Y-125436701D01*
X131251478Y-125287902D01*
X131124935Y-125161359D01*
X130976136Y-125061935D01*
X130859229Y-125013510D01*
X130810803Y-124993451D01*
X130810801Y-124993450D01*
X130810800Y-124993450D01*
X130722445Y-124975875D01*
X130635281Y-124958537D01*
X130635279Y-124958537D01*
X130456321Y-124958537D01*
X130456318Y-124958537D01*
X130325571Y-124984544D01*
X130280800Y-124993450D01*
X130280799Y-124993450D01*
X130280796Y-124993451D01*
X130115462Y-125061936D01*
X129966669Y-125161356D01*
X129966662Y-125161361D01*
X129840124Y-125287899D01*
X129840119Y-125287906D01*
X129740699Y-125436699D01*
X129672214Y-125602034D01*
X129672212Y-125602040D01*
X129666212Y-125632201D01*
X129633303Y-125695109D01*
X129571607Y-125730240D01*
X129567220Y-125731194D01*
X129555804Y-125733465D01*
X129555800Y-125733466D01*
X129390463Y-125801951D01*
X129241669Y-125901372D01*
X129241662Y-125901377D01*
X129115124Y-126027915D01*
X129115119Y-126027922D01*
X129034990Y-126147845D01*
X129015698Y-126176717D01*
X129010584Y-126189064D01*
X128947214Y-126342049D01*
X128912300Y-126517571D01*
X126851844Y-126517571D01*
X126845719Y-126486782D01*
X126819387Y-126354400D01*
X126750902Y-126189064D01*
X126651478Y-126040265D01*
X126524935Y-125913722D01*
X126376136Y-125814298D01*
X126259229Y-125765873D01*
X126210803Y-125745814D01*
X126210801Y-125745813D01*
X126210800Y-125745813D01*
X126122445Y-125728238D01*
X126035281Y-125710900D01*
X126035279Y-125710900D01*
X125856321Y-125710900D01*
X125856318Y-125710900D01*
X125759091Y-125730240D01*
X125680800Y-125745813D01*
X125680799Y-125745813D01*
X125680796Y-125745814D01*
X125515462Y-125814299D01*
X125366669Y-125913719D01*
X125366662Y-125913724D01*
X125240124Y-126040262D01*
X125240119Y-126040269D01*
X125168240Y-126147845D01*
X125140698Y-126189064D01*
X125126516Y-126223302D01*
X125072214Y-126354396D01*
X125037300Y-126529918D01*
X115746700Y-126529918D01*
X115746700Y-122529918D01*
X124837300Y-122529918D01*
X124837300Y-122708881D01*
X124852561Y-122785602D01*
X124870822Y-122877409D01*
X124872214Y-122884403D01*
X124890484Y-122928510D01*
X124940698Y-123049736D01*
X125040122Y-123198535D01*
X125166665Y-123325078D01*
X125315464Y-123424502D01*
X125480800Y-123492987D01*
X125656321Y-123527900D01*
X125656322Y-123527900D01*
X125835278Y-123527900D01*
X125835279Y-123527900D01*
X126010800Y-123492987D01*
X126176136Y-123424502D01*
X126324935Y-123325078D01*
X126451478Y-123198535D01*
X126495163Y-123133155D01*
X129439458Y-123133155D01*
X129439458Y-123312118D01*
X129474372Y-123487640D01*
X129491886Y-123529921D01*
X129542856Y-123652973D01*
X129642280Y-123801772D01*
X129768823Y-123928315D01*
X129917622Y-124027739D01*
X130082958Y-124096224D01*
X130258479Y-124131137D01*
X130258480Y-124131137D01*
X130437436Y-124131137D01*
X130437437Y-124131137D01*
X130612958Y-124096224D01*
X130778294Y-124027739D01*
X130927093Y-123928315D01*
X131053636Y-123801772D01*
X131153060Y-123652973D01*
X131204031Y-123529918D01*
X132937300Y-123529918D01*
X132937300Y-123708881D01*
X132954638Y-123796045D01*
X132972213Y-123884400D01*
X133040698Y-124049736D01*
X133140122Y-124198535D01*
X133266665Y-124325078D01*
X133415464Y-124424502D01*
X133580800Y-124492987D01*
X133756321Y-124527900D01*
X133756322Y-124527900D01*
X133935278Y-124527900D01*
X133935279Y-124527900D01*
X134110800Y-124492987D01*
X134276136Y-124424502D01*
X134424935Y-124325078D01*
X134551478Y-124198535D01*
X134650902Y-124049736D01*
X134719387Y-123884400D01*
X134754300Y-123708879D01*
X134754300Y-123529921D01*
X134719387Y-123354400D01*
X134650902Y-123189064D01*
X134551478Y-123040265D01*
X134424935Y-122913722D01*
X134276136Y-122814298D01*
X134159229Y-122765873D01*
X134110803Y-122745814D01*
X134110801Y-122745813D01*
X134110800Y-122745813D01*
X134016059Y-122726968D01*
X133935281Y-122710900D01*
X133935279Y-122710900D01*
X133756321Y-122710900D01*
X133756318Y-122710900D01*
X133625571Y-122736907D01*
X133580800Y-122745813D01*
X133580799Y-122745813D01*
X133580796Y-122745814D01*
X133415462Y-122814299D01*
X133266669Y-122913719D01*
X133266662Y-122913724D01*
X133140124Y-123040262D01*
X133140119Y-123040269D01*
X133078028Y-123133196D01*
X133040698Y-123189064D01*
X133028740Y-123217933D01*
X132972214Y-123354396D01*
X132937300Y-123529918D01*
X131204031Y-123529918D01*
X131221545Y-123487637D01*
X131256458Y-123312116D01*
X131256458Y-123133158D01*
X131221545Y-122957637D01*
X131153060Y-122792301D01*
X131053636Y-122643502D01*
X130927093Y-122516959D01*
X130778294Y-122417535D01*
X130625874Y-122354400D01*
X130612961Y-122349051D01*
X130612959Y-122349050D01*
X130612958Y-122349050D01*
X130524603Y-122331475D01*
X130437439Y-122314137D01*
X130437437Y-122314137D01*
X130258479Y-122314137D01*
X130258476Y-122314137D01*
X130127729Y-122340144D01*
X130082958Y-122349050D01*
X130082957Y-122349050D01*
X130082954Y-122349051D01*
X129951860Y-122403353D01*
X129926823Y-122413724D01*
X129917620Y-122417536D01*
X129768827Y-122516956D01*
X129768820Y-122516961D01*
X129642282Y-122643499D01*
X129642277Y-122643506D01*
X129547329Y-122785607D01*
X129542856Y-122792301D01*
X129533744Y-122814299D01*
X129474372Y-122957633D01*
X129474371Y-122957636D01*
X129474371Y-122957637D01*
X129467877Y-122990287D01*
X129439458Y-123133155D01*
X126495163Y-123133155D01*
X126550902Y-123049736D01*
X126619387Y-122884400D01*
X126654300Y-122708879D01*
X126654300Y-122529921D01*
X126619387Y-122354400D01*
X126550902Y-122189064D01*
X126451478Y-122040265D01*
X126324935Y-121913722D01*
X126176136Y-121814298D01*
X126059229Y-121765873D01*
X126010803Y-121745814D01*
X126010801Y-121745813D01*
X126010800Y-121745813D01*
X125922445Y-121728238D01*
X125835281Y-121710900D01*
X125835279Y-121710900D01*
X125656321Y-121710900D01*
X125656318Y-121710900D01*
X125525571Y-121736907D01*
X125480800Y-121745813D01*
X125480799Y-121745813D01*
X125480796Y-121745814D01*
X125315462Y-121814299D01*
X125166669Y-121913719D01*
X125166662Y-121913724D01*
X125040124Y-122040262D01*
X125040119Y-122040269D01*
X124940699Y-122189062D01*
X124872214Y-122354396D01*
X124837300Y-122529918D01*
X115746700Y-122529918D01*
X115746700Y-120790750D01*
X152917300Y-120790750D01*
X152917300Y-122588049D01*
X152923809Y-122648596D01*
X152923811Y-122648604D01*
X152974910Y-122785602D01*
X152974912Y-122785607D01*
X153062538Y-122902661D01*
X153179592Y-122990287D01*
X153179594Y-122990288D01*
X153179596Y-122990289D01*
X153237287Y-123011807D01*
X153316595Y-123041388D01*
X153316603Y-123041390D01*
X153377150Y-123047899D01*
X153377155Y-123047899D01*
X153377162Y-123047900D01*
X154095250Y-123047900D01*
X154163371Y-123067902D01*
X154209864Y-123121558D01*
X154219968Y-123191832D01*
X154213305Y-123217933D01*
X154193811Y-123270195D01*
X154193809Y-123270203D01*
X154187300Y-123330750D01*
X154187300Y-125128049D01*
X154193809Y-125188596D01*
X154193811Y-125188604D01*
X154244910Y-125325602D01*
X154244912Y-125325607D01*
X154332538Y-125442661D01*
X154449592Y-125530287D01*
X154449594Y-125530288D01*
X154449596Y-125530289D01*
X154501735Y-125549736D01*
X154586595Y-125581388D01*
X154586603Y-125581390D01*
X154647150Y-125587899D01*
X154647155Y-125587899D01*
X154647162Y-125587900D01*
X154647168Y-125587900D01*
X156444432Y-125587900D01*
X156444438Y-125587900D01*
X156444445Y-125587899D01*
X156444449Y-125587899D01*
X156504996Y-125581390D01*
X156504999Y-125581389D01*
X156505001Y-125581389D01*
X156642004Y-125530289D01*
X156740292Y-125456711D01*
X156806811Y-125431901D01*
X156876185Y-125446992D01*
X156891302Y-125456706D01*
X156989593Y-125530287D01*
X156989596Y-125530289D01*
X157126595Y-125581388D01*
X157126603Y-125581390D01*
X157187150Y-125587899D01*
X157187155Y-125587899D01*
X157187162Y-125587900D01*
X157187168Y-125587900D01*
X158984432Y-125587900D01*
X158984438Y-125587900D01*
X158984445Y-125587899D01*
X158984449Y-125587899D01*
X159044996Y-125581390D01*
X159044999Y-125581389D01*
X159045001Y-125581389D01*
X159182004Y-125530289D01*
X159240326Y-125486630D01*
X159299061Y-125442661D01*
X159386687Y-125325607D01*
X159386687Y-125325606D01*
X159386689Y-125325604D01*
X159437789Y-125188601D01*
X159444300Y-125128038D01*
X159444300Y-123330762D01*
X159442296Y-123312118D01*
X159437790Y-123270203D01*
X159437788Y-123270195D01*
X159418295Y-123217933D01*
X159413229Y-123147117D01*
X159447254Y-123084805D01*
X159509566Y-123050780D01*
X159536350Y-123047900D01*
X160544432Y-123047900D01*
X160544438Y-123047900D01*
X160544445Y-123047899D01*
X160544449Y-123047899D01*
X160604996Y-123041390D01*
X160604999Y-123041389D01*
X160605001Y-123041389D01*
X160610219Y-123039443D01*
X160623845Y-123034360D01*
X160742004Y-122990289D01*
X160796177Y-122949736D01*
X160859061Y-122902661D01*
X160946687Y-122785607D01*
X160946687Y-122785606D01*
X160946689Y-122785604D01*
X160997789Y-122648601D01*
X160998338Y-122643502D01*
X161004299Y-122588049D01*
X161004300Y-122588032D01*
X161004300Y-120790767D01*
X161004299Y-120790750D01*
X160997790Y-120730203D01*
X160997788Y-120730195D01*
X160946689Y-120593197D01*
X160946687Y-120593192D01*
X160859061Y-120476138D01*
X160742007Y-120388512D01*
X160742002Y-120388510D01*
X160605004Y-120337411D01*
X160604996Y-120337409D01*
X160544449Y-120330900D01*
X160544438Y-120330900D01*
X158747162Y-120330900D01*
X158747150Y-120330900D01*
X158686603Y-120337409D01*
X158686595Y-120337411D01*
X158549597Y-120388510D01*
X158549592Y-120388512D01*
X158432538Y-120476138D01*
X158344912Y-120593192D01*
X158344910Y-120593197D01*
X158293811Y-120730195D01*
X158293809Y-120730203D01*
X158287300Y-120790750D01*
X158287300Y-122588049D01*
X158293809Y-122648596D01*
X158293811Y-122648604D01*
X158313305Y-122700867D01*
X158318371Y-122771683D01*
X158284346Y-122833995D01*
X158222034Y-122868020D01*
X158195250Y-122870900D01*
X157187150Y-122870900D01*
X157126603Y-122877409D01*
X157126595Y-122877411D01*
X156989597Y-122928510D01*
X156989592Y-122928512D01*
X156891309Y-123002087D01*
X156824789Y-123026898D01*
X156755415Y-123011807D01*
X156740291Y-123002087D01*
X156642007Y-122928512D01*
X156642002Y-122928510D01*
X156505004Y-122877411D01*
X156504996Y-122877409D01*
X156444449Y-122870900D01*
X156444438Y-122870900D01*
X155726350Y-122870900D01*
X155658229Y-122850898D01*
X155611736Y-122797242D01*
X155601632Y-122726968D01*
X155608295Y-122700867D01*
X155627788Y-122648604D01*
X155627790Y-122648596D01*
X155634299Y-122588049D01*
X155634300Y-122588032D01*
X155634300Y-120790767D01*
X155634299Y-120790750D01*
X155627790Y-120730203D01*
X155627788Y-120730195D01*
X155576689Y-120593197D01*
X155576687Y-120593192D01*
X155489061Y-120476138D01*
X155372007Y-120388512D01*
X155372002Y-120388510D01*
X155235004Y-120337411D01*
X155234996Y-120337409D01*
X155174449Y-120330900D01*
X155174438Y-120330900D01*
X153377162Y-120330900D01*
X153377150Y-120330900D01*
X153316603Y-120337409D01*
X153316595Y-120337411D01*
X153179597Y-120388510D01*
X153179592Y-120388512D01*
X153062538Y-120476138D01*
X152974912Y-120593192D01*
X152974910Y-120593197D01*
X152923811Y-120730195D01*
X152923809Y-120730203D01*
X152917300Y-120790750D01*
X115746700Y-120790750D01*
X115746700Y-118798711D01*
X164212300Y-118798711D01*
X164212300Y-119040089D01*
X164250060Y-119278495D01*
X164250061Y-119278500D01*
X164324648Y-119508055D01*
X164324650Y-119508060D01*
X164324651Y-119508061D01*
X164434235Y-119723132D01*
X164576113Y-119918410D01*
X164746789Y-120089086D01*
X164746792Y-120089088D01*
X164942071Y-120230967D01*
X165157140Y-120340550D01*
X165386705Y-120415140D01*
X165625111Y-120452900D01*
X165625114Y-120452900D01*
X165866486Y-120452900D01*
X165866489Y-120452900D01*
X166104895Y-120415140D01*
X166334460Y-120340550D01*
X166549529Y-120230967D01*
X166744808Y-120089088D01*
X166915488Y-119918408D01*
X167057367Y-119723129D01*
X167166950Y-119508060D01*
X167241540Y-119278495D01*
X167279300Y-119040089D01*
X167279300Y-118798711D01*
X167241540Y-118560305D01*
X167166950Y-118330740D01*
X167057367Y-118115671D01*
X166915488Y-117920392D01*
X166915486Y-117920389D01*
X166744810Y-117749713D01*
X166549532Y-117607835D01*
X166549531Y-117607834D01*
X166549529Y-117607833D01*
X166334460Y-117498250D01*
X166334457Y-117498249D01*
X166334455Y-117498248D01*
X166104900Y-117423661D01*
X166104896Y-117423660D01*
X166104895Y-117423660D01*
X165866489Y-117385900D01*
X165625111Y-117385900D01*
X165386705Y-117423660D01*
X165386699Y-117423661D01*
X165157144Y-117498248D01*
X165157138Y-117498251D01*
X164942067Y-117607835D01*
X164746789Y-117749713D01*
X164576113Y-117920389D01*
X164434235Y-118115667D01*
X164324651Y-118330738D01*
X164324648Y-118330744D01*
X164250061Y-118560299D01*
X164250060Y-118560304D01*
X164250060Y-118560305D01*
X164212300Y-118798711D01*
X115746700Y-118798711D01*
X115746700Y-116250841D01*
X161572300Y-116250841D01*
X161572300Y-116507959D01*
X161612522Y-116761912D01*
X161612523Y-116761917D01*
X161691974Y-117006441D01*
X161691976Y-117006446D01*
X161808706Y-117235541D01*
X161959836Y-117443554D01*
X161959838Y-117443556D01*
X161959840Y-117443559D01*
X162141640Y-117625359D01*
X162141643Y-117625361D01*
X162141646Y-117625364D01*
X162349659Y-117776494D01*
X162578754Y-117893224D01*
X162823288Y-117972678D01*
X163077241Y-118012900D01*
X163077244Y-118012900D01*
X163334356Y-118012900D01*
X163334359Y-118012900D01*
X163588312Y-117972678D01*
X163832846Y-117893224D01*
X164061941Y-117776494D01*
X164269954Y-117625364D01*
X164451764Y-117443554D01*
X164602894Y-117235541D01*
X164719624Y-117006446D01*
X164799078Y-116761912D01*
X164839300Y-116507959D01*
X164839300Y-116250841D01*
X166652300Y-116250841D01*
X166652300Y-116507959D01*
X166692522Y-116761912D01*
X166692523Y-116761917D01*
X166771974Y-117006441D01*
X166771976Y-117006446D01*
X166888706Y-117235541D01*
X167039836Y-117443554D01*
X167039838Y-117443556D01*
X167039840Y-117443559D01*
X167221640Y-117625359D01*
X167221643Y-117625361D01*
X167221646Y-117625364D01*
X167429659Y-117776494D01*
X167658754Y-117893224D01*
X167903288Y-117972678D01*
X168157241Y-118012900D01*
X168157244Y-118012900D01*
X168414356Y-118012900D01*
X168414359Y-118012900D01*
X168668312Y-117972678D01*
X168912846Y-117893224D01*
X169141941Y-117776494D01*
X169349954Y-117625364D01*
X169531764Y-117443554D01*
X169682894Y-117235541D01*
X169799624Y-117006446D01*
X169879078Y-116761912D01*
X169919300Y-116507959D01*
X169919300Y-116250841D01*
X169879078Y-115996888D01*
X169799624Y-115752354D01*
X169682894Y-115523259D01*
X169531764Y-115315246D01*
X169531761Y-115315243D01*
X169531759Y-115315240D01*
X169349959Y-115133440D01*
X169349956Y-115133438D01*
X169349954Y-115133436D01*
X169169016Y-115001977D01*
X169141944Y-114982308D01*
X169141943Y-114982307D01*
X169141941Y-114982306D01*
X168912846Y-114865576D01*
X168912843Y-114865575D01*
X168912841Y-114865574D01*
X168668317Y-114786123D01*
X168668313Y-114786122D01*
X168668312Y-114786122D01*
X168414359Y-114745900D01*
X168157241Y-114745900D01*
X167903288Y-114786122D01*
X167903282Y-114786123D01*
X167658758Y-114865574D01*
X167658752Y-114865577D01*
X167429655Y-114982308D01*
X167221643Y-115133438D01*
X167221640Y-115133440D01*
X167039840Y-115315240D01*
X167039838Y-115315243D01*
X166888708Y-115523255D01*
X166771977Y-115752352D01*
X166771974Y-115752358D01*
X166692523Y-115996882D01*
X166692522Y-115996887D01*
X166692522Y-115996888D01*
X166652300Y-116250841D01*
X164839300Y-116250841D01*
X164799078Y-115996888D01*
X164719624Y-115752354D01*
X164602894Y-115523259D01*
X164451764Y-115315246D01*
X164451761Y-115315243D01*
X164451759Y-115315240D01*
X164269959Y-115133440D01*
X164269956Y-115133438D01*
X164269954Y-115133436D01*
X164089016Y-115001977D01*
X164061944Y-114982308D01*
X164061943Y-114982307D01*
X164061941Y-114982306D01*
X163832846Y-114865576D01*
X163832843Y-114865575D01*
X163832841Y-114865574D01*
X163588317Y-114786123D01*
X163588313Y-114786122D01*
X163588312Y-114786122D01*
X163334359Y-114745900D01*
X163077241Y-114745900D01*
X162823288Y-114786122D01*
X162823282Y-114786123D01*
X162578758Y-114865574D01*
X162578752Y-114865577D01*
X162349655Y-114982308D01*
X162141643Y-115133438D01*
X162141640Y-115133440D01*
X161959840Y-115315240D01*
X161959838Y-115315243D01*
X161808708Y-115523255D01*
X161691977Y-115752352D01*
X161691974Y-115752358D01*
X161612523Y-115996882D01*
X161612522Y-115996887D01*
X161612522Y-115996888D01*
X161572300Y-116250841D01*
X115746700Y-116250841D01*
X115746700Y-112059212D01*
X123617300Y-112059212D01*
X123617300Y-112419587D01*
X123657648Y-112777694D01*
X123699396Y-112960601D01*
X123737838Y-113129026D01*
X123737840Y-113129032D01*
X123737839Y-113129032D01*
X123856854Y-113469157D01*
X123856862Y-113469177D01*
X124013222Y-113793860D01*
X124013223Y-113793863D01*
X124204943Y-114098984D01*
X124204947Y-114098991D01*
X124429639Y-114380745D01*
X124684454Y-114635560D01*
X124966208Y-114860252D01*
X124966215Y-114860256D01*
X125271336Y-115051976D01*
X125271338Y-115051976D01*
X125271342Y-115051979D01*
X125596025Y-115208339D01*
X125596040Y-115208344D01*
X125596042Y-115208345D01*
X125936167Y-115327360D01*
X125936170Y-115327360D01*
X125936174Y-115327362D01*
X126287505Y-115407551D01*
X126287506Y-115407551D01*
X126287509Y-115407552D01*
X126498707Y-115431347D01*
X126645612Y-115447900D01*
X126645614Y-115447900D01*
X127005988Y-115447900D01*
X127096930Y-115437653D01*
X127364091Y-115407552D01*
X127715426Y-115327362D01*
X128055575Y-115208339D01*
X128380258Y-115051979D01*
X128685393Y-114860251D01*
X128967142Y-114635563D01*
X129221963Y-114380742D01*
X129284372Y-114302484D01*
X152917300Y-114302484D01*
X152917300Y-114516316D01*
X152928268Y-114585563D01*
X152950752Y-114727521D01*
X152995609Y-114865577D01*
X153016828Y-114930883D01*
X153078529Y-115051977D01*
X153113908Y-115121412D01*
X153122647Y-115133440D01*
X153239594Y-115294404D01*
X153239596Y-115294406D01*
X153239598Y-115294409D01*
X153390790Y-115445601D01*
X153390793Y-115445603D01*
X153390796Y-115445606D01*
X153563791Y-115571294D01*
X153754317Y-115668372D01*
X153957678Y-115734447D01*
X153957679Y-115734447D01*
X153957684Y-115734449D01*
X154168884Y-115767900D01*
X154168887Y-115767900D01*
X154382713Y-115767900D01*
X154382716Y-115767900D01*
X154593916Y-115734449D01*
X154797283Y-115668372D01*
X154987809Y-115571294D01*
X155160804Y-115445606D01*
X155312006Y-115294404D01*
X155437694Y-115121409D01*
X155534772Y-114930883D01*
X155600849Y-114727516D01*
X155634300Y-114516316D01*
X155634300Y-114302484D01*
X155600849Y-114091284D01*
X155534772Y-113887917D01*
X155437694Y-113697391D01*
X155312006Y-113524396D01*
X155312003Y-113524393D01*
X155312001Y-113524390D01*
X155230606Y-113442995D01*
X155196580Y-113380683D01*
X155201645Y-113309868D01*
X155244192Y-113253032D01*
X155310712Y-113228221D01*
X155319701Y-113227900D01*
X156444432Y-113227900D01*
X156444438Y-113227900D01*
X156444445Y-113227899D01*
X156444449Y-113227899D01*
X156504996Y-113221390D01*
X156504999Y-113221389D01*
X156505001Y-113221389D01*
X156642004Y-113170289D01*
X156740292Y-113096711D01*
X156806811Y-113071901D01*
X156876185Y-113086992D01*
X156891302Y-113096706D01*
X156989596Y-113170289D01*
X157126595Y-113221388D01*
X157126603Y-113221390D01*
X157187150Y-113227899D01*
X157187155Y-113227899D01*
X157187162Y-113227900D01*
X158601899Y-113227900D01*
X158670020Y-113247902D01*
X158716513Y-113301558D01*
X158726617Y-113371832D01*
X158697123Y-113436412D01*
X158690994Y-113442995D01*
X158609598Y-113524390D01*
X158609596Y-113524393D01*
X158483908Y-113697387D01*
X158386829Y-113887915D01*
X158386826Y-113887921D01*
X158320752Y-114091278D01*
X158320751Y-114091283D01*
X158320751Y-114091284D01*
X158287300Y-114302484D01*
X158287300Y-114516316D01*
X158298268Y-114585563D01*
X158320752Y-114727521D01*
X158365609Y-114865577D01*
X158386828Y-114930883D01*
X158448529Y-115051977D01*
X158483908Y-115121412D01*
X158492647Y-115133440D01*
X158609594Y-115294404D01*
X158609596Y-115294406D01*
X158609598Y-115294409D01*
X158760790Y-115445601D01*
X158760793Y-115445603D01*
X158760796Y-115445606D01*
X158933791Y-115571294D01*
X159124317Y-115668372D01*
X159327678Y-115734447D01*
X159327679Y-115734447D01*
X159327684Y-115734449D01*
X159538884Y-115767900D01*
X159538887Y-115767900D01*
X159752713Y-115767900D01*
X159752716Y-115767900D01*
X159963916Y-115734449D01*
X160167283Y-115668372D01*
X160357809Y-115571294D01*
X160530804Y-115445606D01*
X160682006Y-115294404D01*
X160807694Y-115121409D01*
X160904772Y-114930883D01*
X160970849Y-114727516D01*
X161004300Y-114516316D01*
X161004300Y-114302484D01*
X160970849Y-114091284D01*
X160904772Y-113887917D01*
X160807694Y-113697391D01*
X160682006Y-113524396D01*
X160682003Y-113524393D01*
X160682001Y-113524390D01*
X160530809Y-113373198D01*
X160530806Y-113373196D01*
X160530804Y-113373194D01*
X160357809Y-113247506D01*
X160167283Y-113150428D01*
X160167280Y-113150427D01*
X160167278Y-113150426D01*
X159963920Y-113084352D01*
X159963923Y-113084352D01*
X159885310Y-113071901D01*
X159752716Y-113050900D01*
X159538884Y-113050900D01*
X159536350Y-113050900D01*
X159468229Y-113030898D01*
X159421736Y-112977242D01*
X159411632Y-112906968D01*
X159418295Y-112880867D01*
X159437788Y-112828604D01*
X159437790Y-112828596D01*
X159444299Y-112768049D01*
X159444300Y-112768032D01*
X159444300Y-110970767D01*
X159444299Y-110970750D01*
X159437790Y-110910203D01*
X159437788Y-110910195D01*
X159386689Y-110773197D01*
X159386687Y-110773192D01*
X159299061Y-110656138D01*
X159182007Y-110568512D01*
X159182002Y-110568510D01*
X159045004Y-110517411D01*
X159044996Y-110517409D01*
X158984449Y-110510900D01*
X158984438Y-110510900D01*
X157187162Y-110510900D01*
X157187150Y-110510900D01*
X157126603Y-110517409D01*
X157126595Y-110517411D01*
X156989597Y-110568510D01*
X156989592Y-110568512D01*
X156891309Y-110642087D01*
X156824789Y-110666898D01*
X156755415Y-110651807D01*
X156740291Y-110642087D01*
X156642007Y-110568512D01*
X156642002Y-110568510D01*
X156505004Y-110517411D01*
X156504996Y-110517409D01*
X156444449Y-110510900D01*
X156444438Y-110510900D01*
X154647162Y-110510900D01*
X154647150Y-110510900D01*
X154586603Y-110517409D01*
X154586595Y-110517411D01*
X154449597Y-110568510D01*
X154449592Y-110568512D01*
X154332538Y-110656138D01*
X154244912Y-110773192D01*
X154244910Y-110773197D01*
X154193811Y-110910195D01*
X154193809Y-110910203D01*
X154187300Y-110970750D01*
X154187300Y-112768049D01*
X154193809Y-112828596D01*
X154193810Y-112828597D01*
X154193810Y-112828599D01*
X154193811Y-112828601D01*
X154216860Y-112890396D01*
X154221925Y-112961212D01*
X154187900Y-113023524D01*
X154125588Y-113057549D01*
X154118524Y-113058876D01*
X153957684Y-113084351D01*
X153957678Y-113084352D01*
X153754321Y-113150426D01*
X153754315Y-113150429D01*
X153563787Y-113247508D01*
X153390793Y-113373196D01*
X153390790Y-113373198D01*
X153239598Y-113524390D01*
X153239596Y-113524393D01*
X153113908Y-113697387D01*
X153016829Y-113887915D01*
X153016826Y-113887921D01*
X152950752Y-114091278D01*
X152950751Y-114091283D01*
X152950751Y-114091284D01*
X152917300Y-114302484D01*
X129284372Y-114302484D01*
X129446651Y-114098993D01*
X129638379Y-113793858D01*
X129794739Y-113469175D01*
X129885821Y-113208877D01*
X129913760Y-113129032D01*
X129913760Y-113129031D01*
X129913762Y-113129026D01*
X129936383Y-113029918D01*
X149062300Y-113029918D01*
X149062300Y-113208881D01*
X149079638Y-113296045D01*
X149097213Y-113384400D01*
X149165698Y-113549736D01*
X149265122Y-113698535D01*
X149391665Y-113825078D01*
X149540464Y-113924502D01*
X149705800Y-113992987D01*
X149881321Y-114027900D01*
X149881322Y-114027900D01*
X150060278Y-114027900D01*
X150060279Y-114027900D01*
X150235800Y-113992987D01*
X150401136Y-113924502D01*
X150549935Y-113825078D01*
X150676478Y-113698535D01*
X150775902Y-113549736D01*
X150844387Y-113384400D01*
X150879300Y-113208879D01*
X150879300Y-113029921D01*
X150844387Y-112854400D01*
X150775902Y-112689064D01*
X150676478Y-112540265D01*
X150549935Y-112413722D01*
X150401136Y-112314298D01*
X150284229Y-112265873D01*
X150235803Y-112245814D01*
X150235801Y-112245813D01*
X150235800Y-112245813D01*
X150147445Y-112228238D01*
X150060281Y-112210900D01*
X150060279Y-112210900D01*
X149881321Y-112210900D01*
X149881318Y-112210900D01*
X149750571Y-112236907D01*
X149705800Y-112245813D01*
X149705799Y-112245813D01*
X149705796Y-112245814D01*
X149540462Y-112314299D01*
X149391669Y-112413719D01*
X149391662Y-112413724D01*
X149265124Y-112540262D01*
X149265119Y-112540269D01*
X149165699Y-112689062D01*
X149097214Y-112854396D01*
X149097213Y-112854399D01*
X149097213Y-112854400D01*
X149090053Y-112890396D01*
X149062300Y-113029918D01*
X129936383Y-113029918D01*
X129993952Y-112777691D01*
X130034300Y-112419586D01*
X130034300Y-112059214D01*
X130034252Y-112058791D01*
X130009775Y-111841544D01*
X129993952Y-111701109D01*
X129913762Y-111349774D01*
X129896266Y-111299774D01*
X129794745Y-111009642D01*
X129794744Y-111009640D01*
X129794739Y-111009625D01*
X129638379Y-110684942D01*
X129638376Y-110684938D01*
X129638376Y-110684936D01*
X129446656Y-110379815D01*
X129446652Y-110379808D01*
X129221960Y-110098054D01*
X128967145Y-109843239D01*
X128685391Y-109618547D01*
X128685384Y-109618543D01*
X128380263Y-109426823D01*
X128380260Y-109426822D01*
X128375443Y-109424502D01*
X128055575Y-109270461D01*
X128055571Y-109270459D01*
X128055557Y-109270454D01*
X127715432Y-109151439D01*
X127364093Y-109071248D01*
X127364096Y-109071248D01*
X127005988Y-109030900D01*
X127005986Y-109030900D01*
X126645614Y-109030900D01*
X126645612Y-109030900D01*
X126287505Y-109071248D01*
X125936167Y-109151439D01*
X125596042Y-109270454D01*
X125596022Y-109270462D01*
X125271339Y-109426822D01*
X125271336Y-109426823D01*
X124966215Y-109618543D01*
X124966208Y-109618547D01*
X124684454Y-109843239D01*
X124429639Y-110098054D01*
X124204947Y-110379808D01*
X124204943Y-110379815D01*
X124013223Y-110684936D01*
X124013222Y-110684939D01*
X123856862Y-111009622D01*
X123856854Y-111009642D01*
X123737839Y-111349767D01*
X123657648Y-111701105D01*
X123617300Y-112059212D01*
X115746700Y-112059212D01*
X115746700Y-106244690D01*
X150987300Y-106244690D01*
X150987300Y-106394109D01*
X150991202Y-106413724D01*
X151016449Y-106540646D01*
X151073626Y-106678684D01*
X151156635Y-106802916D01*
X151156637Y-106802918D01*
X151234024Y-106880305D01*
X151268050Y-106942617D01*
X151262985Y-107013432D01*
X151234024Y-107058495D01*
X151156637Y-107135881D01*
X151156632Y-107135888D01*
X151073626Y-107260115D01*
X151016450Y-107398150D01*
X151016449Y-107398153D01*
X150987300Y-107544690D01*
X150987300Y-107694109D01*
X151016449Y-107840646D01*
X151016450Y-107840649D01*
X151016821Y-107841544D01*
X151073626Y-107978684D01*
X151156635Y-108102916D01*
X151262284Y-108208565D01*
X151386516Y-108291574D01*
X151524554Y-108348751D01*
X151671094Y-108377900D01*
X151820506Y-108377900D01*
X151967046Y-108348751D01*
X152105084Y-108291574D01*
X152225799Y-108210914D01*
X152293551Y-108189700D01*
X152362018Y-108208483D01*
X152365776Y-108210898D01*
X152486516Y-108291574D01*
X152624554Y-108348751D01*
X152771094Y-108377900D01*
X152920506Y-108377900D01*
X153067046Y-108348751D01*
X153183054Y-108300698D01*
X153253642Y-108293110D01*
X153317129Y-108324889D01*
X153353357Y-108385947D01*
X153354850Y-108441689D01*
X153337300Y-108529915D01*
X153337300Y-108708881D01*
X153354638Y-108796045D01*
X153372213Y-108884400D01*
X153440698Y-109049736D01*
X153540122Y-109198535D01*
X153666665Y-109325078D01*
X153815464Y-109424502D01*
X153980800Y-109492987D01*
X154156321Y-109527900D01*
X154156322Y-109527900D01*
X154335278Y-109527900D01*
X154335279Y-109527900D01*
X154510800Y-109492987D01*
X154676136Y-109424502D01*
X154824935Y-109325078D01*
X154951478Y-109198535D01*
X155050902Y-109049736D01*
X155119387Y-108884400D01*
X155154300Y-108708879D01*
X155154300Y-108529921D01*
X155119387Y-108354400D01*
X155050902Y-108189064D01*
X155050901Y-108189062D01*
X155050900Y-108189060D01*
X155050899Y-108189059D01*
X154978751Y-108081081D01*
X154978750Y-108081080D01*
X154953021Y-108042575D01*
X154951478Y-108040265D01*
X154928478Y-108017265D01*
X155824647Y-108017265D01*
X155824647Y-108196228D01*
X155829681Y-108221534D01*
X155856109Y-108354400D01*
X155859561Y-108371750D01*
X155865442Y-108385947D01*
X155928045Y-108537083D01*
X156027469Y-108685882D01*
X156154012Y-108812425D01*
X156302811Y-108911849D01*
X156468147Y-108980334D01*
X156643668Y-109015247D01*
X156643669Y-109015247D01*
X156822625Y-109015247D01*
X156822626Y-109015247D01*
X156998147Y-108980334D01*
X157163483Y-108911849D01*
X157312282Y-108812425D01*
X157438825Y-108685882D01*
X157538249Y-108537083D01*
X157606734Y-108371747D01*
X157619704Y-108306538D01*
X157652611Y-108243630D01*
X157714306Y-108208498D01*
X157785201Y-108212298D01*
X157842787Y-108253824D01*
X157866861Y-108306538D01*
X157881056Y-108377900D01*
X157884867Y-108397056D01*
X157884951Y-108397258D01*
X157953351Y-108562389D01*
X158052775Y-108711188D01*
X158179318Y-108837731D01*
X158328117Y-108937155D01*
X158493453Y-109005640D01*
X158668974Y-109040553D01*
X158668975Y-109040553D01*
X158847931Y-109040553D01*
X158847932Y-109040553D01*
X159023453Y-109005640D01*
X159188789Y-108937155D01*
X159337588Y-108837731D01*
X159464131Y-108711188D01*
X159563555Y-108562389D01*
X159632040Y-108397053D01*
X159666953Y-108221532D01*
X159666953Y-108042574D01*
X159632040Y-107867053D01*
X159563555Y-107701717D01*
X159464131Y-107552918D01*
X159337588Y-107426375D01*
X159188789Y-107326951D01*
X159071882Y-107278526D01*
X159023456Y-107258467D01*
X159023454Y-107258466D01*
X159023453Y-107258466D01*
X158935098Y-107240891D01*
X158847934Y-107223553D01*
X158847932Y-107223553D01*
X158668974Y-107223553D01*
X158668971Y-107223553D01*
X158493447Y-107258467D01*
X158328518Y-107326784D01*
X158257928Y-107334373D01*
X158194441Y-107302594D01*
X158158214Y-107241536D01*
X158154300Y-107210375D01*
X158154300Y-107029922D01*
X158154299Y-107029918D01*
X158147589Y-106996183D01*
X158119387Y-106854400D01*
X158050902Y-106689064D01*
X157951478Y-106540265D01*
X157824935Y-106413722D01*
X157676136Y-106314298D01*
X157559229Y-106265873D01*
X157510803Y-106245814D01*
X157510801Y-106245813D01*
X157510800Y-106245813D01*
X157422445Y-106228238D01*
X157335281Y-106210900D01*
X157335279Y-106210900D01*
X157156321Y-106210900D01*
X157156318Y-106210900D01*
X157025571Y-106236907D01*
X156980800Y-106245813D01*
X156980799Y-106245813D01*
X156980796Y-106245814D01*
X156815462Y-106314299D01*
X156666669Y-106413719D01*
X156666662Y-106413724D01*
X156540124Y-106540262D01*
X156540119Y-106540269D01*
X156447634Y-106678684D01*
X156440698Y-106689064D01*
X156438700Y-106693887D01*
X156372214Y-106854396D01*
X156337300Y-107029918D01*
X156337300Y-107211251D01*
X156317298Y-107279372D01*
X156281302Y-107316016D01*
X156154016Y-107401066D01*
X156154009Y-107401071D01*
X156027471Y-107527609D01*
X156027466Y-107527616D01*
X156015908Y-107544915D01*
X155928045Y-107676411D01*
X155920714Y-107694109D01*
X155859561Y-107841743D01*
X155824647Y-108017265D01*
X154928478Y-108017265D01*
X154824935Y-107913722D01*
X154676136Y-107814298D01*
X154559229Y-107765873D01*
X154510803Y-107745814D01*
X154510801Y-107745813D01*
X154510800Y-107745813D01*
X154422445Y-107728238D01*
X154335281Y-107710900D01*
X154335279Y-107710900D01*
X154156321Y-107710900D01*
X154156318Y-107710900D01*
X154025571Y-107736907D01*
X153980800Y-107745813D01*
X153980799Y-107745813D01*
X153980796Y-107745814D01*
X153815462Y-107814299D01*
X153797282Y-107826446D01*
X153729528Y-107847658D01*
X153661062Y-107828872D01*
X153613621Y-107776053D01*
X153602267Y-107705971D01*
X153603707Y-107697088D01*
X153604299Y-107694109D01*
X153604300Y-107694106D01*
X153604300Y-107544693D01*
X153604299Y-107544690D01*
X153600902Y-107527612D01*
X153575151Y-107398154D01*
X153517974Y-107260116D01*
X153434965Y-107135884D01*
X153357576Y-107058495D01*
X153323550Y-106996183D01*
X153328615Y-106925368D01*
X153357576Y-106880305D01*
X153395800Y-106842081D01*
X153434965Y-106802916D01*
X153517974Y-106678684D01*
X153575151Y-106540646D01*
X153604300Y-106394106D01*
X153604300Y-106244694D01*
X153575151Y-106098154D01*
X153517974Y-105960116D01*
X153434965Y-105835884D01*
X153329316Y-105730235D01*
X153205084Y-105647226D01*
X153087538Y-105598537D01*
X153067049Y-105590050D01*
X153067046Y-105590049D01*
X152920509Y-105560900D01*
X152920506Y-105560900D01*
X152771094Y-105560900D01*
X152771090Y-105560900D01*
X152624553Y-105590049D01*
X152624550Y-105590050D01*
X152486515Y-105647226D01*
X152486511Y-105647228D01*
X152365801Y-105727884D01*
X152298049Y-105749099D01*
X152229582Y-105730316D01*
X152225799Y-105727884D01*
X152105088Y-105647228D01*
X152105084Y-105647226D01*
X151967049Y-105590050D01*
X151967046Y-105590049D01*
X151820509Y-105560900D01*
X151820506Y-105560900D01*
X151671094Y-105560900D01*
X151671090Y-105560900D01*
X151524553Y-105590049D01*
X151524550Y-105590050D01*
X151386515Y-105647226D01*
X151262288Y-105730232D01*
X151262281Y-105730237D01*
X151156637Y-105835881D01*
X151156632Y-105835888D01*
X151073626Y-105960115D01*
X151016450Y-106098150D01*
X151016449Y-106098153D01*
X150987300Y-106244690D01*
X115746700Y-106244690D01*
X115746700Y-104529918D01*
X146837300Y-104529918D01*
X146837300Y-104708881D01*
X146851311Y-104779316D01*
X146872213Y-104884400D01*
X146940698Y-105049736D01*
X147040122Y-105198535D01*
X147166665Y-105325078D01*
X147315464Y-105424502D01*
X147480800Y-105492987D01*
X147656321Y-105527900D01*
X147656322Y-105527900D01*
X147835278Y-105527900D01*
X147835279Y-105527900D01*
X148010800Y-105492987D01*
X148176136Y-105424502D01*
X148324935Y-105325078D01*
X148451478Y-105198535D01*
X148550902Y-105049736D01*
X148550902Y-105049734D01*
X148550905Y-105049731D01*
X148550904Y-105049730D01*
X148558183Y-105032159D01*
X148559111Y-105029918D01*
X155337300Y-105029918D01*
X155337300Y-105208881D01*
X155354638Y-105296045D01*
X155372213Y-105384400D01*
X155440698Y-105549736D01*
X155540122Y-105698535D01*
X155666665Y-105825078D01*
X155815464Y-105924502D01*
X155980800Y-105992987D01*
X156156321Y-106027900D01*
X156156322Y-106027900D01*
X156335278Y-106027900D01*
X156335279Y-106027900D01*
X156510800Y-105992987D01*
X156676136Y-105924502D01*
X156824935Y-105825078D01*
X156951478Y-105698535D01*
X157050902Y-105549736D01*
X157119387Y-105384400D01*
X157154300Y-105208879D01*
X157154300Y-105029921D01*
X157119387Y-104854400D01*
X157050902Y-104689064D01*
X156951478Y-104540265D01*
X156824935Y-104413722D01*
X156676136Y-104314298D01*
X156559229Y-104265873D01*
X156510803Y-104245814D01*
X156510801Y-104245813D01*
X156510800Y-104245813D01*
X156422445Y-104228238D01*
X156335281Y-104210900D01*
X156335279Y-104210900D01*
X156156321Y-104210900D01*
X156156318Y-104210900D01*
X156025571Y-104236907D01*
X155980800Y-104245813D01*
X155980799Y-104245813D01*
X155980796Y-104245814D01*
X155815462Y-104314299D01*
X155666669Y-104413719D01*
X155666662Y-104413724D01*
X155540124Y-104540262D01*
X155540119Y-104540269D01*
X155507516Y-104589064D01*
X155440698Y-104689064D01*
X155426516Y-104723302D01*
X155372214Y-104854396D01*
X155337300Y-105029918D01*
X148559111Y-105029918D01*
X148581645Y-104975517D01*
X148581647Y-104975513D01*
X148619385Y-104884405D01*
X148619385Y-104884404D01*
X148619387Y-104884400D01*
X148654300Y-104708879D01*
X148654300Y-104529921D01*
X148619387Y-104354400D01*
X148550902Y-104189064D01*
X148451478Y-104040265D01*
X148324935Y-103913722D01*
X148176136Y-103814298D01*
X148059229Y-103765873D01*
X148010803Y-103745814D01*
X148010801Y-103745813D01*
X148010800Y-103745813D01*
X147922445Y-103728238D01*
X147835281Y-103710900D01*
X147835279Y-103710900D01*
X147656321Y-103710900D01*
X147656318Y-103710900D01*
X147525571Y-103736907D01*
X147480800Y-103745813D01*
X147480799Y-103745813D01*
X147480796Y-103745814D01*
X147315462Y-103814299D01*
X147166669Y-103913719D01*
X147166662Y-103913724D01*
X147040124Y-104040262D01*
X147040119Y-104040269D01*
X146940699Y-104189062D01*
X146872214Y-104354396D01*
X146837300Y-104529918D01*
X115746700Y-104529918D01*
X115746700Y-101032159D01*
X163412300Y-101032159D01*
X163412300Y-101206641D01*
X163439595Y-101378974D01*
X163493512Y-101544916D01*
X163493513Y-101544917D01*
X163572728Y-101700384D01*
X163598083Y-101735282D01*
X163675283Y-101841539D01*
X163675285Y-101841541D01*
X163675287Y-101841544D01*
X163798654Y-101964911D01*
X163798657Y-101964913D01*
X163798661Y-101964917D01*
X163870986Y-102017464D01*
X163914339Y-102073687D01*
X163920414Y-102144423D01*
X163887282Y-102207215D01*
X163870986Y-102221336D01*
X163798654Y-102273888D01*
X163675287Y-102397255D01*
X163675285Y-102397258D01*
X163572728Y-102538415D01*
X163493513Y-102693882D01*
X163493510Y-102693888D01*
X163439596Y-102859822D01*
X163439595Y-102859826D01*
X163412300Y-103032159D01*
X163412300Y-103206641D01*
X163439595Y-103378974D01*
X163493512Y-103544916D01*
X163572726Y-103700381D01*
X163675283Y-103841539D01*
X163675285Y-103841541D01*
X163675287Y-103841544D01*
X163798654Y-103964911D01*
X163798657Y-103964913D01*
X163798661Y-103964917D01*
X163870986Y-104017464D01*
X163914339Y-104073687D01*
X163920414Y-104144423D01*
X163887282Y-104207215D01*
X163870986Y-104221336D01*
X163798654Y-104273888D01*
X163675287Y-104397255D01*
X163675285Y-104397258D01*
X163572728Y-104538415D01*
X163493513Y-104693882D01*
X163493510Y-104693888D01*
X163441359Y-104854396D01*
X163439595Y-104859826D01*
X163412300Y-105032159D01*
X163412300Y-105206641D01*
X163439595Y-105378974D01*
X163439596Y-105378977D01*
X163476639Y-105492987D01*
X163493512Y-105544916D01*
X163572726Y-105700381D01*
X163675283Y-105841539D01*
X163675285Y-105841541D01*
X163675287Y-105841544D01*
X163798654Y-105964911D01*
X163798657Y-105964913D01*
X163798661Y-105964917D01*
X163861950Y-106010899D01*
X163870986Y-106017464D01*
X163914339Y-106073687D01*
X163920414Y-106144423D01*
X163887282Y-106207215D01*
X163870986Y-106221336D01*
X163798654Y-106273888D01*
X163675287Y-106397255D01*
X163675285Y-106397258D01*
X163572728Y-106538415D01*
X163493513Y-106693882D01*
X163493510Y-106693888D01*
X163439596Y-106859822D01*
X163439595Y-106859826D01*
X163412300Y-107032159D01*
X163412300Y-107206641D01*
X163439595Y-107378974D01*
X163439596Y-107378976D01*
X163439596Y-107378977D01*
X163493439Y-107544694D01*
X163493512Y-107544916D01*
X163572726Y-107700381D01*
X163572728Y-107700384D01*
X163576787Y-107705971D01*
X163675283Y-107841539D01*
X163675284Y-107841540D01*
X163675285Y-107841541D01*
X163675287Y-107841544D01*
X163798655Y-107964912D01*
X163798658Y-107964914D01*
X163798661Y-107964917D01*
X163870985Y-108017463D01*
X163914339Y-108073685D01*
X163920414Y-108144421D01*
X163887283Y-108207213D01*
X163870986Y-108221335D01*
X163798654Y-108273887D01*
X163675287Y-108397254D01*
X163675285Y-108397257D01*
X163572728Y-108538414D01*
X163493513Y-108693881D01*
X163493510Y-108693887D01*
X163446773Y-108837733D01*
X163439595Y-108859825D01*
X163412300Y-109032158D01*
X163412300Y-109206640D01*
X163439595Y-109378973D01*
X163439596Y-109378976D01*
X163487983Y-109527900D01*
X163493512Y-109544915D01*
X163572726Y-109700380D01*
X163675283Y-109841538D01*
X163675284Y-109841539D01*
X163675285Y-109841540D01*
X163675287Y-109841543D01*
X163774327Y-109940583D01*
X163808353Y-110002895D01*
X163803288Y-110073710D01*
X163760741Y-110130546D01*
X163751381Y-110136918D01*
X163697146Y-110170371D01*
X163697141Y-110170375D01*
X163571775Y-110295741D01*
X163571770Y-110295747D01*
X163478685Y-110446662D01*
X163422913Y-110614972D01*
X163422912Y-110614979D01*
X163412300Y-110718846D01*
X163412300Y-111519944D01*
X163422912Y-111623825D01*
X163478685Y-111792138D01*
X163571770Y-111943052D01*
X163571775Y-111943058D01*
X163697141Y-112068424D01*
X163697147Y-112068429D01*
X163697148Y-112068430D01*
X163848062Y-112161515D01*
X164016374Y-112217287D01*
X164120255Y-112227900D01*
X165371344Y-112227899D01*
X165475226Y-112217287D01*
X165643538Y-112161515D01*
X165794452Y-112068430D01*
X165794453Y-112068428D01*
X165800698Y-112064577D01*
X165802260Y-112067110D01*
X165855522Y-112045585D01*
X165925279Y-112058791D01*
X165935490Y-112065058D01*
X165935596Y-112064886D01*
X165939812Y-112067469D01*
X165939815Y-112067470D01*
X165939820Y-112067474D01*
X166095285Y-112146688D01*
X166261227Y-112200605D01*
X166433560Y-112227900D01*
X166433563Y-112227900D01*
X167058039Y-112227900D01*
X167058042Y-112227900D01*
X167230375Y-112200605D01*
X167396317Y-112146688D01*
X167551782Y-112067474D01*
X167631973Y-112009212D01*
X201597300Y-112009212D01*
X201597300Y-112369587D01*
X201637648Y-112727694D01*
X201672609Y-112880867D01*
X201717838Y-113079026D01*
X201717840Y-113079032D01*
X201717839Y-113079032D01*
X201836854Y-113419157D01*
X201836859Y-113419171D01*
X201836861Y-113419175D01*
X201971395Y-113698535D01*
X201993222Y-113743860D01*
X201993223Y-113743863D01*
X202184943Y-114048984D01*
X202184947Y-114048991D01*
X202409639Y-114330745D01*
X202664454Y-114585560D01*
X202946208Y-114810252D01*
X202946215Y-114810256D01*
X203251336Y-115001976D01*
X203251338Y-115001976D01*
X203251342Y-115001979D01*
X203576025Y-115158339D01*
X203576040Y-115158344D01*
X203576042Y-115158345D01*
X203916167Y-115277360D01*
X203916170Y-115277360D01*
X203916174Y-115277362D01*
X204267505Y-115357551D01*
X204267506Y-115357551D01*
X204267509Y-115357552D01*
X204478707Y-115381347D01*
X204625612Y-115397900D01*
X204625614Y-115397900D01*
X204985988Y-115397900D01*
X205076930Y-115387653D01*
X205344091Y-115357552D01*
X205695426Y-115277362D01*
X206035575Y-115158339D01*
X206360258Y-115001979D01*
X206665393Y-114810251D01*
X206947142Y-114585563D01*
X207201963Y-114330742D01*
X207426651Y-114048993D01*
X207618379Y-113743858D01*
X207774739Y-113419175D01*
X207893762Y-113079026D01*
X207973952Y-112727691D01*
X208009327Y-112413722D01*
X208014300Y-112369587D01*
X208014300Y-112009212D01*
X207989842Y-111792138D01*
X207973952Y-111651109D01*
X207893762Y-111299774D01*
X207861173Y-111206641D01*
X207774745Y-110959642D01*
X207774744Y-110959640D01*
X207774739Y-110959625D01*
X207618379Y-110634942D01*
X207618376Y-110634938D01*
X207618376Y-110634936D01*
X207426656Y-110329815D01*
X207426652Y-110329808D01*
X207201960Y-110048054D01*
X206947145Y-109793239D01*
X206665391Y-109568547D01*
X206665384Y-109568543D01*
X206360263Y-109376823D01*
X206360260Y-109376822D01*
X206139403Y-109270462D01*
X206035575Y-109220461D01*
X206035571Y-109220459D01*
X206035557Y-109220454D01*
X205695432Y-109101439D01*
X205344093Y-109021248D01*
X205344096Y-109021248D01*
X204985988Y-108980900D01*
X204985986Y-108980900D01*
X204625614Y-108980900D01*
X204625612Y-108980900D01*
X204267505Y-109021248D01*
X203916167Y-109101439D01*
X203576042Y-109220454D01*
X203576022Y-109220462D01*
X203251339Y-109376822D01*
X203251336Y-109376823D01*
X202946215Y-109568543D01*
X202946208Y-109568547D01*
X202664454Y-109793239D01*
X202409639Y-110048054D01*
X202184947Y-110329808D01*
X202184943Y-110329815D01*
X201993223Y-110634936D01*
X201993222Y-110634939D01*
X201836862Y-110959622D01*
X201836854Y-110959642D01*
X201717839Y-111299767D01*
X201637648Y-111651105D01*
X201597300Y-112009212D01*
X167631973Y-112009212D01*
X167692940Y-111964917D01*
X167714805Y-111943052D01*
X167741274Y-111916584D01*
X167816313Y-111841544D01*
X167816318Y-111841539D01*
X167918875Y-111700381D01*
X167998089Y-111544916D01*
X168052006Y-111378974D01*
X168079301Y-111206641D01*
X168079301Y-111032159D01*
X168052006Y-110859826D01*
X167998089Y-110693884D01*
X167918875Y-110538419D01*
X167816318Y-110397261D01*
X167816315Y-110397258D01*
X167816313Y-110397255D01*
X167692942Y-110273884D01*
X167620614Y-110221335D01*
X167577260Y-110165112D01*
X167571185Y-110094376D01*
X167604317Y-110031585D01*
X167620605Y-110017470D01*
X167692939Y-109964917D01*
X167816317Y-109841539D01*
X167918874Y-109700381D01*
X167998088Y-109544916D01*
X168052005Y-109378974D01*
X168079300Y-109206641D01*
X168079300Y-109032159D01*
X168052005Y-108859826D01*
X167998088Y-108693884D01*
X167918874Y-108538419D01*
X167816317Y-108397261D01*
X167816313Y-108397257D01*
X167816312Y-108397255D01*
X167692941Y-108273884D01*
X167620613Y-108221335D01*
X167577259Y-108165112D01*
X167571184Y-108094376D01*
X167604316Y-108031585D01*
X167620606Y-108017468D01*
X167692939Y-107964916D01*
X167816317Y-107841538D01*
X167918874Y-107700380D01*
X167998088Y-107544915D01*
X168052005Y-107378973D01*
X168079300Y-107206640D01*
X168079300Y-107032158D01*
X168052005Y-106859825D01*
X167998088Y-106693883D01*
X167918874Y-106538418D01*
X167816317Y-106397260D01*
X167816314Y-106397257D01*
X167816312Y-106397254D01*
X167692944Y-106273886D01*
X167692941Y-106273884D01*
X167692940Y-106273883D01*
X167692939Y-106273882D01*
X167620187Y-106221024D01*
X167576834Y-106164804D01*
X167570758Y-106094068D01*
X167603890Y-106031276D01*
X167620189Y-106017153D01*
X167692618Y-105964530D01*
X167815930Y-105841218D01*
X167815932Y-105841215D01*
X167918443Y-105700121D01*
X167997622Y-105544725D01*
X167997625Y-105544719D01*
X168051514Y-105378865D01*
X168052380Y-105373400D01*
X167089900Y-105373400D01*
X167141837Y-105283444D01*
X167170800Y-105175352D01*
X167170800Y-105063448D01*
X167141837Y-104955356D01*
X167127150Y-104929918D01*
X173137300Y-104929918D01*
X173137300Y-104929921D01*
X173137300Y-105108879D01*
X173164853Y-105247400D01*
X173172214Y-105284403D01*
X173189063Y-105325080D01*
X173240698Y-105449736D01*
X173340122Y-105598535D01*
X173466665Y-105725078D01*
X173615464Y-105824502D01*
X173780800Y-105892987D01*
X173956321Y-105927900D01*
X173956322Y-105927900D01*
X174135278Y-105927900D01*
X174135279Y-105927900D01*
X174310800Y-105892987D01*
X174476136Y-105824502D01*
X174624935Y-105725078D01*
X174751478Y-105598535D01*
X174850902Y-105449736D01*
X174919387Y-105284400D01*
X174954300Y-105108879D01*
X174954300Y-104929921D01*
X174919387Y-104754400D01*
X174850902Y-104589064D01*
X174751478Y-104440265D01*
X174624935Y-104313722D01*
X174476136Y-104214298D01*
X174358140Y-104165422D01*
X174310803Y-104145814D01*
X174310801Y-104145813D01*
X174310800Y-104145813D01*
X174222445Y-104128238D01*
X174135281Y-104110900D01*
X174135279Y-104110900D01*
X173956321Y-104110900D01*
X173956318Y-104110900D01*
X173825571Y-104136907D01*
X173780800Y-104145813D01*
X173780799Y-104145813D01*
X173780796Y-104145814D01*
X173649702Y-104200116D01*
X173623668Y-104210900D01*
X173615462Y-104214299D01*
X173466669Y-104313719D01*
X173466662Y-104313724D01*
X173340124Y-104440262D01*
X173340119Y-104440269D01*
X173240699Y-104589062D01*
X173172214Y-104754396D01*
X173137300Y-104929918D01*
X167127150Y-104929918D01*
X167089900Y-104865400D01*
X168052380Y-104865400D01*
X168051514Y-104859934D01*
X167997625Y-104694080D01*
X167997622Y-104694074D01*
X167918443Y-104538678D01*
X167815932Y-104397584D01*
X167815930Y-104397581D01*
X167692615Y-104274266D01*
X167620188Y-104221645D01*
X167576834Y-104165422D01*
X167570759Y-104094686D01*
X167603891Y-104031895D01*
X167620184Y-104017776D01*
X167692939Y-103964917D01*
X167816317Y-103841539D01*
X167918874Y-103700381D01*
X167998088Y-103544916D01*
X168052005Y-103378974D01*
X168079300Y-103206641D01*
X168079300Y-103032159D01*
X168052005Y-102859826D01*
X167998088Y-102693884D01*
X167918874Y-102538419D01*
X167816317Y-102397261D01*
X167816314Y-102397258D01*
X167816312Y-102397255D01*
X167692944Y-102273887D01*
X167692941Y-102273885D01*
X167692939Y-102273883D01*
X167620613Y-102221335D01*
X167577260Y-102165114D01*
X167571185Y-102094378D01*
X167604316Y-102031586D01*
X167620614Y-102017464D01*
X167692939Y-101964917D01*
X167816317Y-101841539D01*
X167918874Y-101700381D01*
X167998088Y-101544916D01*
X168002961Y-101529918D01*
X168837300Y-101529918D01*
X168837300Y-101529921D01*
X168837300Y-101708879D01*
X168863688Y-101841544D01*
X168872214Y-101884403D01*
X168892273Y-101932829D01*
X168940698Y-102049736D01*
X169040122Y-102198535D01*
X169166665Y-102325078D01*
X169315464Y-102424502D01*
X169480800Y-102492987D01*
X169656321Y-102527900D01*
X169656322Y-102527900D01*
X169835278Y-102527900D01*
X169835279Y-102527900D01*
X170010800Y-102492987D01*
X170176136Y-102424502D01*
X170324935Y-102325078D01*
X170451478Y-102198535D01*
X170550902Y-102049736D01*
X170619387Y-101884400D01*
X170654300Y-101708879D01*
X170654300Y-101529921D01*
X170619387Y-101354400D01*
X170550902Y-101189064D01*
X170451478Y-101040265D01*
X170324935Y-100913722D01*
X170176136Y-100814298D01*
X170059229Y-100765873D01*
X170010803Y-100745814D01*
X170010801Y-100745813D01*
X170010800Y-100745813D01*
X169922445Y-100728238D01*
X169835281Y-100710900D01*
X169835279Y-100710900D01*
X169656321Y-100710900D01*
X169656318Y-100710900D01*
X169525571Y-100736907D01*
X169480800Y-100745813D01*
X169480799Y-100745813D01*
X169480796Y-100745814D01*
X169315462Y-100814299D01*
X169166669Y-100913719D01*
X169166662Y-100913724D01*
X169040124Y-101040262D01*
X169040119Y-101040269D01*
X168940699Y-101189062D01*
X168872214Y-101354396D01*
X168837300Y-101529918D01*
X168002961Y-101529918D01*
X168052005Y-101378974D01*
X168079300Y-101206641D01*
X168079300Y-101032159D01*
X168052005Y-100859826D01*
X167998088Y-100693884D01*
X167918874Y-100538419D01*
X167816317Y-100397261D01*
X167816314Y-100397258D01*
X167816312Y-100397255D01*
X167692944Y-100273887D01*
X167692941Y-100273885D01*
X167692939Y-100273883D01*
X167551781Y-100171326D01*
X167396316Y-100092112D01*
X167396313Y-100092111D01*
X167396311Y-100092110D01*
X167230377Y-100038196D01*
X167230374Y-100038195D01*
X167058041Y-100010900D01*
X166433559Y-100010900D01*
X166261226Y-100038195D01*
X166261223Y-100038195D01*
X166261222Y-100038196D01*
X166095288Y-100092110D01*
X166095282Y-100092113D01*
X165939815Y-100171328D01*
X165819861Y-100258480D01*
X165752993Y-100282339D01*
X165683841Y-100266258D01*
X165671739Y-100258480D01*
X165551784Y-100171328D01*
X165551783Y-100171327D01*
X165551781Y-100171326D01*
X165396316Y-100092112D01*
X165396313Y-100092111D01*
X165396311Y-100092110D01*
X165230377Y-100038196D01*
X165230374Y-100038195D01*
X165058041Y-100010900D01*
X164433559Y-100010900D01*
X164261226Y-100038195D01*
X164261223Y-100038195D01*
X164261222Y-100038196D01*
X164095288Y-100092110D01*
X164095282Y-100092113D01*
X163939815Y-100171328D01*
X163798658Y-100273885D01*
X163798655Y-100273887D01*
X163675287Y-100397255D01*
X163675285Y-100397258D01*
X163572728Y-100538415D01*
X163493513Y-100693882D01*
X163493510Y-100693888D01*
X163454387Y-100814299D01*
X163439595Y-100859826D01*
X163412300Y-101032159D01*
X115746700Y-101032159D01*
X115746700Y-98529918D01*
X168837300Y-98529918D01*
X168837300Y-98529921D01*
X168837300Y-98708879D01*
X168872213Y-98884400D01*
X168940698Y-99049736D01*
X169040122Y-99198535D01*
X169166665Y-99325078D01*
X169315464Y-99424502D01*
X169480800Y-99492987D01*
X169656321Y-99527900D01*
X169656322Y-99527900D01*
X169835278Y-99527900D01*
X169835279Y-99527900D01*
X170010800Y-99492987D01*
X170176136Y-99424502D01*
X170324935Y-99325078D01*
X170451478Y-99198535D01*
X170550902Y-99049736D01*
X170619387Y-98884400D01*
X170654300Y-98708879D01*
X170654300Y-98529921D01*
X170619387Y-98354400D01*
X170550902Y-98189064D01*
X170451478Y-98040265D01*
X170324935Y-97913722D01*
X170176136Y-97814298D01*
X170059229Y-97765873D01*
X170010803Y-97745814D01*
X170010801Y-97745813D01*
X170010800Y-97745813D01*
X169922445Y-97728238D01*
X169835281Y-97710900D01*
X169835279Y-97710900D01*
X169656321Y-97710900D01*
X169656318Y-97710900D01*
X169525571Y-97736907D01*
X169480800Y-97745813D01*
X169480799Y-97745813D01*
X169480796Y-97745814D01*
X169315462Y-97814299D01*
X169166669Y-97913719D01*
X169166662Y-97913724D01*
X169040124Y-98040262D01*
X169040119Y-98040269D01*
X168940699Y-98189062D01*
X168872214Y-98354396D01*
X168837300Y-98529918D01*
X115746700Y-98529918D01*
X115746700Y-79575925D01*
X139485213Y-79575925D01*
X139485213Y-79936300D01*
X139525561Y-80294407D01*
X139528594Y-80307694D01*
X139605751Y-80645739D01*
X139605753Y-80645745D01*
X139605752Y-80645745D01*
X139724767Y-80985870D01*
X139724775Y-80985890D01*
X139881135Y-81310573D01*
X139881136Y-81310576D01*
X140072856Y-81615697D01*
X140072860Y-81615704D01*
X140297552Y-81897458D01*
X140552367Y-82152273D01*
X140834121Y-82376965D01*
X140834128Y-82376969D01*
X141139249Y-82568689D01*
X141139251Y-82568689D01*
X141139255Y-82568692D01*
X141463938Y-82725052D01*
X141463953Y-82725057D01*
X141463955Y-82725058D01*
X141804080Y-82844073D01*
X141804083Y-82844073D01*
X141804087Y-82844075D01*
X142155418Y-82924264D01*
X142155419Y-82924264D01*
X142155422Y-82924265D01*
X142366620Y-82948060D01*
X142513525Y-82964613D01*
X142513527Y-82964613D01*
X142873901Y-82964613D01*
X142964843Y-82954366D01*
X143232004Y-82924265D01*
X143583339Y-82844075D01*
X143923488Y-82725052D01*
X144248171Y-82568692D01*
X144553306Y-82376964D01*
X144835055Y-82152276D01*
X145089876Y-81897455D01*
X145314564Y-81615706D01*
X145506292Y-81310571D01*
X145662652Y-80985888D01*
X145781675Y-80645739D01*
X145861865Y-80294404D01*
X145902213Y-79936299D01*
X145902213Y-79589212D01*
X149007300Y-79589212D01*
X149007300Y-79949587D01*
X149047648Y-80307694D01*
X149089396Y-80490601D01*
X149127838Y-80659026D01*
X149127840Y-80659032D01*
X149127839Y-80659032D01*
X149246854Y-80999157D01*
X149246862Y-80999177D01*
X149403222Y-81323860D01*
X149403223Y-81323863D01*
X149594943Y-81628984D01*
X149594947Y-81628991D01*
X149819639Y-81910745D01*
X150074454Y-82165560D01*
X150356208Y-82390252D01*
X150356215Y-82390256D01*
X150661336Y-82581976D01*
X150661338Y-82581976D01*
X150661342Y-82581979D01*
X150986025Y-82738339D01*
X150986040Y-82738344D01*
X150986042Y-82738345D01*
X151326167Y-82857360D01*
X151326170Y-82857360D01*
X151326174Y-82857362D01*
X151677505Y-82937551D01*
X151677506Y-82937551D01*
X151677509Y-82937552D01*
X151888707Y-82961347D01*
X152035612Y-82977900D01*
X152035614Y-82977900D01*
X152395988Y-82977900D01*
X152486930Y-82967653D01*
X152754091Y-82937552D01*
X153105426Y-82857362D01*
X153445575Y-82738339D01*
X153770258Y-82581979D01*
X153791408Y-82568690D01*
X153824525Y-82547880D01*
X154075393Y-82390251D01*
X154357142Y-82165563D01*
X154611963Y-81910742D01*
X154836651Y-81628993D01*
X155028379Y-81323858D01*
X155184739Y-80999175D01*
X155303762Y-80659026D01*
X155383952Y-80307691D01*
X155424300Y-79949586D01*
X155424300Y-79589214D01*
X155383952Y-79231109D01*
X155303762Y-78879774D01*
X155299110Y-78866480D01*
X155184745Y-78539642D01*
X155184744Y-78539640D01*
X155184739Y-78539625D01*
X155028379Y-78214942D01*
X155028376Y-78214938D01*
X155028376Y-78214936D01*
X154836656Y-77909815D01*
X154836652Y-77909808D01*
X154611960Y-77628054D01*
X154357145Y-77373239D01*
X154075391Y-77148547D01*
X154075384Y-77148543D01*
X153770263Y-76956823D01*
X153770260Y-76956822D01*
X153742672Y-76943536D01*
X153445575Y-76800461D01*
X153445571Y-76800459D01*
X153445557Y-76800454D01*
X153105432Y-76681439D01*
X152754093Y-76601248D01*
X152754096Y-76601248D01*
X152395988Y-76560900D01*
X152395986Y-76560900D01*
X152035614Y-76560900D01*
X152035612Y-76560900D01*
X151677505Y-76601248D01*
X151326167Y-76681439D01*
X150986042Y-76800454D01*
X150986022Y-76800462D01*
X150661339Y-76956822D01*
X150661336Y-76956823D01*
X150356215Y-77148543D01*
X150356208Y-77148547D01*
X150074454Y-77373239D01*
X149819639Y-77628054D01*
X149594947Y-77909808D01*
X149594943Y-77909815D01*
X149403223Y-78214936D01*
X149403222Y-78214939D01*
X149246862Y-78539622D01*
X149246854Y-78539642D01*
X149127839Y-78879767D01*
X149047648Y-79231105D01*
X149007300Y-79589212D01*
X145902213Y-79589212D01*
X145902213Y-79575927D01*
X145861865Y-79217822D01*
X145781675Y-78866487D01*
X145662652Y-78526338D01*
X145506292Y-78201655D01*
X145506289Y-78201651D01*
X145506289Y-78201649D01*
X145314569Y-77896528D01*
X145314565Y-77896521D01*
X145089873Y-77614767D01*
X144835058Y-77359952D01*
X144553304Y-77135260D01*
X144553297Y-77135256D01*
X144248176Y-76943536D01*
X144248173Y-76943535D01*
X143923490Y-76787175D01*
X143923470Y-76787167D01*
X143583345Y-76668152D01*
X143232006Y-76587961D01*
X143232009Y-76587961D01*
X142873901Y-76547613D01*
X142873899Y-76547613D01*
X142513527Y-76547613D01*
X142513525Y-76547613D01*
X142155418Y-76587961D01*
X141804080Y-76668152D01*
X141463955Y-76787167D01*
X141463935Y-76787175D01*
X141139252Y-76943535D01*
X141139249Y-76943536D01*
X140834128Y-77135256D01*
X140834121Y-77135260D01*
X140552367Y-77359952D01*
X140297552Y-77614767D01*
X140072860Y-77896521D01*
X140072856Y-77896528D01*
X139881136Y-78201649D01*
X139881135Y-78201652D01*
X139724775Y-78526335D01*
X139724767Y-78526355D01*
X139605752Y-78866480D01*
X139525561Y-79217818D01*
X139485213Y-79575925D01*
X115746700Y-79575925D01*
X115746700Y-73043700D01*
X115766702Y-72975579D01*
X115820358Y-72929086D01*
X115872700Y-72917700D01*
X126086082Y-72917700D01*
X126159774Y-72887176D01*
X126216176Y-72830774D01*
X126246700Y-72757082D01*
X126246700Y-71212484D01*
X130522300Y-71212484D01*
X130522300Y-71426316D01*
X130544840Y-71568625D01*
X130555752Y-71637521D01*
X130587922Y-71736531D01*
X130621828Y-71840883D01*
X130718906Y-72031409D01*
X130844594Y-72204404D01*
X130844596Y-72204406D01*
X130844598Y-72204409D01*
X130995790Y-72355601D01*
X130995793Y-72355603D01*
X130995796Y-72355606D01*
X131168791Y-72481294D01*
X131359317Y-72578372D01*
X131562678Y-72644447D01*
X131562679Y-72644447D01*
X131562684Y-72644449D01*
X131773884Y-72677900D01*
X131773887Y-72677900D01*
X131987713Y-72677900D01*
X131987716Y-72677900D01*
X132198916Y-72644449D01*
X132402283Y-72578372D01*
X132592809Y-72481294D01*
X132765804Y-72355606D01*
X132868782Y-72252627D01*
X132931092Y-72218604D01*
X133001908Y-72223668D01*
X133058744Y-72266215D01*
X133075931Y-72297691D01*
X133119910Y-72415603D01*
X133119912Y-72415607D01*
X133207538Y-72532661D01*
X133324592Y-72620287D01*
X133324594Y-72620288D01*
X133324596Y-72620289D01*
X133356536Y-72632202D01*
X133461595Y-72671388D01*
X133461603Y-72671390D01*
X133522150Y-72677899D01*
X133522155Y-72677899D01*
X133522162Y-72677900D01*
X133522168Y-72677900D01*
X135319432Y-72677900D01*
X135319438Y-72677900D01*
X135319445Y-72677899D01*
X135319449Y-72677899D01*
X135379996Y-72671390D01*
X135379999Y-72671389D01*
X135380001Y-72671389D01*
X135517004Y-72620289D01*
X135572999Y-72578372D01*
X135634061Y-72532661D01*
X135721687Y-72415607D01*
X135721687Y-72415606D01*
X135721689Y-72415604D01*
X135772789Y-72278601D01*
X135775582Y-72252629D01*
X135779299Y-72218049D01*
X135779300Y-72218032D01*
X135779300Y-70420767D01*
X135779299Y-70420750D01*
X135772790Y-70360203D01*
X135772788Y-70360195D01*
X135739318Y-70270461D01*
X135721689Y-70223196D01*
X135721688Y-70223194D01*
X135721687Y-70223192D01*
X135634061Y-70106138D01*
X135517007Y-70018512D01*
X135517002Y-70018510D01*
X135380004Y-69967411D01*
X135379996Y-69967409D01*
X135319449Y-69960900D01*
X135319438Y-69960900D01*
X133522162Y-69960900D01*
X133522150Y-69960900D01*
X133461603Y-69967409D01*
X133461595Y-69967411D01*
X133324597Y-70018510D01*
X133324592Y-70018512D01*
X133207538Y-70106138D01*
X133119912Y-70223192D01*
X133119910Y-70223197D01*
X133075931Y-70341108D01*
X133033384Y-70397944D01*
X132966864Y-70422754D01*
X132897490Y-70407662D01*
X132868781Y-70386170D01*
X132765809Y-70283198D01*
X132765806Y-70283196D01*
X132765804Y-70283194D01*
X132592809Y-70157506D01*
X132402283Y-70060428D01*
X132402280Y-70060427D01*
X132402278Y-70060426D01*
X132198920Y-69994352D01*
X132198923Y-69994352D01*
X132159601Y-69988124D01*
X131987716Y-69960900D01*
X131773884Y-69960900D01*
X131562684Y-69994351D01*
X131562678Y-69994352D01*
X131359321Y-70060426D01*
X131359315Y-70060429D01*
X131168787Y-70157508D01*
X130995793Y-70283196D01*
X130995790Y-70283198D01*
X130844598Y-70434390D01*
X130844596Y-70434393D01*
X130718908Y-70607387D01*
X130621829Y-70797915D01*
X130621826Y-70797921D01*
X130555752Y-71001278D01*
X130555751Y-71001283D01*
X130555751Y-71001284D01*
X130522300Y-71212484D01*
X126246700Y-71212484D01*
X126246700Y-67512484D01*
X130522300Y-67512484D01*
X130522300Y-67726316D01*
X130555751Y-67937516D01*
X130555752Y-67937521D01*
X130621826Y-68140878D01*
X130621828Y-68140883D01*
X130718906Y-68331409D01*
X130718908Y-68331412D01*
X130737868Y-68357508D01*
X130844594Y-68504404D01*
X130844596Y-68504406D01*
X130844598Y-68504409D01*
X130995790Y-68655601D01*
X130995793Y-68655603D01*
X130995796Y-68655606D01*
X131168791Y-68781294D01*
X131359317Y-68878372D01*
X131562678Y-68944447D01*
X131562679Y-68944447D01*
X131562684Y-68944449D01*
X131773884Y-68977900D01*
X131773887Y-68977900D01*
X131987713Y-68977900D01*
X131987716Y-68977900D01*
X132198916Y-68944449D01*
X132402283Y-68878372D01*
X132592809Y-68781294D01*
X132765804Y-68655606D01*
X132868782Y-68552627D01*
X132931092Y-68518604D01*
X133001908Y-68523668D01*
X133058744Y-68566215D01*
X133075931Y-68597691D01*
X133119910Y-68715603D01*
X133119912Y-68715607D01*
X133207538Y-68832661D01*
X133324592Y-68920287D01*
X133324594Y-68920288D01*
X133324596Y-68920289D01*
X133383675Y-68942324D01*
X133461595Y-68971388D01*
X133461603Y-68971390D01*
X133522150Y-68977899D01*
X133522155Y-68977899D01*
X133522162Y-68977900D01*
X133522168Y-68977900D01*
X135319432Y-68977900D01*
X135319438Y-68977900D01*
X135319445Y-68977899D01*
X135319449Y-68977899D01*
X135379996Y-68971390D01*
X135379999Y-68971389D01*
X135380001Y-68971389D01*
X135517004Y-68920289D01*
X135525964Y-68913582D01*
X135634061Y-68832661D01*
X135721687Y-68715607D01*
X135721689Y-68715603D01*
X135744067Y-68655606D01*
X135757068Y-68620750D01*
X138812300Y-68620750D01*
X138812300Y-70418049D01*
X138818809Y-70478596D01*
X138818811Y-70478604D01*
X138869910Y-70615602D01*
X138869912Y-70615607D01*
X138957538Y-70732661D01*
X139074592Y-70820287D01*
X139074594Y-70820288D01*
X139074596Y-70820289D01*
X139092868Y-70827104D01*
X139211595Y-70871388D01*
X139211603Y-70871390D01*
X139272150Y-70877899D01*
X139272155Y-70877899D01*
X139272162Y-70877900D01*
X139272168Y-70877900D01*
X141069432Y-70877900D01*
X141069438Y-70877900D01*
X141069445Y-70877899D01*
X141069449Y-70877899D01*
X141129996Y-70871390D01*
X141129999Y-70871389D01*
X141130001Y-70871389D01*
X141267004Y-70820289D01*
X141296890Y-70797917D01*
X141384061Y-70732661D01*
X141471687Y-70615607D01*
X141471687Y-70615606D01*
X141471689Y-70615604D01*
X141515669Y-70497688D01*
X141558214Y-70440856D01*
X141624734Y-70416045D01*
X141694108Y-70431136D01*
X141722818Y-70452629D01*
X141825790Y-70555601D01*
X141825793Y-70555603D01*
X141825796Y-70555606D01*
X141998791Y-70681294D01*
X142189317Y-70778372D01*
X142392678Y-70844447D01*
X142392679Y-70844447D01*
X142392684Y-70844449D01*
X142603884Y-70877900D01*
X142603887Y-70877900D01*
X142817713Y-70877900D01*
X142817716Y-70877900D01*
X143028916Y-70844449D01*
X143232283Y-70778372D01*
X143422809Y-70681294D01*
X143595804Y-70555606D01*
X143747006Y-70404404D01*
X143872694Y-70231409D01*
X143969772Y-70040883D01*
X144002806Y-69939212D01*
X147067300Y-69939212D01*
X147067300Y-70299587D01*
X147107648Y-70657694D01*
X147144760Y-70820289D01*
X147187838Y-71009026D01*
X147187840Y-71009032D01*
X147187839Y-71009032D01*
X147306854Y-71349157D01*
X147306859Y-71349171D01*
X147306861Y-71349175D01*
X147445525Y-71637111D01*
X147463222Y-71673860D01*
X147463223Y-71673863D01*
X147654943Y-71978984D01*
X147654947Y-71978991D01*
X147879639Y-72260745D01*
X148134454Y-72515560D01*
X148416208Y-72740252D01*
X148416215Y-72740256D01*
X148721336Y-72931976D01*
X148721338Y-72931976D01*
X148721342Y-72931979D01*
X149046025Y-73088339D01*
X149046040Y-73088344D01*
X149046042Y-73088345D01*
X149386167Y-73207360D01*
X149386170Y-73207360D01*
X149386174Y-73207362D01*
X149737505Y-73287551D01*
X149737506Y-73287551D01*
X149737509Y-73287552D01*
X149948707Y-73311347D01*
X150095612Y-73327900D01*
X150095614Y-73327900D01*
X150455988Y-73327900D01*
X150546930Y-73317653D01*
X150814091Y-73287552D01*
X151165426Y-73207362D01*
X151505575Y-73088339D01*
X151566057Y-73059212D01*
X162627300Y-73059212D01*
X162627300Y-73419587D01*
X162667648Y-73777694D01*
X162695899Y-73901466D01*
X162747838Y-74129026D01*
X162747840Y-74129032D01*
X162747839Y-74129032D01*
X162866854Y-74469157D01*
X162866862Y-74469177D01*
X163023222Y-74793860D01*
X163023223Y-74793863D01*
X163214943Y-75098984D01*
X163214947Y-75098991D01*
X163439639Y-75380745D01*
X163694454Y-75635560D01*
X163976208Y-75860252D01*
X163976215Y-75860256D01*
X164281336Y-76051976D01*
X164281338Y-76051976D01*
X164281342Y-76051979D01*
X164606025Y-76208339D01*
X164606040Y-76208344D01*
X164606042Y-76208345D01*
X164946167Y-76327360D01*
X164946170Y-76327360D01*
X164946174Y-76327362D01*
X165297505Y-76407551D01*
X165297506Y-76407551D01*
X165297509Y-76407552D01*
X165508707Y-76431347D01*
X165655612Y-76447900D01*
X165655614Y-76447900D01*
X166015988Y-76447900D01*
X166106930Y-76437653D01*
X166374091Y-76407552D01*
X166725426Y-76327362D01*
X167065575Y-76208339D01*
X167390258Y-76051979D01*
X167695393Y-75860251D01*
X167977142Y-75635563D01*
X168231963Y-75380742D01*
X168456651Y-75098993D01*
X168648379Y-74793858D01*
X168804739Y-74469175D01*
X168923762Y-74129026D01*
X169003952Y-73777691D01*
X169044300Y-73419586D01*
X169044300Y-73059214D01*
X169042224Y-73040793D01*
X169028355Y-72917700D01*
X169003952Y-72701109D01*
X168923762Y-72349774D01*
X168915121Y-72325080D01*
X168804745Y-72009642D01*
X168804744Y-72009640D01*
X168804739Y-72009625D01*
X168648379Y-71684942D01*
X168648376Y-71684938D01*
X168648376Y-71684936D01*
X168456656Y-71379815D01*
X168456652Y-71379808D01*
X168231960Y-71098054D01*
X167977145Y-70843239D01*
X167695391Y-70618547D01*
X167695384Y-70618543D01*
X167390263Y-70426823D01*
X167390260Y-70426822D01*
X167377652Y-70420750D01*
X167065575Y-70270461D01*
X167065571Y-70270459D01*
X167065557Y-70270454D01*
X166725432Y-70151439D01*
X166374093Y-70071248D01*
X166374096Y-70071248D01*
X166015988Y-70030900D01*
X166015986Y-70030900D01*
X165655614Y-70030900D01*
X165655612Y-70030900D01*
X165297505Y-70071248D01*
X164946167Y-70151439D01*
X164606042Y-70270454D01*
X164606022Y-70270462D01*
X164281339Y-70426822D01*
X164281336Y-70426823D01*
X163976215Y-70618543D01*
X163976208Y-70618547D01*
X163694454Y-70843239D01*
X163439639Y-71098054D01*
X163214947Y-71379808D01*
X163214943Y-71379815D01*
X163023223Y-71684936D01*
X163023222Y-71684939D01*
X162866862Y-72009622D01*
X162866854Y-72009642D01*
X162747839Y-72349767D01*
X162667648Y-72701105D01*
X162627300Y-73059212D01*
X151566057Y-73059212D01*
X151830258Y-72931979D01*
X152135393Y-72740251D01*
X152417142Y-72515563D01*
X152671963Y-72260742D01*
X152896651Y-71978993D01*
X153066375Y-71708877D01*
X153088376Y-71673863D01*
X153088376Y-71673862D01*
X153088379Y-71673858D01*
X153244739Y-71349175D01*
X153363762Y-71009026D01*
X153443952Y-70657691D01*
X153484300Y-70299586D01*
X153484300Y-69939214D01*
X153443952Y-69581109D01*
X153363762Y-69229774D01*
X153363760Y-69229767D01*
X153348269Y-69185496D01*
X153335872Y-69150068D01*
X192237300Y-69150068D01*
X192237300Y-70448731D01*
X192258559Y-70555606D01*
X192276056Y-70643569D01*
X192352079Y-70827104D01*
X192386020Y-70877900D01*
X192462447Y-70992281D01*
X192463650Y-70993747D01*
X192464040Y-70994665D01*
X192465886Y-70997428D01*
X192465362Y-70997778D01*
X192491405Y-71059093D01*
X192479426Y-71129072D01*
X192471020Y-71143683D01*
X192440698Y-71189064D01*
X192372214Y-71354396D01*
X192372213Y-71354399D01*
X192372213Y-71354400D01*
X192367159Y-71379807D01*
X192337300Y-71529918D01*
X192337300Y-71529921D01*
X192337300Y-71708879D01*
X192372213Y-71884400D01*
X192440698Y-72049736D01*
X192540122Y-72198535D01*
X192666665Y-72325078D01*
X192815464Y-72424502D01*
X192980800Y-72492987D01*
X193156321Y-72527900D01*
X193156322Y-72527900D01*
X193335278Y-72527900D01*
X193335279Y-72527900D01*
X193510800Y-72492987D01*
X193676136Y-72424502D01*
X193783551Y-72352730D01*
X195660112Y-72352730D01*
X195660112Y-72531693D01*
X195674421Y-72603626D01*
X195695025Y-72707212D01*
X195763510Y-72872548D01*
X195862934Y-73021347D01*
X195929924Y-73088337D01*
X195968335Y-73126748D01*
X196002360Y-73189060D01*
X196002818Y-73240424D01*
X195974727Y-73381644D01*
X195974727Y-73381650D01*
X195974727Y-73560608D01*
X196009640Y-73736129D01*
X196078125Y-73901465D01*
X196177549Y-74050264D01*
X196304092Y-74176807D01*
X196452891Y-74276231D01*
X196618227Y-74344716D01*
X196793748Y-74379629D01*
X196793749Y-74379629D01*
X196972705Y-74379629D01*
X196972706Y-74379629D01*
X197148227Y-74344716D01*
X197313563Y-74276231D01*
X197462362Y-74176807D01*
X197588905Y-74050264D01*
X197688329Y-73901465D01*
X197756814Y-73736129D01*
X197791727Y-73560608D01*
X197791727Y-73381650D01*
X197756814Y-73206129D01*
X197688329Y-73040793D01*
X197588905Y-72891994D01*
X197483504Y-72786593D01*
X197449478Y-72724281D01*
X197449020Y-72672920D01*
X197477112Y-72531691D01*
X197477112Y-72352733D01*
X197442199Y-72177212D01*
X197442196Y-72177204D01*
X197398609Y-72071976D01*
X197398597Y-72071949D01*
X197381187Y-72029918D01*
X198337300Y-72029918D01*
X198337300Y-72208881D01*
X198346002Y-72252629D01*
X198372213Y-72384400D01*
X198440698Y-72549736D01*
X198540122Y-72698535D01*
X198666665Y-72825078D01*
X198815464Y-72924502D01*
X198980800Y-72992987D01*
X199156321Y-73027900D01*
X199156322Y-73027900D01*
X199335278Y-73027900D01*
X199335279Y-73027900D01*
X199510800Y-72992987D01*
X199676136Y-72924502D01*
X199824935Y-72825078D01*
X199906705Y-72743308D01*
X199969017Y-72709282D01*
X200039832Y-72714347D01*
X200084895Y-72743308D01*
X200166665Y-72825078D01*
X200315464Y-72924502D01*
X200480800Y-72992987D01*
X200656321Y-73027900D01*
X200656322Y-73027900D01*
X200835278Y-73027900D01*
X200835279Y-73027900D01*
X201010800Y-72992987D01*
X201176136Y-72924502D01*
X201324935Y-72825078D01*
X201451478Y-72698535D01*
X201550902Y-72549736D01*
X201619387Y-72384400D01*
X201654300Y-72208879D01*
X201654300Y-72029921D01*
X201619387Y-71854400D01*
X201550902Y-71689064D01*
X201451478Y-71540265D01*
X201422809Y-71511596D01*
X201388783Y-71449284D01*
X201393848Y-71378469D01*
X201436395Y-71321633D01*
X201502915Y-71296822D01*
X201560122Y-71306092D01*
X201591631Y-71319144D01*
X201786471Y-71357900D01*
X201786472Y-71357900D01*
X201985128Y-71357900D01*
X201985129Y-71357900D01*
X202179969Y-71319144D01*
X202363504Y-71243121D01*
X202528681Y-71132753D01*
X202669153Y-70992281D01*
X202779521Y-70827104D01*
X202855544Y-70643569D01*
X202894300Y-70448729D01*
X202894300Y-69150071D01*
X202855544Y-68955231D01*
X202779521Y-68771696D01*
X202669153Y-68606519D01*
X202528681Y-68466047D01*
X202363504Y-68355679D01*
X202179969Y-68279656D01*
X201985131Y-68240900D01*
X201985129Y-68240900D01*
X201786471Y-68240900D01*
X201786468Y-68240900D01*
X201591630Y-68279656D01*
X201591625Y-68279658D01*
X201408096Y-68355679D01*
X201242923Y-68466044D01*
X201242916Y-68466049D01*
X201102449Y-68606516D01*
X201102444Y-68606523D01*
X200990642Y-68773846D01*
X200936165Y-68819374D01*
X200865722Y-68828222D01*
X200819633Y-68808323D01*
X200818773Y-68809814D01*
X200679482Y-68729394D01*
X200679480Y-68729393D01*
X200679478Y-68729392D01*
X200532093Y-68689900D01*
X200379507Y-68689900D01*
X200232122Y-68729392D01*
X200232117Y-68729394D01*
X200099982Y-68805682D01*
X200099972Y-68805690D01*
X199992090Y-68913572D01*
X199992082Y-68913582D01*
X199915794Y-69045717D01*
X199915792Y-69045722D01*
X199876300Y-69193107D01*
X199876300Y-69345693D01*
X199894197Y-69412484D01*
X199915792Y-69493077D01*
X199915794Y-69493082D01*
X199992082Y-69625217D01*
X199992090Y-69625227D01*
X200099972Y-69733109D01*
X200099977Y-69733113D01*
X200099979Y-69733115D01*
X200232122Y-69809408D01*
X200379507Y-69848900D01*
X200379510Y-69848900D01*
X200532090Y-69848900D01*
X200532093Y-69848900D01*
X200679478Y-69809408D01*
X200688300Y-69804314D01*
X200757293Y-69787576D01*
X200824385Y-69810795D01*
X200868273Y-69866601D01*
X200877300Y-69913433D01*
X200877300Y-70448731D01*
X200898559Y-70555606D01*
X200916056Y-70643569D01*
X200992079Y-70827104D01*
X201102447Y-70992281D01*
X201102449Y-70992283D01*
X201152144Y-71041978D01*
X201186170Y-71104290D01*
X201181105Y-71175105D01*
X201138558Y-71231941D01*
X201072038Y-71256752D01*
X201014833Y-71247483D01*
X201010804Y-71245814D01*
X201010800Y-71245813D01*
X200941060Y-71231941D01*
X200835281Y-71210900D01*
X200835279Y-71210900D01*
X200656321Y-71210900D01*
X200656318Y-71210900D01*
X200525571Y-71236907D01*
X200480800Y-71245813D01*
X200480799Y-71245813D01*
X200480796Y-71245814D01*
X200357654Y-71296822D01*
X200335273Y-71306093D01*
X200315462Y-71314299D01*
X200166669Y-71413719D01*
X200166667Y-71413720D01*
X200084895Y-71495492D01*
X200022583Y-71529517D01*
X199951767Y-71524451D01*
X199906705Y-71495492D01*
X199824935Y-71413722D01*
X199676136Y-71314298D01*
X199514832Y-71247483D01*
X199510803Y-71245814D01*
X199510801Y-71245813D01*
X199510800Y-71245813D01*
X199422445Y-71228238D01*
X199335281Y-71210900D01*
X199335279Y-71210900D01*
X199156321Y-71210900D01*
X199156318Y-71210900D01*
X199025571Y-71236907D01*
X198980800Y-71245813D01*
X198980799Y-71245813D01*
X198980796Y-71245814D01*
X198857654Y-71296822D01*
X198835273Y-71306093D01*
X198815462Y-71314299D01*
X198666669Y-71413719D01*
X198666662Y-71413724D01*
X198540124Y-71540262D01*
X198540119Y-71540269D01*
X198475138Y-71637521D01*
X198440698Y-71689064D01*
X198426516Y-71723302D01*
X198372214Y-71854396D01*
X198337300Y-72029918D01*
X197381187Y-72029918D01*
X197373714Y-72011876D01*
X197274290Y-71863077D01*
X197147747Y-71736534D01*
X196998948Y-71637110D01*
X196882041Y-71588685D01*
X196833615Y-71568626D01*
X196833613Y-71568625D01*
X196833612Y-71568625D01*
X196745257Y-71551050D01*
X196658093Y-71533712D01*
X196658091Y-71533712D01*
X196479133Y-71533712D01*
X196479130Y-71533712D01*
X196348383Y-71559719D01*
X196303612Y-71568625D01*
X196303611Y-71568625D01*
X196303608Y-71568626D01*
X196138274Y-71637111D01*
X195989481Y-71736531D01*
X195989474Y-71736536D01*
X195862936Y-71863074D01*
X195862931Y-71863081D01*
X195765003Y-72009642D01*
X195763510Y-72011876D01*
X195756035Y-72029922D01*
X195695026Y-72177208D01*
X195695025Y-72177211D01*
X195695025Y-72177212D01*
X195688726Y-72208879D01*
X195660112Y-72352730D01*
X193783551Y-72352730D01*
X193824935Y-72325078D01*
X193951478Y-72198535D01*
X194050902Y-72049736D01*
X194119387Y-71884400D01*
X194154300Y-71708879D01*
X194154300Y-71529921D01*
X194119387Y-71354400D01*
X194050902Y-71189064D01*
X194020580Y-71143684D01*
X193999366Y-71075933D01*
X194018149Y-71007466D01*
X194027950Y-70993746D01*
X194029146Y-70992287D01*
X194029153Y-70992281D01*
X194139521Y-70827104D01*
X194215544Y-70643569D01*
X194254300Y-70448729D01*
X194254300Y-69913433D01*
X194274302Y-69845312D01*
X194327958Y-69798819D01*
X194398232Y-69788715D01*
X194443298Y-69804313D01*
X194452122Y-69809408D01*
X194599507Y-69848900D01*
X194599510Y-69848900D01*
X194752090Y-69848900D01*
X194752093Y-69848900D01*
X194899478Y-69809408D01*
X195031621Y-69733115D01*
X195139080Y-69625655D01*
X195201390Y-69591632D01*
X195272206Y-69596696D01*
X195329042Y-69639243D01*
X195351753Y-69690171D01*
X195356211Y-69712587D01*
X195387745Y-69788715D01*
X195424696Y-69877921D01*
X195524120Y-70026720D01*
X195650663Y-70153263D01*
X195799462Y-70252687D01*
X195964798Y-70321172D01*
X196140319Y-70356085D01*
X196140320Y-70356085D01*
X196319276Y-70356085D01*
X196319277Y-70356085D01*
X196494798Y-70321172D01*
X196660134Y-70252687D01*
X196808933Y-70153263D01*
X196935476Y-70026720D01*
X197034900Y-69877921D01*
X197103385Y-69712585D01*
X197138298Y-69537064D01*
X197138298Y-69358106D01*
X197103385Y-69182585D01*
X197034900Y-69017249D01*
X196935476Y-68868450D01*
X196808933Y-68741907D01*
X196660134Y-68642483D01*
X196505911Y-68578601D01*
X196494801Y-68573999D01*
X196494799Y-68573998D01*
X196494798Y-68573998D01*
X196387368Y-68552629D01*
X196319279Y-68539085D01*
X196319277Y-68539085D01*
X196140319Y-68539085D01*
X196140316Y-68539085D01*
X196010356Y-68564936D01*
X195964798Y-68573998D01*
X195964797Y-68573998D01*
X195964794Y-68573999D01*
X195799460Y-68642484D01*
X195650667Y-68741904D01*
X195650660Y-68741909D01*
X195524122Y-68868447D01*
X195524117Y-68868454D01*
X195424692Y-69017254D01*
X195423246Y-69019960D01*
X195422116Y-69021109D01*
X195421257Y-69022396D01*
X195421012Y-69022232D01*
X195373490Y-69070604D01*
X195304252Y-69086309D01*
X195237515Y-69062087D01*
X195203010Y-69023555D01*
X195139517Y-68913582D01*
X195139509Y-68913572D01*
X195031627Y-68805690D01*
X195031617Y-68805682D01*
X194899482Y-68729394D01*
X194899480Y-68729393D01*
X194899478Y-68729392D01*
X194752093Y-68689900D01*
X194599507Y-68689900D01*
X194452122Y-68729392D01*
X194452117Y-68729394D01*
X194312827Y-68809814D01*
X194311744Y-68807939D01*
X194256189Y-68829409D01*
X194186642Y-68815134D01*
X194140957Y-68773846D01*
X194139521Y-68771698D01*
X194139521Y-68771696D01*
X194029153Y-68606519D01*
X193888681Y-68466047D01*
X193723504Y-68355679D01*
X193539969Y-68279656D01*
X193345131Y-68240900D01*
X193345129Y-68240900D01*
X193146471Y-68240900D01*
X193146468Y-68240900D01*
X192951630Y-68279656D01*
X192951625Y-68279658D01*
X192768096Y-68355679D01*
X192602923Y-68466044D01*
X192602916Y-68466049D01*
X192462449Y-68606516D01*
X192462444Y-68606523D01*
X192352079Y-68771696D01*
X192276058Y-68955225D01*
X192276056Y-68955230D01*
X192237300Y-69150068D01*
X153335872Y-69150068D01*
X153244745Y-68889642D01*
X153244744Y-68889640D01*
X153244739Y-68889625D01*
X153088379Y-68564942D01*
X153088376Y-68564938D01*
X153088376Y-68564936D01*
X152896656Y-68259815D01*
X152896652Y-68259808D01*
X152671960Y-67978054D01*
X152417145Y-67723239D01*
X152135391Y-67498547D01*
X152135384Y-67498543D01*
X151830263Y-67306823D01*
X151830260Y-67306822D01*
X151505577Y-67150462D01*
X151505557Y-67150454D01*
X151165432Y-67031439D01*
X150814093Y-66951248D01*
X150814096Y-66951248D01*
X150455988Y-66910900D01*
X150455986Y-66910900D01*
X150095614Y-66910900D01*
X150095612Y-66910900D01*
X149737505Y-66951248D01*
X149386167Y-67031439D01*
X149046042Y-67150454D01*
X149046022Y-67150462D01*
X148721339Y-67306822D01*
X148721336Y-67306823D01*
X148416215Y-67498543D01*
X148416208Y-67498547D01*
X148134454Y-67723239D01*
X147879639Y-67978054D01*
X147654947Y-68259808D01*
X147654943Y-68259815D01*
X147463223Y-68564936D01*
X147463222Y-68564939D01*
X147306862Y-68889622D01*
X147306854Y-68889642D01*
X147187839Y-69229767D01*
X147107648Y-69581105D01*
X147067300Y-69939212D01*
X144002806Y-69939212D01*
X144035849Y-69837516D01*
X144069300Y-69626316D01*
X144069300Y-69412484D01*
X144035849Y-69201284D01*
X143969772Y-68997917D01*
X143872694Y-68807391D01*
X143747006Y-68634396D01*
X143747003Y-68634393D01*
X143747001Y-68634390D01*
X143595809Y-68483198D01*
X143595806Y-68483196D01*
X143595804Y-68483194D01*
X143422809Y-68357506D01*
X143232283Y-68260428D01*
X143232280Y-68260427D01*
X143232278Y-68260426D01*
X143028920Y-68194352D01*
X143028923Y-68194352D01*
X142989601Y-68188124D01*
X142817716Y-68160900D01*
X142603884Y-68160900D01*
X142392684Y-68194351D01*
X142392678Y-68194352D01*
X142189321Y-68260426D01*
X142189315Y-68260429D01*
X141998787Y-68357508D01*
X141825795Y-68483194D01*
X141722818Y-68586171D01*
X141660506Y-68620196D01*
X141589690Y-68615130D01*
X141532854Y-68572584D01*
X141515671Y-68541115D01*
X141471689Y-68423196D01*
X141471686Y-68423192D01*
X141471686Y-68423191D01*
X141384061Y-68306138D01*
X141267007Y-68218512D01*
X141267002Y-68218510D01*
X141130004Y-68167411D01*
X141129996Y-68167409D01*
X141069449Y-68160900D01*
X141069438Y-68160900D01*
X139272162Y-68160900D01*
X139272150Y-68160900D01*
X139211603Y-68167409D01*
X139211595Y-68167411D01*
X139074597Y-68218510D01*
X139074592Y-68218512D01*
X138957538Y-68306138D01*
X138869912Y-68423192D01*
X138869910Y-68423197D01*
X138818811Y-68560195D01*
X138818809Y-68560203D01*
X138812300Y-68620750D01*
X135757068Y-68620750D01*
X135772789Y-68578601D01*
X135774258Y-68564942D01*
X135779299Y-68518049D01*
X135779300Y-68518032D01*
X135779300Y-66720767D01*
X135779299Y-66720750D01*
X135772790Y-66660203D01*
X135772788Y-66660195D01*
X135721689Y-66523197D01*
X135721687Y-66523192D01*
X135634061Y-66406138D01*
X135517007Y-66318512D01*
X135517002Y-66318510D01*
X135380004Y-66267411D01*
X135379996Y-66267409D01*
X135319449Y-66260900D01*
X135319438Y-66260900D01*
X133522162Y-66260900D01*
X133522150Y-66260900D01*
X133461603Y-66267409D01*
X133461595Y-66267411D01*
X133324597Y-66318510D01*
X133324592Y-66318512D01*
X133207538Y-66406138D01*
X133119912Y-66523192D01*
X133119910Y-66523197D01*
X133075931Y-66641108D01*
X133033384Y-66697944D01*
X132966864Y-66722754D01*
X132897490Y-66707662D01*
X132868781Y-66686170D01*
X132765809Y-66583198D01*
X132765806Y-66583196D01*
X132765804Y-66583194D01*
X132592809Y-66457506D01*
X132402283Y-66360428D01*
X132402280Y-66360427D01*
X132402278Y-66360426D01*
X132198920Y-66294352D01*
X132198923Y-66294352D01*
X132159601Y-66288124D01*
X131987716Y-66260900D01*
X131773884Y-66260900D01*
X131562684Y-66294351D01*
X131562678Y-66294352D01*
X131359321Y-66360426D01*
X131359315Y-66360429D01*
X131168787Y-66457508D01*
X130995793Y-66583196D01*
X130995790Y-66583198D01*
X130844598Y-66734390D01*
X130844596Y-66734393D01*
X130718908Y-66907387D01*
X130621829Y-67097915D01*
X130621826Y-67097921D01*
X130555752Y-67301278D01*
X130555751Y-67301283D01*
X130555751Y-67301284D01*
X130522300Y-67512484D01*
X126246700Y-67512484D01*
X126246700Y-65220068D01*
X192237300Y-65220068D01*
X192237300Y-65220071D01*
X192237300Y-66018729D01*
X192276056Y-66213569D01*
X192352079Y-66397104D01*
X192462447Y-66562281D01*
X192602919Y-66702753D01*
X192768096Y-66813121D01*
X192951631Y-66889144D01*
X193146471Y-66927900D01*
X193146472Y-66927900D01*
X193345128Y-66927900D01*
X193345129Y-66927900D01*
X193539969Y-66889144D01*
X193723504Y-66813121D01*
X193888681Y-66702753D01*
X194029153Y-66562281D01*
X194139521Y-66397104D01*
X194215544Y-66213569D01*
X194254300Y-66018729D01*
X194254300Y-65220071D01*
X194254299Y-65220068D01*
X200877300Y-65220068D01*
X200877300Y-65220071D01*
X200877300Y-66018729D01*
X200916056Y-66213569D01*
X200992079Y-66397104D01*
X201102447Y-66562281D01*
X201242919Y-66702753D01*
X201408096Y-66813121D01*
X201591631Y-66889144D01*
X201786471Y-66927900D01*
X201786472Y-66927900D01*
X201985128Y-66927900D01*
X201985129Y-66927900D01*
X202179969Y-66889144D01*
X202363504Y-66813121D01*
X202528681Y-66702753D01*
X202669153Y-66562281D01*
X202779521Y-66397104D01*
X202855544Y-66213569D01*
X202894300Y-66018729D01*
X202894300Y-65220071D01*
X202855544Y-65025231D01*
X202779521Y-64841696D01*
X202669153Y-64676519D01*
X202528681Y-64536047D01*
X202363504Y-64425679D01*
X202179969Y-64349656D01*
X201985131Y-64310900D01*
X201985129Y-64310900D01*
X201786471Y-64310900D01*
X201786468Y-64310900D01*
X201591630Y-64349656D01*
X201591625Y-64349658D01*
X201408096Y-64425679D01*
X201242923Y-64536044D01*
X201242916Y-64536049D01*
X201102449Y-64676516D01*
X201102444Y-64676523D01*
X200992079Y-64841696D01*
X200916058Y-65025225D01*
X200916056Y-65025230D01*
X200877300Y-65220068D01*
X194254299Y-65220068D01*
X194215544Y-65025231D01*
X194139521Y-64841696D01*
X194029153Y-64676519D01*
X193888681Y-64536047D01*
X193723504Y-64425679D01*
X193539969Y-64349656D01*
X193345131Y-64310900D01*
X193345129Y-64310900D01*
X193146471Y-64310900D01*
X193146468Y-64310900D01*
X192951630Y-64349656D01*
X192951625Y-64349658D01*
X192768096Y-64425679D01*
X192602923Y-64536044D01*
X192602916Y-64536049D01*
X192462449Y-64676516D01*
X192462444Y-64676523D01*
X192352079Y-64841696D01*
X192276058Y-65025225D01*
X192276056Y-65025230D01*
X192237300Y-65220068D01*
X126246700Y-65220068D01*
X126246700Y-62543700D01*
X126266702Y-62475579D01*
X126320358Y-62429086D01*
X126372700Y-62417700D01*
X140574949Y-62417700D01*
X140597395Y-62419907D01*
G37*
%TD.AperFunction*%
%TD*%
M02*
