%TF.GenerationSoftware,KiCad,Pcbnew,8.0.2-1*%
%TF.CreationDate,2024-06-23T19:16:47-07:00*%
%TF.ProjectId,antenna_top_cap_v2,616e7465-6e6e-4615-9f74-6f705f636170,rev?*%
%TF.SameCoordinates,Original*%
%TF.FileFunction,Copper,L4,Bot*%
%TF.FilePolarity,Positive*%
%FSLAX46Y46*%
G04 Gerber Fmt 4.6, Leading zero omitted, Abs format (unit mm)*
G04 Created by KiCad (PCBNEW 8.0.2-1) date 2024-06-23 19:16:47*
%MOMM*%
%LPD*%
G01*
G04 APERTURE LIST*
%TA.AperFunction,NonConductor*%
%ADD10C,0.200000*%
%TD*%
%ADD11C,0.500000*%
%TA.AperFunction,NonConductor*%
%ADD12C,0.500000*%
%TD*%
%TA.AperFunction,EtchedComponent*%
%ADD13C,0.000000*%
%TD*%
%TA.AperFunction,ComponentPad*%
%ADD14O,1.700000X1.700000*%
%TD*%
%TA.AperFunction,ComponentPad*%
%ADD15R,1.700000X1.700000*%
%TD*%
%TA.AperFunction,ComponentPad*%
%ADD16C,5.400000*%
%TD*%
%TA.AperFunction,ComponentPad*%
%ADD17C,2.050000*%
%TD*%
%TA.AperFunction,ComponentPad*%
%ADD18C,2.250000*%
%TD*%
%TA.AperFunction,SMDPad,CuDef*%
%ADD19R,1.380000X0.450000*%
%TD*%
%TA.AperFunction,ComponentPad*%
%ADD20O,2.416000X1.208000*%
%TD*%
%TA.AperFunction,SMDPad,CuDef*%
%ADD21R,2.100000X1.475000*%
%TD*%
%TA.AperFunction,SMDPad,CuDef*%
%ADD22R,1.900000X1.375000*%
%TD*%
%TA.AperFunction,SMDPad,CuDef*%
%ADD23R,1.000000X0.500000*%
%TD*%
%TA.AperFunction,ViaPad*%
%ADD24C,0.800000*%
%TD*%
%TA.AperFunction,Conductor*%
%ADD25C,0.200000*%
%TD*%
%TA.AperFunction,Conductor*%
%ADD26C,0.250000*%
%TD*%
%TA.AperFunction,Conductor*%
%ADD27C,0.300000*%
%TD*%
%TA.AperFunction,Conductor*%
%ADD28C,0.254000*%
%TD*%
G04 APERTURE END LIST*
D10*
X154775800Y-156309400D02*
X157475800Y-156309400D01*
X156625800Y-154459400D02*
X157475800Y-153609400D01*
X153925800Y-154459400D02*
X154775800Y-153609400D01*
X157455800Y-152719400D02*
X155975800Y-154199400D01*
X154775800Y-153609400D02*
X154775800Y-156309400D01*
X157475800Y-156309400D02*
X156625800Y-157159400D01*
X153925800Y-154459400D02*
X153925800Y-157159400D01*
X156625800Y-154459400D02*
X153925800Y-154459400D01*
X157475800Y-153609400D02*
X157475800Y-156309400D01*
X153925800Y-157159400D02*
X154775800Y-156309400D01*
X153925800Y-157159400D02*
X156625800Y-157159400D01*
X157475800Y-153609400D02*
X154775800Y-153609400D01*
X156625800Y-157159400D02*
X156625800Y-154459400D01*
X153825800Y-152709400D02*
X155295800Y-154179400D01*
D11*
D12*
X133127228Y-152439114D02*
X133031990Y-152343876D01*
X133031990Y-152343876D02*
X132841514Y-152248638D01*
X132841514Y-152248638D02*
X132365323Y-152248638D01*
X132365323Y-152248638D02*
X132174847Y-152343876D01*
X132174847Y-152343876D02*
X132079609Y-152439114D01*
X132079609Y-152439114D02*
X131984371Y-152629590D01*
X131984371Y-152629590D02*
X131984371Y-152820066D01*
X131984371Y-152820066D02*
X132079609Y-153105780D01*
X132079609Y-153105780D02*
X133222466Y-154248638D01*
X133222466Y-154248638D02*
X131984371Y-154248638D01*
D11*
D12*
X141253040Y-153625791D02*
X139395897Y-153625791D01*
X139395897Y-153625791D02*
X140395897Y-154768648D01*
X140395897Y-154768648D02*
X139967326Y-154768648D01*
X139967326Y-154768648D02*
X139681612Y-154911505D01*
X139681612Y-154911505D02*
X139538754Y-155054362D01*
X139538754Y-155054362D02*
X139395897Y-155340076D01*
X139395897Y-155340076D02*
X139395897Y-156054362D01*
X139395897Y-156054362D02*
X139538754Y-156340076D01*
X139538754Y-156340076D02*
X139681612Y-156482934D01*
X139681612Y-156482934D02*
X139967326Y-156625791D01*
X139967326Y-156625791D02*
X140824469Y-156625791D01*
X140824469Y-156625791D02*
X141110183Y-156482934D01*
X141110183Y-156482934D02*
X141253040Y-156340076D01*
X138110183Y-156625791D02*
X138110183Y-153625791D01*
X138110183Y-153625791D02*
X136967326Y-153625791D01*
X136967326Y-153625791D02*
X136681611Y-153768648D01*
X136681611Y-153768648D02*
X136538754Y-153911505D01*
X136538754Y-153911505D02*
X136395897Y-154197219D01*
X136395897Y-154197219D02*
X136395897Y-154625791D01*
X136395897Y-154625791D02*
X136538754Y-154911505D01*
X136538754Y-154911505D02*
X136681611Y-155054362D01*
X136681611Y-155054362D02*
X136967326Y-155197219D01*
X136967326Y-155197219D02*
X138110183Y-155197219D01*
X135395897Y-154625791D02*
X134681611Y-156625791D01*
X133967326Y-154625791D02*
X134681611Y-156625791D01*
X134681611Y-156625791D02*
X134967326Y-157340076D01*
X134967326Y-157340076D02*
X135110183Y-157482934D01*
X135110183Y-157482934D02*
X135395897Y-157625791D01*
D13*
%TA.AperFunction,EtchedComponent*%
%TO.C,G\u002A\u002A\u002A*%
G36*
X148667444Y-153275066D02*
G01*
X148670426Y-153423965D01*
X148677741Y-153842151D01*
X147956191Y-153848042D01*
X147234640Y-153853934D01*
X147234640Y-154032493D01*
X149488946Y-154054813D01*
X149616573Y-154114631D01*
X149668782Y-154141244D01*
X149827766Y-154254087D01*
X149959624Y-154401176D01*
X150062753Y-154580425D01*
X150135550Y-154789748D01*
X150195074Y-155076325D01*
X150226572Y-155401319D01*
X150217591Y-155725680D01*
X150168369Y-156058662D01*
X150119311Y-156261849D01*
X150046321Y-156470711D01*
X149957242Y-156640618D01*
X149850780Y-156773499D01*
X149725644Y-156871284D01*
X149580540Y-156935900D01*
X149534147Y-156945766D01*
X149441770Y-156956100D01*
X149321305Y-156963099D01*
X149182048Y-156966061D01*
X148875150Y-156967554D01*
X148875150Y-156603966D01*
X148874248Y-156487200D01*
X148868203Y-156324738D01*
X148855272Y-156192671D01*
X148834060Y-156082278D01*
X148803173Y-155984836D01*
X148761215Y-155891622D01*
X148755840Y-155881416D01*
X148679062Y-155770943D01*
X148573045Y-155660862D01*
X148450281Y-155562689D01*
X148323265Y-155487940D01*
X148172075Y-155416324D01*
X147256960Y-155405164D01*
X147047587Y-155402566D01*
X146858349Y-155399969D01*
X146705023Y-155397339D01*
X146583060Y-155394395D01*
X146487912Y-155390857D01*
X146415033Y-155386442D01*
X146359873Y-155380870D01*
X146317885Y-155373859D01*
X146284522Y-155365129D01*
X146255234Y-155354397D01*
X146225476Y-155341384D01*
X146134572Y-155288189D01*
X146023769Y-155194366D01*
X145926112Y-155081687D01*
X145854810Y-154963615D01*
X145848283Y-154949234D01*
X145837156Y-154921608D01*
X145828183Y-154891143D01*
X145821133Y-154853193D01*
X145815774Y-154803115D01*
X145811874Y-154736263D01*
X145809203Y-154647994D01*
X145807529Y-154533663D01*
X145806619Y-154388625D01*
X145806243Y-154208237D01*
X145806169Y-153987853D01*
X145806169Y-153152776D01*
X147786750Y-153152776D01*
X147787667Y-153248469D01*
X147826689Y-153347500D01*
X147830129Y-153352900D01*
X147884025Y-153411639D01*
X147948648Y-153453519D01*
X148002626Y-153472415D01*
X148095765Y-153480652D01*
X148178069Y-153448686D01*
X148257594Y-153374454D01*
X148266113Y-153364102D01*
X148304007Y-153304495D01*
X148319408Y-153239694D01*
X148317352Y-153150858D01*
X148309546Y-153103640D01*
X148272230Y-153031063D01*
X148198550Y-152971188D01*
X148138108Y-152942599D01*
X148040914Y-152928081D01*
X147951020Y-152948074D01*
X147874587Y-152996344D01*
X147817777Y-153066657D01*
X147786750Y-153152776D01*
X145806169Y-153152776D01*
X145806169Y-153117378D01*
X145860800Y-153006361D01*
X145870345Y-152987747D01*
X145967922Y-152848137D01*
X146098511Y-152727265D01*
X146252515Y-152634249D01*
X146337182Y-152598994D01*
X146466685Y-152559735D01*
X146616295Y-152530624D01*
X146792016Y-152510825D01*
X146999850Y-152499499D01*
X147245800Y-152495811D01*
X147315625Y-152496109D01*
X147617391Y-152506560D01*
X147878381Y-152532179D01*
X148099711Y-152573296D01*
X148282492Y-152630238D01*
X148427840Y-152703336D01*
X148536866Y-152792918D01*
X148610685Y-152899314D01*
X148626114Y-152932487D01*
X148640805Y-152972907D01*
X148651413Y-153019727D01*
X148658808Y-153080595D01*
X148663861Y-153163159D01*
X148666311Y-153239694D01*
X148667444Y-153275066D01*
G37*
%TD.AperFunction*%
%TA.AperFunction,EtchedComponent*%
G36*
X148666246Y-157772550D02*
G01*
X148661342Y-157827818D01*
X148654697Y-157869518D01*
X148646046Y-157902454D01*
X148635121Y-157931427D01*
X148621656Y-157961241D01*
X148557710Y-158063044D01*
X148460150Y-158169365D01*
X148342741Y-158265040D01*
X148217401Y-158338934D01*
X148124050Y-158377818D01*
X147989504Y-158424135D01*
X147841324Y-158467695D01*
X147695855Y-158503743D01*
X147569438Y-158527523D01*
X147560904Y-158528733D01*
X147333112Y-158547524D01*
X147099312Y-158543036D01*
X146866543Y-158517031D01*
X146641847Y-158471271D01*
X146432264Y-158407517D01*
X146244836Y-158327532D01*
X146086603Y-158233078D01*
X145964606Y-158125917D01*
X145959318Y-158119997D01*
X145899770Y-158045235D01*
X145856077Y-157968957D01*
X145825997Y-157882589D01*
X145816980Y-157831966D01*
X146156990Y-157831966D01*
X146180025Y-157919538D01*
X146233541Y-157995586D01*
X146319298Y-158051411D01*
X146350673Y-158063320D01*
X146448731Y-158079768D01*
X146534430Y-158055598D01*
X146615797Y-157989123D01*
X146646668Y-157949824D01*
X146686029Y-157856863D01*
X146690100Y-157761065D01*
X146662492Y-157671232D01*
X146606814Y-157596166D01*
X146526676Y-157544672D01*
X146425689Y-157525551D01*
X146334453Y-157540453D01*
X146253167Y-157587114D01*
X146195321Y-157657054D01*
X146162675Y-157741571D01*
X146156990Y-157831966D01*
X145816980Y-157831966D01*
X145807287Y-157777552D01*
X145797705Y-157645271D01*
X145795009Y-157477169D01*
X145795009Y-157169051D01*
X146514825Y-157163162D01*
X147234640Y-157157273D01*
X147241504Y-157062414D01*
X147248367Y-156967554D01*
X146112822Y-156967554D01*
X146039955Y-156967553D01*
X145777151Y-156967419D01*
X145554209Y-156966742D01*
X145367314Y-156965081D01*
X145212648Y-156961994D01*
X145086396Y-156957038D01*
X144984740Y-156949772D01*
X144903865Y-156939753D01*
X144839953Y-156926539D01*
X144789189Y-156909688D01*
X144747756Y-156888758D01*
X144711837Y-156863306D01*
X144677616Y-156832890D01*
X144641276Y-156797069D01*
X144595466Y-156745763D01*
X144504067Y-156608677D01*
X144422213Y-156439860D01*
X144352363Y-156247808D01*
X144296974Y-156041020D01*
X144258504Y-155827994D01*
X144239412Y-155617225D01*
X144242154Y-155417213D01*
X144257952Y-155252597D01*
X144296199Y-155000954D01*
X144348794Y-154771591D01*
X144414236Y-154568875D01*
X144491027Y-154397172D01*
X144577665Y-154260847D01*
X144672651Y-154164268D01*
X144694991Y-154147681D01*
X144754753Y-154109574D01*
X144817395Y-154082091D01*
X144891258Y-154063544D01*
X144984683Y-154052245D01*
X145106012Y-154046504D01*
X145263586Y-154044632D01*
X145613798Y-154043653D01*
X145620704Y-154473310D01*
X145627611Y-154902967D01*
X145699226Y-155054158D01*
X145759588Y-155163182D01*
X145885037Y-155319708D01*
X146038704Y-155444099D01*
X146216087Y-155533019D01*
X146412687Y-155583131D01*
X146451584Y-155587004D01*
X146538779Y-155591951D01*
X146659458Y-155596366D01*
X146807184Y-155600093D01*
X146975518Y-155602978D01*
X147158021Y-155604865D01*
X147348255Y-155605601D01*
X148131465Y-155606043D01*
X148268300Y-155674420D01*
X148292277Y-155686952D01*
X148435348Y-155788154D01*
X148549961Y-155917369D01*
X148628887Y-156066734D01*
X148639189Y-156095868D01*
X148649033Y-156130502D01*
X148656843Y-156170718D01*
X148662853Y-156221397D01*
X148667292Y-156287421D01*
X148670394Y-156373674D01*
X148672389Y-156485037D01*
X148673510Y-156626393D01*
X148673987Y-156802624D01*
X148674053Y-157018611D01*
X148674018Y-157124600D01*
X148673807Y-157319747D01*
X148673192Y-157477313D01*
X148671904Y-157602100D01*
X148669678Y-157698912D01*
X148666781Y-157761065D01*
X148666246Y-157772550D01*
G37*
%TD.AperFunction*%
%TD*%
D14*
%TO.P,J7,1,Power*%
%TO.N,BURN*%
X154275800Y-116609400D03*
D15*
X155545800Y-114069400D03*
X158085800Y-114069400D03*
D14*
X159645800Y-116609400D03*
D15*
%TO.P,J7,2,GND*%
%TO.N,BURN_GND*%
X154275800Y-121689400D03*
X155545800Y-124229400D03*
X158085800Y-124229400D03*
X159645800Y-121689400D03*
%TD*%
%TO.P,J9,1,Pin_1*%
%TO.N,~{FC_RESET}*%
X134420800Y-67619400D03*
D14*
%TO.P,J9,2,Pin_2*%
%TO.N,GND*%
X131880800Y-67619400D03*
%TD*%
D15*
%TO.P,J2,1,Pin_1*%
%TO.N,EPS_USBBOOT*%
X138370800Y-71319400D03*
D14*
%TO.P,J2,2,Pin_2*%
%TO.N,GND*%
X140910800Y-71319400D03*
%TD*%
D16*
%TO.P,TP3,1,1*%
%TO.N,GND*%
X150275800Y-70119400D03*
%TD*%
%TO.P,TP7,1,1*%
%TO.N,GND*%
X142693713Y-79756113D03*
%TD*%
%TO.P,TP2,1,1*%
%TO.N,GND*%
X152215800Y-79769400D03*
%TD*%
%TO.P,TP5,1,1*%
%TO.N,GND*%
X126825800Y-112239400D03*
%TD*%
%TO.P,TP6,1,1*%
%TO.N,GND*%
X165835800Y-73239400D03*
%TD*%
%TO.P,TP1,1,1*%
%TO.N,GND*%
X165835800Y-151189400D03*
%TD*%
%TO.P,TP4,1,1*%
%TO.N,GND*%
X204805800Y-112189400D03*
%TD*%
D17*
%TO.P,J5,1,In*%
%TO.N,Net-(J5-In)*%
X165745800Y-118919400D03*
D18*
%TO.P,J5,2,Ext*%
%TO.N,GND*%
X163205800Y-116379400D03*
X163205800Y-121459400D03*
X168285800Y-116379400D03*
X168285800Y-121459400D03*
%TD*%
D15*
%TO.P,J3,1,Pin_1*%
%TO.N,~{EPS_RESET}*%
X138370800Y-67619400D03*
D14*
%TO.P,J3,2,Pin_2*%
%TO.N,GND*%
X140910800Y-67619400D03*
%TD*%
D15*
%TO.P,J20,1,Pin_1*%
%TO.N,FC_USBBOOT*%
X134420800Y-71319400D03*
D14*
%TO.P,J20,2,Pin_2*%
%TO.N,GND*%
X131880800Y-71319400D03*
%TD*%
D19*
%TO.P,J10,1,VBUS*%
%TO.N,Net-(J10-VBUS)*%
X119655800Y-80444400D03*
%TO.P,J10,2,D-*%
%TO.N,FC_USB_D-*%
X119655800Y-81094400D03*
%TO.P,J10,3,D+*%
%TO.N,FC_USB_D+*%
X119655800Y-81744400D03*
%TO.P,J10,4,ID*%
%TO.N,unconnected-(J10-ID-Pad4)*%
X119655800Y-82394400D03*
%TO.P,J10,5,GND*%
%TO.N,GND*%
X119655800Y-83044400D03*
D20*
%TO.P,J10,SH1,Shield*%
X116995800Y-85694400D03*
D21*
%TO.P,J10,SH2*%
%TO.N,N/C*%
X119295800Y-84206900D03*
D22*
%TO.P,J10,SH3*%
X116995800Y-82681900D03*
%TO.P,J10,SH4*%
X116995800Y-80806900D03*
D21*
%TO.P,J10,SH5*%
X119295800Y-79281900D03*
D20*
%TO.P,J10,SH6*%
X116995800Y-77794400D03*
%TD*%
D19*
%TO.P,J13,1,VBUS*%
%TO.N,Net-(J13-VBUS)*%
X211435800Y-92444400D03*
%TO.P,J13,2,D-*%
%TO.N,/2d-*%
X211435800Y-91794400D03*
%TO.P,J13,3,D+*%
%TO.N,/2d+*%
X211435800Y-91144400D03*
%TO.P,J13,4,ID*%
%TO.N,unconnected-(J13-ID-Pad4)*%
X211435800Y-90494400D03*
%TO.P,J13,5,GND*%
%TO.N,GND*%
X211435800Y-89844400D03*
D20*
%TO.P,J13,SH1,Shield*%
X214095800Y-87194400D03*
D21*
%TO.P,J13,SH2*%
%TO.N,N/C*%
X211795800Y-88681900D03*
D22*
%TO.P,J13,SH3*%
X214095800Y-90206900D03*
%TO.P,J13,SH4*%
X214095800Y-92081900D03*
D21*
%TO.P,J13,SH5*%
X211795800Y-93606900D03*
D20*
%TO.P,J13,SH6*%
X214095800Y-95094400D03*
%TD*%
D15*
%TO.P,J1,1,Pin_1*%
%TO.N,Dir_Chrg_In*%
X155570800Y-109719400D03*
D14*
%TO.P,J1,2,Pin_2*%
%TO.N,GND*%
X158110800Y-109719400D03*
%TD*%
D19*
%TO.P,J15,1,VBUS*%
%TO.N,Net-(J15-VBUS)*%
X211435800Y-82169400D03*
%TO.P,J15,2,D-*%
%TO.N,/3d-*%
X211435800Y-81519400D03*
%TO.P,J15,3,D+*%
%TO.N,/3d+*%
X211435800Y-80869400D03*
%TO.P,J15,4,ID*%
%TO.N,unconnected-(J15-ID-Pad4)*%
X211435800Y-80219400D03*
%TO.P,J15,5,GND*%
%TO.N,GND*%
X211435800Y-79569400D03*
D20*
%TO.P,J15,SH1,Shield*%
X214095800Y-76919400D03*
D21*
%TO.P,J15,SH2*%
%TO.N,N/C*%
X211795800Y-78406900D03*
D22*
%TO.P,J15,SH3*%
X214095800Y-79931900D03*
%TO.P,J15,SH4*%
X214095800Y-81806900D03*
D21*
%TO.P,J15,SH5*%
X211795800Y-83331900D03*
D20*
%TO.P,J15,SH6*%
X214095800Y-84819400D03*
%TD*%
D19*
%TO.P,J11,1,VBUS*%
%TO.N,Net-(J11-VBUS)*%
X119655800Y-90469400D03*
%TO.P,J11,2,D-*%
%TO.N,EPS_USB_D-*%
X119655800Y-91119400D03*
%TO.P,J11,3,D+*%
%TO.N,EPS_USB_D+*%
X119655800Y-91769400D03*
%TO.P,J11,4,ID*%
%TO.N,unconnected-(J11-ID-Pad4)*%
X119655800Y-92419400D03*
%TO.P,J11,5,GND*%
%TO.N,GND*%
X119655800Y-93069400D03*
D20*
%TO.P,J11,SH1,Shield*%
X116995800Y-95719400D03*
D21*
%TO.P,J11,SH2*%
%TO.N,N/C*%
X119295800Y-94231900D03*
D22*
%TO.P,J11,SH3*%
X116995800Y-92706900D03*
%TO.P,J11,SH4*%
X116995800Y-90831900D03*
D21*
%TO.P,J11,SH5*%
X119295800Y-89306900D03*
D20*
%TO.P,J11,SH6*%
X116995800Y-87819400D03*
%TD*%
D23*
%TO.P,U1,1,GPIO1*%
%TO.N,/GPIO*%
X121525800Y-135279400D03*
%TO.P,U1,2,NC*%
%TO.N,unconnected-(U1-NC-Pad2)*%
X121525800Y-136029400D03*
%TO.P,U1,3,NC*%
%TO.N,unconnected-(U1-NC-Pad3)*%
X121525800Y-136779400D03*
%TO.P,U1,4,GPIO0*%
%TO.N,/XSHUT_2.8V*%
X121525800Y-137529400D03*
%TO.P,U1,5,SCL*%
%TO.N,/SCL_3V*%
X121525800Y-138279400D03*
%TO.P,U1,6,SDA*%
%TO.N,/SDA_3V*%
X121525800Y-139029400D03*
%TO.P,U1,7,NC*%
%TO.N,unconnected-(U1-NC-Pad7)*%
X119125800Y-139029400D03*
%TO.P,U1,8,AVDD_VCSEL*%
%TO.N,2.8V*%
X119125800Y-138279400D03*
%TO.P,U1,9,AVSS_VCSEL*%
%TO.N,GND*%
X119125800Y-137529400D03*
%TO.P,U1,10,AVDD*%
%TO.N,2.8V*%
X119125800Y-136779400D03*
%TO.P,U1,11,NC*%
%TO.N,unconnected-(U1-NC-Pad11)*%
X119125800Y-136029400D03*
%TO.P,U1,12,AVSS*%
%TO.N,GND*%
X119125800Y-135279400D03*
%TD*%
D24*
%TO.N,GND*%
X175645800Y-122519400D03*
X175145800Y-123519400D03*
X174545800Y-124319400D03*
X173745800Y-124919400D03*
X172945800Y-125619400D03*
X173145800Y-121919400D03*
X172445800Y-122519400D03*
X171745800Y-123219400D03*
X171045800Y-123919400D03*
X168045800Y-107719400D03*
X162545800Y-111219400D03*
X166745800Y-104919400D03*
X163945647Y-106919553D03*
X153177969Y-111051569D03*
%TO.N,EPS_USBBOOT*%
X147797800Y-110389400D03*
X149645800Y-116419400D03*
%TO.N,~{EPS_RESET}*%
X148645800Y-110919400D03*
X150645800Y-116519400D03*
%TO.N,V_RF*%
X184345800Y-106819400D03*
X174245800Y-106519400D03*
X171245800Y-103119400D03*
X168745800Y-103119400D03*
%TO.N,+3V3*%
X150245800Y-108719400D03*
%TO.N,SDA1*%
X150445800Y-112519400D03*
%TO.N,SCL1*%
X149745800Y-111719400D03*
X147934616Y-113516366D03*
%TO.N,SDA1*%
X148641725Y-114223475D03*
%TO.N,EPS_USB_D+*%
X121045800Y-92119400D03*
%TO.N,EPS_USB_D-*%
X122184502Y-91994399D03*
%TO.N,GND*%
X122535800Y-83619400D03*
X188345800Y-106619400D03*
X182545800Y-106219400D03*
X166695800Y-123069400D03*
X130347958Y-123222637D03*
X176245800Y-106619400D03*
X209075800Y-78979400D03*
X164445800Y-125519400D03*
X166645800Y-124969400D03*
X167395800Y-129169400D03*
X164445800Y-123519400D03*
X117945800Y-138629545D03*
X166695800Y-127519400D03*
X164445800Y-124519400D03*
X164545800Y-122519400D03*
X166945800Y-130301025D03*
X163895800Y-129119400D03*
X166645800Y-123969400D03*
X164445800Y-126519400D03*
X164445800Y-127419400D03*
X118145800Y-134819400D03*
X164971175Y-128319400D03*
X166545800Y-128419400D03*
X209175800Y-89609400D03*
X121705800Y-93769400D03*
X174345800Y-102919400D03*
X164578799Y-130276413D03*
%TO.N,+3V3*%
X166245800Y-113919400D03*
X140345800Y-124619400D03*
X178345800Y-102919400D03*
X169045800Y-124119400D03*
X191245800Y-82625901D03*
%TO.N,2.8V*%
X124045800Y-136819400D03*
X125945800Y-126619400D03*
X118106730Y-136731536D03*
X125745800Y-122619400D03*
X133845800Y-123619400D03*
X129820800Y-126607053D03*
%TO.N,/SCL_3V*%
X122945800Y-138304400D03*
%TO.N,/GPIO*%
X121535800Y-134409400D03*
%TO.N,/XSHUT_2.8V*%
X122625802Y-136719400D03*
%TO.N,Net-(J10-VBUS)*%
X121745800Y-80359400D03*
%TO.N,/2d-*%
X208673487Y-92116785D03*
%TO.N,/2d+*%
X208745800Y-91119400D03*
%TO.N,/3d-*%
X206237842Y-81684400D03*
%TO.N,/3d+*%
X206237842Y-80634400D03*
%TO.N,Net-(J11-VBUS)*%
X121985800Y-90219400D03*
%TO.N,Net-(J13-VBUS)*%
X209325800Y-93099900D03*
%TO.N,Net-(J15-VBUS)*%
X209502184Y-82340211D03*
%TO.N,FC_USB_D-*%
X124159873Y-80864400D03*
%TO.N,FC_USB_D+*%
X124159873Y-81914400D03*
%TO.N,SDA1*%
X132845800Y-126291732D03*
X130545800Y-125867037D03*
%TO.N,/SDA_3V*%
X123845800Y-139119400D03*
%TD*%
D25*
%TO.N,/2d-*%
X211297197Y-91919400D02*
X211422197Y-91794400D01*
X210445800Y-91919400D02*
X211297197Y-91919400D01*
X208825872Y-91964400D02*
X210445800Y-91964400D01*
X208673487Y-92116785D02*
X208825872Y-91964400D01*
X210445800Y-91964400D02*
X210445800Y-91919400D01*
X211422197Y-91794400D02*
X211435800Y-91794400D01*
%TO.N,/2d+*%
X208745800Y-91119400D02*
X209140799Y-91514399D01*
X209140799Y-91514399D02*
X210214432Y-91514399D01*
X211310800Y-91269400D02*
X211435800Y-91144400D01*
X210214432Y-91514399D02*
X210459431Y-91269400D01*
X210459431Y-91269400D02*
X211310800Y-91269400D01*
D26*
%TO.N,SDA1*%
X150445800Y-112519400D02*
X150345800Y-112519400D01*
X150345800Y-112519400D02*
X148641725Y-114223475D01*
%TO.N,SCL1*%
X149745800Y-111719400D02*
X149731582Y-111719400D01*
X149731582Y-111719400D02*
X147934616Y-113516366D01*
D27*
%TO.N,V_RF*%
X168745800Y-103119400D02*
X171245800Y-103119400D01*
D25*
%TO.N,EPS_USB_D-*%
X121695850Y-91505747D02*
X121695850Y-91504899D01*
X122184502Y-91994399D02*
X121695850Y-91505747D01*
X121695850Y-91504899D02*
X121310351Y-91119400D01*
X121310351Y-91119400D02*
X119655800Y-91119400D01*
D26*
%TO.N,Net-(J11-VBUS)*%
X121985800Y-90219400D02*
X121735800Y-90469400D01*
X121735800Y-90469400D02*
X119655800Y-90469400D01*
D25*
%TO.N,EPS_USB_D+*%
X121045800Y-92119400D02*
X120870800Y-92119400D01*
X120870800Y-92119400D02*
X120520800Y-91769400D01*
X120520800Y-91769400D02*
X119655800Y-91769400D01*
D28*
%TO.N,GND*%
X118471800Y-137529400D02*
X119125800Y-137529400D01*
D26*
X209675800Y-79579400D02*
X209075800Y-78979400D01*
X119655800Y-83059400D02*
X121975800Y-83059400D01*
D28*
X117945800Y-138055400D02*
X118471800Y-137529400D01*
D26*
X121005800Y-93069400D02*
X121705800Y-93769400D01*
X121975800Y-83059400D02*
X122535800Y-83619400D01*
D28*
X117945800Y-138629545D02*
X117945800Y-138055400D01*
D26*
X209405803Y-89839403D02*
X209175800Y-89609400D01*
X211435800Y-89839403D02*
X209405803Y-89839403D01*
D28*
X118145800Y-134819400D02*
X118605800Y-135279400D01*
X118605800Y-135279400D02*
X119125800Y-135279400D01*
D26*
X211435800Y-79579400D02*
X209675800Y-79579400D01*
X119655800Y-93069400D02*
X121005800Y-93069400D01*
D28*
%TO.N,2.8V*%
X118106730Y-136731536D02*
X118154594Y-136779400D01*
X119779800Y-136779400D02*
X120145800Y-137145400D01*
X119125800Y-136779400D02*
X119779800Y-136779400D01*
X119785800Y-138279400D02*
X119125800Y-138279400D01*
X118154594Y-136779400D02*
X119125800Y-136779400D01*
X120145800Y-137145400D02*
X120145800Y-137919400D01*
X120145800Y-137919400D02*
X119785800Y-138279400D01*
D26*
%TO.N,/SCL_3V*%
X122945800Y-138304400D02*
X121550800Y-138304400D01*
X121550800Y-138304400D02*
X121525800Y-138279400D01*
D28*
%TO.N,/GPIO*%
X121535800Y-135269400D02*
X121525800Y-135279400D01*
X121535800Y-134409400D02*
X121535800Y-135269400D01*
%TO.N,/XSHUT_2.8V*%
X122625802Y-136719400D02*
X122352800Y-136992402D01*
X122352800Y-137356400D02*
X122179800Y-137529400D01*
X122352800Y-136992402D02*
X122352800Y-137356400D01*
X122179800Y-137529400D02*
X121525800Y-137529400D01*
D26*
%TO.N,Net-(J10-VBUS)*%
X121745800Y-80359400D02*
X121645800Y-80459400D01*
X121645800Y-80459400D02*
X119655800Y-80459400D01*
D25*
%TO.N,/2d+*%
X211422197Y-91139403D02*
X211435800Y-91139403D01*
%TO.N,/3d-*%
X211310800Y-81404400D02*
X211435800Y-81529400D01*
X210459432Y-81404400D02*
X211310800Y-81404400D01*
X206837841Y-81084401D02*
X210139433Y-81084401D01*
X206237842Y-81684400D02*
X206837841Y-81084401D01*
X210139433Y-81084401D02*
X210459432Y-81404400D01*
%TO.N,/3d+*%
X211297197Y-80754400D02*
X211422197Y-80879400D01*
X210445800Y-80634400D02*
X210445800Y-80754400D01*
X211422197Y-80879400D02*
X211435800Y-80879400D01*
X206237842Y-80634400D02*
X210445800Y-80634400D01*
X210445800Y-80754400D02*
X211297197Y-80754400D01*
D26*
%TO.N,Net-(J13-VBUS)*%
X211435800Y-92439403D02*
X209986297Y-92439403D01*
X209986297Y-92439403D02*
X209325800Y-93099900D01*
%TO.N,Net-(J15-VBUS)*%
X209662995Y-82179400D02*
X209502184Y-82340211D01*
X211435800Y-82179400D02*
X209662995Y-82179400D01*
D25*
%TO.N,FC_USB_D-*%
X121365850Y-80969400D02*
X121455850Y-81059400D01*
X119794403Y-80969400D02*
X121365850Y-80969400D01*
X121455850Y-81059400D02*
X122035750Y-81059400D01*
X119655800Y-81094400D02*
X119669403Y-81094400D01*
X122230750Y-80864400D02*
X124159873Y-80864400D01*
X122035750Y-81059400D02*
X122230750Y-80864400D01*
X119669403Y-81094400D02*
X119794403Y-80969400D01*
%TO.N,FC_USB_D+*%
X123559874Y-81314401D02*
X124159873Y-81914400D01*
X122417118Y-81314401D02*
X123559874Y-81314401D01*
X120645800Y-81419381D02*
X121179462Y-81419381D01*
X119780800Y-81619400D02*
X120645800Y-81619400D01*
X122222139Y-81509381D02*
X122417118Y-81314401D01*
X121179462Y-81419381D02*
X121269462Y-81509381D01*
X119669403Y-81759400D02*
X119655800Y-81759400D01*
X119655800Y-81744400D02*
X119780800Y-81619400D01*
X121269462Y-81509381D02*
X122222139Y-81509381D01*
X120645800Y-81619400D02*
X120645800Y-81419381D01*
D26*
%TO.N,SDA1*%
X132421105Y-125867037D02*
X130545800Y-125867037D01*
X132845800Y-126291732D02*
X132421105Y-125867037D01*
%TO.N,/SDA_3V*%
X123845800Y-139119400D02*
X123755800Y-139029400D01*
X123755800Y-139029400D02*
X121525800Y-139029400D01*
%TD*%
%TA.AperFunction,NonConductor*%
G36*
X121554811Y-84622769D02*
G01*
X121565001Y-84632658D01*
X121580850Y-84649874D01*
X121584016Y-84653313D01*
X121767173Y-84795869D01*
X121767174Y-84795870D01*
X121971297Y-84906336D01*
X121971299Y-84906337D01*
X122085893Y-84945677D01*
X122190819Y-84981698D01*
X122419751Y-85019900D01*
X122419755Y-85019900D01*
X122651845Y-85019900D01*
X122651849Y-85019900D01*
X122880781Y-84981698D01*
X123100303Y-84906336D01*
X123304426Y-84795870D01*
X123345800Y-84763667D01*
X123345800Y-89884893D01*
X123314957Y-89763100D01*
X123314955Y-89763096D01*
X123221724Y-89550551D01*
X123094781Y-89356250D01*
X123094780Y-89356249D01*
X123094779Y-89356247D01*
X122937584Y-89185487D01*
X122754426Y-89042930D01*
X122754425Y-89042929D01*
X122550302Y-88932463D01*
X122550300Y-88932462D01*
X122330785Y-88857103D01*
X122330778Y-88857101D01*
X122232800Y-88840752D01*
X122101849Y-88818900D01*
X121869751Y-88818900D01*
X121755183Y-88838018D01*
X121640821Y-88857101D01*
X121640810Y-88857104D01*
X121513210Y-88900909D01*
X121442286Y-88904109D01*
X121380890Y-88868457D01*
X121348516Y-88805271D01*
X121346299Y-88781736D01*
X121346299Y-88511372D01*
X121346299Y-88511364D01*
X121335686Y-88391982D01*
X121279709Y-88196351D01*
X121185498Y-88015993D01*
X121056909Y-87858291D01*
X120899207Y-87729702D01*
X120899205Y-87729701D01*
X120899204Y-87729700D01*
X120718851Y-87635492D01*
X120718850Y-87635491D01*
X120718849Y-87635491D01*
X120523218Y-87579514D01*
X120403837Y-87568900D01*
X120403834Y-87568900D01*
X119292238Y-87568900D01*
X119224117Y-87548898D01*
X119177624Y-87495242D01*
X119167790Y-87462614D01*
X119164791Y-87443679D01*
X119086748Y-87203486D01*
X118972091Y-86978459D01*
X118864926Y-86830959D01*
X118841069Y-86764094D01*
X118857149Y-86694942D01*
X118864922Y-86682845D01*
X118972091Y-86535341D01*
X119086748Y-86310314D01*
X119164791Y-86070121D01*
X119167789Y-86051185D01*
X119198201Y-85987035D01*
X119258469Y-85949508D01*
X119292238Y-85944899D01*
X120403828Y-85944899D01*
X120403836Y-85944899D01*
X120523218Y-85934286D01*
X120718849Y-85878309D01*
X120899207Y-85784098D01*
X121056909Y-85655509D01*
X121185498Y-85497807D01*
X121279709Y-85317449D01*
X121335686Y-85121818D01*
X121346300Y-85002437D01*
X121346299Y-84717992D01*
X121366301Y-84649874D01*
X121419956Y-84603381D01*
X121490230Y-84593276D01*
X121554811Y-84622769D01*
G37*
%TD.AperFunction*%
%TA.AperFunction,NonConductor*%
G36*
X123345800Y-91211326D02*
G01*
X123293481Y-91131246D01*
X123225072Y-91056934D01*
X123193653Y-90993272D01*
X123201640Y-90922726D01*
X123212286Y-90902694D01*
X123221724Y-90888249D01*
X123314957Y-90675700D01*
X123345800Y-90553904D01*
X123345800Y-91211326D01*
G37*
%TD.AperFunction*%
%TA.AperFunction,NonConductor*%
G36*
X165436709Y-120921460D02*
G01*
X165607238Y-120944899D01*
X165607252Y-120944900D01*
X165884348Y-120944900D01*
X165884361Y-120944899D01*
X166054889Y-120921460D01*
X166125098Y-120931999D01*
X166178465Y-120978824D01*
X166198044Y-121047068D01*
X166195411Y-121071920D01*
X166175175Y-121169304D01*
X166175174Y-121169314D01*
X166155333Y-121459395D01*
X166155333Y-121459404D01*
X166170253Y-121677545D01*
X166154946Y-121746872D01*
X166104588Y-121796918D01*
X166104516Y-121796957D01*
X165942183Y-121884807D01*
X165872753Y-121899637D01*
X165806326Y-121874577D01*
X165776731Y-121842908D01*
X165654781Y-121656250D01*
X165654780Y-121656249D01*
X165654779Y-121656247D01*
X165497584Y-121485487D01*
X165373550Y-121388948D01*
X165332078Y-121331323D01*
X165325234Y-121298113D01*
X165316425Y-121169310D01*
X165316424Y-121169304D01*
X165316424Y-121169301D01*
X165296188Y-121071920D01*
X165301911Y-121001157D01*
X165344985Y-120944719D01*
X165411733Y-120920529D01*
X165436709Y-120921460D01*
G37*
%TD.AperFunction*%
%TA.AperFunction,NonConductor*%
G36*
X170198354Y-125043970D02*
G01*
X170236628Y-125064311D01*
X170254739Y-125078408D01*
X170277173Y-125095869D01*
X170277174Y-125095870D01*
X170481297Y-125206336D01*
X170481299Y-125206337D01*
X170577044Y-125239206D01*
X170700819Y-125281698D01*
X170929751Y-125319900D01*
X170929755Y-125319900D01*
X171161845Y-125319900D01*
X171161849Y-125319900D01*
X171390781Y-125281698D01*
X171391273Y-125281528D01*
X171391483Y-125281519D01*
X171395829Y-125280419D01*
X171396055Y-125281312D01*
X171462197Y-125278325D01*
X171523594Y-125313975D01*
X171555971Y-125377159D01*
X171557759Y-125411100D01*
X171550736Y-125495869D01*
X171540500Y-125619399D01*
X171559666Y-125850708D01*
X171559667Y-125850714D01*
X171616642Y-126075699D01*
X171616644Y-126075703D01*
X171709875Y-126288248D01*
X171775108Y-126388095D01*
X171836821Y-126482553D01*
X171942892Y-126597777D01*
X171997546Y-126657148D01*
X171995939Y-126658627D01*
X172027746Y-126711549D01*
X172025613Y-126782514D01*
X171985453Y-126841060D01*
X171920016Y-126868600D01*
X171905838Y-126869400D01*
X168012226Y-126869400D01*
X167944105Y-126849398D01*
X167906743Y-126812315D01*
X167900353Y-126802535D01*
X167804779Y-126656247D01*
X167647584Y-126485487D01*
X167464426Y-126342930D01*
X167464420Y-126342926D01*
X167455199Y-126337936D01*
X167404810Y-126287922D01*
X167389459Y-126218604D01*
X167414022Y-126151992D01*
X167437781Y-126127692D01*
X167478666Y-126095870D01*
X167597584Y-126003313D01*
X167754779Y-125832553D01*
X167881724Y-125638249D01*
X167974957Y-125425700D01*
X168004837Y-125307706D01*
X168040949Y-125246581D01*
X168104376Y-125214682D01*
X168174980Y-125222139D01*
X168204371Y-125239205D01*
X168267382Y-125288249D01*
X168277173Y-125295869D01*
X168277174Y-125295870D01*
X168481297Y-125406336D01*
X168481299Y-125406337D01*
X168546097Y-125428582D01*
X168700819Y-125481698D01*
X168929751Y-125519900D01*
X168929755Y-125519900D01*
X169161845Y-125519900D01*
X169161849Y-125519900D01*
X169390781Y-125481698D01*
X169610303Y-125406336D01*
X169814426Y-125295870D01*
X169997584Y-125153313D01*
X170066539Y-125078406D01*
X170127390Y-125041837D01*
X170198354Y-125043970D01*
G37*
%TD.AperFunction*%
%TA.AperFunction,NonConductor*%
G36*
X140597395Y-62419907D02*
G01*
X140598454Y-62419906D01*
X140598457Y-62419908D01*
X151844973Y-62417700D01*
X204719700Y-62417700D01*
X204787821Y-62437702D01*
X204834314Y-62491358D01*
X204845700Y-62543700D01*
X204845700Y-72757082D01*
X204876223Y-72830773D01*
X204876226Y-72830777D01*
X204932622Y-72887173D01*
X204932626Y-72887176D01*
X205006318Y-72917700D01*
X215219660Y-72917700D01*
X215287781Y-72937702D01*
X215334274Y-72991358D01*
X215345659Y-73043713D01*
X215345603Y-73504614D01*
X215345385Y-75268685D01*
X215325375Y-75336803D01*
X215271713Y-75383289D01*
X215201438Y-75393384D01*
X215180449Y-75388502D01*
X215075525Y-75354410D01*
X215075523Y-75354409D01*
X215075521Y-75354409D01*
X214826077Y-75314900D01*
X213365523Y-75314900D01*
X213116079Y-75354409D01*
X213116077Y-75354409D01*
X213116074Y-75354410D01*
X212875890Y-75432450D01*
X212875884Y-75432453D01*
X212650855Y-75547111D01*
X212446536Y-75695558D01*
X212446533Y-75695560D01*
X212267960Y-75874133D01*
X212267958Y-75874136D01*
X212119511Y-76078455D01*
X212004853Y-76303484D01*
X212004850Y-76303490D01*
X211926809Y-76543676D01*
X211923809Y-76562616D01*
X211893394Y-76626768D01*
X211833125Y-76664292D01*
X211799361Y-76668900D01*
X210687772Y-76668900D01*
X210687762Y-76668901D01*
X210568388Y-76679513D01*
X210568385Y-76679513D01*
X210568382Y-76679514D01*
X210372751Y-76735491D01*
X210372748Y-76735492D01*
X210192395Y-76829700D01*
X210034691Y-76958291D01*
X209906100Y-77115995D01*
X209811892Y-77296348D01*
X209811891Y-77296350D01*
X209811891Y-77296351D01*
X209762135Y-77470242D01*
X209755914Y-77491982D01*
X209755914Y-77491984D01*
X209749441Y-77564787D01*
X209723484Y-77630868D01*
X209665922Y-77672426D01*
X209595029Y-77676266D01*
X209583024Y-77672800D01*
X209420785Y-77617103D01*
X209420778Y-77617101D01*
X209322800Y-77600752D01*
X209191849Y-77578900D01*
X208959751Y-77578900D01*
X208845183Y-77598018D01*
X208730821Y-77617101D01*
X208730814Y-77617103D01*
X208511299Y-77692462D01*
X208511297Y-77692463D01*
X208307174Y-77802929D01*
X208307173Y-77802930D01*
X208124013Y-77945489D01*
X207966818Y-78116250D01*
X207839875Y-78310551D01*
X207746644Y-78523096D01*
X207746642Y-78523100D01*
X207689667Y-78748085D01*
X207689666Y-78748091D01*
X207670500Y-78979400D01*
X207689666Y-79210708D01*
X207689667Y-79210714D01*
X207731770Y-79376968D01*
X207729103Y-79447915D01*
X207688503Y-79506157D01*
X207622860Y-79533203D01*
X207609626Y-79533900D01*
X207147330Y-79533900D01*
X207079209Y-79513898D01*
X207069952Y-79507341D01*
X207006468Y-79457930D01*
X207006467Y-79457929D01*
X206802344Y-79347463D01*
X206802342Y-79347462D01*
X206582827Y-79272103D01*
X206582820Y-79272101D01*
X206484842Y-79255752D01*
X206353891Y-79233900D01*
X206121793Y-79233900D01*
X206007225Y-79253018D01*
X205892863Y-79272101D01*
X205892856Y-79272103D01*
X205673341Y-79347462D01*
X205673339Y-79347463D01*
X205469216Y-79457929D01*
X205469215Y-79457930D01*
X205286055Y-79600489D01*
X205128860Y-79771250D01*
X205001917Y-79965551D01*
X204908686Y-80178096D01*
X204908684Y-80178100D01*
X204851709Y-80403085D01*
X204851708Y-80403091D01*
X204832542Y-80634400D01*
X204851708Y-80865708D01*
X204851709Y-80865714D01*
X204908684Y-81090699D01*
X204908685Y-81090702D01*
X204916619Y-81108790D01*
X204925663Y-81179208D01*
X204916619Y-81210010D01*
X204908685Y-81228097D01*
X204908684Y-81228100D01*
X204851709Y-81453085D01*
X204851708Y-81453091D01*
X204832542Y-81684400D01*
X204851708Y-81915708D01*
X204851709Y-81915714D01*
X204908684Y-82140699D01*
X204908686Y-82140703D01*
X205001917Y-82353248D01*
X205112947Y-82523193D01*
X205128863Y-82547553D01*
X205286058Y-82718313D01*
X205464520Y-82857215D01*
X205469215Y-82860869D01*
X205469216Y-82860870D01*
X205673339Y-82971336D01*
X205673341Y-82971337D01*
X205783222Y-83009059D01*
X205892861Y-83046698D01*
X206121793Y-83084900D01*
X206121797Y-83084900D01*
X206353887Y-83084900D01*
X206353891Y-83084900D01*
X206582823Y-83046698D01*
X206802345Y-82971336D01*
X207006468Y-82860870D01*
X207189626Y-82718313D01*
X207346821Y-82547553D01*
X207473766Y-82353249D01*
X207514543Y-82260286D01*
X207560224Y-82205939D01*
X207628036Y-82184915D01*
X207629930Y-82184901D01*
X207972881Y-82184901D01*
X208041002Y-82204903D01*
X208087495Y-82258559D01*
X208098450Y-82321304D01*
X208096884Y-82340211D01*
X208116050Y-82571519D01*
X208116051Y-82571525D01*
X208173026Y-82796510D01*
X208173028Y-82796514D01*
X208266259Y-83009059D01*
X208391880Y-83201337D01*
X208393205Y-83203364D01*
X208550400Y-83374124D01*
X208662907Y-83461691D01*
X208733557Y-83516680D01*
X208733558Y-83516681D01*
X208937681Y-83627147D01*
X208937683Y-83627148D01*
X209032828Y-83659811D01*
X209157203Y-83702509D01*
X209386135Y-83740711D01*
X209386139Y-83740711D01*
X209619300Y-83740711D01*
X209687421Y-83760713D01*
X209733914Y-83814369D01*
X209745300Y-83866711D01*
X209745300Y-84127427D01*
X209745301Y-84127437D01*
X209752560Y-84209098D01*
X209755914Y-84246818D01*
X209788101Y-84359305D01*
X209811892Y-84442451D01*
X209895954Y-84603381D01*
X209906102Y-84622807D01*
X210034691Y-84780509D01*
X210192393Y-84909098D01*
X210372751Y-85003309D01*
X210568382Y-85059286D01*
X210687763Y-85069900D01*
X211799361Y-85069899D01*
X211867482Y-85089901D01*
X211913975Y-85143557D01*
X211923809Y-85176184D01*
X211926809Y-85195122D01*
X211966555Y-85317449D01*
X212004852Y-85435314D01*
X212119509Y-85660341D01*
X212267956Y-85864661D01*
X212267958Y-85864663D01*
X212267960Y-85864666D01*
X212321099Y-85917805D01*
X212355125Y-85980117D01*
X212350060Y-86050932D01*
X212321099Y-86095995D01*
X212267960Y-86149133D01*
X212267958Y-86149136D01*
X212119511Y-86353455D01*
X212004853Y-86578484D01*
X212004850Y-86578490D01*
X211926809Y-86818676D01*
X211923809Y-86837616D01*
X211893394Y-86901768D01*
X211833125Y-86939292D01*
X211799361Y-86943900D01*
X210687772Y-86943900D01*
X210687762Y-86943901D01*
X210568388Y-86954513D01*
X210568385Y-86954513D01*
X210568382Y-86954514D01*
X210372751Y-87010491D01*
X210372748Y-87010492D01*
X210192395Y-87104700D01*
X210034691Y-87233291D01*
X209906100Y-87390995D01*
X209811892Y-87571348D01*
X209811891Y-87571350D01*
X209811891Y-87571351D01*
X209755914Y-87766982D01*
X209752062Y-87810314D01*
X209745300Y-87886365D01*
X209745300Y-88147705D01*
X209725298Y-88215826D01*
X209671642Y-88262319D01*
X209601368Y-88272423D01*
X209578389Y-88266878D01*
X209520789Y-88247104D01*
X209520778Y-88247101D01*
X209422800Y-88230752D01*
X209291849Y-88208900D01*
X209059751Y-88208900D01*
X208945183Y-88228018D01*
X208830821Y-88247101D01*
X208830814Y-88247103D01*
X208611299Y-88322462D01*
X208611297Y-88322463D01*
X208407174Y-88432929D01*
X208407173Y-88432930D01*
X208224013Y-88575489D01*
X208066818Y-88746250D01*
X207939875Y-88940551D01*
X207846644Y-89153096D01*
X207846642Y-89153100D01*
X207789667Y-89378085D01*
X207789666Y-89378091D01*
X207770500Y-89609400D01*
X207789666Y-89840708D01*
X207789668Y-89840717D01*
X207822479Y-89970282D01*
X207819812Y-90041228D01*
X207793037Y-90086550D01*
X207636818Y-90256250D01*
X207509875Y-90450551D01*
X207416644Y-90663096D01*
X207416642Y-90663100D01*
X207359667Y-90888085D01*
X207359666Y-90888091D01*
X207340500Y-91119400D01*
X207359666Y-91350708D01*
X207359667Y-91350714D01*
X207393168Y-91483001D01*
X207390501Y-91553948D01*
X207386412Y-91564546D01*
X207344329Y-91660486D01*
X207287354Y-91885470D01*
X207287353Y-91885476D01*
X207268187Y-92116785D01*
X207287353Y-92348093D01*
X207287354Y-92348099D01*
X207344329Y-92573084D01*
X207344331Y-92573088D01*
X207437562Y-92785633D01*
X207542869Y-92946818D01*
X207564508Y-92979938D01*
X207721703Y-93150698D01*
X207902107Y-93291111D01*
X207943577Y-93348735D01*
X207946859Y-93359611D01*
X207996641Y-93556196D01*
X207996644Y-93556203D01*
X208089875Y-93768748D01*
X208156389Y-93870556D01*
X208216821Y-93963053D01*
X208374016Y-94133813D01*
X208492072Y-94225699D01*
X208557173Y-94276369D01*
X208557174Y-94276370D01*
X208761297Y-94386836D01*
X208761299Y-94386837D01*
X208876554Y-94426404D01*
X208980819Y-94462198D01*
X209209751Y-94500400D01*
X209209755Y-94500400D01*
X209441851Y-94500400D01*
X209528626Y-94485919D01*
X209624816Y-94469868D01*
X209695299Y-94478384D01*
X209749989Y-94523655D01*
X209766691Y-94559483D01*
X209811891Y-94717449D01*
X209811892Y-94717451D01*
X209856742Y-94803313D01*
X209906102Y-94897807D01*
X210034691Y-95055509D01*
X210192393Y-95184098D01*
X210372751Y-95278309D01*
X210568382Y-95334286D01*
X210687763Y-95344900D01*
X211799361Y-95344899D01*
X211867482Y-95364901D01*
X211913975Y-95418557D01*
X211923809Y-95451184D01*
X211926809Y-95470122D01*
X211995167Y-95680509D01*
X212004852Y-95710314D01*
X212119509Y-95935341D01*
X212267956Y-96139661D01*
X212267958Y-96139663D01*
X212267960Y-96139666D01*
X212446533Y-96318239D01*
X212446536Y-96318241D01*
X212446539Y-96318244D01*
X212650859Y-96466691D01*
X212875886Y-96581348D01*
X213116079Y-96659391D01*
X213365523Y-96698900D01*
X213365526Y-96698900D01*
X214826074Y-96698900D01*
X214826077Y-96698900D01*
X215075521Y-96659391D01*
X215180372Y-96625322D01*
X215251335Y-96623295D01*
X215312134Y-96659957D01*
X215343459Y-96723669D01*
X215345305Y-96745155D01*
X215345520Y-126753399D01*
X215325518Y-126821520D01*
X215271863Y-126868013D01*
X215219520Y-126879400D01*
X197977991Y-126879400D01*
X197943934Y-126869400D01*
X197915800Y-126869400D01*
X173985762Y-126869400D01*
X173917641Y-126849398D01*
X173871148Y-126795742D01*
X173861044Y-126725468D01*
X173890538Y-126660888D01*
X173894113Y-126657203D01*
X173894054Y-126657148D01*
X173940170Y-126607052D01*
X174054779Y-126482553D01*
X174181724Y-126288249D01*
X174181732Y-126288229D01*
X174183423Y-126285107D01*
X174184460Y-126284061D01*
X174184575Y-126283886D01*
X174184611Y-126283909D01*
X174233432Y-126234712D01*
X174253320Y-126225897D01*
X174310303Y-126206336D01*
X174514426Y-126095870D01*
X174697584Y-125953313D01*
X174854779Y-125782553D01*
X174905654Y-125704682D01*
X174959656Y-125658594D01*
X174970226Y-125654424D01*
X175033203Y-125632804D01*
X175110303Y-125606336D01*
X175314426Y-125495870D01*
X175497584Y-125353313D01*
X175654779Y-125182553D01*
X175781724Y-124988249D01*
X175874957Y-124775700D01*
X175879828Y-124756466D01*
X175915940Y-124695340D01*
X175924582Y-124687965D01*
X175969107Y-124653310D01*
X176097584Y-124553313D01*
X176254779Y-124382553D01*
X176381724Y-124188249D01*
X176474957Y-123975700D01*
X176531934Y-123750705D01*
X176540327Y-123649402D01*
X176565885Y-123583170D01*
X176588508Y-123560376D01*
X176597584Y-123553313D01*
X176754779Y-123382553D01*
X176881724Y-123188249D01*
X176974957Y-122975700D01*
X177018460Y-122803912D01*
X177031932Y-122750714D01*
X177031933Y-122750708D01*
X177031934Y-122750705D01*
X177051100Y-122519400D01*
X177031934Y-122288095D01*
X177031933Y-122288091D01*
X177031932Y-122288085D01*
X176974957Y-122063100D01*
X176974955Y-122063096D01*
X176966109Y-122042930D01*
X176881724Y-121850551D01*
X176768694Y-121677545D01*
X176754781Y-121656250D01*
X176754780Y-121656249D01*
X176754779Y-121656247D01*
X176624716Y-121514960D01*
X176597586Y-121485489D01*
X176597585Y-121485488D01*
X176597584Y-121485487D01*
X176414426Y-121342930D01*
X176414425Y-121342929D01*
X176210302Y-121232463D01*
X176210300Y-121232462D01*
X175990785Y-121157103D01*
X175990778Y-121157101D01*
X175892800Y-121140752D01*
X175761849Y-121118900D01*
X175529751Y-121118900D01*
X175415183Y-121138018D01*
X175300821Y-121157101D01*
X175300814Y-121157103D01*
X175081299Y-121232462D01*
X175081297Y-121232463D01*
X174877174Y-121342929D01*
X174877173Y-121342930D01*
X174694011Y-121485491D01*
X174682918Y-121497541D01*
X174622064Y-121534110D01*
X174551099Y-121531974D01*
X174492555Y-121491811D01*
X174474832Y-121462815D01*
X174381724Y-121250551D01*
X174254781Y-121056250D01*
X174254780Y-121056249D01*
X174254779Y-121056247D01*
X174097584Y-120885487D01*
X173914426Y-120742930D01*
X173914425Y-120742929D01*
X173710302Y-120632463D01*
X173710300Y-120632462D01*
X173490785Y-120557103D01*
X173490778Y-120557101D01*
X173392800Y-120540752D01*
X173261849Y-120518900D01*
X173029751Y-120518900D01*
X172915183Y-120538018D01*
X172800821Y-120557101D01*
X172800814Y-120557103D01*
X172581299Y-120632462D01*
X172581297Y-120632463D01*
X172377174Y-120742929D01*
X172377173Y-120742930D01*
X172194013Y-120885489D01*
X172036821Y-121056246D01*
X172036815Y-121056255D01*
X171957029Y-121178375D01*
X171903026Y-121224463D01*
X171892471Y-121228627D01*
X171882024Y-121232214D01*
X171881294Y-121232465D01*
X171677174Y-121342929D01*
X171677173Y-121342930D01*
X171494013Y-121485489D01*
X171336818Y-121656250D01*
X171209878Y-121850547D01*
X171209873Y-121850555D01*
X171189032Y-121898069D01*
X171143350Y-121952417D01*
X171133615Y-121958267D01*
X170977179Y-122042926D01*
X170977173Y-122042930D01*
X170794013Y-122185489D01*
X170636818Y-122356250D01*
X170509878Y-122550547D01*
X170509873Y-122550555D01*
X170489032Y-122598069D01*
X170443350Y-122652417D01*
X170433615Y-122658267D01*
X170272591Y-122745410D01*
X170271520Y-122743432D01*
X170212601Y-122761178D01*
X170144343Y-122741649D01*
X170097478Y-122688318D01*
X170086887Y-122618116D01*
X170104075Y-122569703D01*
X170106097Y-122566375D01*
X170106112Y-122566356D01*
X170167828Y-122447249D01*
X170239884Y-122308189D01*
X170239885Y-122308184D01*
X170239888Y-122308180D01*
X170337264Y-122034193D01*
X170396424Y-121749499D01*
X170402803Y-121656247D01*
X170416267Y-121459404D01*
X170416267Y-121459395D01*
X170396425Y-121169314D01*
X170396424Y-121169312D01*
X170396424Y-121169301D01*
X170337264Y-120884607D01*
X170239888Y-120610620D01*
X170239886Y-120610617D01*
X170239884Y-120610610D01*
X170106118Y-120352455D01*
X170106116Y-120352452D01*
X170106112Y-120352444D01*
X169938427Y-120114888D01*
X169739957Y-119902378D01*
X169514398Y-119718873D01*
X169265953Y-119567790D01*
X169265949Y-119567788D01*
X169265947Y-119567787D01*
X169156478Y-119520238D01*
X168999250Y-119451944D01*
X168770028Y-119387719D01*
X168719253Y-119373493D01*
X168719255Y-119373493D01*
X168431201Y-119333900D01*
X168431188Y-119333900D01*
X168140412Y-119333900D01*
X168140398Y-119333900D01*
X167893161Y-119367883D01*
X167822951Y-119357343D01*
X167769585Y-119310518D01*
X167750006Y-119242275D01*
X167752640Y-119217423D01*
X167757123Y-119195850D01*
X167776033Y-118919400D01*
X167757123Y-118642950D01*
X167752640Y-118621375D01*
X167758363Y-118550614D01*
X167801436Y-118494176D01*
X167868184Y-118469985D01*
X167893159Y-118470915D01*
X167969837Y-118481455D01*
X168140401Y-118504899D01*
X168140412Y-118504900D01*
X168431188Y-118504900D01*
X168431201Y-118504899D01*
X168644671Y-118475557D01*
X168719256Y-118465306D01*
X168999250Y-118386856D01*
X169265953Y-118271010D01*
X169514398Y-118119927D01*
X169739957Y-117936422D01*
X169938427Y-117723912D01*
X170106112Y-117486356D01*
X170159739Y-117382860D01*
X170239884Y-117228189D01*
X170239885Y-117228184D01*
X170239888Y-117228180D01*
X170337264Y-116954193D01*
X170396424Y-116669499D01*
X170416267Y-116379400D01*
X170410021Y-116288091D01*
X170396425Y-116089314D01*
X170396424Y-116089308D01*
X170396424Y-116089301D01*
X170337264Y-115804607D01*
X170239888Y-115530620D01*
X170239886Y-115530617D01*
X170239884Y-115530610D01*
X170106118Y-115272455D01*
X170106116Y-115272452D01*
X170106112Y-115272444D01*
X169938427Y-115034888D01*
X169739957Y-114822378D01*
X169514398Y-114638873D01*
X169265953Y-114487790D01*
X169265949Y-114487788D01*
X169265947Y-114487787D01*
X169125338Y-114426712D01*
X168999250Y-114371944D01*
X168770028Y-114307719D01*
X168719253Y-114293493D01*
X168719255Y-114293493D01*
X168431201Y-114253900D01*
X168431188Y-114253900D01*
X168140412Y-114253900D01*
X168140398Y-114253900D01*
X167852351Y-114293492D01*
X167852333Y-114293496D01*
X167785743Y-114312153D01*
X167714752Y-114311270D01*
X167655508Y-114272147D01*
X167626820Y-114207204D01*
X167629607Y-114159891D01*
X167631934Y-114150705D01*
X167651100Y-113919400D01*
X167631934Y-113688095D01*
X167631933Y-113688091D01*
X167631932Y-113688085D01*
X167574957Y-113463100D01*
X167574955Y-113463096D01*
X167540476Y-113384493D01*
X167481724Y-113250551D01*
X167357274Y-113060066D01*
X167354781Y-113056250D01*
X167354780Y-113056249D01*
X167354779Y-113056247D01*
X167197584Y-112885487D01*
X167014426Y-112742930D01*
X167014425Y-112742929D01*
X166810302Y-112632463D01*
X166810300Y-112632462D01*
X166590785Y-112557103D01*
X166590778Y-112557101D01*
X166492800Y-112540752D01*
X166361849Y-112518900D01*
X166129751Y-112518900D01*
X166015183Y-112538018D01*
X165900821Y-112557101D01*
X165900814Y-112557103D01*
X165681299Y-112632462D01*
X165681297Y-112632463D01*
X165477174Y-112742929D01*
X165477173Y-112742930D01*
X165294013Y-112885489D01*
X165136818Y-113056250D01*
X165009875Y-113250551D01*
X164916644Y-113463096D01*
X164916642Y-113463100D01*
X164859667Y-113688085D01*
X164859666Y-113688091D01*
X164840500Y-113919400D01*
X164859666Y-114150708D01*
X164859667Y-114150714D01*
X164916642Y-114375699D01*
X164916644Y-114375703D01*
X165009875Y-114588248D01*
X165095245Y-114718917D01*
X165136821Y-114782553D01*
X165294016Y-114953313D01*
X165427361Y-115057099D01*
X165477173Y-115095869D01*
X165477174Y-115095870D01*
X165681297Y-115206336D01*
X165681299Y-115206337D01*
X165757399Y-115232462D01*
X165900819Y-115281698D01*
X166129751Y-115319900D01*
X166129755Y-115319900D01*
X166233700Y-115319900D01*
X166301821Y-115339902D01*
X166348314Y-115393558D01*
X166358418Y-115463832D01*
X166345574Y-115503866D01*
X166342183Y-115510412D01*
X166331712Y-115530619D01*
X166234336Y-115804605D01*
X166234334Y-115804613D01*
X166202703Y-115956835D01*
X166175713Y-116086721D01*
X166175175Y-116089308D01*
X166175174Y-116089314D01*
X166155333Y-116379395D01*
X166155333Y-116379404D01*
X166175174Y-116669485D01*
X166175175Y-116669495D01*
X166195411Y-116766879D01*
X166189686Y-116837644D01*
X166146611Y-116894081D01*
X166079862Y-116918270D01*
X166054889Y-116917339D01*
X165884361Y-116893900D01*
X165884348Y-116893900D01*
X165607252Y-116893900D01*
X165607238Y-116893900D01*
X165436709Y-116917339D01*
X165366499Y-116906799D01*
X165313133Y-116859974D01*
X165293554Y-116791730D01*
X165296188Y-116766879D01*
X165316424Y-116669499D01*
X165336267Y-116379400D01*
X165330021Y-116288091D01*
X165316425Y-116089314D01*
X165316424Y-116089308D01*
X165316424Y-116089301D01*
X165257264Y-115804607D01*
X165159888Y-115530620D01*
X165159886Y-115530617D01*
X165159884Y-115530610D01*
X165026118Y-115272455D01*
X165026116Y-115272452D01*
X165026112Y-115272444D01*
X164858427Y-115034888D01*
X164659957Y-114822378D01*
X164434398Y-114638873D01*
X164185953Y-114487790D01*
X164185949Y-114487788D01*
X164185947Y-114487787D01*
X164045338Y-114426712D01*
X163919250Y-114371944D01*
X163690028Y-114307719D01*
X163639253Y-114293493D01*
X163639255Y-114293493D01*
X163351201Y-114253900D01*
X163351188Y-114253900D01*
X163060412Y-114253900D01*
X163060398Y-114253900D01*
X162772345Y-114293493D01*
X162598515Y-114342198D01*
X162492350Y-114371944D01*
X162492348Y-114371945D01*
X162225652Y-114487787D01*
X162225647Y-114487789D01*
X162225647Y-114487790D01*
X162060450Y-114588249D01*
X161977199Y-114638875D01*
X161751648Y-114822374D01*
X161751640Y-114822381D01*
X161592113Y-114993193D01*
X161553173Y-115034888D01*
X161413711Y-115232462D01*
X161385489Y-115272443D01*
X161385485Y-115272449D01*
X161302415Y-115432766D01*
X161253316Y-115484047D01*
X161184286Y-115500642D01*
X161117242Y-115477282D01*
X161089676Y-115450309D01*
X161047887Y-115394485D01*
X161047882Y-115394480D01*
X161047880Y-115394477D01*
X160860725Y-115207322D01*
X160860716Y-115207314D01*
X160833948Y-115187276D01*
X160648811Y-115048684D01*
X160648809Y-115048683D01*
X160648808Y-115048682D01*
X160416492Y-114921827D01*
X160416489Y-114921826D01*
X160168478Y-114829323D01*
X160168476Y-114829322D01*
X160168472Y-114829321D01*
X160035515Y-114800398D01*
X159973203Y-114766373D01*
X159939178Y-114704061D01*
X159936299Y-114677278D01*
X159936299Y-113161372D01*
X159936299Y-113161364D01*
X159925686Y-113041982D01*
X159869709Y-112846351D01*
X159775498Y-112665993D01*
X159646909Y-112508291D01*
X159489207Y-112379702D01*
X159489205Y-112379701D01*
X159489204Y-112379700D01*
X159308851Y-112285492D01*
X159308850Y-112285491D01*
X159308849Y-112285491D01*
X159113218Y-112229514D01*
X158993837Y-112218900D01*
X158993832Y-112218900D01*
X157177772Y-112218900D01*
X157177762Y-112218901D01*
X157058388Y-112229513D01*
X157058385Y-112229513D01*
X157058382Y-112229514D01*
X156949844Y-112260570D01*
X156862742Y-112285493D01*
X156862539Y-112285575D01*
X156862418Y-112285586D01*
X156856608Y-112287249D01*
X156856298Y-112286166D01*
X156791859Y-112292270D01*
X156769061Y-112285575D01*
X156768857Y-112285493D01*
X156703196Y-112266705D01*
X156573218Y-112229514D01*
X156453837Y-112218900D01*
X156453832Y-112218900D01*
X154637772Y-112218900D01*
X154637762Y-112218901D01*
X154518388Y-112229513D01*
X154518385Y-112229513D01*
X154518382Y-112229514D01*
X154378564Y-112269520D01*
X154322750Y-112285491D01*
X154191992Y-112353793D01*
X154122351Y-112367603D01*
X154087260Y-112353772D01*
X154089563Y-112387755D01*
X154055304Y-112449939D01*
X154046169Y-112458162D01*
X153984691Y-112508290D01*
X153856100Y-112665995D01*
X153761892Y-112846348D01*
X153761891Y-112846350D01*
X153761891Y-112846351D01*
X153705914Y-113041982D01*
X153704646Y-113056250D01*
X153695300Y-113161365D01*
X153695300Y-114763405D01*
X153675298Y-114831526D01*
X153621642Y-114878019D01*
X153613333Y-114881460D01*
X153505119Y-114921822D01*
X153505107Y-114921827D01*
X153272791Y-115048682D01*
X153060883Y-115207314D01*
X153060874Y-115207322D01*
X152873722Y-115394474D01*
X152873714Y-115394483D01*
X152715082Y-115606391D01*
X152588227Y-115838707D01*
X152588226Y-115838711D01*
X152495723Y-116086721D01*
X152439456Y-116345377D01*
X152420573Y-116609400D01*
X152439456Y-116873422D01*
X152439457Y-116873426D01*
X152495723Y-117132078D01*
X152531570Y-117228189D01*
X152588226Y-117380088D01*
X152588227Y-117380092D01*
X152706051Y-117595869D01*
X152715084Y-117612411D01*
X152841810Y-117781698D01*
X152873714Y-117824316D01*
X152873722Y-117824325D01*
X153060874Y-118011477D01*
X153060883Y-118011485D01*
X153060885Y-118011487D01*
X153272789Y-118170116D01*
X153272791Y-118170117D01*
X153457561Y-118271010D01*
X153505111Y-118296974D01*
X153753122Y-118389477D01*
X154011774Y-118445743D01*
X154275800Y-118464627D01*
X154539826Y-118445743D01*
X154798478Y-118389477D01*
X155046489Y-118296974D01*
X155278811Y-118170116D01*
X155490715Y-118011487D01*
X155677887Y-117824315D01*
X155836516Y-117612411D01*
X155963374Y-117380089D01*
X156055877Y-117132078D01*
X156112143Y-116873426D01*
X156131027Y-116609400D01*
X156112143Y-116345374D01*
X156055877Y-116086722D01*
X156055874Y-116086713D01*
X156054610Y-116082407D01*
X156056505Y-116081850D01*
X156051999Y-116019160D01*
X156086002Y-115956835D01*
X156148302Y-115922788D01*
X156175129Y-115919899D01*
X156453828Y-115919899D01*
X156453836Y-115919899D01*
X156573218Y-115909286D01*
X156768849Y-115853309D01*
X156768853Y-115853306D01*
X156769038Y-115853233D01*
X156769152Y-115853222D01*
X156774993Y-115851551D01*
X156775304Y-115852638D01*
X156839717Y-115846525D01*
X156862562Y-115853233D01*
X156862749Y-115853308D01*
X156862751Y-115853309D01*
X157058382Y-115909286D01*
X157177763Y-115919900D01*
X157746470Y-115919899D01*
X157814591Y-115939901D01*
X157861084Y-115993557D01*
X157871188Y-116063830D01*
X157866488Y-116082259D01*
X157866990Y-116082407D01*
X157865725Y-116086713D01*
X157809456Y-116345377D01*
X157790573Y-116609400D01*
X157809456Y-116873422D01*
X157809457Y-116873426D01*
X157865723Y-117132078D01*
X157901570Y-117228189D01*
X157958226Y-117380088D01*
X157958227Y-117380092D01*
X158076051Y-117595869D01*
X158085084Y-117612411D01*
X158211810Y-117781698D01*
X158243714Y-117824316D01*
X158243722Y-117824325D01*
X158430874Y-118011477D01*
X158430883Y-118011485D01*
X158430885Y-118011487D01*
X158642789Y-118170116D01*
X158642791Y-118170117D01*
X158827561Y-118271010D01*
X158875111Y-118296974D01*
X159123122Y-118389477D01*
X159381774Y-118445743D01*
X159645800Y-118464627D01*
X159909826Y-118445743D01*
X160168478Y-118389477D01*
X160416489Y-118296974D01*
X160648811Y-118170116D01*
X160860715Y-118011487D01*
X161047887Y-117824315D01*
X161206516Y-117612411D01*
X161226474Y-117575859D01*
X161276675Y-117525657D01*
X161346049Y-117510565D01*
X161412570Y-117535375D01*
X161439999Y-117563581D01*
X161553173Y-117723912D01*
X161751643Y-117936422D01*
X161977202Y-118119927D01*
X162225647Y-118271010D01*
X162492350Y-118386856D01*
X162772344Y-118465306D01*
X163060398Y-118504899D01*
X163060412Y-118504900D01*
X163351188Y-118504900D01*
X163351198Y-118504899D01*
X163465232Y-118489224D01*
X163598438Y-118470916D01*
X163668647Y-118481455D01*
X163722014Y-118528280D01*
X163741593Y-118596524D01*
X163738960Y-118621375D01*
X163734477Y-118642950D01*
X163734475Y-118642963D01*
X163715567Y-118919395D01*
X163715567Y-118919404D01*
X163734475Y-119195836D01*
X163734476Y-119195846D01*
X163738960Y-119217423D01*
X163733235Y-119288189D01*
X163690160Y-119344625D01*
X163623411Y-119368814D01*
X163598438Y-119367883D01*
X163351201Y-119333900D01*
X163351188Y-119333900D01*
X163060412Y-119333900D01*
X163060398Y-119333900D01*
X162772345Y-119373493D01*
X162632040Y-119412805D01*
X162492350Y-119451944D01*
X162492348Y-119451945D01*
X162225652Y-119567787D01*
X161977199Y-119718875D01*
X161751648Y-119902374D01*
X161751640Y-119902381D01*
X161553172Y-120114888D01*
X161483142Y-120214098D01*
X161427516Y-120258216D01*
X161356870Y-120265256D01*
X161293632Y-120232985D01*
X161282552Y-120221060D01*
X161206911Y-120128293D01*
X161206909Y-120128291D01*
X161049207Y-119999702D01*
X161049205Y-119999701D01*
X161049204Y-119999700D01*
X160868851Y-119905492D01*
X160868850Y-119905491D01*
X160868849Y-119905491D01*
X160673218Y-119849514D01*
X160553837Y-119838900D01*
X160553832Y-119838900D01*
X158737772Y-119838900D01*
X158737762Y-119838901D01*
X158618388Y-119849513D01*
X158618385Y-119849513D01*
X158618382Y-119849514D01*
X158422751Y-119905491D01*
X158422748Y-119905492D01*
X158242395Y-119999700D01*
X158084691Y-120128291D01*
X157956100Y-120285995D01*
X157861892Y-120466348D01*
X157861891Y-120466350D01*
X157861891Y-120466351D01*
X157805914Y-120661982D01*
X157805914Y-120661988D01*
X157795300Y-120781365D01*
X157795300Y-122252900D01*
X157775298Y-122321021D01*
X157721642Y-122367514D01*
X157669300Y-122378900D01*
X157177772Y-122378900D01*
X157177762Y-122378901D01*
X157058388Y-122389513D01*
X157058385Y-122389513D01*
X157058382Y-122389514D01*
X156949844Y-122420570D01*
X156862742Y-122445493D01*
X156862539Y-122445575D01*
X156862418Y-122445586D01*
X156856608Y-122447249D01*
X156856298Y-122446166D01*
X156791859Y-122452270D01*
X156769061Y-122445575D01*
X156768857Y-122445493D01*
X156703196Y-122426705D01*
X156573218Y-122389514D01*
X156453837Y-122378900D01*
X156453834Y-122378900D01*
X156252299Y-122378900D01*
X156184178Y-122358898D01*
X156137685Y-122305242D01*
X156126299Y-122252900D01*
X156126299Y-120781372D01*
X156126299Y-120781364D01*
X156115686Y-120661982D01*
X156059709Y-120466351D01*
X155965498Y-120285993D01*
X155836909Y-120128291D01*
X155679207Y-119999702D01*
X155679205Y-119999701D01*
X155679204Y-119999700D01*
X155498851Y-119905492D01*
X155498850Y-119905491D01*
X155498849Y-119905491D01*
X155303218Y-119849514D01*
X155183837Y-119838900D01*
X155183832Y-119838900D01*
X153367772Y-119838900D01*
X153367762Y-119838901D01*
X153248388Y-119849513D01*
X153248385Y-119849513D01*
X153248382Y-119849514D01*
X153052751Y-119905491D01*
X153052748Y-119905492D01*
X152872395Y-119999700D01*
X152714691Y-120128291D01*
X152586100Y-120285995D01*
X152491892Y-120466348D01*
X152491891Y-120466350D01*
X152491891Y-120466351D01*
X152435914Y-120661982D01*
X152435914Y-120661988D01*
X152425300Y-120781365D01*
X152425300Y-122597427D01*
X152425301Y-122597437D01*
X152435241Y-122709256D01*
X152435914Y-122716818D01*
X152484913Y-122888061D01*
X152491892Y-122912451D01*
X152577167Y-123075703D01*
X152586102Y-123092807D01*
X152714691Y-123250509D01*
X152872393Y-123379098D01*
X153052751Y-123473309D01*
X153248382Y-123529286D01*
X153367763Y-123539900D01*
X153569300Y-123539899D01*
X153637420Y-123559901D01*
X153683913Y-123613556D01*
X153695300Y-123665899D01*
X153695300Y-125137427D01*
X153695301Y-125137437D01*
X153700925Y-125200705D01*
X153705914Y-125256818D01*
X153761891Y-125452449D01*
X153761892Y-125452451D01*
X153849098Y-125619400D01*
X153856102Y-125632807D01*
X153984691Y-125790509D01*
X154142393Y-125919098D01*
X154322751Y-126013309D01*
X154518382Y-126069286D01*
X154637763Y-126079900D01*
X156453836Y-126079899D01*
X156573218Y-126069286D01*
X156768849Y-126013309D01*
X156768853Y-126013306D01*
X156769038Y-126013233D01*
X156769152Y-126013222D01*
X156774993Y-126011551D01*
X156775304Y-126012638D01*
X156839717Y-126006525D01*
X156862562Y-126013233D01*
X156862747Y-126013307D01*
X156862751Y-126013309D01*
X157058382Y-126069286D01*
X157177763Y-126079900D01*
X158993836Y-126079899D01*
X159113218Y-126069286D01*
X159308849Y-126013309D01*
X159489207Y-125919098D01*
X159646909Y-125790509D01*
X159775498Y-125632807D01*
X159869709Y-125452449D01*
X159925686Y-125256818D01*
X159936300Y-125137437D01*
X159936299Y-123665898D01*
X159956301Y-123597778D01*
X160009957Y-123551285D01*
X160062299Y-123539899D01*
X160553828Y-123539899D01*
X160553836Y-123539899D01*
X160673218Y-123529286D01*
X160868849Y-123473309D01*
X161049207Y-123379098D01*
X161206909Y-123250509D01*
X161335498Y-123092807D01*
X161427998Y-122915723D01*
X161477265Y-122864607D01*
X161546349Y-122848240D01*
X161613315Y-122871820D01*
X161631760Y-122888058D01*
X161751643Y-123016422D01*
X161977202Y-123199927D01*
X162225647Y-123351010D01*
X162492350Y-123466856D01*
X162772344Y-123545306D01*
X162772343Y-123545306D01*
X162810912Y-123550607D01*
X162945689Y-123569131D01*
X163010450Y-123598222D01*
X163049204Y-123657708D01*
X163054100Y-123683550D01*
X163059665Y-123750705D01*
X163116642Y-123975699D01*
X163117601Y-123978491D01*
X163117655Y-123979698D01*
X163117922Y-123980751D01*
X163117705Y-123980805D01*
X163120800Y-124049416D01*
X163117601Y-124060309D01*
X163116642Y-124063100D01*
X163059667Y-124288085D01*
X163059666Y-124288091D01*
X163040500Y-124519400D01*
X163059666Y-124750708D01*
X163059667Y-124750714D01*
X163116642Y-124975699D01*
X163117601Y-124978491D01*
X163117655Y-124979698D01*
X163117922Y-124980751D01*
X163117705Y-124980805D01*
X163120800Y-125049416D01*
X163117601Y-125060309D01*
X163116642Y-125063100D01*
X163059667Y-125288085D01*
X163059666Y-125288091D01*
X163040500Y-125519400D01*
X163059666Y-125750708D01*
X163059667Y-125750714D01*
X163116642Y-125975699D01*
X163117601Y-125978491D01*
X163117655Y-125979698D01*
X163117922Y-125980751D01*
X163117705Y-125980805D01*
X163120800Y-126049416D01*
X163117601Y-126060309D01*
X163116642Y-126063100D01*
X163059667Y-126288085D01*
X163059666Y-126288091D01*
X163043553Y-126482549D01*
X163040500Y-126519400D01*
X163052036Y-126658627D01*
X163058199Y-126732995D01*
X163043890Y-126802535D01*
X162994257Y-126853300D01*
X162932629Y-126869400D01*
X134306107Y-126869400D01*
X134237986Y-126849398D01*
X134191493Y-126795742D01*
X134181389Y-126725468D01*
X134183963Y-126712468D01*
X134231932Y-126523046D01*
X134231933Y-126523040D01*
X134231934Y-126523037D01*
X134251100Y-126291732D01*
X134231934Y-126060427D01*
X134231933Y-126060423D01*
X134231932Y-126060417D01*
X134174957Y-125835432D01*
X134174955Y-125835428D01*
X134134808Y-125743903D01*
X134081724Y-125622883D01*
X133954779Y-125428579D01*
X133797584Y-125257819D01*
X133781539Y-125245330D01*
X133740069Y-125187707D01*
X133736335Y-125116808D01*
X133771525Y-125055146D01*
X133834466Y-125022298D01*
X133858931Y-125019900D01*
X133961845Y-125019900D01*
X133961849Y-125019900D01*
X134190781Y-124981698D01*
X134410303Y-124906336D01*
X134614426Y-124795870D01*
X134797584Y-124653313D01*
X134828803Y-124619400D01*
X138940500Y-124619400D01*
X138959666Y-124850708D01*
X138959667Y-124850714D01*
X139016642Y-125075699D01*
X139016644Y-125075703D01*
X139109875Y-125288248D01*
X139199674Y-125425696D01*
X139236821Y-125482553D01*
X139394016Y-125653313D01*
X139570285Y-125790508D01*
X139577173Y-125795869D01*
X139577174Y-125795870D01*
X139781297Y-125906336D01*
X139781299Y-125906337D01*
X139818471Y-125919098D01*
X140000819Y-125981698D01*
X140229751Y-126019900D01*
X140229755Y-126019900D01*
X140461845Y-126019900D01*
X140461849Y-126019900D01*
X140690781Y-125981698D01*
X140910303Y-125906336D01*
X141114426Y-125795870D01*
X141297584Y-125653313D01*
X141454779Y-125482553D01*
X141581724Y-125288249D01*
X141674957Y-125075700D01*
X141731934Y-124850705D01*
X141751100Y-124619400D01*
X141731934Y-124388095D01*
X141731933Y-124388091D01*
X141731932Y-124388085D01*
X141674957Y-124163100D01*
X141674955Y-124163096D01*
X141641045Y-124085790D01*
X141581724Y-123950551D01*
X141454779Y-123756247D01*
X141297584Y-123585487D01*
X141114426Y-123442930D01*
X141114425Y-123442929D01*
X140910302Y-123332463D01*
X140910300Y-123332462D01*
X140690785Y-123257103D01*
X140690778Y-123257101D01*
X140592800Y-123240752D01*
X140461849Y-123218900D01*
X140229751Y-123218900D01*
X140115183Y-123238018D01*
X140000821Y-123257101D01*
X140000814Y-123257103D01*
X139781299Y-123332462D01*
X139781297Y-123332463D01*
X139577174Y-123442929D01*
X139577173Y-123442930D01*
X139394013Y-123585489D01*
X139236818Y-123756250D01*
X139109875Y-123950551D01*
X139016644Y-124163096D01*
X139016642Y-124163100D01*
X138959667Y-124388085D01*
X138959666Y-124388091D01*
X138940500Y-124619400D01*
X134828803Y-124619400D01*
X134954779Y-124482553D01*
X135081724Y-124288249D01*
X135174957Y-124075700D01*
X135231934Y-123850705D01*
X135251100Y-123619400D01*
X135231934Y-123388095D01*
X135231933Y-123388091D01*
X135231932Y-123388085D01*
X135174957Y-123163100D01*
X135174955Y-123163096D01*
X135144123Y-123092807D01*
X135081724Y-122950551D01*
X134954779Y-122756247D01*
X134824716Y-122614960D01*
X134797586Y-122585489D01*
X134797585Y-122585488D01*
X134797584Y-122585487D01*
X134614426Y-122442930D01*
X134614425Y-122442929D01*
X134410302Y-122332463D01*
X134410300Y-122332462D01*
X134190785Y-122257103D01*
X134190778Y-122257101D01*
X134092800Y-122240752D01*
X133961849Y-122218900D01*
X133729751Y-122218900D01*
X133615183Y-122238018D01*
X133500821Y-122257101D01*
X133500814Y-122257103D01*
X133281299Y-122332462D01*
X133281297Y-122332463D01*
X133077174Y-122442929D01*
X133077173Y-122442930D01*
X132894013Y-122585489D01*
X132736818Y-122756250D01*
X132609875Y-122950551D01*
X132516644Y-123163096D01*
X132516642Y-123163100D01*
X132459667Y-123388085D01*
X132459666Y-123388091D01*
X132440500Y-123619400D01*
X132459666Y-123850708D01*
X132459667Y-123850714D01*
X132516642Y-124075699D01*
X132516644Y-124075703D01*
X132609875Y-124288248D01*
X132736820Y-124482553D01*
X132810143Y-124562203D01*
X132841564Y-124625868D01*
X132833577Y-124696414D01*
X132788718Y-124751443D01*
X132721229Y-124773483D01*
X132688043Y-124770062D01*
X132684675Y-124769253D01*
X132629741Y-124760552D01*
X132509684Y-124741537D01*
X132509681Y-124741537D01*
X131423168Y-124741537D01*
X131355047Y-124721535D01*
X131345777Y-124714968D01*
X131314434Y-124690572D01*
X131314420Y-124690563D01*
X131146452Y-124599663D01*
X131096062Y-124549650D01*
X131080710Y-124480333D01*
X131105271Y-124413720D01*
X131129032Y-124389418D01*
X131130745Y-124388085D01*
X131299742Y-124256550D01*
X131456937Y-124085790D01*
X131583882Y-123891486D01*
X131677115Y-123678937D01*
X131734092Y-123453942D01*
X131753258Y-123222637D01*
X131734092Y-122991332D01*
X131734091Y-122991328D01*
X131734090Y-122991322D01*
X131677115Y-122766337D01*
X131677113Y-122766333D01*
X131667935Y-122745410D01*
X131583882Y-122553788D01*
X131476556Y-122389513D01*
X131456939Y-122359487D01*
X131456938Y-122359486D01*
X131456937Y-122359484D01*
X131299742Y-122188724D01*
X131116584Y-122046167D01*
X131116583Y-122046166D01*
X130912460Y-121935700D01*
X130912458Y-121935699D01*
X130692943Y-121860340D01*
X130692936Y-121860338D01*
X130588481Y-121842908D01*
X130464007Y-121822137D01*
X130231909Y-121822137D01*
X130117341Y-121841255D01*
X130002979Y-121860338D01*
X130002972Y-121860340D01*
X129783457Y-121935699D01*
X129783455Y-121935700D01*
X129579332Y-122046166D01*
X129579331Y-122046167D01*
X129396171Y-122188726D01*
X129238976Y-122359487D01*
X129112033Y-122553788D01*
X129018802Y-122766333D01*
X129018800Y-122766337D01*
X128961825Y-122991322D01*
X128961824Y-122991328D01*
X128942658Y-123222637D01*
X128961824Y-123453945D01*
X128961825Y-123453951D01*
X129018800Y-123678936D01*
X129018802Y-123678940D01*
X129112033Y-123891485D01*
X129232388Y-124075703D01*
X129238979Y-124085790D01*
X129396174Y-124256550D01*
X129517974Y-124351350D01*
X129566883Y-124389418D01*
X129579332Y-124399107D01*
X129747306Y-124490010D01*
X129797695Y-124540023D01*
X129813047Y-124609340D01*
X129788486Y-124675953D01*
X129764726Y-124700255D01*
X129594013Y-124833126D01*
X129436818Y-125003887D01*
X129309878Y-125198184D01*
X129309871Y-125198196D01*
X129273797Y-125280437D01*
X129228116Y-125334785D01*
X129218385Y-125340633D01*
X129162399Y-125370931D01*
X129052171Y-125430584D01*
X128869013Y-125573142D01*
X128711818Y-125743903D01*
X128584875Y-125938204D01*
X128491644Y-126150749D01*
X128491642Y-126150753D01*
X128434667Y-126375738D01*
X128434666Y-126375744D01*
X128422461Y-126523040D01*
X128415500Y-126607053D01*
X128426764Y-126742997D01*
X128412456Y-126812535D01*
X128362823Y-126863300D01*
X128301195Y-126879400D01*
X127466428Y-126879400D01*
X127398307Y-126859398D01*
X127351814Y-126805742D01*
X127340858Y-126742998D01*
X127351100Y-126619400D01*
X127331934Y-126388095D01*
X127331933Y-126388091D01*
X127331932Y-126388085D01*
X127274957Y-126163100D01*
X127274955Y-126163096D01*
X127270084Y-126151992D01*
X127181724Y-125950551D01*
X127054779Y-125756247D01*
X126897584Y-125585487D01*
X126714426Y-125442930D01*
X126714425Y-125442929D01*
X126510302Y-125332463D01*
X126510300Y-125332462D01*
X126290785Y-125257103D01*
X126290778Y-125257101D01*
X126183536Y-125239206D01*
X126061849Y-125218900D01*
X125829751Y-125218900D01*
X125715183Y-125238018D01*
X125600821Y-125257101D01*
X125600814Y-125257103D01*
X125381299Y-125332462D01*
X125381297Y-125332463D01*
X125177174Y-125442929D01*
X125177173Y-125442930D01*
X124994013Y-125585489D01*
X124836818Y-125756250D01*
X124709875Y-125950551D01*
X124616644Y-126163096D01*
X124616642Y-126163100D01*
X124559667Y-126388085D01*
X124559666Y-126388091D01*
X124548484Y-126523040D01*
X124540500Y-126619400D01*
X124550741Y-126742998D01*
X124536433Y-126812535D01*
X124486800Y-126863300D01*
X124425172Y-126879400D01*
X115872518Y-126879400D01*
X115804397Y-126859398D01*
X115757904Y-126805742D01*
X115746518Y-126753403D01*
X115746488Y-122619400D01*
X124340500Y-122619400D01*
X124359666Y-122850708D01*
X124359667Y-122850714D01*
X124416642Y-123075699D01*
X124416644Y-123075703D01*
X124509875Y-123288248D01*
X124630781Y-123473309D01*
X124636821Y-123482553D01*
X124794016Y-123653313D01*
X124926270Y-123756250D01*
X124977173Y-123795869D01*
X124977174Y-123795870D01*
X125181297Y-123906336D01*
X125181299Y-123906337D01*
X125296554Y-123945904D01*
X125400819Y-123981698D01*
X125629751Y-124019900D01*
X125629755Y-124019900D01*
X125861845Y-124019900D01*
X125861849Y-124019900D01*
X126090781Y-123981698D01*
X126310303Y-123906336D01*
X126514426Y-123795870D01*
X126697584Y-123653313D01*
X126854779Y-123482553D01*
X126981724Y-123288249D01*
X127074957Y-123075700D01*
X127131934Y-122850705D01*
X127151100Y-122619400D01*
X127131934Y-122388095D01*
X127131933Y-122388091D01*
X127131932Y-122388085D01*
X127074957Y-122163100D01*
X127074955Y-122163096D01*
X127022243Y-122042926D01*
X126981724Y-121950551D01*
X126854779Y-121756247D01*
X126697584Y-121585487D01*
X126514426Y-121442930D01*
X126514425Y-121442929D01*
X126310302Y-121332463D01*
X126310300Y-121332462D01*
X126090785Y-121257103D01*
X126090778Y-121257101D01*
X125992800Y-121240752D01*
X125861849Y-121218900D01*
X125629751Y-121218900D01*
X125515183Y-121238018D01*
X125400821Y-121257101D01*
X125400814Y-121257103D01*
X125181299Y-121332462D01*
X125181297Y-121332463D01*
X124977174Y-121442929D01*
X124977173Y-121442930D01*
X124794013Y-121585489D01*
X124636818Y-121756250D01*
X124509875Y-121950551D01*
X124416644Y-122163096D01*
X124416642Y-122163100D01*
X124359667Y-122388085D01*
X124359666Y-122388091D01*
X124340500Y-122619400D01*
X115746488Y-122619400D01*
X115746413Y-112239392D01*
X123120222Y-112239392D01*
X123120222Y-112239407D01*
X123140520Y-112626729D01*
X123201198Y-113009833D01*
X123301587Y-113384493D01*
X123440581Y-113746584D01*
X123440585Y-113746592D01*
X123616676Y-114092192D01*
X123721691Y-114253900D01*
X123827924Y-114417484D01*
X123827929Y-114417490D01*
X123827931Y-114417493D01*
X124072006Y-114718902D01*
X124072020Y-114718917D01*
X124346282Y-114993179D01*
X124346297Y-114993193D01*
X124610716Y-115207314D01*
X124647716Y-115237276D01*
X124810409Y-115342930D01*
X124973007Y-115448523D01*
X124973011Y-115448525D01*
X125318606Y-115624614D01*
X125318610Y-115624615D01*
X125318615Y-115624618D01*
X125680706Y-115763612D01*
X125680711Y-115763613D01*
X125680713Y-115763614D01*
X126055367Y-115864002D01*
X126438462Y-115924678D01*
X126438464Y-115924678D01*
X126438470Y-115924679D01*
X126825793Y-115944978D01*
X126825800Y-115944978D01*
X126825807Y-115944978D01*
X127213129Y-115924679D01*
X127213133Y-115924678D01*
X127213138Y-115924678D01*
X127596233Y-115864002D01*
X127970887Y-115763614D01*
X127970890Y-115763612D01*
X127970893Y-115763612D01*
X128332984Y-115624618D01*
X128332985Y-115624617D01*
X128332994Y-115624614D01*
X128678589Y-115448525D01*
X129003884Y-115237276D01*
X129226379Y-115057103D01*
X129305302Y-114993193D01*
X129305307Y-114993187D01*
X129305316Y-114993181D01*
X129579581Y-114718916D01*
X129579587Y-114718907D01*
X129579593Y-114718902D01*
X129766743Y-114487790D01*
X129823676Y-114417484D01*
X130034925Y-114092189D01*
X130211014Y-113746594D01*
X130285209Y-113553310D01*
X130350012Y-113384493D01*
X130350533Y-113382549D01*
X130450402Y-113009833D01*
X130511078Y-112626738D01*
X130511078Y-112626733D01*
X130511079Y-112626729D01*
X130531378Y-112239407D01*
X130531378Y-112239392D01*
X130511079Y-111852070D01*
X130511078Y-111852062D01*
X130450402Y-111468967D01*
X130350014Y-111094313D01*
X130350013Y-111094311D01*
X130350012Y-111094306D01*
X130211018Y-110732215D01*
X130211014Y-110732207D01*
X130211014Y-110732206D01*
X130036346Y-110389400D01*
X146392500Y-110389400D01*
X146411666Y-110620708D01*
X146411667Y-110620714D01*
X146468642Y-110845699D01*
X146468644Y-110845703D01*
X146561875Y-111058248D01*
X146585437Y-111094313D01*
X146688821Y-111252553D01*
X146846016Y-111423313D01*
X147016163Y-111555743D01*
X147029173Y-111565869D01*
X147029174Y-111565870D01*
X147233297Y-111676336D01*
X147233299Y-111676337D01*
X147348554Y-111715904D01*
X147452819Y-111751698D01*
X147475840Y-111755539D01*
X147539740Y-111786479D01*
X147547795Y-111794474D01*
X147554788Y-111802070D01*
X147682625Y-111940940D01*
X147714045Y-112004606D01*
X147706058Y-112075151D01*
X147661198Y-112130180D01*
X147610663Y-112150558D01*
X147589645Y-112154065D01*
X147589634Y-112154068D01*
X147370115Y-112229428D01*
X147370113Y-112229429D01*
X147165990Y-112339895D01*
X147165989Y-112339896D01*
X146982829Y-112482455D01*
X146825634Y-112653216D01*
X146698691Y-112847517D01*
X146605460Y-113060062D01*
X146605458Y-113060066D01*
X146548483Y-113285051D01*
X146548482Y-113285057D01*
X146529316Y-113516366D01*
X146548482Y-113747674D01*
X146548483Y-113747680D01*
X146605458Y-113972665D01*
X146605460Y-113972669D01*
X146698691Y-114185214D01*
X146823143Y-114375703D01*
X146825637Y-114379519D01*
X146982832Y-114550279D01*
X147165990Y-114692836D01*
X147301874Y-114766373D01*
X147327663Y-114780329D01*
X147378054Y-114830343D01*
X147383081Y-114840529D01*
X147405800Y-114892323D01*
X147513455Y-115057102D01*
X147532746Y-115086628D01*
X147689941Y-115257388D01*
X147866084Y-115394485D01*
X147873098Y-115399944D01*
X147873099Y-115399945D01*
X148077222Y-115510411D01*
X148077224Y-115510412D01*
X148192479Y-115549979D01*
X148296744Y-115585773D01*
X148309827Y-115587956D01*
X148373728Y-115618896D01*
X148410757Y-115679471D01*
X148409158Y-115750449D01*
X148404480Y-115762851D01*
X148316642Y-115963101D01*
X148259667Y-116188085D01*
X148259666Y-116188091D01*
X148240500Y-116419400D01*
X148259666Y-116650708D01*
X148259667Y-116650714D01*
X148316642Y-116875699D01*
X148316644Y-116875703D01*
X148409875Y-117088248D01*
X148475208Y-117188248D01*
X148536821Y-117282553D01*
X148694016Y-117453313D01*
X148851465Y-117575860D01*
X148877173Y-117595869D01*
X148877174Y-117595870D01*
X149081297Y-117706336D01*
X149081299Y-117706337D01*
X149132491Y-117723911D01*
X149300819Y-117781698D01*
X149529751Y-117819900D01*
X149529755Y-117819900D01*
X149761845Y-117819900D01*
X149761849Y-117819900D01*
X149982503Y-117783079D01*
X150052985Y-117791596D01*
X150063212Y-117796549D01*
X150081289Y-117806332D01*
X150081292Y-117806333D01*
X150081297Y-117806336D01*
X150300819Y-117881698D01*
X150529751Y-117919900D01*
X150529755Y-117919900D01*
X150761845Y-117919900D01*
X150761849Y-117919900D01*
X150990781Y-117881698D01*
X151210303Y-117806336D01*
X151414426Y-117695870D01*
X151597584Y-117553313D01*
X151754779Y-117382553D01*
X151881724Y-117188249D01*
X151974957Y-116975700D01*
X152031934Y-116750705D01*
X152051100Y-116519400D01*
X152031934Y-116288095D01*
X152031933Y-116288091D01*
X152031932Y-116288085D01*
X151974957Y-116063100D01*
X151974955Y-116063096D01*
X151912142Y-115919898D01*
X151881724Y-115850551D01*
X151754779Y-115656247D01*
X151597584Y-115485487D01*
X151414426Y-115342930D01*
X151414425Y-115342929D01*
X151210302Y-115232463D01*
X151210300Y-115232462D01*
X150990785Y-115157103D01*
X150990778Y-115157101D01*
X150892800Y-115140752D01*
X150761849Y-115118900D01*
X150529751Y-115118900D01*
X150433406Y-115134976D01*
X150309097Y-115155720D01*
X150238613Y-115147202D01*
X150228391Y-115142252D01*
X150210308Y-115132466D01*
X150210300Y-115132462D01*
X149990785Y-115057103D01*
X149990769Y-115057099D01*
X149977691Y-115054917D01*
X149913792Y-115023975D01*
X149876766Y-114963398D01*
X149878368Y-114892419D01*
X149883045Y-114880022D01*
X149900368Y-114840529D01*
X149970882Y-114679775D01*
X150027859Y-114454780D01*
X150027858Y-114454780D01*
X150028072Y-114453939D01*
X150061119Y-114395776D01*
X150503482Y-113953415D01*
X150565790Y-113919393D01*
X150571770Y-113918244D01*
X150790781Y-113881698D01*
X151010303Y-113806336D01*
X151214426Y-113695870D01*
X151397584Y-113553313D01*
X151554779Y-113382553D01*
X151681724Y-113188249D01*
X151774957Y-112975700D01*
X151831934Y-112750705D01*
X151851100Y-112519400D01*
X151831934Y-112288095D01*
X151831933Y-112288091D01*
X151831932Y-112288085D01*
X151774957Y-112063100D01*
X151774955Y-112063096D01*
X151698259Y-111888248D01*
X151681724Y-111850551D01*
X151554779Y-111656247D01*
X151397584Y-111485487D01*
X151214426Y-111342930D01*
X151214420Y-111342926D01*
X151115502Y-111289394D01*
X151065112Y-111239381D01*
X151060085Y-111229195D01*
X150982171Y-111051569D01*
X151772669Y-111051569D01*
X151791835Y-111282877D01*
X151791836Y-111282883D01*
X151848811Y-111507868D01*
X151848813Y-111507872D01*
X151942044Y-111720417D01*
X152051693Y-111888248D01*
X152068990Y-111914722D01*
X152151734Y-112004606D01*
X152223488Y-112082553D01*
X152226185Y-112085482D01*
X152409342Y-112228038D01*
X152409343Y-112228039D01*
X152613466Y-112338505D01*
X152613468Y-112338506D01*
X152728723Y-112378073D01*
X152832988Y-112413867D01*
X153061920Y-112452069D01*
X153061924Y-112452069D01*
X153294014Y-112452069D01*
X153294018Y-112452069D01*
X153522950Y-112413867D01*
X153742472Y-112338505D01*
X153906574Y-112249696D01*
X153976005Y-112234866D01*
X154012943Y-112248801D01*
X154011049Y-112213063D01*
X154046217Y-112151389D01*
X154056245Y-112142695D01*
X154129753Y-112085482D01*
X154286948Y-111914722D01*
X154413893Y-111720418D01*
X154450412Y-111637161D01*
X154496092Y-111582814D01*
X154563904Y-111561789D01*
X154576934Y-111562269D01*
X154662763Y-111569900D01*
X156478836Y-111569899D01*
X156598218Y-111559286D01*
X156793849Y-111503309D01*
X156974207Y-111409098D01*
X157056866Y-111341697D01*
X157122300Y-111314151D01*
X157192240Y-111326353D01*
X157196877Y-111328762D01*
X157222824Y-111342930D01*
X157340111Y-111406974D01*
X157588122Y-111499477D01*
X157846774Y-111555743D01*
X158110800Y-111574627D01*
X158374826Y-111555743D01*
X158633478Y-111499477D01*
X158881489Y-111406974D01*
X159113811Y-111280116D01*
X159194918Y-111219400D01*
X161140500Y-111219400D01*
X161159666Y-111450708D01*
X161159667Y-111450714D01*
X161216642Y-111675699D01*
X161216644Y-111675703D01*
X161309875Y-111888248D01*
X161424111Y-112063100D01*
X161436821Y-112082553D01*
X161480665Y-112130180D01*
X161572107Y-112229514D01*
X161594016Y-112253313D01*
X161766748Y-112387755D01*
X161777173Y-112395869D01*
X161777174Y-112395870D01*
X161981297Y-112506336D01*
X161981299Y-112506337D01*
X162019351Y-112519400D01*
X162200819Y-112581698D01*
X162429751Y-112619900D01*
X162429755Y-112619900D01*
X162661845Y-112619900D01*
X162661849Y-112619900D01*
X162890781Y-112581698D01*
X163110303Y-112506336D01*
X163314426Y-112395870D01*
X163497584Y-112253313D01*
X163556427Y-112189392D01*
X201100222Y-112189392D01*
X201100222Y-112189407D01*
X201120520Y-112576729D01*
X201181198Y-112959833D01*
X201281587Y-113334493D01*
X201420581Y-113696584D01*
X201420585Y-113696592D01*
X201596676Y-114042192D01*
X201689557Y-114185215D01*
X201807924Y-114367484D01*
X201807929Y-114367490D01*
X201807931Y-114367493D01*
X202052006Y-114668902D01*
X202052020Y-114668917D01*
X202326282Y-114943179D01*
X202326297Y-114943193D01*
X202590453Y-115157101D01*
X202627716Y-115187276D01*
X202831324Y-115319500D01*
X202953007Y-115398523D01*
X202953011Y-115398525D01*
X203298606Y-115574614D01*
X203298610Y-115574615D01*
X203298615Y-115574618D01*
X203660706Y-115713612D01*
X203660711Y-115713613D01*
X203660713Y-115713614D01*
X204035367Y-115814002D01*
X204418462Y-115874678D01*
X204418464Y-115874678D01*
X204418470Y-115874679D01*
X204805793Y-115894978D01*
X204805800Y-115894978D01*
X204805807Y-115894978D01*
X205193129Y-115874679D01*
X205193133Y-115874678D01*
X205193138Y-115874678D01*
X205576233Y-115814002D01*
X205950887Y-115713614D01*
X205950890Y-115713612D01*
X205950893Y-115713612D01*
X206312984Y-115574618D01*
X206312985Y-115574617D01*
X206312994Y-115574614D01*
X206658589Y-115398525D01*
X206983884Y-115187276D01*
X207155033Y-115048682D01*
X207285302Y-114943193D01*
X207285307Y-114943187D01*
X207285316Y-114943181D01*
X207559581Y-114668916D01*
X207559587Y-114668907D01*
X207559593Y-114668902D01*
X207763179Y-114417493D01*
X207803676Y-114367484D01*
X208014925Y-114042189D01*
X208191014Y-113696594D01*
X208191292Y-113695869D01*
X208330012Y-113334493D01*
X208330014Y-113334487D01*
X208430402Y-112959833D01*
X208491078Y-112576738D01*
X208491078Y-112576733D01*
X208491079Y-112576729D01*
X208511378Y-112189407D01*
X208511378Y-112189392D01*
X208491079Y-111802070D01*
X208491078Y-111802062D01*
X208430402Y-111418967D01*
X208330014Y-111044313D01*
X208330013Y-111044311D01*
X208330012Y-111044306D01*
X208191018Y-110682215D01*
X208191014Y-110682207D01*
X208191014Y-110682206D01*
X208014925Y-110336611D01*
X208014923Y-110336607D01*
X207898989Y-110158085D01*
X207803676Y-110011316D01*
X207739823Y-109932464D01*
X207559593Y-109709897D01*
X207559579Y-109709882D01*
X207285317Y-109435620D01*
X207285302Y-109435606D01*
X206983893Y-109191531D01*
X206983890Y-109191529D01*
X206983884Y-109191524D01*
X206814764Y-109081696D01*
X206658592Y-108980276D01*
X206312992Y-108804185D01*
X206312984Y-108804181D01*
X205950893Y-108665187D01*
X205576233Y-108564798D01*
X205193129Y-108504120D01*
X204805807Y-108483822D01*
X204805793Y-108483822D01*
X204418470Y-108504120D01*
X204035366Y-108564798D01*
X203660706Y-108665187D01*
X203298615Y-108804181D01*
X203298607Y-108804185D01*
X202953007Y-108980276D01*
X202627716Y-109191524D01*
X202627706Y-109191531D01*
X202326297Y-109435606D01*
X202326282Y-109435620D01*
X202052020Y-109709882D01*
X202052006Y-109709897D01*
X201807931Y-110011306D01*
X201807924Y-110011316D01*
X201596676Y-110336607D01*
X201420585Y-110682207D01*
X201420581Y-110682215D01*
X201281587Y-111044306D01*
X201181198Y-111418966D01*
X201120520Y-111802070D01*
X201100222Y-112189392D01*
X163556427Y-112189392D01*
X163654779Y-112082553D01*
X163781724Y-111888249D01*
X163874957Y-111675700D01*
X163919583Y-111499477D01*
X163931932Y-111450714D01*
X163931933Y-111450708D01*
X163931934Y-111450705D01*
X163951100Y-111219400D01*
X163931934Y-110988095D01*
X163931933Y-110988091D01*
X163931932Y-110988085D01*
X163874957Y-110763100D01*
X163874955Y-110763096D01*
X163861409Y-110732215D01*
X163781724Y-110550551D01*
X163654779Y-110356247D01*
X163497584Y-110185487D01*
X163314426Y-110042930D01*
X163314425Y-110042929D01*
X163110302Y-109932463D01*
X163110300Y-109932462D01*
X162890785Y-109857103D01*
X162890778Y-109857101D01*
X162792800Y-109840752D01*
X162661849Y-109818900D01*
X162429751Y-109818900D01*
X162315183Y-109838018D01*
X162200821Y-109857101D01*
X162200814Y-109857103D01*
X161981299Y-109932462D01*
X161981297Y-109932463D01*
X161777174Y-110042929D01*
X161777173Y-110042930D01*
X161594013Y-110185489D01*
X161436818Y-110356250D01*
X161309875Y-110550551D01*
X161216644Y-110763096D01*
X161216642Y-110763100D01*
X161159667Y-110988085D01*
X161159666Y-110988091D01*
X161140500Y-111219400D01*
X159194918Y-111219400D01*
X159325715Y-111121487D01*
X159512887Y-110934315D01*
X159671516Y-110722411D01*
X159798374Y-110490089D01*
X159890877Y-110242078D01*
X159947143Y-109983426D01*
X159966027Y-109719400D01*
X159947143Y-109455374D01*
X159890877Y-109196722D01*
X159798374Y-108948711D01*
X159769520Y-108895870D01*
X159671517Y-108716391D01*
X159670615Y-108715186D01*
X159512887Y-108504485D01*
X159512885Y-108504483D01*
X159512877Y-108504474D01*
X159325725Y-108317322D01*
X159325716Y-108317314D01*
X159323951Y-108315993D01*
X159113811Y-108158684D01*
X159113809Y-108158683D01*
X159113808Y-108158682D01*
X158881492Y-108031827D01*
X158881489Y-108031826D01*
X158633478Y-107939323D01*
X158615867Y-107935492D01*
X158374822Y-107883056D01*
X158110800Y-107864173D01*
X157846777Y-107883056D01*
X157588121Y-107939323D01*
X157340111Y-108031825D01*
X157196876Y-108110038D01*
X157127502Y-108125129D01*
X157060982Y-108100318D01*
X157056866Y-108097102D01*
X157055543Y-108096023D01*
X156974207Y-108029702D01*
X156974205Y-108029701D01*
X156974204Y-108029700D01*
X156793851Y-107935492D01*
X156793850Y-107935491D01*
X156793849Y-107935491D01*
X156598218Y-107879514D01*
X156478837Y-107868900D01*
X156478832Y-107868900D01*
X154662772Y-107868900D01*
X154662762Y-107868901D01*
X154543388Y-107879513D01*
X154543385Y-107879513D01*
X154543382Y-107879514D01*
X154347751Y-107935491D01*
X154347748Y-107935492D01*
X154167395Y-108029700D01*
X154009691Y-108158291D01*
X153881100Y-108315995D01*
X153786892Y-108496348D01*
X153786891Y-108496350D01*
X153786891Y-108496351D01*
X153730914Y-108691982D01*
X153725462Y-108753310D01*
X153720300Y-108811365D01*
X153720300Y-109580547D01*
X153700298Y-109648668D01*
X153646642Y-109695161D01*
X153576368Y-109705265D01*
X153553389Y-109699720D01*
X153522958Y-109689273D01*
X153522947Y-109689270D01*
X153424969Y-109672921D01*
X153294018Y-109651069D01*
X153061920Y-109651069D01*
X152947352Y-109670187D01*
X152832990Y-109689270D01*
X152832983Y-109689272D01*
X152613468Y-109764631D01*
X152613466Y-109764632D01*
X152409343Y-109875098D01*
X152409342Y-109875099D01*
X152226182Y-110017658D01*
X152068987Y-110188419D01*
X151942044Y-110382720D01*
X151848813Y-110595265D01*
X151848811Y-110595269D01*
X151791836Y-110820254D01*
X151791835Y-110820260D01*
X151772669Y-111051569D01*
X150982171Y-111051569D01*
X150981724Y-111050551D01*
X150854781Y-110856250D01*
X150854780Y-110856249D01*
X150854779Y-110856247D01*
X150697584Y-110685487D01*
X150514426Y-110542930D01*
X150514425Y-110542929D01*
X150310302Y-110432463D01*
X150310300Y-110432462D01*
X150154259Y-110378894D01*
X150113998Y-110365072D01*
X150056064Y-110324036D01*
X150029512Y-110258191D01*
X150042773Y-110188444D01*
X150091638Y-110136939D01*
X150154911Y-110119900D01*
X150361845Y-110119900D01*
X150361849Y-110119900D01*
X150590781Y-110081698D01*
X150810303Y-110006336D01*
X151014426Y-109895870D01*
X151197584Y-109753313D01*
X151354779Y-109582553D01*
X151481724Y-109388249D01*
X151574957Y-109175700D01*
X151612587Y-109027103D01*
X151631932Y-108950714D01*
X151631933Y-108950708D01*
X151631934Y-108950705D01*
X151651100Y-108719400D01*
X151631934Y-108488095D01*
X151631933Y-108488091D01*
X151631932Y-108488085D01*
X151574957Y-108263100D01*
X151574955Y-108263096D01*
X151556007Y-108219900D01*
X151481724Y-108050551D01*
X151354779Y-107856247D01*
X151197584Y-107685487D01*
X151014426Y-107542930D01*
X151014425Y-107542929D01*
X150810302Y-107432463D01*
X150810300Y-107432462D01*
X150590785Y-107357103D01*
X150590778Y-107357101D01*
X150492800Y-107340752D01*
X150361849Y-107318900D01*
X150129751Y-107318900D01*
X150015183Y-107338018D01*
X149900821Y-107357101D01*
X149900814Y-107357103D01*
X149681299Y-107432462D01*
X149681297Y-107432463D01*
X149477174Y-107542929D01*
X149477173Y-107542930D01*
X149294013Y-107685489D01*
X149136818Y-107856250D01*
X149009875Y-108050551D01*
X148916644Y-108263096D01*
X148916642Y-108263100D01*
X148859667Y-108488085D01*
X148859666Y-108488091D01*
X148840500Y-108719400D01*
X148859666Y-108950708D01*
X148859667Y-108950714D01*
X148916642Y-109175699D01*
X148916643Y-109175702D01*
X148923119Y-109190465D01*
X148932165Y-109260883D01*
X148901703Y-109325013D01*
X148841407Y-109362493D01*
X148770418Y-109361425D01*
X148730340Y-109340509D01*
X148566426Y-109212930D01*
X148566425Y-109212929D01*
X148362302Y-109102463D01*
X148362300Y-109102462D01*
X148142785Y-109027103D01*
X148142778Y-109027101D01*
X148044800Y-109010752D01*
X147913849Y-108988900D01*
X147681751Y-108988900D01*
X147577263Y-109006336D01*
X147452821Y-109027101D01*
X147452814Y-109027103D01*
X147233299Y-109102462D01*
X147233297Y-109102463D01*
X147029174Y-109212929D01*
X147029173Y-109212930D01*
X146846013Y-109355489D01*
X146688818Y-109526250D01*
X146561875Y-109720551D01*
X146468644Y-109933096D01*
X146468642Y-109933100D01*
X146411667Y-110158085D01*
X146411666Y-110158091D01*
X146392500Y-110389400D01*
X130036346Y-110389400D01*
X130034925Y-110386611D01*
X130034923Y-110386607D01*
X129941064Y-110242078D01*
X129823676Y-110061316D01*
X129808787Y-110042930D01*
X129579593Y-109759897D01*
X129579579Y-109759882D01*
X129305317Y-109485620D01*
X129305302Y-109485606D01*
X129003893Y-109241531D01*
X129003890Y-109241529D01*
X129003884Y-109241524D01*
X128871658Y-109155655D01*
X128678592Y-109030276D01*
X128332992Y-108854185D01*
X128332984Y-108854181D01*
X127970893Y-108715187D01*
X127596233Y-108614798D01*
X127213129Y-108554120D01*
X126825807Y-108533822D01*
X126825793Y-108533822D01*
X126438470Y-108554120D01*
X126055366Y-108614798D01*
X125680706Y-108715187D01*
X125318615Y-108854181D01*
X125318607Y-108854185D01*
X124973007Y-109030276D01*
X124647716Y-109241524D01*
X124647706Y-109241531D01*
X124346297Y-109485606D01*
X124346282Y-109485620D01*
X124072020Y-109759882D01*
X124072006Y-109759897D01*
X123827931Y-110061306D01*
X123827924Y-110061316D01*
X123616676Y-110386607D01*
X123440585Y-110732207D01*
X123440581Y-110732215D01*
X123301587Y-111094306D01*
X123201198Y-111468966D01*
X123140520Y-111852070D01*
X123120222Y-112239392D01*
X115746413Y-112239392D01*
X115746374Y-106919553D01*
X162540347Y-106919553D01*
X162559513Y-107150861D01*
X162559514Y-107150867D01*
X162616489Y-107375852D01*
X162616491Y-107375856D01*
X162709722Y-107588401D01*
X162779934Y-107695869D01*
X162836668Y-107782706D01*
X162916015Y-107868900D01*
X162991329Y-107950714D01*
X162993863Y-107953466D01*
X163177020Y-108096022D01*
X163177021Y-108096023D01*
X163381144Y-108206489D01*
X163381146Y-108206490D01*
X163496401Y-108246057D01*
X163600666Y-108281851D01*
X163829598Y-108320053D01*
X163829602Y-108320053D01*
X164061692Y-108320053D01*
X164061696Y-108320053D01*
X164290628Y-108281851D01*
X164510150Y-108206489D01*
X164714273Y-108096023D01*
X164897431Y-107953466D01*
X165054626Y-107782706D01*
X165095986Y-107719400D01*
X166640500Y-107719400D01*
X166659666Y-107950708D01*
X166659667Y-107950714D01*
X166716642Y-108175699D01*
X166716644Y-108175703D01*
X166809875Y-108388248D01*
X166918244Y-108554120D01*
X166936821Y-108582553D01*
X167094016Y-108753313D01*
X167277173Y-108895869D01*
X167277174Y-108895870D01*
X167481297Y-109006336D01*
X167481299Y-109006337D01*
X167596554Y-109045904D01*
X167700819Y-109081698D01*
X167929751Y-109119900D01*
X167929755Y-109119900D01*
X168161845Y-109119900D01*
X168161849Y-109119900D01*
X168390781Y-109081698D01*
X168610303Y-109006336D01*
X168814426Y-108895870D01*
X168997584Y-108753313D01*
X169154779Y-108582553D01*
X169281724Y-108388249D01*
X169374957Y-108175700D01*
X169411391Y-108031826D01*
X169431932Y-107950714D01*
X169431933Y-107950708D01*
X169431934Y-107950705D01*
X169451100Y-107719400D01*
X169431934Y-107488095D01*
X169431933Y-107488091D01*
X169431932Y-107488085D01*
X169374957Y-107263100D01*
X169374955Y-107263096D01*
X169370662Y-107253310D01*
X169281724Y-107050551D01*
X169154779Y-106856247D01*
X169000122Y-106688244D01*
X168997586Y-106685489D01*
X168997585Y-106685488D01*
X168997584Y-106685487D01*
X168814426Y-106542930D01*
X168814425Y-106542929D01*
X168770947Y-106519400D01*
X172840500Y-106519400D01*
X172859666Y-106750708D01*
X172859667Y-106750714D01*
X172916642Y-106975699D01*
X172916644Y-106975703D01*
X173009875Y-107188248D01*
X173132445Y-107375856D01*
X173136821Y-107382553D01*
X173294016Y-107553313D01*
X173477173Y-107695869D01*
X173477174Y-107695870D01*
X173681297Y-107806336D01*
X173681299Y-107806337D01*
X173796554Y-107845904D01*
X173900819Y-107881698D01*
X174129751Y-107919900D01*
X174129755Y-107919900D01*
X174361845Y-107919900D01*
X174361849Y-107919900D01*
X174590781Y-107881698D01*
X174810303Y-107806336D01*
X175014426Y-107695870D01*
X175108600Y-107622571D01*
X175174641Y-107596515D01*
X175244286Y-107610300D01*
X175278692Y-107636666D01*
X175294016Y-107653313D01*
X175348694Y-107695870D01*
X175477173Y-107795869D01*
X175477174Y-107795870D01*
X175681297Y-107906336D01*
X175681299Y-107906337D01*
X175777385Y-107939323D01*
X175900819Y-107981698D01*
X176129751Y-108019900D01*
X176129755Y-108019900D01*
X176361845Y-108019900D01*
X176361849Y-108019900D01*
X176590781Y-107981698D01*
X176810303Y-107906336D01*
X177014426Y-107795870D01*
X177197584Y-107653313D01*
X177354779Y-107482553D01*
X177481724Y-107288249D01*
X177574957Y-107075700D01*
X177614499Y-106919553D01*
X177631932Y-106850714D01*
X177631933Y-106850708D01*
X177631934Y-106850705D01*
X177651100Y-106619400D01*
X177631934Y-106388095D01*
X177631933Y-106388091D01*
X177631932Y-106388085D01*
X177589214Y-106219400D01*
X181140500Y-106219400D01*
X181159666Y-106450708D01*
X181159667Y-106450714D01*
X181216642Y-106675699D01*
X181216644Y-106675703D01*
X181309875Y-106888248D01*
X181432345Y-107075703D01*
X181436821Y-107082553D01*
X181594016Y-107253313D01*
X181777173Y-107395869D01*
X181777174Y-107395870D01*
X181981297Y-107506336D01*
X181981299Y-107506337D01*
X182087889Y-107542929D01*
X182200819Y-107581698D01*
X182429751Y-107619900D01*
X182429755Y-107619900D01*
X182661845Y-107619900D01*
X182661849Y-107619900D01*
X182890781Y-107581698D01*
X183026851Y-107534984D01*
X183097773Y-107531784D01*
X183159169Y-107567436D01*
X183173244Y-107585242D01*
X183195888Y-107619900D01*
X183236821Y-107682553D01*
X183394016Y-107853313D01*
X183558966Y-107981698D01*
X183577173Y-107995869D01*
X183577174Y-107995870D01*
X183781297Y-108106336D01*
X183781299Y-108106337D01*
X183836039Y-108125129D01*
X184000819Y-108181698D01*
X184229751Y-108219900D01*
X184229755Y-108219900D01*
X184461845Y-108219900D01*
X184461849Y-108219900D01*
X184690781Y-108181698D01*
X184910303Y-108106336D01*
X185114426Y-107995870D01*
X185297584Y-107853313D01*
X185454779Y-107682553D01*
X185581724Y-107488249D01*
X185674957Y-107275700D01*
X185725604Y-107075703D01*
X185731932Y-107050714D01*
X185731933Y-107050708D01*
X185731934Y-107050705D01*
X185751100Y-106819400D01*
X185734528Y-106619400D01*
X186940500Y-106619400D01*
X186959666Y-106850708D01*
X186959667Y-106850714D01*
X187016642Y-107075699D01*
X187016644Y-107075703D01*
X187109875Y-107288248D01*
X187204095Y-107432463D01*
X187236821Y-107482553D01*
X187394016Y-107653313D01*
X187560256Y-107782702D01*
X187577173Y-107795869D01*
X187577174Y-107795870D01*
X187781297Y-107906336D01*
X187781299Y-107906337D01*
X187877385Y-107939323D01*
X188000819Y-107981698D01*
X188229751Y-108019900D01*
X188229755Y-108019900D01*
X188461845Y-108019900D01*
X188461849Y-108019900D01*
X188690781Y-107981698D01*
X188910303Y-107906336D01*
X189114426Y-107795870D01*
X189297584Y-107653313D01*
X189454779Y-107482553D01*
X189581724Y-107288249D01*
X189674957Y-107075700D01*
X189714499Y-106919553D01*
X189731932Y-106850714D01*
X189731933Y-106850708D01*
X189731934Y-106850705D01*
X189751100Y-106619400D01*
X189731934Y-106388095D01*
X189731933Y-106388091D01*
X189731932Y-106388085D01*
X189674957Y-106163100D01*
X189674955Y-106163096D01*
X189645466Y-106095869D01*
X189581724Y-105950551D01*
X189454779Y-105756247D01*
X189297584Y-105585487D01*
X189114426Y-105442930D01*
X189114425Y-105442929D01*
X188910302Y-105332463D01*
X188910300Y-105332462D01*
X188690785Y-105257103D01*
X188690778Y-105257101D01*
X188592800Y-105240752D01*
X188461849Y-105218900D01*
X188229751Y-105218900D01*
X188115183Y-105238018D01*
X188000821Y-105257101D01*
X188000814Y-105257103D01*
X187781299Y-105332462D01*
X187781297Y-105332463D01*
X187577174Y-105442929D01*
X187577173Y-105442930D01*
X187394013Y-105585489D01*
X187236818Y-105756250D01*
X187109875Y-105950551D01*
X187016644Y-106163096D01*
X187016642Y-106163100D01*
X186959667Y-106388085D01*
X186959666Y-106388091D01*
X186940500Y-106619400D01*
X185734528Y-106619400D01*
X185731934Y-106588095D01*
X185731933Y-106588091D01*
X185731932Y-106588085D01*
X185674957Y-106363100D01*
X185674955Y-106363096D01*
X185672325Y-106357101D01*
X185581724Y-106150551D01*
X185454779Y-105956247D01*
X185297584Y-105785487D01*
X185114426Y-105642930D01*
X185114425Y-105642929D01*
X184910302Y-105532463D01*
X184910300Y-105532462D01*
X184690785Y-105457103D01*
X184690778Y-105457101D01*
X184592800Y-105440752D01*
X184461849Y-105418900D01*
X184229751Y-105418900D01*
X184115183Y-105438018D01*
X184000821Y-105457101D01*
X184000810Y-105457104D01*
X183864748Y-105503814D01*
X183793824Y-105507014D01*
X183732428Y-105471362D01*
X183718354Y-105453556D01*
X183654781Y-105356250D01*
X183654780Y-105356249D01*
X183654779Y-105356247D01*
X183497584Y-105185487D01*
X183314426Y-105042930D01*
X183314425Y-105042929D01*
X183110302Y-104932463D01*
X183110300Y-104932462D01*
X182890785Y-104857103D01*
X182890778Y-104857101D01*
X182792800Y-104840752D01*
X182661849Y-104818900D01*
X182429751Y-104818900D01*
X182315183Y-104838018D01*
X182200821Y-104857101D01*
X182200814Y-104857103D01*
X181981299Y-104932462D01*
X181981297Y-104932463D01*
X181777174Y-105042929D01*
X181777173Y-105042930D01*
X181594013Y-105185489D01*
X181436818Y-105356250D01*
X181309875Y-105550551D01*
X181216644Y-105763096D01*
X181216642Y-105763100D01*
X181159667Y-105988085D01*
X181159666Y-105988091D01*
X181140500Y-106219400D01*
X177589214Y-106219400D01*
X177574957Y-106163100D01*
X177574955Y-106163096D01*
X177545466Y-106095869D01*
X177481724Y-105950551D01*
X177354779Y-105756247D01*
X177197584Y-105585487D01*
X177014426Y-105442930D01*
X177014425Y-105442929D01*
X176810302Y-105332463D01*
X176810300Y-105332462D01*
X176590785Y-105257103D01*
X176590778Y-105257101D01*
X176492800Y-105240752D01*
X176361849Y-105218900D01*
X176129751Y-105218900D01*
X176015183Y-105238018D01*
X175900821Y-105257101D01*
X175900814Y-105257103D01*
X175681299Y-105332462D01*
X175681297Y-105332463D01*
X175477174Y-105442929D01*
X175477166Y-105442935D01*
X175382999Y-105516228D01*
X175316957Y-105542284D01*
X175247311Y-105528498D01*
X175212908Y-105502133D01*
X175197588Y-105485491D01*
X175197584Y-105485487D01*
X175014426Y-105342930D01*
X175014425Y-105342929D01*
X174810302Y-105232463D01*
X174810300Y-105232462D01*
X174590785Y-105157103D01*
X174590778Y-105157101D01*
X174492800Y-105140752D01*
X174361849Y-105118900D01*
X174129751Y-105118900D01*
X174015183Y-105138018D01*
X173900821Y-105157101D01*
X173900814Y-105157103D01*
X173681299Y-105232462D01*
X173681297Y-105232463D01*
X173477174Y-105342929D01*
X173477173Y-105342930D01*
X173294013Y-105485489D01*
X173136818Y-105656250D01*
X173009875Y-105850551D01*
X172916644Y-106063096D01*
X172916642Y-106063100D01*
X172859667Y-106288085D01*
X172859666Y-106288091D01*
X172840500Y-106519400D01*
X168770947Y-106519400D01*
X168610302Y-106432463D01*
X168610300Y-106432462D01*
X168390785Y-106357103D01*
X168390778Y-106357101D01*
X168292800Y-106340752D01*
X168161849Y-106318900D01*
X167929751Y-106318900D01*
X167815183Y-106338018D01*
X167700821Y-106357101D01*
X167700814Y-106357103D01*
X167481299Y-106432462D01*
X167481297Y-106432463D01*
X167277174Y-106542929D01*
X167277173Y-106542930D01*
X167094013Y-106685489D01*
X166936818Y-106856250D01*
X166809875Y-107050551D01*
X166716644Y-107263096D01*
X166716642Y-107263100D01*
X166659667Y-107488085D01*
X166659666Y-107488091D01*
X166640500Y-107719400D01*
X165095986Y-107719400D01*
X165181571Y-107588402D01*
X165274804Y-107375853D01*
X165322312Y-107188249D01*
X165331779Y-107150867D01*
X165331780Y-107150861D01*
X165331781Y-107150858D01*
X165350947Y-106919553D01*
X165331781Y-106688248D01*
X165331780Y-106688244D01*
X165331779Y-106688238D01*
X165274804Y-106463253D01*
X165274802Y-106463249D01*
X165261298Y-106432464D01*
X165181571Y-106250704D01*
X165054626Y-106056400D01*
X164897431Y-105885640D01*
X164714273Y-105743083D01*
X164714272Y-105743082D01*
X164510149Y-105632616D01*
X164510147Y-105632615D01*
X164290632Y-105557256D01*
X164290625Y-105557254D01*
X164169348Y-105537017D01*
X164061696Y-105519053D01*
X163829598Y-105519053D01*
X163721946Y-105537017D01*
X163600668Y-105557254D01*
X163600661Y-105557256D01*
X163381146Y-105632615D01*
X163381144Y-105632616D01*
X163177021Y-105743082D01*
X163177020Y-105743083D01*
X162993860Y-105885642D01*
X162836665Y-106056403D01*
X162709722Y-106250704D01*
X162616491Y-106463249D01*
X162616489Y-106463253D01*
X162559514Y-106688238D01*
X162559513Y-106688244D01*
X162540347Y-106919553D01*
X115746374Y-106919553D01*
X115746360Y-104919400D01*
X165340500Y-104919400D01*
X165359666Y-105150708D01*
X165359667Y-105150714D01*
X165416642Y-105375699D01*
X165416644Y-105375703D01*
X165509875Y-105588248D01*
X165624111Y-105763100D01*
X165636821Y-105782553D01*
X165794016Y-105953313D01*
X165926463Y-106056400D01*
X165977173Y-106095869D01*
X165977174Y-106095870D01*
X166181297Y-106206336D01*
X166181299Y-106206337D01*
X166219351Y-106219400D01*
X166400819Y-106281698D01*
X166629751Y-106319900D01*
X166629755Y-106319900D01*
X166861845Y-106319900D01*
X166861849Y-106319900D01*
X167090781Y-106281698D01*
X167310303Y-106206336D01*
X167514426Y-106095870D01*
X167697584Y-105953313D01*
X167854779Y-105782553D01*
X167981724Y-105588249D01*
X168074957Y-105375700D01*
X168114665Y-105218900D01*
X168131932Y-105150714D01*
X168131933Y-105150708D01*
X168131934Y-105150705D01*
X168151100Y-104919400D01*
X168131934Y-104688095D01*
X168131933Y-104688091D01*
X168131932Y-104688085D01*
X168106245Y-104586652D01*
X168108912Y-104515705D01*
X168149512Y-104457463D01*
X168215155Y-104430417D01*
X168269296Y-104436546D01*
X168400819Y-104481698D01*
X168629751Y-104519900D01*
X168629755Y-104519900D01*
X168861845Y-104519900D01*
X168861849Y-104519900D01*
X169090781Y-104481698D01*
X169310303Y-104406336D01*
X169514426Y-104295870D01*
X169514441Y-104295857D01*
X169518789Y-104293019D01*
X169519529Y-104294151D01*
X169579699Y-104270412D01*
X169591048Y-104269900D01*
X170400552Y-104269900D01*
X170468673Y-104289902D01*
X170476190Y-104295227D01*
X170477163Y-104295861D01*
X170477174Y-104295870D01*
X170681297Y-104406336D01*
X170681299Y-104406337D01*
X170796554Y-104445904D01*
X170900819Y-104481698D01*
X171129751Y-104519900D01*
X171129755Y-104519900D01*
X171361845Y-104519900D01*
X171361849Y-104519900D01*
X171590781Y-104481698D01*
X171810303Y-104406336D01*
X172014426Y-104295870D01*
X172197584Y-104153313D01*
X172354779Y-103982553D01*
X172481724Y-103788249D01*
X172574957Y-103575700D01*
X172625604Y-103375703D01*
X172631932Y-103350714D01*
X172631933Y-103350708D01*
X172631934Y-103350705D01*
X172651100Y-103119400D01*
X172634528Y-102919400D01*
X172940500Y-102919400D01*
X172959666Y-103150708D01*
X172959667Y-103150714D01*
X173016642Y-103375699D01*
X173016644Y-103375703D01*
X173109875Y-103588248D01*
X173199607Y-103725594D01*
X173236821Y-103782553D01*
X173394016Y-103953313D01*
X173526270Y-104056250D01*
X173577173Y-104095869D01*
X173577174Y-104095870D01*
X173781297Y-104206336D01*
X173781299Y-104206337D01*
X173896554Y-104245904D01*
X174000819Y-104281698D01*
X174229751Y-104319900D01*
X174229755Y-104319900D01*
X174461845Y-104319900D01*
X174461849Y-104319900D01*
X174690781Y-104281698D01*
X174910303Y-104206336D01*
X175114426Y-104095870D01*
X175297584Y-103953313D01*
X175454779Y-103782553D01*
X175581724Y-103588249D01*
X175674957Y-103375700D01*
X175731934Y-103150705D01*
X175751100Y-102919400D01*
X176940500Y-102919400D01*
X176959666Y-103150708D01*
X176959667Y-103150714D01*
X177016642Y-103375699D01*
X177016644Y-103375703D01*
X177109875Y-103588248D01*
X177199607Y-103725594D01*
X177236821Y-103782553D01*
X177394016Y-103953313D01*
X177526270Y-104056250D01*
X177577173Y-104095869D01*
X177577174Y-104095870D01*
X177781297Y-104206336D01*
X177781299Y-104206337D01*
X177896554Y-104245904D01*
X178000819Y-104281698D01*
X178229751Y-104319900D01*
X178229755Y-104319900D01*
X178461845Y-104319900D01*
X178461849Y-104319900D01*
X178690781Y-104281698D01*
X178910303Y-104206336D01*
X179114426Y-104095870D01*
X179297584Y-103953313D01*
X179454779Y-103782553D01*
X179581724Y-103588249D01*
X179674957Y-103375700D01*
X179731934Y-103150705D01*
X179751100Y-102919400D01*
X179731934Y-102688095D01*
X179731933Y-102688091D01*
X179731932Y-102688085D01*
X179674957Y-102463100D01*
X179674955Y-102463096D01*
X179581724Y-102250551D01*
X179454781Y-102056250D01*
X179454780Y-102056249D01*
X179454779Y-102056247D01*
X179297584Y-101885487D01*
X179114426Y-101742930D01*
X179114425Y-101742929D01*
X178910302Y-101632463D01*
X178910300Y-101632462D01*
X178690785Y-101557103D01*
X178690778Y-101557101D01*
X178592800Y-101540752D01*
X178461849Y-101518900D01*
X178229751Y-101518900D01*
X178115183Y-101538018D01*
X178000821Y-101557101D01*
X178000814Y-101557103D01*
X177781299Y-101632462D01*
X177781297Y-101632463D01*
X177577174Y-101742929D01*
X177577173Y-101742930D01*
X177394013Y-101885489D01*
X177236818Y-102056250D01*
X177109875Y-102250551D01*
X177016644Y-102463096D01*
X177016642Y-102463100D01*
X176959667Y-102688085D01*
X176959666Y-102688091D01*
X176940500Y-102919400D01*
X175751100Y-102919400D01*
X175731934Y-102688095D01*
X175731933Y-102688091D01*
X175731932Y-102688085D01*
X175674957Y-102463100D01*
X175674955Y-102463096D01*
X175581724Y-102250551D01*
X175454781Y-102056250D01*
X175454780Y-102056249D01*
X175454779Y-102056247D01*
X175297584Y-101885487D01*
X175114426Y-101742930D01*
X175114425Y-101742929D01*
X174910302Y-101632463D01*
X174910300Y-101632462D01*
X174690785Y-101557103D01*
X174690778Y-101557101D01*
X174592800Y-101540752D01*
X174461849Y-101518900D01*
X174229751Y-101518900D01*
X174115183Y-101538018D01*
X174000821Y-101557101D01*
X174000814Y-101557103D01*
X173781299Y-101632462D01*
X173781297Y-101632463D01*
X173577174Y-101742929D01*
X173577173Y-101742930D01*
X173394013Y-101885489D01*
X173236818Y-102056250D01*
X173109875Y-102250551D01*
X173016644Y-102463096D01*
X173016642Y-102463100D01*
X172959667Y-102688085D01*
X172959666Y-102688091D01*
X172940500Y-102919400D01*
X172634528Y-102919400D01*
X172631934Y-102888095D01*
X172631933Y-102888091D01*
X172631932Y-102888085D01*
X172574957Y-102663100D01*
X172574955Y-102663096D01*
X172481724Y-102450551D01*
X172354781Y-102256250D01*
X172354780Y-102256249D01*
X172354779Y-102256247D01*
X172197584Y-102085487D01*
X172014426Y-101942930D01*
X172014425Y-101942929D01*
X171810302Y-101832463D01*
X171810300Y-101832462D01*
X171590785Y-101757103D01*
X171590778Y-101757101D01*
X171492800Y-101740752D01*
X171361849Y-101718900D01*
X171129751Y-101718900D01*
X171015183Y-101738018D01*
X170900821Y-101757101D01*
X170900814Y-101757103D01*
X170681299Y-101832462D01*
X170681297Y-101832463D01*
X170477176Y-101942929D01*
X170472811Y-101945781D01*
X170472070Y-101944648D01*
X170411901Y-101968388D01*
X170400552Y-101968900D01*
X169591048Y-101968900D01*
X169522927Y-101948898D01*
X169515409Y-101943572D01*
X169514433Y-101942935D01*
X169514426Y-101942930D01*
X169396832Y-101879291D01*
X169310302Y-101832463D01*
X169310300Y-101832462D01*
X169090785Y-101757103D01*
X169090778Y-101757101D01*
X168992800Y-101740752D01*
X168861849Y-101718900D01*
X168629751Y-101718900D01*
X168515183Y-101738018D01*
X168400821Y-101757101D01*
X168400814Y-101757103D01*
X168181299Y-101832462D01*
X168181297Y-101832463D01*
X167977174Y-101942929D01*
X167977173Y-101942930D01*
X167794013Y-102085489D01*
X167636818Y-102256250D01*
X167509875Y-102450551D01*
X167416644Y-102663096D01*
X167416642Y-102663100D01*
X167359667Y-102888085D01*
X167359666Y-102888091D01*
X167340500Y-103119400D01*
X167359666Y-103350708D01*
X167359668Y-103350717D01*
X167385354Y-103452148D01*
X167382687Y-103523095D01*
X167342086Y-103581336D01*
X167276443Y-103608382D01*
X167222298Y-103602252D01*
X167090785Y-103557103D01*
X167090778Y-103557101D01*
X166992800Y-103540752D01*
X166861849Y-103518900D01*
X166629751Y-103518900D01*
X166515183Y-103538018D01*
X166400821Y-103557101D01*
X166400814Y-103557103D01*
X166181299Y-103632462D01*
X166181297Y-103632463D01*
X165977174Y-103742929D01*
X165977173Y-103742930D01*
X165794013Y-103885489D01*
X165636818Y-104056250D01*
X165509875Y-104250551D01*
X165416644Y-104463096D01*
X165416642Y-104463100D01*
X165359667Y-104688085D01*
X165359666Y-104688091D01*
X165340500Y-104919400D01*
X115746360Y-104919400D01*
X115746305Y-97370159D01*
X115766307Y-97302040D01*
X115819962Y-97255547D01*
X115890236Y-97245442D01*
X115911238Y-97250326D01*
X116016079Y-97284391D01*
X116265523Y-97323900D01*
X116265526Y-97323900D01*
X117726074Y-97323900D01*
X117726077Y-97323900D01*
X117975521Y-97284391D01*
X118215714Y-97206348D01*
X118440741Y-97091691D01*
X118645061Y-96943244D01*
X118823644Y-96764661D01*
X118972091Y-96560341D01*
X119086748Y-96335314D01*
X119164791Y-96095121D01*
X119167789Y-96076185D01*
X119198201Y-96012035D01*
X119258469Y-95974508D01*
X119292238Y-95969899D01*
X120403828Y-95969899D01*
X120403836Y-95969899D01*
X120523218Y-95959286D01*
X120718849Y-95903309D01*
X120899207Y-95809098D01*
X121056909Y-95680509D01*
X121185498Y-95522807D01*
X121279709Y-95342449D01*
X121310020Y-95236513D01*
X121347990Y-95176525D01*
X121412366Y-95146586D01*
X121451895Y-95146895D01*
X121558371Y-95164663D01*
X121589750Y-95169900D01*
X121589751Y-95169900D01*
X121821845Y-95169900D01*
X121821849Y-95169900D01*
X122050781Y-95131698D01*
X122270303Y-95056336D01*
X122474426Y-94945870D01*
X122657584Y-94803313D01*
X122814779Y-94632553D01*
X122941724Y-94438249D01*
X123034957Y-94225700D01*
X123091934Y-94000705D01*
X123111100Y-93769400D01*
X123091934Y-93538095D01*
X123091933Y-93538091D01*
X123091932Y-93538085D01*
X123043981Y-93348735D01*
X123034957Y-93313100D01*
X123034955Y-93313097D01*
X123034955Y-93313094D01*
X123007015Y-93249398D01*
X122997968Y-93178981D01*
X123028428Y-93114850D01*
X123045000Y-93099362D01*
X123136286Y-93028312D01*
X123293481Y-92857552D01*
X123345800Y-92777471D01*
X123345800Y-102969400D01*
X123545800Y-103169400D01*
X159045800Y-103169400D01*
X159045800Y-83769400D01*
X158945800Y-83669400D01*
X123936957Y-83669400D01*
X123941100Y-83619400D01*
X123927171Y-83451302D01*
X123941480Y-83381765D01*
X123991113Y-83331000D01*
X124052741Y-83314900D01*
X124275918Y-83314900D01*
X124275922Y-83314900D01*
X124504854Y-83276698D01*
X124724376Y-83201336D01*
X124928499Y-83090870D01*
X125111657Y-82948313D01*
X125268852Y-82777553D01*
X125395797Y-82583249D01*
X125489030Y-82370700D01*
X125523235Y-82235629D01*
X125546005Y-82145714D01*
X125546006Y-82145708D01*
X125546007Y-82145705D01*
X125565173Y-81914400D01*
X125546007Y-81683095D01*
X125546006Y-81683091D01*
X125546005Y-81683085D01*
X125489029Y-81458098D01*
X125489028Y-81458093D01*
X125481098Y-81440016D01*
X125472050Y-81369598D01*
X125481098Y-81338784D01*
X125489028Y-81320706D01*
X125489028Y-81320703D01*
X125489030Y-81320700D01*
X125530502Y-81156929D01*
X125546005Y-81095714D01*
X125546006Y-81095708D01*
X125546007Y-81095705D01*
X125565173Y-80864400D01*
X125546007Y-80633095D01*
X125546006Y-80633091D01*
X125546005Y-80633085D01*
X125489030Y-80408100D01*
X125489028Y-80408096D01*
X125486834Y-80403095D01*
X125395797Y-80195551D01*
X125268852Y-80001247D01*
X125111657Y-79830487D01*
X125016091Y-79756105D01*
X138988135Y-79756105D01*
X138988135Y-79756120D01*
X139008433Y-80143442D01*
X139069111Y-80526546D01*
X139169500Y-80901206D01*
X139308494Y-81263297D01*
X139308498Y-81263305D01*
X139484589Y-81608905D01*
X139609968Y-81801971D01*
X139695837Y-81934197D01*
X139695842Y-81934203D01*
X139695844Y-81934206D01*
X139939919Y-82235615D01*
X139939933Y-82235630D01*
X140214195Y-82509892D01*
X140214210Y-82509906D01*
X140515619Y-82753981D01*
X140515629Y-82753989D01*
X140690342Y-82867449D01*
X140840920Y-82965236D01*
X140840924Y-82965238D01*
X141186519Y-83141327D01*
X141186523Y-83141328D01*
X141186528Y-83141331D01*
X141548619Y-83280325D01*
X141548624Y-83280326D01*
X141548626Y-83280327D01*
X141923280Y-83380715D01*
X142306375Y-83441391D01*
X142306377Y-83441391D01*
X142306383Y-83441392D01*
X142693706Y-83461691D01*
X142693713Y-83461691D01*
X142693720Y-83461691D01*
X143081042Y-83441392D01*
X143081046Y-83441391D01*
X143081051Y-83441391D01*
X143464146Y-83380715D01*
X143838800Y-83280327D01*
X143838803Y-83280325D01*
X143838806Y-83280325D01*
X144200897Y-83141331D01*
X144200898Y-83141330D01*
X144200907Y-83141327D01*
X144546502Y-82965238D01*
X144871797Y-82753989D01*
X145082643Y-82583249D01*
X145173215Y-82509906D01*
X145173220Y-82509900D01*
X145173229Y-82509894D01*
X145447494Y-82235629D01*
X145447500Y-82235620D01*
X145447506Y-82235615D01*
X145673081Y-81957052D01*
X145691589Y-81934197D01*
X145902838Y-81608902D01*
X146078927Y-81263307D01*
X146143260Y-81095714D01*
X146217925Y-80901206D01*
X146217927Y-80901200D01*
X146318315Y-80526546D01*
X146378991Y-80143451D01*
X146378991Y-80143446D01*
X146378992Y-80143442D01*
X146398595Y-79769392D01*
X148510222Y-79769392D01*
X148510222Y-79769407D01*
X148530520Y-80156729D01*
X148591198Y-80539833D01*
X148691587Y-80914493D01*
X148830581Y-81276584D01*
X148830585Y-81276592D01*
X149006676Y-81622192D01*
X149097955Y-81762748D01*
X149217924Y-81947484D01*
X149217929Y-81947490D01*
X149217931Y-81947493D01*
X149462006Y-82248902D01*
X149462020Y-82248917D01*
X149736282Y-82523179D01*
X149736297Y-82523193D01*
X150021308Y-82753989D01*
X150037716Y-82767276D01*
X150191969Y-82867449D01*
X150363007Y-82978523D01*
X150363011Y-82978525D01*
X150708606Y-83154614D01*
X150708610Y-83154615D01*
X150708615Y-83154618D01*
X151070706Y-83293612D01*
X151070711Y-83293613D01*
X151070713Y-83293614D01*
X151445367Y-83394002D01*
X151828462Y-83454678D01*
X151828464Y-83454678D01*
X151828470Y-83454679D01*
X152215793Y-83474978D01*
X152215800Y-83474978D01*
X152215807Y-83474978D01*
X152603129Y-83454679D01*
X152603133Y-83454678D01*
X152603138Y-83454678D01*
X152986233Y-83394002D01*
X153360887Y-83293614D01*
X153360890Y-83293612D01*
X153360893Y-83293612D01*
X153722984Y-83154618D01*
X153722985Y-83154617D01*
X153722994Y-83154614D01*
X154068589Y-82978525D01*
X154393884Y-82767276D01*
X154549959Y-82640888D01*
X154568467Y-82625901D01*
X189840500Y-82625901D01*
X189859666Y-82857209D01*
X189859667Y-82857215D01*
X189916642Y-83082200D01*
X189916644Y-83082204D01*
X190009875Y-83294749D01*
X190127624Y-83474978D01*
X190136821Y-83489054D01*
X190294016Y-83659814D01*
X190477173Y-83802370D01*
X190477174Y-83802371D01*
X190681297Y-83912837D01*
X190681299Y-83912838D01*
X190796554Y-83952405D01*
X190900819Y-83988199D01*
X191129751Y-84026401D01*
X191129755Y-84026401D01*
X191361845Y-84026401D01*
X191361849Y-84026401D01*
X191590781Y-83988199D01*
X191810303Y-83912837D01*
X192014426Y-83802371D01*
X192197584Y-83659814D01*
X192354779Y-83489054D01*
X192481724Y-83294750D01*
X192574957Y-83082201D01*
X192631006Y-82860870D01*
X192631932Y-82857215D01*
X192631933Y-82857209D01*
X192631934Y-82857206D01*
X192651100Y-82625901D01*
X192631934Y-82394596D01*
X192631933Y-82394592D01*
X192631932Y-82394586D01*
X192574957Y-82169601D01*
X192574955Y-82169597D01*
X192564476Y-82145708D01*
X192481724Y-81957052D01*
X192354779Y-81762748D01*
X192197584Y-81591988D01*
X192014426Y-81449431D01*
X192014425Y-81449430D01*
X191810302Y-81338964D01*
X191810300Y-81338963D01*
X191590785Y-81263604D01*
X191590778Y-81263602D01*
X191492800Y-81247253D01*
X191361849Y-81225401D01*
X191129751Y-81225401D01*
X191015183Y-81244519D01*
X190900821Y-81263602D01*
X190900814Y-81263604D01*
X190681299Y-81338963D01*
X190681297Y-81338964D01*
X190477174Y-81449430D01*
X190477173Y-81449431D01*
X190294013Y-81591990D01*
X190136818Y-81762751D01*
X190009875Y-81957052D01*
X189916644Y-82169597D01*
X189916642Y-82169601D01*
X189859667Y-82394586D01*
X189859666Y-82394592D01*
X189840500Y-82625901D01*
X154568467Y-82625901D01*
X154695302Y-82523193D01*
X154695307Y-82523187D01*
X154695316Y-82523181D01*
X154969581Y-82248916D01*
X154969587Y-82248907D01*
X154969593Y-82248902D01*
X155087288Y-82103559D01*
X155213676Y-81947484D01*
X155424925Y-81622189D01*
X155601014Y-81276594D01*
X155601018Y-81276584D01*
X155740012Y-80914493D01*
X155740014Y-80914487D01*
X155840402Y-80539833D01*
X155901078Y-80156738D01*
X155901078Y-80156733D01*
X155901079Y-80156729D01*
X155921378Y-79769407D01*
X155921378Y-79769392D01*
X155901079Y-79382070D01*
X155898975Y-79368783D01*
X155840402Y-78998967D01*
X155740014Y-78624313D01*
X155740013Y-78624311D01*
X155740012Y-78624306D01*
X155601018Y-78262215D01*
X155601014Y-78262207D01*
X155601014Y-78262206D01*
X155424925Y-77916611D01*
X155424923Y-77916607D01*
X155316262Y-77749285D01*
X155213676Y-77591316D01*
X155203622Y-77578900D01*
X154969593Y-77289897D01*
X154969579Y-77289882D01*
X154695317Y-77015620D01*
X154695302Y-77015606D01*
X154393893Y-76771531D01*
X154393890Y-76771529D01*
X154393884Y-76771524D01*
X154252201Y-76679514D01*
X154068592Y-76560276D01*
X153722992Y-76384185D01*
X153722984Y-76384181D01*
X153360893Y-76245187D01*
X152986233Y-76144798D01*
X152603129Y-76084120D01*
X152215807Y-76063822D01*
X152215793Y-76063822D01*
X151828470Y-76084120D01*
X151445366Y-76144798D01*
X151070706Y-76245187D01*
X150708615Y-76384181D01*
X150708607Y-76384185D01*
X150363007Y-76560276D01*
X150037716Y-76771524D01*
X150037706Y-76771531D01*
X149736297Y-77015606D01*
X149736282Y-77015620D01*
X149462020Y-77289882D01*
X149462006Y-77289897D01*
X149217931Y-77591306D01*
X149217924Y-77591316D01*
X149006676Y-77916607D01*
X148830585Y-78262207D01*
X148830581Y-78262215D01*
X148691587Y-78624306D01*
X148591198Y-78998966D01*
X148530520Y-79382070D01*
X148510222Y-79769392D01*
X146398595Y-79769392D01*
X146399291Y-79756120D01*
X146399291Y-79756105D01*
X146378992Y-79368783D01*
X146378991Y-79368775D01*
X146318315Y-78985680D01*
X146217927Y-78611026D01*
X146217926Y-78611024D01*
X146217925Y-78611019D01*
X146078931Y-78248928D01*
X146078927Y-78248920D01*
X146078927Y-78248919D01*
X145902838Y-77903324D01*
X145902836Y-77903320D01*
X145765903Y-77692463D01*
X145691589Y-77578029D01*
X145647755Y-77523898D01*
X145447506Y-77276610D01*
X145447492Y-77276595D01*
X145173230Y-77002333D01*
X145173215Y-77002319D01*
X144871806Y-76758244D01*
X144871803Y-76758242D01*
X144871797Y-76758237D01*
X144727134Y-76664292D01*
X144546505Y-76546989D01*
X144200905Y-76370898D01*
X144200897Y-76370894D01*
X143838806Y-76231900D01*
X143464146Y-76131511D01*
X143081042Y-76070833D01*
X142693720Y-76050535D01*
X142693706Y-76050535D01*
X142306383Y-76070833D01*
X141923279Y-76131511D01*
X141548619Y-76231900D01*
X141186528Y-76370894D01*
X141186520Y-76370898D01*
X140840920Y-76546989D01*
X140515629Y-76758237D01*
X140515619Y-76758244D01*
X140214210Y-77002319D01*
X140214195Y-77002333D01*
X139939933Y-77276595D01*
X139939919Y-77276610D01*
X139695844Y-77578019D01*
X139695837Y-77578029D01*
X139484589Y-77903320D01*
X139308498Y-78248920D01*
X139308494Y-78248928D01*
X139169500Y-78611019D01*
X139069111Y-78985679D01*
X139008433Y-79368783D01*
X138988135Y-79756105D01*
X125016091Y-79756105D01*
X124928499Y-79687930D01*
X124928498Y-79687929D01*
X124724375Y-79577463D01*
X124724373Y-79577462D01*
X124504858Y-79502103D01*
X124504851Y-79502101D01*
X124406873Y-79485752D01*
X124275922Y-79463900D01*
X124043824Y-79463900D01*
X123929256Y-79483018D01*
X123814894Y-79502101D01*
X123814887Y-79502103D01*
X123595372Y-79577462D01*
X123595370Y-79577463D01*
X123391247Y-79687929D01*
X123391246Y-79687930D01*
X123362043Y-79710660D01*
X123327773Y-79737332D01*
X123261734Y-79763388D01*
X123250385Y-79763900D01*
X123096218Y-79763900D01*
X123028097Y-79743898D01*
X122985320Y-79694531D01*
X122984205Y-79695135D01*
X122981724Y-79690551D01*
X122854781Y-79496250D01*
X122854780Y-79496249D01*
X122854779Y-79496247D01*
X122697584Y-79325487D01*
X122514426Y-79182930D01*
X122514425Y-79182929D01*
X122310302Y-79072463D01*
X122310300Y-79072462D01*
X122090785Y-78997103D01*
X122090778Y-78997101D01*
X121992800Y-78980752D01*
X121861849Y-78958900D01*
X121629751Y-78958900D01*
X121563674Y-78969926D01*
X121493037Y-78981713D01*
X121422553Y-78973195D01*
X121367863Y-78927923D01*
X121346331Y-78860271D01*
X121346299Y-78857431D01*
X121346299Y-78486372D01*
X121346299Y-78486364D01*
X121335686Y-78366982D01*
X121279709Y-78171351D01*
X121185498Y-77990993D01*
X121056909Y-77833291D01*
X120899207Y-77704702D01*
X120899205Y-77704701D01*
X120899204Y-77704700D01*
X120718851Y-77610492D01*
X120718850Y-77610491D01*
X120718849Y-77610491D01*
X120523218Y-77554514D01*
X120403837Y-77543900D01*
X120403834Y-77543900D01*
X119292238Y-77543900D01*
X119224117Y-77523898D01*
X119177624Y-77470242D01*
X119167790Y-77437614D01*
X119164791Y-77418679D01*
X119086748Y-77178486D01*
X118972091Y-76953459D01*
X118823644Y-76749139D01*
X118823641Y-76749136D01*
X118823639Y-76749133D01*
X118645066Y-76570560D01*
X118645063Y-76570558D01*
X118645061Y-76570556D01*
X118440741Y-76422109D01*
X118215714Y-76307452D01*
X118215711Y-76307451D01*
X118215709Y-76307450D01*
X117975525Y-76229410D01*
X117975523Y-76229409D01*
X117975521Y-76229409D01*
X117726077Y-76189900D01*
X116265523Y-76189900D01*
X116016079Y-76229409D01*
X116016077Y-76229409D01*
X116016074Y-76229410D01*
X115911303Y-76263452D01*
X115840335Y-76265479D01*
X115779537Y-76228817D01*
X115748212Y-76165104D01*
X115746367Y-76143607D01*
X115746369Y-76131511D01*
X115746601Y-73744001D01*
X115746669Y-73043688D01*
X115766678Y-72975569D01*
X115820338Y-72929081D01*
X115872669Y-72917700D01*
X126086082Y-72917700D01*
X126159774Y-72887176D01*
X126216176Y-72830774D01*
X126246700Y-72757082D01*
X126246700Y-67619400D01*
X130025573Y-67619400D01*
X130044456Y-67883422D01*
X130100723Y-68142078D01*
X130193226Y-68390088D01*
X130193227Y-68390092D01*
X130320082Y-68622408D01*
X130478714Y-68834316D01*
X130478722Y-68834325D01*
X130665874Y-69021477D01*
X130665883Y-69021485D01*
X130665885Y-69021487D01*
X130877789Y-69180116D01*
X130877791Y-69180117D01*
X131110107Y-69306972D01*
X131110111Y-69306974D01*
X131229072Y-69351344D01*
X131285908Y-69393891D01*
X131310719Y-69460411D01*
X131295628Y-69529785D01*
X131245425Y-69579988D01*
X131229072Y-69587456D01*
X131110111Y-69631825D01*
X131110107Y-69631827D01*
X130877791Y-69758682D01*
X130665883Y-69917314D01*
X130665874Y-69917322D01*
X130478722Y-70104474D01*
X130478714Y-70104483D01*
X130320082Y-70316391D01*
X130193227Y-70548707D01*
X130193226Y-70548711D01*
X130100723Y-70796721D01*
X130044456Y-71055377D01*
X130025573Y-71319400D01*
X130044456Y-71583422D01*
X130100723Y-71842078D01*
X130193226Y-72090088D01*
X130193227Y-72090092D01*
X130320082Y-72322408D01*
X130320084Y-72322411D01*
X130476249Y-72531024D01*
X130478714Y-72534316D01*
X130478722Y-72534325D01*
X130665874Y-72721477D01*
X130665883Y-72721485D01*
X130665885Y-72721487D01*
X130877789Y-72880116D01*
X130892522Y-72888161D01*
X131081512Y-72991358D01*
X131110111Y-73006974D01*
X131358122Y-73099477D01*
X131616774Y-73155743D01*
X131880800Y-73174627D01*
X132144826Y-73155743D01*
X132403478Y-73099477D01*
X132651489Y-73006974D01*
X132794725Y-72928759D01*
X132864094Y-72913669D01*
X132930615Y-72938479D01*
X132934714Y-72941682D01*
X133017393Y-73009098D01*
X133197751Y-73103309D01*
X133393382Y-73159286D01*
X133512763Y-73169900D01*
X135328836Y-73169899D01*
X135448218Y-73159286D01*
X135643849Y-73103309D01*
X135824207Y-73009098D01*
X135981909Y-72880509D01*
X136110498Y-72722807D01*
X136204709Y-72542449D01*
X136260686Y-72346818D01*
X136270296Y-72238728D01*
X136296251Y-72172649D01*
X136353813Y-72131090D01*
X136424706Y-72127249D01*
X136486421Y-72162346D01*
X136519365Y-72225236D01*
X136521305Y-72238732D01*
X136530912Y-72346811D01*
X136530913Y-72346817D01*
X136530914Y-72346818D01*
X136584566Y-72534325D01*
X136586892Y-72542451D01*
X136678874Y-72718543D01*
X136681102Y-72722807D01*
X136809691Y-72880509D01*
X136967393Y-73009098D01*
X137147751Y-73103309D01*
X137343382Y-73159286D01*
X137462763Y-73169900D01*
X139278836Y-73169899D01*
X139398218Y-73159286D01*
X139593849Y-73103309D01*
X139774207Y-73009098D01*
X139856866Y-72941697D01*
X139922300Y-72914151D01*
X139992240Y-72926353D01*
X139996877Y-72928762D01*
X140140107Y-73006972D01*
X140140111Y-73006974D01*
X140388122Y-73099477D01*
X140646774Y-73155743D01*
X140910800Y-73174627D01*
X141174826Y-73155743D01*
X141433478Y-73099477D01*
X141681489Y-73006974D01*
X141913811Y-72880116D01*
X142125715Y-72721487D01*
X142312887Y-72534315D01*
X142471516Y-72322411D01*
X142598374Y-72090089D01*
X142690877Y-71842078D01*
X142747143Y-71583426D01*
X142766027Y-71319400D01*
X142747143Y-71055374D01*
X142690877Y-70796722D01*
X142598374Y-70548711D01*
X142471516Y-70316389D01*
X142324046Y-70119392D01*
X146570222Y-70119392D01*
X146570222Y-70119407D01*
X146590520Y-70506729D01*
X146651198Y-70889833D01*
X146751587Y-71264493D01*
X146890581Y-71626584D01*
X146890585Y-71626592D01*
X147066676Y-71972192D01*
X147145983Y-72094313D01*
X147277924Y-72297484D01*
X147277929Y-72297490D01*
X147277931Y-72297493D01*
X147522006Y-72598902D01*
X147522020Y-72598917D01*
X147796282Y-72873179D01*
X147796297Y-72873193D01*
X148075735Y-73099476D01*
X148097716Y-73117276D01*
X148285758Y-73239392D01*
X148423007Y-73328523D01*
X148423011Y-73328525D01*
X148768606Y-73504614D01*
X148768610Y-73504615D01*
X148768615Y-73504618D01*
X149130706Y-73643612D01*
X149130711Y-73643613D01*
X149130713Y-73643614D01*
X149505367Y-73744002D01*
X149888462Y-73804678D01*
X149888464Y-73804678D01*
X149888470Y-73804679D01*
X150275793Y-73824978D01*
X150275800Y-73824978D01*
X150275807Y-73824978D01*
X150663129Y-73804679D01*
X150663133Y-73804678D01*
X150663138Y-73804678D01*
X151046233Y-73744002D01*
X151420887Y-73643614D01*
X151420890Y-73643612D01*
X151420893Y-73643612D01*
X151782984Y-73504618D01*
X151782985Y-73504617D01*
X151782994Y-73504614D01*
X152128589Y-73328525D01*
X152265842Y-73239392D01*
X162130222Y-73239392D01*
X162130222Y-73239407D01*
X162150520Y-73626729D01*
X162211198Y-74009833D01*
X162311587Y-74384493D01*
X162450581Y-74746584D01*
X162450585Y-74746592D01*
X162626676Y-75092192D01*
X162741293Y-75268685D01*
X162837924Y-75417484D01*
X162837929Y-75417490D01*
X162837931Y-75417493D01*
X163082006Y-75718902D01*
X163082020Y-75718917D01*
X163356282Y-75993179D01*
X163356297Y-75993193D01*
X163647270Y-76228817D01*
X163657716Y-76237276D01*
X163861324Y-76369500D01*
X163983007Y-76448523D01*
X163983011Y-76448525D01*
X164328606Y-76624614D01*
X164328610Y-76624615D01*
X164328615Y-76624618D01*
X164690706Y-76763612D01*
X164690711Y-76763613D01*
X164690713Y-76763614D01*
X165065367Y-76864002D01*
X165448462Y-76924678D01*
X165448464Y-76924678D01*
X165448470Y-76924679D01*
X165835793Y-76944978D01*
X165835800Y-76944978D01*
X165835807Y-76944978D01*
X166223129Y-76924679D01*
X166223133Y-76924678D01*
X166223138Y-76924678D01*
X166606233Y-76864002D01*
X166980887Y-76763614D01*
X166980890Y-76763612D01*
X166980893Y-76763612D01*
X167342984Y-76624618D01*
X167342985Y-76624617D01*
X167342994Y-76624614D01*
X167688589Y-76448525D01*
X168013884Y-76237276D01*
X168210007Y-76078459D01*
X168315302Y-75993193D01*
X168315307Y-75993187D01*
X168315316Y-75993181D01*
X168589581Y-75718916D01*
X168589587Y-75718907D01*
X168589593Y-75718902D01*
X168728708Y-75547109D01*
X168833676Y-75417484D01*
X169044925Y-75092189D01*
X169221014Y-74746594D01*
X169360014Y-74384487D01*
X169460402Y-74009833D01*
X169521078Y-73626738D01*
X169521078Y-73626733D01*
X169521079Y-73626729D01*
X169541378Y-73239407D01*
X169541378Y-73239392D01*
X169521079Y-72852070D01*
X169506036Y-72757093D01*
X169460402Y-72468967D01*
X169360014Y-72094313D01*
X169360013Y-72094311D01*
X169360012Y-72094306D01*
X169221018Y-71732215D01*
X169221014Y-71732207D01*
X169221014Y-71732206D01*
X169044925Y-71386611D01*
X169044923Y-71386607D01*
X168965617Y-71264487D01*
X168833676Y-71061316D01*
X168828864Y-71055374D01*
X168589593Y-70759897D01*
X168589579Y-70759882D01*
X168315317Y-70485620D01*
X168315302Y-70485606D01*
X168013893Y-70241531D01*
X168013890Y-70241529D01*
X168013884Y-70241524D01*
X167881658Y-70155655D01*
X167688592Y-70030276D01*
X167342992Y-69854185D01*
X167342984Y-69854181D01*
X166980893Y-69715187D01*
X166606233Y-69614798D01*
X166223129Y-69554120D01*
X165835807Y-69533822D01*
X165835793Y-69533822D01*
X165448470Y-69554120D01*
X165065366Y-69614798D01*
X164690706Y-69715187D01*
X164328615Y-69854181D01*
X164328607Y-69854185D01*
X163983007Y-70030276D01*
X163657716Y-70241524D01*
X163657706Y-70241531D01*
X163356297Y-70485606D01*
X163356282Y-70485620D01*
X163082020Y-70759882D01*
X163082006Y-70759897D01*
X162837931Y-71061306D01*
X162837924Y-71061316D01*
X162626676Y-71386607D01*
X162450585Y-71732207D01*
X162450581Y-71732215D01*
X162311587Y-72094306D01*
X162211198Y-72468966D01*
X162150520Y-72852070D01*
X162130222Y-73239392D01*
X152265842Y-73239392D01*
X152453884Y-73117276D01*
X152609959Y-72990888D01*
X152755302Y-72873193D01*
X152755307Y-72873187D01*
X152755316Y-72873181D01*
X153029581Y-72598916D01*
X153029587Y-72598907D01*
X153029593Y-72598902D01*
X153233726Y-72346818D01*
X153273676Y-72297484D01*
X153484925Y-71972189D01*
X153661014Y-71626594D01*
X153753135Y-71386611D01*
X153800012Y-71264493D01*
X153854453Y-71061316D01*
X153900402Y-70889833D01*
X153961078Y-70506738D01*
X153961078Y-70506733D01*
X153961079Y-70506729D01*
X153981378Y-70119407D01*
X153981378Y-70119392D01*
X153961079Y-69732070D01*
X153957971Y-69712445D01*
X153900402Y-69348967D01*
X153800014Y-68974313D01*
X153800013Y-68974311D01*
X153800012Y-68974306D01*
X153661018Y-68612215D01*
X153661014Y-68612207D01*
X153661014Y-68612206D01*
X153484925Y-68266611D01*
X153484923Y-68266607D01*
X153404052Y-68142078D01*
X153273676Y-67941316D01*
X153226798Y-67883426D01*
X153029593Y-67639897D01*
X153029579Y-67639882D01*
X152755317Y-67365620D01*
X152755302Y-67365606D01*
X152453893Y-67121531D01*
X152453890Y-67121529D01*
X152453884Y-67121524D01*
X152321658Y-67035655D01*
X152128592Y-66910276D01*
X151782992Y-66734185D01*
X151782984Y-66734181D01*
X151420893Y-66595187D01*
X151046233Y-66494798D01*
X150663129Y-66434120D01*
X150275807Y-66413822D01*
X150275793Y-66413822D01*
X149888470Y-66434120D01*
X149505366Y-66494798D01*
X149130706Y-66595187D01*
X148768615Y-66734181D01*
X148768607Y-66734185D01*
X148423007Y-66910276D01*
X148097716Y-67121524D01*
X148097706Y-67121531D01*
X147796297Y-67365606D01*
X147796282Y-67365620D01*
X147522020Y-67639882D01*
X147522006Y-67639897D01*
X147277931Y-67941306D01*
X147277924Y-67941316D01*
X147066676Y-68266607D01*
X146890585Y-68612207D01*
X146890581Y-68612215D01*
X146751587Y-68974306D01*
X146651198Y-69348966D01*
X146590520Y-69732070D01*
X146570222Y-70119392D01*
X142324046Y-70119392D01*
X142312887Y-70104485D01*
X142312885Y-70104483D01*
X142312877Y-70104474D01*
X142125725Y-69917322D01*
X142125716Y-69917314D01*
X142123951Y-69915993D01*
X141913811Y-69758684D01*
X141913809Y-69758683D01*
X141913808Y-69758682D01*
X141681492Y-69631827D01*
X141681489Y-69631826D01*
X141562525Y-69587455D01*
X141505691Y-69544909D01*
X141480880Y-69478389D01*
X141495971Y-69409015D01*
X141546173Y-69358813D01*
X141562522Y-69351346D01*
X141681489Y-69306974D01*
X141913811Y-69180116D01*
X142125715Y-69021487D01*
X142312887Y-68834315D01*
X142471516Y-68622411D01*
X142598374Y-68390089D01*
X142690877Y-68142078D01*
X142747143Y-67883426D01*
X142766027Y-67619400D01*
X142747143Y-67355374D01*
X142690877Y-67096722D01*
X142598374Y-66848711D01*
X142471516Y-66616389D01*
X142312887Y-66404485D01*
X142312885Y-66404483D01*
X142312877Y-66404474D01*
X142125725Y-66217322D01*
X142125716Y-66217314D01*
X142123951Y-66215993D01*
X141913811Y-66058684D01*
X141913809Y-66058683D01*
X141913808Y-66058682D01*
X141681492Y-65931827D01*
X141681489Y-65931826D01*
X141433478Y-65839323D01*
X141415867Y-65835492D01*
X141174822Y-65783056D01*
X140910800Y-65764173D01*
X140646777Y-65783056D01*
X140388121Y-65839323D01*
X140140111Y-65931825D01*
X139996876Y-66010038D01*
X139927502Y-66025129D01*
X139860982Y-66000318D01*
X139856875Y-65997109D01*
X139774207Y-65929702D01*
X139774205Y-65929701D01*
X139774204Y-65929700D01*
X139593851Y-65835492D01*
X139593850Y-65835491D01*
X139593849Y-65835491D01*
X139398218Y-65779514D01*
X139278837Y-65768900D01*
X139278832Y-65768900D01*
X137462772Y-65768900D01*
X137462762Y-65768901D01*
X137343388Y-65779513D01*
X137343385Y-65779513D01*
X137343382Y-65779514D01*
X137147751Y-65835491D01*
X137147748Y-65835492D01*
X136967395Y-65929700D01*
X136809691Y-66058291D01*
X136681100Y-66215995D01*
X136586892Y-66396348D01*
X136586891Y-66396350D01*
X136586891Y-66396351D01*
X136530914Y-66591982D01*
X136530629Y-66595186D01*
X136521304Y-66700069D01*
X136495347Y-66766151D01*
X136437785Y-66807709D01*
X136366892Y-66811549D01*
X136305177Y-66776453D01*
X136272234Y-66713562D01*
X136270295Y-66700077D01*
X136260686Y-66591982D01*
X136204709Y-66396351D01*
X136110498Y-66215993D01*
X135981909Y-66058291D01*
X135824207Y-65929702D01*
X135824205Y-65929701D01*
X135824204Y-65929700D01*
X135643851Y-65835492D01*
X135643850Y-65835491D01*
X135643849Y-65835491D01*
X135448218Y-65779514D01*
X135328837Y-65768900D01*
X135328832Y-65768900D01*
X133512772Y-65768900D01*
X133512762Y-65768901D01*
X133393388Y-65779513D01*
X133393385Y-65779513D01*
X133393382Y-65779514D01*
X133197751Y-65835491D01*
X133197748Y-65835492D01*
X133017395Y-65929700D01*
X132934732Y-65997103D01*
X132869297Y-66024649D01*
X132799357Y-66012445D01*
X132794723Y-66010038D01*
X132651488Y-65931825D01*
X132403478Y-65839323D01*
X132144822Y-65783056D01*
X131880800Y-65764173D01*
X131616777Y-65783056D01*
X131358121Y-65839323D01*
X131110111Y-65931826D01*
X131110107Y-65931827D01*
X130877791Y-66058682D01*
X130665883Y-66217314D01*
X130665874Y-66217322D01*
X130478722Y-66404474D01*
X130478714Y-66404483D01*
X130320082Y-66616391D01*
X130193227Y-66848707D01*
X130193226Y-66848711D01*
X130100723Y-67096721D01*
X130044456Y-67355377D01*
X130025573Y-67619400D01*
X126246700Y-67619400D01*
X126246700Y-62543700D01*
X126266702Y-62475579D01*
X126320358Y-62429086D01*
X126372700Y-62417700D01*
X140574949Y-62417700D01*
X140597395Y-62419907D01*
G37*
%TD.AperFunction*%
%TA.AperFunction,NonConductor*%
G36*
X132930615Y-69238479D02*
G01*
X132934714Y-69241682D01*
X133017393Y-69309098D01*
X133017395Y-69309099D01*
X133110472Y-69357719D01*
X133161590Y-69406988D01*
X133177957Y-69476072D01*
X133154376Y-69543038D01*
X133110472Y-69581081D01*
X133017396Y-69629700D01*
X133017394Y-69629701D01*
X133017393Y-69629702D01*
X133014787Y-69631827D01*
X132934732Y-69697103D01*
X132869297Y-69724649D01*
X132799357Y-69712445D01*
X132794723Y-69710038D01*
X132651488Y-69631825D01*
X132577289Y-69604151D01*
X132532525Y-69587455D01*
X132475691Y-69544909D01*
X132450880Y-69478389D01*
X132465971Y-69409015D01*
X132516173Y-69358813D01*
X132532522Y-69351346D01*
X132651489Y-69306974D01*
X132794725Y-69228759D01*
X132864094Y-69213669D01*
X132930615Y-69238479D01*
G37*
%TD.AperFunction*%
%TA.AperFunction,NonConductor*%
G36*
X139992240Y-69226353D02*
G01*
X139996877Y-69228762D01*
X140140107Y-69306972D01*
X140140111Y-69306974D01*
X140259072Y-69351344D01*
X140315908Y-69393891D01*
X140340719Y-69460411D01*
X140325628Y-69529785D01*
X140275425Y-69579988D01*
X140259072Y-69587456D01*
X140140111Y-69631825D01*
X139996876Y-69710038D01*
X139927502Y-69725129D01*
X139860982Y-69700318D01*
X139856875Y-69697109D01*
X139774207Y-69629702D01*
X139774203Y-69629700D01*
X139774202Y-69629699D01*
X139681128Y-69581081D01*
X139630009Y-69531813D01*
X139613642Y-69462729D01*
X139637223Y-69395762D01*
X139681128Y-69357719D01*
X139774205Y-69309099D01*
X139774204Y-69309099D01*
X139774207Y-69309098D01*
X139856866Y-69241697D01*
X139922300Y-69214151D01*
X139992240Y-69226353D01*
G37*
%TD.AperFunction*%
%TA.AperFunction,NonConductor*%
G36*
X136486421Y-68462346D02*
G01*
X136519365Y-68525236D01*
X136521305Y-68538732D01*
X136530912Y-68646811D01*
X136530913Y-68646817D01*
X136530914Y-68646818D01*
X136586891Y-68842449D01*
X136681102Y-69022807D01*
X136809691Y-69180509D01*
X136967393Y-69309098D01*
X136967395Y-69309099D01*
X137060472Y-69357719D01*
X137111590Y-69406988D01*
X137127957Y-69476072D01*
X137104376Y-69543038D01*
X137060472Y-69581081D01*
X136967395Y-69629700D01*
X136809691Y-69758291D01*
X136681100Y-69915995D01*
X136586892Y-70096348D01*
X136586891Y-70096350D01*
X136586891Y-70096351D01*
X136530914Y-70291982D01*
X136528744Y-70316389D01*
X136521304Y-70400069D01*
X136495347Y-70466151D01*
X136437785Y-70507709D01*
X136366892Y-70511549D01*
X136305177Y-70476453D01*
X136272234Y-70413562D01*
X136270295Y-70400077D01*
X136260686Y-70291982D01*
X136204709Y-70096351D01*
X136110498Y-69915993D01*
X135981909Y-69758291D01*
X135824207Y-69629702D01*
X135824203Y-69629700D01*
X135824202Y-69629699D01*
X135731128Y-69581081D01*
X135680009Y-69531813D01*
X135663642Y-69462729D01*
X135687223Y-69395762D01*
X135731128Y-69357719D01*
X135779742Y-69332324D01*
X135824207Y-69309098D01*
X135981909Y-69180509D01*
X136110498Y-69022807D01*
X136204709Y-68842449D01*
X136260686Y-68646818D01*
X136270296Y-68538728D01*
X136296251Y-68472649D01*
X136353813Y-68431090D01*
X136424706Y-68427249D01*
X136486421Y-68462346D01*
G37*
%TD.AperFunction*%
%TA.AperFunction,NonConductor*%
G36*
X159045800Y-83769400D02*
G01*
X159045800Y-103169400D01*
X123545800Y-103169400D01*
X123345800Y-102969400D01*
X123345800Y-84033437D01*
X123370327Y-83990956D01*
X123429342Y-83809328D01*
X123443843Y-83671355D01*
X123445800Y-83669400D01*
X158945800Y-83669400D01*
X159045800Y-83769400D01*
G37*
%TD.AperFunction*%
%TA.AperFunction,NonConductor*%
G36*
X215287777Y-145599402D02*
G01*
X215334270Y-145653058D01*
X215345656Y-145705399D01*
X215345697Y-151390699D01*
X215325695Y-151458820D01*
X215272040Y-151505313D01*
X215219697Y-151516700D01*
X205006318Y-151516700D01*
X204932626Y-151547223D01*
X204932622Y-151547226D01*
X204876226Y-151603622D01*
X204876223Y-151603626D01*
X204845700Y-151677317D01*
X204845700Y-161890700D01*
X204825698Y-161958821D01*
X204772042Y-162005314D01*
X204719700Y-162016700D01*
X126372700Y-162016700D01*
X126304579Y-161996698D01*
X126258086Y-161943042D01*
X126246700Y-161890700D01*
X126246700Y-155504139D01*
X130725987Y-155504139D01*
X132583671Y-155504139D01*
X132651792Y-155524141D01*
X132698285Y-155577797D01*
X132709671Y-155630139D01*
X132709671Y-158884175D01*
X142508541Y-158884175D01*
X142508541Y-155603417D01*
X143234005Y-155603417D01*
X143238012Y-155707932D01*
X143238013Y-155707949D01*
X143257103Y-155918701D01*
X143269009Y-156006689D01*
X143307478Y-156219707D01*
X143325712Y-156301181D01*
X143381096Y-156507948D01*
X143407425Y-156591500D01*
X143477268Y-156783532D01*
X143477269Y-156783535D01*
X143517461Y-156878556D01*
X143599312Y-157047367D01*
X143599320Y-157047381D01*
X143667460Y-157166458D01*
X143667468Y-157166471D01*
X143758862Y-157303548D01*
X143845433Y-157415451D01*
X143845440Y-157415459D01*
X143891249Y-157466765D01*
X143935403Y-157513152D01*
X143951467Y-157528986D01*
X143971752Y-157548981D01*
X144009631Y-157584439D01*
X144043852Y-157614855D01*
X144130498Y-157683718D01*
X144151309Y-157698464D01*
X144166412Y-157709167D01*
X144166429Y-157709178D01*
X144270716Y-157771990D01*
X144294387Y-157786247D01*
X144335820Y-157807177D01*
X144472412Y-157863985D01*
X144523176Y-157880836D01*
X144523186Y-157880838D01*
X144523190Y-157880840D01*
X144598638Y-157901087D01*
X144636369Y-157911213D01*
X144700281Y-157924427D01*
X144700286Y-157924428D01*
X144727604Y-157928937D01*
X144791558Y-157959764D01*
X144828693Y-158020275D01*
X144831133Y-158031159D01*
X144836073Y-158058896D01*
X144836080Y-158058926D01*
X144876437Y-158213296D01*
X144906520Y-158299674D01*
X144940903Y-158375107D01*
X144983579Y-158468735D01*
X145027272Y-158545013D01*
X145113266Y-158671686D01*
X145172814Y-158746448D01*
X145209422Y-158789837D01*
X145214710Y-158795757D01*
X145257870Y-158838559D01*
X145301025Y-158881358D01*
X145301046Y-158881377D01*
X145423015Y-158988513D01*
X145423023Y-158988519D01*
X145423027Y-158988523D01*
X145571228Y-159096454D01*
X145571236Y-159096458D01*
X145571241Y-159096462D01*
X145729450Y-159190902D01*
X145729456Y-159190905D01*
X145729461Y-159190908D01*
X145850173Y-159252341D01*
X145850177Y-159252343D01*
X145850188Y-159252348D01*
X146037586Y-159332320D01*
X146037592Y-159332322D01*
X146037601Y-159332326D01*
X146139636Y-159369494D01*
X146139661Y-159369501D01*
X146139671Y-159369505D01*
X146349194Y-159433241D01*
X146349213Y-159433246D01*
X146349219Y-159433248D01*
X146441193Y-159456547D01*
X146665889Y-159502307D01*
X146665908Y-159502310D01*
X146665918Y-159502312D01*
X146716927Y-159510338D01*
X146754903Y-159516314D01*
X146987672Y-159542319D01*
X146987676Y-159542319D01*
X146987683Y-159542320D01*
X147073827Y-159547946D01*
X147080014Y-159548351D01*
X147313814Y-159552839D01*
X147313846Y-159552838D01*
X147313847Y-159552838D01*
X147415752Y-159549621D01*
X147415760Y-159549620D01*
X147415777Y-159549620D01*
X147415791Y-159549618D01*
X147415806Y-159549618D01*
X147643569Y-159530829D01*
X147702058Y-159524276D01*
X147710592Y-159523066D01*
X147755320Y-159515692D01*
X147881737Y-159491912D01*
X147937708Y-159479723D01*
X148083177Y-159443675D01*
X148124908Y-159432376D01*
X148273088Y-159388816D01*
X148316794Y-159374878D01*
X148379273Y-159353369D01*
X148451332Y-159328564D01*
X148451340Y-159328561D01*
X148510677Y-159306015D01*
X148604028Y-159267131D01*
X148728055Y-159205111D01*
X148853395Y-159131217D01*
X148977922Y-159044511D01*
X149095331Y-158948836D01*
X149201014Y-158849181D01*
X149298574Y-158742860D01*
X149409171Y-158597876D01*
X149473117Y-158496073D01*
X149538032Y-158375107D01*
X149551497Y-158345293D01*
X149575957Y-158286193D01*
X149586882Y-158257220D01*
X149618558Y-158157895D01*
X149627209Y-158124959D01*
X149647669Y-158027751D01*
X149647670Y-158027740D01*
X149647989Y-158026228D01*
X149648920Y-158026424D01*
X149679194Y-157966152D01*
X149740301Y-157930007D01*
X149745014Y-157928907D01*
X149789694Y-157919406D01*
X149796300Y-157917978D01*
X149989575Y-157854443D01*
X150134679Y-157789827D01*
X150172602Y-157771983D01*
X150344763Y-157663573D01*
X150469899Y-157565788D01*
X150492872Y-157547287D01*
X150635491Y-157402196D01*
X150741953Y-157269315D01*
X150847773Y-157107506D01*
X150936852Y-156937599D01*
X150995529Y-156802426D01*
X151068519Y-156593564D01*
X151096726Y-156497839D01*
X151145784Y-156294652D01*
X151163060Y-156205699D01*
X151212282Y-155872717D01*
X151222706Y-155753510D01*
X151231687Y-155429149D01*
X151230800Y-155403430D01*
X151227964Y-155321174D01*
X151227383Y-155304322D01*
X151195885Y-154979328D01*
X151179562Y-154871840D01*
X151120038Y-154585263D01*
X151085257Y-154459465D01*
X151085255Y-154459459D01*
X151085253Y-154459452D01*
X151012463Y-154250148D01*
X150934303Y-154078997D01*
X150831260Y-153899897D01*
X150831170Y-153899741D01*
X150828107Y-153894453D01*
X150708326Y-153730002D01*
X150576468Y-153582913D01*
X150562892Y-153568070D01*
X150409750Y-153434133D01*
X150409747Y-153434131D01*
X150409745Y-153434129D01*
X150250766Y-153321290D01*
X150250761Y-153321287D01*
X150125425Y-153245417D01*
X150125422Y-153245415D01*
X150125408Y-153245408D01*
X150125399Y-153245403D01*
X150104478Y-153234739D01*
X150073213Y-153218802D01*
X150043299Y-153204172D01*
X149998152Y-153183012D01*
X149915635Y-153144336D01*
X149894620Y-153134780D01*
X149894604Y-153134774D01*
X149894600Y-153134772D01*
X149894593Y-153134770D01*
X149894586Y-153134767D01*
X149745232Y-153086278D01*
X149686617Y-153046218D01*
X149658965Y-152980828D01*
X149658669Y-152977971D01*
X149656968Y-152959326D01*
X149649574Y-152898466D01*
X149649574Y-152898461D01*
X149632059Y-152797550D01*
X149632058Y-152797542D01*
X149621450Y-152750722D01*
X149586807Y-152632789D01*
X149585823Y-152629438D01*
X149585821Y-152629434D01*
X149583406Y-152622789D01*
X152725300Y-152622789D01*
X152725300Y-152796011D01*
X152752398Y-152967101D01*
X152805927Y-153131845D01*
X152805928Y-153131848D01*
X152805930Y-153131852D01*
X152834941Y-153188789D01*
X152884568Y-153286188D01*
X152986386Y-153426328D01*
X153105363Y-153545305D01*
X153139387Y-153607615D01*
X153134323Y-153678431D01*
X153105364Y-153723492D01*
X153086387Y-153742469D01*
X152984568Y-153882611D01*
X152905930Y-154036947D01*
X152905927Y-154036956D01*
X152857085Y-154187275D01*
X152852398Y-154201699D01*
X152825300Y-154372789D01*
X152825300Y-157072789D01*
X152825300Y-157246011D01*
X152852398Y-157417101D01*
X152905927Y-157581845D01*
X152905928Y-157581848D01*
X152905930Y-157581852D01*
X152984568Y-157736188D01*
X153086385Y-157876327D01*
X153086390Y-157876333D01*
X153208869Y-157998812D01*
X153208872Y-157998814D01*
X153349012Y-158100632D01*
X153503355Y-158179273D01*
X153668099Y-158232802D01*
X153839189Y-158259900D01*
X153839192Y-158259900D01*
X156712408Y-158259900D01*
X156712411Y-158259900D01*
X156883501Y-158232802D01*
X157048245Y-158179273D01*
X157202588Y-158100632D01*
X157342728Y-157998814D01*
X157465214Y-157876328D01*
X158315215Y-157026327D01*
X158357916Y-156967554D01*
X158417032Y-156886188D01*
X158495673Y-156731845D01*
X158549203Y-156567100D01*
X158576300Y-156396010D01*
X158576300Y-156222789D01*
X158576300Y-153522789D01*
X158572640Y-153499682D01*
X158549203Y-153351699D01*
X158495673Y-153186954D01*
X158495672Y-153186952D01*
X158494040Y-153183012D01*
X158486450Y-153112422D01*
X158490610Y-153095871D01*
X158529202Y-152977101D01*
X158556300Y-152806011D01*
X158556300Y-152632789D01*
X158529202Y-152461699D01*
X158475673Y-152296955D01*
X158474039Y-152293749D01*
X158436325Y-152219729D01*
X158397032Y-152142612D01*
X158295214Y-152002472D01*
X158295212Y-152002469D01*
X158172730Y-151879987D01*
X158032588Y-151778168D01*
X157878252Y-151699530D01*
X157878248Y-151699528D01*
X157878245Y-151699527D01*
X157713501Y-151645998D01*
X157542411Y-151618900D01*
X157369189Y-151618900D01*
X157198099Y-151645998D01*
X157198096Y-151645998D01*
X157198095Y-151645999D01*
X157123478Y-151670244D01*
X157033355Y-151699527D01*
X157033353Y-151699527D01*
X157033347Y-151699530D01*
X156879011Y-151778168D01*
X156738871Y-151879986D01*
X156508694Y-152110164D01*
X156146861Y-152471996D01*
X156084551Y-152506020D01*
X156057768Y-152508900D01*
X155233832Y-152508900D01*
X155165711Y-152488898D01*
X155144741Y-152471999D01*
X154542728Y-151869986D01*
X154402588Y-151768168D01*
X154331484Y-151731939D01*
X154248252Y-151689530D01*
X154248248Y-151689528D01*
X154248245Y-151689527D01*
X154083501Y-151635998D01*
X153912411Y-151608900D01*
X153739189Y-151608900D01*
X153568099Y-151635998D01*
X153568096Y-151635998D01*
X153568095Y-151635999D01*
X153537322Y-151645998D01*
X153403355Y-151689527D01*
X153403353Y-151689527D01*
X153403347Y-151689530D01*
X153249011Y-151768168D01*
X153108869Y-151869987D01*
X152986387Y-151992469D01*
X152884568Y-152132611D01*
X152805930Y-152286947D01*
X152805927Y-152286953D01*
X152805927Y-152286955D01*
X152752398Y-152451699D01*
X152725300Y-152622789D01*
X149583406Y-152622789D01*
X149571130Y-152589013D01*
X149542743Y-152520343D01*
X149537826Y-152508446D01*
X149522393Y-152475265D01*
X149436826Y-152326149D01*
X149436817Y-152326133D01*
X149378033Y-152241407D01*
X149362993Y-152219729D01*
X149318528Y-152160436D01*
X149318525Y-152160432D01*
X149318524Y-152160431D01*
X149318522Y-152160428D01*
X149175203Y-152016029D01*
X149175202Y-152016028D01*
X149175193Y-152016020D01*
X149066164Y-151926436D01*
X149051187Y-151914369D01*
X149051183Y-151914366D01*
X148879606Y-151805038D01*
X148734274Y-151731948D01*
X148734254Y-151731939D01*
X148581571Y-151670248D01*
X148581566Y-151670246D01*
X148581560Y-151670244D01*
X148398779Y-151613302D01*
X148398772Y-151613300D01*
X148398768Y-151613299D01*
X148334883Y-151597473D01*
X148283367Y-151584711D01*
X148283370Y-151584711D01*
X148081573Y-151547223D01*
X148062033Y-151543593D01*
X148062030Y-151543592D01*
X148062027Y-151543592D01*
X147976599Y-151531487D01*
X147715644Y-151505871D01*
X147652194Y-151501662D01*
X147350380Y-151491209D01*
X147319940Y-151490618D01*
X147292443Y-151490500D01*
X147250091Y-151490320D01*
X147250074Y-151490320D01*
X147250054Y-151490320D01*
X147230760Y-151490423D01*
X146984762Y-151494112D01*
X146945124Y-151495489D01*
X146737305Y-151506814D01*
X146679451Y-151511645D01*
X146503695Y-151531448D01*
X146424250Y-151543633D01*
X146274640Y-151572745D01*
X146274629Y-151572747D01*
X146174993Y-151597473D01*
X146174976Y-151597478D01*
X146045488Y-151636733D01*
X146045464Y-151636741D01*
X145950661Y-151670752D01*
X145865987Y-151706010D01*
X145732672Y-151773554D01*
X145732669Y-151773556D01*
X145578682Y-151866562D01*
X145578666Y-151866572D01*
X145578023Y-151866961D01*
X145578020Y-151866963D01*
X145415499Y-151989345D01*
X145415496Y-151989347D01*
X145284965Y-152110164D01*
X145276586Y-152118009D01*
X145143773Y-152272108D01*
X145143772Y-152272110D01*
X145046191Y-152411725D01*
X145046188Y-152411729D01*
X144975611Y-152528961D01*
X144966124Y-152547462D01*
X144958599Y-152562441D01*
X144903990Y-152673414D01*
X144882156Y-152720853D01*
X144821251Y-152914974D01*
X144821250Y-152914979D01*
X144816196Y-152964685D01*
X144789405Y-153030432D01*
X144731321Y-153071258D01*
X144713799Y-153075828D01*
X144646379Y-153088319D01*
X144646371Y-153088320D01*
X144646353Y-153088325D01*
X144572529Y-153106861D01*
X144572511Y-153106867D01*
X144413419Y-153161312D01*
X144350790Y-153188788D01*
X144350788Y-153188789D01*
X144214146Y-153261767D01*
X144154395Y-153299868D01*
X144095572Y-153340384D01*
X144073240Y-153356965D01*
X144073239Y-153356965D01*
X143955770Y-153459206D01*
X143955749Y-153459225D01*
X143860869Y-153555696D01*
X143854979Y-153561735D01*
X143729039Y-153721527D01*
X143642400Y-153857855D01*
X143573140Y-153986666D01*
X143496353Y-154158361D01*
X143457357Y-154259984D01*
X143420941Y-154372789D01*
X143391920Y-154462687D01*
X143368731Y-154546854D01*
X143316136Y-154776217D01*
X143302115Y-154849864D01*
X143302113Y-154849877D01*
X143263866Y-155101514D01*
X143257053Y-155156518D01*
X143241251Y-155321174D01*
X143236747Y-155403422D01*
X143234005Y-155603417D01*
X142508541Y-155603417D01*
X142508541Y-152367407D01*
X134603967Y-152367407D01*
X134535846Y-152347405D01*
X134489353Y-152293749D01*
X134477967Y-152241407D01*
X134477967Y-151189392D01*
X162130222Y-151189392D01*
X162130222Y-151189407D01*
X162150520Y-151576729D01*
X162211198Y-151959833D01*
X162311587Y-152334493D01*
X162450581Y-152696584D01*
X162450585Y-152696592D01*
X162626676Y-153042192D01*
X162720685Y-153186952D01*
X162837924Y-153367484D01*
X162837929Y-153367490D01*
X162837931Y-153367493D01*
X163082006Y-153668902D01*
X163082020Y-153668917D01*
X163356282Y-153943179D01*
X163356297Y-153943193D01*
X163657706Y-154187268D01*
X163657716Y-154187276D01*
X163769657Y-154259971D01*
X163983007Y-154398523D01*
X163983011Y-154398525D01*
X164328606Y-154574614D01*
X164328610Y-154574615D01*
X164328615Y-154574618D01*
X164690706Y-154713612D01*
X164690711Y-154713613D01*
X164690713Y-154713614D01*
X165065367Y-154814002D01*
X165448462Y-154874678D01*
X165448464Y-154874678D01*
X165448470Y-154874679D01*
X165835793Y-154894978D01*
X165835800Y-154894978D01*
X165835807Y-154894978D01*
X166223129Y-154874679D01*
X166223133Y-154874678D01*
X166223138Y-154874678D01*
X166606233Y-154814002D01*
X166980887Y-154713614D01*
X166980890Y-154713612D01*
X166980893Y-154713612D01*
X167342984Y-154574618D01*
X167342985Y-154574617D01*
X167342994Y-154574614D01*
X167688589Y-154398525D01*
X168013884Y-154187276D01*
X168261618Y-153986665D01*
X168315302Y-153943193D01*
X168315307Y-153943187D01*
X168315316Y-153943181D01*
X168589581Y-153668916D01*
X168589587Y-153668907D01*
X168589593Y-153668902D01*
X168726626Y-153499680D01*
X168833676Y-153367484D01*
X169044925Y-153042189D01*
X169221014Y-152696594D01*
X169229912Y-152673414D01*
X169360012Y-152334493D01*
X169370070Y-152296956D01*
X169460402Y-151959833D01*
X169521078Y-151576738D01*
X169521078Y-151576733D01*
X169521079Y-151576729D01*
X169541378Y-151189407D01*
X169541378Y-151189392D01*
X169521079Y-150802070D01*
X169521078Y-150802062D01*
X169460402Y-150418967D01*
X169360014Y-150044313D01*
X169360013Y-150044311D01*
X169360012Y-150044306D01*
X169221018Y-149682215D01*
X169221014Y-149682207D01*
X169221014Y-149682206D01*
X169044925Y-149336611D01*
X169044923Y-149336607D01*
X168965900Y-149214924D01*
X168833676Y-149011316D01*
X168833668Y-149011306D01*
X168589593Y-148709897D01*
X168589579Y-148709882D01*
X168315317Y-148435620D01*
X168315302Y-148435606D01*
X168013893Y-148191531D01*
X168013890Y-148191529D01*
X168013884Y-148191524D01*
X167881658Y-148105655D01*
X167688592Y-147980276D01*
X167342992Y-147804185D01*
X167342984Y-147804181D01*
X166980893Y-147665187D01*
X166606233Y-147564798D01*
X166223129Y-147504120D01*
X165835807Y-147483822D01*
X165835793Y-147483822D01*
X165448470Y-147504120D01*
X165065366Y-147564798D01*
X164690706Y-147665187D01*
X164328615Y-147804181D01*
X164328607Y-147804185D01*
X163983007Y-147980276D01*
X163657716Y-148191524D01*
X163657706Y-148191531D01*
X163356297Y-148435606D01*
X163356282Y-148435620D01*
X163082020Y-148709882D01*
X163082006Y-148709897D01*
X162837931Y-149011306D01*
X162837924Y-149011316D01*
X162626676Y-149336607D01*
X162450585Y-149682207D01*
X162450581Y-149682215D01*
X162311587Y-150044306D01*
X162211198Y-150418966D01*
X162150520Y-150802070D01*
X162130222Y-151189392D01*
X134477967Y-151189392D01*
X134477967Y-150990254D01*
X130725987Y-150990254D01*
X130725987Y-155504139D01*
X126246700Y-155504139D01*
X126246700Y-151677317D01*
X126216176Y-151603626D01*
X126216173Y-151603622D01*
X126159777Y-151547226D01*
X126159773Y-151547223D01*
X126086082Y-151516700D01*
X115872697Y-151516700D01*
X115804576Y-151496698D01*
X115758083Y-151443042D01*
X115746697Y-151390701D01*
X115746656Y-145705401D01*
X115766658Y-145637280D01*
X115820313Y-145590787D01*
X115872656Y-145579400D01*
X215219656Y-145579400D01*
X215287777Y-145599402D01*
G37*
%TD.AperFunction*%
M02*
