M48
; DRILL file {KiCad 8.0.2-1} date 2024-06-23T19:16:47-0700
; FORMAT={-:-/ absolute / inch / decimal}
; #@! TF.CreationDate,2024-06-23T19:16:47-07:00
; #@! TF.GenerationSoftware,Kicad,Pcbnew,8.0.2-1
; #@! TF.FileFunction,Plated,1,4,PTH
FMAT,2
INCH
; #@! TA.AperFunction,Plated,PTH,ViaDrill
T1C0.0157
; #@! TA.AperFunction,Plated,PTH,ComponentDrill
T2C0.0276
; #@! TA.AperFunction,Plated,PTH,ComponentDrill
T3C0.0394
; #@! TA.AperFunction,Plated,PTH,ComponentDrill
T4C0.0591
; #@! TA.AperFunction,Plated,PTH,ComponentDrill
T5C0.0669
; #@! TA.AperFunction,Plated,PTH,ComponentDrill
T6C0.1063
%
G90
G05
T1
X4.6435Y-5.4579
X4.6499Y-5.3831
X4.6514Y-5.3079
X4.7656Y-3.6267
X4.7849Y-5.2917
X4.7916Y-3.6917
X4.7931Y-3.1638
X4.8026Y-3.5519
X4.8104Y-3.6218
X4.8242Y-3.2921
X4.8278Y-5.3827
X4.8404Y-5.4451
X4.8758Y-5.4771
X4.8837Y-5.3866
X4.8882Y-3.1836
X4.8882Y-3.225
X4.9506Y-4.8275
X4.9585Y-4.985
X5.1111Y-4.9845
X5.1318Y-4.8513
X5.1396Y-4.9554
X5.2301Y-4.9721
X5.2695Y-4.8669
X5.5254Y-4.9063
X5.8188Y-4.346
X5.8242Y-4.4691
X5.852Y-4.497
X5.8522Y-4.3669
X5.8916Y-4.5834
X5.8955Y-4.3984
X5.9152Y-4.2803
X5.9231Y-4.4299
X5.9309Y-4.5874
X6.0306Y-4.3721
X6.3994Y-4.3787
X6.4526Y-5.0834
X6.4546Y-4.2094
X6.4742Y-4.863
X6.4742Y-4.9023
X6.4742Y-4.9417
X6.4742Y-4.9811
X6.4742Y-5.0165
X6.4782Y-4.8236
X6.4795Y-5.129
X6.4949Y-5.0519
X6.5451Y-4.485
X6.5569Y-5.0559
X6.5609Y-4.8807
X6.5609Y-4.9201
X6.5628Y-4.8453
X6.5628Y-5.0204
X6.5648Y-4.1307
X6.5727Y-5.13
X6.5904Y-5.0854
X6.616Y-4.2409
X6.6435Y-4.0598
X6.6553Y-4.8866
X6.7341Y-4.8787
X6.742Y-4.0598
X6.7616Y-4.8512
X6.7892Y-4.8236
X6.8089Y-4.9456
X6.8168Y-4.8
X6.8404Y-4.9181
X6.8601Y-4.1937
X6.864Y-4.0519
X6.8719Y-4.8945
X6.8955Y-4.863
X6.9152Y-4.8236
X6.9388Y-4.1976
X7.0215Y-4.0519
X7.1868Y-4.1819
X7.2577Y-4.2055
X7.4152Y-4.1976
X7.5294Y-3.253
X8.1196Y-3.1746
X8.1196Y-3.2159
X8.2155Y-3.6266
X8.2183Y-3.5874
X8.2313Y-3.1094
X8.2353Y-3.5279
X8.2412Y-3.6654
X8.2481Y-3.2417
T3
X5.1922Y-2.6622
X5.1922Y-2.8079
X5.2922Y-2.6622
X5.2922Y-2.8079
X5.4477Y-2.6622
X5.4477Y-2.8079
X5.5477Y-2.6622
X5.5477Y-2.8079
X6.0739Y-4.5909
X6.0739Y-4.7909
X6.1239Y-4.4909
X6.1239Y-4.8909
X6.1248Y-4.3197
X6.2239Y-4.4909
X6.2239Y-4.8909
X6.2248Y-4.3197
X6.2853Y-4.5909
X6.2853Y-4.7909
T4
X6.5254Y-4.6819
T5
X6.4254Y-4.5819
X6.4254Y-4.7819
X6.6254Y-4.5819
X6.6254Y-4.7819
T6
X4.9931Y-4.4189
X5.6179Y-3.14
X5.9164Y-2.7606
X5.9927Y-3.1405
X6.529Y-2.8834
X6.529Y-5.9523
X8.0632Y-4.4169
T2
G00X4.5943Y-3.0628
M15
G01X4.6179Y-3.0628
M16
G05
G00X4.5943Y-3.3738
M15
G01X4.6179Y-3.3738
M16
G05
G00X4.5943Y-3.4575
M15
G01X4.6179Y-3.4575
M16
G05
G00X4.5943Y-3.7685
M15
G01X4.6179Y-3.7685
M16
G05
G00X8.4408Y-3.0283
M15
G01X8.4172Y-3.0283
M16
G05
G00X8.4408Y-3.3393
M15
G01X8.4172Y-3.3393
M16
G05
G00X8.4408Y-3.4329
M15
G01X8.4172Y-3.4329
M16
G05
G00X8.4408Y-3.7439
M15
G01X8.4172Y-3.7439
M16
G05
M30
