%TF.GenerationSoftware,KiCad,Pcbnew,9.0.0*%
%TF.CreationDate,2025-04-17T17:25:07-07:00*%
%TF.ProjectId,antenna_top_cap_v2a,616e7465-6e6e-4615-9f74-6f705f636170,rev?*%
%TF.SameCoordinates,Original*%
%TF.FileFunction,Copper,L1,Top*%
%TF.FilePolarity,Positive*%
%FSLAX46Y46*%
G04 Gerber Fmt 4.6, Leading zero omitted, Abs format (unit mm)*
G04 Created by KiCad (PCBNEW 9.0.0) date 2025-04-17 17:25:07*
%MOMM*%
%LPD*%
G01*
G04 APERTURE LIST*
G04 Aperture macros list*
%AMRoundRect*
0 Rectangle with rounded corners*
0 $1 Rounding radius*
0 $2 $3 $4 $5 $6 $7 $8 $9 X,Y pos of 4 corners*
0 Add a 4 corners polygon primitive as box body*
4,1,4,$2,$3,$4,$5,$6,$7,$8,$9,$2,$3,0*
0 Add four circle primitives for the rounded corners*
1,1,$1+$1,$2,$3*
1,1,$1+$1,$4,$5*
1,1,$1+$1,$6,$7*
1,1,$1+$1,$8,$9*
0 Add four rect primitives between the rounded corners*
20,1,$1+$1,$2,$3,$4,$5,0*
20,1,$1+$1,$4,$5,$6,$7,0*
20,1,$1+$1,$6,$7,$8,$9,0*
20,1,$1+$1,$8,$9,$2,$3,0*%
G04 Aperture macros list end*
%ADD10C,0.150000*%
%TA.AperFunction,NonConductor*%
%ADD11C,0.150000*%
%TD*%
%TA.AperFunction,SMDPad,CuDef*%
%ADD12RoundRect,0.200000X-0.200000X-0.275000X0.200000X-0.275000X0.200000X0.275000X-0.200000X0.275000X0*%
%TD*%
%TA.AperFunction,ComponentPad*%
%ADD13O,1.700000X1.700000*%
%TD*%
%TA.AperFunction,ComponentPad*%
%ADD14R,1.700000X1.700000*%
%TD*%
%TA.AperFunction,ComponentPad*%
%ADD15C,5.400000*%
%TD*%
%TA.AperFunction,SMDPad,CuDef*%
%ADD16RoundRect,0.250000X0.475000X-0.250000X0.475000X0.250000X-0.475000X0.250000X-0.475000X-0.250000X0*%
%TD*%
%TA.AperFunction,ComponentPad*%
%ADD17RoundRect,0.250000X0.575000X-0.350000X0.575000X0.350000X-0.575000X0.350000X-0.575000X-0.350000X0*%
%TD*%
%TA.AperFunction,ComponentPad*%
%ADD18O,1.650000X1.200000*%
%TD*%
%TA.AperFunction,SMDPad,CuDef*%
%ADD19RoundRect,0.200000X0.200000X0.275000X-0.200000X0.275000X-0.200000X-0.275000X0.200000X-0.275000X0*%
%TD*%
%TA.AperFunction,SMDPad,CuDef*%
%ADD20R,0.800000X0.300000*%
%TD*%
%TA.AperFunction,SMDPad,CuDef*%
%ADD21R,6.390000X11.320000*%
%TD*%
%TA.AperFunction,SMDPad,CuDef*%
%ADD22R,6.400000X11.300000*%
%TD*%
%TA.AperFunction,SMDPad,CuDef*%
%ADD23RoundRect,0.150000X0.512500X0.150000X-0.512500X0.150000X-0.512500X-0.150000X0.512500X-0.150000X0*%
%TD*%
%TA.AperFunction,SMDPad,CuDef*%
%ADD24RoundRect,0.225000X-0.250000X0.225000X-0.250000X-0.225000X0.250000X-0.225000X0.250000X0.225000X0*%
%TD*%
%TA.AperFunction,ComponentPad*%
%ADD25C,2.050000*%
%TD*%
%TA.AperFunction,ComponentPad*%
%ADD26C,2.250000*%
%TD*%
%TA.AperFunction,SMDPad,CuDef*%
%ADD27R,0.650000X0.400000*%
%TD*%
%TA.AperFunction,SMDPad,CuDef*%
%ADD28R,0.500000X0.800000*%
%TD*%
%TA.AperFunction,SMDPad,CuDef*%
%ADD29R,0.400000X0.800000*%
%TD*%
%TA.AperFunction,SMDPad,CuDef*%
%ADD30RoundRect,0.100000X0.687500X0.100000X-0.687500X0.100000X-0.687500X-0.100000X0.687500X-0.100000X0*%
%TD*%
%TA.AperFunction,HeatsinkPad*%
%ADD31C,0.500000*%
%TD*%
%TA.AperFunction,HeatsinkPad*%
%ADD32R,1.500000X1.800000*%
%TD*%
%TA.AperFunction,HeatsinkPad*%
%ADD33O,1.000000X1.600000*%
%TD*%
%TA.AperFunction,HeatsinkPad*%
%ADD34O,1.000000X2.100000*%
%TD*%
%TA.AperFunction,ViaPad*%
%ADD35C,0.800000*%
%TD*%
%TA.AperFunction,ViaPad*%
%ADD36C,0.460000*%
%TD*%
%TA.AperFunction,Conductor*%
%ADD37C,0.254000*%
%TD*%
%TA.AperFunction,Conductor*%
%ADD38C,0.635000*%
%TD*%
%TA.AperFunction,Conductor*%
%ADD39C,0.250000*%
%TD*%
%TA.AperFunction,Conductor*%
%ADD40C,0.349250*%
%TD*%
%TA.AperFunction,Conductor*%
%ADD41C,0.152400*%
%TD*%
%TA.AperFunction,Conductor*%
%ADD42C,0.381000*%
%TD*%
%TA.AperFunction,Conductor*%
%ADD43C,0.300000*%
%TD*%
%TA.AperFunction,Conductor*%
%ADD44C,0.200000*%
%TD*%
G04 APERTURE END LIST*
D10*
D11*
X136325798Y-156144275D02*
X136944845Y-156144275D01*
X136944845Y-156144275D02*
X136611512Y-156525227D01*
X136611512Y-156525227D02*
X136754369Y-156525227D01*
X136754369Y-156525227D02*
X136849607Y-156572846D01*
X136849607Y-156572846D02*
X136897226Y-156620465D01*
X136897226Y-156620465D02*
X136944845Y-156715703D01*
X136944845Y-156715703D02*
X136944845Y-156953798D01*
X136944845Y-156953798D02*
X136897226Y-157049036D01*
X136897226Y-157049036D02*
X136849607Y-157096656D01*
X136849607Y-157096656D02*
X136754369Y-157144275D01*
X136754369Y-157144275D02*
X136468655Y-157144275D01*
X136468655Y-157144275D02*
X136373417Y-157096656D01*
X136373417Y-157096656D02*
X136325798Y-157049036D01*
X137373417Y-157144275D02*
X137373417Y-156144275D01*
X137373417Y-156144275D02*
X137754369Y-156144275D01*
X137754369Y-156144275D02*
X137849607Y-156191894D01*
X137849607Y-156191894D02*
X137897226Y-156239513D01*
X137897226Y-156239513D02*
X137944845Y-156334751D01*
X137944845Y-156334751D02*
X137944845Y-156477608D01*
X137944845Y-156477608D02*
X137897226Y-156572846D01*
X137897226Y-156572846D02*
X137849607Y-156620465D01*
X137849607Y-156620465D02*
X137754369Y-156668084D01*
X137754369Y-156668084D02*
X137373417Y-156668084D01*
X138278179Y-156477608D02*
X138516274Y-157144275D01*
X138754369Y-156477608D02*
X138516274Y-157144275D01*
X138516274Y-157144275D02*
X138421036Y-157382370D01*
X138421036Y-157382370D02*
X138373417Y-157429989D01*
X138373417Y-157429989D02*
X138278179Y-157477608D01*
X139087703Y-157096656D02*
X139230560Y-157144275D01*
X139230560Y-157144275D02*
X139468655Y-157144275D01*
X139468655Y-157144275D02*
X139563893Y-157096656D01*
X139563893Y-157096656D02*
X139611512Y-157049036D01*
X139611512Y-157049036D02*
X139659131Y-156953798D01*
X139659131Y-156953798D02*
X139659131Y-156858560D01*
X139659131Y-156858560D02*
X139611512Y-156763322D01*
X139611512Y-156763322D02*
X139563893Y-156715703D01*
X139563893Y-156715703D02*
X139468655Y-156668084D01*
X139468655Y-156668084D02*
X139278179Y-156620465D01*
X139278179Y-156620465D02*
X139182941Y-156572846D01*
X139182941Y-156572846D02*
X139135322Y-156525227D01*
X139135322Y-156525227D02*
X139087703Y-156429989D01*
X139087703Y-156429989D02*
X139087703Y-156334751D01*
X139087703Y-156334751D02*
X139135322Y-156239513D01*
X139135322Y-156239513D02*
X139182941Y-156191894D01*
X139182941Y-156191894D02*
X139278179Y-156144275D01*
X139278179Y-156144275D02*
X139516274Y-156144275D01*
X139516274Y-156144275D02*
X139659131Y-156191894D01*
X140516274Y-156477608D02*
X140516274Y-157477608D01*
X140516274Y-157096656D02*
X140421036Y-157144275D01*
X140421036Y-157144275D02*
X140230560Y-157144275D01*
X140230560Y-157144275D02*
X140135322Y-157096656D01*
X140135322Y-157096656D02*
X140087703Y-157049036D01*
X140087703Y-157049036D02*
X140040084Y-156953798D01*
X140040084Y-156953798D02*
X140040084Y-156668084D01*
X140040084Y-156668084D02*
X140087703Y-156572846D01*
X140087703Y-156572846D02*
X140135322Y-156525227D01*
X140135322Y-156525227D02*
X140230560Y-156477608D01*
X140230560Y-156477608D02*
X140421036Y-156477608D01*
X140421036Y-156477608D02*
X140516274Y-156525227D01*
X141421036Y-156477608D02*
X141421036Y-157144275D01*
X140992465Y-156477608D02*
X140992465Y-157001417D01*
X140992465Y-157001417D02*
X141040084Y-157096656D01*
X141040084Y-157096656D02*
X141135322Y-157144275D01*
X141135322Y-157144275D02*
X141278179Y-157144275D01*
X141278179Y-157144275D02*
X141373417Y-157096656D01*
X141373417Y-157096656D02*
X141421036Y-157049036D01*
X142325798Y-157144275D02*
X142325798Y-156620465D01*
X142325798Y-156620465D02*
X142278179Y-156525227D01*
X142278179Y-156525227D02*
X142182941Y-156477608D01*
X142182941Y-156477608D02*
X141992465Y-156477608D01*
X141992465Y-156477608D02*
X141897227Y-156525227D01*
X142325798Y-157096656D02*
X142230560Y-157144275D01*
X142230560Y-157144275D02*
X141992465Y-157144275D01*
X141992465Y-157144275D02*
X141897227Y-157096656D01*
X141897227Y-157096656D02*
X141849608Y-157001417D01*
X141849608Y-157001417D02*
X141849608Y-156906179D01*
X141849608Y-156906179D02*
X141897227Y-156810941D01*
X141897227Y-156810941D02*
X141992465Y-156763322D01*
X141992465Y-156763322D02*
X142230560Y-156763322D01*
X142230560Y-156763322D02*
X142325798Y-156715703D01*
X142801989Y-157144275D02*
X142801989Y-156477608D01*
X142801989Y-156668084D02*
X142849608Y-156572846D01*
X142849608Y-156572846D02*
X142897227Y-156525227D01*
X142897227Y-156525227D02*
X142992465Y-156477608D01*
X142992465Y-156477608D02*
X143087703Y-156477608D01*
X143801989Y-157096656D02*
X143706751Y-157144275D01*
X143706751Y-157144275D02*
X143516275Y-157144275D01*
X143516275Y-157144275D02*
X143421037Y-157096656D01*
X143421037Y-157096656D02*
X143373418Y-157001417D01*
X143373418Y-157001417D02*
X143373418Y-156620465D01*
X143373418Y-156620465D02*
X143421037Y-156525227D01*
X143421037Y-156525227D02*
X143516275Y-156477608D01*
X143516275Y-156477608D02*
X143706751Y-156477608D01*
X143706751Y-156477608D02*
X143801989Y-156525227D01*
X143801989Y-156525227D02*
X143849608Y-156620465D01*
X143849608Y-156620465D02*
X143849608Y-156715703D01*
X143849608Y-156715703D02*
X143373418Y-156810941D01*
X144706751Y-157144275D02*
X144706751Y-156144275D01*
X144706751Y-157096656D02*
X144611513Y-157144275D01*
X144611513Y-157144275D02*
X144421037Y-157144275D01*
X144421037Y-157144275D02*
X144325799Y-157096656D01*
X144325799Y-157096656D02*
X144278180Y-157049036D01*
X144278180Y-157049036D02*
X144230561Y-156953798D01*
X144230561Y-156953798D02*
X144230561Y-156668084D01*
X144230561Y-156668084D02*
X144278180Y-156572846D01*
X144278180Y-156572846D02*
X144325799Y-156525227D01*
X144325799Y-156525227D02*
X144421037Y-156477608D01*
X144421037Y-156477608D02*
X144611513Y-156477608D01*
X144611513Y-156477608D02*
X144706751Y-156525227D01*
X145897228Y-156858560D02*
X146373418Y-156858560D01*
X145801990Y-157144275D02*
X146135323Y-156144275D01*
X146135323Y-156144275D02*
X146468656Y-157144275D01*
X146801990Y-156477608D02*
X146801990Y-157144275D01*
X146801990Y-156572846D02*
X146849609Y-156525227D01*
X146849609Y-156525227D02*
X146944847Y-156477608D01*
X146944847Y-156477608D02*
X147087704Y-156477608D01*
X147087704Y-156477608D02*
X147182942Y-156525227D01*
X147182942Y-156525227D02*
X147230561Y-156620465D01*
X147230561Y-156620465D02*
X147230561Y-157144275D01*
X147563895Y-156477608D02*
X147944847Y-156477608D01*
X147706752Y-156144275D02*
X147706752Y-157001417D01*
X147706752Y-157001417D02*
X147754371Y-157096656D01*
X147754371Y-157096656D02*
X147849609Y-157144275D01*
X147849609Y-157144275D02*
X147944847Y-157144275D01*
X148659133Y-157096656D02*
X148563895Y-157144275D01*
X148563895Y-157144275D02*
X148373419Y-157144275D01*
X148373419Y-157144275D02*
X148278181Y-157096656D01*
X148278181Y-157096656D02*
X148230562Y-157001417D01*
X148230562Y-157001417D02*
X148230562Y-156620465D01*
X148230562Y-156620465D02*
X148278181Y-156525227D01*
X148278181Y-156525227D02*
X148373419Y-156477608D01*
X148373419Y-156477608D02*
X148563895Y-156477608D01*
X148563895Y-156477608D02*
X148659133Y-156525227D01*
X148659133Y-156525227D02*
X148706752Y-156620465D01*
X148706752Y-156620465D02*
X148706752Y-156715703D01*
X148706752Y-156715703D02*
X148230562Y-156810941D01*
X149135324Y-156477608D02*
X149135324Y-157144275D01*
X149135324Y-156572846D02*
X149182943Y-156525227D01*
X149182943Y-156525227D02*
X149278181Y-156477608D01*
X149278181Y-156477608D02*
X149421038Y-156477608D01*
X149421038Y-156477608D02*
X149516276Y-156525227D01*
X149516276Y-156525227D02*
X149563895Y-156620465D01*
X149563895Y-156620465D02*
X149563895Y-157144275D01*
X150040086Y-156477608D02*
X150040086Y-157144275D01*
X150040086Y-156572846D02*
X150087705Y-156525227D01*
X150087705Y-156525227D02*
X150182943Y-156477608D01*
X150182943Y-156477608D02*
X150325800Y-156477608D01*
X150325800Y-156477608D02*
X150421038Y-156525227D01*
X150421038Y-156525227D02*
X150468657Y-156620465D01*
X150468657Y-156620465D02*
X150468657Y-157144275D01*
X151373419Y-157144275D02*
X151373419Y-156620465D01*
X151373419Y-156620465D02*
X151325800Y-156525227D01*
X151325800Y-156525227D02*
X151230562Y-156477608D01*
X151230562Y-156477608D02*
X151040086Y-156477608D01*
X151040086Y-156477608D02*
X150944848Y-156525227D01*
X151373419Y-157096656D02*
X151278181Y-157144275D01*
X151278181Y-157144275D02*
X151040086Y-157144275D01*
X151040086Y-157144275D02*
X150944848Y-157096656D01*
X150944848Y-157096656D02*
X150897229Y-157001417D01*
X150897229Y-157001417D02*
X150897229Y-156906179D01*
X150897229Y-156906179D02*
X150944848Y-156810941D01*
X150944848Y-156810941D02*
X151040086Y-156763322D01*
X151040086Y-156763322D02*
X151278181Y-156763322D01*
X151278181Y-156763322D02*
X151373419Y-156715703D01*
X152944848Y-156620465D02*
X153087705Y-156668084D01*
X153087705Y-156668084D02*
X153135324Y-156715703D01*
X153135324Y-156715703D02*
X153182943Y-156810941D01*
X153182943Y-156810941D02*
X153182943Y-156953798D01*
X153182943Y-156953798D02*
X153135324Y-157049036D01*
X153135324Y-157049036D02*
X153087705Y-157096656D01*
X153087705Y-157096656D02*
X152992467Y-157144275D01*
X152992467Y-157144275D02*
X152611515Y-157144275D01*
X152611515Y-157144275D02*
X152611515Y-156144275D01*
X152611515Y-156144275D02*
X152944848Y-156144275D01*
X152944848Y-156144275D02*
X153040086Y-156191894D01*
X153040086Y-156191894D02*
X153087705Y-156239513D01*
X153087705Y-156239513D02*
X153135324Y-156334751D01*
X153135324Y-156334751D02*
X153135324Y-156429989D01*
X153135324Y-156429989D02*
X153087705Y-156525227D01*
X153087705Y-156525227D02*
X153040086Y-156572846D01*
X153040086Y-156572846D02*
X152944848Y-156620465D01*
X152944848Y-156620465D02*
X152611515Y-156620465D01*
X153754372Y-157144275D02*
X153659134Y-157096656D01*
X153659134Y-157096656D02*
X153611515Y-157049036D01*
X153611515Y-157049036D02*
X153563896Y-156953798D01*
X153563896Y-156953798D02*
X153563896Y-156668084D01*
X153563896Y-156668084D02*
X153611515Y-156572846D01*
X153611515Y-156572846D02*
X153659134Y-156525227D01*
X153659134Y-156525227D02*
X153754372Y-156477608D01*
X153754372Y-156477608D02*
X153897229Y-156477608D01*
X153897229Y-156477608D02*
X153992467Y-156525227D01*
X153992467Y-156525227D02*
X154040086Y-156572846D01*
X154040086Y-156572846D02*
X154087705Y-156668084D01*
X154087705Y-156668084D02*
X154087705Y-156953798D01*
X154087705Y-156953798D02*
X154040086Y-157049036D01*
X154040086Y-157049036D02*
X153992467Y-157096656D01*
X153992467Y-157096656D02*
X153897229Y-157144275D01*
X153897229Y-157144275D02*
X153754372Y-157144275D01*
X154944848Y-157144275D02*
X154944848Y-156620465D01*
X154944848Y-156620465D02*
X154897229Y-156525227D01*
X154897229Y-156525227D02*
X154801991Y-156477608D01*
X154801991Y-156477608D02*
X154611515Y-156477608D01*
X154611515Y-156477608D02*
X154516277Y-156525227D01*
X154944848Y-157096656D02*
X154849610Y-157144275D01*
X154849610Y-157144275D02*
X154611515Y-157144275D01*
X154611515Y-157144275D02*
X154516277Y-157096656D01*
X154516277Y-157096656D02*
X154468658Y-157001417D01*
X154468658Y-157001417D02*
X154468658Y-156906179D01*
X154468658Y-156906179D02*
X154516277Y-156810941D01*
X154516277Y-156810941D02*
X154611515Y-156763322D01*
X154611515Y-156763322D02*
X154849610Y-156763322D01*
X154849610Y-156763322D02*
X154944848Y-156715703D01*
X155421039Y-157144275D02*
X155421039Y-156477608D01*
X155421039Y-156668084D02*
X155468658Y-156572846D01*
X155468658Y-156572846D02*
X155516277Y-156525227D01*
X155516277Y-156525227D02*
X155611515Y-156477608D01*
X155611515Y-156477608D02*
X155706753Y-156477608D01*
X156468658Y-157144275D02*
X156468658Y-156144275D01*
X156468658Y-157096656D02*
X156373420Y-157144275D01*
X156373420Y-157144275D02*
X156182944Y-157144275D01*
X156182944Y-157144275D02*
X156087706Y-157096656D01*
X156087706Y-157096656D02*
X156040087Y-157049036D01*
X156040087Y-157049036D02*
X155992468Y-156953798D01*
X155992468Y-156953798D02*
X155992468Y-156668084D01*
X155992468Y-156668084D02*
X156040087Y-156572846D01*
X156040087Y-156572846D02*
X156087706Y-156525227D01*
X156087706Y-156525227D02*
X156182944Y-156477608D01*
X156182944Y-156477608D02*
X156373420Y-156477608D01*
X156373420Y-156477608D02*
X156468658Y-156525227D01*
X146016276Y-157754219D02*
X146349609Y-158754219D01*
X146349609Y-158754219D02*
X146682942Y-157754219D01*
X146968657Y-157849457D02*
X147016276Y-157801838D01*
X147016276Y-157801838D02*
X147111514Y-157754219D01*
X147111514Y-157754219D02*
X147349609Y-157754219D01*
X147349609Y-157754219D02*
X147444847Y-157801838D01*
X147444847Y-157801838D02*
X147492466Y-157849457D01*
X147492466Y-157849457D02*
X147540085Y-157944695D01*
X147540085Y-157944695D02*
X147540085Y-158039933D01*
X147540085Y-158039933D02*
X147492466Y-158182790D01*
X147492466Y-158182790D02*
X146921038Y-158754219D01*
X146921038Y-158754219D02*
X147540085Y-158754219D01*
X127682940Y-160364163D02*
X127682940Y-159364163D01*
X127682940Y-159364163D02*
X128016273Y-160078448D01*
X128016273Y-160078448D02*
X128349606Y-159364163D01*
X128349606Y-159364163D02*
X128349606Y-160364163D01*
X128825797Y-160364163D02*
X128825797Y-159697496D01*
X128825797Y-159364163D02*
X128778178Y-159411782D01*
X128778178Y-159411782D02*
X128825797Y-159459401D01*
X128825797Y-159459401D02*
X128873416Y-159411782D01*
X128873416Y-159411782D02*
X128825797Y-159364163D01*
X128825797Y-159364163D02*
X128825797Y-159459401D01*
X129730558Y-160316544D02*
X129635320Y-160364163D01*
X129635320Y-160364163D02*
X129444844Y-160364163D01*
X129444844Y-160364163D02*
X129349606Y-160316544D01*
X129349606Y-160316544D02*
X129301987Y-160268924D01*
X129301987Y-160268924D02*
X129254368Y-160173686D01*
X129254368Y-160173686D02*
X129254368Y-159887972D01*
X129254368Y-159887972D02*
X129301987Y-159792734D01*
X129301987Y-159792734D02*
X129349606Y-159745115D01*
X129349606Y-159745115D02*
X129444844Y-159697496D01*
X129444844Y-159697496D02*
X129635320Y-159697496D01*
X129635320Y-159697496D02*
X129730558Y-159745115D01*
X130159130Y-160364163D02*
X130159130Y-159364163D01*
X130587701Y-160364163D02*
X130587701Y-159840353D01*
X130587701Y-159840353D02*
X130540082Y-159745115D01*
X130540082Y-159745115D02*
X130444844Y-159697496D01*
X130444844Y-159697496D02*
X130301987Y-159697496D01*
X130301987Y-159697496D02*
X130206749Y-159745115D01*
X130206749Y-159745115D02*
X130159130Y-159792734D01*
X131492463Y-160364163D02*
X131492463Y-159840353D01*
X131492463Y-159840353D02*
X131444844Y-159745115D01*
X131444844Y-159745115D02*
X131349606Y-159697496D01*
X131349606Y-159697496D02*
X131159130Y-159697496D01*
X131159130Y-159697496D02*
X131063892Y-159745115D01*
X131492463Y-160316544D02*
X131397225Y-160364163D01*
X131397225Y-160364163D02*
X131159130Y-160364163D01*
X131159130Y-160364163D02*
X131063892Y-160316544D01*
X131063892Y-160316544D02*
X131016273Y-160221305D01*
X131016273Y-160221305D02*
X131016273Y-160126067D01*
X131016273Y-160126067D02*
X131063892Y-160030829D01*
X131063892Y-160030829D02*
X131159130Y-159983210D01*
X131159130Y-159983210D02*
X131397225Y-159983210D01*
X131397225Y-159983210D02*
X131492463Y-159935591D01*
X132349606Y-160316544D02*
X132254368Y-160364163D01*
X132254368Y-160364163D02*
X132063892Y-160364163D01*
X132063892Y-160364163D02*
X131968654Y-160316544D01*
X131968654Y-160316544D02*
X131921035Y-160221305D01*
X131921035Y-160221305D02*
X131921035Y-159840353D01*
X131921035Y-159840353D02*
X131968654Y-159745115D01*
X131968654Y-159745115D02*
X132063892Y-159697496D01*
X132063892Y-159697496D02*
X132254368Y-159697496D01*
X132254368Y-159697496D02*
X132349606Y-159745115D01*
X132349606Y-159745115D02*
X132397225Y-159840353D01*
X132397225Y-159840353D02*
X132397225Y-159935591D01*
X132397225Y-159935591D02*
X131921035Y-160030829D01*
X132968654Y-160364163D02*
X132873416Y-160316544D01*
X132873416Y-160316544D02*
X132825797Y-160221305D01*
X132825797Y-160221305D02*
X132825797Y-159364163D01*
X134111512Y-160364163D02*
X134111512Y-159364163D01*
X134111512Y-159364163D02*
X134492464Y-159364163D01*
X134492464Y-159364163D02*
X134587702Y-159411782D01*
X134587702Y-159411782D02*
X134635321Y-159459401D01*
X134635321Y-159459401D02*
X134682940Y-159554639D01*
X134682940Y-159554639D02*
X134682940Y-159697496D01*
X134682940Y-159697496D02*
X134635321Y-159792734D01*
X134635321Y-159792734D02*
X134587702Y-159840353D01*
X134587702Y-159840353D02*
X134492464Y-159887972D01*
X134492464Y-159887972D02*
X134111512Y-159887972D01*
X135111512Y-160364163D02*
X135111512Y-159364163D01*
X135540083Y-160364163D02*
X135540083Y-159840353D01*
X135540083Y-159840353D02*
X135492464Y-159745115D01*
X135492464Y-159745115D02*
X135397226Y-159697496D01*
X135397226Y-159697496D02*
X135254369Y-159697496D01*
X135254369Y-159697496D02*
X135159131Y-159745115D01*
X135159131Y-159745115D02*
X135111512Y-159792734D01*
X136444845Y-160364163D02*
X136444845Y-159840353D01*
X136444845Y-159840353D02*
X136397226Y-159745115D01*
X136397226Y-159745115D02*
X136301988Y-159697496D01*
X136301988Y-159697496D02*
X136111512Y-159697496D01*
X136111512Y-159697496D02*
X136016274Y-159745115D01*
X136444845Y-160316544D02*
X136349607Y-160364163D01*
X136349607Y-160364163D02*
X136111512Y-160364163D01*
X136111512Y-160364163D02*
X136016274Y-160316544D01*
X136016274Y-160316544D02*
X135968655Y-160221305D01*
X135968655Y-160221305D02*
X135968655Y-160126067D01*
X135968655Y-160126067D02*
X136016274Y-160030829D01*
X136016274Y-160030829D02*
X136111512Y-159983210D01*
X136111512Y-159983210D02*
X136349607Y-159983210D01*
X136349607Y-159983210D02*
X136444845Y-159935591D01*
X136921036Y-160364163D02*
X136921036Y-159697496D01*
X136921036Y-159792734D02*
X136968655Y-159745115D01*
X136968655Y-159745115D02*
X137063893Y-159697496D01*
X137063893Y-159697496D02*
X137206750Y-159697496D01*
X137206750Y-159697496D02*
X137301988Y-159745115D01*
X137301988Y-159745115D02*
X137349607Y-159840353D01*
X137349607Y-159840353D02*
X137349607Y-160364163D01*
X137349607Y-159840353D02*
X137397226Y-159745115D01*
X137397226Y-159745115D02*
X137492464Y-159697496D01*
X137492464Y-159697496D02*
X137635321Y-159697496D01*
X137635321Y-159697496D02*
X137730560Y-159745115D01*
X137730560Y-159745115D02*
X137778179Y-159840353D01*
X137778179Y-159840353D02*
X137778179Y-160364163D01*
X139254369Y-160697496D02*
X139254369Y-159268924D01*
X140730560Y-160364163D02*
X140730560Y-159364163D01*
X140730560Y-159364163D02*
X141301988Y-160364163D01*
X141301988Y-160364163D02*
X141301988Y-159364163D01*
X141778179Y-160364163D02*
X141778179Y-159697496D01*
X141778179Y-159364163D02*
X141730560Y-159411782D01*
X141730560Y-159411782D02*
X141778179Y-159459401D01*
X141778179Y-159459401D02*
X141825798Y-159411782D01*
X141825798Y-159411782D02*
X141778179Y-159364163D01*
X141778179Y-159364163D02*
X141778179Y-159459401D01*
X142682940Y-160316544D02*
X142587702Y-160364163D01*
X142587702Y-160364163D02*
X142397226Y-160364163D01*
X142397226Y-160364163D02*
X142301988Y-160316544D01*
X142301988Y-160316544D02*
X142254369Y-160268924D01*
X142254369Y-160268924D02*
X142206750Y-160173686D01*
X142206750Y-160173686D02*
X142206750Y-159887972D01*
X142206750Y-159887972D02*
X142254369Y-159792734D01*
X142254369Y-159792734D02*
X142301988Y-159745115D01*
X142301988Y-159745115D02*
X142397226Y-159697496D01*
X142397226Y-159697496D02*
X142587702Y-159697496D01*
X142587702Y-159697496D02*
X142682940Y-159745115D01*
X143254369Y-160364163D02*
X143159131Y-160316544D01*
X143159131Y-160316544D02*
X143111512Y-160268924D01*
X143111512Y-160268924D02*
X143063893Y-160173686D01*
X143063893Y-160173686D02*
X143063893Y-159887972D01*
X143063893Y-159887972D02*
X143111512Y-159792734D01*
X143111512Y-159792734D02*
X143159131Y-159745115D01*
X143159131Y-159745115D02*
X143254369Y-159697496D01*
X143254369Y-159697496D02*
X143397226Y-159697496D01*
X143397226Y-159697496D02*
X143492464Y-159745115D01*
X143492464Y-159745115D02*
X143540083Y-159792734D01*
X143540083Y-159792734D02*
X143587702Y-159887972D01*
X143587702Y-159887972D02*
X143587702Y-160173686D01*
X143587702Y-160173686D02*
X143540083Y-160268924D01*
X143540083Y-160268924D02*
X143492464Y-160316544D01*
X143492464Y-160316544D02*
X143397226Y-160364163D01*
X143397226Y-160364163D02*
X143254369Y-160364163D01*
X144159131Y-160364163D02*
X144063893Y-160316544D01*
X144063893Y-160316544D02*
X144016274Y-160221305D01*
X144016274Y-160221305D02*
X144016274Y-159364163D01*
X144921036Y-160316544D02*
X144825798Y-160364163D01*
X144825798Y-160364163D02*
X144635322Y-160364163D01*
X144635322Y-160364163D02*
X144540084Y-160316544D01*
X144540084Y-160316544D02*
X144492465Y-160221305D01*
X144492465Y-160221305D02*
X144492465Y-159840353D01*
X144492465Y-159840353D02*
X144540084Y-159745115D01*
X144540084Y-159745115D02*
X144635322Y-159697496D01*
X144635322Y-159697496D02*
X144825798Y-159697496D01*
X144825798Y-159697496D02*
X144921036Y-159745115D01*
X144921036Y-159745115D02*
X144968655Y-159840353D01*
X144968655Y-159840353D02*
X144968655Y-159935591D01*
X144968655Y-159935591D02*
X144492465Y-160030829D01*
X146159132Y-160364163D02*
X146159132Y-159364163D01*
X146159132Y-159364163D02*
X146492465Y-160078448D01*
X146492465Y-160078448D02*
X146825798Y-159364163D01*
X146825798Y-159364163D02*
X146825798Y-160364163D01*
X147730560Y-160364163D02*
X147730560Y-159840353D01*
X147730560Y-159840353D02*
X147682941Y-159745115D01*
X147682941Y-159745115D02*
X147587703Y-159697496D01*
X147587703Y-159697496D02*
X147397227Y-159697496D01*
X147397227Y-159697496D02*
X147301989Y-159745115D01*
X147730560Y-160316544D02*
X147635322Y-160364163D01*
X147635322Y-160364163D02*
X147397227Y-160364163D01*
X147397227Y-160364163D02*
X147301989Y-160316544D01*
X147301989Y-160316544D02*
X147254370Y-160221305D01*
X147254370Y-160221305D02*
X147254370Y-160126067D01*
X147254370Y-160126067D02*
X147301989Y-160030829D01*
X147301989Y-160030829D02*
X147397227Y-159983210D01*
X147397227Y-159983210D02*
X147635322Y-159983210D01*
X147635322Y-159983210D02*
X147730560Y-159935591D01*
X148635322Y-159697496D02*
X148635322Y-160507020D01*
X148635322Y-160507020D02*
X148587703Y-160602258D01*
X148587703Y-160602258D02*
X148540084Y-160649877D01*
X148540084Y-160649877D02*
X148444846Y-160697496D01*
X148444846Y-160697496D02*
X148301989Y-160697496D01*
X148301989Y-160697496D02*
X148206751Y-160649877D01*
X148635322Y-160316544D02*
X148540084Y-160364163D01*
X148540084Y-160364163D02*
X148349608Y-160364163D01*
X148349608Y-160364163D02*
X148254370Y-160316544D01*
X148254370Y-160316544D02*
X148206751Y-160268924D01*
X148206751Y-160268924D02*
X148159132Y-160173686D01*
X148159132Y-160173686D02*
X148159132Y-159887972D01*
X148159132Y-159887972D02*
X148206751Y-159792734D01*
X148206751Y-159792734D02*
X148254370Y-159745115D01*
X148254370Y-159745115D02*
X148349608Y-159697496D01*
X148349608Y-159697496D02*
X148540084Y-159697496D01*
X148540084Y-159697496D02*
X148635322Y-159745115D01*
X149540084Y-159697496D02*
X149540084Y-160507020D01*
X149540084Y-160507020D02*
X149492465Y-160602258D01*
X149492465Y-160602258D02*
X149444846Y-160649877D01*
X149444846Y-160649877D02*
X149349608Y-160697496D01*
X149349608Y-160697496D02*
X149206751Y-160697496D01*
X149206751Y-160697496D02*
X149111513Y-160649877D01*
X149540084Y-160316544D02*
X149444846Y-160364163D01*
X149444846Y-160364163D02*
X149254370Y-160364163D01*
X149254370Y-160364163D02*
X149159132Y-160316544D01*
X149159132Y-160316544D02*
X149111513Y-160268924D01*
X149111513Y-160268924D02*
X149063894Y-160173686D01*
X149063894Y-160173686D02*
X149063894Y-159887972D01*
X149063894Y-159887972D02*
X149111513Y-159792734D01*
X149111513Y-159792734D02*
X149159132Y-159745115D01*
X149159132Y-159745115D02*
X149254370Y-159697496D01*
X149254370Y-159697496D02*
X149444846Y-159697496D01*
X149444846Y-159697496D02*
X149540084Y-159745115D01*
X150444846Y-160364163D02*
X150444846Y-159840353D01*
X150444846Y-159840353D02*
X150397227Y-159745115D01*
X150397227Y-159745115D02*
X150301989Y-159697496D01*
X150301989Y-159697496D02*
X150111513Y-159697496D01*
X150111513Y-159697496D02*
X150016275Y-159745115D01*
X150444846Y-160316544D02*
X150349608Y-160364163D01*
X150349608Y-160364163D02*
X150111513Y-160364163D01*
X150111513Y-160364163D02*
X150016275Y-160316544D01*
X150016275Y-160316544D02*
X149968656Y-160221305D01*
X149968656Y-160221305D02*
X149968656Y-160126067D01*
X149968656Y-160126067D02*
X150016275Y-160030829D01*
X150016275Y-160030829D02*
X150111513Y-159983210D01*
X150111513Y-159983210D02*
X150349608Y-159983210D01*
X150349608Y-159983210D02*
X150444846Y-159935591D01*
X150921037Y-160364163D02*
X150921037Y-159697496D01*
X150921037Y-159887972D02*
X150968656Y-159792734D01*
X150968656Y-159792734D02*
X151016275Y-159745115D01*
X151016275Y-159745115D02*
X151111513Y-159697496D01*
X151111513Y-159697496D02*
X151206751Y-159697496D01*
X151968656Y-160364163D02*
X151968656Y-159364163D01*
X151968656Y-160316544D02*
X151873418Y-160364163D01*
X151873418Y-160364163D02*
X151682942Y-160364163D01*
X151682942Y-160364163D02*
X151587704Y-160316544D01*
X151587704Y-160316544D02*
X151540085Y-160268924D01*
X151540085Y-160268924D02*
X151492466Y-160173686D01*
X151492466Y-160173686D02*
X151492466Y-159887972D01*
X151492466Y-159887972D02*
X151540085Y-159792734D01*
X151540085Y-159792734D02*
X151587704Y-159745115D01*
X151587704Y-159745115D02*
X151682942Y-159697496D01*
X151682942Y-159697496D02*
X151873418Y-159697496D01*
X151873418Y-159697496D02*
X151968656Y-159745115D01*
X153444847Y-160697496D02*
X153444847Y-159268924D01*
X154921038Y-159840353D02*
X155254371Y-159840353D01*
X155397228Y-160364163D02*
X154921038Y-160364163D01*
X154921038Y-160364163D02*
X154921038Y-159364163D01*
X154921038Y-159364163D02*
X155397228Y-159364163D01*
X155825800Y-160364163D02*
X155825800Y-159697496D01*
X155825800Y-159887972D02*
X155873419Y-159792734D01*
X155873419Y-159792734D02*
X155921038Y-159745115D01*
X155921038Y-159745115D02*
X156016276Y-159697496D01*
X156016276Y-159697496D02*
X156111514Y-159697496D01*
X156444848Y-159697496D02*
X156444848Y-160364163D01*
X156444848Y-159792734D02*
X156492467Y-159745115D01*
X156492467Y-159745115D02*
X156587705Y-159697496D01*
X156587705Y-159697496D02*
X156730562Y-159697496D01*
X156730562Y-159697496D02*
X156825800Y-159745115D01*
X156825800Y-159745115D02*
X156873419Y-159840353D01*
X156873419Y-159840353D02*
X156873419Y-160364163D01*
X157730562Y-160316544D02*
X157635324Y-160364163D01*
X157635324Y-160364163D02*
X157444848Y-160364163D01*
X157444848Y-160364163D02*
X157349610Y-160316544D01*
X157349610Y-160316544D02*
X157301991Y-160221305D01*
X157301991Y-160221305D02*
X157301991Y-159840353D01*
X157301991Y-159840353D02*
X157349610Y-159745115D01*
X157349610Y-159745115D02*
X157444848Y-159697496D01*
X157444848Y-159697496D02*
X157635324Y-159697496D01*
X157635324Y-159697496D02*
X157730562Y-159745115D01*
X157730562Y-159745115D02*
X157778181Y-159840353D01*
X157778181Y-159840353D02*
X157778181Y-159935591D01*
X157778181Y-159935591D02*
X157301991Y-160030829D01*
X158159134Y-160316544D02*
X158254372Y-160364163D01*
X158254372Y-160364163D02*
X158444848Y-160364163D01*
X158444848Y-160364163D02*
X158540086Y-160316544D01*
X158540086Y-160316544D02*
X158587705Y-160221305D01*
X158587705Y-160221305D02*
X158587705Y-160173686D01*
X158587705Y-160173686D02*
X158540086Y-160078448D01*
X158540086Y-160078448D02*
X158444848Y-160030829D01*
X158444848Y-160030829D02*
X158301991Y-160030829D01*
X158301991Y-160030829D02*
X158206753Y-159983210D01*
X158206753Y-159983210D02*
X158159134Y-159887972D01*
X158159134Y-159887972D02*
X158159134Y-159840353D01*
X158159134Y-159840353D02*
X158206753Y-159745115D01*
X158206753Y-159745115D02*
X158301991Y-159697496D01*
X158301991Y-159697496D02*
X158444848Y-159697496D01*
X158444848Y-159697496D02*
X158540086Y-159745115D01*
X158873420Y-159697496D02*
X159254372Y-159697496D01*
X159016277Y-159364163D02*
X159016277Y-160221305D01*
X159016277Y-160221305D02*
X159063896Y-160316544D01*
X159063896Y-160316544D02*
X159159134Y-160364163D01*
X159159134Y-160364163D02*
X159254372Y-160364163D01*
X159730563Y-160364163D02*
X159635325Y-160316544D01*
X159635325Y-160316544D02*
X159587706Y-160268924D01*
X159587706Y-160268924D02*
X159540087Y-160173686D01*
X159540087Y-160173686D02*
X159540087Y-159887972D01*
X159540087Y-159887972D02*
X159587706Y-159792734D01*
X159587706Y-159792734D02*
X159635325Y-159745115D01*
X159635325Y-159745115D02*
X159730563Y-159697496D01*
X159730563Y-159697496D02*
X159873420Y-159697496D01*
X159873420Y-159697496D02*
X159968658Y-159745115D01*
X159968658Y-159745115D02*
X160016277Y-159792734D01*
X160016277Y-159792734D02*
X160063896Y-159887972D01*
X160063896Y-159887972D02*
X160063896Y-160173686D01*
X160063896Y-160173686D02*
X160016277Y-160268924D01*
X160016277Y-160268924D02*
X159968658Y-160316544D01*
X159968658Y-160316544D02*
X159873420Y-160364163D01*
X159873420Y-160364163D02*
X159730563Y-160364163D01*
X161254373Y-160364163D02*
X161254373Y-159364163D01*
X161254373Y-159364163D02*
X161587706Y-160078448D01*
X161587706Y-160078448D02*
X161921039Y-159364163D01*
X161921039Y-159364163D02*
X161921039Y-160364163D01*
X162540087Y-160364163D02*
X162444849Y-160316544D01*
X162444849Y-160316544D02*
X162397230Y-160268924D01*
X162397230Y-160268924D02*
X162349611Y-160173686D01*
X162349611Y-160173686D02*
X162349611Y-159887972D01*
X162349611Y-159887972D02*
X162397230Y-159792734D01*
X162397230Y-159792734D02*
X162444849Y-159745115D01*
X162444849Y-159745115D02*
X162540087Y-159697496D01*
X162540087Y-159697496D02*
X162682944Y-159697496D01*
X162682944Y-159697496D02*
X162778182Y-159745115D01*
X162778182Y-159745115D02*
X162825801Y-159792734D01*
X162825801Y-159792734D02*
X162873420Y-159887972D01*
X162873420Y-159887972D02*
X162873420Y-160173686D01*
X162873420Y-160173686D02*
X162825801Y-160268924D01*
X162825801Y-160268924D02*
X162778182Y-160316544D01*
X162778182Y-160316544D02*
X162682944Y-160364163D01*
X162682944Y-160364163D02*
X162540087Y-160364163D01*
X163301992Y-159697496D02*
X163301992Y-160364163D01*
X163301992Y-159792734D02*
X163349611Y-159745115D01*
X163349611Y-159745115D02*
X163444849Y-159697496D01*
X163444849Y-159697496D02*
X163587706Y-159697496D01*
X163587706Y-159697496D02*
X163682944Y-159745115D01*
X163682944Y-159745115D02*
X163730563Y-159840353D01*
X163730563Y-159840353D02*
X163730563Y-160364163D01*
X164063897Y-159697496D02*
X164444849Y-159697496D01*
X164206754Y-159364163D02*
X164206754Y-160221305D01*
X164206754Y-160221305D02*
X164254373Y-160316544D01*
X164254373Y-160316544D02*
X164349611Y-160364163D01*
X164349611Y-160364163D02*
X164444849Y-160364163D01*
X165159135Y-160316544D02*
X165063897Y-160364163D01*
X165063897Y-160364163D02*
X164873421Y-160364163D01*
X164873421Y-160364163D02*
X164778183Y-160316544D01*
X164778183Y-160316544D02*
X164730564Y-160221305D01*
X164730564Y-160221305D02*
X164730564Y-159840353D01*
X164730564Y-159840353D02*
X164778183Y-159745115D01*
X164778183Y-159745115D02*
X164873421Y-159697496D01*
X164873421Y-159697496D02*
X165063897Y-159697496D01*
X165063897Y-159697496D02*
X165159135Y-159745115D01*
X165159135Y-159745115D02*
X165206754Y-159840353D01*
X165206754Y-159840353D02*
X165206754Y-159935591D01*
X165206754Y-159935591D02*
X164730564Y-160030829D01*
X165587707Y-160316544D02*
X165682945Y-160364163D01*
X165682945Y-160364163D02*
X165873421Y-160364163D01*
X165873421Y-160364163D02*
X165968659Y-160316544D01*
X165968659Y-160316544D02*
X166016278Y-160221305D01*
X166016278Y-160221305D02*
X166016278Y-160173686D01*
X166016278Y-160173686D02*
X165968659Y-160078448D01*
X165968659Y-160078448D02*
X165873421Y-160030829D01*
X165873421Y-160030829D02*
X165730564Y-160030829D01*
X165730564Y-160030829D02*
X165635326Y-159983210D01*
X165635326Y-159983210D02*
X165587707Y-159887972D01*
X165587707Y-159887972D02*
X165587707Y-159840353D01*
X165587707Y-159840353D02*
X165635326Y-159745115D01*
X165635326Y-159745115D02*
X165730564Y-159697496D01*
X165730564Y-159697496D02*
X165873421Y-159697496D01*
X165873421Y-159697496D02*
X165968659Y-159745115D01*
D12*
%TO.P,R4,1,1*%
%TO.N,/XSHUT_2.8V*%
X122695800Y-135769400D03*
%TO.P,R4,2,2*%
%TO.N,2.8V*%
X124345800Y-135769400D03*
%TD*%
D13*
%TO.P,J7,1,Power*%
%TO.N,BURN*%
X154275800Y-114409400D03*
D14*
X155545800Y-111869400D03*
X158085800Y-111869400D03*
D13*
X159645800Y-114409400D03*
D14*
%TO.P,J7,2,GND*%
%TO.N,GND*%
X154275800Y-121689400D03*
X155545800Y-124229400D03*
X158085800Y-124229400D03*
X159645800Y-121689400D03*
%TD*%
%TO.P,J3,1,Pin_1*%
%TO.N,~{FC_RESET}*%
X134420800Y-67619400D03*
D13*
%TO.P,J3,2,Pin_2*%
%TO.N,GND*%
X131880800Y-67619400D03*
%TD*%
D12*
%TO.P,R26,1,1*%
%TO.N,GND*%
X192920800Y-72619400D03*
%TO.P,R26,2,2*%
%TO.N,Net-(J12-CC1)*%
X194570800Y-72619400D03*
%TD*%
D15*
%TO.P,TP3,1,1*%
%TO.N,unconnected-(TP3-Pad1)*%
X150275800Y-70119400D03*
%TD*%
D16*
%TO.P,C2,1,1*%
%TO.N,2.8V*%
X131845800Y-124569399D03*
%TO.P,C2,2,2*%
%TO.N,GND*%
X131845800Y-122669401D03*
%TD*%
D17*
%TO.P,J1,1,Pin_1*%
%TO.N,GND*%
X164745800Y-111119400D03*
D18*
%TO.P,J1,2,Pin_2*%
X166745801Y-111119400D03*
%TO.P,J1,3,Pin_3*%
%TO.N,BURN*%
X164745800Y-109119399D03*
%TO.P,J1,4,Pin_4*%
X166745800Y-109119400D03*
%TO.P,J1,5,Pin_5*%
%TO.N,SCL0*%
X164745800Y-107119400D03*
%TO.P,J1,6,Pin_6*%
%TO.N,Dir_Chrg_In*%
X166745800Y-107119399D03*
%TO.P,J1,7,Pin_7*%
%TO.N,SDA0*%
X164745800Y-105119400D03*
%TO.P,J1,8,Pin_8*%
%TO.N,+3V3*%
X166745800Y-105119400D03*
%TO.P,J1,9,Pin_9*%
%TO.N,USB_D+*%
X164745800Y-103119400D03*
%TO.P,J1,10,Pin_10*%
%TO.N,USB_D-*%
X166745800Y-103119400D03*
%TO.P,J1,11,Pin_11*%
%TO.N,FC_USBBOOT*%
X164745800Y-101119400D03*
%TO.P,J1,12,Pin_12*%
%TO.N,~{FC_RESET}*%
X166745800Y-101119400D03*
%TD*%
D16*
%TO.P,C1,1,1*%
%TO.N,+3V3*%
X138745800Y-124619400D03*
%TO.P,C1,2,2*%
%TO.N,GND*%
X138745800Y-122719400D03*
%TD*%
D19*
%TO.P,R27,1,1*%
%TO.N,GND*%
X201070800Y-73119400D03*
%TO.P,R27,2,2*%
%TO.N,Net-(J12-CC2)*%
X199420800Y-73119400D03*
%TD*%
D16*
%TO.P,C43,1*%
%TO.N,+3V3*%
X147745800Y-107569399D03*
%TO.P,C43,2*%
%TO.N,GND*%
X147745800Y-105669401D03*
%TD*%
D20*
%TO.P,U5,1,Unbalancedport*%
%TO.N,Net-(J5-In)*%
X165425800Y-130969400D03*
%TO.P,U5,2,GND*%
%TO.N,GND*%
X165425800Y-131619400D03*
%TO.P,U5,3,Balancedport*%
%TO.N,Net-(J6-tape_1)*%
X165425800Y-132269400D03*
%TO.P,U5,4,Balancedport*%
%TO.N,Net-(J6-tape_2)*%
X166665800Y-132269400D03*
%TO.P,U5,5,GND*%
%TO.N,GND*%
X166665800Y-131619400D03*
%TO.P,U5,6,N.C.*%
%TO.N,unconnected-(U5-N.C.-Pad6)*%
X166665800Y-130969400D03*
%TD*%
D15*
%TO.P,TP7,1,1*%
%TO.N,unconnected-(TP7-Pad1)*%
X142693713Y-79756113D03*
%TD*%
D21*
%TO.P,J6,1,tape_1*%
%TO.N,Net-(J6-tape_1)*%
X160783800Y-135889400D03*
D22*
%TO.P,J6,2,tape_2*%
%TO.N,Net-(J6-tape_2)*%
X170745800Y-135869400D03*
%TD*%
D15*
%TO.P,TP2,1,1*%
%TO.N,unconnected-(TP2-Pad1)*%
X152215800Y-79769400D03*
%TD*%
%TO.P,TP5,1,1*%
%TO.N,unconnected-(TP5-Pad1)*%
X126825800Y-112239400D03*
%TD*%
%TO.P,TP6,1,1*%
%TO.N,unconnected-(TP6-Pad1)*%
X165835800Y-73239400D03*
%TD*%
D23*
%TO.P,U2,1,IN*%
%TO.N,+3V3*%
X136083300Y-124569399D03*
%TO.P,U2,2,GND*%
%TO.N,GND*%
X136083300Y-123619400D03*
%TO.P,U2,3,EN*%
%TO.N,+3V3*%
X136083300Y-122669401D03*
%TO.P,U2,4,P4*%
%TO.N,unconnected-(U2-P4-Pad4)*%
X133808300Y-122669401D03*
%TO.P,U2,5,OUT*%
%TO.N,2.8V*%
X133808300Y-124569399D03*
%TD*%
D15*
%TO.P,TP1,1,1*%
%TO.N,unconnected-(TP1-Pad1)*%
X165835800Y-151189400D03*
%TD*%
%TO.P,TP4,1,1*%
%TO.N,unconnected-(TP4-Pad1)*%
X204805800Y-112189400D03*
%TD*%
D12*
%TO.P,R2,1,1*%
%TO.N,/GPIO*%
X122710800Y-134049400D03*
%TO.P,R2,2,2*%
%TO.N,2.8V*%
X124360800Y-134049400D03*
%TD*%
D24*
%TO.P,C3,1,1*%
%TO.N,2.8V*%
X117145800Y-136144400D03*
%TO.P,C3,2,2*%
%TO.N,GND*%
X117145800Y-137694400D03*
%TD*%
D25*
%TO.P,J5,1,In*%
%TO.N,Net-(J5-In)*%
X165745800Y-118919400D03*
D26*
%TO.P,J5,2,Ext*%
%TO.N,GND*%
X163205800Y-116379400D03*
X163205800Y-121459400D03*
X168285800Y-116379400D03*
X168285800Y-121459400D03*
%TD*%
D27*
%TO.P,Q1,1,S*%
%TO.N,/SCL_3V*%
X128895800Y-127269400D03*
%TO.P,Q1,2,G*%
%TO.N,2.8V*%
X128895799Y-126619400D03*
%TO.P,Q1,3,D*%
%TO.N,SDA0*%
X128895800Y-125969400D03*
%TO.P,Q1,4,S*%
%TO.N,/SDA_3V*%
X126995800Y-125969400D03*
%TO.P,Q1,5,G*%
%TO.N,2.8V*%
X126995801Y-126619400D03*
%TO.P,Q1,6,D*%
%TO.N,SCL0*%
X126995800Y-127269400D03*
%TD*%
D28*
%TO.P,R3,1,1*%
%TO.N,+3V3*%
X129145800Y-122619400D03*
D29*
%TO.P,R3,2,1*%
X128345800Y-122619400D03*
%TO.P,R3,3,1*%
%TO.N,2.8V*%
X127545800Y-122619400D03*
D28*
%TO.P,R3,4,1*%
X126745800Y-122619400D03*
%TO.P,R3,5,2*%
%TO.N,/SDA_3V*%
X126745800Y-124419400D03*
D29*
%TO.P,R3,6,2*%
%TO.N,/SCL_3V*%
X127545800Y-124419400D03*
%TO.P,R3,7,2*%
%TO.N,SDA0*%
X128345800Y-124419400D03*
D28*
%TO.P,R3,8,2*%
%TO.N,SCL0*%
X129145800Y-124419400D03*
%TD*%
D30*
%TO.P,U16,1,SDA*%
%TO.N,SDA0*%
X154408300Y-107944400D03*
%TO.P,U16,2,SCL*%
%TO.N,SCL0*%
X154408300Y-107294400D03*
%TO.P,U16,3,Alert*%
%TO.N,unconnected-(U16-Alert-Pad3)*%
X154408300Y-106644400D03*
%TO.P,U16,4,GND*%
%TO.N,GND*%
X154408300Y-105994400D03*
%TO.P,U16,5,A2*%
X150183300Y-105994400D03*
%TO.P,U16,6,A1*%
X150183300Y-106644400D03*
%TO.P,U16,7,A0*%
%TO.N,+3V3*%
X150183300Y-107294400D03*
%TO.P,U16,8,VDD*%
X150183300Y-107944400D03*
D31*
%TO.P,U16,9,EP/GND*%
%TO.N,GND*%
X152845800Y-107619400D03*
X152845800Y-106319400D03*
D32*
X152295800Y-106969400D03*
D31*
X151745800Y-107619400D03*
X151745800Y-106319400D03*
%TD*%
D14*
%TO.P,J4,1,Pin_1*%
%TO.N,FC_USBBOOT*%
X134420800Y-71319400D03*
D13*
%TO.P,J4,2,Pin_2*%
%TO.N,GND*%
X131880800Y-71319400D03*
%TD*%
D14*
%TO.P,J2,1,Pin_1*%
%TO.N,Dir_Chrg_In*%
X140170800Y-69519400D03*
D13*
%TO.P,J2,2,Pin_2*%
%TO.N,GND*%
X142710800Y-69519400D03*
%TD*%
D33*
%TO.P,J12,S1,SHIELD*%
%TO.N,GND*%
X193245800Y-65619400D03*
D34*
X193245800Y-69799400D03*
D33*
X201885800Y-65619400D03*
D34*
X201885800Y-69799400D03*
%TD*%
D35*
%TO.N,GND*%
X200745800Y-72119400D03*
X193245800Y-71619400D03*
X167245800Y-127119400D03*
X167245800Y-123119400D03*
X130347958Y-123222637D03*
X156245800Y-105119400D03*
X167245800Y-126119400D03*
X164445800Y-125519400D03*
X167245800Y-124119400D03*
X167395800Y-129169400D03*
X147745800Y-104619400D03*
X164445800Y-123519400D03*
X117945800Y-138629545D03*
X174045800Y-105019400D03*
X164445800Y-124519400D03*
X164545800Y-122519400D03*
X163895800Y-129119400D03*
D36*
X164557800Y-131307400D03*
D35*
X164445800Y-126519400D03*
X167245800Y-125119400D03*
X164445800Y-127419400D03*
X118145800Y-134819400D03*
X164971175Y-128319400D03*
X166545800Y-128419400D03*
X149970800Y-113119400D03*
%TO.N,+3V3*%
X146245800Y-106619400D03*
X140345800Y-124619400D03*
X150245800Y-112119400D03*
%TO.N,Dir_Chrg_In*%
X169745800Y-101619400D03*
X169745800Y-98619400D03*
%TO.N,2.8V*%
X124045800Y-136819400D03*
X125945800Y-126619400D03*
X118106730Y-136731536D03*
X125745800Y-122619400D03*
X133845800Y-123619400D03*
X129820800Y-126607053D03*
%TO.N,/SCL_3V*%
X122945800Y-138304400D03*
%TO.N,/GPIO*%
X121535800Y-134409400D03*
%TO.N,/XSHUT_2.8V*%
X122625802Y-136719400D03*
%TO.N,USB_D-*%
X196883227Y-73471129D03*
%TO.N,/SDA_3V*%
X123845800Y-139119400D03*
%TO.N,SDA0*%
X157245800Y-107119400D03*
X154245800Y-108619400D03*
X132845800Y-126291732D03*
X130545800Y-125867037D03*
%TO.N,USB_D+*%
X196568612Y-72442212D03*
%TO.N,SCL0*%
X158758453Y-108132053D03*
X156733147Y-108106747D03*
%TO.N,Net-(J12-CC2)*%
X199245800Y-72119400D03*
%TO.N,Net-(J12-CC1)*%
X196229798Y-69447585D03*
%TD*%
D37*
%TO.N,GND*%
X164306800Y-130004414D02*
X163895800Y-129593414D01*
D38*
X159645800Y-121689400D02*
X159645800Y-122669400D01*
D39*
X130901194Y-122669401D02*
X130347958Y-123222637D01*
D40*
X167245800Y-122499400D02*
X168285800Y-121459400D01*
X164445800Y-127419400D02*
X164445800Y-126519400D01*
X163205800Y-121459400D02*
X163205800Y-116379400D01*
D37*
X117945800Y-138629545D02*
X117145800Y-137829545D01*
D40*
X164265800Y-122519400D02*
X163205800Y-121459400D01*
X164971175Y-127944775D02*
X164445800Y-127419400D01*
D37*
X164557800Y-131307400D02*
X164306800Y-131056400D01*
D38*
X159645800Y-122669400D02*
X158085800Y-124229400D01*
D40*
X163205800Y-116379400D02*
X168285800Y-116379400D01*
D41*
X166665800Y-131619400D02*
X165425800Y-131619400D01*
D40*
X164445800Y-122619400D02*
X164545800Y-122519400D01*
X166645800Y-128419400D02*
X167395800Y-129169400D01*
X166545800Y-128419400D02*
X166395800Y-128569400D01*
X166545800Y-128419400D02*
X166645800Y-128419400D01*
D39*
X131845800Y-122669401D02*
X130901194Y-122669401D01*
D41*
X192920800Y-71944400D02*
X193245800Y-71619400D01*
X200745800Y-72119400D02*
X200745800Y-70939400D01*
D40*
X164445800Y-123519400D02*
X164445800Y-122619400D01*
X164971175Y-128319400D02*
X164695800Y-128319400D01*
X164545800Y-122519400D02*
X164265800Y-122519400D01*
D41*
X201070800Y-72444400D02*
X200745800Y-72119400D01*
D38*
X154275800Y-121689400D02*
X154075800Y-121689400D01*
D40*
X168285800Y-116379400D02*
X168285800Y-121459400D01*
X167245800Y-123119400D02*
X167245800Y-126619400D01*
D41*
X192920800Y-72619400D02*
X192920800Y-71944400D01*
D40*
X164445800Y-124519400D02*
X164445800Y-123519400D01*
X164445800Y-126519400D02*
X164445800Y-125519400D01*
X164445800Y-125519400D02*
X164445800Y-124519400D01*
X164971175Y-128319400D02*
X164971175Y-127944775D01*
X190445800Y-128119400D02*
X187645800Y-125319400D01*
D41*
X200745800Y-70939400D02*
X201885800Y-69799400D01*
D40*
X166545800Y-127669400D02*
X166545800Y-128419400D01*
X164695800Y-128319400D02*
X163895800Y-129119400D01*
D37*
X164869800Y-131619400D02*
X164557800Y-131307400D01*
X117145800Y-137829545D02*
X117145800Y-137694400D01*
D38*
X155545800Y-124229400D02*
X158085800Y-124229400D01*
X154275800Y-121689400D02*
X154105800Y-121519400D01*
D42*
X147745800Y-105669401D02*
X147745800Y-104619400D01*
D40*
X167245800Y-123119400D02*
X167245800Y-122499400D01*
D42*
X149858301Y-105669401D02*
X150183300Y-105994400D01*
X155370800Y-105994400D02*
X156245800Y-105119400D01*
X154408300Y-105994400D02*
X155370800Y-105994400D01*
D37*
X165425800Y-131619400D02*
X164869800Y-131619400D01*
D42*
X154408300Y-105994400D02*
X153270800Y-105994400D01*
D40*
X182925800Y-125319400D02*
X180125800Y-128119400D01*
X167395800Y-129719400D02*
X167395800Y-129169400D01*
D42*
X147745800Y-105669401D02*
X149858301Y-105669401D01*
D38*
X154275800Y-122959400D02*
X155545800Y-124229400D01*
X154275800Y-121689400D02*
X154275800Y-122959400D01*
D41*
X201070800Y-73119400D02*
X201070800Y-72444400D01*
D40*
X164971175Y-128319400D02*
X165095800Y-128444025D01*
D42*
X153270800Y-105994400D02*
X152295800Y-106969400D01*
D37*
X164306800Y-131056400D02*
X164306800Y-130004414D01*
D40*
X167245800Y-126619400D02*
X167245800Y-126969400D01*
D42*
X150183300Y-106644400D02*
X150183300Y-105994400D01*
D40*
X167245800Y-126969400D02*
X166545800Y-127669400D01*
X163895800Y-129119400D02*
X163895800Y-129593414D01*
D39*
%TO.N,+3V3*%
X136083300Y-124569399D02*
X138695799Y-124569399D01*
X135694891Y-122669401D02*
X135045800Y-123318492D01*
X138695799Y-124569399D02*
X138745800Y-124619400D01*
D42*
X148120801Y-107944400D02*
X147745800Y-107569399D01*
D39*
X129945800Y-122619400D02*
X129145800Y-122619400D01*
X135694891Y-124569399D02*
X136083300Y-124569399D01*
X135045800Y-123318492D02*
X135045800Y-122568493D01*
X134321708Y-121844401D02*
X130720799Y-121844401D01*
X130720799Y-121844401D02*
X129945800Y-122619400D01*
D42*
X150183300Y-107944400D02*
X148120801Y-107944400D01*
X147745800Y-107569399D02*
X147195799Y-107569399D01*
D39*
X135045800Y-122568493D02*
X134321708Y-121844401D01*
X129145800Y-122619400D02*
X128345800Y-122619400D01*
X135045800Y-123920308D02*
X135694891Y-124569399D01*
X136083300Y-122669401D02*
X135694891Y-122669401D01*
X135045800Y-123318492D02*
X135045800Y-123920308D01*
X138745800Y-124619400D02*
X140345800Y-124619400D01*
D42*
X147195799Y-107569399D02*
X146245800Y-106619400D01*
X150183300Y-107294400D02*
X150183300Y-107944400D01*
D40*
%TO.N,Net-(J6-tape_1)*%
X165565800Y-132219400D02*
X160845800Y-132219400D01*
X163745801Y-131269401D02*
X163745800Y-131269400D01*
X160783800Y-135581401D02*
X160783800Y-135889400D01*
%TO.N,Net-(J6-tape_2)*%
X171305800Y-132219400D02*
X166585800Y-132219400D01*
X167795799Y-131269401D02*
X167795800Y-131269400D01*
D42*
%TO.N,Dir_Chrg_In*%
X146745800Y-97619400D02*
X138245800Y-89119400D01*
X169745800Y-98619400D02*
X168745800Y-97619400D01*
X169745800Y-104119399D02*
X169745800Y-101619400D01*
X138245800Y-89119400D02*
X138245800Y-71444400D01*
X138245800Y-71444400D02*
X140170800Y-69519400D01*
X166745800Y-107119399D02*
X169745800Y-104119399D01*
X168745800Y-97619400D02*
X146745800Y-97619400D01*
D38*
%TO.N,BURN*%
X155545800Y-113139400D02*
X154275800Y-114409400D01*
X158085800Y-112849400D02*
X159645800Y-114409400D01*
X158085800Y-111869400D02*
X155545800Y-111869400D01*
X166745800Y-109119400D02*
X160835800Y-109119400D01*
X158085800Y-111869400D02*
X158085800Y-112849400D01*
X155545800Y-111869400D02*
X155545800Y-113139400D01*
X160835800Y-109119400D02*
X158085800Y-111869400D01*
D41*
%TO.N,2.8V*%
X128895799Y-126619400D02*
X129808453Y-126619400D01*
D39*
X133808300Y-124569399D02*
X131845800Y-124569399D01*
X133808300Y-123656900D02*
X133845800Y-123619400D01*
D37*
X125245800Y-126619400D02*
X125945800Y-126619400D01*
X124360800Y-134049400D02*
X124345800Y-134034400D01*
X124360800Y-135754400D02*
X124345800Y-135769400D01*
X124345800Y-134034400D02*
X124345800Y-127519400D01*
X124345800Y-136519400D02*
X124045800Y-136819400D01*
X118106730Y-136731536D02*
X117519594Y-136144400D01*
X124345800Y-135769400D02*
X124572800Y-135996400D01*
D41*
X126995801Y-126619400D02*
X125945800Y-126619400D01*
D39*
X133808300Y-124569399D02*
X133808300Y-123656900D01*
D37*
X117519594Y-136144400D02*
X117445800Y-136144400D01*
D39*
X125745800Y-122619400D02*
X126745800Y-122619400D01*
D37*
X124360800Y-134049400D02*
X124360800Y-135754400D01*
D39*
X127545800Y-122619400D02*
X126745800Y-122619400D01*
D37*
X124345800Y-135769400D02*
X124345800Y-136519400D01*
D41*
X129808453Y-126619400D02*
X129820800Y-126607053D01*
D37*
X124345800Y-127519400D02*
X125245800Y-126619400D01*
D39*
%TO.N,/SCL_3V*%
X127545800Y-123719400D02*
X127545800Y-124419400D01*
X128895800Y-127269400D02*
X128370799Y-127269400D01*
X122945800Y-138304400D02*
X122930800Y-138304400D01*
X122139101Y-137894400D02*
X120360800Y-136116099D01*
X120360800Y-128104400D02*
X125120800Y-123344400D01*
X122930800Y-138304400D02*
X122520800Y-137894400D01*
X127545800Y-125444400D02*
X127545800Y-124419400D01*
X128370799Y-127269400D02*
X127645801Y-126544402D01*
X120360800Y-136116099D02*
X120360800Y-128104400D01*
X122520800Y-137894400D02*
X122139101Y-137894400D01*
X125120800Y-123344400D02*
X127170800Y-123344400D01*
X127645801Y-125544401D02*
X127545800Y-125444400D01*
X127645801Y-126544402D02*
X127645801Y-125544401D01*
X127170800Y-123344400D02*
X127545800Y-123719400D01*
D37*
%TO.N,/GPIO*%
X122710800Y-134049400D02*
X121895800Y-134049400D01*
X121895800Y-134049400D02*
X121535800Y-134409400D01*
%TO.N,/XSHUT_2.8V*%
X122625802Y-135839398D02*
X122695800Y-135769400D01*
X122625802Y-136719400D02*
X122625802Y-135839398D01*
D43*
%TO.N,~{FC_RESET}*%
X166745800Y-101119400D02*
X164245800Y-98619400D01*
X136245800Y-90119400D02*
X136245800Y-69444400D01*
X136245800Y-69444400D02*
X134420800Y-67619400D01*
X164245800Y-98619400D02*
X144745800Y-98619400D01*
X144745800Y-98619400D02*
X136245800Y-90119400D01*
D40*
%TO.N,Net-(J5-In)*%
X165745800Y-130649400D02*
X165425800Y-130969400D01*
X165745800Y-118919400D02*
X165745800Y-130649400D01*
D43*
%TO.N,FC_USBBOOT*%
X163245800Y-99619400D02*
X164745800Y-101119400D01*
X134420800Y-71319400D02*
X134420800Y-89294400D01*
X144745800Y-99619400D02*
X163245800Y-99619400D01*
X134420800Y-89294400D02*
X144745800Y-99619400D01*
D44*
%TO.N,USB_D-*%
X167530394Y-102470380D02*
X167394820Y-102470380D01*
X167394820Y-102470380D02*
X166745800Y-103119400D01*
X196460377Y-73471129D02*
X196883227Y-73471129D01*
X167530394Y-102470380D02*
X167530394Y-102401112D01*
X167530394Y-102401112D02*
X196460377Y-73471129D01*
D39*
%TO.N,/SDA_3V*%
X126995800Y-125469400D02*
X126745800Y-125219400D01*
X120810800Y-135929703D02*
X120810800Y-128354400D01*
X126745800Y-125219400D02*
X126745800Y-124419400D01*
X125345800Y-123819400D02*
X126645800Y-123819400D01*
X122325497Y-137444400D02*
X120810800Y-135929703D01*
X126645800Y-123819400D02*
X126745800Y-123919400D01*
X126995800Y-125969400D02*
X126995800Y-125469400D01*
X123170800Y-137444400D02*
X122325497Y-137444400D01*
X123845800Y-139119400D02*
X123845800Y-138119400D01*
X123845800Y-138119400D02*
X123170800Y-137444400D01*
X120810800Y-128354400D02*
X125345800Y-123819400D01*
X126745800Y-123919400D02*
X126745800Y-124419400D01*
%TO.N,SDA0*%
X158745800Y-107119400D02*
X160745800Y-105119400D01*
X128895800Y-125969400D02*
X128998163Y-125867037D01*
X128495800Y-125969400D02*
X128895800Y-125969400D01*
X158745800Y-107119400D02*
X157245800Y-107119400D01*
X154928045Y-110135155D02*
X146645800Y-118417400D01*
X157245800Y-107119400D02*
X157459147Y-107332747D01*
X140335169Y-126291732D02*
X132845800Y-126291732D01*
X154408300Y-108456900D02*
X154408300Y-107944400D01*
X128345800Y-125819400D02*
X128495800Y-125969400D01*
X128998163Y-125867037D02*
X130545800Y-125867037D01*
X157459147Y-107332747D02*
X157459147Y-108407467D01*
X154245800Y-108619400D02*
X154408300Y-108456900D01*
X157459147Y-108407467D02*
X155731459Y-110135155D01*
X155731459Y-110135155D02*
X154928045Y-110135155D01*
X146645800Y-119981101D02*
X140335169Y-126291732D01*
X146645800Y-118417400D02*
X146645800Y-119981101D01*
X160745800Y-105119400D02*
X164745800Y-105119400D01*
X128345800Y-124419400D02*
X128345800Y-125819400D01*
D44*
%TO.N,USB_D+*%
X167344006Y-102020400D02*
X165844800Y-102020400D01*
X165844800Y-102020400D02*
X164745800Y-103119400D01*
X196840799Y-72523607D02*
X167344006Y-102020400D01*
D39*
%TO.N,SCL0*%
X131270800Y-126294400D02*
X129770800Y-127794400D01*
X131270800Y-125566732D02*
X131270800Y-126294400D01*
X146145800Y-118279590D02*
X146145800Y-119844705D01*
X130846105Y-125142037D02*
X131270800Y-125566732D01*
X158758453Y-108132053D02*
X159771106Y-107119400D01*
X155676895Y-109550495D02*
X154874895Y-109550495D01*
X128120800Y-127794400D02*
X127595800Y-127269400D01*
X159771106Y-107119400D02*
X164745800Y-107119400D01*
X129145800Y-124419400D02*
X129145800Y-124919400D01*
X129770800Y-127794400D02*
X128120800Y-127794400D01*
X140423773Y-125566732D02*
X131270800Y-125566732D01*
X156733147Y-108106747D02*
X156733147Y-108494243D01*
X154874895Y-109550495D02*
X146145800Y-118279590D01*
X127595800Y-127269400D02*
X126995800Y-127269400D01*
X156733147Y-108106747D02*
X155920800Y-107294400D01*
X155920800Y-107294400D02*
X154408300Y-107294400D01*
X146145800Y-119844705D02*
X140423773Y-125566732D01*
X156733147Y-108494243D02*
X155676895Y-109550495D01*
X129145800Y-124919400D02*
X129368437Y-125142037D01*
X129368437Y-125142037D02*
X130846105Y-125142037D01*
D41*
%TO.N,Net-(J12-CC2)*%
X199420800Y-72294400D02*
X199245800Y-72119400D01*
X199420800Y-73119400D02*
X199420800Y-72294400D01*
%TO.N,Net-(J12-CC1)*%
X196229798Y-69447585D02*
X196229798Y-71104351D01*
X194714749Y-72619400D02*
X194570800Y-72619400D01*
X196229798Y-71104351D02*
X194714749Y-72619400D01*
%TD*%
%TA.AperFunction,Conductor*%
%TO.N,GND*%
G36*
X130530832Y-122740282D02*
G01*
X130587668Y-122782829D01*
X130612479Y-122849349D01*
X130612800Y-122858338D01*
X130612800Y-122969917D01*
X130623405Y-123073719D01*
X130623406Y-123073722D01*
X130679142Y-123241926D01*
X130772165Y-123392740D01*
X130772170Y-123392746D01*
X130897454Y-123518030D01*
X130897460Y-123518035D01*
X131048274Y-123611058D01*
X131061442Y-123615421D01*
X131119815Y-123655833D01*
X131147073Y-123721389D01*
X131134562Y-123791274D01*
X131097947Y-123835424D01*
X130977877Y-123926476D01*
X130886441Y-124047053D01*
X130886438Y-124047057D01*
X130830922Y-124187834D01*
X130820300Y-124276293D01*
X130820300Y-124590537D01*
X130800298Y-124658658D01*
X130746642Y-124705151D01*
X130694300Y-124716537D01*
X129822300Y-124716537D01*
X129754179Y-124696535D01*
X129707686Y-124642879D01*
X129696300Y-124590537D01*
X129696299Y-123974540D01*
X129696299Y-123974536D01*
X129693385Y-123949409D01*
X129659824Y-123873400D01*
X129648006Y-123846634D01*
X129568567Y-123767195D01*
X129568565Y-123767194D01*
X129465789Y-123721814D01*
X129465791Y-123721814D01*
X129440668Y-123718900D01*
X128850940Y-123718900D01*
X128850933Y-123718901D01*
X128825809Y-123721814D01*
X128825805Y-123721816D01*
X128771691Y-123745709D01*
X128737250Y-123750217D01*
X128702867Y-123755161D01*
X128701809Y-123754857D01*
X128701295Y-123754925D01*
X128700135Y-123754377D01*
X128669906Y-123745709D01*
X128615793Y-123721816D01*
X128615791Y-123721815D01*
X128615790Y-123721814D01*
X128615788Y-123721814D01*
X128590668Y-123718900D01*
X128100940Y-123718900D01*
X128100928Y-123718901D01*
X128097690Y-123719277D01*
X128070757Y-123714648D01*
X128043447Y-123713685D01*
X128036296Y-123708725D01*
X128027719Y-123707251D01*
X128007562Y-123688793D01*
X127985111Y-123673220D01*
X127980370Y-123663893D01*
X127975358Y-123659304D01*
X127966797Y-123642386D01*
X127963624Y-123634737D01*
X127942303Y-123555163D01*
X127900829Y-123483328D01*
X127897677Y-123475728D01*
X127894713Y-123448283D01*
X127888207Y-123421461D01*
X127890959Y-123413508D01*
X127890056Y-123405141D01*
X127902400Y-123380451D01*
X127911428Y-123354370D01*
X127918042Y-123349167D01*
X127921807Y-123341640D01*
X127945540Y-123327543D01*
X127967235Y-123310483D01*
X127975611Y-123309683D01*
X127982848Y-123305385D01*
X128010434Y-123306357D01*
X128037910Y-123303734D01*
X128050857Y-123307783D01*
X128053801Y-123307887D01*
X128055945Y-123309374D01*
X128064952Y-123312191D01*
X128075809Y-123316985D01*
X128100935Y-123319900D01*
X128590664Y-123319899D01*
X128615791Y-123316985D01*
X128669906Y-123293091D01*
X128704372Y-123288577D01*
X128738732Y-123283638D01*
X128739481Y-123283980D01*
X128740301Y-123283873D01*
X128771694Y-123293091D01*
X128825809Y-123316985D01*
X128825808Y-123316985D01*
X128829895Y-123317459D01*
X128850935Y-123319900D01*
X129440664Y-123319899D01*
X129465791Y-123316985D01*
X129568565Y-123271606D01*
X129648006Y-123192165D01*
X129679867Y-123120005D01*
X129725680Y-123065769D01*
X129793543Y-123044910D01*
X129795131Y-123044900D01*
X130001816Y-123044900D01*
X130001818Y-123044900D01*
X130110037Y-123015903D01*
X130207063Y-122959885D01*
X130397706Y-122769241D01*
X130460016Y-122735218D01*
X130530832Y-122740282D01*
G37*
%TD.AperFunction*%
%TA.AperFunction,Conductor*%
G36*
X166349764Y-110955356D02*
G01*
X166320801Y-111063448D01*
X166320801Y-111175352D01*
X166349764Y-111283444D01*
X166401701Y-111373400D01*
X165089900Y-111373400D01*
X165141837Y-111283444D01*
X165170800Y-111175352D01*
X165170800Y-111063448D01*
X165141837Y-110955356D01*
X165089900Y-110865400D01*
X166401701Y-110865400D01*
X166349764Y-110955356D01*
G37*
%TD.AperFunction*%
%TA.AperFunction,Conductor*%
G36*
X157619875Y-124036407D02*
G01*
X157585800Y-124163574D01*
X157585800Y-124295226D01*
X157619875Y-124422393D01*
X157655097Y-124483400D01*
X155976503Y-124483400D01*
X156011725Y-124422393D01*
X156045800Y-124295226D01*
X156045800Y-124163574D01*
X156011725Y-124036407D01*
X155976503Y-123975400D01*
X157655097Y-123975400D01*
X157619875Y-124036407D01*
G37*
%TD.AperFunction*%
%TA.AperFunction,Conductor*%
G36*
X148873940Y-106442400D02*
G01*
X148876839Y-106444400D01*
X150057300Y-106444400D01*
X150066125Y-106446991D01*
X150075232Y-106445682D01*
X150099657Y-106456837D01*
X150125421Y-106464402D01*
X150131445Y-106471355D01*
X150139812Y-106475176D01*
X150154326Y-106497761D01*
X150171914Y-106518058D01*
X150174238Y-106528744D01*
X150178196Y-106534902D01*
X150183300Y-106570400D01*
X150183300Y-106667900D01*
X150163298Y-106736021D01*
X150109642Y-106782514D01*
X150057300Y-106793900D01*
X149464283Y-106793900D01*
X149370497Y-106808753D01*
X149327490Y-106830667D01*
X149270287Y-106844400D01*
X148895720Y-106844400D01*
X148903450Y-106903123D01*
X148905020Y-106908982D01*
X148903327Y-106979959D01*
X148863530Y-107038752D01*
X148798264Y-107066697D01*
X148728251Y-107054920D01*
X148682915Y-107017721D01*
X148613722Y-106926476D01*
X148493652Y-106835424D01*
X148451459Y-106778325D01*
X148446834Y-106707479D01*
X148481246Y-106645380D01*
X148530159Y-106615421D01*
X148543323Y-106611059D01*
X148694139Y-106518035D01*
X148740813Y-106471361D01*
X148803125Y-106437336D01*
X148873940Y-106442400D01*
G37*
%TD.AperFunction*%
%TA.AperFunction,Conductor*%
G36*
X140597395Y-62419907D02*
G01*
X140598454Y-62419906D01*
X140598457Y-62419908D01*
X151844973Y-62417700D01*
X204719700Y-62417700D01*
X204787821Y-62437702D01*
X204834314Y-62491358D01*
X204845700Y-62543700D01*
X204845700Y-72757082D01*
X204876223Y-72830773D01*
X204876226Y-72830777D01*
X204932622Y-72887173D01*
X204932626Y-72887176D01*
X205006318Y-72917700D01*
X215219700Y-72917700D01*
X215287821Y-72937702D01*
X215334314Y-72991358D01*
X215345700Y-73043700D01*
X215345700Y-151390700D01*
X215325698Y-151458821D01*
X215272042Y-151505314D01*
X215219700Y-151516700D01*
X205077300Y-151516700D01*
X205009179Y-151496698D01*
X204962686Y-151443042D01*
X204951300Y-151390700D01*
X204951300Y-148170751D01*
X204949550Y-148138122D01*
X204949549Y-148138103D01*
X204946715Y-148111745D01*
X204945880Y-148104740D01*
X204911097Y-147997993D01*
X204877612Y-147936670D01*
X204825502Y-147867060D01*
X203898140Y-146939698D01*
X203873808Y-146917842D01*
X203873799Y-146917835D01*
X203873786Y-146917823D01*
X203873784Y-146917822D01*
X203853180Y-146901219D01*
X203847627Y-146896848D01*
X203847621Y-146896844D01*
X203747555Y-146845963D01*
X203747543Y-146845958D01*
X203680515Y-146826277D01*
X203680500Y-146826274D01*
X203594441Y-146813900D01*
X203594438Y-146813900D01*
X170769800Y-146813900D01*
X170769792Y-146813900D01*
X170704857Y-146820882D01*
X170704848Y-146820884D01*
X170653356Y-146832086D01*
X170653351Y-146832087D01*
X170653348Y-146832088D01*
X170653335Y-146832091D01*
X170653334Y-146832092D01*
X170615142Y-146843045D01*
X170615134Y-146843049D01*
X170518235Y-146899719D01*
X170518232Y-146899722D01*
X170465423Y-146945481D01*
X170423247Y-146990213D01*
X170372360Y-147090291D01*
X170372358Y-147090294D01*
X170352677Y-147157322D01*
X170352674Y-147157337D01*
X170340300Y-147243396D01*
X170340300Y-161495407D01*
X170347282Y-161560342D01*
X170347284Y-161560351D01*
X170358486Y-161611843D01*
X170358492Y-161611865D01*
X170369445Y-161650057D01*
X170369449Y-161650065D01*
X170426119Y-161746964D01*
X170426122Y-161746967D01*
X170471885Y-161799781D01*
X170474081Y-161802071D01*
X170473298Y-161802820D01*
X170506921Y-161860290D01*
X170503951Y-161931225D01*
X170463103Y-161989293D01*
X170397344Y-162016058D01*
X170384646Y-162016700D01*
X126372700Y-162016700D01*
X126304579Y-161996698D01*
X126258086Y-161943042D01*
X126246700Y-161890700D01*
X126246700Y-161078852D01*
X127301862Y-161078852D01*
X166397634Y-161078852D01*
X166397634Y-155762919D01*
X127301862Y-155762919D01*
X127301862Y-161078852D01*
X126246700Y-161078852D01*
X126246700Y-151677317D01*
X126216176Y-151603626D01*
X126216173Y-151603622D01*
X126159777Y-151547226D01*
X126159773Y-151547223D01*
X126086082Y-151516700D01*
X115872700Y-151516700D01*
X115804579Y-151496698D01*
X115758086Y-151443042D01*
X115746700Y-151390700D01*
X115746700Y-151020894D01*
X162835300Y-151020894D01*
X162835300Y-151357905D01*
X162873033Y-151692798D01*
X162917390Y-151887137D01*
X162948024Y-152021354D01*
X162948026Y-152021360D01*
X162948025Y-152021360D01*
X163059324Y-152339433D01*
X163059335Y-152339460D01*
X163205551Y-152643081D01*
X163205556Y-152643090D01*
X163384851Y-152928436D01*
X163594977Y-153191926D01*
X163833273Y-153430222D01*
X164096763Y-153640348D01*
X164382109Y-153819643D01*
X164382114Y-153819646D01*
X164685749Y-153965869D01*
X164685765Y-153965874D01*
X164685766Y-153965875D01*
X165003839Y-154077174D01*
X165003842Y-154077174D01*
X165003846Y-154077176D01*
X165247039Y-154132682D01*
X165332401Y-154152166D01*
X165332402Y-154152166D01*
X165332406Y-154152167D01*
X165553292Y-154177054D01*
X165667294Y-154189900D01*
X165667296Y-154189900D01*
X166004306Y-154189900D01*
X166101725Y-154178923D01*
X166339194Y-154152167D01*
X166667754Y-154077176D01*
X166985851Y-153965869D01*
X167289486Y-153819646D01*
X167574839Y-153640346D01*
X167838323Y-153430225D01*
X168076625Y-153191923D01*
X168286746Y-152928439D01*
X168466046Y-152643086D01*
X168612269Y-152339451D01*
X168723576Y-152021354D01*
X168798567Y-151692794D01*
X168836300Y-151357904D01*
X168836300Y-151020896D01*
X168798567Y-150686006D01*
X168723576Y-150357446D01*
X168612269Y-150039349D01*
X168466046Y-149735714D01*
X168466043Y-149735709D01*
X168286748Y-149450363D01*
X168076622Y-149186873D01*
X167838326Y-148948577D01*
X167574836Y-148738451D01*
X167289490Y-148559156D01*
X167289481Y-148559151D01*
X166985860Y-148412935D01*
X166985855Y-148412933D01*
X166985851Y-148412931D01*
X166985845Y-148412928D01*
X166985833Y-148412924D01*
X166667760Y-148301625D01*
X166339198Y-148226633D01*
X166004306Y-148188900D01*
X166004304Y-148188900D01*
X165667296Y-148188900D01*
X165667294Y-148188900D01*
X165332401Y-148226633D01*
X165003839Y-148301625D01*
X164685766Y-148412924D01*
X164685739Y-148412935D01*
X164382118Y-148559151D01*
X164382109Y-148559156D01*
X164096763Y-148738451D01*
X163833273Y-148948577D01*
X163594977Y-149186873D01*
X163384851Y-149450363D01*
X163205556Y-149735709D01*
X163205551Y-149735718D01*
X163059335Y-150039339D01*
X163059324Y-150039366D01*
X162948025Y-150357439D01*
X162873033Y-150686001D01*
X162835300Y-151020894D01*
X115746700Y-151020894D01*
X115746700Y-137968252D01*
X116162800Y-137968252D01*
X116173055Y-138068629D01*
X116173057Y-138068641D01*
X116226952Y-138231284D01*
X116316909Y-138377128D01*
X116316914Y-138377134D01*
X116438065Y-138498285D01*
X116438071Y-138498290D01*
X116583915Y-138588247D01*
X116746558Y-138642142D01*
X116746570Y-138642144D01*
X116846947Y-138652399D01*
X116846947Y-138652400D01*
X116891800Y-138652400D01*
X117399800Y-138652400D01*
X117444653Y-138652400D01*
X117444652Y-138652399D01*
X117545029Y-138642144D01*
X117545041Y-138642142D01*
X117707684Y-138588247D01*
X117853528Y-138498290D01*
X117853534Y-138498285D01*
X117974685Y-138377134D01*
X117974690Y-138377128D01*
X118064647Y-138231284D01*
X118118542Y-138068641D01*
X118118544Y-138068629D01*
X118128799Y-137968252D01*
X118128800Y-137968252D01*
X118128800Y-137948400D01*
X117399800Y-137948400D01*
X117399800Y-138652400D01*
X116891800Y-138652400D01*
X116891800Y-137948400D01*
X116162800Y-137948400D01*
X116162800Y-137968252D01*
X115746700Y-137968252D01*
X115746700Y-137420547D01*
X116162800Y-137420547D01*
X116162800Y-137440400D01*
X118151848Y-137440400D01*
X118163377Y-137434104D01*
X118172737Y-137432630D01*
X118175723Y-137432036D01*
X118311058Y-137405116D01*
X118438541Y-137352311D01*
X118553272Y-137275650D01*
X118650844Y-137178078D01*
X118727505Y-137063347D01*
X118780310Y-136935864D01*
X118807230Y-136800529D01*
X118807230Y-136662543D01*
X118780310Y-136527208D01*
X118727505Y-136399725D01*
X118650844Y-136284994D01*
X118650839Y-136284988D01*
X118553277Y-136187426D01*
X118553271Y-136187421D01*
X118500080Y-136151880D01*
X118438541Y-136110761D01*
X118358151Y-136077462D01*
X118311061Y-136057957D01*
X118311058Y-136057956D01*
X118175725Y-136031036D01*
X118175723Y-136031036D01*
X118062996Y-136031036D01*
X118033080Y-136022252D01*
X118002611Y-136015624D01*
X117997515Y-136011809D01*
X117994875Y-136011034D01*
X117973901Y-135994131D01*
X117958205Y-135978435D01*
X117924179Y-135916123D01*
X117921300Y-135889340D01*
X117921300Y-135878253D01*
X117911159Y-135793809D01*
X117858164Y-135659425D01*
X117858161Y-135659421D01*
X117770878Y-135544321D01*
X117655778Y-135457038D01*
X117655774Y-135457035D01*
X117521390Y-135404040D01*
X117521391Y-135404040D01*
X117436946Y-135393900D01*
X117436944Y-135393900D01*
X116854656Y-135393900D01*
X116854653Y-135393900D01*
X116770209Y-135404040D01*
X116635825Y-135457035D01*
X116635821Y-135457038D01*
X116520721Y-135544321D01*
X116433438Y-135659421D01*
X116433435Y-135659425D01*
X116380440Y-135793809D01*
X116370300Y-135878253D01*
X116370300Y-136410546D01*
X116380440Y-136494990D01*
X116433435Y-136629374D01*
X116433438Y-136629378D01*
X116486003Y-136698695D01*
X116511227Y-136765060D01*
X116496567Y-136834526D01*
X116451756Y-136882068D01*
X116438073Y-136890507D01*
X116438065Y-136890514D01*
X116316914Y-137011665D01*
X116316909Y-137011671D01*
X116226952Y-137157515D01*
X116173057Y-137320158D01*
X116173055Y-137320170D01*
X116162800Y-137420547D01*
X115746700Y-137420547D01*
X115746700Y-128048382D01*
X119935300Y-128048382D01*
X119935300Y-136060081D01*
X119935300Y-136172117D01*
X119939401Y-136187421D01*
X119964296Y-136280333D01*
X119964299Y-136280340D01*
X120020312Y-136377358D01*
X120020320Y-136377368D01*
X121798616Y-138155663D01*
X121877838Y-138234885D01*
X121962279Y-138283637D01*
X121974864Y-138290903D01*
X122083082Y-138319900D01*
X122083083Y-138319900D01*
X122131254Y-138319900D01*
X122199375Y-138339902D01*
X122245868Y-138393558D01*
X122254832Y-138421317D01*
X122272220Y-138508728D01*
X122325025Y-138636211D01*
X122349508Y-138672852D01*
X122401685Y-138750941D01*
X122401690Y-138750947D01*
X122499252Y-138848509D01*
X122499258Y-138848514D01*
X122613989Y-138925175D01*
X122741472Y-138977980D01*
X122876807Y-139004900D01*
X122876808Y-139004900D01*
X123019300Y-139004900D01*
X123087421Y-139024902D01*
X123133914Y-139078558D01*
X123145300Y-139130900D01*
X123145300Y-139188393D01*
X123172220Y-139323728D01*
X123225025Y-139451211D01*
X123276247Y-139527871D01*
X123301685Y-139565941D01*
X123301690Y-139565947D01*
X123399252Y-139663509D01*
X123399258Y-139663514D01*
X123513989Y-139740175D01*
X123641472Y-139792980D01*
X123776807Y-139819900D01*
X123776808Y-139819900D01*
X123914792Y-139819900D01*
X123914793Y-139819900D01*
X124050128Y-139792980D01*
X124177611Y-139740175D01*
X124292342Y-139663514D01*
X124389914Y-139565942D01*
X124466575Y-139451211D01*
X124519380Y-139323728D01*
X124546300Y-139188393D01*
X124546300Y-139050407D01*
X124519380Y-138915072D01*
X124466575Y-138787589D01*
X124389914Y-138672858D01*
X124389909Y-138672852D01*
X124308205Y-138591148D01*
X124274179Y-138528836D01*
X124271300Y-138502053D01*
X124271300Y-138063382D01*
X124265875Y-138043137D01*
X124242303Y-137955163D01*
X124242301Y-137955160D01*
X124242301Y-137955158D01*
X124186287Y-137858140D01*
X124186279Y-137858130D01*
X124058990Y-137730841D01*
X124024964Y-137668529D01*
X124030029Y-137597714D01*
X124072576Y-137540878D01*
X124123502Y-137518167D01*
X124250128Y-137492980D01*
X124377611Y-137440175D01*
X124492342Y-137363514D01*
X124589914Y-137265942D01*
X124666575Y-137151211D01*
X124719380Y-137023728D01*
X124746300Y-136888393D01*
X124746300Y-136750407D01*
X124743588Y-136736773D01*
X124743659Y-136727247D01*
X124741515Y-136721550D01*
X124743890Y-136696278D01*
X124743969Y-136685771D01*
X124744638Y-136682649D01*
X124773300Y-136575682D01*
X124773300Y-136549010D01*
X124776102Y-136535946D01*
X124786911Y-136516010D01*
X124793302Y-136494247D01*
X124806258Y-136480331D01*
X124809944Y-136473534D01*
X124815358Y-136470556D01*
X124823788Y-136461502D01*
X124903346Y-136401946D01*
X124989596Y-136286731D01*
X125039891Y-136151883D01*
X125046300Y-136092273D01*
X125046299Y-135446528D01*
X125039891Y-135386917D01*
X124989596Y-135252069D01*
X124903346Y-135136854D01*
X124903343Y-135136852D01*
X124903342Y-135136850D01*
X124838790Y-135088526D01*
X124836008Y-135084810D01*
X124831788Y-135082883D01*
X124814931Y-135056654D01*
X124796244Y-135031690D01*
X124795212Y-135025970D01*
X124793404Y-135023157D01*
X124788300Y-134987659D01*
X124788300Y-134842368D01*
X124808302Y-134774247D01*
X124838788Y-134741502D01*
X124918346Y-134681946D01*
X125004596Y-134566731D01*
X125054891Y-134431883D01*
X125061300Y-134372273D01*
X125061299Y-133726528D01*
X125054891Y-133666917D01*
X125028727Y-133596767D01*
X125004598Y-133532073D01*
X125004596Y-133532070D01*
X125004596Y-133532069D01*
X124918346Y-133416854D01*
X124918341Y-133416850D01*
X124823790Y-133346068D01*
X124781244Y-133289232D01*
X124773300Y-133245201D01*
X124773300Y-127748666D01*
X124793302Y-127680545D01*
X124810199Y-127659576D01*
X125313667Y-127156108D01*
X125375976Y-127122086D01*
X125446791Y-127127150D01*
X125491854Y-127156111D01*
X125499252Y-127163509D01*
X125499258Y-127163514D01*
X125613989Y-127240175D01*
X125741472Y-127292980D01*
X125876807Y-127319900D01*
X125876808Y-127319900D01*
X126014792Y-127319900D01*
X126014793Y-127319900D01*
X126150128Y-127292980D01*
X126196083Y-127273944D01*
X126266671Y-127266356D01*
X126330158Y-127298135D01*
X126366386Y-127359193D01*
X126370300Y-127390353D01*
X126370300Y-127514260D01*
X126370301Y-127514266D01*
X126373214Y-127539389D01*
X126373216Y-127539394D01*
X126418593Y-127642165D01*
X126498032Y-127721604D01*
X126498034Y-127721605D01*
X126498035Y-127721606D01*
X126600809Y-127766985D01*
X126625935Y-127769900D01*
X127365664Y-127769899D01*
X127390791Y-127766985D01*
X127390794Y-127766983D01*
X127399564Y-127764598D01*
X127470546Y-127766016D01*
X127521736Y-127797084D01*
X127780315Y-128055663D01*
X127859537Y-128134885D01*
X127956563Y-128190903D01*
X128064782Y-128219900D01*
X128064784Y-128219900D01*
X129826816Y-128219900D01*
X129826818Y-128219900D01*
X129935037Y-128190903D01*
X130032063Y-128134885D01*
X131521687Y-126645258D01*
X131521697Y-126645251D01*
X131611279Y-126555669D01*
X131611285Y-126555663D01*
X131667303Y-126458637D01*
X131667304Y-126458634D01*
X131680028Y-126411150D01*
X131689838Y-126374535D01*
X131696300Y-126350419D01*
X131696300Y-126238382D01*
X131696300Y-126118232D01*
X131698891Y-126109406D01*
X131697582Y-126100300D01*
X131708737Y-126075874D01*
X131716302Y-126050111D01*
X131723255Y-126044086D01*
X131727076Y-126035720D01*
X131749661Y-126021205D01*
X131769958Y-126003618D01*
X131780644Y-126001293D01*
X131786802Y-125997336D01*
X131822300Y-125992232D01*
X132037619Y-125992232D01*
X132105740Y-126012234D01*
X132152233Y-126065890D01*
X132162337Y-126136164D01*
X132161198Y-126142814D01*
X132145300Y-126222736D01*
X132145300Y-126360727D01*
X132148047Y-126374535D01*
X132172220Y-126496060D01*
X132225025Y-126623543D01*
X132268251Y-126688235D01*
X132301685Y-126738273D01*
X132301690Y-126738279D01*
X132399252Y-126835841D01*
X132399258Y-126835846D01*
X132513989Y-126912507D01*
X132641472Y-126965312D01*
X132755154Y-126987924D01*
X132782879Y-126993440D01*
X132782385Y-126995923D01*
X132837915Y-127018302D01*
X132878964Y-127076229D01*
X132885800Y-127117166D01*
X132885800Y-145539400D01*
X197915800Y-145539400D01*
X197915800Y-126869400D01*
X166346925Y-126869400D01*
X166278804Y-126849398D01*
X166232311Y-126795742D01*
X166220925Y-126743400D01*
X166220925Y-121330882D01*
X166652800Y-121330882D01*
X166652800Y-121587917D01*
X166693010Y-121841799D01*
X166772437Y-122086250D01*
X166772440Y-122086256D01*
X166889133Y-122315278D01*
X166965542Y-122420445D01*
X166965543Y-122420445D01*
X167530027Y-121855960D01*
X167532540Y-121862026D01*
X167625562Y-122001244D01*
X167743956Y-122119638D01*
X167883174Y-122212660D01*
X167889237Y-122215171D01*
X167324753Y-122779655D01*
X167324753Y-122779656D01*
X167429921Y-122856066D01*
X167658943Y-122972759D01*
X167658949Y-122972762D01*
X167903400Y-123052189D01*
X168157282Y-123092400D01*
X168414318Y-123092400D01*
X168668199Y-123052189D01*
X168912650Y-122972762D01*
X168912656Y-122972759D01*
X169141677Y-122856067D01*
X169246846Y-122779656D01*
X168682362Y-122215171D01*
X168688426Y-122212660D01*
X168827644Y-122119638D01*
X168946038Y-122001244D01*
X169039060Y-121862026D01*
X169041571Y-121855961D01*
X169606056Y-122420446D01*
X169682467Y-122315277D01*
X169799159Y-122086256D01*
X169799162Y-122086250D01*
X169878589Y-121841799D01*
X169918800Y-121587917D01*
X169918800Y-121330882D01*
X169878589Y-121077000D01*
X169799162Y-120832549D01*
X169799159Y-120832543D01*
X169682466Y-120603521D01*
X169606056Y-120498353D01*
X169606055Y-120498353D01*
X169041571Y-121062837D01*
X169039060Y-121056774D01*
X168946038Y-120917556D01*
X168827644Y-120799162D01*
X168688426Y-120706140D01*
X168682361Y-120703627D01*
X169246845Y-120139143D01*
X169246845Y-120139142D01*
X169141678Y-120062733D01*
X168912656Y-119946040D01*
X168912650Y-119946037D01*
X168668199Y-119866610D01*
X168414318Y-119826400D01*
X168157282Y-119826400D01*
X167903400Y-119866610D01*
X167658949Y-119946037D01*
X167658943Y-119946040D01*
X167429917Y-120062735D01*
X167324753Y-120139141D01*
X167324753Y-120139143D01*
X167889238Y-120703628D01*
X167883174Y-120706140D01*
X167743956Y-120799162D01*
X167625562Y-120917556D01*
X167532540Y-121056774D01*
X167530028Y-121062838D01*
X166965543Y-120498353D01*
X166965541Y-120498353D01*
X166889135Y-120603517D01*
X166772440Y-120832543D01*
X166772437Y-120832549D01*
X166693010Y-121077000D01*
X166652800Y-121330882D01*
X166220925Y-121330882D01*
X166220925Y-120242168D01*
X166240927Y-120174047D01*
X166289723Y-120129901D01*
X166440514Y-120053070D01*
X166609305Y-119930435D01*
X166756835Y-119782905D01*
X166879470Y-119614114D01*
X166974189Y-119428216D01*
X167038662Y-119229789D01*
X167071300Y-119023719D01*
X167071300Y-118815081D01*
X167038662Y-118609011D01*
X166974189Y-118410584D01*
X166879470Y-118224686D01*
X166756835Y-118055895D01*
X166756831Y-118055891D01*
X166756829Y-118055888D01*
X166609311Y-117908370D01*
X166609307Y-117908367D01*
X166609305Y-117908365D01*
X166440514Y-117785730D01*
X166397672Y-117763901D01*
X166397671Y-117763900D01*
X166254623Y-117691014D01*
X166254618Y-117691012D01*
X166254616Y-117691011D01*
X166056189Y-117626538D01*
X165850119Y-117593900D01*
X165641481Y-117593900D01*
X165435411Y-117626538D01*
X165435408Y-117626538D01*
X165435407Y-117626539D01*
X165236984Y-117691011D01*
X165236976Y-117691014D01*
X165051088Y-117785728D01*
X164882288Y-117908370D01*
X164734770Y-118055888D01*
X164612128Y-118224688D01*
X164517414Y-118410576D01*
X164517411Y-118410584D01*
X164463107Y-118577715D01*
X164452938Y-118609011D01*
X164420300Y-118815081D01*
X164420300Y-119023719D01*
X164452938Y-119229789D01*
X164452939Y-119229792D01*
X164517411Y-119428215D01*
X164517414Y-119428223D01*
X164612128Y-119614111D01*
X164612130Y-119614114D01*
X164734765Y-119782905D01*
X164734767Y-119782907D01*
X164734770Y-119782911D01*
X164882288Y-119930429D01*
X164882291Y-119930431D01*
X164882295Y-119930435D01*
X165051086Y-120053070D01*
X165051088Y-120053071D01*
X165201877Y-120129901D01*
X165253493Y-120178649D01*
X165270675Y-120242168D01*
X165270675Y-126743400D01*
X165250673Y-126811521D01*
X165197017Y-126858014D01*
X165144675Y-126869400D01*
X140655857Y-126869400D01*
X140587736Y-126849398D01*
X140541243Y-126795742D01*
X140531139Y-126725468D01*
X140560633Y-126660888D01*
X140592859Y-126634280D01*
X140593897Y-126633680D01*
X140596432Y-126632217D01*
X141740834Y-125487815D01*
X142886536Y-124342114D01*
X146437848Y-120790802D01*
X152917800Y-120790802D01*
X152917800Y-121435400D01*
X153845097Y-121435400D01*
X153809875Y-121496407D01*
X153775800Y-121623574D01*
X153775800Y-121755226D01*
X153809875Y-121882393D01*
X153845097Y-121943400D01*
X152917800Y-121943400D01*
X152917800Y-122587997D01*
X152924305Y-122648493D01*
X152975355Y-122785364D01*
X152975355Y-122785365D01*
X153062895Y-122902304D01*
X153179834Y-122989844D01*
X153316706Y-123040894D01*
X153377202Y-123047399D01*
X153377215Y-123047400D01*
X154095970Y-123047400D01*
X154164091Y-123067402D01*
X154210584Y-123121058D01*
X154220688Y-123191332D01*
X154214026Y-123217432D01*
X154194305Y-123270305D01*
X154187800Y-123330802D01*
X154187800Y-123975400D01*
X155115097Y-123975400D01*
X155079875Y-124036407D01*
X155045800Y-124163574D01*
X155045800Y-124295226D01*
X155079875Y-124422393D01*
X155115097Y-124483400D01*
X154187800Y-124483400D01*
X154187800Y-125127997D01*
X154194305Y-125188493D01*
X154245355Y-125325364D01*
X154245355Y-125325365D01*
X154332895Y-125442304D01*
X154449834Y-125529844D01*
X154586706Y-125580894D01*
X154647202Y-125587399D01*
X154647215Y-125587400D01*
X155291800Y-125587400D01*
X155291800Y-124660102D01*
X155352807Y-124695325D01*
X155479974Y-124729400D01*
X155611626Y-124729400D01*
X155738793Y-124695325D01*
X155799800Y-124660102D01*
X155799800Y-125587400D01*
X156444385Y-125587400D01*
X156444397Y-125587399D01*
X156504893Y-125580894D01*
X156641764Y-125529844D01*
X156641766Y-125529843D01*
X156740290Y-125456088D01*
X156806810Y-125431276D01*
X156876184Y-125446367D01*
X156891310Y-125456088D01*
X156989833Y-125529843D01*
X156989835Y-125529844D01*
X157126706Y-125580894D01*
X157187202Y-125587399D01*
X157187215Y-125587400D01*
X157831800Y-125587400D01*
X157831800Y-124660102D01*
X157892807Y-124695325D01*
X158019974Y-124729400D01*
X158151626Y-124729400D01*
X158278793Y-124695325D01*
X158339800Y-124660102D01*
X158339800Y-125587400D01*
X158984385Y-125587400D01*
X158984397Y-125587399D01*
X159044893Y-125580894D01*
X159181764Y-125529844D01*
X159181765Y-125529844D01*
X159298704Y-125442304D01*
X159386244Y-125325365D01*
X159386244Y-125325364D01*
X159437294Y-125188493D01*
X159443799Y-125127997D01*
X159443800Y-125127985D01*
X159443800Y-124483400D01*
X158516503Y-124483400D01*
X158551725Y-124422393D01*
X158585800Y-124295226D01*
X158585800Y-124163574D01*
X158551725Y-124036407D01*
X158516503Y-123975400D01*
X159443800Y-123975400D01*
X159443800Y-123330814D01*
X159443799Y-123330802D01*
X159437294Y-123270306D01*
X159395741Y-123158896D01*
X159395736Y-123158882D01*
X159392675Y-123150672D01*
X159391572Y-123135234D01*
X159389511Y-123135578D01*
X159389510Y-123135572D01*
X159391572Y-123135228D01*
X159390118Y-123114858D01*
X159387615Y-123079872D01*
X159387619Y-123079863D01*
X159387619Y-123079855D01*
X159391800Y-123072200D01*
X159391800Y-122120102D01*
X159452807Y-122155325D01*
X159579974Y-122189400D01*
X159711626Y-122189400D01*
X159838793Y-122155325D01*
X159899800Y-122120102D01*
X159899800Y-123047400D01*
X160544385Y-123047400D01*
X160544397Y-123047399D01*
X160604893Y-123040894D01*
X160741764Y-122989844D01*
X160741765Y-122989844D01*
X160858704Y-122902304D01*
X160946243Y-122785366D01*
X160982708Y-122687602D01*
X160982708Y-122687601D01*
X160997294Y-122648494D01*
X161003799Y-122587997D01*
X161003800Y-122587985D01*
X161003800Y-121943400D01*
X160076503Y-121943400D01*
X160111725Y-121882393D01*
X160145800Y-121755226D01*
X160145800Y-121623574D01*
X160111725Y-121496407D01*
X160076503Y-121435400D01*
X161003800Y-121435400D01*
X161003800Y-121330882D01*
X161572800Y-121330882D01*
X161572800Y-121587917D01*
X161613010Y-121841799D01*
X161692437Y-122086250D01*
X161692440Y-122086256D01*
X161809133Y-122315278D01*
X161885542Y-122420445D01*
X161885543Y-122420445D01*
X162450027Y-121855960D01*
X162452540Y-121862026D01*
X162545562Y-122001244D01*
X162663956Y-122119638D01*
X162803174Y-122212660D01*
X162809237Y-122215171D01*
X162244753Y-122779655D01*
X162244753Y-122779656D01*
X162349921Y-122856066D01*
X162578943Y-122972759D01*
X162578949Y-122972762D01*
X162823400Y-123052189D01*
X163077282Y-123092400D01*
X163334318Y-123092400D01*
X163588199Y-123052189D01*
X163832650Y-122972762D01*
X163832656Y-122972759D01*
X164061677Y-122856067D01*
X164166846Y-122779656D01*
X163602362Y-122215171D01*
X163608426Y-122212660D01*
X163747644Y-122119638D01*
X163866038Y-122001244D01*
X163959060Y-121862026D01*
X163961571Y-121855961D01*
X164526056Y-122420446D01*
X164602467Y-122315277D01*
X164719159Y-122086256D01*
X164719162Y-122086250D01*
X164798589Y-121841799D01*
X164838800Y-121587917D01*
X164838800Y-121330882D01*
X164798589Y-121077000D01*
X164719162Y-120832549D01*
X164719159Y-120832543D01*
X164602466Y-120603521D01*
X164526056Y-120498353D01*
X164526055Y-120498353D01*
X163961571Y-121062837D01*
X163959060Y-121056774D01*
X163866038Y-120917556D01*
X163747644Y-120799162D01*
X163608426Y-120706140D01*
X163602361Y-120703627D01*
X164166845Y-120139143D01*
X164166845Y-120139142D01*
X164061678Y-120062733D01*
X163832656Y-119946040D01*
X163832650Y-119946037D01*
X163588199Y-119866610D01*
X163334318Y-119826400D01*
X163077282Y-119826400D01*
X162823400Y-119866610D01*
X162578949Y-119946037D01*
X162578943Y-119946040D01*
X162349917Y-120062735D01*
X162244753Y-120139141D01*
X162244753Y-120139143D01*
X162809238Y-120703628D01*
X162803174Y-120706140D01*
X162663956Y-120799162D01*
X162545562Y-120917556D01*
X162452540Y-121056774D01*
X162450028Y-121062838D01*
X161885543Y-120498353D01*
X161885541Y-120498353D01*
X161809135Y-120603517D01*
X161692440Y-120832543D01*
X161692437Y-120832549D01*
X161613010Y-121077000D01*
X161572800Y-121330882D01*
X161003800Y-121330882D01*
X161003800Y-120790814D01*
X161003799Y-120790802D01*
X160997294Y-120730306D01*
X160946244Y-120593435D01*
X160946244Y-120593434D01*
X160858704Y-120476495D01*
X160741765Y-120388955D01*
X160604893Y-120337905D01*
X160544397Y-120331400D01*
X159899800Y-120331400D01*
X159899800Y-121258697D01*
X159838793Y-121223475D01*
X159711626Y-121189400D01*
X159579974Y-121189400D01*
X159452807Y-121223475D01*
X159391800Y-121258697D01*
X159391800Y-120331400D01*
X158747202Y-120331400D01*
X158686706Y-120337905D01*
X158549835Y-120388955D01*
X158549834Y-120388955D01*
X158432895Y-120476495D01*
X158345355Y-120593434D01*
X158345355Y-120593435D01*
X158294305Y-120730306D01*
X158287800Y-120790802D01*
X158287800Y-121435400D01*
X159215097Y-121435400D01*
X159179875Y-121496407D01*
X159145800Y-121623574D01*
X159145800Y-121755226D01*
X159179875Y-121882393D01*
X159215097Y-121943400D01*
X158287800Y-121943400D01*
X158287800Y-122587997D01*
X158294305Y-122648494D01*
X158335859Y-122759906D01*
X158335861Y-122759910D01*
X158338921Y-122768115D01*
X158343984Y-122838931D01*
X158339800Y-122846593D01*
X158339800Y-123798697D01*
X158278793Y-123763475D01*
X158151626Y-123729400D01*
X158019974Y-123729400D01*
X157892807Y-123763475D01*
X157831800Y-123798697D01*
X157831800Y-122871400D01*
X157187202Y-122871400D01*
X157126706Y-122877905D01*
X156989835Y-122928955D01*
X156989834Y-122928955D01*
X156891309Y-123002711D01*
X156824789Y-123027522D01*
X156755414Y-123012430D01*
X156740291Y-123002711D01*
X156641765Y-122928955D01*
X156504893Y-122877905D01*
X156444397Y-122871400D01*
X155725630Y-122871400D01*
X155657509Y-122851398D01*
X155611016Y-122797742D01*
X155600912Y-122727468D01*
X155607574Y-122701368D01*
X155627294Y-122648494D01*
X155633799Y-122587997D01*
X155633800Y-122587985D01*
X155633800Y-121943400D01*
X154706503Y-121943400D01*
X154741725Y-121882393D01*
X154775800Y-121755226D01*
X154775800Y-121623574D01*
X154741725Y-121496407D01*
X154706503Y-121435400D01*
X155633800Y-121435400D01*
X155633800Y-120790814D01*
X155633799Y-120790802D01*
X155627294Y-120730306D01*
X155576244Y-120593435D01*
X155576244Y-120593434D01*
X155488704Y-120476495D01*
X155371765Y-120388955D01*
X155234893Y-120337905D01*
X155174397Y-120331400D01*
X154529800Y-120331400D01*
X154529800Y-121258697D01*
X154468793Y-121223475D01*
X154341626Y-121189400D01*
X154209974Y-121189400D01*
X154082807Y-121223475D01*
X154021800Y-121258697D01*
X154021800Y-120331400D01*
X153377202Y-120331400D01*
X153316706Y-120337905D01*
X153179835Y-120388955D01*
X153179834Y-120388955D01*
X153062895Y-120476495D01*
X152975355Y-120593434D01*
X152975355Y-120593435D01*
X152924305Y-120730306D01*
X152917800Y-120790802D01*
X146437848Y-120790802D01*
X146530310Y-120698340D01*
X146986279Y-120242370D01*
X146986285Y-120242364D01*
X147042303Y-120145338D01*
X147071300Y-120037119D01*
X147071300Y-119925083D01*
X147071300Y-118645836D01*
X147091302Y-118577715D01*
X147108200Y-118556746D01*
X149414064Y-116250882D01*
X161572800Y-116250882D01*
X161572800Y-116507917D01*
X161613010Y-116761799D01*
X161692437Y-117006250D01*
X161692440Y-117006256D01*
X161809133Y-117235278D01*
X161885542Y-117340445D01*
X161885543Y-117340445D01*
X162450027Y-116775960D01*
X162452540Y-116782026D01*
X162545562Y-116921244D01*
X162663956Y-117039638D01*
X162803174Y-117132660D01*
X162809237Y-117135171D01*
X162244753Y-117699655D01*
X162244753Y-117699656D01*
X162349921Y-117776066D01*
X162578943Y-117892759D01*
X162578949Y-117892762D01*
X162823400Y-117972189D01*
X163077282Y-118012400D01*
X163334318Y-118012400D01*
X163588199Y-117972189D01*
X163832650Y-117892762D01*
X163832656Y-117892759D01*
X164061677Y-117776067D01*
X164166846Y-117699656D01*
X163602362Y-117135171D01*
X163608426Y-117132660D01*
X163747644Y-117039638D01*
X163866038Y-116921244D01*
X163959060Y-116782026D01*
X163961571Y-116775961D01*
X164526056Y-117340446D01*
X164602467Y-117235277D01*
X164719159Y-117006256D01*
X164719162Y-117006250D01*
X164798589Y-116761799D01*
X164838800Y-116507917D01*
X164838800Y-116250882D01*
X166652800Y-116250882D01*
X166652800Y-116507917D01*
X166693010Y-116761799D01*
X166772437Y-117006250D01*
X166772440Y-117006256D01*
X166889133Y-117235278D01*
X166965542Y-117340445D01*
X166965543Y-117340445D01*
X167530027Y-116775960D01*
X167532540Y-116782026D01*
X167625562Y-116921244D01*
X167743956Y-117039638D01*
X167883174Y-117132660D01*
X167889237Y-117135171D01*
X167324753Y-117699655D01*
X167324753Y-117699656D01*
X167429921Y-117776066D01*
X167658943Y-117892759D01*
X167658949Y-117892762D01*
X167903400Y-117972189D01*
X168157282Y-118012400D01*
X168414318Y-118012400D01*
X168668199Y-117972189D01*
X168912650Y-117892762D01*
X168912656Y-117892759D01*
X169141677Y-117776067D01*
X169246846Y-117699656D01*
X168682362Y-117135171D01*
X168688426Y-117132660D01*
X168827644Y-117039638D01*
X168946038Y-116921244D01*
X169039060Y-116782026D01*
X169041571Y-116775961D01*
X169606056Y-117340446D01*
X169682467Y-117235277D01*
X169799159Y-117006256D01*
X169799162Y-117006250D01*
X169878589Y-116761799D01*
X169918800Y-116507917D01*
X169918800Y-116250882D01*
X169878589Y-115997000D01*
X169799162Y-115752549D01*
X169799159Y-115752543D01*
X169682466Y-115523521D01*
X169606056Y-115418353D01*
X169606055Y-115418353D01*
X169041571Y-115982837D01*
X169039060Y-115976774D01*
X168946038Y-115837556D01*
X168827644Y-115719162D01*
X168688426Y-115626140D01*
X168682361Y-115623627D01*
X169246845Y-115059143D01*
X169246845Y-115059142D01*
X169141678Y-114982733D01*
X168912656Y-114866040D01*
X168912650Y-114866037D01*
X168668199Y-114786610D01*
X168414318Y-114746400D01*
X168157282Y-114746400D01*
X167903400Y-114786610D01*
X167658949Y-114866037D01*
X167658943Y-114866040D01*
X167429917Y-114982735D01*
X167324753Y-115059141D01*
X167324753Y-115059143D01*
X167889238Y-115623628D01*
X167883174Y-115626140D01*
X167743956Y-115719162D01*
X167625562Y-115837556D01*
X167532540Y-115976774D01*
X167530028Y-115982838D01*
X166965543Y-115418353D01*
X166965541Y-115418353D01*
X166889135Y-115523517D01*
X166772440Y-115752543D01*
X166772437Y-115752549D01*
X166693010Y-115997000D01*
X166652800Y-116250882D01*
X164838800Y-116250882D01*
X164798589Y-115997000D01*
X164719162Y-115752549D01*
X164719159Y-115752543D01*
X164602466Y-115523521D01*
X164526056Y-115418353D01*
X164526055Y-115418353D01*
X163961571Y-115982837D01*
X163959060Y-115976774D01*
X163866038Y-115837556D01*
X163747644Y-115719162D01*
X163608426Y-115626140D01*
X163602361Y-115623627D01*
X164166845Y-115059143D01*
X164166845Y-115059142D01*
X164061678Y-114982733D01*
X163832656Y-114866040D01*
X163832650Y-114866037D01*
X163588199Y-114786610D01*
X163334318Y-114746400D01*
X163077282Y-114746400D01*
X162823400Y-114786610D01*
X162578949Y-114866037D01*
X162578943Y-114866040D01*
X162349917Y-114982735D01*
X162244753Y-115059141D01*
X162244753Y-115059143D01*
X162809238Y-115623628D01*
X162803174Y-115626140D01*
X162663956Y-115719162D01*
X162545562Y-115837556D01*
X162452540Y-115976774D01*
X162450028Y-115982838D01*
X161885543Y-115418353D01*
X161885541Y-115418353D01*
X161809135Y-115523517D01*
X161692440Y-115752543D01*
X161692437Y-115752549D01*
X161613010Y-115997000D01*
X161572800Y-116250882D01*
X149414064Y-116250882D01*
X154180207Y-111484738D01*
X154242517Y-111450714D01*
X154313332Y-111455779D01*
X154370168Y-111498326D01*
X154394979Y-111564846D01*
X154395300Y-111573835D01*
X154395300Y-112764259D01*
X154395301Y-112764266D01*
X154398214Y-112789390D01*
X154398216Y-112789394D01*
X154443593Y-112892165D01*
X154523032Y-112971604D01*
X154523034Y-112971605D01*
X154523035Y-112971606D01*
X154574378Y-112994276D01*
X154598780Y-113014888D01*
X154624352Y-113034031D01*
X154625690Y-113037618D01*
X154628615Y-113040089D01*
X154637999Y-113070621D01*
X154649163Y-113100551D01*
X154648349Y-113104292D01*
X154649474Y-113107952D01*
X154640862Y-113138707D01*
X154634072Y-113169925D01*
X154630957Y-113174085D01*
X154630332Y-113176319D01*
X154612579Y-113198635D01*
X154572284Y-113238930D01*
X154509972Y-113272956D01*
X154463479Y-113274284D01*
X154430551Y-113269069D01*
X154366346Y-113258900D01*
X154185254Y-113258900D01*
X154006391Y-113287229D01*
X154006388Y-113287229D01*
X154006387Y-113287230D01*
X153834165Y-113343187D01*
X153834159Y-113343190D01*
X153672802Y-113425406D01*
X153526296Y-113531849D01*
X153526293Y-113531851D01*
X153398251Y-113659893D01*
X153398249Y-113659896D01*
X153291806Y-113806402D01*
X153209590Y-113967759D01*
X153209587Y-113967765D01*
X153153630Y-114139987D01*
X153153629Y-114139991D01*
X153125300Y-114318854D01*
X153125300Y-114499946D01*
X153153629Y-114678809D01*
X153153630Y-114678812D01*
X153199389Y-114819648D01*
X153209589Y-114851039D01*
X153291804Y-115012394D01*
X153398247Y-115158901D01*
X153398249Y-115158903D01*
X153398251Y-115158906D01*
X153526293Y-115286948D01*
X153526296Y-115286950D01*
X153526299Y-115286953D01*
X153672806Y-115393396D01*
X153834161Y-115475611D01*
X154006391Y-115531571D01*
X154185254Y-115559900D01*
X154185257Y-115559900D01*
X154366343Y-115559900D01*
X154366346Y-115559900D01*
X154545209Y-115531571D01*
X154717439Y-115475611D01*
X154878794Y-115393396D01*
X155025301Y-115286953D01*
X155153353Y-115158901D01*
X155259796Y-115012394D01*
X155342011Y-114851039D01*
X155397971Y-114678809D01*
X155426300Y-114499946D01*
X155426300Y-114318854D01*
X155410915Y-114221719D01*
X155420015Y-114151309D01*
X155446266Y-114112916D01*
X156025832Y-113533352D01*
X156069898Y-113467402D01*
X156069899Y-113467401D01*
X156081720Y-113449707D01*
X156093464Y-113432133D01*
X156140050Y-113319664D01*
X156163800Y-113200268D01*
X156163800Y-113145899D01*
X156183802Y-113077778D01*
X156237458Y-113031285D01*
X156289800Y-113019899D01*
X156440660Y-113019899D01*
X156440664Y-113019899D01*
X156465791Y-113016985D01*
X156568565Y-112971606D01*
X156648006Y-112892165D01*
X156693385Y-112789391D01*
X156693386Y-112789380D01*
X156694216Y-112786332D01*
X156696060Y-112783331D01*
X156697213Y-112780721D01*
X156697568Y-112780878D01*
X156731395Y-112725849D01*
X156795372Y-112695068D01*
X156865834Y-112703762D01*
X156920411Y-112749170D01*
X156937379Y-112786321D01*
X156938213Y-112789389D01*
X156983593Y-112892165D01*
X157063032Y-112971604D01*
X157063034Y-112971605D01*
X157063035Y-112971606D01*
X157165809Y-113016985D01*
X157165808Y-113016985D01*
X157170278Y-113017503D01*
X157190935Y-113019900D01*
X157403313Y-113019899D01*
X157471434Y-113039901D01*
X157517927Y-113093556D01*
X157519722Y-113097680D01*
X157538133Y-113142128D01*
X157538135Y-113142132D01*
X157560978Y-113176319D01*
X157605768Y-113243352D01*
X157605772Y-113243356D01*
X158475330Y-114112914D01*
X158509356Y-114175226D01*
X158510684Y-114221719D01*
X158495300Y-114318854D01*
X158495300Y-114499946D01*
X158523629Y-114678809D01*
X158523630Y-114678812D01*
X158569389Y-114819648D01*
X158579589Y-114851039D01*
X158661804Y-115012394D01*
X158768247Y-115158901D01*
X158768249Y-115158903D01*
X158768251Y-115158906D01*
X158896293Y-115286948D01*
X158896296Y-115286950D01*
X158896299Y-115286953D01*
X159042806Y-115393396D01*
X159204161Y-115475611D01*
X159376391Y-115531571D01*
X159555254Y-115559900D01*
X159555257Y-115559900D01*
X159736343Y-115559900D01*
X159736346Y-115559900D01*
X159915209Y-115531571D01*
X160087439Y-115475611D01*
X160248794Y-115393396D01*
X160395301Y-115286953D01*
X160523353Y-115158901D01*
X160629796Y-115012394D01*
X160712011Y-114851039D01*
X160767971Y-114678809D01*
X160796300Y-114499946D01*
X160796300Y-114318854D01*
X160767971Y-114139991D01*
X160712011Y-113967761D01*
X160629796Y-113806406D01*
X160523353Y-113659899D01*
X160523350Y-113659896D01*
X160523348Y-113659893D01*
X160395306Y-113531851D01*
X160395303Y-113531849D01*
X160395301Y-113531847D01*
X160285016Y-113451721D01*
X160248797Y-113425406D01*
X160248796Y-113425405D01*
X160248794Y-113425404D01*
X160087439Y-113343189D01*
X160087436Y-113343188D01*
X160087434Y-113343187D01*
X159915212Y-113287230D01*
X159915209Y-113287229D01*
X159736346Y-113258900D01*
X159555254Y-113258900D01*
X159515578Y-113265184D01*
X159458119Y-113274284D01*
X159452605Y-113273571D01*
X159447398Y-113275514D01*
X159417772Y-113269069D01*
X159387708Y-113265184D01*
X159382015Y-113261291D01*
X159378024Y-113260423D01*
X159349314Y-113238930D01*
X159184373Y-113073989D01*
X159150347Y-113011677D01*
X159155412Y-112940862D01*
X159184373Y-112895799D01*
X159188004Y-112892167D01*
X159188006Y-112892165D01*
X159233385Y-112789391D01*
X159236300Y-112764265D01*
X159236299Y-111645072D01*
X159256301Y-111576952D01*
X159273199Y-111555983D01*
X161054881Y-109774302D01*
X161117191Y-109740279D01*
X161143974Y-109737400D01*
X163813112Y-109737400D01*
X163840050Y-109745309D01*
X163867745Y-109749861D01*
X163876359Y-109755970D01*
X163881233Y-109757402D01*
X163897520Y-109769852D01*
X163899914Y-109772012D01*
X163946765Y-109818863D01*
X163966318Y-109831928D01*
X163973113Y-109838059D01*
X163987099Y-109860814D01*
X164004234Y-109881316D01*
X164005398Y-109890585D01*
X164010290Y-109898544D01*
X164009753Y-109925253D01*
X164013083Y-109951759D01*
X164009051Y-109960185D01*
X164008864Y-109969526D01*
X163993971Y-109991707D01*
X163982443Y-110015804D01*
X163974147Y-110021232D01*
X163969289Y-110028469D01*
X163950998Y-110036381D01*
X163928339Y-110051211D01*
X163848277Y-110077741D01*
X163697460Y-110170765D01*
X163697454Y-110170770D01*
X163572170Y-110296054D01*
X163572165Y-110296060D01*
X163479142Y-110446874D01*
X163423406Y-110615078D01*
X163423405Y-110615081D01*
X163412800Y-110718883D01*
X163412800Y-110865400D01*
X164401700Y-110865400D01*
X164349763Y-110955356D01*
X164320800Y-111063448D01*
X164320800Y-111175352D01*
X164349763Y-111283444D01*
X164401700Y-111373400D01*
X163412800Y-111373400D01*
X163412800Y-111519916D01*
X163423405Y-111623718D01*
X163423406Y-111623721D01*
X163479142Y-111791925D01*
X163572165Y-111942739D01*
X163572170Y-111942745D01*
X163697454Y-112068029D01*
X163697460Y-112068034D01*
X163848274Y-112161057D01*
X164016478Y-112216793D01*
X164016481Y-112216794D01*
X164120283Y-112227399D01*
X164120283Y-112227400D01*
X164491800Y-112227400D01*
X164491800Y-111463500D01*
X164581756Y-111515437D01*
X164689848Y-111544400D01*
X164801752Y-111544400D01*
X164909844Y-111515437D01*
X164999800Y-111463500D01*
X164999800Y-112227400D01*
X165371317Y-112227400D01*
X165371316Y-112227399D01*
X165475118Y-112216794D01*
X165475121Y-112216793D01*
X165643325Y-112161057D01*
X165800385Y-112064182D01*
X165801886Y-112066615D01*
X165855560Y-112044949D01*
X165925311Y-112058186D01*
X165935767Y-112064606D01*
X165935859Y-112064458D01*
X165940075Y-112067041D01*
X166095475Y-112146222D01*
X166095481Y-112146225D01*
X166261340Y-112200115D01*
X166261336Y-112200115D01*
X166433603Y-112227400D01*
X166491801Y-112227400D01*
X166491801Y-111463500D01*
X166581757Y-111515437D01*
X166689849Y-111544400D01*
X166801753Y-111544400D01*
X166909845Y-111515437D01*
X166999801Y-111463500D01*
X166999801Y-112227400D01*
X167057999Y-112227400D01*
X167230263Y-112200115D01*
X167396120Y-112146225D01*
X167396126Y-112146222D01*
X167551522Y-112067043D01*
X167615041Y-112020894D01*
X201805300Y-112020894D01*
X201805300Y-112357905D01*
X201843033Y-112692798D01*
X201872044Y-112819900D01*
X201918024Y-113021354D01*
X201918026Y-113021360D01*
X201918025Y-113021360D01*
X202029324Y-113339433D01*
X202029335Y-113339460D01*
X202175551Y-113643081D01*
X202175556Y-113643090D01*
X202354851Y-113928436D01*
X202564977Y-114191926D01*
X202803273Y-114430222D01*
X203066763Y-114640348D01*
X203352109Y-114819643D01*
X203352114Y-114819646D01*
X203655749Y-114965869D01*
X203655765Y-114965874D01*
X203655766Y-114965875D01*
X203973839Y-115077174D01*
X203973842Y-115077174D01*
X203973846Y-115077176D01*
X204192904Y-115127174D01*
X204302401Y-115152166D01*
X204302402Y-115152166D01*
X204302406Y-115152167D01*
X204523292Y-115177054D01*
X204637294Y-115189900D01*
X204637296Y-115189900D01*
X204974306Y-115189900D01*
X205071725Y-115178923D01*
X205309194Y-115152167D01*
X205637754Y-115077176D01*
X205955851Y-114965869D01*
X206259486Y-114819646D01*
X206544839Y-114640346D01*
X206808323Y-114430225D01*
X207046625Y-114191923D01*
X207256746Y-113928439D01*
X207436046Y-113643086D01*
X207582269Y-113339451D01*
X207693576Y-113021354D01*
X207768567Y-112692794D01*
X207806300Y-112357904D01*
X207806300Y-112020896D01*
X207768567Y-111686006D01*
X207693576Y-111357446D01*
X207662853Y-111269646D01*
X207582275Y-111039366D01*
X207582274Y-111039365D01*
X207582269Y-111039349D01*
X207457044Y-110779316D01*
X207436048Y-110735718D01*
X207436043Y-110735709D01*
X207256748Y-110450363D01*
X207046622Y-110186873D01*
X206808326Y-109948577D01*
X206544836Y-109738451D01*
X206259490Y-109559156D01*
X206259481Y-109559151D01*
X205955860Y-109412935D01*
X205955855Y-109412933D01*
X205955851Y-109412931D01*
X205955845Y-109412928D01*
X205955833Y-109412924D01*
X205637760Y-109301625D01*
X205309198Y-109226633D01*
X204974306Y-109188900D01*
X204974304Y-109188900D01*
X204637296Y-109188900D01*
X204637294Y-109188900D01*
X204302401Y-109226633D01*
X203973839Y-109301625D01*
X203655766Y-109412924D01*
X203655739Y-109412935D01*
X203352118Y-109559151D01*
X203352109Y-109559156D01*
X203066763Y-109738451D01*
X202803273Y-109948577D01*
X202564977Y-110186873D01*
X202354851Y-110450363D01*
X202175556Y-110735709D01*
X202175551Y-110735718D01*
X202029335Y-111039339D01*
X202029324Y-111039366D01*
X201918025Y-111357439D01*
X201843033Y-111686001D01*
X201805300Y-112020894D01*
X167615041Y-112020894D01*
X167692616Y-111964532D01*
X167692619Y-111964530D01*
X167728884Y-111928266D01*
X167815931Y-111841218D01*
X167815933Y-111841215D01*
X167918444Y-111700121D01*
X167997623Y-111544725D01*
X167997626Y-111544719D01*
X168051515Y-111378865D01*
X168052381Y-111373400D01*
X167089901Y-111373400D01*
X167141838Y-111283444D01*
X167170801Y-111175352D01*
X167170801Y-111063448D01*
X167141838Y-110955356D01*
X167089901Y-110865400D01*
X168052381Y-110865400D01*
X168051515Y-110859934D01*
X167997626Y-110694080D01*
X167997623Y-110694074D01*
X167918444Y-110538678D01*
X167815933Y-110397584D01*
X167815931Y-110397581D01*
X167692619Y-110274269D01*
X167692616Y-110274267D01*
X167551519Y-110171754D01*
X167439629Y-110114742D01*
X167388014Y-110065994D01*
X167370949Y-109997079D01*
X167393850Y-109929877D01*
X167426826Y-109897715D01*
X167544835Y-109818864D01*
X167670264Y-109693435D01*
X167768813Y-109545947D01*
X167836694Y-109382066D01*
X167871300Y-109208091D01*
X167871300Y-109030709D01*
X167836694Y-108856734D01*
X167768813Y-108692853D01*
X167670264Y-108545365D01*
X167670259Y-108545359D01*
X167544840Y-108419940D01*
X167544834Y-108419935D01*
X167481174Y-108377399D01*
X167397347Y-108321387D01*
X167233466Y-108253506D01*
X167180537Y-108242977D01*
X167117629Y-108210069D01*
X167082498Y-108148374D01*
X167086299Y-108077479D01*
X167127825Y-108019894D01*
X167180537Y-107995821D01*
X167233466Y-107985293D01*
X167397347Y-107917412D01*
X167544835Y-107818863D01*
X167670264Y-107693434D01*
X167768813Y-107545946D01*
X167836694Y-107382065D01*
X167871300Y-107208090D01*
X167871300Y-107030708D01*
X167836694Y-106856733D01*
X167833449Y-106848898D01*
X167829709Y-106839869D01*
X167822119Y-106769279D01*
X167853897Y-106705792D01*
X167856966Y-106702610D01*
X170138698Y-104420880D01*
X170203339Y-104308918D01*
X170236800Y-104184040D01*
X170236800Y-104054757D01*
X170236800Y-102171246D01*
X170256802Y-102103125D01*
X170273702Y-102082153D01*
X170289914Y-102065942D01*
X170366575Y-101951211D01*
X170419380Y-101823728D01*
X170446300Y-101688393D01*
X170446300Y-101550407D01*
X170419380Y-101415072D01*
X170366575Y-101287589D01*
X170289914Y-101172858D01*
X170289909Y-101172852D01*
X170192347Y-101075290D01*
X170192341Y-101075285D01*
X170125623Y-101030706D01*
X170077611Y-100998625D01*
X169997221Y-100965326D01*
X169950131Y-100945821D01*
X169950128Y-100945820D01*
X169849317Y-100925767D01*
X169786407Y-100892859D01*
X169751276Y-100831164D01*
X169755077Y-100760269D01*
X169784802Y-100713095D01*
X196391125Y-74106772D01*
X196453435Y-74072748D01*
X196524250Y-74077813D01*
X196550220Y-74091105D01*
X196551416Y-74091904D01*
X196678899Y-74144709D01*
X196814234Y-74171629D01*
X196814235Y-74171629D01*
X196952219Y-74171629D01*
X196952220Y-74171629D01*
X197087555Y-74144709D01*
X197215038Y-74091904D01*
X197329769Y-74015243D01*
X197427341Y-73917671D01*
X197504002Y-73802940D01*
X197556807Y-73675457D01*
X197583727Y-73540122D01*
X197583727Y-73402136D01*
X197556807Y-73266801D01*
X197504002Y-73139318D01*
X197427341Y-73024587D01*
X197427336Y-73024581D01*
X197329774Y-72927019D01*
X197329768Y-72927014D01*
X197256162Y-72877832D01*
X197210634Y-72823355D01*
X197201786Y-72752912D01*
X197209753Y-72724854D01*
X197242192Y-72646540D01*
X197269112Y-72511205D01*
X197269112Y-72373219D01*
X197242192Y-72237884D01*
X197189387Y-72110401D01*
X197149298Y-72050404D01*
X198545300Y-72050404D01*
X198545300Y-72188395D01*
X198572220Y-72323728D01*
X198572221Y-72323731D01*
X198579857Y-72342165D01*
X198625025Y-72451211D01*
X198676186Y-72527778D01*
X198701685Y-72565941D01*
X198701690Y-72565947D01*
X198709099Y-72573356D01*
X198743125Y-72635668D01*
X198738060Y-72706480D01*
X198727051Y-72736002D01*
X198726710Y-72736915D01*
X198726709Y-72736918D01*
X198720300Y-72796521D01*
X198720300Y-73442264D01*
X198720302Y-73442285D01*
X198726708Y-73501880D01*
X198726708Y-73501881D01*
X198777001Y-73636726D01*
X198777003Y-73636729D01*
X198863253Y-73751946D01*
X198920861Y-73795071D01*
X198978469Y-73838196D01*
X198978471Y-73838196D01*
X198978473Y-73838198D01*
X199038830Y-73860709D01*
X199113314Y-73888490D01*
X199113317Y-73888491D01*
X199172927Y-73894900D01*
X199668672Y-73894899D01*
X199728283Y-73888491D01*
X199863131Y-73838196D01*
X199978346Y-73751946D01*
X200021960Y-73693684D01*
X200078792Y-73651142D01*
X200149608Y-73646076D01*
X200211920Y-73680101D01*
X200230654Y-73704013D01*
X200309378Y-73834239D01*
X200309386Y-73834250D01*
X200430949Y-73955813D01*
X200430959Y-73955821D01*
X200578093Y-74044766D01*
X200742246Y-74095918D01*
X200813581Y-74102399D01*
X200816799Y-74102399D01*
X201324800Y-74102399D01*
X201328022Y-74102399D01*
X201399353Y-74095918D01*
X201563506Y-74044766D01*
X201710640Y-73955821D01*
X201710650Y-73955813D01*
X201832213Y-73834250D01*
X201832221Y-73834240D01*
X201921166Y-73687106D01*
X201972318Y-73522953D01*
X201972318Y-73522952D01*
X201978800Y-73451622D01*
X201978800Y-73373400D01*
X201324800Y-73373400D01*
X201324800Y-74102399D01*
X200816799Y-74102399D01*
X200816800Y-74102398D01*
X200816800Y-72865400D01*
X201324800Y-72865400D01*
X201978799Y-72865400D01*
X201978799Y-72787178D01*
X201972318Y-72715846D01*
X201921166Y-72551693D01*
X201832221Y-72404559D01*
X201832213Y-72404549D01*
X201710650Y-72282986D01*
X201710640Y-72282978D01*
X201563506Y-72194033D01*
X201399352Y-72142881D01*
X201328023Y-72136400D01*
X201324800Y-72136400D01*
X201324800Y-72865400D01*
X200816800Y-72865400D01*
X200816800Y-72136400D01*
X200813568Y-72136401D01*
X200742246Y-72142881D01*
X200578093Y-72194033D01*
X200430959Y-72282978D01*
X200430949Y-72282986D01*
X200309386Y-72404549D01*
X200309376Y-72404562D01*
X200230653Y-72534787D01*
X200210377Y-72553354D01*
X200192727Y-72574434D01*
X200184584Y-72576974D01*
X200178295Y-72582735D01*
X200151199Y-72587393D01*
X200124954Y-72595584D01*
X200116731Y-72593319D01*
X200108325Y-72594765D01*
X200083012Y-72584035D01*
X200056505Y-72576736D01*
X200048493Y-72569402D01*
X200042958Y-72567056D01*
X200029009Y-72553712D01*
X200025293Y-72549567D01*
X199978346Y-72486854D01*
X199950132Y-72465733D01*
X199941809Y-72456449D01*
X199931672Y-72435210D01*
X199917569Y-72416371D01*
X199916668Y-72403774D01*
X199911228Y-72392376D01*
X199914183Y-72369026D01*
X199912505Y-72345555D01*
X199919217Y-72324120D01*
X199919380Y-72323728D01*
X199946300Y-72188393D01*
X199946300Y-72050407D01*
X199919380Y-71915072D01*
X199866575Y-71787589D01*
X199789914Y-71672858D01*
X199789909Y-71672852D01*
X199692347Y-71575290D01*
X199692341Y-71575285D01*
X199641001Y-71540981D01*
X199577611Y-71498625D01*
X199497221Y-71465326D01*
X199450131Y-71445821D01*
X199450128Y-71445820D01*
X199314795Y-71418900D01*
X199314793Y-71418900D01*
X199176807Y-71418900D01*
X199176804Y-71418900D01*
X199041471Y-71445820D01*
X199041468Y-71445821D01*
X198913989Y-71498625D01*
X198799258Y-71575285D01*
X198799252Y-71575290D01*
X198701690Y-71672852D01*
X198701685Y-71672858D01*
X198625025Y-71787589D01*
X198572221Y-71915068D01*
X198572220Y-71915071D01*
X198545300Y-72050404D01*
X197149298Y-72050404D01*
X197112726Y-71995670D01*
X197112721Y-71995664D01*
X197015159Y-71898102D01*
X197015153Y-71898097D01*
X196955800Y-71858439D01*
X196900423Y-71821437D01*
X196807594Y-71782986D01*
X196772943Y-71768633D01*
X196772940Y-71768632D01*
X196637607Y-71741712D01*
X196637605Y-71741712D01*
X196499619Y-71741712D01*
X196499616Y-71741712D01*
X196439577Y-71753655D01*
X196405315Y-71750589D01*
X196370963Y-71748132D01*
X196370026Y-71747431D01*
X196368863Y-71747327D01*
X196341676Y-71726208D01*
X196314127Y-71705585D01*
X196313718Y-71704490D01*
X196312795Y-71703773D01*
X196301344Y-71671315D01*
X196289316Y-71639065D01*
X196289564Y-71637921D01*
X196289176Y-71636820D01*
X196297085Y-71603349D01*
X196304407Y-71569691D01*
X196305330Y-71568457D01*
X196305503Y-71567727D01*
X196325896Y-71540985D01*
X196450721Y-71416160D01*
X196450731Y-71416153D01*
X196531227Y-71335657D01*
X196531233Y-71335651D01*
X196580827Y-71249752D01*
X196606499Y-71153944D01*
X196606499Y-71054758D01*
X196606499Y-71047041D01*
X196606498Y-71047023D01*
X196606498Y-70105714D01*
X196626500Y-70037593D01*
X196646753Y-70013390D01*
X196654127Y-70006540D01*
X196676340Y-69991699D01*
X196773912Y-69894127D01*
X196850573Y-69779396D01*
X196903378Y-69651913D01*
X196930298Y-69516578D01*
X196930298Y-69378592D01*
X196903378Y-69243257D01*
X196903375Y-69243249D01*
X196899157Y-69233065D01*
X196882605Y-69193107D01*
X199876300Y-69193107D01*
X199876300Y-69345693D01*
X199905207Y-69453574D01*
X199915792Y-69493077D01*
X199915794Y-69493082D01*
X199992082Y-69625217D01*
X199992090Y-69625227D01*
X200099972Y-69733109D01*
X200099977Y-69733113D01*
X200099979Y-69733115D01*
X200232122Y-69809408D01*
X200379507Y-69848900D01*
X200379510Y-69848900D01*
X200532090Y-69848900D01*
X200532093Y-69848900D01*
X200679478Y-69809408D01*
X200811621Y-69733115D01*
X200919515Y-69625221D01*
X200929227Y-69608398D01*
X200980610Y-69559406D01*
X201038346Y-69545400D01*
X201585800Y-69545400D01*
X201585800Y-70053400D01*
X200877800Y-70053400D01*
X200877800Y-70448681D01*
X200916537Y-70643423D01*
X200916539Y-70643428D01*
X200992522Y-70826866D01*
X201102832Y-70991957D01*
X201102837Y-70991964D01*
X201243235Y-71132362D01*
X201243242Y-71132367D01*
X201408333Y-71242677D01*
X201591771Y-71318660D01*
X201591776Y-71318662D01*
X201631799Y-71326623D01*
X201631800Y-71326623D01*
X201631800Y-70509460D01*
X201645740Y-70533605D01*
X201701595Y-70589460D01*
X201770004Y-70628956D01*
X201846304Y-70649400D01*
X201925296Y-70649400D01*
X202001596Y-70628956D01*
X202070005Y-70589460D01*
X202125860Y-70533605D01*
X202139800Y-70509460D01*
X202139800Y-71326623D01*
X202179823Y-71318662D01*
X202179828Y-71318660D01*
X202363266Y-71242677D01*
X202528357Y-71132367D01*
X202528364Y-71132362D01*
X202668762Y-70991964D01*
X202668767Y-70991957D01*
X202779077Y-70826866D01*
X202855060Y-70643428D01*
X202855062Y-70643423D01*
X202893799Y-70448681D01*
X202893800Y-70448677D01*
X202893800Y-70053400D01*
X202185800Y-70053400D01*
X202185800Y-69545400D01*
X202893800Y-69545400D01*
X202893800Y-69150122D01*
X202893799Y-69150118D01*
X202855062Y-68955376D01*
X202855060Y-68955371D01*
X202779077Y-68771933D01*
X202668767Y-68606842D01*
X202668762Y-68606835D01*
X202528364Y-68466437D01*
X202528357Y-68466432D01*
X202363267Y-68356122D01*
X202179820Y-68280136D01*
X202179815Y-68280135D01*
X202139800Y-68272174D01*
X202139800Y-69089339D01*
X202125860Y-69065195D01*
X202070005Y-69009340D01*
X202001596Y-68969844D01*
X201925296Y-68949400D01*
X201846304Y-68949400D01*
X201770004Y-68969844D01*
X201701595Y-69009340D01*
X201645740Y-69065195D01*
X201631800Y-69089339D01*
X201631800Y-68272175D01*
X201631799Y-68272174D01*
X201591784Y-68280135D01*
X201591779Y-68280136D01*
X201408332Y-68356122D01*
X201243242Y-68466432D01*
X201243235Y-68466437D01*
X201102837Y-68606835D01*
X201102831Y-68606842D01*
X200991039Y-68774151D01*
X200936562Y-68819679D01*
X200866119Y-68828526D01*
X200819572Y-68808429D01*
X200818773Y-68809814D01*
X200679482Y-68729394D01*
X200679480Y-68729393D01*
X200679478Y-68729392D01*
X200532093Y-68689900D01*
X200379507Y-68689900D01*
X200261180Y-68721606D01*
X200232122Y-68729392D01*
X200232117Y-68729394D01*
X200099982Y-68805682D01*
X200099972Y-68805690D01*
X199992090Y-68913572D01*
X199992082Y-68913582D01*
X199915794Y-69045717D01*
X199915792Y-69045722D01*
X199876300Y-69193107D01*
X196882605Y-69193107D01*
X196864800Y-69150122D01*
X196850573Y-69115774D01*
X196773912Y-69001043D01*
X196773907Y-69001037D01*
X196676345Y-68903475D01*
X196676339Y-68903470D01*
X196598024Y-68851142D01*
X196561609Y-68826810D01*
X196481219Y-68793511D01*
X196434129Y-68774006D01*
X196434126Y-68774005D01*
X196298793Y-68747085D01*
X196298791Y-68747085D01*
X196160805Y-68747085D01*
X196160802Y-68747085D01*
X196025469Y-68774005D01*
X196025466Y-68774006D01*
X195897987Y-68826810D01*
X195783256Y-68903470D01*
X195783250Y-68903475D01*
X195685688Y-69001037D01*
X195685683Y-69001043D01*
X195609023Y-69115774D01*
X195556219Y-69243253D01*
X195556218Y-69243256D01*
X195529298Y-69378589D01*
X195529298Y-69516580D01*
X195550908Y-69625217D01*
X195556218Y-69651913D01*
X195609023Y-69779396D01*
X195685684Y-69894127D01*
X195783256Y-69991699D01*
X195783259Y-69991701D01*
X195783261Y-69991703D01*
X195797098Y-70000948D01*
X195842627Y-70055424D01*
X195853098Y-70105714D01*
X195853098Y-70896125D01*
X195833096Y-70964246D01*
X195816193Y-70985221D01*
X194986661Y-71814752D01*
X194924349Y-71848777D01*
X194884096Y-71850934D01*
X194818674Y-71843900D01*
X194322935Y-71843900D01*
X194322914Y-71843902D01*
X194263319Y-71850308D01*
X194263318Y-71850308D01*
X194128473Y-71900601D01*
X194128470Y-71900603D01*
X194013253Y-71986854D01*
X193969641Y-72045112D01*
X193912805Y-72087658D01*
X193841989Y-72092722D01*
X193779677Y-72058696D01*
X193760945Y-72034786D01*
X193682221Y-71904559D01*
X193682213Y-71904549D01*
X193560650Y-71782986D01*
X193560640Y-71782978D01*
X193413506Y-71694033D01*
X193249352Y-71642881D01*
X193178023Y-71636400D01*
X193174800Y-71636400D01*
X193174800Y-73602399D01*
X193178022Y-73602399D01*
X193249353Y-73595918D01*
X193413506Y-73544766D01*
X193560640Y-73455821D01*
X193560650Y-73455813D01*
X193682213Y-73334250D01*
X193682221Y-73334240D01*
X193760945Y-73204013D01*
X193813303Y-73156064D01*
X193883273Y-73144034D01*
X193948640Y-73171742D01*
X193969638Y-73193683D01*
X194013254Y-73251946D01*
X194128469Y-73338196D01*
X194128471Y-73338196D01*
X194128473Y-73338198D01*
X194188830Y-73360709D01*
X194263314Y-73388490D01*
X194263317Y-73388491D01*
X194322927Y-73394900D01*
X194818672Y-73394899D01*
X194878283Y-73388491D01*
X195013131Y-73338196D01*
X195128346Y-73251946D01*
X195214596Y-73136731D01*
X195264891Y-73001883D01*
X195271300Y-72942273D01*
X195271299Y-72647771D01*
X195291301Y-72579652D01*
X195308199Y-72558682D01*
X195667383Y-72199498D01*
X195729693Y-72165474D01*
X195800508Y-72170539D01*
X195857344Y-72213086D01*
X195882155Y-72279606D01*
X195880055Y-72313177D01*
X195868112Y-72373216D01*
X195868112Y-72511207D01*
X195895032Y-72646540D01*
X195895034Y-72646547D01*
X195937923Y-72750091D01*
X195945512Y-72820680D01*
X195913732Y-72884167D01*
X195910609Y-72887403D01*
X170532755Y-98265256D01*
X170470443Y-98299282D01*
X170399628Y-98294217D01*
X170342792Y-98251670D01*
X170338895Y-98246163D01*
X170289914Y-98172858D01*
X170289909Y-98172852D01*
X170192347Y-98075290D01*
X170192341Y-98075285D01*
X170154271Y-98049847D01*
X170077611Y-97998625D01*
X169969406Y-97953805D01*
X169950131Y-97945821D01*
X169950128Y-97945820D01*
X169814795Y-97918900D01*
X169814793Y-97918900D01*
X169791869Y-97918900D01*
X169723748Y-97898898D01*
X169702778Y-97881999D01*
X169047281Y-97226502D01*
X169047279Y-97226501D01*
X169047277Y-97226499D01*
X168935323Y-97161863D01*
X168935321Y-97161862D01*
X168935319Y-97161861D01*
X168810442Y-97128400D01*
X168810441Y-97128400D01*
X168810439Y-97128400D01*
X147001369Y-97128400D01*
X146933248Y-97108398D01*
X146912274Y-97091495D01*
X138773705Y-88952926D01*
X138739679Y-88890614D01*
X138736800Y-88863831D01*
X138736800Y-79587607D01*
X139693213Y-79587607D01*
X139693213Y-79924618D01*
X139730946Y-80259511D01*
X139775303Y-80453850D01*
X139805937Y-80588067D01*
X139805939Y-80588073D01*
X139805938Y-80588073D01*
X139917237Y-80906146D01*
X139917248Y-80906173D01*
X140063464Y-81209794D01*
X140063469Y-81209803D01*
X140242764Y-81495149D01*
X140452890Y-81758639D01*
X140691186Y-81996935D01*
X140954676Y-82207061D01*
X141240022Y-82386356D01*
X141240027Y-82386359D01*
X141543662Y-82532582D01*
X141543678Y-82532587D01*
X141543679Y-82532588D01*
X141861752Y-82643887D01*
X141861755Y-82643887D01*
X141861759Y-82643889D01*
X142104952Y-82699395D01*
X142190314Y-82718879D01*
X142190315Y-82718879D01*
X142190319Y-82718880D01*
X142411205Y-82743767D01*
X142525207Y-82756613D01*
X142525209Y-82756613D01*
X142862219Y-82756613D01*
X142959638Y-82745636D01*
X143197107Y-82718880D01*
X143525667Y-82643889D01*
X143843764Y-82532582D01*
X144147399Y-82386359D01*
X144432752Y-82207059D01*
X144696236Y-81996938D01*
X144934538Y-81758636D01*
X145144659Y-81495152D01*
X145323959Y-81209799D01*
X145470182Y-80906164D01*
X145581489Y-80588067D01*
X145656480Y-80259507D01*
X145694213Y-79924617D01*
X145694213Y-79600894D01*
X149215300Y-79600894D01*
X149215300Y-79937905D01*
X149253033Y-80272798D01*
X149297390Y-80467137D01*
X149328024Y-80601354D01*
X149328026Y-80601360D01*
X149328025Y-80601360D01*
X149439324Y-80919433D01*
X149439335Y-80919460D01*
X149585551Y-81223081D01*
X149585556Y-81223090D01*
X149764851Y-81508436D01*
X149974977Y-81771926D01*
X150213273Y-82010222D01*
X150476763Y-82220348D01*
X150740963Y-82386356D01*
X150762114Y-82399646D01*
X151065749Y-82545869D01*
X151065765Y-82545874D01*
X151065766Y-82545875D01*
X151383839Y-82657174D01*
X151383842Y-82657174D01*
X151383846Y-82657176D01*
X151627039Y-82712682D01*
X151712401Y-82732166D01*
X151712402Y-82732166D01*
X151712406Y-82732167D01*
X151933292Y-82757054D01*
X152047294Y-82769900D01*
X152047296Y-82769900D01*
X152384306Y-82769900D01*
X152481725Y-82758923D01*
X152719194Y-82732167D01*
X153047754Y-82657176D01*
X153365851Y-82545869D01*
X153669486Y-82399646D01*
X153954839Y-82220346D01*
X154218323Y-82010225D01*
X154456625Y-81771923D01*
X154666746Y-81508439D01*
X154846046Y-81223086D01*
X154992269Y-80919451D01*
X155103576Y-80601354D01*
X155178567Y-80272794D01*
X155216300Y-79937904D01*
X155216300Y-79600896D01*
X155178567Y-79266006D01*
X155103576Y-78937446D01*
X155098924Y-78924152D01*
X154992275Y-78619366D01*
X154992274Y-78619365D01*
X154992269Y-78619349D01*
X154846046Y-78315714D01*
X154837694Y-78302422D01*
X154666748Y-78030363D01*
X154456622Y-77766873D01*
X154218326Y-77528577D01*
X153954836Y-77318451D01*
X153669490Y-77139156D01*
X153669481Y-77139151D01*
X153365860Y-76992935D01*
X153365855Y-76992933D01*
X153365851Y-76992931D01*
X153365845Y-76992928D01*
X153365833Y-76992924D01*
X153047760Y-76881625D01*
X152719198Y-76806633D01*
X152384306Y-76768900D01*
X152384304Y-76768900D01*
X152047296Y-76768900D01*
X152047294Y-76768900D01*
X151712401Y-76806633D01*
X151383839Y-76881625D01*
X151065766Y-76992924D01*
X151065739Y-76992935D01*
X150762118Y-77139151D01*
X150762109Y-77139156D01*
X150476763Y-77318451D01*
X150213273Y-77528577D01*
X149974977Y-77766873D01*
X149764851Y-78030363D01*
X149585556Y-78315709D01*
X149585551Y-78315718D01*
X149439335Y-78619339D01*
X149439324Y-78619366D01*
X149328025Y-78937439D01*
X149253033Y-79266001D01*
X149215300Y-79600894D01*
X145694213Y-79600894D01*
X145694213Y-79587609D01*
X145656480Y-79252719D01*
X145581489Y-78924159D01*
X145470182Y-78606062D01*
X145323959Y-78302427D01*
X145323956Y-78302422D01*
X145144661Y-78017076D01*
X144934535Y-77753586D01*
X144696239Y-77515290D01*
X144432749Y-77305164D01*
X144147403Y-77125869D01*
X144147394Y-77125864D01*
X143843773Y-76979648D01*
X143843768Y-76979646D01*
X143843764Y-76979644D01*
X143843758Y-76979641D01*
X143843746Y-76979637D01*
X143525673Y-76868338D01*
X143197111Y-76793346D01*
X142862219Y-76755613D01*
X142862217Y-76755613D01*
X142525209Y-76755613D01*
X142525207Y-76755613D01*
X142190314Y-76793346D01*
X141861752Y-76868338D01*
X141543679Y-76979637D01*
X141543652Y-76979648D01*
X141240031Y-77125864D01*
X141240022Y-77125869D01*
X140954676Y-77305164D01*
X140691186Y-77515290D01*
X140452890Y-77753586D01*
X140242764Y-78017076D01*
X140063469Y-78302422D01*
X140063464Y-78302431D01*
X139917248Y-78606052D01*
X139917237Y-78606079D01*
X139805938Y-78924152D01*
X139730946Y-79252714D01*
X139693213Y-79587607D01*
X138736800Y-79587607D01*
X138736800Y-71699967D01*
X138756802Y-71631846D01*
X138773701Y-71610876D01*
X139677773Y-70706803D01*
X139740085Y-70672778D01*
X139766868Y-70669899D01*
X141065660Y-70669899D01*
X141065664Y-70669899D01*
X141090791Y-70666985D01*
X141193565Y-70621606D01*
X141273006Y-70542165D01*
X141318385Y-70439391D01*
X141321300Y-70414265D01*
X141321299Y-70305070D01*
X141341300Y-70236953D01*
X141394956Y-70190460D01*
X141465230Y-70180355D01*
X141529811Y-70209848D01*
X141549235Y-70231011D01*
X141674981Y-70404083D01*
X141826120Y-70555222D01*
X141999049Y-70680863D01*
X142189507Y-70777906D01*
X142189513Y-70777909D01*
X142392798Y-70843960D01*
X142456800Y-70854096D01*
X142456800Y-69950102D01*
X142517807Y-69985325D01*
X142644974Y-70019400D01*
X142776626Y-70019400D01*
X142903793Y-69985325D01*
X142964800Y-69950102D01*
X142964800Y-70854096D01*
X143028801Y-70843960D01*
X143232086Y-70777909D01*
X143232092Y-70777906D01*
X143422550Y-70680863D01*
X143595479Y-70555222D01*
X143746622Y-70404079D01*
X143872263Y-70231150D01*
X143969306Y-70040692D01*
X143969309Y-70040686D01*
X143998485Y-69950894D01*
X147275300Y-69950894D01*
X147275300Y-70287905D01*
X147313033Y-70622798D01*
X147350843Y-70788451D01*
X147388024Y-70951354D01*
X147388026Y-70951360D01*
X147388025Y-70951360D01*
X147499324Y-71269433D01*
X147499335Y-71269460D01*
X147645551Y-71573081D01*
X147645556Y-71573090D01*
X147824851Y-71858436D01*
X148034977Y-72121926D01*
X148273273Y-72360222D01*
X148536763Y-72570348D01*
X148822109Y-72749643D01*
X148822114Y-72749646D01*
X149125749Y-72895869D01*
X149125765Y-72895874D01*
X149125766Y-72895875D01*
X149443839Y-73007174D01*
X149443842Y-73007174D01*
X149443846Y-73007176D01*
X149603870Y-73043700D01*
X149772401Y-73082166D01*
X149772402Y-73082166D01*
X149772406Y-73082167D01*
X149993292Y-73107054D01*
X150107294Y-73119900D01*
X150107296Y-73119900D01*
X150444306Y-73119900D01*
X150541725Y-73108923D01*
X150779194Y-73082167D01*
X150828585Y-73070894D01*
X162835300Y-73070894D01*
X162835300Y-73407905D01*
X162873033Y-73742798D01*
X162907750Y-73894900D01*
X162948024Y-74071354D01*
X162948026Y-74071360D01*
X162948025Y-74071360D01*
X163059324Y-74389433D01*
X163059335Y-74389460D01*
X163205551Y-74693081D01*
X163205556Y-74693090D01*
X163384851Y-74978436D01*
X163594977Y-75241926D01*
X163833273Y-75480222D01*
X164096763Y-75690348D01*
X164382109Y-75869643D01*
X164382114Y-75869646D01*
X164685749Y-76015869D01*
X164685765Y-76015874D01*
X164685766Y-76015875D01*
X165003839Y-76127174D01*
X165003842Y-76127174D01*
X165003846Y-76127176D01*
X165247039Y-76182682D01*
X165332401Y-76202166D01*
X165332402Y-76202166D01*
X165332406Y-76202167D01*
X165553292Y-76227054D01*
X165667294Y-76239900D01*
X165667296Y-76239900D01*
X166004306Y-76239900D01*
X166101725Y-76228923D01*
X166339194Y-76202167D01*
X166667754Y-76127176D01*
X166985851Y-76015869D01*
X167289486Y-75869646D01*
X167574839Y-75690346D01*
X167838323Y-75480225D01*
X168076625Y-75241923D01*
X168286746Y-74978439D01*
X168466046Y-74693086D01*
X168612269Y-74389451D01*
X168723576Y-74071354D01*
X168798567Y-73742794D01*
X168836300Y-73407904D01*
X168836300Y-73070896D01*
X168822861Y-72951621D01*
X192012801Y-72951621D01*
X192019281Y-73022953D01*
X192070433Y-73187106D01*
X192159378Y-73334240D01*
X192159386Y-73334250D01*
X192280949Y-73455813D01*
X192280959Y-73455821D01*
X192428093Y-73544766D01*
X192592246Y-73595918D01*
X192663581Y-73602399D01*
X192666799Y-73602399D01*
X192666800Y-73602398D01*
X192666800Y-72873400D01*
X192012801Y-72873400D01*
X192012801Y-72951621D01*
X168822861Y-72951621D01*
X168798567Y-72736006D01*
X168723576Y-72407446D01*
X168681492Y-72287177D01*
X192012800Y-72287177D01*
X192012800Y-72365400D01*
X192666800Y-72365400D01*
X192666800Y-71636400D01*
X192663568Y-71636401D01*
X192592246Y-71642881D01*
X192428093Y-71694033D01*
X192280959Y-71782978D01*
X192280949Y-71782986D01*
X192159386Y-71904549D01*
X192159378Y-71904559D01*
X192070433Y-72051693D01*
X192019281Y-72215846D01*
X192019281Y-72215847D01*
X192012800Y-72287177D01*
X168681492Y-72287177D01*
X168612269Y-72089349D01*
X168466046Y-71785714D01*
X168445902Y-71753655D01*
X168286748Y-71500363D01*
X168076622Y-71236873D01*
X167838326Y-70998577D01*
X167574836Y-70788451D01*
X167289490Y-70609156D01*
X167289481Y-70609151D01*
X166985860Y-70462935D01*
X166985855Y-70462933D01*
X166985851Y-70462931D01*
X166985845Y-70462928D01*
X166985833Y-70462924D01*
X166667760Y-70351625D01*
X166339198Y-70276633D01*
X166004306Y-70238900D01*
X166004304Y-70238900D01*
X165667296Y-70238900D01*
X165667294Y-70238900D01*
X165332401Y-70276633D01*
X165003839Y-70351625D01*
X164685766Y-70462924D01*
X164685739Y-70462935D01*
X164382118Y-70609151D01*
X164382109Y-70609156D01*
X164096763Y-70788451D01*
X163833273Y-70998577D01*
X163594977Y-71236873D01*
X163384851Y-71500363D01*
X163205556Y-71785709D01*
X163205551Y-71785718D01*
X163059335Y-72089339D01*
X163059324Y-72089366D01*
X162948025Y-72407439D01*
X162873033Y-72736001D01*
X162835300Y-73070894D01*
X150828585Y-73070894D01*
X151107754Y-73007176D01*
X151122881Y-73001883D01*
X151275636Y-72948432D01*
X151367993Y-72916114D01*
X151425851Y-72895869D01*
X151729486Y-72749646D01*
X152002803Y-72577909D01*
X152014836Y-72570348D01*
X152014839Y-72570346D01*
X152278323Y-72360225D01*
X152516625Y-72121923D01*
X152726746Y-71858439D01*
X152731855Y-71850309D01*
X152774156Y-71782986D01*
X152906046Y-71573086D01*
X153052269Y-71269451D01*
X153163576Y-70951354D01*
X153238567Y-70622794D01*
X153275316Y-70296634D01*
X153276300Y-70287905D01*
X153276300Y-69950894D01*
X153260358Y-69809405D01*
X153238567Y-69616006D01*
X153163576Y-69287446D01*
X153157652Y-69270517D01*
X153127920Y-69185546D01*
X153115523Y-69150118D01*
X192237800Y-69150118D01*
X192237800Y-69545400D01*
X192945800Y-69545400D01*
X192945800Y-70053400D01*
X192237800Y-70053400D01*
X192237800Y-70448681D01*
X192276537Y-70643423D01*
X192276539Y-70643428D01*
X192352522Y-70826866D01*
X192462832Y-70991957D01*
X192462837Y-70991964D01*
X192603235Y-71132362D01*
X192603242Y-71132367D01*
X192768333Y-71242677D01*
X192951771Y-71318660D01*
X192951776Y-71318662D01*
X192991799Y-71326623D01*
X192991800Y-71326623D01*
X192991800Y-70509460D01*
X193005740Y-70533605D01*
X193061595Y-70589460D01*
X193130004Y-70628956D01*
X193206304Y-70649400D01*
X193285296Y-70649400D01*
X193361596Y-70628956D01*
X193430005Y-70589460D01*
X193485860Y-70533605D01*
X193499800Y-70509460D01*
X193499800Y-71326623D01*
X193539823Y-71318662D01*
X193539828Y-71318660D01*
X193723266Y-71242677D01*
X193888357Y-71132367D01*
X193888364Y-71132362D01*
X194028762Y-70991964D01*
X194028767Y-70991957D01*
X194139077Y-70826866D01*
X194215060Y-70643428D01*
X194215062Y-70643423D01*
X194253799Y-70448681D01*
X194253800Y-70448677D01*
X194253800Y-70053400D01*
X193545800Y-70053400D01*
X193545800Y-69545400D01*
X194093254Y-69545400D01*
X194161375Y-69565402D01*
X194202373Y-69608399D01*
X194212084Y-69625220D01*
X194212090Y-69625227D01*
X194319972Y-69733109D01*
X194319977Y-69733113D01*
X194319979Y-69733115D01*
X194452122Y-69809408D01*
X194599507Y-69848900D01*
X194599510Y-69848900D01*
X194752090Y-69848900D01*
X194752093Y-69848900D01*
X194899478Y-69809408D01*
X195031621Y-69733115D01*
X195139515Y-69625221D01*
X195215808Y-69493078D01*
X195255300Y-69345693D01*
X195255300Y-69193107D01*
X195215808Y-69045722D01*
X195193141Y-69006462D01*
X195139517Y-68913582D01*
X195139509Y-68913572D01*
X195031627Y-68805690D01*
X195031617Y-68805682D01*
X194899482Y-68729394D01*
X194899480Y-68729393D01*
X194899478Y-68729392D01*
X194752093Y-68689900D01*
X194599507Y-68689900D01*
X194481180Y-68721606D01*
X194452122Y-68729392D01*
X194452117Y-68729394D01*
X194312827Y-68809814D01*
X194311815Y-68808062D01*
X194255800Y-68829713D01*
X194186252Y-68815443D01*
X194140560Y-68774151D01*
X194028767Y-68606842D01*
X194028762Y-68606835D01*
X193888364Y-68466437D01*
X193888357Y-68466432D01*
X193723267Y-68356122D01*
X193539820Y-68280136D01*
X193539815Y-68280135D01*
X193499800Y-68272174D01*
X193499800Y-69089339D01*
X193485860Y-69065195D01*
X193430005Y-69009340D01*
X193361596Y-68969844D01*
X193285296Y-68949400D01*
X193206304Y-68949400D01*
X193130004Y-68969844D01*
X193061595Y-69009340D01*
X193005740Y-69065195D01*
X192991800Y-69089339D01*
X192991800Y-68272175D01*
X192991799Y-68272174D01*
X192951784Y-68280135D01*
X192951779Y-68280136D01*
X192768332Y-68356122D01*
X192603242Y-68466432D01*
X192603235Y-68466437D01*
X192462837Y-68606835D01*
X192462832Y-68606842D01*
X192352522Y-68771933D01*
X192276539Y-68955371D01*
X192276537Y-68955376D01*
X192237800Y-69150118D01*
X153115523Y-69150118D01*
X153052275Y-68969366D01*
X153052274Y-68969365D01*
X153052269Y-68969349D01*
X152906046Y-68665714D01*
X152906043Y-68665709D01*
X152726748Y-68380363D01*
X152516622Y-68116873D01*
X152278326Y-67878577D01*
X152014836Y-67668451D01*
X151729490Y-67489156D01*
X151729481Y-67489151D01*
X151425860Y-67342935D01*
X151425855Y-67342933D01*
X151425851Y-67342931D01*
X151425845Y-67342928D01*
X151425833Y-67342924D01*
X151107760Y-67231625D01*
X150779198Y-67156633D01*
X150444306Y-67118900D01*
X150444304Y-67118900D01*
X150107296Y-67118900D01*
X150107294Y-67118900D01*
X149772401Y-67156633D01*
X149443839Y-67231625D01*
X149125766Y-67342924D01*
X149125739Y-67342935D01*
X148822118Y-67489151D01*
X148822109Y-67489156D01*
X148536763Y-67668451D01*
X148273273Y-67878577D01*
X148034977Y-68116873D01*
X147824851Y-68380363D01*
X147645556Y-68665709D01*
X147645551Y-68665718D01*
X147499335Y-68969339D01*
X147499324Y-68969366D01*
X147388025Y-69287439D01*
X147313033Y-69616001D01*
X147275300Y-69950894D01*
X143998485Y-69950894D01*
X144012284Y-69908425D01*
X144012284Y-69908424D01*
X144035359Y-69837406D01*
X144045498Y-69773400D01*
X143141503Y-69773400D01*
X143176725Y-69712393D01*
X143210800Y-69585226D01*
X143210800Y-69453574D01*
X143176725Y-69326407D01*
X143141503Y-69265400D01*
X144045497Y-69265400D01*
X144035359Y-69201395D01*
X143969309Y-68998113D01*
X143969306Y-68998107D01*
X143872263Y-68807649D01*
X143746622Y-68634720D01*
X143595479Y-68483577D01*
X143422550Y-68357936D01*
X143232092Y-68260893D01*
X143232086Y-68260890D01*
X143028804Y-68194840D01*
X142964800Y-68184702D01*
X142964800Y-69088697D01*
X142903793Y-69053475D01*
X142776626Y-69019400D01*
X142644974Y-69019400D01*
X142517807Y-69053475D01*
X142456800Y-69088697D01*
X142456800Y-68184702D01*
X142392795Y-68194840D01*
X142189513Y-68260890D01*
X142189507Y-68260893D01*
X141999049Y-68357936D01*
X141826120Y-68483577D01*
X141674981Y-68634716D01*
X141549235Y-68807789D01*
X141493012Y-68851142D01*
X141422276Y-68857217D01*
X141359484Y-68824085D01*
X141324573Y-68762265D01*
X141321299Y-68733727D01*
X141321299Y-68624540D01*
X141321299Y-68624536D01*
X141318385Y-68599409D01*
X141280790Y-68514264D01*
X141273006Y-68496634D01*
X141193567Y-68417195D01*
X141193565Y-68417194D01*
X141090789Y-68371814D01*
X141090790Y-68371814D01*
X141065668Y-68368900D01*
X139275940Y-68368900D01*
X139275933Y-68368901D01*
X139250809Y-68371814D01*
X139250805Y-68371816D01*
X139148034Y-68417193D01*
X139068595Y-68496632D01*
X139068594Y-68496634D01*
X139023214Y-68599409D01*
X139020300Y-68624529D01*
X139020300Y-69923330D01*
X139000298Y-69991451D01*
X138983395Y-70012425D01*
X137852907Y-71142912D01*
X137852899Y-71142922D01*
X137788262Y-71254876D01*
X137755191Y-71378301D01*
X137755184Y-71378326D01*
X137754800Y-71379756D01*
X137754800Y-71379759D01*
X137754800Y-89054758D01*
X137754800Y-89184042D01*
X137788261Y-89308918D01*
X137788263Y-89308923D01*
X137852899Y-89420877D01*
X137852907Y-89420887D01*
X146352902Y-97920881D01*
X146385826Y-97953805D01*
X146419852Y-98016117D01*
X146414787Y-98086932D01*
X146372240Y-98143768D01*
X146305720Y-98168579D01*
X146296731Y-98168900D01*
X144984593Y-98168900D01*
X144916472Y-98148898D01*
X144895498Y-98131995D01*
X136733205Y-89969702D01*
X136699179Y-89907390D01*
X136696300Y-89880607D01*
X136696300Y-69385092D01*
X136694558Y-69378592D01*
X136670136Y-69287446D01*
X136665599Y-69270513D01*
X136649862Y-69243256D01*
X136606292Y-69167789D01*
X136606284Y-69167779D01*
X135608204Y-68169700D01*
X135574179Y-68107388D01*
X135571299Y-68080605D01*
X135571299Y-66724540D01*
X135571299Y-66724536D01*
X135568385Y-66699409D01*
X135523006Y-66596635D01*
X135523006Y-66596634D01*
X135443567Y-66517195D01*
X135443565Y-66517194D01*
X135340789Y-66471814D01*
X135340790Y-66471814D01*
X135315668Y-66468900D01*
X133525940Y-66468900D01*
X133525933Y-66468901D01*
X133500809Y-66471814D01*
X133500805Y-66471816D01*
X133398034Y-66517193D01*
X133318595Y-66596632D01*
X133318594Y-66596634D01*
X133273214Y-66699409D01*
X133270300Y-66724529D01*
X133270300Y-66833726D01*
X133250298Y-66901847D01*
X133196642Y-66948340D01*
X133126368Y-66958444D01*
X133061788Y-66928950D01*
X133042364Y-66907788D01*
X132916618Y-66734716D01*
X132765479Y-66583577D01*
X132592550Y-66457936D01*
X132402092Y-66360893D01*
X132402086Y-66360890D01*
X132198804Y-66294840D01*
X132134800Y-66284702D01*
X132134800Y-67188697D01*
X132073793Y-67153475D01*
X131946626Y-67119400D01*
X131814974Y-67119400D01*
X131687807Y-67153475D01*
X131626800Y-67188697D01*
X131626800Y-66284702D01*
X131562795Y-66294840D01*
X131359513Y-66360890D01*
X131359507Y-66360893D01*
X131169049Y-66457936D01*
X130996120Y-66583577D01*
X130844977Y-66734720D01*
X130719336Y-66907649D01*
X130622293Y-67098107D01*
X130622290Y-67098113D01*
X130556240Y-67301395D01*
X130546102Y-67365400D01*
X131450097Y-67365400D01*
X131414875Y-67426407D01*
X131380800Y-67553574D01*
X131380800Y-67685226D01*
X131414875Y-67812393D01*
X131450097Y-67873400D01*
X130546102Y-67873400D01*
X130556240Y-67937404D01*
X130622290Y-68140686D01*
X130622293Y-68140692D01*
X130719336Y-68331150D01*
X130844977Y-68504079D01*
X130996120Y-68655222D01*
X131169049Y-68780863D01*
X131359507Y-68877906D01*
X131359513Y-68877909D01*
X131562798Y-68943960D01*
X131626800Y-68954096D01*
X131626800Y-68050102D01*
X131687807Y-68085325D01*
X131814974Y-68119400D01*
X131946626Y-68119400D01*
X132073793Y-68085325D01*
X132134800Y-68050102D01*
X132134800Y-68954096D01*
X132198801Y-68943960D01*
X132402086Y-68877909D01*
X132402092Y-68877906D01*
X132592550Y-68780863D01*
X132765479Y-68655222D01*
X132916619Y-68504082D01*
X132916621Y-68504079D01*
X133042364Y-68331011D01*
X133098586Y-68287657D01*
X133169323Y-68281582D01*
X133232114Y-68314714D01*
X133267026Y-68376534D01*
X133270300Y-68405071D01*
X133270300Y-68514258D01*
X133270301Y-68514266D01*
X133273214Y-68539390D01*
X133273216Y-68539394D01*
X133318593Y-68642165D01*
X133398032Y-68721604D01*
X133398034Y-68721605D01*
X133398035Y-68721606D01*
X133500809Y-68766985D01*
X133525935Y-68769900D01*
X134882004Y-68769899D01*
X134950125Y-68789901D01*
X134971099Y-68806803D01*
X135758395Y-69594098D01*
X135792420Y-69656411D01*
X135795300Y-69683194D01*
X135795300Y-70316016D01*
X135775298Y-70384137D01*
X135721642Y-70430630D01*
X135651368Y-70440734D01*
X135586788Y-70411240D01*
X135554036Y-70366911D01*
X135547286Y-70351624D01*
X135523006Y-70296635D01*
X135523004Y-70296633D01*
X135523004Y-70296632D01*
X135443567Y-70217195D01*
X135443565Y-70217194D01*
X135340789Y-70171814D01*
X135340790Y-70171814D01*
X135315668Y-70168900D01*
X133525940Y-70168900D01*
X133525933Y-70168901D01*
X133500809Y-70171814D01*
X133500805Y-70171816D01*
X133398034Y-70217193D01*
X133318595Y-70296632D01*
X133318594Y-70296634D01*
X133273214Y-70399409D01*
X133270300Y-70424529D01*
X133270300Y-70533726D01*
X133250298Y-70601847D01*
X133196642Y-70648340D01*
X133126368Y-70658444D01*
X133061788Y-70628950D01*
X133042364Y-70607788D01*
X132916618Y-70434716D01*
X132765479Y-70283577D01*
X132592550Y-70157936D01*
X132402092Y-70060893D01*
X132402086Y-70060890D01*
X132198804Y-69994840D01*
X132134800Y-69984702D01*
X132134800Y-70888697D01*
X132073793Y-70853475D01*
X131946626Y-70819400D01*
X131814974Y-70819400D01*
X131687807Y-70853475D01*
X131626800Y-70888697D01*
X131626800Y-69984702D01*
X131562795Y-69994840D01*
X131359513Y-70060890D01*
X131359507Y-70060893D01*
X131169049Y-70157936D01*
X130996120Y-70283577D01*
X130844977Y-70434720D01*
X130719336Y-70607649D01*
X130622293Y-70798107D01*
X130622290Y-70798113D01*
X130556240Y-71001395D01*
X130546102Y-71065400D01*
X131450097Y-71065400D01*
X131414875Y-71126407D01*
X131380800Y-71253574D01*
X131380800Y-71385226D01*
X131414875Y-71512393D01*
X131450097Y-71573400D01*
X130546102Y-71573400D01*
X130556240Y-71637404D01*
X130622290Y-71840686D01*
X130622293Y-71840692D01*
X130719336Y-72031150D01*
X130844977Y-72204079D01*
X130996120Y-72355222D01*
X131169049Y-72480863D01*
X131359507Y-72577906D01*
X131359513Y-72577909D01*
X131562798Y-72643960D01*
X131626800Y-72654096D01*
X131626800Y-71750102D01*
X131687807Y-71785325D01*
X131814974Y-71819400D01*
X131946626Y-71819400D01*
X132073793Y-71785325D01*
X132134800Y-71750102D01*
X132134800Y-72654096D01*
X132198801Y-72643960D01*
X132402086Y-72577909D01*
X132402092Y-72577906D01*
X132592550Y-72480863D01*
X132765479Y-72355222D01*
X132916619Y-72204082D01*
X132916621Y-72204079D01*
X133042364Y-72031011D01*
X133098586Y-71987657D01*
X133169323Y-71981582D01*
X133232114Y-72014714D01*
X133267026Y-72076534D01*
X133270300Y-72105071D01*
X133270300Y-72214258D01*
X133270301Y-72214266D01*
X133273214Y-72239390D01*
X133273216Y-72239394D01*
X133318593Y-72342165D01*
X133398032Y-72421604D01*
X133398034Y-72421605D01*
X133398035Y-72421606D01*
X133500809Y-72466985D01*
X133500808Y-72466985D01*
X133505278Y-72467503D01*
X133525935Y-72469900D01*
X133844300Y-72469899D01*
X133912420Y-72489901D01*
X133958913Y-72543556D01*
X133970300Y-72595899D01*
X133970300Y-89353708D01*
X133988287Y-89420838D01*
X133988299Y-89420880D01*
X134001001Y-89468286D01*
X134001003Y-89468291D01*
X134060308Y-89571010D01*
X134060316Y-89571020D01*
X144469179Y-99979883D01*
X144469184Y-99979887D01*
X144469186Y-99979889D01*
X144571913Y-100039199D01*
X144585340Y-100042796D01*
X144596114Y-100045683D01*
X144596118Y-100045684D01*
X144596126Y-100045686D01*
X144686491Y-100069900D01*
X163007007Y-100069900D01*
X163075128Y-100089902D01*
X163096102Y-100106805D01*
X163651352Y-100662055D01*
X163685378Y-100724367D01*
X163680313Y-100795182D01*
X163678667Y-100799365D01*
X163654908Y-100856727D01*
X163654906Y-100856734D01*
X163620300Y-101030706D01*
X163620300Y-101030709D01*
X163620300Y-101208091D01*
X163654906Y-101382066D01*
X163722787Y-101545947D01*
X163725768Y-101550408D01*
X163821335Y-101693434D01*
X163821340Y-101693440D01*
X163946759Y-101818859D01*
X163946765Y-101818864D01*
X164094253Y-101917413D01*
X164258134Y-101985294D01*
X164311058Y-101995821D01*
X164373968Y-102028729D01*
X164409099Y-102090424D01*
X164405299Y-102161319D01*
X164363773Y-102218905D01*
X164311059Y-102242978D01*
X164279011Y-102249353D01*
X164258133Y-102253506D01*
X164258128Y-102253508D01*
X164094253Y-102321387D01*
X163946765Y-102419935D01*
X163946759Y-102419940D01*
X163821340Y-102545359D01*
X163821335Y-102545365D01*
X163722787Y-102692853D01*
X163654908Y-102856728D01*
X163654906Y-102856733D01*
X163620300Y-103030706D01*
X163620300Y-103030709D01*
X163620300Y-103208091D01*
X163654906Y-103382066D01*
X163722787Y-103545947D01*
X163745800Y-103580388D01*
X163821335Y-103693434D01*
X163821340Y-103693440D01*
X163946759Y-103818859D01*
X163946765Y-103818864D01*
X164094253Y-103917413D01*
X164258134Y-103985294D01*
X164311058Y-103995821D01*
X164373968Y-104028729D01*
X164409099Y-104090424D01*
X164405299Y-104161319D01*
X164363773Y-104218905D01*
X164311059Y-104242978D01*
X164279011Y-104249353D01*
X164258133Y-104253506D01*
X164258128Y-104253508D01*
X164094253Y-104321387D01*
X163946765Y-104419935D01*
X163946759Y-104419940D01*
X163821340Y-104545359D01*
X163821335Y-104545365D01*
X163784230Y-104600896D01*
X163759503Y-104637903D01*
X163705029Y-104683430D01*
X163654740Y-104693900D01*
X160801818Y-104693900D01*
X160689781Y-104693900D01*
X160631789Y-104709438D01*
X160581565Y-104722896D01*
X160581558Y-104722899D01*
X160484540Y-104778912D01*
X160484530Y-104778920D01*
X158606457Y-106656995D01*
X158544145Y-106691020D01*
X158517362Y-106693900D01*
X157863147Y-106693900D01*
X157795026Y-106673898D01*
X157774052Y-106656995D01*
X157692347Y-106575290D01*
X157692341Y-106575285D01*
X157631903Y-106534902D01*
X157577611Y-106498625D01*
X157494989Y-106464402D01*
X157450131Y-106445821D01*
X157450128Y-106445820D01*
X157314795Y-106418900D01*
X157314793Y-106418900D01*
X157176807Y-106418900D01*
X157176804Y-106418900D01*
X157041471Y-106445820D01*
X157041468Y-106445821D01*
X156913989Y-106498625D01*
X156799258Y-106575285D01*
X156799252Y-106575290D01*
X156701690Y-106672852D01*
X156701685Y-106672858D01*
X156625025Y-106787589D01*
X156572221Y-106915068D01*
X156572221Y-106915069D01*
X156572220Y-106915072D01*
X156564494Y-106953912D01*
X156547032Y-107041697D01*
X156514124Y-107104606D01*
X156452428Y-107139737D01*
X156381534Y-107135936D01*
X156334358Y-107106209D01*
X156182069Y-106953920D01*
X156182059Y-106953912D01*
X156085041Y-106897899D01*
X156085038Y-106897898D01*
X156085037Y-106897897D01*
X156085035Y-106897896D01*
X156085034Y-106897896D01*
X156056036Y-106890126D01*
X155976818Y-106868900D01*
X155976816Y-106868900D01*
X155622300Y-106868900D01*
X155613474Y-106866308D01*
X155604369Y-106867618D01*
X155579942Y-106856462D01*
X155554179Y-106848898D01*
X155548155Y-106841946D01*
X155539788Y-106838125D01*
X155525270Y-106815535D01*
X155507686Y-106795242D01*
X155505361Y-106784557D01*
X155501404Y-106778399D01*
X155496300Y-106742901D01*
X155496300Y-106683430D01*
X155496299Y-106613350D01*
X155516301Y-106545231D01*
X155524700Y-106534810D01*
X155524403Y-106534582D01*
X155626882Y-106401029D01*
X155626887Y-106401021D01*
X155688150Y-106253118D01*
X155695881Y-106194400D01*
X155321313Y-106194400D01*
X155264110Y-106180667D01*
X155221104Y-106158754D01*
X155127319Y-106143900D01*
X155127316Y-106143900D01*
X154534300Y-106143900D01*
X154466179Y-106123898D01*
X154458862Y-106118821D01*
X154258862Y-105969321D01*
X154240135Y-105944342D01*
X154219686Y-105920742D01*
X154218559Y-105915561D01*
X154216275Y-105912515D01*
X154215469Y-105901357D01*
X154208300Y-105868400D01*
X154208300Y-105794400D01*
X154608300Y-105794400D01*
X155695879Y-105794400D01*
X155688150Y-105735681D01*
X155688149Y-105735680D01*
X155626887Y-105587778D01*
X155626882Y-105587770D01*
X155529430Y-105460769D01*
X155402429Y-105363317D01*
X155402421Y-105363312D01*
X155254518Y-105302049D01*
X155135649Y-105286400D01*
X154608300Y-105286400D01*
X154608300Y-105794400D01*
X154208300Y-105794400D01*
X154208300Y-105286400D01*
X153680954Y-105286400D01*
X153680945Y-105286401D01*
X153562081Y-105302050D01*
X153562080Y-105302050D01*
X153414178Y-105363312D01*
X153414170Y-105363317D01*
X153287171Y-105460768D01*
X153217347Y-105551763D01*
X153160008Y-105593630D01*
X153089137Y-105597851D01*
X153069173Y-105591469D01*
X153066914Y-105590533D01*
X153066901Y-105590529D01*
X152920459Y-105561400D01*
X152771140Y-105561400D01*
X152624698Y-105590529D01*
X152624693Y-105590531D01*
X152515651Y-105635697D01*
X152933481Y-106053526D01*
X152967506Y-106115839D01*
X152962442Y-106186654D01*
X152933482Y-106231717D01*
X152916510Y-106248689D01*
X152902445Y-106234624D01*
X152865691Y-106219400D01*
X152825909Y-106219400D01*
X152789155Y-106234624D01*
X152761024Y-106262755D01*
X152745800Y-106299509D01*
X152745800Y-106339291D01*
X152761024Y-106376045D01*
X152789155Y-106404176D01*
X152825909Y-106419400D01*
X152865691Y-106419400D01*
X152902445Y-106404176D01*
X152916510Y-106390111D01*
X152933481Y-106407082D01*
X152967507Y-106469394D01*
X152962442Y-106540209D01*
X152933481Y-106585272D01*
X152549354Y-106969399D01*
X152933481Y-107353526D01*
X152967506Y-107415839D01*
X152962442Y-107486654D01*
X152933482Y-107531717D01*
X152916510Y-107548689D01*
X152902445Y-107534624D01*
X152865691Y-107519400D01*
X152825909Y-107519400D01*
X152789155Y-107534624D01*
X152761024Y-107562755D01*
X152745800Y-107599509D01*
X152745800Y-107639291D01*
X152761024Y-107676045D01*
X152789155Y-107704176D01*
X152825909Y-107719400D01*
X152865691Y-107719400D01*
X152902445Y-107704176D01*
X152916511Y-107690110D01*
X152933481Y-107707080D01*
X152967506Y-107769392D01*
X152962442Y-107840208D01*
X152933481Y-107885271D01*
X152515651Y-108303100D01*
X152515652Y-108303101D01*
X152624692Y-108348268D01*
X152624700Y-108348270D01*
X152771140Y-108377399D01*
X152771144Y-108377400D01*
X152920456Y-108377400D01*
X152920459Y-108377399D01*
X153066901Y-108348270D01*
X153066902Y-108348269D01*
X153204849Y-108291129D01*
X153236537Y-108269957D01*
X153264673Y-108261146D01*
X153291798Y-108249587D01*
X153298146Y-108250665D01*
X153304290Y-108248742D01*
X153332721Y-108256541D01*
X153361791Y-108261482D01*
X153368702Y-108266412D01*
X153372757Y-108267525D01*
X153391456Y-108281635D01*
X153393586Y-108283578D01*
X153482458Y-108372450D01*
X153501826Y-108382318D01*
X153514387Y-108393777D01*
X153524341Y-108410172D01*
X153538287Y-108423343D01*
X153542385Y-108439891D01*
X153551233Y-108454464D01*
X153550743Y-108473639D01*
X153555354Y-108492258D01*
X153553049Y-108511444D01*
X153545300Y-108550399D01*
X153545300Y-108550407D01*
X153545300Y-108688393D01*
X153572220Y-108823728D01*
X153625025Y-108951211D01*
X153644972Y-108981063D01*
X153701685Y-109065941D01*
X153701690Y-109065947D01*
X153799252Y-109163509D01*
X153799258Y-109163514D01*
X153913989Y-109240175D01*
X154041472Y-109292980D01*
X154176807Y-109319900D01*
X154176808Y-109319900D01*
X154199551Y-109319900D01*
X154267672Y-109339902D01*
X154314165Y-109393558D01*
X154324269Y-109463832D01*
X154294775Y-109528412D01*
X154288646Y-109534995D01*
X150017240Y-113806402D01*
X145884537Y-117939105D01*
X145851453Y-117972189D01*
X145805316Y-118018325D01*
X145805312Y-118018330D01*
X145749299Y-118115348D01*
X145749296Y-118115355D01*
X145720300Y-118223573D01*
X145720300Y-119616266D01*
X145700298Y-119684387D01*
X145683395Y-119705361D01*
X141129047Y-124259708D01*
X141066735Y-124293734D01*
X140995920Y-124288669D01*
X140939084Y-124246122D01*
X140935207Y-124240645D01*
X140889914Y-124172858D01*
X140889912Y-124172856D01*
X140889909Y-124172852D01*
X140792347Y-124075290D01*
X140792341Y-124075285D01*
X140750088Y-124047053D01*
X140677611Y-123998625D01*
X140558783Y-123949405D01*
X140550131Y-123945821D01*
X140550128Y-123945820D01*
X140414795Y-123918900D01*
X140414793Y-123918900D01*
X140276807Y-123918900D01*
X140276804Y-123918900D01*
X140141471Y-123945820D01*
X140141468Y-123945821D01*
X140013989Y-123998625D01*
X139899258Y-124075285D01*
X139899251Y-124075291D01*
X139881657Y-124092885D01*
X139819344Y-124126909D01*
X139748529Y-124121843D01*
X139692167Y-124079922D01*
X139613722Y-123976477D01*
X139493650Y-123885424D01*
X139451457Y-123828326D01*
X139446832Y-123757480D01*
X139481243Y-123695380D01*
X139530155Y-123665421D01*
X139543325Y-123661057D01*
X139694139Y-123568034D01*
X139694145Y-123568029D01*
X139819429Y-123442745D01*
X139819434Y-123442739D01*
X139912457Y-123291925D01*
X139968193Y-123123721D01*
X139968194Y-123123718D01*
X139978799Y-123019916D01*
X139978800Y-123019916D01*
X139978800Y-122973400D01*
X137512800Y-122973400D01*
X137512800Y-123019916D01*
X137523405Y-123123718D01*
X137523406Y-123123721D01*
X137579142Y-123291925D01*
X137672165Y-123442739D01*
X137672170Y-123442745D01*
X137797454Y-123568029D01*
X137797460Y-123568034D01*
X137948276Y-123661058D01*
X137961446Y-123665422D01*
X138019818Y-123705835D01*
X138047075Y-123771391D01*
X138034563Y-123841276D01*
X137997949Y-123885424D01*
X137877877Y-123976477D01*
X137788732Y-124094033D01*
X137731633Y-124136226D01*
X137688335Y-124143899D01*
X137340021Y-124143899D01*
X137271900Y-124123897D01*
X137225407Y-124070241D01*
X137215303Y-123999967D01*
X137219024Y-123982745D01*
X137250793Y-123873400D01*
X136209300Y-123873400D01*
X136141179Y-123853398D01*
X136094686Y-123799742D01*
X136083300Y-123747400D01*
X136083300Y-123491400D01*
X136103302Y-123423279D01*
X136156958Y-123376786D01*
X136209300Y-123365400D01*
X137250792Y-123365400D01*
X137204481Y-123205998D01*
X137119852Y-123062900D01*
X137077374Y-123020422D01*
X137043349Y-122958111D01*
X137043371Y-122911793D01*
X137042730Y-122911733D01*
X137043374Y-122904857D01*
X137043375Y-122904421D01*
X137043442Y-122904109D01*
X137043446Y-122904100D01*
X137046300Y-122873667D01*
X137046300Y-122465135D01*
X137043446Y-122434702D01*
X137037911Y-122418883D01*
X137512800Y-122418883D01*
X137512800Y-122465400D01*
X138491800Y-122465400D01*
X138999800Y-122465400D01*
X139978800Y-122465400D01*
X139978800Y-122418883D01*
X139968194Y-122315081D01*
X139968193Y-122315078D01*
X139912457Y-122146874D01*
X139819434Y-121996060D01*
X139819429Y-121996054D01*
X139694145Y-121870770D01*
X139694139Y-121870765D01*
X139543325Y-121777742D01*
X139375121Y-121722006D01*
X139375118Y-121722005D01*
X139271316Y-121711400D01*
X138999800Y-121711400D01*
X138999800Y-122465400D01*
X138491800Y-122465400D01*
X138491800Y-121711400D01*
X138220283Y-121711400D01*
X138116481Y-121722005D01*
X138116478Y-121722006D01*
X137948274Y-121777742D01*
X137797460Y-121870765D01*
X137797454Y-121870770D01*
X137672170Y-121996054D01*
X137672165Y-121996060D01*
X137579142Y-122146874D01*
X137523406Y-122315078D01*
X137523405Y-122315081D01*
X137512800Y-122418883D01*
X137037911Y-122418883D01*
X136998593Y-122306519D01*
X136998591Y-122306515D01*
X136917950Y-122197250D01*
X136808685Y-122116609D01*
X136808681Y-122116607D01*
X136680504Y-122071756D01*
X136680500Y-122071755D01*
X136650066Y-122068901D01*
X135516534Y-122068901D01*
X135516533Y-122068901D01*
X135486099Y-122071755D01*
X135486095Y-122071756D01*
X135357920Y-122116606D01*
X135357914Y-122116609D01*
X135351800Y-122121122D01*
X135285111Y-122145477D01*
X135215842Y-122129910D01*
X135187892Y-122108837D01*
X134582971Y-121503916D01*
X134582969Y-121503915D01*
X134582967Y-121503913D01*
X134485949Y-121447900D01*
X134485946Y-121447899D01*
X134485945Y-121447898D01*
X134485943Y-121447897D01*
X134485942Y-121447897D01*
X134456944Y-121440127D01*
X134377726Y-121418901D01*
X130776817Y-121418901D01*
X130664781Y-121418901D01*
X130606789Y-121434439D01*
X130556564Y-121447897D01*
X130556557Y-121447900D01*
X130459539Y-121503913D01*
X130459529Y-121503921D01*
X129860405Y-122103046D01*
X129798093Y-122137072D01*
X129727278Y-122132007D01*
X129670442Y-122089460D01*
X129656047Y-122064847D01*
X129648006Y-122046635D01*
X129648005Y-122046634D01*
X129648005Y-122046633D01*
X129568567Y-121967195D01*
X129568565Y-121967194D01*
X129465789Y-121921814D01*
X129465791Y-121921814D01*
X129440668Y-121918900D01*
X128850940Y-121918900D01*
X128850933Y-121918901D01*
X128825809Y-121921814D01*
X128825805Y-121921816D01*
X128771691Y-121945709D01*
X128701295Y-121954925D01*
X128669906Y-121945709D01*
X128615793Y-121921816D01*
X128615791Y-121921815D01*
X128615790Y-121921814D01*
X128615788Y-121921814D01*
X128590668Y-121918900D01*
X128100940Y-121918900D01*
X128100933Y-121918901D01*
X128075809Y-121921814D01*
X128075802Y-121921816D01*
X127996692Y-121956747D01*
X127926296Y-121965965D01*
X127894905Y-121956747D01*
X127815789Y-121921814D01*
X127815791Y-121921814D01*
X127790668Y-121918900D01*
X127300940Y-121918900D01*
X127300933Y-121918901D01*
X127275809Y-121921814D01*
X127275805Y-121921816D01*
X127221691Y-121945709D01*
X127151295Y-121954925D01*
X127119906Y-121945709D01*
X127065793Y-121921816D01*
X127065791Y-121921815D01*
X127065790Y-121921814D01*
X127065788Y-121921814D01*
X127040668Y-121918900D01*
X126450940Y-121918900D01*
X126450933Y-121918901D01*
X126425809Y-121921814D01*
X126425805Y-121921816D01*
X126323034Y-121967193D01*
X126279008Y-122011220D01*
X126216695Y-122045245D01*
X126145879Y-122040179D01*
X126119911Y-122026889D01*
X126077611Y-121998625D01*
X125950131Y-121945821D01*
X125950128Y-121945820D01*
X125814795Y-121918900D01*
X125814793Y-121918900D01*
X125676807Y-121918900D01*
X125676804Y-121918900D01*
X125541471Y-121945820D01*
X125541468Y-121945821D01*
X125413989Y-121998625D01*
X125299258Y-122075285D01*
X125299252Y-122075290D01*
X125201690Y-122172852D01*
X125201685Y-122172858D01*
X125125025Y-122287589D01*
X125072221Y-122415068D01*
X125072220Y-122415071D01*
X125045300Y-122550404D01*
X125045300Y-122688398D01*
X125066793Y-122796448D01*
X125060465Y-122867162D01*
X125016910Y-122923229D01*
X124975827Y-122942735D01*
X124956569Y-122947895D01*
X124956564Y-122947896D01*
X124956563Y-122947897D01*
X124956562Y-122947897D01*
X124956558Y-122947899D01*
X124859540Y-123003912D01*
X124859530Y-123003920D01*
X121239910Y-126623542D01*
X120099537Y-127763915D01*
X120066368Y-127797084D01*
X120020316Y-127843135D01*
X120020312Y-127843140D01*
X119964299Y-127940158D01*
X119964297Y-127940163D01*
X119935300Y-128048382D01*
X115746700Y-128048382D01*
X115746700Y-112070894D01*
X123825300Y-112070894D01*
X123825300Y-112407905D01*
X123863033Y-112742798D01*
X123897126Y-112892167D01*
X123938024Y-113071354D01*
X123938026Y-113071360D01*
X123938025Y-113071360D01*
X124049324Y-113389433D01*
X124049335Y-113389460D01*
X124195551Y-113693081D01*
X124195556Y-113693090D01*
X124374851Y-113978436D01*
X124584977Y-114241926D01*
X124823273Y-114480222D01*
X125086763Y-114690348D01*
X125292543Y-114819648D01*
X125372114Y-114869646D01*
X125675749Y-115015869D01*
X125675765Y-115015874D01*
X125675766Y-115015875D01*
X125993839Y-115127174D01*
X125993842Y-115127174D01*
X125993846Y-115127176D01*
X126237039Y-115182682D01*
X126322401Y-115202166D01*
X126322402Y-115202166D01*
X126322406Y-115202167D01*
X126543292Y-115227054D01*
X126657294Y-115239900D01*
X126657296Y-115239900D01*
X126994306Y-115239900D01*
X127091725Y-115228923D01*
X127329194Y-115202167D01*
X127657754Y-115127176D01*
X127975851Y-115015869D01*
X128279486Y-114869646D01*
X128564839Y-114690346D01*
X128828323Y-114480225D01*
X129066625Y-114241923D01*
X129276746Y-113978439D01*
X129283456Y-113967761D01*
X129384842Y-113806406D01*
X129456046Y-113693086D01*
X129602269Y-113389451D01*
X129700770Y-113107952D01*
X129713574Y-113071360D01*
X129713574Y-113071359D01*
X129713576Y-113071354D01*
X129788567Y-112742794D01*
X129819877Y-112464905D01*
X129826300Y-112407905D01*
X129826300Y-112070891D01*
X129824884Y-112058323D01*
X129823992Y-112050404D01*
X149545300Y-112050404D01*
X149545300Y-112188395D01*
X149572220Y-112323728D01*
X149572221Y-112323731D01*
X149591726Y-112370821D01*
X149625025Y-112451211D01*
X149649206Y-112487400D01*
X149701685Y-112565941D01*
X149701690Y-112565947D01*
X149799252Y-112663509D01*
X149799258Y-112663514D01*
X149913989Y-112740175D01*
X150041472Y-112792980D01*
X150176807Y-112819900D01*
X150176808Y-112819900D01*
X150314792Y-112819900D01*
X150314793Y-112819900D01*
X150450128Y-112792980D01*
X150577611Y-112740175D01*
X150692342Y-112663514D01*
X150789914Y-112565942D01*
X150866575Y-112451211D01*
X150919380Y-112323728D01*
X150946300Y-112188393D01*
X150946300Y-112050407D01*
X150919380Y-111915072D01*
X150866575Y-111787589D01*
X150789914Y-111672858D01*
X150789909Y-111672852D01*
X150692347Y-111575290D01*
X150692341Y-111575285D01*
X150609475Y-111519916D01*
X150577611Y-111498625D01*
X150483116Y-111459484D01*
X150450131Y-111445821D01*
X150450128Y-111445820D01*
X150314795Y-111418900D01*
X150314793Y-111418900D01*
X150176807Y-111418900D01*
X150176804Y-111418900D01*
X150041471Y-111445820D01*
X150041468Y-111445821D01*
X149913989Y-111498625D01*
X149799258Y-111575285D01*
X149799252Y-111575290D01*
X149701690Y-111672852D01*
X149701685Y-111672858D01*
X149625025Y-111787589D01*
X149572221Y-111915068D01*
X149572220Y-111915071D01*
X149545300Y-112050404D01*
X129823992Y-112050404D01*
X129803359Y-111867288D01*
X129788567Y-111736006D01*
X129713576Y-111407446D01*
X129696080Y-111357446D01*
X129602275Y-111089366D01*
X129602274Y-111089365D01*
X129602269Y-111089349D01*
X129494421Y-110865400D01*
X129456048Y-110785718D01*
X129456043Y-110785709D01*
X129276748Y-110500363D01*
X129066622Y-110236873D01*
X128828326Y-109998577D01*
X128564836Y-109788451D01*
X128279490Y-109609156D01*
X128279481Y-109609151D01*
X127975860Y-109462935D01*
X127975855Y-109462933D01*
X127975851Y-109462931D01*
X127975845Y-109462928D01*
X127975833Y-109462924D01*
X127657760Y-109351625D01*
X127329198Y-109276633D01*
X126994306Y-109238900D01*
X126994304Y-109238900D01*
X126657296Y-109238900D01*
X126657294Y-109238900D01*
X126322401Y-109276633D01*
X125993839Y-109351625D01*
X125675766Y-109462924D01*
X125675739Y-109462935D01*
X125372118Y-109609151D01*
X125372109Y-109609156D01*
X125086763Y-109788451D01*
X124823273Y-109998577D01*
X124584977Y-110236873D01*
X124374851Y-110500363D01*
X124195556Y-110785709D01*
X124195551Y-110785718D01*
X124049335Y-111089339D01*
X124049324Y-111089366D01*
X123938025Y-111407439D01*
X123863033Y-111736001D01*
X123825300Y-112070894D01*
X115746700Y-112070894D01*
X115746700Y-106550404D01*
X145545300Y-106550404D01*
X145545300Y-106688395D01*
X145572220Y-106823728D01*
X145572221Y-106823731D01*
X145582646Y-106848898D01*
X145625025Y-106951211D01*
X145628264Y-106956058D01*
X145701685Y-107065941D01*
X145701690Y-107065947D01*
X145799252Y-107163509D01*
X145799258Y-107163514D01*
X145913989Y-107240175D01*
X146041472Y-107292980D01*
X146176807Y-107319900D01*
X146199731Y-107319900D01*
X146267852Y-107339902D01*
X146288826Y-107356805D01*
X146683395Y-107751374D01*
X146717421Y-107813686D01*
X146720300Y-107840469D01*
X146720300Y-107862504D01*
X146730922Y-107950963D01*
X146786438Y-108091740D01*
X146786441Y-108091744D01*
X146877877Y-108212321D01*
X146998454Y-108303757D01*
X146998458Y-108303760D01*
X147139235Y-108359276D01*
X147139234Y-108359276D01*
X147158397Y-108361577D01*
X147227698Y-108369899D01*
X147842026Y-108369899D01*
X147905025Y-108386779D01*
X147931282Y-108401939D01*
X148056160Y-108435400D01*
X148185443Y-108435400D01*
X149394382Y-108435400D01*
X149414092Y-108436951D01*
X149418404Y-108437633D01*
X149464281Y-108444900D01*
X150902318Y-108444899D01*
X150996104Y-108430046D01*
X151109142Y-108372450D01*
X151195967Y-108285624D01*
X151258277Y-108251601D01*
X151329093Y-108256665D01*
X151355065Y-108269957D01*
X151386752Y-108291130D01*
X151524697Y-108348269D01*
X151524698Y-108348270D01*
X151671140Y-108377399D01*
X151671144Y-108377400D01*
X151820456Y-108377400D01*
X151820462Y-108377399D01*
X151966898Y-108348271D01*
X151966901Y-108348270D01*
X152075946Y-108303100D01*
X151658118Y-107885273D01*
X151624093Y-107822960D01*
X151629157Y-107752145D01*
X151658118Y-107707081D01*
X151675089Y-107690110D01*
X151689155Y-107704176D01*
X151725909Y-107719400D01*
X151765691Y-107719400D01*
X151802445Y-107704176D01*
X151830576Y-107676045D01*
X151845800Y-107639291D01*
X151845800Y-107619399D01*
X152099354Y-107619399D01*
X152099354Y-107619401D01*
X152295799Y-107815846D01*
X152295801Y-107815846D01*
X152492246Y-107619401D01*
X152492246Y-107619399D01*
X152295801Y-107422954D01*
X152295799Y-107422954D01*
X152099354Y-107619399D01*
X151845800Y-107619399D01*
X151845800Y-107599509D01*
X151830576Y-107562755D01*
X151802445Y-107534624D01*
X151765691Y-107519400D01*
X151725909Y-107519400D01*
X151689155Y-107534624D01*
X151675090Y-107548689D01*
X151658118Y-107531717D01*
X151624092Y-107469405D01*
X151629157Y-107398590D01*
X151658118Y-107353526D01*
X152042245Y-106969399D01*
X151658118Y-106585273D01*
X151624093Y-106522960D01*
X151629157Y-106452145D01*
X151658118Y-106407081D01*
X151675089Y-106390110D01*
X151689155Y-106404176D01*
X151725909Y-106419400D01*
X151765691Y-106419400D01*
X151802445Y-106404176D01*
X151830576Y-106376045D01*
X151845800Y-106339291D01*
X151845800Y-106319399D01*
X152099354Y-106319399D01*
X152099354Y-106319401D01*
X152295799Y-106515846D01*
X152295801Y-106515846D01*
X152492246Y-106319401D01*
X152492246Y-106319399D01*
X152295801Y-106122954D01*
X152295799Y-106122954D01*
X152099354Y-106319399D01*
X151845800Y-106319399D01*
X151845800Y-106299509D01*
X151830576Y-106262755D01*
X151802445Y-106234624D01*
X151765691Y-106219400D01*
X151725909Y-106219400D01*
X151689155Y-106234624D01*
X151675089Y-106248690D01*
X151658118Y-106231719D01*
X151624093Y-106169407D01*
X151629157Y-106098591D01*
X151658118Y-106053528D01*
X152075947Y-105635698D01*
X152075946Y-105635697D01*
X151966908Y-105590531D01*
X151820459Y-105561400D01*
X151671140Y-105561400D01*
X151524698Y-105590529D01*
X151524691Y-105590531D01*
X151522421Y-105591472D01*
X151521136Y-105591609D01*
X151518769Y-105592328D01*
X151518632Y-105591878D01*
X151451830Y-105599054D01*
X151388346Y-105567268D01*
X151374252Y-105551762D01*
X151304430Y-105460769D01*
X151177429Y-105363317D01*
X151177421Y-105363312D01*
X151029518Y-105302049D01*
X150910649Y-105286400D01*
X150383300Y-105286400D01*
X150383300Y-105868400D01*
X150380708Y-105877225D01*
X150382018Y-105886332D01*
X150370862Y-105910757D01*
X150363298Y-105936521D01*
X150356344Y-105942545D01*
X150352524Y-105950912D01*
X150329938Y-105965426D01*
X150309642Y-105983014D01*
X150298955Y-105985338D01*
X150292798Y-105989296D01*
X150257300Y-105994400D01*
X150109300Y-105994400D01*
X150041179Y-105974398D01*
X149994686Y-105920742D01*
X149983300Y-105868400D01*
X149983300Y-105286400D01*
X149455954Y-105286400D01*
X149455945Y-105286401D01*
X149337081Y-105302050D01*
X149337080Y-105302050D01*
X149189178Y-105363312D01*
X149189175Y-105363314D01*
X149172671Y-105375979D01*
X149106451Y-105401579D01*
X149036902Y-105387314D01*
X148986106Y-105337713D01*
X148970619Y-105288822D01*
X148968193Y-105265076D01*
X148912457Y-105096875D01*
X148819434Y-104946061D01*
X148819429Y-104946055D01*
X148694145Y-104820771D01*
X148694139Y-104820766D01*
X148543325Y-104727743D01*
X148375121Y-104672007D01*
X148375118Y-104672006D01*
X148271316Y-104661401D01*
X147999800Y-104661401D01*
X147999800Y-105543401D01*
X147979798Y-105611522D01*
X147926142Y-105658015D01*
X147873800Y-105669401D01*
X147745800Y-105669401D01*
X147745800Y-105797401D01*
X147725798Y-105865522D01*
X147672142Y-105912015D01*
X147619800Y-105923401D01*
X146497397Y-105923401D01*
X146469009Y-105938901D01*
X146417647Y-105939359D01*
X146314795Y-105918900D01*
X146314793Y-105918900D01*
X146176807Y-105918900D01*
X146176804Y-105918900D01*
X146041471Y-105945820D01*
X146041468Y-105945821D01*
X145913989Y-105998625D01*
X145799258Y-106075285D01*
X145799252Y-106075290D01*
X145701690Y-106172852D01*
X145701685Y-106172858D01*
X145625025Y-106287589D01*
X145572221Y-106415068D01*
X145572220Y-106415071D01*
X145545300Y-106550404D01*
X115746700Y-106550404D01*
X115746700Y-105368884D01*
X146512800Y-105368884D01*
X146512800Y-105415401D01*
X147491800Y-105415401D01*
X147491800Y-104661401D01*
X147220283Y-104661401D01*
X147116481Y-104672006D01*
X147116478Y-104672007D01*
X146948274Y-104727743D01*
X146797460Y-104820766D01*
X146797454Y-104820771D01*
X146672170Y-104946055D01*
X146672165Y-104946061D01*
X146579142Y-105096875D01*
X146523406Y-105265079D01*
X146523405Y-105265082D01*
X146512800Y-105368884D01*
X115746700Y-105368884D01*
X115746700Y-73043700D01*
X115766702Y-72975579D01*
X115820358Y-72929086D01*
X115872700Y-72917700D01*
X126086082Y-72917700D01*
X126159774Y-72887176D01*
X126216176Y-72830774D01*
X126246700Y-72757082D01*
X126246700Y-65220118D01*
X192237800Y-65220118D01*
X192237800Y-65365400D01*
X192945800Y-65365400D01*
X192945800Y-65873400D01*
X192237800Y-65873400D01*
X192237800Y-66018681D01*
X192276537Y-66213423D01*
X192276539Y-66213428D01*
X192352522Y-66396866D01*
X192462832Y-66561957D01*
X192462837Y-66561964D01*
X192603235Y-66702362D01*
X192603242Y-66702367D01*
X192768333Y-66812677D01*
X192951771Y-66888660D01*
X192951776Y-66888662D01*
X192991799Y-66896623D01*
X192991800Y-66896623D01*
X192991800Y-66079460D01*
X193005740Y-66103605D01*
X193061595Y-66159460D01*
X193130004Y-66198956D01*
X193206304Y-66219400D01*
X193285296Y-66219400D01*
X193361596Y-66198956D01*
X193430005Y-66159460D01*
X193485860Y-66103605D01*
X193499800Y-66079460D01*
X193499800Y-66896623D01*
X193539823Y-66888662D01*
X193539828Y-66888660D01*
X193723266Y-66812677D01*
X193888357Y-66702367D01*
X193888364Y-66702362D01*
X194028762Y-66561964D01*
X194028767Y-66561957D01*
X194139077Y-66396866D01*
X194215060Y-66213428D01*
X194215062Y-66213423D01*
X194253799Y-66018681D01*
X194253800Y-66018677D01*
X194253800Y-65873400D01*
X193545800Y-65873400D01*
X193545800Y-65365400D01*
X194253800Y-65365400D01*
X194253800Y-65220122D01*
X194253799Y-65220118D01*
X200877800Y-65220118D01*
X200877800Y-65365400D01*
X201585800Y-65365400D01*
X201585800Y-65873400D01*
X200877800Y-65873400D01*
X200877800Y-66018681D01*
X200916537Y-66213423D01*
X200916539Y-66213428D01*
X200992522Y-66396866D01*
X201102832Y-66561957D01*
X201102837Y-66561964D01*
X201243235Y-66702362D01*
X201243242Y-66702367D01*
X201408333Y-66812677D01*
X201591771Y-66888660D01*
X201591776Y-66888662D01*
X201631799Y-66896623D01*
X201631800Y-66896623D01*
X201631800Y-66079460D01*
X201645740Y-66103605D01*
X201701595Y-66159460D01*
X201770004Y-66198956D01*
X201846304Y-66219400D01*
X201925296Y-66219400D01*
X202001596Y-66198956D01*
X202070005Y-66159460D01*
X202125860Y-66103605D01*
X202139800Y-66079460D01*
X202139800Y-66896623D01*
X202179823Y-66888662D01*
X202179828Y-66888660D01*
X202363266Y-66812677D01*
X202528357Y-66702367D01*
X202528364Y-66702362D01*
X202668762Y-66561964D01*
X202668767Y-66561957D01*
X202779077Y-66396866D01*
X202855060Y-66213428D01*
X202855062Y-66213423D01*
X202893799Y-66018681D01*
X202893800Y-66018677D01*
X202893800Y-65873400D01*
X202185800Y-65873400D01*
X202185800Y-65365400D01*
X202893800Y-65365400D01*
X202893800Y-65220122D01*
X202893799Y-65220118D01*
X202855062Y-65025376D01*
X202855060Y-65025371D01*
X202779077Y-64841933D01*
X202668767Y-64676842D01*
X202668762Y-64676835D01*
X202528364Y-64536437D01*
X202528357Y-64536432D01*
X202363267Y-64426122D01*
X202179820Y-64350136D01*
X202179815Y-64350135D01*
X202139800Y-64342174D01*
X202139800Y-65159339D01*
X202125860Y-65135195D01*
X202070005Y-65079340D01*
X202001596Y-65039844D01*
X201925296Y-65019400D01*
X201846304Y-65019400D01*
X201770004Y-65039844D01*
X201701595Y-65079340D01*
X201645740Y-65135195D01*
X201631800Y-65159339D01*
X201631800Y-64342175D01*
X201631799Y-64342174D01*
X201591784Y-64350135D01*
X201591779Y-64350136D01*
X201408332Y-64426122D01*
X201243242Y-64536432D01*
X201243235Y-64536437D01*
X201102837Y-64676835D01*
X201102832Y-64676842D01*
X200992522Y-64841933D01*
X200916539Y-65025371D01*
X200916537Y-65025376D01*
X200877800Y-65220118D01*
X194253799Y-65220118D01*
X194215062Y-65025376D01*
X194215060Y-65025371D01*
X194139077Y-64841933D01*
X194028767Y-64676842D01*
X194028762Y-64676835D01*
X193888364Y-64536437D01*
X193888357Y-64536432D01*
X193723267Y-64426122D01*
X193539820Y-64350136D01*
X193539815Y-64350135D01*
X193499800Y-64342174D01*
X193499800Y-65159339D01*
X193485860Y-65135195D01*
X193430005Y-65079340D01*
X193361596Y-65039844D01*
X193285296Y-65019400D01*
X193206304Y-65019400D01*
X193130004Y-65039844D01*
X193061595Y-65079340D01*
X193005740Y-65135195D01*
X192991800Y-65159339D01*
X192991800Y-64342175D01*
X192991799Y-64342174D01*
X192951784Y-64350135D01*
X192951779Y-64350136D01*
X192768332Y-64426122D01*
X192603242Y-64536432D01*
X192603235Y-64536437D01*
X192462837Y-64676835D01*
X192462832Y-64676842D01*
X192352522Y-64841933D01*
X192276539Y-65025371D01*
X192276537Y-65025376D01*
X192237800Y-65220118D01*
X126246700Y-65220118D01*
X126246700Y-62543700D01*
X126266702Y-62475579D01*
X126320358Y-62429086D01*
X126372700Y-62417700D01*
X140574949Y-62417700D01*
X140597395Y-62419907D01*
G37*
%TD.AperFunction*%
%TD*%
%TA.AperFunction,NonConductor*%
G36*
X203661477Y-147139085D02*
G01*
X203682119Y-147155719D01*
X204609481Y-148083081D01*
X204642966Y-148144404D01*
X204645800Y-148170762D01*
X204645800Y-161068038D01*
X204626115Y-161135077D01*
X204609481Y-161155719D01*
X204182119Y-161583081D01*
X204120796Y-161616566D01*
X204094438Y-161619400D01*
X170769800Y-161619400D01*
X170702761Y-161599715D01*
X170657006Y-161546911D01*
X170645800Y-161495400D01*
X170645800Y-147243400D01*
X170665485Y-147176361D01*
X170718289Y-147130606D01*
X170769800Y-147119400D01*
X203594438Y-147119400D01*
X203661477Y-147139085D01*
G37*
%TD.AperFunction*%
M02*
